<?xml version="1.0" encoding="UTF-8"?><svg id="conhecendo" xmlns="http://www.w3.org/2000/svg" viewBox="0 0 1285 871"><defs><style>.cls-1{fill:#fff;}.cls-2{fill:#05183c;}.cls-3{fill:#ff9460;}.cls-4{fill:#1a3c7d;}.cls-5{fill:#ee4a00;}.cls-6{fill:#06296b;}.cls-7{fill:#ff6d2a;}.cls-8{fill:none;stroke:#fff;stroke-miterlimit:10;stroke-width:25px;}</style></defs><g><path class="cls-1" d="M711.61,789.75c-13.1,1.07-26.25,1.99-39.46,2.76-3.44,.2-6.87,.39-10.28,.56-5.06,.27-10.16,.51-15.22,.73-131.98,5.65-256.26-4.3-359.42-28.77-5.02-1.18-10.15-2.45-15.68-3.86-14.51-3.75-28.33-7.73-41.09-11.85-15.89-5.09-31.13-10.68-45.28-16.59-80.34-33.64-124.04-77.03-126.37-125.49-3.41-70.59,81.75-140.16,233.65-190.85,1.34-.45,2.7-.89,4.09-1.34,1.25-.42,2.61-.86,4-1.31,17.57-5.69,35.99-11.11,54.73-16.1,14.68-3.92,30.26-7.74,46.27-11.36,14.14-3.18,28.36-6.14,42.27-8.8,.68-.14,1.45-.3,2.23-.43,6.85-1.32,13.86-2.61,20.85-3.82,4.32-.76,8.68-1.51,13.07-2.24,13.45-2.23,27.08-4.31,40.51-6.17,1.48-.2,2.92-.4,4.36-.6l5.68-.75c2.34-.32,4.74-.63,7.13-.92,11.1-1.42,22.75-2.78,34.59-4.03,1.43-.16,2.91-.31,4.41-.46l4.37-.44s.1,0,.15-.01c5.46-.55,10.95-1.06,16.48-1.56l8.98-.79c14.72-1.23,29.61-2.28,44.27-3.14,38.71-2.25,77.64-3.15,115.71-2.69,21.98,.27,43.89,1,65.12,2.19,38.13,2.09,75.36,5.66,110.64,10.61l4.3,.62c1.53,.22,2.95,.42,4.37,.64,14.16,2.09,28.27,4.45,41.9,7.01,1.04,.19,2.11,.4,3.19,.61l5.42,1.05h0c77.2,15.23,141.88,37.78,187.07,65.19,47.73,28.95,73.88,63.55,75.64,100.04,.06,.98,.09,2,.1,3.01,.15,13.3-2.89,26.75-9.02,39.98-22.35,48.37-84.59,93.88-180,131.6-4.89,1.94-9.95,3.89-15.04,5.78-97.16,36.22-219.73,61.44-348.67,71.99Zm-129.32-419.7l-4.23,.43c-1.45,.15-2.86,.29-4.28,.45-11.75,1.24-23.27,2.58-34.28,3.99-2.36,.29-4.67,.59-6.96,.9l-5.66,.74c-1.41,.2-2.9,.41-4.38,.6-13.2,1.83-26.67,3.88-39.97,6.09-4.33,.71-8.62,1.46-12.9,2.21-6.93,1.21-13.88,2.48-20.65,3.79-.08,.02-.17,.03-.25,.05-.59,.1-1.18,.22-1.77,.34-13.84,2.65-27.87,5.57-41.81,8.71-15.79,3.56-31.13,7.33-45.59,11.19-18.43,4.9-36.55,10.23-53.84,15.84-1.33,.43-2.61,.84-3.9,1.28-1.42,.46-2.71,.88-4,1.31-70.16,23.42-127.7,51.97-166.43,82.59-39.66,31.35-58.97,63.6-57.41,95.84,2.1,43.79,43.04,83.61,118.37,115.15,13.72,5.73,28.51,11.15,43.97,16.11,12.46,4.01,25.95,7.9,40.12,11.57,5.4,1.38,10.42,2.62,15.35,3.78,101.59,24.1,224.17,33.88,354.48,28.31,5-.22,10.04-.46,15.09-.72,3.4-.16,6.78-.36,10.15-.55,141.46-8.21,277.43-34.35,382.83-73.64,4.98-1.86,9.93-3.76,14.72-5.66,90.38-35.74,151.49-79.96,172.08-124.52,5.45-11.74,8.14-23.63,8.01-35.34,0-.86-.04-1.72-.09-2.59-3.18-65.97-97.21-123.51-251.47-153.96l-5.36-1.04c-1.02-.2-2.03-.39-3.05-.58-13.43-2.53-27.32-4.85-41.3-6.91-1.41-.22-2.76-.41-4.12-.6l-4.4-.63c-34.76-4.88-71.47-8.4-109.1-10.46-20.98-1.17-42.62-1.9-64.33-2.16-37.65-.46-76.14,.44-114.42,2.66-14.51,.85-29.25,1.89-43.83,3.11l-8.83,.77c-5.51,.5-10.97,1.01-16.41,1.56-.05,0-.1,.01-.15,.01Z"/><path class="cls-1" d="M1234.83,238.62c.08,1.65-1.08,3.13-2.95,3.76l-4.61,1.57c-7.92,2.69-14.79,6.57-20.43,11.5-7.21,6.32-11.95,14.09-13.71,22.5l-3.08,16.67c-.37,1.8-2.05,3.1-4.2,3.27-.02,0-.04,.01-.05,.01-2.18,.16-4.06-.88-4.69-2.59l-5.96-16.22c-2.88-7.89-8.37-14.98-15.86-20.52-5.95-4.4-13.01-7.63-20.42-9.32l-4.93-1.13c-1.94-.44-3.25-1.87-3.25-3.55,0-1.68,1.32-3.16,3.27-3.7,.84-.22,1.62-.45,2.39-.7,17.82-5.64,31.2-19.14,34.93-35.25l4.27-16.41c.41-1.75,2.17-3.05,4.38-3.13,2.21-.1,4.05,1.01,4.58,2.77l4.77,15.77c4.77,15.74,19.41,27.25,39.14,30.8,.9,.16,1.8,.3,2.71,.43,2.12,.29,3.61,1.69,3.7,3.47Z"/><g><path class="cls-1" d="M93.07,439.63l-2.2,11.93c-.31,1.5-2.85,1.68-3.38,.25l-4.26-11.6c-2.15-5.88-6.29-11.18-11.77-15.23-4.34-3.21-9.51-5.63-15.2-6.93l-1.42-.33-2.1-.48c-1.64-.37-1.63-2.29,0-2.74h.03c.59-.17,1.18-.34,1.75-.52,13.45-4.26,23.27-14.51,25.97-26.19l.23-.89,2.81-10.81c.35-1.51,2.94-1.63,3.39-.15l3.13,10.35,.28,.92c3.6,11.85,14.75,20.35,29.12,22.93,.66,.12,1.33,.23,2.01,.32,.89,.12,1.37,.71,1.4,1.31,.03,.57-.33,1.15-1.11,1.42l-2.21,.75-1.09,.37c-5.85,1.99-11.02,4.91-15.17,8.54-5.24,4.59-8.87,10.32-10.22,16.78Z"/><path class="cls-1" d="M89.44,454.57h-.04c-1.85,.14-3.45-.74-3.98-2.19l-4.26-11.6c-2.03-5.55-5.89-10.55-11.17-14.45-4.19-3.1-9.16-5.36-14.37-6.56l-3.52-.8c-1.65-.38-2.76-1.59-2.76-3.02,0-1.43,1.12-2.69,2.78-3.14,.59-.16,1.13-.32,1.67-.49,12.54-3.97,21.95-13.48,24.58-24.82l3.05-11.74c.34-1.47,1.88-2.57,3.72-2.66,1.85-.08,3.45,.88,3.89,2.35l3.41,11.28c3.36,11.06,13.65,19.16,27.53,21.66,.63,.12,1.27,.22,1.91,.3,1.77,.25,3.07,1.46,3.14,2.95,.07,1.4-.91,2.66-2.51,3.2l-3.29,1.12c-5.58,1.9-10.42,4.62-14.39,8.1-5.07,4.44-8.4,9.9-9.64,15.81l-2.2,11.91c-.32,1.53-1.75,2.63-3.58,2.78Zm-34.73-38.74l2.19,.5c5.83,1.33,11.38,3.86,16.04,7.31,5.84,4.32,10.12,9.86,12.38,16.02l3.71,10.09,1.9-10.33s0-.02,0-.03c1.38-6.63,5.11-12.76,10.8-17.73,4.41-3.86,9.78-6.89,15.95-8.99l1.93-.66c-.23-.04-.45-.08-.68-.12-15.47-2.78-26.95-11.83-30.7-24.19l-2.95-9.78-2.65,10.21c-2.91,12.54-13.4,23.11-27.37,27.53-.18,.06-.37,.12-.56,.17Zm30.97-39.45h0s0,0,0,0Z"/></g><path class="cls-1" d="M1268.77,574.65c-4.21,4.63-9.97,7.49-16.25,8.09-.14,.02-.28,.03-.43,.04-13.3,1.05-24.69-8.49-25.4-21.27-.7-12.64,9.31-23.78,22.4-25.03,.15-.01,.28-.03,.43-.04,13.3-1.05,24.69,8.49,25.4,21.27,.34,6.19-1.84,12.2-6.16,16.94Z"/><path class="cls-1" d="M174.71,270.11c0,10.95-8.67,20.4-19.89,21.49-.13,.01-.25,.02-.38,.03-11.79,.95-21.89-7.67-22.52-19.22-.63-11.54,8.45-21.65,20.24-22.66,11.79-.94,21.89,7.68,22.52,19.22,.03,.38,.03,.76,.03,1.14Z"/><path class="cls-1" d="M1149.11,476.04c0,2.88-1.09,5.64-3.1,7.84-2.11,2.32-4.98,3.75-8.12,4.05-.08,.01-.15,.01-.22,.02-3.22,.25-6.31-.71-8.71-2.72-2.41-2.01-3.82-4.82-3.99-7.91-.17-3.1,.92-6.11,3.07-8.47,2.16-2.37,5.12-3.84,8.34-4.07,3.22-.25,6.32,.71,8.72,2.72,2.4,2.01,3.82,4.82,3.99,7.91,0,.21,.02,.42,.02,.63Z"/><path class="cls-1" d="M1171.59,599.4c0,2.85-1.09,5.61-3.09,7.81-2.11,2.32-4.98,3.75-8.12,4.05-.07,0-.14,.01-.21,.02-3.22,.25-6.32-.71-8.72-2.72-2.4-2.01-3.81-4.82-3.98-7.92-.36-6.31,4.65-11.89,11.2-12.51,.08-.01,.15-.02,.21-.02,3.22-.25,6.32,.71,8.72,2.72,2.4,2.01,3.81,4.82,3.98,7.91,0,.22,.02,.44,.02,.66Z"/><path class="cls-1" d="M200.19,509.08c0,2.85-1.07,5.61-3.03,7.81-2.07,2.31-4.89,3.75-7.97,4.05-.07,0-.13,.01-.21,.01-3.16,.26-6.19-.71-8.55-2.71-2.35-2.01-3.74-4.82-3.91-7.92-.17-3.09,.91-6.1,3.02-8.47,2.11-2.36,5.05-3.78,8.18-4.06,3.16-.26,6.19,.71,8.55,2.72,2.35,2.01,3.74,4.82,3.9,7.91,0,.22,.02,.44,.02,.66Z"/><path class="cls-1" d="M195.56,616.6c-.08,.01-.18,.02-.27,.02-4.13,.34-8.09-.93-11.18-3.55-3.07-2.63-4.9-6.3-5.11-10.35-.22-4.05,1.18-7.98,3.95-11.08,2.76-3.09,6.5-4.97,10.69-5.31,8.53-.69,15.84,5.55,16.3,13.9,.45,8.26-5.98,15.55-14.38,16.37Z"/><path class="cls-1" d="M1228.97,400.41c-2.76,3.02-6.52,4.9-10.62,5.29-.09,.01-.19,.01-.28,.02-4.21,.33-8.25-.93-11.39-3.55-3.13-2.63-4.99-6.3-5.21-10.35-.22-4.05,1.2-7.98,4.02-11.08,2.82-3.09,6.61-4.94,10.9-5.31,4.21-.34,8.26,.93,11.4,3.55,3.13,2.63,4.98,6.3,5.21,10.35,.22,4.05-1.21,7.98-4.02,11.08Z"/><path class="cls-1" d="M180.96,677.99c.09,1.82-1.2,3.46-3.27,4.16l-6.22,2.12c-10.87,3.7-20.31,9.01-28.04,15.79-9.91,8.67-16.42,19.36-18.84,30.92l-4.16,22.55c-.41,1.98-2.28,3.41-4.66,3.61h-.05c-2.41,.18-4.49-.97-5.19-2.86l-8.06-21.93c-3.96-10.82-11.48-20.55-21.76-28.15-8.17-6.04-17.87-10.47-28.05-12.8l-6.66-1.52c-2.19-.5-3.6-2.04-3.59-3.93,0-1.89,1.42-3.49,3.62-4.09,1.14-.3,2.22-.62,3.29-.96,24.45-7.75,42.83-26.28,47.95-48.38l5.76-22.16c.46-1.96,2.41-3.34,4.85-3.48,2.45-.11,4.48,1.12,5.07,3.06l6.44,21.32c6.56,21.61,26.65,37.43,53.74,42.3,1.23,.22,2.47,.42,3.72,.59,2.35,.33,3.99,1.87,4.1,3.85Z"/><path class="cls-1" d="M211.45,837.66c.15,2.68-2.07,4.98-4.96,5.14l-11.24,.62,.58,10.43c.15,2.68-2.07,4.98-4.96,5.14-2.88,.16-5.35-1.88-5.5-4.56l-.58-10.43-11.24,.62c-2.88,.16-5.35-1.88-5.5-4.56-.15-2.68,2.07-4.98,4.96-5.14l11.24-.62-.58-10.43c-.15-2.68,2.07-4.98,4.96-5.14,2.88-.16,5.35,1.88,5.5,4.56l.58,10.43,11.24-.62c2.88-.16,5.35,1.88,5.5,4.56Z"/><path class="cls-1" d="M53.42,518.18c.15,2.68-2.07,4.98-4.96,5.14l-11.24,.62,.58,10.43c.15,2.68-2.07,4.98-4.96,5.14-2.88,.16-5.35-1.88-5.5-4.56l-.58-10.43-11.24,.62c-2.88,.16-5.35-1.88-5.5-4.56s2.07-4.98,4.96-5.14l11.24-.62-.58-10.43c-.15-2.68,2.07-4.98,4.96-5.14s5.35,1.88,5.5,4.56l.58,10.43,11.24-.62c2.88-.16,5.35,1.88,5.5,4.56Z"/><path class="cls-1" d="M1084.75,646.44c.15,2.68-2.07,4.98-4.96,5.14l-11.24,.62,.58,10.43c.15,2.68-2.07,4.98-4.96,5.14-2.88,.16-5.35-1.88-5.5-4.56l-.58-10.43-11.24,.62c-2.88,.16-5.35-1.88-5.5-4.56-.15-2.68,2.07-4.98,4.96-5.14l11.24-.62-.58-10.43c-.15-2.68,2.07-4.98,4.96-5.14,2.88-.16,5.35,1.88,5.5,4.56l.58,10.43,11.24-.62c2.88-.16,5.35,1.88,5.5,4.56Z"/><path class="cls-1" d="M1255.36,722.18c.15,2.68-2.07,4.98-4.96,5.14l-11.24,.62,.58,10.43c.15,2.68-2.07,4.98-4.96,5.14-2.88,.16-5.35-1.88-5.5-4.56l-.58-10.43-11.24,.62c-2.88,.16-5.35-1.88-5.5-4.56-.15-2.68,2.07-4.98,4.96-5.14l11.24-.62-.58-10.43c-.15-2.68,2.07-4.98,4.96-5.14s5.35,1.88,5.5,4.56l.58,10.43,11.24-.62c2.88-.16,5.35,1.88,5.5,4.56Z"/></g><path class="cls-8" d="M588.62,462.8l-5.63-1.41c18.74-28.12,29.81-62.68,29.81-100.01,0-27.06-5.95-53.92-17.24-77.77,16.2-37.56,11.76-72.39,10.29-83.92-.08-.64-.15-1.2-.21-1.67,0-.04-.01-.07-.01-.11,0-.02-.01-.05-.01-.07v-.02c-4.72-51.24-26.3-98.35-60.77-132.7-34.37-34.25-78.77-53.12-125.01-53.12-103.31,0-187.37,90.33-187.37,201.35,0,24.13,3.9,47.62,11.6,69.86-3.94,11.11-6.03,23.62-6.03,36.28,0,43.51,25.18,76.02,47.7,76.02,7.31,0,14.27-2.57,18.87-6.6,3.46,17.84,12.16,53.76,29.58,79.18h0s-12.74,12.75-12.74,12.75c-1.89,1.89-1.89,4.96,0,6.86,.95,.95,2.18,1.42,3.43,1.42s2.49-.47,3.43-1.42l10.29-10.29v-.12c0-.8,.32-1.56,.87-2.13,.21,.25,.4,.5,.62,.75h0s-1.49,1.5-1.49,1.5v80.8c-1.45-1.77-3.49-3.61-6.11-4.53-2.81-1.01-5.83-.78-8.75,.68-10.23,5.14-10.58,10.89-9.88,13.86,0,0,0,.01,.01,.04,0,.05,.01,.1,.04,.15-31.52,10.72-68.3,28.81-72.77,55.65-5.93,35.62,35.38,77.47,76.26,91.1,18.96,6.33,50.57,9.63,83.44,9.63,20.84,0,42.19-1.33,61.13-4.06,18.94-2.73,35.48-6.86,46.7-12.48,17.79-8.88,27.2-20.08,27.98-33.26,1.53-25.8-30.54-53.14-58.85-72.09,.12-.33,.22-.65,.29-.96,.69-2.97,.34-8.72-9.93-13.85-10.22-5.08-16.56,.18-16.83,.41-.29,.24-.53,.56-.72,.9-.02,.05-1.7,3.14-5.42,6.85,.01-.08,.01-.17,.01-.25v-64.4c1.82,.13,3.67,.23,5.59,.3,1.65,.05,3.53,.11,5.35,.11,8.74,0,17.31-.79,25.67-2.29h.01l6.29,12.6c.85,1.7,2.57,2.68,4.34,2.68,.73,0,1.48-.17,2.17-.51,2.4-1.2,3.37-4.11,2.17-6.51l-5.19-10.38c17.91-4.52,34.64-12.4,49.61-23.01,0,0,.01,0,.01-.01l15.35,11.52c.87,.65,1.89,.97,2.91,.97,1.47,0,2.92-.67,3.88-1.94,1.61-2.13,1.18-5.18-.97-6.79l-13.12-9.83c10.25-8.28,19.54-17.9,27.66-28.59h0s9.31,2.32,9.31,2.32c.39,.11,.79,.16,1.18,.16,2.17,0,4.15-1.48,4.7-3.69,.64-2.59-.93-5.23-3.53-5.88Zm-150.38,2.44c.89,.64,1.32,1.75,1.12,2.82l-5.59,27.92c-.22,1.12-1.09,1.98-2.19,2.19-.18,.04-.36,.06-.55,.06-.92,0-1.79-.46-2.33-1.25l-9.28-13.92-14.36,14.34c-.8,.8-2,1.04-3.04,.61-1.04-.44-1.72-1.45-1.72-2.58v-19.54h-25.13c-1.14,0-2.16-.69-2.58-1.73-.44-1.04-.19-2.24,.61-3.04l14.34-14.34-13.92-9.29c-.92-.61-1.39-1.71-1.2-2.8,.18-1.09,.99-1.96,2.07-2.23l22.35-5.59c.79-.19,1.62-.04,2.29,.44l39.11,27.93Zm91.62-56.38l4.36,13.08c.34,1.03,.06,2.17-.74,2.91-.79,.75-1.94,.97-2.95,.56l-26.48-10.58-21.08,15.82c-.5,.36-1.08,.56-1.67,.56-.32,0-.63-.06-.95-.17-.87-.32-1.54-1.04-1.77-1.95l-5.06-20.22h-36.92c-1.13,0-2.16-.68-2.58-1.73-.44-1.04-.19-2.24,.61-3.04l13.56-13.56-29.22-9.75c-1.2-.4-1.98-1.54-1.92-2.8,.07-1.25,.97-2.3,2.19-2.57,1.03-.23,25.4-5.55,34.08-5.66,5.4-.06,13.39,1.45,21.08,2.91,6.69,1.27,13.63,2.58,18.11,2.68,13.69,.3,66.14-5.5,66.67-5.56,1.3-.15,2.53,.64,2.95,1.88,.42,1.25-.08,2.62-1.21,3.29l-23.24,13.96,34.08,14.61c1.22,.52,1.9,1.82,1.64,3.13-.27,1.3-1.41,2.23-2.74,2.23h-40.81Z"/><g><path class="cls-4" d="M605.65,198.02s-.01-.07-.01-.11c0-.02-.01-.05-.01-.07v-.02c-4.72-51.24-26.3-98.35-60.77-132.7-34.37-34.25-78.77-53.12-125.01-53.12-103.31,0-187.37,90.33-187.37,201.35,0,24.13,3.9,47.62,11.6,69.86,.11,.35,.23,.69,.35,1.03,.42,1.2,1.56,2.01,2.85,2.02h.01c1.27,0,2.41-.8,2.85-2,1.04-2.86,2.21-5.59,3.47-8.17,1.26-2.58,2.63-5.02,4.09-7.3,.73-1.15,1.49-2.26,2.27-3.31,.78-1.05,1.56-2.07,2.38-3.04,8.16-9.77,18.34-15.34,29.03-15.34,5.64,0,11.14,1.53,16.32,4.47,1.44,.81,2.86,1.75,4.24,2.79,.56,.41,1.1,.84,1.65,1.3,.28,.23,.55,.46,.82,.69,.4,.35,.8,.72,1.2,1.08,.4,.36,.8,.75,1.19,1.14l.45,.45c.06,.07,.13,.13,.21,.21,.05,.06,.11,.13,.18,.19,.04,.02,.05,.04,.06,.07h.01s.07,.08,.11,.12c.05,.05,.1,.1,.16,.15h0c.1,.12,.21,.23,.32,.35,.16,.16,.32,.33,.45,.5,.04,.04,.08,.08,.13,.13,.08,.08,.17,.18,.25,.27,.15,.17,.29,.33,.42,.5,.15,.16,.29,.32,.44,.48,.28,.34,.57,.68,.86,1.03h0c.57,.7,1.13,1.42,1.67,2.16h0c1.1,1.49,2.17,3.06,3.18,4.69,.55,1.16,1.05,2.34,1.52,3.53h0c.24,.61,.46,1.2,.67,1.79h0c.21,.61,.4,1.2,.59,1.81h0c.57,1.82,1.04,3.65,1.43,5.48,.25,1.22,.47,2.46,.68,3.69,.19,1.22,.35,2.44,.47,3.64,1.38,13.05-.68,25.38-2.16,32.03-.08,.36-.16,.72-.24,1.04-.07,.38-.16,.73-.25,1.05-.22,.91-.41,1.64-.56,2.15-.05,.19-.1,.36-.15,.5-.04,.13-.06,.23-.08,.29-.01,.05-.02,.07-.02,.08-.29,.92-.12,1.93,.45,2.7,.57,.78,1.48,1.24,2.44,1.24h27.93c1.39,0,2.57-.93,2.92-2.23,.05-.18,.08-.38,.1-.57l7.66-103.41,.61-8.26c.17-2.38,.45-4.74,.82-7.08,.08-.55,.18-1.08,.28-1.62,.01-.1,.02-.19,.06-.29,.01-.1,.02-.18,.05-.28,.04-.27,.1-.53,.15-.8,.12-.62,.24-1.24,.38-1.86,.12-.53,.24-1.07,.36-1.6,.13-.53,.27-1.05,.4-1.59,.11-.44,.23-.87,.34-1.31,.01-.05,.02-.11,.05-.16,.01-.04,.02-.07,.04-.11,.06-.27,.13-.53,.22-.79,.07-.27,.16-.53,.23-.79,.16-.52,.32-1.04,.49-1.56,.44-1.38,.92-2.75,1.43-4.11h.01c.78-2.09,1.64-4.13,2.57-6.13,0-.01,.01-.01,.01-.01,1.25-2.68,2.64-5.29,4.16-7.82,2.46-4.11,5.26-8,8.39-11.65,.51-.61,1.03-1.2,1.56-1.78,.73-.81,1.48-1.61,2.26-2.4,.52-.53,1.04-1.07,1.59-1.59,2.13-2.09,4.39-4.06,6.75-5.92l26.25-20.61c2.9-2.27,6.09-3.98,9.42-5.1,.73-.25,1.45-.47,2.19-.65,3.49-.92,7.1-1.24,10.68-.96,.84,.07,1.67,.17,2.51,.3,.84,.13,1.66,.29,2.49,.5,1.66,.4,3.29,.95,4.87,1.6,.79,.33,1.56,.7,2.34,1.1,.38,.21,.76,.41,1.14,.63,.57,.33,1.13,.67,1.67,1.03,.28,.18,.55,.36,.81,.56,.28,.19,.55,.39,.81,.58l6.1,4.58c16.86,12.63,39.16-1.15,45.6-5.69h.02v-.02c.68-.41,1.3-.78,1.89-1.09,9.52-4.76,21.8-3.41,29.18,3.23,.38,.34,.78,.7,1.18,1.09h.01s.1,.1,.15,.15c.02,.02,.05,.05,.07,.07,.02,.02,.06,.05,.07,.07,.1,.1,.21,.19,.3,.3,.11,.08,.21,.19,.3,.3,.11,.11,.22,.21,.32,.32,.18,.17,.36,.36,.55,.55t.02,.02c.36,.38,.73,.75,1.1,1.15,.36,.38,.72,.76,1.08,1.15,.24,.28,.51,.57,.78,.87,.25,.28,.52,.58,.79,.87,.04,.04,.07,.08,.11,.12,.04,.05,.07,.08,.12,.13,.02,.04,.05,.06,.07,.08,.04,.04,.07,.08,.11,.12,.47,.55,.95,1.1,1.44,1.67,.16,.19,.32,.39,.48,.58,.33,.38,.65,.76,.99,1.16,.36,.44,.74,.89,1.12,1.35,.06,.06,.11,.12,.16,.19,.08,.1,.16,.18,.23,.28,.08,.1,.17,.21,.27,.32,.05,.06,.1,.12,.15,.18,.05,.06,.1,.12,.16,.19,.06,.06,.11,.12,.16,.19,0,0,0,.01,.01,.01,0,.01,.01,.02,.02,.04,.25,.32,.51,.63,.78,.95,.25,.32,.51,.64,.78,.97,.52,.64,1.04,1.3,1.56,1.96,.06,.07,.12,.16,.19,.24,.19,.25,.4,.51,.61,.76,.79,1.01,1.59,2.02,2.38,3.07,.01,.02,.04,.06,.06,.08,.13,.16,.25,.33,.38,.49,.27,.34,.52,.69,.79,1.03,.12,.16,.24,.32,.36,.47h0c.27,.36,.53,.7,.8,1.05,.12,.16,.23,.3,.35,.46,.15,.21,.3,.4,.45,.61,.11,.15,.23,.3,.34,.45,.16,.19,.3,.4,.46,.61l1.16,1.56c.36,.47,.73,.96,1.08,1.43,.74,1.01,1.48,2,2.21,3.01,.61,.8,1.19,1.61,1.76,2.4,.47,.65,.95,1.31,1.42,1.95,.22,.32,.45,.62,.68,.93,.35,.49,.7,.97,1.04,1.44,.5,.69,.99,1.37,1.48,2.05,.4,.57,.8,1.14,1.2,1.7,.07,.11,.15,.21,.23,.32,.19,.27,.39,.53,.58,.8,.13,.19,.28,.39,.41,.58,.01,.01,.01,.02,.02,.04,.02,.04,.05,.06,.07,.1,.01,.02,.04,.05,.05,.07,.04,.06,.08,.13,.13,.19,.05,.06,.1,.12,.13,.18,.12,.18,.24,.36,.36,.53,.33,.46,.65,.92,.97,1.37,0,.01,.01,.01,.01,.01,.45,.63,.89,1.24,1.31,1.84,.19,.3,.41,.61,.63,.9,.19,.29,.4,.58,.61,.87,.21,.29,.41,.57,.62,.86h0c.4,.57,.79,1.13,1.15,1.66,0,0,0,.01,.01,.01,.95,1.35,1.83,2.59,2.62,3.75,.16,.22,.32,.45,.47,.67,.17,.24,.33,.47,.5,.72,.16,.22,.32,.45,.46,.67,.3,.44,.58,.84,.85,1.21,.15,.22,.29,.42,.42,.62,.13,.18,.25,.36,.38,.53,.19,.27,.38,.52,.53,.75,.47,.68,.85,1.19,1.14,1.59,.04,.07,.08,.13,.13,.19,.12,.15,.22,.28,.3,.39,.17,.27,.34,.46,.47,.59,.91,.9,2.28,1.14,3.43,.59,1.14-.55,1.83-1.72,1.73-2.98Z"/><path class="cls-1" d="M339.92,474.79c-.16,.11-.3,.23-.44,.36-.56,.57-.87,1.33-.87,2.13v.12l1.49-1.5,1.65-1.65c-.64-.02-1.29,.16-1.83,.53Zm9.19,2.27s-.05-.04-.07-.05l.05,.05s.08,.08,.13,.12c-.04-.05-.07-.08-.11-.12Zm.12,.12h-.01s.08,.08,.12,.12c-.04-.05-.07-.08-.11-.12Zm.11,.12l.02,.02h0s-.01-.02-.02-.02Zm31.95,26.15c-.84-.52-1.67-1.04-2.51-1.58-.65-.41-1.31-.84-1.95-1.27-.57-.38-1.14-.75-1.71-1.14-.68-.46-1.35-.92-2.01-1.39-.51-.35-1.02-.7-1.52-1.07-.62-.44-1.22-.89-1.82-1.32-.63-.47-1.25-.93-1.86-1.41-.19-.13-.39-.28-.57-.44-.57-.44-1.13-.87-1.69-1.31-.16-.13-.3-.25-.46-.38-.64-.51-1.27-1.03-1.9-1.55-.65-.55-1.31-1.09-1.95-1.65-.17-.15-.34-.29-.52-.45-.58-.5-1.15-.99-1.71-1.5-2.73-2.45-5.33-4.97-7.81-7.58,.08,.1,.17,.18,.25,.28,10.32,10.94,22.03,20.15,34.69,27.4l.29-.56c-1.77-.99-3.53-2.04-5.25-3.09Zm13.82,7.63l-.28,.57c9.91,4.84,20.28,8.51,30.95,10.92,.04,0,.06,.01,.08,.02,.06,.01,.11,.02,.17,.04-10.56-2.75-21-6.67-30.93-11.55Z"/><path class="cls-3" d="M445.22,531.58v64.4c0,.08,0,.17-.01,.25-1.53,1.53-3.42,3.16-5.69,4.74-.36,.25-.73,.5-1.1,.73-.05,.05-.1,.07-.16,.11-.24,.16-.5,.32-.75,.46-.38,.24-.76,.47-1.15,.69-.45,.27-.91,.51-1.38,.75-.4,.22-.81,.42-1.24,.63-.62,.3-1.25,.59-1.88,.86-.02,.01-.05,.02-.07,.02-.06,.04-.12,.06-.18,.07-.49,.22-.98,.41-1.48,.59-.55,.22-1.12,.41-1.69,.61-.56,.18-1.14,.36-1.71,.53-.58,.17-1.16,.33-1.76,.47-.58,.15-1.18,.29-1.78,.41-.59,.12-1.2,.24-1.82,.35-.61,.1-1.22,.19-1.84,.28-.63,.08-1.25,.16-1.88,.22-.45,.05-.91,.08-1.36,.12-.24,.02-.5,.05-.74,.06-.64,.04-1.3,.07-1.95,.08-1.05,.04-2.13,.04-3.21,.01-.5-.01-.98-.02-1.48-.05-2.92-.13-5.95-.46-9.07-.98-1.73-.29-3.43-.64-5.09-1.05-.27-.06-.53-.13-.8-.19-.34-.1-.68-.18-1.02-.28-.45-.12-.9-.25-1.33-.39-.63-.18-1.25-.39-1.87-.59-.68-.22-1.36-.46-2.02-.7-.64-.23-1.27-.47-1.89-.73-.62-.25-1.24-.51-1.84-.76-1.21-.53-2.4-1.09-3.56-1.69-.63-.32-1.25-.64-1.87-.97-.35-.18-.69-.38-1.03-.57-.84-.47-1.66-.95-2.46-1.44-.81-.49-1.6-.99-2.38-1.5-2.79-1.84-5.4-3.81-7.81-5.84-.52-.44-1.03-.89-1.54-1.33-2.47-2.16-4.74-4.39-6.79-6.58-.44-.46-.86-.92-1.27-1.38-.36-.4-.73-.81-1.08-1.21-1.19-1.35-2.28-2.68-3.3-3.96-.34-.42-.67-.85-.99-1.26-.81-1.07-1.58-2.1-2.28-3.08-.23-.33-.46-.64-.67-.96-.86-1.22-1.61-2.36-2.27-3.39-.17-.25-.33-.5-.47-.74-1.73-2.76-2.69-4.61-2.85-4.9-.23-.51-1.14-2.35-2.74-4.29v-80.8l1.49-1.5c1.44,1.77,3.02,3.58,4.76,5.48,.17,.18,.33,.36,.5,.55,.73,.79,1.45,1.58,2.21,2.35,10.68,11.26,65.87,41.73,77.1,44.24,.04,.02,.07,.02,.12,.02,3.77,.85,7.55,1.53,11.38,2.07,2.95,.42,5.94,.74,9.04,.96Z"/><path class="cls-2" d="M468.17,588.08c-10.22-5.08-16.56,.18-16.83,.41-.29,.24-.53,.56-.72,.9-.02,.05-1.7,3.14-5.42,6.85-1.53,1.53-3.42,3.16-5.69,4.74-.36,.25-.73,.5-1.1,.73-.05,.05-.1,.07-.16,.11-.24,.16-.5,.32-.75,.46-.38,.24-.76,.47-1.15,.69-.45,.27-.91,.51-1.38,.75-.41,.23-.82,.44-1.24,.63-.62,.3-1.25,.59-1.88,.86-.02,.01-.05,.02-.07,.02-.06,.04-.12,.06-.18,.07-.49,.22-.98,.41-1.48,.59-.55,.22-1.12,.41-1.69,.61-.56,.19-1.13,.38-1.71,.53-.58,.18-1.16,.34-1.76,.47-.58,.15-1.18,.29-1.78,.41-.59,.13-1.2,.25-1.82,.35-.61,.11-1.22,.21-1.84,.28-.62,.1-1.25,.17-1.88,.22-.45,.06-.9,.1-1.36,.12-.24,.02-.5,.05-.74,.06-.64,.04-1.3,.07-1.95,.08-1.05,.04-2.13,.04-3.21,.01-.5-.01-.98-.02-1.48-.05-2.92-.13-5.95-.46-9.07-.98-1.73-.29-3.43-.64-5.09-1.05-.27-.06-.53-.13-.8-.19-.34-.1-.68-.18-1.02-.28-.45-.12-.89-.24-1.33-.39-.63-.18-1.25-.38-1.87-.59-.68-.22-1.36-.46-2.02-.7-.64-.23-1.27-.47-1.89-.73-.62-.25-1.24-.51-1.84-.76-1.21-.53-2.4-1.09-3.56-1.69-.63-.32-1.25-.64-1.87-.97-.35-.18-.69-.38-1.03-.57-.84-.46-1.66-.95-2.46-1.44-.81-.49-1.6-.99-2.38-1.5-2.79-1.84-5.4-3.81-7.81-5.84-.52-.42-1.04-.87-1.54-1.33-2.47-2.16-4.74-4.39-6.79-6.58-.45-.46-.87-.92-1.27-1.38-.38-.41-.74-.81-1.08-1.21-1.19-1.35-2.28-2.68-3.3-3.96-.35-.42-.68-.85-.99-1.26-.81-1.07-1.58-2.1-2.28-3.08-.23-.33-.46-.64-.67-.96-.86-1.22-1.61-2.36-2.27-3.39-.17-.25-.33-.5-.47-.74-1.73-2.76-2.69-4.61-2.85-4.9-.23-.51-1.14-2.35-2.74-4.29-1.45-1.77-3.49-3.61-6.11-4.53-2.81-1.01-5.83-.78-8.75,.68-10.23,5.14-10.58,10.89-9.88,13.86,.01,.06,4.57,12.15,20.09,31.85,4.1,5.21,8.85,9.71,13.66,13.77,9.01,7.61,18.67,13.22,28.83,16.74,.68,.23,1.37,.46,2.05,.68,.76,.24,1.53,.47,2.3,.69,.04,.01,.07,.02,.12,.04,.62,.17,1.24,.34,1.86,.49,.64,.18,1.31,.34,1.98,.49,.73,.17,1.45,.33,2.21,.47,.08,.02,.18,.04,.28,.05,.68,.13,1.37,.27,2.06,.38,.96,.17,1.92,.32,2.9,.45,2.17,.29,4.29,.51,6.39,.65,.7,.05,1.39,.1,2.09,.13,.55,.02,1.09,.05,1.64,.06,.53,.02,1.04,.04,1.56,.05h.22c.58,.01,1.16,.01,1.73,.01h.81c2.51-.02,4.97-.13,7.36-.34,.52-.05,1.03-.1,1.55-.15,.98-.1,1.94-.21,2.9-.34,.41-.05,.81-.11,1.22-.17,.41-.05,.81-.11,1.21-.18,.12-.01,.24-.04,.36-.06,.74-.12,1.48-.25,2.23-.39,5.01-.95,9.95-2.28,14.82-4.01,10.85-3.88,19.52-9.08,25.79-13.63,.06-.04,.11-.07,.16-.12,.42-.3,.82-.61,1.22-.91,.25-.18,.51-.38,.76-.58,.16-.11,.32-.23,.46-.36,.42-.34,.82-.67,1.22-.98,.08-.05,.17-.12,.24-.19,.16-.13,.3-.25,.45-.38,.23-.18,.45-.36,.65-.55,.44-.35,.84-.7,1.22-1.04,.19-.17,.39-.33,.57-.5,.21-.17,.4-.34,.58-.52,.38-.34,.74-.67,1.07-.98,.17-.16,.33-.32,.49-.46,.28-.25,.55-.51,.79-.75,.53-.55,.96-.97,1.26-1.3,1.21-.72,2.09-2.13,2.57-3.43,.12-.33,.22-.65,.29-.96,.69-2.97,.34-8.72-9.93-13.85Z"/><path class="cls-2" d="M406.64,635.21c-.32,.01-.63,.01-.95,.01-.53,0-1.07,0-1.6-.02,.58,.01,1.16,.01,1.73,.01h.81Z"/><path class="cls-2" d="M420.89,634.03c-.23,.04-.45,.07-.68,.11-.18,.02-.35,.05-.53,.07,.41-.05,.81-.11,1.21-.18Z"/><path class="cls-6" d="M419.68,634.22c.18-.02,.35-.05,.53-.07,.23-.04,.45-.07,.68-.11-.4,.07-.8,.13-1.21,.18Zm1.58-.24c.68-.1,1.36-.22,2.04-.34,.07-.01,.13-.02,.19-.05-.75,.13-1.49,.27-2.23,.39Zm42.99-18.15c.33-.22,.64-.46,.95-.69,.1-.07,.19-.13,.28-.22-.4,.3-.8,.61-1.22,.91Zm-40.76,17.76c.59-.1,1.18-.21,1.76-.33,1.03-.21,2.05-.44,3.06-.68,.63-.15,1.26-.3,1.88-.46,.68-.17,1.35-.35,2-.55,1.32-.36,2.61-.76,3.88-1.18,.51-.17,1.02-.34,1.53-.51,2.04-.72,4.01-1.47,5.9-2.27,.57-.23,1.14-.47,1.7-.72,.68-.3,1.35-.62,2-.92,.52-.24,1.03-.49,1.53-.73,.56-.27,1.1-.55,1.64-.82,.55-.28,1.08-.56,1.6-.84,1.58-.84,3.08-1.7,4.5-2.56,.47-.28,.93-.56,1.39-.85,.92-.57,1.81-1.14,2.66-1.72,1.27-.85,2.47-1.69,3.59-2.52-6.27,4.55-14.94,9.75-25.79,13.63-4.86,1.73-9.81,3.07-14.82,4.01Zm44.68-20.79c.12-.08,.23-.18,.35-.28l.1-.1c-.15,.12-.29,.24-.45,.38Zm.45-.38c.15-.11,.29-.23,.44-.35,.07-.06,.15-.12,.22-.19-.21,.18-.42,.36-.65,.55Zm9.2-9.53c-.49,1.3-1.36,2.72-2.57,3.43-.3,.33-.73,.75-1.26,1.3,37.61,25.11,57.7,48.85,56.63,67-.65,10.86-8.94,20.36-24.64,28.2h-.01c-38.26,19.14-145.54,20.28-186.64,6.58-37.78-12.6-77.55-52.18-72.2-84.36,3.16-19,27.87-37.15,69.65-51.23,4.72,9.83,.62,1.41-.81-1.77-1.14-1.08-1.79-2.72-2.05-3.65-31.52,10.72-68.3,28.81-72.77,55.65-5.93,35.62,35.38,77.47,76.26,91.1,18.96,6.33,50.57,9.63,83.44,9.63,20.84,0,42.19-1.33,61.13-4.06,18.94-2.73,35.48-6.86,46.7-12.48,17.79-8.88,27.2-20.08,27.98-33.26,1.53-25.8-30.54-53.14-58.85-72.09Zm-56.92,31.15c-.4,.07-.8,.13-1.21,.18,.18-.02,.35-.05,.53-.07,.23-.04,.45-.07,.68-.11Z"/><path class="cls-6" d="M530.61,674.61c-.65,10.86-8.94,20.36-24.64,28.2h-.01c-38.26,19.14-145.54,20.28-186.64,6.58-37.78-12.6-77.55-52.18-72.2-84.36,3.16-19,27.87-37.15,69.65-51.23,4.72,9.83,23.53,44.4,59.68,56.77,.68,.24,1.36,.46,2.05,.68,.76,.24,1.53,.47,2.3,.69,.04,.01,.07,.02,.12,.04,.62,.17,1.24,.34,1.86,.49,.64,.18,1.31,.34,1.98,.49,.73,.17,1.45,.33,2.21,.47,.08,.02,.18,.04,.28,.05,.68,.13,1.37,.27,2.06,.38,.96,.17,1.92,.32,2.9,.45,2.17,.29,4.29,.51,6.39,.65,.7,.05,1.39,.1,2.09,.13,.55,.02,1.09,.05,1.64,.06,.53,.02,1.04,.04,1.56,.05h.22c.53,.02,1.07,.02,1.6,.02,.32,0,.63,0,.95-.01,2.51-.02,4.97-.13,7.36-.34,.52-.05,1.03-.1,1.55-.15,.98-.1,1.94-.21,2.9-.34,.41-.05,.81-.11,1.22-.17,.41-.05,.81-.11,1.21-.18,.12-.01,.24-.04,.36-.06,.68-.1,1.36-.22,2.04-.34,.65-.12,1.31-.24,1.95-.38,1.03-.21,2.05-.44,3.06-.68,.63-.15,1.26-.3,1.88-.46,.68-.17,1.35-.35,2-.55,1.32-.36,2.61-.76,3.88-1.18,.51-.17,1.02-.34,1.53-.51,2.04-.72,4.01-1.47,5.9-2.27,.57-.23,1.14-.47,1.7-.72,.68-.3,1.35-.62,2-.92,.52-.24,1.03-.49,1.53-.73,.56-.27,1.1-.55,1.64-.82,.55-.28,1.08-.56,1.6-.84,1.58-.84,3.08-1.7,4.5-2.56,.47-.28,.93-.56,1.39-.85,.92-.57,1.81-1.14,2.66-1.72,1.27-.85,2.47-1.69,3.59-2.52,.06-.04,.11-.07,.16-.12,.33-.22,.64-.46,.95-.69,.1-.07,.19-.13,.28-.22,.25-.18,.51-.38,.76-.58,.16-.11,.32-.23,.46-.36,.42-.32,.84-.64,1.22-.98,.08-.05,.17-.12,.24-.19,.12-.08,.23-.18,.35-.28,.18-.15,.36-.29,.53-.45,.07-.06,.15-.12,.22-.19,.44-.35,.84-.7,1.22-1.04,.19-.17,.39-.33,.57-.5,.21-.17,.4-.34,.58-.52,.38-.34,.74-.67,1.07-.98,.17-.16,.33-.32,.49-.46,.28-.25,.55-.51,.79-.75,37.61,25.11,57.7,48.85,56.63,67Z"/><path class="cls-5" d="M307.74,350.11c-.84,2.33-1.62,4.52-2.33,6.63-.42,1.27-1.61,2.07-2.87,2.07-.33,0-.64-.05-.97-.16-1.59-.52-2.44-2.24-1.92-3.83,.73-2.18,1.54-4.41,2.39-6.78,2.53-7.02,5.33-14.82,6.8-23.4-3.6-.98-14.69-3.67-22.38-1.89-1.64,.38-3.26-.64-3.64-2.27-.38-1.64,.63-3.26,2.27-3.64,8.55-1.99,19.82,.5,24.53,1.72,.74-8.8-.18-18.36-4.32-28.7-4.01-10.04-10.83-14.68-19.19-13.07-7.58,1.46-14.06,7.78-14.06,11.94,0,1.67-1.36,3.03-3.03,3.03s-3.03-1.36-3.03-3.03c0-7.59,8.86-15.94,18.97-17.9,5.38-1.03,18.67-1.48,25.97,16.77,10.17,25.44,2.45,46.85-3.19,62.49Z"/><path class="cls-2" d="M521.57,360.1c-5.49,4.4-12.08,6.6-18.66,6.6s-13.17-2.19-18.67-6.6c-2.7-2.16-3.71-5.67-2.56-8.95,1.14-3.26,4.12-5.37,7.59-5.37h27.28c3.47,0,6.44,2.11,7.59,5.37,1.15,3.27,.13,6.79-2.57,8.95Z"/><path class="cls-2" d="M471.31,451.11c-3.27,.65-6.55,.96-9.78,.96-16.3,0-31.64-7.59-41.53-15.69-11.05-9.07-17.39-20.11-17.39-30.32,0-3.35,2.72-6.06,6.06-6.06s6.06,2.72,6.06,6.06c0,6.46,4.84,14.29,12.95,20.94,12.2,10,28.38,14.79,41.25,12.22,3.27-.65,6.47,1.48,7.13,4.75,.67,3.29-1.47,6.49-4.75,7.14Z"/><path class="cls-4" d="M573.41,406.63c-.27,1.3-1.41,2.23-2.74,2.23h-40.81l4.36,13.08c.34,1.03,.06,2.17-.74,2.91-.79,.75-1.94,.97-2.95,.56l-26.48-10.58-21.08,15.82c-.5,.36-1.08,.56-1.67,.56-.32,0-.63-.06-.95-.17-.87-.32-1.54-1.04-1.77-1.95l-5.06-20.22h-36.92c-1.13,0-2.16-.68-2.58-1.73-.44-1.04-.19-2.24,.61-3.04l13.56-13.56-29.22-9.75c-1.2-.4-1.98-1.54-1.92-2.8,.07-1.25,.97-2.3,2.19-2.57,1.03-.23,25.4-5.55,34.08-5.66,5.4-.06,13.39,1.45,21.08,2.91,6.69,1.27,13.63,2.58,18.11,2.68,13.69,.3,66.14-5.5,66.67-5.56,1.3-.15,2.53,.64,2.95,1.88,.42,1.25-.08,2.62-1.21,3.29l-23.24,13.96,34.08,14.61c1.22,.52,1.9,1.82,1.64,3.13Z"/><path class="cls-4" d="M439.35,468.06l-5.59,27.92c-.22,1.12-1.09,1.98-2.19,2.19-.18,.04-.36,.06-.55,.06-.92,0-1.79-.46-2.33-1.25l-9.28-13.92-14.36,14.34c-.8,.8-2,1.04-3.04,.61-1.04-.44-1.72-1.45-1.72-2.58v-19.54h-25.13c-1.14,0-2.16-.69-2.58-1.73-.44-1.04-.19-2.24,.61-3.04l14.34-14.34-13.92-9.29c-.92-.61-1.39-1.71-1.2-2.8,.18-1.09,.99-1.96,2.07-2.23l22.35-5.59c.79-.19,1.62-.04,2.29,.44l39.11,27.93c.89,.64,1.32,1.75,1.12,2.82Z"/><g><path class="cls-4" d="M356.24,459.77l-17.63,17.64-10.29,10.29c-.95,.95-2.19,1.42-3.43,1.42s-2.49-.47-3.43-1.42c-1.89-1.9-1.89-4.97,0-6.86l17.11-17.11,10.83-10.83c1.89-1.89,4.96-1.89,6.85,0,1.9,1.89,1.9,4.97,0,6.86Z"/><path class="cls-4" d="M396.26,508.79l-1.15,2.29-.28,.57-2.42,4.84-.29,.58-7.03,14.05c-.85,1.71-2.56,2.69-4.34,2.69-.73,0-1.47-.17-2.17-.52-2.39-1.19-3.36-4.11-2.17-6.5l7.13-14.26,.29-.57,2.42-4.86,.29-.56,1.04-2.1c1.2-2.4,4.11-3.37,6.51-2.17,2.39,1.2,3.36,4.11,2.17,6.51Z"/><path class="cls-4" d="M494.64,544.47c-.69,.34-1.44,.51-2.17,.51-1.77,0-3.49-.98-4.34-2.68l-6.29-12.6-2.84-5.66-2.04-4.09c-1.2-2.4-.23-5.31,2.17-6.51,2.39-1.19,5.31-.22,6.5,2.17l3.2,6.41h.01l2.78,5.55,5.19,10.38c1.2,2.4,.23,5.31-2.17,6.51Z"/><path class="cls-4" d="M563.39,515.11c-.96,1.27-2.41,1.94-3.88,1.94-1.02,0-2.04-.32-2.91-.97l-15.35-11.52-5.09-3.81h-.01l-1.89-1.43c-2.15-1.6-2.58-4.64-.97-6.79,1.61-2.15,4.64-2.57,6.79-.97l4.22,3.16,5.01,3.76,13.12,9.83c2.15,1.61,2.58,4.66,.97,6.79Z"/><path class="cls-4" d="M592.14,468.68c-.56,2.21-2.53,3.69-4.7,3.69-.39,0-.79-.05-1.18-.16l-9.31-2.33-6.41-1.6-6.62-1.65c-2.61-.65-4.18-3.29-3.53-5.88,.64-2.61,3.29-4.18,5.88-3.53l10.46,2.61h0s6.26,1.56,6.26,1.56l5.63,1.41c2.59,.65,4.17,3.29,3.53,5.88Z"/></g><g><path class="cls-2" d="M572.6,238.64c-.64,.21-1.29,.3-1.93,.3-2.53,0-4.9-1.6-5.75-4.15-.04-.11-4.96-13.99-18.51-18.5-12.22-4.09-20.88,8.66-20.96,8.78-1.85,2.79-5.63,3.54-8.41,1.69-2.78-1.86-3.53-5.63-1.67-8.4,4.75-7.14,18.15-19.14,34.89-13.57,19.41,6.47,25.91,25.38,26.18,26.18,1.05,3.18-.65,6.61-3.83,7.67Z"/><path class="cls-2" d="M469.47,219.65c-1.18,1.65-3.04,2.53-4.93,2.53-1.22,0-2.45-.36-3.52-1.13l-39.1-27.93c-2.73-1.94-3.36-5.73-1.42-8.45,1.95-2.73,5.73-3.36,8.46-1.41l39.1,27.92c2.73,1.95,3.36,5.73,1.41,8.46Z"/></g><path class="cls-2" d="M461.98,285.96c0,21.78-6.94,44.92-19.79,44.92s-19.79-23.15-19.79-44.92,6.94-44.93,19.79-44.93,19.79,23.15,19.79,44.93Z"/><path class="cls-2" d="M565.88,291.55c0,19.07-6.15,39.33-17.56,39.33s-17.56-20.26-17.56-39.33,6.16-39.34,17.56-39.34,17.56,20.27,17.56,39.34Z"/><path class="cls-3" d="M582.99,461.39c18.74-28.12,29.81-62.68,29.81-100.01,0-27.06-5.95-53.92-17.24-77.77,16.2-37.56,11.76-72.39,10.29-83.92-.08-.64-.15-1.2-.21-1.67,0-.04-.01-.07-.01-.11,0-.02-.01-.05-.01-.07v-.02c-.06-.38-.19-.75-.4-1.08-.04-.08-.08-.16-.13-.23-.07-.12-.16-.23-.24-.34-.41-.5-2.35-3.27-4.6-6.49-.63-.9-1.31-1.88-2.04-2.92h0c-.34-.5-.69-.98-1.04-1.49-.49-.69-.98-1.41-1.5-2.15-.32-.45-.64-.91-.97-1.38-.22-.29-.42-.59-.64-.9-.42-.61-.87-1.24-1.32-1.87-.1-.13-.19-.27-.28-.4-.15-.21-.3-.41-.44-.62-.16-.21-.3-.41-.45-.62-.07-.11-.16-.22-.23-.33-.11-.16-.23-.33-.35-.5-.1-.15-.21-.29-.3-.44-.01-.01-.02-.01-.02-.02-.3-.41-.59-.84-.9-1.26-.79-1.09-1.58-2.21-2.39-3.33-.38-.52-.75-1.05-1.14-1.58-.64-.89-1.29-1.77-1.93-2.66-.65-.9-1.31-1.79-1.98-2.7-.93-1.27-1.88-2.53-2.81-3.81-.67-.9-1.33-1.78-2-2.67-.24-.34-.49-.67-.74-.99-.04-.05-.07-.1-.11-.15-.25-.34-.51-.68-.76-1.01-.02-.01-.04-.02-.04-.04-1.01-1.33-2.02-2.64-3.02-3.94-.51-.65-1.02-1.3-1.52-1.94-1.02-1.29-2.01-2.55-3.01-3.78-.02-.02-.04-.05-.05-.07h0c-.18-.21-.34-.39-.49-.58l-.95-1.16c-.13-.16-.27-.32-.4-.48-.61-.73-1.2-1.44-1.77-2.15-.04-.04-.06-.07-.08-.11-.04-.04-.08-.08-.11-.12-.04-.04-.07-.08-.11-.12-.39-.45-.75-.89-1.13-1.32-.24-.28-.47-.55-.7-.81-.05-.05-.1-.1-.13-.15-.17-.19-.34-.39-.5-.58-.29-.33-.58-.65-.86-.97-.04-.04-.07-.08-.11-.12-.38-.42-.75-.84-1.12-1.24-.58-.63-1.14-1.24-1.69-1.81-.08-.08-.17-.18-.24-.27-.16-.15-.29-.29-.42-.44l-.67-.67-.64-.64-.46-.46c-.16-.15-.32-.29-.47-.44h-.01c-.32-.3-.59-.57-.9-.85h-.01c-5.82-5.23-13.79-7.86-21.86-7.63-.64,.02-1.29,.06-1.93,.11-.69,.06-1.37,.13-2.06,.24-.55,.08-1.1,.18-1.65,.28-1.01,.18-2.01,.43-2.99,.73-.32,.1-.63,.19-.95,.29-.63,.21-1.25,.42-1.85,.67-.92,.36-1.83,.76-2.73,1.21-.59,.32-1.14,.63-1.72,.98-.19,.12-.39,.24-.59,.36-.02,.01-.05,.02-.1,.06-.05,.02-.12,.07-.21,.15-.67,.47-1.81,1.24-3.3,2.13-.25,.16-.51,.32-.79,.47-.16,.1-.32,.19-.49,.29-.36,.22-.75,.42-1.15,.64h-.01c-.74,.42-1.53,.84-2.35,1.25-.84,.41-1.71,.82-2.62,1.22-.91,.4-1.85,.79-2.82,1.15-.97,.36-1.96,.72-2.99,1.01-.68,.21-1.37,.4-2.07,.57-.69,.17-1.39,.32-2.11,.45-.7,.13-1.42,.23-2.13,.32-1.9,.23-3.84,.27-5.75,.06-.46-.04-.92-.11-1.38-.18-.08-.01-.17-.02-.25-.05-1.02-.18-2.02-.44-3.02-.78-.52-.18-1.03-.38-1.54-.61-.51-.23-1.01-.47-1.5-.75-.74-.41-1.47-.89-2.18-1.42l-6.1-4.57c-13.72-10.34-32.77-10.15-46.32,.49l-26.26,20.61c-3.16,2.49-6.15,5.16-8.92,8.03-3.35,3.42-6.41,7.1-9.17,10.98-4.6,6.46-8.34,13.51-11.14,20.93-.75,1.99-1.43,4.03-2.04,6.07-.13,.39-.25,.8-.35,1.2-.35,1.21-.67,2.42-.97,3.65-.07,.29-.15,.58-.21,.89-.23,1.04-.46,2.09-.67,3.13h0c-.19,1.07-.39,2.11-.55,3.18-.05,.22-.08,.44-.11,.67-.08,.57-.17,1.14-.24,1.7-.06,.42-.11,.85-.16,1.29-.05,.42-.1,.85-.15,1.29-.08,.85-.17,1.72-.23,2.58l-7.37,99.68c-.38,5.17-4.69,9.17-9.87,9.17h0c-6.03,0-10.62-5.34-9.8-11.31,.81-5.84,1.33-12.92,.86-20.43-.07-1.3-.19-2.62-.33-3.94t0-.02c-.16-1.32-.33-2.64-.55-3.99-.11-.67-.22-1.35-.35-2.02-.1-.51-.19-1.01-.3-1.52-.22-1.01-.45-2.01-.7-3.03-.08-.32-.16-.63-.25-.95-.08-.32-.17-.63-.27-.95-.04-.15-.08-.28-.12-.42-.15-.48-.3-.97-.45-1.45-.06-.18-.12-.38-.18-.56-.06-.18-.13-.38-.19-.56-.02-.07-.05-.13-.07-.21-.02-.06-.04-.12-.06-.18-.1-.29-.21-.58-.32-.87-.01-.02-.01-.06-.02-.08-.02-.06-.04-.11-.06-.16-.13-.38-.28-.75-.42-1.12h0c-.55-1.37-1.13-2.71-1.77-4.04l-.1-.18c-.56-.91-1.13-1.81-1.71-2.68-.59-.86-1.19-1.71-1.79-2.53-1.22-1.65-2.5-3.2-3.79-4.66-.29-.33-.58-.64-.87-.96-.59-.64-1.19-1.25-1.79-1.84-8.74-8.61-18.9-13.13-29.6-13.13-.46,0-.92,.01-1.37,.02-.16,.01-.32,.01-.46,.02-.04,0-.08,0-.12,.01-.52,.02-1.03,.06-1.54,.11h-.04c-.18,.01-.35,.04-.53,.06-.44,.04-.86,.1-1.29,.16-.13,.02-.27,.04-.4,.07-.42,.06-.85,.13-1.27,.22-.23,.04-.46,.08-.69,.15-.27,.05-.52,.1-.78,.17-.38,.08-.75,.17-1.12,.28-.17,.04-.34,.08-.51,.15-.33,.08-.65,.17-.98,.28-.28,.08-.57,.18-.85,.28-.3,.1-.59,.19-.9,.3-.02,.01-.04,.01-.06,.02-1.04,.38-2.09,.8-3.09,1.27-.51,.23-1.01,.47-1.52,.73-.4,.21-.8,.41-1.2,.63-.1,.06-.21,.11-.3,.17-.27,.16-.55,.32-.82,.47-.01,.01-.04,.02-.05,.04-.32,.17-.63,.36-.93,.57-.07,.05-.15,.08-.22,.13-.3,.18-.61,.38-.91,.58-.05,.02-.1,.06-.15,.1-.34,.22-.68,.45-1.01,.68-.24,.17-.49,.34-.72,.52-.27,.19-.53,.39-.79,.58-.61,.46-1.2,.93-1.78,1.43-.28,.22-.56,.46-.84,.7-.21,.18-.41,.36-.62,.55-.7,.63-1.39,1.29-2.09,1.96-.16,.16-.32,.32-.46,.47-.29,.29-.57,.58-.85,.87-.23,.25-.47,.51-.7,.76-.33,.36-.65,.73-.98,1.1-.02,.02-.05,.06-.07,.08-.21,.23-.4,.45-.59,.69-.15,.18-.3,.36-.45,.55-.12,.15-.24,.29-.36,.44-.08,.11-.17,.21-.24,.32-.21,.25-.4,.51-.59,.76-.06,.07-.12,.15-.18,.23-.33,.41-.64,.84-.96,1.27-.01,.02-.04,.05-.05,.07-.32,.41-.61,.84-.91,1.27-.08,.12-.16,.23-.23,.35-.32,.44-.61,.9-.91,1.35-.07,.11-.15,.22-.21,.33-.34,.52-.68,1.05-1.01,1.6-.02,.04-.05,.08-.08,.13-.35,.58-.72,1.19-1.04,1.78-.04,.05-.06,.08-.08,.13-.15,.25-.29,.52-.42,.79-.23,.4-.44,.8-.65,1.2-.48,.91-.96,1.83-1.41,2.78,0,.01-.01,.01-.01,.02-.04,.08-.08,.17-.12,.25-1.25,2.57-2.38,5.29-3.41,8.11-.12,.34-.24,.68-.36,1.02-3.94,11.11-6.03,23.62-6.03,36.28,0,43.51,25.18,76.02,47.7,76.02,7.31,0,14.27-2.57,18.87-6.6,3.46,17.84,12.16,53.76,29.58,79.18h0s4.36-4.35,4.36-4.35l10.83-10.83c1.89-1.89,4.96-1.89,6.85,0,1.9,1.89,1.9,4.97,0,6.86l-11.83,11.83c1.43,1.77,2.98,3.56,4.7,5.46,.04,.04,.07,.07,.11,.12h.01s.07,.07,.11,.12t.02,.01h0c.64,.72,1.29,1.42,1.94,2.11,.08,.1,.17,.18,.25,.28,.07,.07,.13,.15,.21,.22,2.34,2.57,4.79,6,7.35,8.29,.56,.51,1.13,1.01,1.71,1.5,.18,.16,.35,.3,.52,.45,.64,.56,1.3,1.1,1.95,1.65,.63,.52,1.26,1.04,1.9,1.55,.16,.12,.3,.24,.46,.38,.56,.44,1.12,.87,1.69,1.31,.18,.16,.38,.3,.57,.44,.61,.47,1.22,.93,1.86,1.41,.59,.44,1.2,.89,1.82,1.32,.5,.36,1.01,.72,1.52,1.07,.67,.47,1.33,.93,2.01,1.39,.57,.39,1.14,.76,1.71,1.14,.64,.44,1.3,.86,1.95,1.27,.84,.53,1.67,1.05,2.51,1.58,1.72,1.05,3.19,1.44,4.96,2.44l.28-.56,1.05-2.1c1.2-2.4,4.11-3.37,6.51-2.17,2.39,1.2,3.36,4.11,2.17,6.51l-1.15,2.29-.28,.57-2.42,4.84c10.35,5.1,21.25,9.19,32.26,12.04,.04,.02,.07,.02,.12,.02,3.77,.85,7.55,1.53,11.38,2.07,2.93,.42,5.92,.74,9.01,.96h.04c1.82,.13,3.67,.23,5.59,.3,1.65,.05,3.53,.11,5.35,.11,8.74,0,17.31-.79,25.67-2.29h.01l-2.84-5.66-2.04-4.09c-1.2-2.4-.23-5.31,2.17-6.51,2.39-1.19,5.31-.22,6.5,2.17l3.2,6.41h.01l2.78,5.55c17.91-4.52,34.64-12.4,49.61-23.01,0,0,.01,0,.01-.01l-5.09-3.81h-.01l-1.89-1.43c-2.15-1.6-2.58-4.64-.97-6.79,1.61-2.15,4.64-2.57,6.79-.97l4.22,3.16,5.01,3.76c10.25-8.28,19.54-17.9,27.66-28.59h0s-6.41-1.61-6.41-1.61l-6.62-1.65c-2.61-.65-4.18-3.29-3.53-5.88,.64-2.61,3.29-4.18,5.88-3.53l10.46,2.61h0s6.26,1.56,6.26,1.56Zm11.83-268.92c.16,.22,.32,.45,.47,.67,.17,.24,.33,.47,.5,.72-.17-.24-.34-.47-.51-.72-.15-.22-.3-.44-.46-.67-.8-1.14-1.69-2.39-2.62-3.75,.95,1.35,1.83,2.59,2.62,3.75Zm-7.93-11.28c-.12-.17-.25-.35-.38-.53h.01c.12,.18,.24,.36,.36,.53Zm-.68-.98s.04,.05,.05,.07c-.05-.06-.1-.11-.12-.17,.02,.04,.05,.06,.07,.1Zm-4-5.58c.5,.69,.99,1.37,1.48,2.05,.4,.57,.8,1.14,1.2,1.7-1.21-1.69-2.46-3.42-3.72-5.19,.35,.49,.7,.97,1.04,1.44Zm-10.6-14.39c.15,.21,.3,.4,.45,.61-.16-.21-.32-.4-.46-.61-.12-.16-.23-.3-.34-.46,.12,.16,.23,.3,.35,.46Zm-1.15-1.52h0s-.01,0-.01,0c-.12-.16-.24-.32-.35-.47,.12,.16,.24,.32,.36,.47Zm-8.38-10.65c.05,.06,.1,.12,.15,.18,.05,.06,.1,.12,.16,.19,.05,.06,.1,.12,.13,.18,0,0,.01,.01,.02,.01,0,0,0,.01,.01,.01,0,.01,.01,.02,.02,.04,.25,.32,.51,.63,.78,.95,.25,.32,.51,.64,.78,.97,.52,.64,1.04,1.3,1.56,1.96,.06,.07,.12,.16,.19,.24,.19,.25,.4,.51,.61,.76,.39,.51,.79,1.02,1.18,1.53-.61-.78-1.2-1.54-1.79-2.29-1.14-1.43-2.26-2.84-3.36-4.18-.24-.29-.47-.59-.7-.87,.08,.1,.17,.21,.27,.32Zm-1.77-2.13c.36,.44,.74,.89,1.12,1.35-.72-.86-1.42-1.7-2.11-2.51,.33,.38,.65,.76,.99,1.16Zm-3.1-3.63s.05,.06,.07,.08c-.04-.02-.06-.05-.08-.08-.04-.04-.07-.08-.11-.13,.04,.05,.07,.08,.12,.13Zm-38.02-9.31c.68-.41,1.3-.78,1.89-1.09-.59,.33-1.21,.69-1.89,1.1h0Zm-37.51,218.13c1.14-3.26,4.12-5.37,7.59-5.37h27.28c3.47,0,6.44,2.11,7.59,5.37,1.15,3.27,.13,6.79-2.57,8.95-5.49,4.4-12.08,6.6-18.66,6.6s-13.17-2.19-18.67-6.6c-2.7-2.16-3.71-5.67-2.56-8.95Zm-14.21-217.01l6.1,4.58-6.1-4.57c-.27-.21-.53-.4-.81-.59,.28,.19,.55,.39,.81,.58Zm-6.45,86.92l-39.1-27.93c-2.73-1.94-3.36-5.73-1.42-8.45,1.95-2.73,5.73-3.36,8.46-1.41l39.1,27.92c2.73,1.95,3.36,5.73,1.41,8.46-1.18,1.65-3.04,2.53-4.93,2.53-1.22,0-2.45-.36-3.52-1.13Zm.96,64.9c0,21.78-6.94,44.92-19.79,44.92s-19.79-23.15-19.79-44.92,6.94-44.93,19.79-44.93,19.79,23.15,19.79,44.93Zm1.05-154.62c-.78-.39-1.55-.76-2.34-1.1,.79,.33,1.56,.7,2.34,1.1Zm-7.21-2.7c-.82-.19-1.66-.36-2.49-.5,.84,.13,1.66,.29,2.49,.5Zm-94.4,199.45l7.66-103.41-7.65,103.4c-.01,.21-.05,.4-.11,.58,.05-.18,.08-.38,.1-.57Zm-33.73-1.52c.04-.13,.08-.29,.15-.5-.05,.19-.1,.36-.15,.5Zm2.21-44.1c-.4-1.83-.87-3.66-1.43-5.47,.57,1.81,1.04,3.64,1.43,5.47Zm-2.02-7.27s-.01,0-.01-.01h.01Zm-15.94-20.83c-1.38-1.03-2.8-1.96-4.24-2.79,1.44,.81,2.86,1.75,4.24,2.79Zm-4.18,95.76c-.84,2.33-1.62,4.52-2.33,6.63-.42,1.27-1.61,2.07-2.87,2.07-.33,0-.64-.05-.97-.16-1.59-.52-2.44-2.24-1.92-3.83,.73-2.18,1.54-4.41,2.39-6.78,2.53-7.02,5.33-14.82,6.8-23.4-3.6-.98-14.69-3.67-22.38-1.89-1.64,.38-3.26-.64-3.64-2.27-.38-1.64,.63-3.26,2.27-3.64,8.55-1.99,19.82,.5,24.53,1.72,.74-8.8-.18-18.36-4.32-28.7-4.01-10.04-10.83-14.68-19.19-13.07-7.58,1.45-14.06,7.78-14.06,11.94,0,1.67-1.36,3.03-3.03,3.03s-3.03-1.36-3.03-3.03c0-7.59,8.86-15.94,18.97-17.9,5.38-1.03,18.67-1.48,25.97,16.77,10.17,25.44,2.45,46.85-3.19,62.49Zm10.06-90.51s-.07-.08-.12-.12h.01s.07,.08,.11,.12c.05,.05,.1,.1,.16,.15h0c-.06-.04-.11-.1-.16-.15Zm1.3,1.41c-.12-.13-.24-.28-.38-.41,.04,.04,.08,.08,.13,.13,.08,.08,.17,.18,.25,.27,.15,.17,.29,.33,.42,.5-.15-.17-.29-.33-.44-.49Zm3.41,4.17c1.1,1.48,2.17,3.04,3.18,4.68,.55,1.16,1.05,2.34,1.52,3.53-.47-1.19-.98-2.36-1.53-3.52-1.02-1.64-2.07-3.21-3.16-4.69Zm52.66,210.71c-1.14,0-2.16-.69-2.58-1.73-.44-1.04-.19-2.24,.61-3.04l14.34-14.34-13.92-9.29c-.92-.61-1.39-1.71-1.2-2.8,.18-1.09,.99-1.96,2.07-2.23l22.35-5.59c.79-.19,1.62-.04,2.29,.44l39.11,27.93c.89,.64,1.32,1.75,1.12,2.82l-5.59,27.92c-.22,1.12-1.09,1.98-2.19,2.19-.18,.04-.36,.06-.55,.06-.92,0-1.79-.46-2.33-1.25l-9.28-13.92-14.36,14.34c-.8,.8-2,1.04-3.04,.61-1.04-.44-1.72-1.45-1.72-2.58v-19.54h-25.13Zm96.15-24.78c-3.27,.65-6.55,.96-9.78,.96-16.3,0-31.64-7.59-41.53-15.69-11.05-9.07-17.39-20.11-17.39-30.32,0-3.35,2.72-6.06,6.06-6.06s6.06,2.72,6.06,6.06c0,6.46,4.84,14.29,12.95,20.94,12.2,10,28.38,14.79,41.25,12.22,3.27-.65,6.47,1.48,7.13,4.75,.67,3.29-1.47,6.49-4.75,7.14Zm102.1-44.48c-.27,1.3-1.41,2.23-2.74,2.23h-40.81l4.36,13.08c.34,1.03,.06,2.17-.74,2.91-.79,.75-1.94,.97-2.95,.56l-26.48-10.58-21.08,15.82c-.5,.36-1.08,.56-1.67,.56-.32,0-.63-.06-.95-.17-.87-.32-1.54-1.04-1.77-1.95l-5.06-20.22h-36.92c-1.13,0-2.16-.68-2.58-1.73-.44-1.04-.19-2.24,.61-3.04l13.56-13.56-29.22-9.75c-1.2-.4-1.98-1.54-1.92-2.8,.07-1.25,.97-2.3,2.19-2.57,1.03-.23,25.4-5.55,34.08-5.66,5.4-.06,13.39,1.45,21.08,2.91,6.69,1.27,13.63,2.58,18.11,2.68,13.69,.3,66.14-5.5,66.67-5.56,1.3-.15,2.53,.64,2.95,1.88,.42,1.25-.08,2.62-1.21,3.29l-23.24,13.96,34.08,14.61c1.22,.52,1.9,1.82,1.64,3.13Zm-42.64-115.07c0-19.07,6.16-39.34,17.56-39.34s17.56,20.27,17.56,39.34-6.15,39.33-17.56,39.33-17.56-20.26-17.56-39.33Zm41.83-52.91c-.64,.21-1.29,.3-1.93,.3-2.53,0-4.9-1.6-5.75-4.15-.04-.11-4.96-13.99-18.51-18.5-12.22-4.09-20.88,8.66-20.96,8.78-1.85,2.79-5.63,3.54-8.41,1.69-2.78-1.86-3.53-5.63-1.67-8.4,4.75-7.14,18.15-19.14,34.89-13.57,19.41,6.47,25.91,25.38,26.18,26.18,1.05,3.18-.65,6.61-3.83,7.67Zm2.45-73.8s.04,.04,.06,.06c.74,1.01,1.48,2,2.21,3.01-.75-1.03-1.5-2.05-2.27-3.07Z"/><path class="cls-5" d="M445.18,531.58c-3.09-.22-6.07-.53-9.01-.96-3.83-.55-7.61-1.22-11.38-2.07-.05,0-.08,0-.12-.02-11.01-2.85-21.91-6.94-32.26-12.04l2.42-4.84c16.96,8.09,21.54,9.74,30.3,11.72,4.47,1.01,19.93,4.69,20.05,8.2h0Z"/><path class="cls-5" d="M386.25,507.1l-2.42,4.86c-13.62-7.65-26.03-17.07-36.25-27.68-.75-.78-1.48-1.56-2.21-2.35-.17-.18-.33-.36-.5-.55-1.75-1.9-3.32-3.71-4.76-5.48l4.3-4.3c1.43,1.77,2.98,3.56,4.7,5.46-.02-.01-.05-.04-.07-.05l.05,.05s.08,.08,.13,.12c.05,.04,.08,.08,.12,.12l.02,.02c.64,.7,1.29,1.41,1.94,2.1,.08,.1,.17,.18,.25,.28,10.32,10.94,22.03,20.15,34.69,27.4Z"/><g><circle class="cls-2" cx="520.91" cy="202.08" r="2.42"/><circle class="cls-2" cx="397.25" cy="417.89" r="2.42"/><circle class="cls-2" cx="294.19" cy="379.09" r="2.42"/></g></g><path class="cls-1" d="M876.46,717.01c-27.56,0-65.06-3.1-87.21-17.87-18.07-12.04-27.21-26.31-27.16-42.4,.09-25.52,23.15-45.83,47.31-62.48,1.42-6.07,5.86-12.3,15.03-16.89,.86-.43,1.73-.82,2.6-1.16v-20.59c-34.53-2.89-63.74-12.52-86.97-28.68-26.45-18.4-44.02-44.36-52.22-77.16-4.46-17.82-1.13-44.73,4.91-65.46-16.85-14.86-31.04-34.72-41.74-49.7-10.97-15.38-7.29-28-4.12-34.16,6.87-13.37,23.74-21.95,51.41-26.11,.41-2.93,.91-5.69,1.49-8.26v-.5l.22-.68c11.95-107.91,94.64-189.14,192.81-189.14,106.66,0,193.52,95.9,194.29,214.11,5.44,3.28,9.55,8.64,11.17,15.13,.49,1.98,.73,3.97,.73,5.94,0,7.2-3.1,13.8-8.19,18.35,4.44,4.46,7.19,10.6,7.19,17.38s-2.57,12.74-7.23,17.4c-3.8,3.8-8.61,6.21-13.81,6.97-1.41,3.7-2.99,7.33-4.74,10.84-3.32,6.66-7.18,12.78-11.47,18.21l-.25,.52-.13,.13c-7.84,14.8-17.35,28.61-28.28,41.08l-.15,.17-5.01,5.51c-7.57,8.02-15.73,15.38-24.28,21.9-11.17,22.3-28.21,41.61-49.63,56.3v22.62c.87,.31,1.73,.68,2.58,1.1,8.04,4.02,12.05,9.03,13.96,13.61,37.18,13.9,57.84,31.92,61.46,53.61,6.13,36.83-32.95,76.94-71.85,89.91-19.09,6.36-51.57,10.47-82.74,10.47Zm-42.27-116.5v7.21s-5.57,3.71-5.57,3.71c-17.8,11.86-41.48,29.46-41.53,45.39-.02,7.17,5.37,14.41,16.02,21.52,13.03,8.69,39.77,13.68,73.34,13.68,28.27,0,58.34-3.69,74.83-9.19,31.28-10.43,58.57-41.18,55.09-62.09-2.11-12.68-21.02-26-51.86-36.55l-10.38-3.55,1.64-8.12s-.07-.04-.1-.06l-17.63,11v-71.46l5.89-3.67c20.24-12.62,36.2-29.86,46.32-49.99v-3.43l5.08-3.76c8.23-6.07,16.09-13.04,23.36-20.73l4.69-5.16c9.96-11.37,18.59-24.02,25.64-37.6l.81-1.66,1.01-1.01c3.35-4.18,6.38-8.98,9.02-14.25,2.44-4.91,4.5-10.13,6.09-15.49l2.66-8.94h.5l.8-12.55c.21-3.23,.24-6.33,.1-9.23l-.5-10.26,11.91-2.96-9.86-.09,.44-12.82c.08-2.2,.11-4.47,.11-6.94,0-105.15-75.94-190.69-169.29-190.69-85.54,0-157.67,71.91-168.02,167.38v1.28l-.45,1.43c-1.03,4.3-1.76,9.52-2.17,15.51l-.28,4.08-.07,5.06c-.33,24.65,3.82,51.26,6.68,63.12l1.34,5.56-3.33,4.65c-1.41,1.97-2.81,4.42-4.15,7.27l-1.8,3.83-1.56,4.35c-7.21,20.05-10.25,46.15-6.92,59.42,17.28,69.1,79.09,85.81,127.91,87.65l12.03,.45v69.83l-14.6-2.5c-.15-.01-.77,.05-1.82,.58-.59,.29-1.05,.56-1.41,.79Zm-154.42-285.34c5.93,8.29,12.82,17.89,20.32,26.84-1.4-9.92-2.52-21.08-3.01-32.21-9.08,1.78-14.49,3.85-17.31,5.37Z"/><g><path class="cls-1" d="M955.86,577.83c-.05,.08-.08,.18-.13,.28,.05-.1,.1-.18,.15-.28h-.01Z"/><path class="cls-5" d="M958.57,572.36c-.05,.25-.11,.49-.17,.7-.25,.9-.82,2.12-1.69,2.99-.19,.44-.49,1.04-.84,1.78h-.01c-.05,.08-.08,.18-.13,.28-.11,.23-.23,.47-.36,.73-.1,.17-.18,.36-.28,.55-.1,.19-.21,.39-.3,.58-.32,.61-.67,1.26-1.04,1.95-.38,.69-.8,1.42-1.25,2.18-.29,.52-.61,1.04-.93,1.59-.33,.53-.67,1.08-1.02,1.65-.55,.86-1.12,1.75-1.73,2.67-.38,.56-.76,1.13-1.16,1.71-.47,.67-.96,1.35-1.45,2.04-.47,.63-.95,1.27-1.44,1.92-.25,.33-.51,.65-.76,.98-.33,.44-.68,.86-1.02,1.3-.69,.84-1.39,1.69-2.13,2.53-.33,.38-.65,.76-1.01,1.14-.29,.34-.59,.67-.9,.99-.53,.59-1.08,1.18-1.64,1.76-.08,.08-.17,.16-.24,.24-.32,.33-.64,.67-.98,.99-.32,.33-.65,.65-.99,.98-.68,.65-1.37,1.31-2.07,1.96-.02,.01-.04,.02-.05,.05-.69,.62-1.41,1.25-2.13,1.87-.36,.33-.74,.64-1.12,.95-.36,.3-.73,.59-1.09,.89-.79,.64-1.6,1.26-2.44,1.87-.4,.3-.81,.59-1.22,.9-.8,.57-1.62,1.13-2.45,1.67-.08,.05-.16,.11-.24,.16-.38,.24-.75,.49-1.14,.72-.44,.28-.87,.56-1.32,.81-.9,.53-1.81,1.05-2.73,1.55-.63,.35-1.26,.68-1.9,.99-.74,.38-1.49,.74-2.26,1.09-.53,.25-1.08,.49-1.62,.72-.5,.22-.99,.42-1.5,.63-.51,.21-1.02,.4-1.54,.59-.51,.19-1.03,.39-1.56,.57-.52,.18-1.04,.36-1.59,.53-.46,.15-.92,.29-1.39,.44-.76,.23-1.54,.44-2.34,.64-.35,.1-.7,.18-1.07,.28-.11,.02-.23,.05-.35,.07-.48,.11-.97,.23-1.45,.33-1.71,.36-3.46,.67-5.25,.91-7.64,1.02-14.73,.96-21.23,.17-.36-.05-.73-.1-1.08-.15-2.74-.36-5.36-.87-7.88-1.48-.45-.1-.89-.21-1.31-.33-.39-.1-.78-.19-1.16-.3-.47-.12-.95-.25-1.41-.4-.41-.12-.84-.24-1.25-.38-.82-.25-1.64-.52-2.44-.8-.78-.27-1.53-.55-2.28-.82-.02-.01-.05-.01-.08-.04-.76-.29-1.53-.59-2.27-.9-1.12-.46-2.19-.93-3.25-1.43-.35-.17-.7-.33-1.04-.5-2.06-.99-3.99-2.02-5.8-3.08-.3-.18-.59-.35-.89-.52-.58-.35-1.15-.7-1.71-1.05-.28-.18-.56-.35-.82-.52-.81-.53-1.6-1.05-2.35-1.58-.41-.29-.81-.58-1.2-.85-1.31-.96-2.51-1.88-3.58-2.74-.33-.27-.64-.52-.93-.78-.67-.56-1.27-1.08-1.83-1.58-.53-.47-1.01-.92-1.44-1.32-.07-.07-.13-.15-.21-.19-.13-.15-.27-.27-.39-.39h-.01c-.59-.57-1.04-1.04-1.36-1.37-1.22-.8-2.01-2.34-2.34-3.43,0-.01-.01-.02-.01-.04-.8-2.69-.79-7.88,8.34-12.45,3.87-1.93,7.09-2.12,9.51-1.71,3.09,.52,4.87,2.01,5.01,2.12,.29,.25,.53,.56,.7,.9,.04,.07,.15,.28,.35,.59,.11,.18,.24,.4,.42,.65,.07,.13,.17,.27,.28,.41,.08,.13,.19,.28,.32,.44,.22,.32,.49,.65,.78,1.02,.13,.17,.29,.35,.46,.55,.18,.23,.4,.49,.64,.74,.22,.25,.46,.51,.73,.78,.34,.36,.72,.74,1.13,1.12,.18,.18,.38,.35,.57,.52,.47,.42,.97,.85,1.52,1.27,.22,.18,.45,.36,.69,.53,.22,.18,.45,.34,.68,.5,.23,.17,.47,.34,.72,.5,.28,.21,.57,.39,.87,.57,.27,.18,.55,.35,.82,.51,.34,.21,.68,.4,1.04,.59,.47,.27,.96,.52,1.45,.75,.3,.16,.62,.3,.93,.45s.63,.28,.95,.41c.32,.13,.64,.27,.97,.39,.65,.25,1.33,.5,2.02,.72,.23,.08,.46,.16,.69,.22,.47,.15,.95,.28,1.43,.4,.35,.1,.7,.18,1.07,.25t.02,.01c.27,.07,.55,.13,.82,.18,.34,.07,.68,.15,1.03,.21,.25,.05,.5,.1,.76,.13,.41,.07,.84,.13,1.27,.19,.44,.06,.87,.11,1.32,.15,.34,.05,.68,.07,1.03,.11,.61,.05,1.24,.08,1.87,.11,.69,.04,1.39,.05,2.11,.05,2.99,0,6.23-.27,9.74-.85,.75-.12,1.5-.27,2.24-.44,.46-.08,.91-.18,1.36-.29,1.19-.28,2.34-.61,3.48-.96,.29-.08,.57-.17,.85-.27,.13-.04,.25-.08,.39-.13,.27-.08,.52-.17,.79-.27,.32-.11,.62-.22,.93-.34,.63-.24,1.26-.48,1.88-.74,.62-.25,1.24-.52,1.83-.8,.61-.27,1.2-.56,1.78-.85,.53-.25,1.04-.52,1.56-.8,.06-.04,.12-.06,.18-.1,.72-.38,1.42-.78,2.12-1.2,.75-.44,1.49-.9,2.21-1.37,.73-.46,1.44-.95,2.13-1.43,.69-.48,1.37-.98,2.04-1.49,.23-.16,.46-.33,.68-.52,.42-.33,.86-.67,1.27-1.01,.64-.51,1.26-1.03,1.87-1.56,.3-.27,.61-.53,.9-.8,.59-.51,1.18-1.05,1.73-1.6,.42-.4,.84-.81,1.24-1.21,.41-.4,.8-.8,1.19-1.2,.25-.27,.51-.53,.76-.8,.27-.27,.51-.53,.74-.8,.27-.27,.51-.53,.73-.8,.49-.52,.93-1.04,1.37-1.56,.24-.25,.45-.52,.65-.78,.44-.52,.85-1.03,1.25-1.53,.39-.51,.78-.99,1.15-1.48,.38-.49,.73-.96,1.05-1.42,.34-.47,.68-.93,.99-1.37,.24-.33,.46-.65,.67-.97,.04-.06,.07-.12,.11-.17,.17-.25,.34-.49,.49-.72,.13-.21,.27-.4,.39-.58,.3-.47,.59-.92,.85-1.33,.91-1.44,1.53-2.53,1.88-3.18,.16-.29,.27-.5,.3-.57,.35-.75,2.24-4.56,5.76-6.67,.58-.36,1.2-.68,1.87-.91,2.46-.87,5.1-.67,7.64,.59,8.37,4.18,9.08,8.92,8.51,11.75Z"/><path class="cls-7" d="M955.24,694.68c-16.99,5.66-47.84,9.83-78.78,9.83s-63.1-4.32-80.28-15.77c-14.36-9.57-21.63-20.32-21.59-31.96,.07-21.16,23.44-39.99,47.1-55.75,.33,1.09,1.12,2.63,2.34,3.43,.32,.33,.76,.8,1.36,1.37h.01c.12,.12,.25,.24,.39,.39,.07,.05,.13,.12,.21,.19,.44,.4,.91,.85,1.44,1.32,.56,.5,1.16,1.02,1.83,1.58,.29,.25,.61,.51,.93,.78,1.07,.86,2.27,1.78,3.58,2.74,.39,.27,.79,.56,1.2,.85,.75,.52,1.54,1.04,2.35,1.58,.27,.17,.55,.34,.82,.52,.56,.35,1.13,.7,1.71,1.05,.29,.17,.58,.34,.89,.52,1.81,1.05,3.73,2.09,5.8,3.08,.34,.17,.69,.33,1.04,.5,1.05,.5,2.13,.97,3.25,1.43,.74,.3,1.5,.61,2.27,.9,.04,.02,.06,.02,.08,.04,.75,.28,1.5,.56,2.28,.82,.8,.28,1.61,.55,2.44,.8,.41,.13,.84,.25,1.25,.38,.46,.15,.93,.28,1.41,.4,.39,.11,.78,.21,1.16,.3,.42,.12,.86,.23,1.31,.33,2.52,.61,5.14,1.12,7.88,1.48,.35,.05,.72,.1,1.08,.15,6.5,.79,13.59,.85,21.23-.17,1.79-.24,3.54-.55,5.25-.91,.49-.1,.97-.22,1.45-.33,.12-.02,.24-.05,.35-.07,.36-.1,.72-.18,1.07-.28,.8-.21,1.58-.41,2.34-.64,.47-.15,.93-.29,1.39-.44,.55-.17,1.07-.35,1.59-.53,.53-.18,1.05-.38,1.56-.57,.52-.19,1.03-.39,1.54-.59,.51-.21,1.01-.41,1.5-.63,.55-.23,1.09-.46,1.62-.72,.76-.35,1.52-.72,2.26-1.09,.64-.32,1.27-.64,1.9-.99,.92-.5,1.83-1.02,2.73-1.55,.45-.25,.89-.53,1.32-.81,.39-.23,.76-.47,1.14-.72,.08-.05,.16-.11,.24-.16,.82-.55,1.65-1.1,2.45-1.67,.41-.3,.82-.59,1.22-.9,.84-.61,1.65-1.22,2.44-1.87,.36-.29,.73-.58,1.09-.89,.38-.3,.75-.62,1.12-.95,.73-.62,1.44-1.25,2.13-1.87,.01-.02,.02-.04,.05-.05,.7-.65,1.39-1.31,2.07-1.96,.34-.33,.68-.65,.99-.98,.34-.33,.67-.67,.98-.99,.07-.08,.16-.16,.24-.24,.56-.58,1.1-1.16,1.64-1.76,.3-.33,.61-.65,.9-.99,.35-.38,.68-.76,1.01-1.14,.74-.85,1.44-1.7,2.13-2.53,.34-.44,.69-.86,1.02-1.3,.25-.33,.51-.65,.76-.98,.5-.64,.97-1.29,1.44-1.92,.5-.69,.98-1.37,1.45-2.04,.4-.58,.79-1.15,1.16-1.71,.62-.92,1.19-1.81,1.73-2.67,.35-.57,.69-1.12,1.02-1.65,.33-.55,.64-1.07,.93-1.59,.45-.76,.87-1.49,1.25-2.18,.38-.69,.73-1.35,1.04-1.95,.1-.19,.21-.39,.3-.58,.1-.18,.18-.38,.28-.55,.13-.25,.25-.5,.36-.73,.05-.1,.1-.18,.15-.28,.35-.74,.64-1.35,.84-1.78,.86-.87,1.43-2.1,1.69-2.99,.06-.22,.12-.45,.17-.7,26.13,8.94,56.43,23.99,60.15,46.33,4.95,29.74-29.43,64.65-63.47,76Z"/><path class="cls-1" d="M1005.26,412.35h0s.08,.04,.13,.05c-.05-.01-.08-.04-.13-.05Zm19.54-.17c.87-.27,1.73-.58,2.59-.95-.86,.35-1.73,.67-2.59,.95Zm19.4-135.79c-.9-.23-1.79-.42-2.69-.56,.91,.16,1.81,.35,2.7,.58,.34,.08,.68,.18,1.02,.28-.34-.12-.68-.22-1.03-.3Zm-319.53-42.31h-.01c-.02,.08-.04,.17-.06,.24,5.23-9.86,11.3-17.54,17.99-22.82-6.67,5.19-12.72,12.82-17.92,22.58Z"/><path class="cls-3" d="M940.55,524.2v36.72c-3.52,2.11-5.41,5.92-5.76,6.67-.04,.07-.15,.28-.3,.57-.35,.64-.97,1.73-1.88,3.18-.25,.41-.55,.86-.85,1.33-.12,.18-.25,.38-.39,.58-.15,.23-.32,.46-.49,.72-.04,.05-.07,.11-.11,.17-.21,.32-.42,.64-.67,.97-.32,.44-.65,.9-.99,1.37-.33,.46-.68,.93-1.05,1.42-.38,.48-.76,.97-1.15,1.48-.4,.5-.81,1.01-1.25,1.53-.21,.25-.41,.52-.65,.78-.44,.52-.89,1.04-1.37,1.56-.22,.27-.46,.53-.73,.8-.23,.27-.47,.53-.74,.8-.25,.27-.51,.53-.76,.8-.39,.4-.78,.8-1.19,1.2-.4,.4-.81,.81-1.24,1.21-.56,.55-1.14,1.09-1.73,1.6-.29,.27-.59,.53-.9,.8-.61,.53-1.22,1.05-1.87,1.56-.41,.34-.85,.68-1.27,1.01-.22,.19-.45,.36-.68,.52-.67,.51-1.35,1.01-2.04,1.49-.69,.49-1.41,.97-2.13,1.43-.72,.47-1.46,.93-2.21,1.37-.7,.42-1.41,.82-2.12,1.2-.06,.04-.12,.06-.18,.1-.52,.28-1.03,.55-1.56,.8-.58,.29-1.18,.58-1.78,.85-.59,.28-1.21,.55-1.83,.8-.62,.25-1.25,.5-1.88,.74-.32,.12-.62,.23-.93,.34-.27,.1-.52,.18-.79,.27-.13,.05-.25,.1-.39,.13-.28,.1-.56,.18-.85,.27-1.14,.35-2.29,.68-3.48,.96-.45,.11-.9,.21-1.36,.29-.74,.17-1.49,.32-2.24,.44-3.5,.58-6.74,.85-9.74,.85-.72,0-1.42-.01-2.11-.05-.63-.02-1.26-.06-1.87-.11-.35-.04-.69-.06-1.03-.11-.45-.04-.89-.08-1.32-.15-.44-.06-.86-.12-1.27-.19-.27-.04-.51-.08-.76-.13-.35-.06-.69-.13-1.03-.21-.28-.05-.56-.11-.82-.18t-.02-.01c-.36-.07-.72-.16-1.07-.25-.48-.12-.96-.25-1.43-.4-.23-.06-.46-.13-.69-.22-.69-.22-1.37-.46-2.02-.72-.33-.12-.65-.25-.97-.39-.32-.13-.63-.27-.95-.41s-.63-.29-.93-.45c-.5-.23-.98-.49-1.45-.75-.36-.19-.7-.39-1.04-.59-.28-.16-.56-.33-.82-.51-.3-.18-.59-.36-.87-.57-.24-.16-.48-.33-.72-.5-.23-.16-.46-.32-.68-.5-.24-.17-.47-.35-.69-.53-.55-.42-1.04-.85-1.52-1.27-.19-.17-.39-.34-.57-.52-.41-.38-.79-.75-1.13-1.12-.27-.27-.51-.52-.73-.78-.24-.25-.46-.51-.64-.74-.17-.19-.33-.38-.46-.55-.29-.36-.56-.7-.78-1.02-.12-.16-.23-.3-.32-.44-.11-.15-.21-.28-.28-.41-.18-.25-.32-.47-.42-.65-.21-.32-.32-.52-.35-.59-.17-.34-.41-.64-.7-.9-.13-.11-1.92-1.6-5.01-2.12v-38.13h.08c.92,.04,1.86,.07,2.78,.1,1.93,.06,3.78,.06,5.76,.06,3.92,0,7.93-.12,11.91-.35,.95-.05,1.89-.12,2.84-.19h.15c.84-.07,1.66-.13,2.51-.21l.7-.07c.64-.05,1.29-.11,2.02-.18,.35-.04,.72-.07,.99-.11,.85-.08,1.69-.18,2.5-.28,.95-.11,1.89-.24,2.84-.36h.05s.1-.01,.16-.02l2.12-.3c.69-.1,1.38-.21,2.07-.33,.17-.01,.33-.05,.42-.06,.44-.06,.87-.15,1.3-.22,.38-.06,.76-.13,1.13-.19,.16-.02,.25-.04,.27-.05,.52-.08,1.04-.18,1.56-.28l.4-.07c.67-.13,1.33-.25,1.99-.39,1.73-.34,3.56-.73,5.58-1.2,.93-.21,1.87-.44,2.75-.67,.96-.23,1.92-.47,2.89-.73,.69-.18,1.38-.38,2-.56,.7-.18,1.42-.39,2.06-.59,.65-.18,1.3-.36,1.94-.57l1.09-.34s.06-.02,.08-.04c.65-.19,1.32-.4,1.96-.62l.44-.15c.85-.28,1.69-.56,2.52-.85,.06-.02,.11-.04,.16-.06,.58-.18,1.18-.4,1.72-.61l.15-.05c.61-.22,1.21-.44,1.79-.65,.85-.32,1.67-.63,2.5-.96,.55-.22,1.12-.44,1.7-.68,0,0,.04-.02,.06-.04,.06-.01,.11-.04,.16-.05l1.27-.53c.42-.17,.85-.35,1.26-.53l.89-.38c.81-.35,1.64-.72,2.39-1.07,.79-.35,1.55-.72,2.4-1.12,.01,0,.11-.05,.12-.05,.93-.45,1.85-.9,2.78-1.36,.89-.45,1.78-.9,2.61-1.33l.29-.15c.06-.02,.12-.06,.17-.1,.4-.21,.8-.41,1.2-.63l.29-.16c.8-.44,1.6-.87,2.39-1.32,1.72-.97,3.26-1.87,4.69-2.75,.01-.01,.02-.01,.04-.02,.05-.04,.1-.06,.15-.1Z"/><path class="cls-3" d="M867.71,543.04c-.61,.06-1.22,.12-1.87,.17l-.74,.07c.07,0,.15,0,.22-.01,.25-.02,.5-.05,.75-.07,.62-.05,1.25-.11,1.87-.17,.01,0,.04,0,.05-.01-.08,0-.18,.01-.28,.02Zm-6.32,.53c.42-.04,.85-.06,1.27-.1h-.13c-.38,.04-.76,.06-1.14,.1Zm-4.53,.24c1.03-.05,2.05-.1,3.08-.16h-.15c-.98,.06-1.95,.11-2.93,.16Z"/><path class="cls-3" d="M1072.5,323.92c-.01-.36-.02-.73-.05-1.09h0c0-.12,0-.22-.01-.33-.48-8.28-2.06-15.8-4.56-22.26-.02-.05-.04-.1-.06-.15-.11-.29-.23-.59-.35-.89-.11-.29-.23-.58-.36-.86-.06-.16-.13-.32-.21-.47-.17-.39-.34-.78-.52-1.15-.38-.8-.76-1.59-1.18-2.35-.15-.27-.28-.53-.42-.79-.22-.4-.45-.8-.69-1.19-.29-.49-.58-.96-.89-1.43-.21-.33-.41-.64-.63-.95-1.6-2.34-3.37-4.43-5.3-6.24-.35-.34-.72-.67-1.08-.98-.34-.29-.68-.57-1.03-.85-.41-.33-.82-.64-1.25-.95-.36-.27-.74-.52-1.12-.78-.5-.32-.99-.62-1.49-.91-.23-.13-.45-.25-.68-.38-1.1-.59-2.24-1.13-3.42-1.56-.65-.25-1.31-.47-1.98-.68-.34-.1-.68-.19-1.02-.28-.9-.23-1.79-.42-2.7-.58h-.01c-.59-.1-1.2-.17-1.81-.23-.47-.05-.95-.07-1.42-.1-.45-.02-.91-.04-1.37-.04-.62,0-1.24,.02-1.86,.06-.34,.02-.69,.05-1.04,.08-.15,.01-.3,.02-.45,.05-.18,.02-.36,.04-.56,.06-.68,.08-1.36,.19-2.04,.33-.24,.05-.49,.1-.74,.15-.56,.12-1.1,.25-1.66,.4-.27,.07-.55,.15-.82,.23-.28,.07-.55,.16-.82,.25-.32,.1-.63,.21-.95,.32-.32,.11-.63,.22-.95,.34-.62,.23-1.25,.49-1.88,.75-1.15,.5-2.29,1.04-3.43,1.66-.32,.17-.63,.34-.93,.52-.3,.18-.62,.35-.92,.53s-.62,.38-.93,.57c-.46,.29-.91,.59-1.37,.9-.45,.3-.91,.62-1.37,.95-.22,.16-.45,.33-.68,.5-.22,.16-.45,.33-.68,.51-.42,.33-.85,.65-1.27,1.01-.47,.36-.95,.76-1.41,1.16-.45,.39-.89,.78-1.32,1.18-.44,.4-.87,.8-1.31,1.21-.44,.41-.86,.84-1.3,1.29-.39,.39-.76,.78-1.14,1.18-.75,.8-1.49,1.62-2.23,2.47-1.47,1.7-2.9,3.52-4.28,5.42-.21-.97-.42-1.94-.65-2.9-.25-1.15-.53-2.3-.84-3.44-.17-.7-.35-1.39-.55-2.09-.23-.87-.47-1.73-.73-2.59-.13-.47-.27-.95-.42-1.41-.23-.79-.47-1.58-.73-2.35-.08-.25-.16-.51-.24-.75-.23-.75-.49-1.48-.74-2.22-.13-.4-.27-.79-.41-1.18-.18-.55-.38-1.08-.58-1.62-.42-1.18-.86-2.33-1.33-3.48-.25-.65-.51-1.31-.79-1.95-.36-.9-.74-1.78-1.13-2.67-.34-.78-.68-1.54-1.03-2.3-.42-.92-.86-1.83-1.3-2.74-.27-.56-.55-1.13-.84-1.69-.28-.56-.56-1.12-.85-1.66-.47-.93-.97-1.85-1.48-2.76-.44-.8-.89-1.6-1.35-2.39-.3-.53-.62-1.07-.93-1.59-.67-1.14-1.37-2.27-2.07-3.38-.65-1.02-1.32-2.02-2-3.02-.68-1.01-1.37-1.99-2.07-2.96-.73-1.03-1.49-2.05-2.27-3.04-.44-.57-.87-1.14-1.32-1.69-.65-.84-1.33-1.66-2.02-2.47-.33-.39-.64-.76-.97-1.14-.64-.76-1.31-1.5-2-2.24-.33-.38-.67-.74-1.01-1.09-.68-.73-1.36-1.44-2.05-2.15-.69-.7-1.39-1.39-2.1-2.09-.7-.68-1.42-1.35-2.15-2-1.08-.99-2.18-1.95-3.29-2.89-.74-.62-1.49-1.24-2.24-1.82-.1-.08-.19-.17-.29-.24-.08-.07-.17-.13-.25-.19-.76-.63-1.53-1.21-2.32-1.78-.48-.35-.98-.7-1.47-1.07-.1-.07-.18-.13-.28-.19-.58-.41-1.16-.81-1.76-1.21-.34-.24-.68-.46-1.02-.68-.34-.23-.67-.45-1.01-.65-.52-.34-1.04-.67-1.56-.98-.61-.38-1.21-.74-1.82-1.1-.05-.01-.08-.04-.12-.07-.57-.33-1.15-.65-1.72-.97-.33-.18-.65-.36-.98-.55-.3-.17-.61-.33-.92-.5-.01-.01-.04-.01-.06-.02-.01-.01-.04-.02-.06-.04-.41-.21-.81-.41-1.22-.62-.16-.1-.32-.17-.48-.24-.59-.3-1.19-.59-1.79-.87-.49-.23-.97-.46-1.46-.68-.49-.22-.98-.44-1.47-.64-.49-.21-.98-.41-1.47-.62-.5-.19-.98-.39-1.48-.58-.33-.12-.65-.25-.98-.38-.33-.13-.65-.25-.98-.36-.45-.17-.9-.33-1.36-.47-.23-.08-.46-.17-.69-.24-.18-.05-.35-.11-.53-.17-.81-.27-1.62-.52-2.44-.75-.16-.05-.3-.1-.45-.13-.35-.11-.72-.22-1.07-.32-.39-.11-.79-.21-1.18-.3-.42-.11-.84-.22-1.26-.32-.74-.18-1.48-.35-2.22-.51-.55-.12-1.1-.23-1.66-.34-.57-.11-1.15-.22-1.73-.32-1.03-.18-2.06-.34-3.09-.48-.52-.07-1.04-.13-1.55-.19-.52-.06-1.04-.11-1.56-.16-.48-.05-.98-.08-1.47-.12-.07-.01-.15-.01-.22-.02-.3-.02-.61-.04-.91-.06-.39-.02-.79-.05-1.18-.06-.42-.02-.87-.05-1.31-.06-.34-.01-.69-.02-1.03-.02-.59-.01-1.2-.02-1.79-.02-5.55,0-11.05,.55-16.42,1.59-1.56,.3-3.13,.67-4.67,1.05-1.03,.27-2.06,.56-3.08,.85-1.53,.46-3.04,.96-4.56,1.49-1.41,.51-2.81,1.04-4.21,1.62-.34,.13-.69,.28-1.04,.44-.35,.15-.7,.29-1.04,.46-.95,.42-1.9,.87-2.85,1.32h-.01c-1.42,.7-2.81,1.43-4.21,2.19-.7,.39-1.39,.78-2.09,1.2-.35,.19-.69,.4-1.03,.61-.44,.25-.87,.52-1.3,.8-.82,.5-1.62,1.02-2.42,1.56-.45,.29-.9,.59-1.33,.91-1.58,1.08-3.13,2.22-4.64,3.42-.63,.48-1.25,.98-1.87,1.49-.01,0-.01,.01-.01,.01-.64,.52-1.27,1.05-1.89,1.59-.47,.4-.95,.81-1.41,1.22-.47,.41-.93,.84-1.39,1.26-.1,.08-.19,.18-.29,.27-.81,.78-1.62,1.55-2.42,2.34-.4,.4-.8,.79-1.19,1.19-.4,.4-.79,.8-1.18,1.21t0,.01c-.49,.51-.97,1.03-1.45,1.55-1.43,1.58-2.84,3.19-4.22,4.86-.01,.01-.02,.01-.01,.02-.49,.59-.96,1.19-1.43,1.78-.47,.61-.93,1.21-1.41,1.82-1.38,1.84-2.74,3.73-4.05,5.67-.65,.98-1.3,1.96-1.94,2.97-.32,.5-.63,1.01-.95,1.52-.32,.51-.62,1.02-.92,1.53-.46,.79-.92,1.58-1.38,2.38v-.02c-.63-2.16-1.3-4.24-1.99-6.28-.33-.96-.65-1.9-.99-2.84-.39-1.07-.78-2.11-1.18-3.14-.32-.78-.62-1.54-.93-2.29-.36-.87-.73-1.73-1.1-2.59-.3-.69-.61-1.37-.91-2.04-.02-.06-.06-.12-.08-.17-.34-.72-.68-1.43-1.03-2.13-.04-.11-.08-.21-.15-.3-.64-1.29-1.29-2.52-1.95-3.73,0-.02-.01-.04-.04-.06-.36-.65-.73-1.31-1.1-1.95-.23-.4-.47-.8-.72-1.2-.72-1.19-1.45-2.33-2.19-3.44-.33-.5-.67-.98-1.01-1.46-.29-.41-.59-.82-.9-1.24-.58-.79-1.18-1.55-1.77-2.29-.56-.69-1.13-1.37-1.71-2.02-.44-.5-.87-.97-1.31-1.43-.44-.47-.89-.92-1.32-1.36-.39-.39-.79-.78-1.19-1.15-.15-.12-.28-.25-.42-.39-.02-.02-.04-.04-.06-.05-.25-.23-.5-.46-.75-.68-.1-.1-.21-.18-.32-.28-.17-.13-.34-.28-.51-.42-.44-.38-.89-.74-1.35-1.08-.16-.12-.3-.24-.46-.36-.29-.22-.58-.44-.87-.63-.19-.15-.39-.28-.57-.41-.04-.02-.06-.05-.1-.07-.27-.19-.55-.38-.81-.55-.16-.1-.33-.21-.49-.3-.17-.11-.34-.22-.51-.32-.06-.06-.13-.1-.19-.13-.02-.01-.04-.01-.06-.02-.25-.16-.51-.3-.76-.46-.05-.02-.1-.05-.13-.07-.51-.29-1.02-.57-1.54-.84-.11-.06-.22-.12-.33-.17-.16-.1-.3-.17-.46-.23-.07-.05-.15-.08-.22-.11-.02-.01-.05-.02-.07-.02-.13-.06-.28-.13-.42-.19-.1-.05-.18-.08-.28-.13-.04-.02-.08-.04-.12-.05-.15-.06-.28-.13-.42-.18-.15-.07-.29-.13-.44-.19-.04-.02-.08-.04-.12-.05-.27-.11-.53-.22-.8-.33h-.01c-.27-.11-.53-.22-.8-.3-.29-.11-.58-.21-.87-.3-.19-.06-.4-.13-.59-.18-.13-.05-.27-.08-.39-.12-.07-.02-.13-.04-.21-.06h-.01c-.24-.06-.49-.13-.74-.19-.13-.04-.28-.07-.41-.11-.11-.04-.22-.06-.34-.08-.19-.05-.38-.1-.57-.13-.07-.02-.15-.04-.22-.05-.07-.02-.13-.02-.19-.05-.06-.01-.12-.02-.18-.04-.19-.04-.38-.07-.57-.11-.07-.02-.16-.04-.23-.05-.38-.07-.75-.13-1.14-.18-.21-.04-.41-.06-.62-.08-.04-.01-.08-.01-.13-.01-.32-.05-.64-.08-.96-.11-.1-.01-.21-.02-.32-.02-.28-.04-.56-.05-.84-.07-.36-.02-.73-.04-1.09-.05-.07,0-.16-.01-.24-.01h-.01c-.3-.01-.61-.01-.91-.01-2.11,0-4.19,.21-6.26,.62-1.71,.35-3.39,.84-5.06,1.45-.74,.27-1.47,.57-2.19,.91-.27,.11-.51,.24-.78,.36-.33,.16-.64,.32-.97,.49-.42,.22-.86,.46-1.29,.7-.44,.24-.87,.51-1.31,.78-.42,.27-.86,.55-1.29,.84-.44,.3-.89,.62-1.32,.93-.44,.32-.87,.64-1.3,.97-6.69,5.27-12.77,12.96-17.99,22.82,.02-.07,.04-.16,.06-.23-4.92,9.23-9.09,20.37-12.29,33.16-.02,.07-.04,.16-.06,.23,0,.02-.01,.04-.01,.06-1.31,5.33-2.13,11.45-2.58,17.97,2.05-.21,4.11-.39,6.15-.56,.46-.04,.91-.07,1.36-.1-.81,2.96-1.42,6.26-1.78,9.89-2.09,.18-4.12,.38-6.1,.59-.33,24.61,3.66,52.27,7.03,66.22-1.87,2.61-3.65,5.72-5.3,9.23,1.62,1.32,3.27,2.56,4.93,3.71h.01c-.86,3.61-1.58,7-2.12,10.16-.51-.32-1.02-.64-1.52-.97-1.73-1.13-3.44-2.34-5.13-3.63-7.66,21.31-11.42,50.18-7.29,66.68,14.96,59.85,64.47,94.27,139.55,97.1h.28c.8,.04,1.61,.06,2.42,.08,.1,.01,.21,.01,.3,.01,1.87,.06,3.7,.06,5.63,.06,2.86,0,5.78-.07,8.71-.19,.98-.05,1.95-.1,2.93-.16h.15c.18-.01,.36-.02,.55-.04,.23-.01,.46-.02,.69-.04,.07-.01,.15-.01,.22-.01,.38-.04,.76-.06,1.14-.1h.13c.82-.06,1.64-.12,2.44-.19l.74-.07c.64-.05,1.26-.11,1.87-.17,.1-.01,.19-.02,.28-.02s.17-.01,.25-.02c.27-.02,.52-.05,.79-.08,.82-.08,1.65-.18,2.46-.28,.93-.11,1.87-.23,2.8-.35,.06-.01,.12-.01,.18-.02,.69-.1,1.37-.19,2.06-.29,.72-.11,1.43-.22,2.15-.34,.13-.01,.27-.04,.4-.06,.41-.06,.82-.13,1.24-.21,.42-.07,.84-.15,1.24-.22,.06,0,.11-.01,.17-.02,.58-.1,1.15-.21,1.73-.32,.72-.13,1.43-.27,2.15-.41,1.86-.36,3.69-.76,5.52-1.19,.91-.21,1.82-.42,2.72-.65,.95-.23,1.89-.47,2.82-.72,.68-.18,1.35-.36,2-.56,.68-.18,1.36-.38,2.02-.58,.64-.18,1.27-.36,1.9-.56,.36-.11,.73-.23,1.08-.34t.02-.01c.65-.19,1.32-.41,1.98-.63,.15-.05,.3-.1,.45-.15,.85-.28,1.7-.56,2.53-.86,.01,0,.04-.01,.05-.01s.01,0,.02-.01c.57-.18,1.15-.39,1.72-.61,.64-.23,1.29-.46,1.93-.7,.82-.3,1.64-.62,2.46-.95,.53-.21,1.08-.42,1.61-.64,.08-.04,.16-.07,.24-.1,.44-.18,.87-.36,1.31-.55,.61-.24,1.21-.51,1.82-.76,.08-.04,.18-.08,.27-.12,.79-.34,1.59-.69,2.36-1.05,.76-.34,1.52-.69,2.26-1.04,.07-.04,.13-.06,.21-.1,.92-.44,1.83-.89,2.74-1.33,.87-.44,1.75-.89,2.61-1.33,.1-.05,.19-.1,.29-.15,0-.01,.01-.01,.01-.01,.52-.27,1.05-.56,1.58-.84,.79-.42,1.58-.86,2.35-1.3,1.55-.87,3.09-1.77,4.61-2.7,.49-.29,.96-.59,1.44-.9h.01c23.12-14.42,41.13-34.31,52.21-57.71h0c.12-.25,.24-.5,.35-.74,1.84-3.93,3.48-7.93,4.89-11.98,.19-.53,.38-1.07,.55-1.6,.44-1.27,.84-2.56,1.21-3.83,.18-.58,.35-1.18,.51-1.77,.21-.69,.39-1.38,.57-2.07,.13-.48,.27-.98,.38-1.47,.27-1.02,.5-2.05,.73-3.07,1.73-7.82,2.85-15.3,3.32-22.33h0s.08,.02,.13,.04c.29,.1,.58,.19,.86,.28,.19,.06,.38,.11,.56,.16,.08,.02,.17,.05,.25,.07,.06,.02,.13,.05,.19,.06,2.78,.73,5.63,1.02,8.52,.89,.42-.02,.85-.05,1.27-.08,.28-.02,.55-.05,.81-.08,.16-.01,.32-.02,.47-.05,.53-.07,1.08-.15,1.61-.24,.65-.12,1.31-.25,1.98-.41,.18-.05,.36-.08,.55-.13,.08-.02,.16-.04,.24-.06,.3-.08,.62-.17,.92-.25,.39-.11,.78-.23,1.16-.35,.86-.28,1.73-.59,2.59-.95,.86-.34,1.72-.73,2.57-1.14,.86-.41,1.72-.86,2.57-1.35,.85-.47,1.69-.98,2.52-1.52,.01-.01,.02-.01,.02-.02,5.21-3.35,10.26-7.93,14.89-13.63,.05-.07,.11-.13,.17-.21,.01-.01,.01-.02,.02-.04,4.12-5.06,7.77-10.79,10.89-17.03,2.73-5.48,5.06-11.35,6.89-17.51,.29-.95,.56-1.9,.82-2.87,1.94-7.1,3.16-14.33,3.63-21.38,.23-3.6,.28-7.17,.11-10.63Zm-290.27,63c1.14-3.27,4.12-5.38,7.59-5.38h27.28c3.47,0,6.45,2.11,7.59,5.38,1.15,3.26,.15,6.78-2.56,8.94-5.5,4.4-12.09,6.6-18.67,6.6s-13.17-2.19-18.67-6.6c-2.7-2.16-3.71-5.67-2.56-8.94Z"/><path class="cls-7" d="M1055.8,316.75c-.12,1.67-1.56,2.92-3.24,2.8-1.67-.12-2.93-1.58-2.81-3.24,.08-1.14-.46-2.66-1.5-4.22-1.9-2.84-5.5-5.83-10.06-7.06-7.21-1.94-13.49,1.71-17.67,10.28-4.28,8.79-5.75,17.12-5.7,24.89,4.5-.82,14.46-2.18,21.85,.11,1.6,.5,2.49,2.19,1.99,3.79-.5,1.6-2.19,2.5-3.78,2-6.52-2.02-16.2-.48-19.71,.19,.76,7.65,2.74,14.69,4.52,21.04,.61,2.16,1.19,4.24,1.7,6.22,.41,1.62-.57,3.27-2.19,3.69-.25,.07-.51,.1-.75,.1-1.36,0-2.58-.91-2.93-2.28-.5-1.94-1.07-3.98-1.66-6.09-4.04-14.4-9.57-34.13,1.24-56.32,7.82-16.05,19.87-14.78,24.69-13.48,4.49,1.21,8.6,3.84,11.53,7.03,2.99,3.24,4.76,7.04,4.51,10.54Z"/><path class="cls-1" d="M945.7,217.75c-.52-.34-1.04-.67-1.56-.98l1.13,.69c.15,.1,.29,.19,.44,.29Z"/><path class="cls-4" d="M753.03,205.52c1.66-.62,3.35-1.1,5.06-1.45-1.71,.33-3.39,.82-5.06,1.45Zm30.8,3.77c-.17-.11-.34-.22-.51-.32,.34,.18,.67,.4,.99,.62-.16-.1-.33-.21-.49-.3Zm-.76-.49h0s.04,.02,.06,.04c-.02-.01-.04-.02-.06-.04Zm-2.44-1.36c.52,.27,1.03,.55,1.54,.84-.51-.32-1.02-.58-1.54-.84Zm-1.08-.55h0s.05,.02,.07,.04c-.02-.01-.05-.02-.07-.04Zm-14.74-3.47c-.16-.01-.3-.01-.46-.01-2.11,0-4.21,.21-6.26,.64,2.06-.41,4.15-.62,6.26-.62,.32,0,.62,0,.92,.01-.16,0-.3-.01-.46-.02Zm7.76,.99c-.27-.07-.52-.13-.79-.19,.38,.08,.75,.18,1.13,.28-.11-.04-.22-.06-.34-.08Zm1.49,.39c-.24-.07-.49-.13-.74-.19,.33,.08,.65,.17,.97,.27-.07-.04-.16-.05-.23-.07Zm25.68,20.65c.74,1.12,1.48,2.26,2.19,3.44-.7-1.19-1.44-2.34-2.19-3.44Zm4.05,6.66c.67,1.21,1.31,2.45,1.95,3.73-.63-1.29-1.29-2.53-1.95-3.73Zm10.32,25.52v.02c.46-.8,.92-1.59,1.38-2.38-.47,.78-.93,1.56-1.38,2.35Zm5.19-8.37c1.31-1.94,2.67-3.83,4.05-5.67-1.41,1.83-2.75,3.72-4.05,5.67Zm6.9-9.3c1.38-1.67,2.79-3.29,4.22-4.86-1.46,1.56-2.85,3.19-4.22,4.86Zm8.04-8.83c.8-.79,1.61-1.56,2.42-2.34-.82,.76-1.62,1.53-2.42,2.34Zm22.1-16.68c1.39-.76,2.79-1.49,4.21-2.18-1.42,.68-2.82,1.42-4.21,2.18Zm9.15-4.41c1.39-.58,2.8-1.12,4.21-1.62-1.42,.5-2.83,1.03-4.21,1.62Zm63.59-.79c-.33-.12-.65-.25-.98-.38,.82,.29,1.65,.61,2.46,.96-.5-.19-.98-.39-1.48-.58Zm-19.64-5.09c1.03,.15,2.06,.3,3.09,.48,.58,.1,1.15,.19,1.73,.32,.56,.1,1.1,.22,1.66,.34,.74,.16,1.48,.33,2.22,.51,.42,.1,.84,.21,1.26,.32,.39,.1,.79,.19,1.18,.3-3.65-1.02-7.37-1.78-11.14-2.27Zm-8.27-.7c-.91-.04-1.83-.05-2.75-.05-5.56,0-11.05,.55-16.42,1.61,5.37-1.04,10.86-1.59,16.42-1.59,.59,0,1.2,.01,1.79,.02,.34,0,.69,.01,1.03,.02,.47,.01,.95,.04,1.41,.06,.36,.01,.72,.04,1.08,.06-.85-.06-1.71-.11-2.56-.15Zm3.82,.23c-.12-.01-.23-.01-.35-.02,.07,.01,.15,.01,.22,.02,.49,.04,.98,.07,1.47,.12-.44-.05-.89-.08-1.33-.12Zm35.49,10.92c-.33-.18-.65-.36-.98-.55,.91,.49,1.82,.99,2.7,1.52-.57-.33-1.15-.65-1.72-.97Zm10.75,6.94c.78,.58,1.55,1.18,2.32,1.78-.76-.63-1.53-1.21-2.32-1.78Zm2.57,1.98c.1,.07,.19,.16,.29,.24,.75,.58,1.5,1.2,2.24,1.82-.84-.72-1.69-1.41-2.53-2.06Zm-200.77-18.02c1.66-.62,3.35-1.1,5.06-1.45-1.71,.33-3.39,.82-5.06,1.45Zm11.77-2.09c-.16-.01-.3-.01-.46-.01-2.11,0-4.21,.21-6.26,.64,2.06-.41,4.15-.62,6.26-.62,.32,0,.62,0,.92,.01-.16,0-.3-.01-.46-.02Zm9.25,1.38c-.24-.07-.49-.13-.74-.19,.33,.08,.65,.17,.97,.27-.07-.04-.16-.05-.23-.07Zm-1.49-.39c-.27-.07-.52-.13-.79-.19,.38,.08,.75,.18,1.13,.28-.11-.04-.22-.06-.34-.08Zm6.98,2.47h0s.05,.02,.07,.04c-.02-.01-.05-.02-.07-.04Zm1.08,.55c.52,.27,1.03,.55,1.54,.84-.51-.32-1.02-.58-1.54-.84Zm2.44,1.36h0s.04,.02,.06,.04c-.02-.01-.04-.02-.06-.04Zm.76,.49c-.17-.11-.34-.22-.51-.32,.34,.18,.67,.4,.99,.62-.16-.1-.33-.21-.49-.3Zm15.91,16.17c.74,1.12,1.48,2.26,2.19,3.44-.7-1.19-1.44-2.34-2.19-3.44Zm4.05,6.66c.67,1.21,1.31,2.45,1.95,3.73-.63-1.29-1.29-2.53-1.95-3.73Zm10.32,25.52v.02c.46-.8,.92-1.59,1.38-2.38-.47,.78-.93,1.56-1.38,2.35Zm5.19-8.37c1.31-1.94,2.67-3.83,4.05-5.67-1.41,1.83-2.75,3.72-4.05,5.67Zm6.9-9.3c1.38-1.67,2.79-3.29,4.22-4.86-1.46,1.56-2.85,3.19-4.22,4.86Zm8.04-8.83c.8-.79,1.61-1.56,2.42-2.34-.82,.76-1.62,1.53-2.42,2.34Zm22.1-16.68c1.39-.76,2.79-1.49,4.21-2.18-1.42,.68-2.82,1.42-4.21,2.18Zm9.15-4.41c1.39-.58,2.8-1.12,4.21-1.62-1.42,.5-2.83,1.03-4.21,1.62Zm39.5-6.35c-.12-.01-.23-.01-.35-.02,.07,.01,.15,.01,.22,.02,.49,.04,.98,.07,1.47,.12-.44-.05-.89-.08-1.33-.12Zm-3.82-.23c-.91-.04-1.83-.05-2.75-.05-5.56,0-11.05,.55-16.42,1.61,5.37-1.04,10.86-1.59,16.42-1.59,.59,0,1.2,.01,1.79,.02,.34,0,.69,.01,1.03,.02,.47,.01,.95,.04,1.41,.06,.36,.01,.72,.04,1.08,.06-.85-.06-1.71-.11-2.56-.15Zm8.27,.7c1.03,.15,2.06,.3,3.09,.48,.58,.1,1.15,.19,1.73,.32,.56,.1,1.1,.22,1.66,.34,.74,.16,1.48,.33,2.22,.51,.42,.1,.84,.21,1.26,.32,.39,.1,.79,.19,1.18,.3-3.65-1.02-7.37-1.78-11.14-2.27Zm19.64,5.09c-.33-.12-.65-.25-.98-.38,.82,.29,1.65,.61,2.46,.96-.5-.19-.98-.39-1.48-.58Zm11.4,5.36c-.33-.18-.65-.36-.98-.55,.91,.49,1.82,.99,2.7,1.52-.57-.33-1.15-.65-1.72-.97Zm13.32,8.91c.1,.07,.19,.16,.29,.24,.75,.58,1.5,1.2,2.24,1.82-.84-.72-1.69-1.41-2.53-2.06Zm0,0c.1,.07,.19,.16,.29,.24,.75,.58,1.5,1.2,2.24,1.82-.84-.72-1.69-1.41-2.53-2.06Zm-13.32-8.91c-.33-.18-.65-.36-.98-.55,.91,.49,1.82,.99,2.7,1.52-.57-.33-1.15-.65-1.72-.97Zm-11.4-5.36c-.33-.12-.65-.25-.98-.38,.82,.29,1.65,.61,2.46,.96-.5-.19-.98-.39-1.48-.58Zm-19.64-5.09c1.03,.15,2.06,.3,3.09,.48,.58,.1,1.15,.19,1.73,.32,.56,.1,1.1,.22,1.66,.34,.74,.16,1.48,.33,2.22,.51,.42,.1,.84,.21,1.26,.32,.39,.1,.79,.19,1.18,.3-3.65-1.02-7.37-1.78-11.14-2.27Zm-8.27-.7c-.91-.04-1.83-.05-2.75-.05-5.56,0-11.05,.55-16.42,1.61,5.37-1.04,10.86-1.59,16.42-1.59,.59,0,1.2,.01,1.79,.02,.34,0,.69,.01,1.03,.02,.47,.01,.95,.04,1.41,.06,.36,.01,.72,.04,1.08,.06-.85-.06-1.71-.11-2.56-.15Zm3.82,.23c-.12-.01-.23-.01-.35-.02,.07,.01,.15,.01,.22,.02,.49,.04,.98,.07,1.47,.12-.44-.05-.89-.08-1.33-.12Zm-39.5,6.35c1.39-.58,2.8-1.12,4.21-1.62-1.42,.5-2.83,1.03-4.21,1.62Zm-9.15,4.41c1.39-.76,2.79-1.49,4.21-2.18-1.42,.68-2.82,1.42-4.21,2.18Zm-22.1,16.68c.8-.79,1.61-1.56,2.42-2.34-.82,.76-1.62,1.53-2.42,2.34Zm-8.04,8.83c1.38-1.67,2.79-3.29,4.22-4.86-1.46,1.56-2.85,3.19-4.22,4.86Zm-6.9,9.3c1.31-1.94,2.67-3.83,4.05-5.67-1.41,1.83-2.75,3.72-4.05,5.67Zm-5.19,8.37v.02c.46-.8,.92-1.59,1.38-2.38-.47,.78-.93,1.56-1.38,2.35Zm-10.32-25.52c.67,1.21,1.31,2.45,1.95,3.73-.63-1.29-1.29-2.53-1.95-3.73Zm-4.05-6.66c.74,1.12,1.48,2.26,2.19,3.44-.7-1.19-1.44-2.34-2.19-3.44Zm-15.91-16.17c-.17-.11-.34-.22-.51-.32,.34,.18,.67,.4,.99,.62-.16-.1-.33-.21-.49-.3Zm-.76-.49h0s.04,.02,.06,.04c-.02-.01-.04-.02-.06-.04Zm-2.44-1.36c.52,.27,1.03,.55,1.54,.84-.51-.32-1.02-.58-1.54-.84Zm-1.08-.55h0s.05,.02,.07,.04c-.02-.01-.05-.02-.07-.04Zm-14.74-3.47c-.16-.01-.3-.01-.46-.01-2.11,0-4.21,.21-6.26,.64,2.06-.41,4.15-.62,6.26-.62,.32,0,.62,0,.92,.01-.16,0-.3-.01-.46-.02Zm7.76,.99c-.27-.07-.52-.13-.79-.19,.38,.08,.75,.18,1.13,.28-.11-.04-.22-.06-.34-.08Zm1.49,.39c-.24-.07-.49-.13-.74-.19,.33,.08,.65,.17,.97,.27-.07-.04-.16-.05-.23-.07Zm-21.02,.7c1.66-.62,3.35-1.1,5.06-1.45-1.71,.33-3.39,.82-5.06,1.45Zm176.05,3.75c-.33-.12-.65-.25-.98-.38,.82,.29,1.65,.61,2.46,.96-.5-.19-.98-.39-1.48-.58Zm-19.64-5.09c1.03,.15,2.06,.3,3.09,.48,.58,.1,1.15,.19,1.73,.32,.56,.1,1.1,.22,1.66,.34,.74,.16,1.48,.33,2.22,.51,.42,.1,.84,.21,1.26,.32,.39,.1,.79,.19,1.18,.3-3.65-1.02-7.37-1.78-11.14-2.27Zm-4.45-.47c-.12-.01-.23-.01-.35-.02,.07,.01,.15,.01,.22,.02,.49,.04,.98,.07,1.47,.12-.44-.05-.89-.08-1.33-.12Zm-3.82-.23c-.91-.04-1.83-.05-2.75-.05-5.56,0-11.05,.55-16.42,1.61,5.37-1.04,10.86-1.59,16.42-1.59,.59,0,1.2,.01,1.79,.02,.34,0,.69,.01,1.03,.02,.47,.01,.95,.04,1.41,.06,.36,.01,.72,.04,1.08,.06-.85-.06-1.71-.11-2.56-.15Zm39.31,11.15c-.33-.18-.65-.36-.98-.55,.91,.49,1.82,.99,2.7,1.52-.57-.33-1.15-.65-1.72-.97Zm10.75,6.94c.78,.58,1.55,1.18,2.32,1.78-.76-.63-1.53-1.21-2.32-1.78Zm2.57,1.98c.1,.07,.19,.16,.29,.24,.75,.58,1.5,1.2,2.24,1.82-.84-.72-1.69-1.41-2.53-2.06Zm-88.31-13.48c1.39-.58,2.8-1.12,4.21-1.62-1.42,.5-2.83,1.03-4.21,1.62Zm-9.15,4.41c1.39-.76,2.79-1.49,4.21-2.18-1.42,.68-2.82,1.42-4.21,2.18Zm-22.1,16.68c.8-.79,1.61-1.56,2.42-2.34-.82,.76-1.62,1.53-2.42,2.34Zm-8.04,8.83c1.38-1.67,2.79-3.29,4.22-4.86-1.46,1.56-2.85,3.19-4.22,4.86Zm-6.9,9.3c1.31-1.94,2.67-3.83,4.05-5.67-1.41,1.83-2.75,3.72-4.05,5.67Zm-5.19,8.37v.02c.46-.8,.92-1.59,1.38-2.38-.47,.78-.93,1.56-1.38,2.35Zm-10.32-25.52c.67,1.21,1.31,2.45,1.95,3.73-.63-1.29-1.29-2.53-1.95-3.73Zm-4.05-6.66c.74,1.12,1.48,2.26,2.19,3.44-.7-1.19-1.44-2.34-2.19-3.44Zm-15.91-16.17c-.17-.11-.34-.22-.51-.32,.34,.18,.67,.4,.99,.62-.16-.1-.33-.21-.49-.3Zm-.76-.49h0s.04,.02,.06,.04c-.02-.01-.04-.02-.06-.04Zm-2.44-1.36c.52,.27,1.03,.55,1.54,.84-.51-.32-1.02-.58-1.54-.84Zm-1.08-.55h0s.05,.02,.07,.04c-.02-.01-.05-.02-.07-.04Zm-14.74-3.47c-.16-.01-.3-.01-.46-.01-2.11,0-4.21,.21-6.26,.64,2.06-.41,4.15-.62,6.26-.62,.32,0,.62,0,.92,.01-.16,0-.3-.01-.46-.02Zm7.76,.99c-.27-.07-.52-.13-.79-.19,.38,.08,.75,.18,1.13,.28-.11-.04-.22-.06-.34-.08Zm1.49,.39c-.24-.07-.49-.13-.74-.19,.33,.08,.65,.17,.97,.27-.07-.04-.16-.05-.23-.07Zm-21.02,.7c1.66-.62,3.35-1.1,5.06-1.45-1.71,.33-3.39,.82-5.06,1.45Z"/><g><path class="cls-2" d="M804.85,280.01c-1.14,.9-2.51,1.33-3.86,1.31-1.73-.03-3.46-.8-4.63-2.27-.37-.44-7.97-9.51-22.09-10.21-14.32-.72-16.87,5.15-16.9,5.21-.77,3.26-4.03,5.27-7.3,4.5-3.26-.78-5.27-4.05-4.5-7.31,.16-.64,4.02-15.77,29.29-14.5,19.84,.98,30.52,14.19,30.97,14.75,2.08,2.63,1.65,6.44-.98,8.52Z"/><path class="cls-2" d="M909.43,261.24l-42.43,22.56c-.93,.51-1.94,.73-2.93,.72-2.13-.03-4.19-1.2-5.26-3.22-1.57-2.96-.46-6.63,2.5-8.2l42.43-22.57c2.95-1.57,6.63-.44,8.19,2.51,1.57,2.96,.44,6.63-2.5,8.2Z"/></g><path class="cls-2" d="M916.82,332.97l-21.67,3.24c.47,3.96,.7,8.03,.7,12.05,0,21.78-6.94,44.92-19.79,44.92s-19.79-23.15-19.79-44.92,6.94-44.93,19.79-44.93c7.88,0,13.54,8.72,16.73,20.48l14.89-7c.91-.44,1.99-.04,2.41,.87,.42,.91,.04,1.99-.87,2.42l-15.54,7.3c.38,1.69,.7,3.43,.97,5.2l21.73-3.25c1.01-.12,1.9,.59,2.02,1.59,.11,1.01-.59,1.9-1.59,2.02Z"/><path class="cls-2" d="M792.06,337.08c0,5.98-.61,12.09-1.79,17.65-3.67,8.66-10.23,16.05-18.64,21.23-9.57-3.08-14.68-21.48-14.68-38.88,0-5.08,.44-9.02,1.3-13.86l-13.31-1.16c-.99-.12-1.71-1.02-1.59-2.02,.12-.99,1.02-1.71,2.02-1.59l13.59,1.2c.27-1.18,.57-3.54,.89-4.66l-9.76-4.58c-.9-.44-1.3-1.52-.86-2.42,.42-.91,1.5-1.31,2.41-.87l9.35,4.39c1.87-5.15,4.39-9.3,7.5-11.64,2.26,1.16,4.39,2.5,6.4,3.98,1.59,1.15,3.1,2.39,4.52,3.71,5.42,5.04,9.55,11.2,11.91,18.07,.49,3.76,.74,7.64,.74,11.47Z"/><path class="cls-4" d="M1074.62,291.46c0,2.46-.04,4.92-.12,7.37-.25,8.15-.95,16.19-2.05,23.98,0-.11,0-.21-.01-.32-.46-7.76-1.87-14.85-4.1-21.04,.02-.51,.05-1.01,.06-1.52l-.58,.15c-.11-.29-.23-.59-.35-.89-.11-.29-.23-.58-.36-.86-.06-.16-.13-.32-.21-.47-.17-.39-.34-.78-.52-1.15-.38-.8-.76-1.59-1.18-2.35-.15-.27-.28-.53-.42-.79-.22-.4-.45-.8-.69-1.19-.29-.49-.58-.96-.89-1.43-.21-.33-.41-.64-.63-.95-1.6-2.34-3.37-4.43-5.3-6.24-.35-.34-.72-.67-1.08-.98-.34-.29-.68-.57-1.03-.85-.41-.33-.82-.64-1.25-.95-.36-.27-.74-.52-1.12-.78-.5-.32-.99-.62-1.49-.91-.23-.13-.45-.25-.68-.38-1.1-.59-2.24-1.13-3.42-1.56-.64-.27-1.31-.48-1.98-.68-.34-.12-.68-.22-1.03-.3-.9-.23-1.79-.42-2.69-.56h-.01c-.59-.1-1.2-.17-1.81-.23-.47-.05-.95-.07-1.42-.1-.45-.02-.91-.04-1.37-.04-.62,0-1.24,.02-1.86,.06-.34,.02-.69,.05-1.04,.08-.15,.01-.3,.02-.45,.05-.18,.02-.36,.04-.56,.06-.68,.08-1.36,.19-2.04,.33-.17,.03-.34,.07-.51,.1-.6,.12-1.2,.25-1.79,.42-.3,.08-.61,.16-.92,.26-.28,.07-.55,.16-.82,.25-.32,.1-.63,.21-.95,.32-.32,.11-.63,.22-.95,.34-.62,.23-1.25,.49-1.88,.75-1.15,.5-2.29,1.04-3.43,1.66-.32,.17-.63,.34-.93,.52-.3,.18-.62,.35-.92,.53s-.62,.38-.93,.57c-.46,.29-.91,.59-1.37,.9-.45,.3-.91,.62-1.37,.95-.22,.16-.45,.33-.68,.5-.22,.16-.45,.33-.68,.51-.42,.33-.85,.65-1.27,1.01-3.32,3.33-6.25,11.86-9.98,19.22-.96,1.9-3.78,1.48-4.14-.62-1.53-8.79-2.54-21.33-4.17-23.62-.18-.55-.38-1.08-.58-1.62-.42-1.18-.86-2.33-1.33-3.48-.25-.65-.51-1.31-.79-1.95-.36-.9-.74-1.78-1.13-2.67-.34-.78-.68-1.54-1.03-2.3-.42-.92-.86-1.83-1.3-2.74-.27-.56-.55-1.13-.84-1.69-.28-.56-.56-1.12-.85-1.66-.47-.93-.97-1.85-1.48-2.76-.44-.8-.89-1.6-1.35-2.39-.3-.53-.62-1.07-.93-1.59-.67-1.14-1.37-2.27-2.07-3.38-.65-1.02-1.32-2.02-2-3.02-.68-1.01-1.37-1.99-2.07-2.96-.73-1.03-1.49-2.05-2.27-3.04-.44-.57-.87-1.14-1.32-1.69-.65-.84-1.33-1.66-2.02-2.47-.33-.39-.64-.76-.97-1.14-.64-.76-1.31-1.5-2-2.24-.33-.38-.67-.74-1.01-1.09-.68-.73-1.36-1.44-2.05-2.15-.69-.7-1.39-1.39-2.1-2.09-.7-.68-1.42-1.35-2.15-2-1.08-.99-2.18-1.95-3.29-2.89-.84-.72-1.69-1.41-2.53-2.06-.08-.07-.17-.13-.25-.19-.76-.63-1.53-1.21-2.32-1.78-.48-.35-.98-.7-1.47-1.07-.1-.07-.18-.13-.28-.19-.58-.42-1.16-.84-1.76-1.21-.34-.24-.68-.46-1.02-.68-.34-.23-.67-.45-1.01-.65-.15-.1-.29-.19-.44-.29l-1.13-.69c-.61-.38-1.21-.74-1.82-1.1-.05-.01-.08-.04-.12-.07-.89-.52-1.79-1.03-2.7-1.52-.3-.17-.61-.33-.92-.5-.01-.01-.04-.01-.06-.02-.01-.01-.04-.02-.06-.04-.41-.21-.81-.41-1.22-.62-.16-.1-.32-.17-.48-.24-.59-.3-1.19-.59-1.79-.87-.49-.23-.97-.46-1.46-.68-.49-.22-.98-.44-1.47-.64-.49-.21-.98-.41-1.47-.62-.81-.35-1.64-.67-2.46-.96-.33-.13-.65-.25-.98-.36-.45-.17-.9-.33-1.36-.47-.23-.08-.46-.17-.69-.24-.18-.05-.35-.11-.53-.17-.81-.27-1.62-.52-2.44-.75-.16-.05-.3-.1-.45-.13-.35-.11-.72-.22-1.07-.32-3.65-1.02-7.37-1.78-11.14-2.27-.52-.07-1.04-.13-1.55-.19-.52-.06-1.04-.11-1.56-.16-.44-.05-.89-.08-1.33-.12-1.26-.12-2.53-.19-3.82-.23-.91-.04-1.83-.05-2.75-.05-5.56,0-11.05,.55-16.42,1.61-1.56,.3-3.13,.67-4.67,1.05-1.03,.27-2.06,.56-3.08,.85-1.53,.45-3.06,.95-4.56,1.49-1.42,.5-2.83,1.03-4.21,1.62-.34,.13-.69,.28-1.04,.44-.35,.15-.7,.29-1.04,.46-.95,.42-1.9,.87-2.85,1.32h-.01c-1.42,.69-2.82,1.43-4.21,2.19-.7,.39-1.39,.78-2.09,1.2-.35,.19-.69,.4-1.03,.61-.44,.25-.87,.52-1.3,.8-.82,.5-1.62,1.02-2.42,1.56-.45,.29-.9,.59-1.33,.91-1.58,1.08-3.13,2.22-4.64,3.42-.63,.48-1.25,.98-1.87,1.49-.01,0-.01,.01-.01,.01-.64,.52-1.27,1.05-1.89,1.59-.47,.4-.95,.81-1.41,1.22-.47,.41-.93,.84-1.39,1.26-.1,.08-.19,.18-.29,.27-.82,.76-1.62,1.53-2.42,2.34-.4,.4-.8,.79-1.19,1.19-.4,.4-.79,.8-1.18,1.21t0,.01c-.49,.51-.97,1.03-1.45,1.55-1.46,1.56-2.85,3.19-4.22,4.86-.01,.01-.02,.01-.01,.02-.49,.59-.96,1.19-1.43,1.78-.47,.61-.93,1.21-1.41,1.82-1.41,1.83-2.75,3.72-4.05,5.67-.65,.98-1.3,1.96-1.94,2.97-.32,.5-.63,1.01-.95,1.52-.32,.51-.62,1.02-.92,1.53-.47,.78-.93,1.56-1.38,2.35-.63-2.16-1.3-4.24-1.99-6.28-.33-.96-.65-1.9-.99-2.84-.39-1.07-.78-2.11-1.18-3.14-.32-.78-.62-1.54-.93-2.29-.36-.87-.73-1.73-1.1-2.59-.3-.69-.61-1.37-.91-2.04-.02-.06-.06-.12-.08-.17-.34-.72-.68-1.43-1.03-2.13-.04-.11-.08-.21-.15-.3-.63-1.29-1.29-2.53-1.95-3.73,0-.02-.01-.04-.04-.06-.36-.65-.73-1.31-1.1-1.95-.23-.4-.47-.8-.72-1.2-.7-1.19-1.44-2.34-2.19-3.44-.33-.5-.67-.98-1.01-1.46-.29-.41-.59-.82-.9-1.24-.58-.79-1.18-1.55-1.77-2.29-.56-.69-1.13-1.37-1.71-2.02-.44-.5-.87-.97-1.31-1.43-.44-.47-.89-.92-1.32-1.36-.39-.39-.79-.78-1.19-1.15-.15-.12-.28-.25-.42-.39-.02-.02-.04-.04-.06-.05-.25-.23-.5-.46-.75-.68-.1-.1-.21-.18-.32-.28-.17-.13-.34-.28-.51-.42-.44-.38-.89-.74-1.35-1.08-.16-.12-.3-.24-.46-.36-.29-.22-.58-.44-.87-.63-.19-.15-.39-.28-.57-.41-.04-.02-.06-.05-.1-.07-.27-.19-.55-.38-.81-.55-.33-.22-.65-.44-.99-.62-.06-.06-.13-.1-.19-.13-.02-.01-.04-.02-.06-.04h0c-.25-.15-.51-.29-.76-.45-.05-.02-.1-.05-.13-.07-.51-.32-1.02-.58-1.54-.84-.11-.06-.22-.12-.33-.17-.16-.1-.3-.17-.46-.23-.07-.05-.15-.08-.22-.11-.02-.01-.05-.02-.07-.04h0c-.23-.1-.47-.22-.7-.32-.04-.01-.07-.04-.11-.05-1.14-.52-2.3-.98-3.48-1.36-.19-.06-.4-.13-.59-.18-3.19-1.01-6.47-1.53-9.86-1.56-.16-.01-.3-.01-.46-.01-2.11,0-4.21,.21-6.26,.64-1.71,.33-3.39,.82-5.06,1.45-.74,.27-1.47,.57-2.19,.91-.27,.11-.51,.24-.78,.36-.33,.16-.64,.32-.97,.49-.42,.22-.86,.46-1.29,.7-.44,.24-.87,.51-1.31,.78-.42,.27-.86,.55-1.29,.84-.44,.3-.89,.62-1.32,.93-.44,.32-.87,.64-1.3,.97-6.67,5.19-12.72,12.82-17.92,22.58h-.01c-4.95,9.29-9.14,20.52-12.35,33.4-.01,0,0,0,0,0,10.77-102.18,88.34-179.21,180.52-179.21,100.24,0,181.79,91.15,181.79,203.19Z"/><path class="cls-2" d="M1086.52,310.94c0,5.43-3.7,10.4-9.19,11.77l-4.83,1.2-6,1.49-3.44,.86c-6.46,1.61-13.08-2.36-14.69-8.83-.24-.97-.36-1.95-.36-2.91,0-.82,.08-1.65,.25-2.44,.45-2.21,1.52-4.24,3.04-5.88,1.54-1.65,3.55-2.9,5.9-3.48l4.69-1.16,5.93-1.48,3.64-.91c1.02-.25,2.04-.36,3.04-.35,5.4,.05,10.29,3.73,11.65,9.19,.24,.98,.36,1.95,.36,2.92Z"/><path class="cls-2" d="M1085.52,346.67c0,3.33-1.37,6.37-3.56,8.56-2.19,2.19-5.23,3.56-8.56,3.56h-14.69c-6.67,0-12.12-5.46-12.12-12.12,0-3.33,1.37-6.37,3.56-8.56,2.19-2.19,5.23-3.56,8.56-3.56h14.69c6.67,0,12.12,5.46,12.12,12.12Z"/><g><path class="cls-5" d="M966.2,314.58c-10.23-19.87-58.63-22.84-86.57-22.84-32.47,0-59.18,22.81-61.85,51.76l-15.99-.18c.13-1.48,.21-2.99,.21-4.51,0-30.23-26.99-54.81-60.16-54.81-7.54,0-16.61,.22-25.98,.96-2.04,.17-4.1,.35-6.15,.56l-.38,9.83c1.98-.22,4.01-.41,6.1-.59,1.03-.08,2.07-.17,3.13-.24,5.27-.39,10.84-.64,16.66-.74,1.16-.04,2.34-.05,3.53-.06,1.05,0,2.11-.01,3.19-.01,9.24,.01,17.9,2.26,25.34,6.17,.19,.1,.39,.19,.57,.3,2.05,1.09,3.99,2.32,5.83,3.67,.01,0,4.51,3.69,4.52,3.71,5.42,5.04,9.55,11.2,11.91,18.07,1.42,4.17,2.19,8.61,2.19,13.19,0,5.6-1.15,10.97-3.25,15.93-3.63,8.54-10.04,15.83-18.27,20.99-.12,.08-.24,.17-.36,.24-8.06,4.97-17.8,7.89-28.31,7.94h-.27c-8.85,0-17.52-3.65-25.82-9.41h-.01c-1.66-1.15-3.31-2.39-4.93-3.71l-3.82,9.28c1.69,1.29,3.39,2.5,5.13,3.63,9.26,6.09,19.13,9.92,29.46,9.92,27.79,0,51.24-17.25,58.12-40.62l17.85,.21h0c2.76,28.87,29.43,51.58,61.82,51.58,34.38,0,63.82-41.2,83.29-68.47,6.94-9.71,5.61-17.17,3.27-21.73Zm-11.17,16.09c-18.32,25.66-46,64.4-75.4,64.4s-52.24-20.89-52.37-46.61v-.21c0-25.82,23.48-46.82,52.37-46.82,41.84,0,72.44,6.9,77.94,17.59,.28,.55,.82,1.6,.82,3.29,0,1.92-.72,4.66-3.36,8.35Z"/><path class="cls-5" d="M711.07,370.79l-3.82,9.28c-18.4-13.98-34.17-36.05-46.07-52.72-6.75-9.47-5.46-16.74-3.18-21.17,6.56-12.75,29.27-18.34,51.71-20.67l-.38,9.83c-23.17,2.58-38.97,8.03-42.7,15.28-.57,1.1-2.3,4.46,2.44,11.09,8.85,12.39,19.96,27.93,32.38,40.39,3.13,3.13,6.33,6.06,9.61,8.69Z"/></g><path class="cls-4" d="M1050.14,393.38c-7.57,14.57-16.82,28.1-27.43,40.2-1.59,1.82-3.2,3.59-4.85,5.33-7.76,8.22-16.16,15.7-25.11,22.3,.12-.24,.24-.49,.35-.73,1.84-3.93,3.48-7.93,4.89-11.98,.19-.53,.38-1.07,.55-1.6,.44-1.27,.84-2.56,1.21-3.83,.18-.58,.35-1.18,.51-1.77,.21-.69,.39-1.38,.57-2.07,.13-.48,.27-.98,.38-1.47,.27-1.02,.5-2.05,.73-3.07,1.73-7.82,2.85-15.3,3.32-22.33,.04,.01,.08,.02,.13,.04,.29,.1,.58,.19,.86,.28,.19,.06,.38,.11,.56,.16,.16,.04,.3,.1,.45,.13,2.78,.73,5.63,1.02,8.52,.89,.42-.02,.85-.05,1.27-.08,.28-.02,.55-.05,.81-.08v16.25c1.65-1.88,3.27-3.79,4.85-5.75v-11.4c.3-.08,.62-.17,.92-.25,.39-.11,.78-.23,1.16-.35,.87-.27,1.73-.58,2.59-.95,.86-.34,1.72-.73,2.57-1.14,.86-.4,1.72-.85,2.57-1.35,.85-.47,1.69-.98,2.52-1.52,.01-.01,.02-.01,.02-.02,5.21-3.35,10.26-7.93,14.89-13.63,.05-.07,.11-.13,.17-.21Z"/><path class="cls-1" d="M1025.14,397.44c0,1.79-.97,3.36-2.42,4.21v134.62c0,1.33-1.09,2.42-2.42,2.42s-2.42-1.09-2.42-2.42v-134.62c-1.45-.85-2.42-2.41-2.42-4.21,0-2.68,2.17-4.85,4.85-4.85s4.85,2.17,4.85,4.85Z"/><path class="cls-5" d="M940.55,518.94v5.26s-.1,.06-.15,.1c-.01,.01-.02,.01-.04,.02-1.43,.89-2.97,1.78-4.69,2.75-.79,.45-1.59,.89-2.39,1.32l-.29,.16c-.4,.22-.8,.42-1.2,.63-.05,.04-.11,.07-.17,.1l-.29,.15c-.82,.44-1.72,.89-2.61,1.33-.92,.46-1.84,.91-2.78,1.36-.01,0-.11,.05-.12,.05-.85,.4-1.61,.76-2.4,1.12-.75,.35-1.58,.72-2.39,1.07l-.89,.38c-.41,.18-.84,.36-1.26,.53l-1.27,.53s-.1,.04-.16,.05c-.02,.01-.06,.04-.06,.04-.58,.24-1.15,.46-1.7,.68-.82,.33-1.65,.64-2.5,.96-.58,.22-1.19,.44-1.79,.65l-.15,.05c-.55,.21-1.14,.42-1.72,.61-.05,.02-.1,.04-.16,.06-.84,.29-1.67,.57-2.52,.85l-.44,.15c-.64,.22-1.31,.42-1.96,.62-.02,.01-.05,.02-.08,.04l-1.09,.34c-.64,.21-1.29,.39-1.94,.57-.64,.21-1.36,.41-2.06,.59-.62,.18-1.31,.38-2,.56-.97,.25-1.93,.5-2.89,.73-.89,.23-1.82,.46-2.75,.67-2.01,.47-3.84,.86-5.58,1.2-.65,.13-1.32,.25-1.99,.39l-.4,.07c-.52,.1-1.04,.19-1.56,.28-.01,.01-.11,.02-.27,.05-.36,.06-.75,.13-1.13,.19-.42,.07-.86,.16-1.3,.22-.1,.01-.25,.05-.42,.06-.69,.12-1.38,.23-2.07,.33l-2.12,.3c-.06,.01-.11,.01-.16,.02h-.05c-.95,.12-1.89,.25-2.84,.36-.81,.1-1.65,.19-2.5,.28-.28,.04-.64,.07-.99,.11-.74,.07-1.38,.13-2.02,.18l-.7,.07c-.85,.07-1.67,.13-2.51,.19h-.15c-.95,.08-1.89,.16-2.84,.21-3.98,.23-7.99,.35-11.91,.35-1.98,0-3.83,0-5.76-.06-.92-.02-1.86-.06-2.78-.1h-.08v-4.85h.27c.8,.04,1.61,.06,2.42,.08,.1,.01,.21,.01,.3,.01,1.87,.06,3.7,.06,5.63,.06,2.86,0,5.78-.07,8.71-.19,1.03-.05,2.05-.1,3.08-.16,.18-.01,.36-.02,.55-.04,.23-.01,.46-.02,.69-.04,.07-.01,.15-.01,.22-.01,.42-.04,.85-.06,1.27-.1,.82-.06,1.64-.12,2.44-.19,.07,0,.15,0,.22-.01,.25-.02,.5-.05,.75-.07,.62-.05,1.25-.11,1.87-.17,.01,0,.04,0,.05-.01,.08,0,.17-.01,.25-.02,.27-.02,.52-.05,.79-.08,.82-.08,1.65-.18,2.46-.28,.93-.11,1.87-.23,2.8-.35,.06-.01,.12-.01,.18-.02,.69-.1,1.37-.19,2.06-.29,.72-.11,1.43-.22,2.15-.34,.13-.01,.27-.04,.4-.06,.41-.06,.82-.13,1.24-.21,.42-.07,.84-.15,1.24-.22,.06,0,.11-.01,.17-.02,.58-.1,1.15-.21,1.73-.32,.72-.13,1.43-.27,2.15-.41,1.86-.36,3.69-.76,5.52-1.19,.91-.21,1.82-.42,2.72-.65,.95-.23,1.89-.47,2.82-.72,.68-.18,1.35-.36,2-.56,.68-.18,1.36-.38,2.02-.58,.64-.18,1.27-.36,1.9-.56,.36-.11,.73-.23,1.08-.34t.02-.01c.65-.19,1.32-.41,1.98-.63,.15-.05,.3-.1,.45-.15,.85-.28,1.7-.56,2.53-.86,.01,0,.04-.01,.05-.01s.01,0,.02-.01c.57-.18,1.15-.39,1.72-.61,.64-.23,1.29-.46,1.93-.7,.82-.3,1.64-.62,2.46-.95,.53-.21,1.08-.42,1.61-.64,.08-.04,.16-.07,.24-.1,.44-.18,.87-.36,1.31-.55,.61-.24,1.21-.51,1.82-.76,.08-.04,.18-.08,.27-.12,.79-.34,1.59-.69,2.36-1.05,.76-.34,1.52-.69,2.26-1.04,.07-.04,.13-.06,.21-.1,.92-.44,1.83-.89,2.74-1.33,.87-.44,1.75-.89,2.61-1.33,.1-.05,.19-.1,.29-.15,0-.01,.01-.01,.01-.01,.52-.27,1.05-.56,1.58-.84,.79-.42,1.58-.86,2.35-1.3,1.55-.87,3.09-1.77,4.61-2.7,.49-.29,.96-.59,1.44-.9h.01Z"/><g><path class="cls-2" d="M865.08,436.76c-2.79,8.37-10.89,15.85-22.24,20.55-7.82,3.24-16.23,4.86-24.36,4.86s-16.46-1.72-23.32-5.15c-2.99-1.49-4.21-5.14-2.72-8.14,1.5-2.99,5.14-4.21,8.14-2.7,10.31,5.15,25.07,5.12,37.62-.07,7.97-3.3,13.71-8.23,15.36-13.18,1.05-3.18,4.49-4.9,7.67-3.84,3.16,1.07,4.89,4.5,3.83,7.67Z"/><path class="cls-2" d="M822.13,395.85c-5.5,4.4-12.09,6.6-18.67,6.6s-13.17-2.19-18.67-6.6c-2.7-2.16-3.71-5.67-2.56-8.94,1.14-3.27,4.12-5.38,7.59-5.38h27.28c3.47,0,6.45,2.11,7.59,5.38,1.15,3.26,.15,6.78-2.56,8.94Z"/><circle class="cls-2" cx="760.89" cy="399.29" r="2.42"/><circle class="cls-2" cx="742.7" cy="412.63" r="2.42"/><circle class="cls-2" cx="725.73" cy="398.08" r="2.42"/><circle class="cls-2" cx="903.96" cy="405.36" r="2.42"/><circle class="cls-2" cx="883.35" cy="417.48" r="2.42"/><circle class="cls-2" cx="859.1" cy="406.57" r="2.42"/></g></g></svg>