<?xml version="1.0" encoding="UTF-8"?><svg id="conhecendo" xmlns="http://www.w3.org/2000/svg" viewBox="0 0 801 1001"><defs><style>.cls-1{fill:#fff;}.cls-2{fill:#ff9460;}.cls-3{fill:#1a3c7d;}.cls-4{fill:#ee4a00;}.cls-5{fill:#ff6d2a;}</style></defs><g><g><path class="cls-5" d="M218.21,857.5l41.31-29.31,26.35,37.13c4.47,6.3,4.8,13.76,.72,16.65l-26.54,18.84c-4.08,2.89-11.01,.13-15.48-6.18l-26.35-37.13Z"/><path class="cls-1" d="M291.71,879.34c-.65,2.06-1.84,3.78-3.49,4.94l-26.54,18.84c-5.44,3.86-13.99,.85-19.45-6.85l-26.35-37.13c-.44-.62-.61-1.38-.48-2.12,.12-.74,.54-1.41,1.16-1.84l41.31-29.31c1.28-.91,3.06-.61,3.97,.67l26.35,37.13c2.48,3.49,3.93,7.44,4.09,11.13,.07,1.63-.12,3.17-.56,4.55Zm-69.54-21.17l24.7,34.81c3.8,5.36,9.12,7.2,11.52,5.5l26.54-18.84c1.56-1.11,1.7-3.36,1.65-4.6-.11-2.57-1.22-5.51-3.04-8.08l-24.7-34.81-36.67,26.02Z"/></g><g><polygon class="cls-4" points="39.1 607.11 80.41 577.8 247.75 812.08 206.44 841.4 39.1 607.11"/><path class="cls-1" d="M250.47,812.94c-.19,.59-.56,1.1-1.07,1.47l-41.31,29.31c-1.28,.91-3.05,.61-3.96-.67L36.79,608.76c-.44-.61-.62-1.38-.49-2.13,.12-.74,.54-1.41,1.16-1.85l41.31-29.31c1.28-.91,3.05-.61,3.96,.67l167.34,234.29c.44,.62,.62,1.38,.49,2.13-.02,.13-.05,.26-.09,.38Zm-43.36,24.5l36.67-26.02-164.03-229.66-36.67,26.02,164.03,229.66Z"/></g><g><g><polygon class="cls-1" points="23 556.19 38.29 545.35 80.41 577.8 39.1 607.11 23 556.19"/><path class="cls-1" d="M83.12,578.65c-.18,.58-.56,1.1-1.07,1.47l-41.31,29.31c-.74,.53-1.69,.67-2.55,.38-.86-.29-1.53-.97-1.81-1.84l-16.1-50.92c-.37-1.18,.06-2.46,1.07-3.18l15.28-10.85c1.02-.72,2.39-.7,3.38,.07l42.12,32.45c.72,.55,1.13,1.41,1.11,2.31,0,.28-.05,.54-.13,.8Zm-42.49,23.88l34.99-24.83-37.41-28.82-11.88,8.43,14.3,45.22Z"/></g><path class="cls-3" d="M22.29,528.92l17.77,14.21c.71,.55,1.09,1.4,1.08,2.31,0,.27-.06,.52-.14,.76-.18,.58-.56,1.11-1.06,1.47l-15.29,10.85c-.73,.52-1.67,.67-2.54,.38-.86-.29-1.53-.96-1.81-1.82l-7.15-21.9c-.94-2.92-.26-5.63,1.8-7.06,2.1-1.44,4.9-1.14,7.34,.81Z"/></g></g><g><g><circle class="cls-4" cx="689.29" cy="649.42" r="69.47"/><path class="cls-1" d="M732.39,591.07c30.54,22.53,38.7,65.37,17.84,97.69-10.51,16.28-26.73,27.49-45.67,31.57-18.94,4.08-38.34,.54-54.61-9.97-16.27-10.52-27.49-26.73-31.57-45.67-4.08-18.94-.54-38.34,9.97-54.61,21.69-33.6,66.68-43.29,100.28-21.6h0c1.29,.83,2.54,1.7,3.76,2.6Zm-82.56,111.76c1.11,.82,2.26,1.62,3.44,2.38,14.9,9.62,32.66,12.86,50,9.13,17.34-3.73,32.19-14,41.81-28.9,19.86-30.76,11.02-71.95-19.77-91.81h0c-30.76-19.86-71.95-10.99-91.81,19.77-19.1,29.58-11.63,68.81,16.33,89.43Z"/></g><g><path class="cls-1" d="M724.33,618.11l-7.71,5.28c-2.17-2.42-4.7-4.58-7.56-6.43-2.32-1.5-4.73-2.7-7.22-3.64l1.56-8.72c.58-3.26-1.59-6.38-4.85-6.97-3.26-.58-6.38,1.59-6.97,4.85l-1.51,8.45c-6.02-.27-12.05,.93-17.52,3.44l-4.66-6.79c-1.88-2.73-5.61-3.43-8.35-1.56-2.73,1.88-3.43,5.61-1.56,8.35l4.58,6.69c-2.25,2.09-4.28,4.49-6.03,7.2-1.75,2.7-3.1,5.54-4.08,8.46l-7.98-1.42c-3.26-.58-6.39,1.61-6.97,4.85-.58,3.26,1.59,6.38,4.85,6.97l8.11,1.45c-.03,6.02,1.36,12.01,4.08,17.39l-7.08,4.85c-2.73,1.88-3.43,5.61-1.56,8.35,1.88,2.73,5.61,3.43,8.35,1.56l7.31-5.01c1.88,1.88,3.97,3.58,6.29,5.08,2.86,1.84,5.86,3.26,8.97,4.24l-1.63,9.2c-.58,3.26,1.59,6.38,4.85,6.97,2.45,.44,4.83-.69,6.09-2.66,.42-.66,.73-1.39,.87-2.2l1.7-9.49c5.64-.04,11.25-1.35,16.36-3.81l5.63,8.2c1.88,2.73,5.61,3.43,8.35,1.56,.68-.46,1.22-1.04,1.64-1.7,1.27-1.96,1.32-4.59-.09-6.65l-5.7-8.32c2.02-1.95,3.87-4.19,5.46-6.66s2.87-5.07,3.82-7.72l9.92,1.77c2.45,.44,4.83-.69,6.09-2.66,.42-.66,.73-1.39,.87-2.2,.58-3.26-1.59-6.38-4.85-6.97l-9.79-1.75c.14-5.67-.98-11.31-3.26-16.48l7.95-5.46c.68-.46,1.22-1.04,1.64-1.7,1.27-1.96,1.32-4.59-.09-6.65-1.88-2.73-5.61-3.43-8.35-1.56Zm-9.92,29.7c.17,3.97-.58,8-2.28,11.78-.53,1.16-1.14,2.28-1.85,3.38-.7,1.09-1.48,2.11-2.32,3.07-2.74,3.11-6.11,5.45-9.8,6.93-2.34,.94-4.8,1.54-7.3,1.76-3.98,.38-8.06-.16-11.91-1.64-1.58-.64-3.13-1.42-4.6-2.38-.92-.6-1.82-1.24-2.64-1.96-3.19-2.65-5.6-6-7.17-9.65-1.12-2.65-1.81-5.5-2.02-8.37-.29-3.97,.34-8.04,1.93-11.84,.58-1.41,1.3-2.78,2.15-4.11,.86-1.33,1.81-2.54,2.86-3.65,2.81-3.02,6.26-5.27,10-6.64,2.71-.99,5.58-1.53,8.46-1.6,3.97-.08,8.01,.75,11.74,2.56,.99,.45,1.95,1,2.87,1.59,1.48,.95,2.82,2.04,4.06,3.22,2.94,2.9,5.11,6.39,6.4,10.18,.83,2.37,1.29,4.86,1.4,7.38Z"/><circle class="cls-1" cx="689.29" cy="649.42" r="10"/></g></g><g><g><circle class="cls-3" cx="514.19" cy="836.4" r="135.62"/><path class="cls-1" d="M596.66,724.9c13.59,10.03,25.55,22.71,35.05,37.87,19.67,31.39,25.94,68.57,17.65,104.67-8.29,36.1-30.14,66.82-61.54,86.49-31.39,19.67-68.56,25.93-104.67,17.64-36.1-8.29-66.82-30.14-86.49-61.54-19.67-31.39-25.93-68.56-17.64-104.67,8.29-36.11,30.14-66.82,61.54-86.49,49.64-31.1,111.59-26.82,156.11,6.02Zm-161.19,218.26c14.44,10.65,31.04,18.32,49.05,22.45,34.51,7.92,70.04,1.93,100.05-16.87,30.01-18.8,50.89-48.16,58.82-82.67,7.92-34.51,1.93-70.04-16.87-100.05-38.8-61.94-120.78-80.76-182.72-41.95-30.01,18.8-50.89,48.16-58.82,82.67-7.92,34.51-1.93,70.04,16.87,100.05,8.99,14.35,20.39,26.61,33.62,36.37Zm6.71-221.68h-.02s.02,0,.02,0Z"/></g><g><path class="cls-1" d="M487.84,748.55l2.94,18.01c-6.08,1.83-12,4.52-17.62,8.05-4.56,2.86-8.69,6.13-12.4,9.75l-14.13-9.98c-5.29-3.73-12.6-2.47-16.33,2.82-3.73,5.29-2.47,12.6,2.82,16.33l13.7,9.66c-5.45,10.41-8.32,22.07-8.42,33.83l-15.86,2.62c-6.39,1.05-10.72,7.08-9.66,13.47,1.05,6.39,7.08,10.72,13.47,9.66l15.62-2.56c1.83,5.72,4.4,11.29,7.74,16.61,3.34,5.32,7.23,10.07,11.57,14.21l-9.12,12.94c-3.73,5.29-2.45,12.63,2.82,16.33,5.29,3.73,12.6,2.47,16.33-2.82l9.27-13.13c10.62,5.04,22.37,7.54,34.11,7.18l2.72,16.54c1.05,6.39,7.08,10.72,13.47,9.66,6.39-1.05,10.72-7.08,9.66-13.47l-2.82-17.07c4.88-1.77,9.62-4.05,14.19-6.91,5.62-3.52,10.62-7.67,14.93-12.34l14.92,10.5c5.29,3.73,12.6,2.47,16.33-2.82,2.81-3.97,2.77-9.11,.35-12.97-.81-1.29-1.85-2.43-3.16-3.36l-15.37-10.86c4.59-10.02,6.92-21.01,6.8-32.08l19.16-3.16c6.39-1.05,10.72-7.08,9.66-13.47-.26-1.59-.83-3.02-1.64-4.31-2.42-3.87-7.03-6.14-11.83-5.35l-19.42,3.19c-1.78-5.19-4.2-10.31-7.25-15.17-3.05-4.86-6.59-9.27-10.49-13.14l11.34-16.08c2.81-3.97,2.77-9.11,.35-12.97-.81-1.29-1.85-2.43-3.16-3.36-5.29-3.73-12.6-2.47-16.33,2.82l-11.2,15.86c-9.91-4.94-20.81-7.64-31.83-7.87l-3.07-18.57c-.26-1.59-.83-3.02-1.64-4.31-2.42-3.87-7.03-6.14-11.83-5.35-6.39,1.05-10.72,7.08-9.66,13.47Zm44.3,42.11c7.16,2.97,13.68,7.64,18.95,13.78,1.6,1.9,3.09,3.91,4.44,6.06,1.35,2.15,2.51,4.37,3.52,6.64,3.22,7.42,4.58,15.32,4.13,23.06-.28,4.92-1.25,9.76-2.93,14.36-2.62,7.35-6.95,14.12-12.76,19.69-2.45,2.27-5.1,4.35-8.01,6.17-1.82,1.14-3.7,2.18-5.65,3.03-7.33,3.44-15.24,4.94-22.99,4.69-5.61-.21-11.21-1.36-16.47-3.36-7.26-2.77-13.94-7.25-19.33-13.22-2.02-2.19-3.84-4.59-5.48-7.21-1.64-2.61-3-5.3-4.09-8.08-3.02-7.46-4.13-15.42-3.46-23.16,.49-5.61,1.91-11.14,4.16-16.29,3.16-7.09,7.95-13.55,14.25-18.64,1.62-1.38,3.38-2.62,5.2-3.76,2.91-1.82,5.94-3.31,9.05-4.52,7.55-2.8,15.53-3.74,23.29-2.89,4.87,.5,9.65,1.74,14.2,3.63Z"/><circle class="cls-1" cx="514.19" cy="836.4" r="19.51"/></g></g><g><g><circle class="cls-5" cx="548.73" cy="648.04" r="88.39"/><path class="cls-1" d="M603.14,574.54c17.46,12.88,29.65,31.36,34.64,52.72,11.46,49.11-19.17,98.38-68.27,109.84-23.79,5.55-48.31,1.51-69.06-11.39-20.75-12.9-35.23-33.1-40.78-56.89-5.55-23.79-1.51-48.31,11.39-69.06,12.9-20.75,33.1-35.23,56.88-40.78,23.79-5.55,48.31-1.51,69.06,11.39,2.11,1.31,4.16,2.7,6.14,4.16Zm-105.18,142.09c1.85,1.36,3.76,2.66,5.73,3.88,19.36,12.03,42.24,15.81,64.43,10.63,45.82-10.69,74.39-56.67,63.7-102.48-10.69-45.82-56.67-74.39-102.48-63.7-22.19,5.18-41.04,18.69-53.07,38.05-12.03,19.36-15.8,42.24-10.62,64.43,4.65,19.93,16.03,37.17,32.32,49.19Z"/></g><g><path class="cls-1" d="M551.07,588.31l-1.99,11.72c-4.14-.16-8.35,.25-12.56,1.23-3.42,.8-6.65,1.94-9.71,3.39l-6.6-9.14c-2.47-3.42-7.25-4.19-10.67-1.72-3.42,2.47-4.19,7.25-1.72,10.66l6.4,8.85c-5.56,5.27-9.8,11.85-12.34,19.07l-10.33-1.74c-4.16-.7-8.1,2.1-8.8,6.26-.7,4.16,2.1,8.1,6.26,8.8l10.17,1.73c-.08,3.91,.33,7.89,1.26,11.88,.93,3.99,2.33,7.74,4.13,11.21l-8.36,6.05c-3.42,2.47-4.18,7.27-1.72,10.66,2.47,3.42,7.25,4.19,10.66,1.72l8.49-6.14c5.48,5.36,12.19,9.38,19.51,11.64l-1.82,10.77c-.7,4.16,2.1,8.1,6.26,8.8,4.16,.7,8.1-2.1,8.8-6.26l1.87-11.12c3.38-.06,6.79-.46,10.21-1.26,4.21-.98,8.17-2.48,11.81-4.45l6.97,9.63c2.47,3.42,7.25,4.19,10.66,1.72,2.57-1.85,3.63-5.03,2.96-7.92-.23-.97-.62-1.89-1.24-2.74l-7.18-9.95c4.95-5.2,8.71-11.49,10.97-18.34l12.48,2.1c4.16,.7,8.1-2.1,8.8-6.26,.18-1.03,.12-2.04-.1-3.01-.68-2.9-3.03-5.27-6.16-5.8l-12.64-2.14c0-3.58-.41-7.24-1.26-10.88-.85-3.64-2.1-7.11-3.69-10.32l10.39-7.52c2.57-1.85,3.63-5.03,2.96-7.92-.23-.97-.62-1.89-1.24-2.74-2.47-3.42-7.25-4.19-10.67-1.72l-10.26,7.41c-5.06-5.14-11.22-9.11-17.96-11.58l2.04-12.1c.18-1.03,.12-2.04-.1-3.01-.68-2.9-3.03-5.27-6.16-5.8-4.16-.7-8.1,2.1-8.8,6.26Zm18.4,35.33c3.78,3.35,6.82,7.6,8.77,12.5,.59,1.51,1.08,3.06,1.46,4.67,.38,1.61,.62,3.22,.76,4.84,.42,5.26-.42,10.41-2.33,15.09-1.21,2.97-2.84,5.75-4.84,8.23-3.17,3.98-7.27,7.23-12.03,9.44-1.99,.88-4.07,1.6-6.25,2.11-1.36,.32-2.74,.56-4.13,.68-5.25,.57-10.44-.18-15.16-1.97-3.42-1.32-6.63-3.21-9.44-5.55-3.89-3.24-7.06-7.42-9.12-12.24-.78-1.78-1.4-3.64-1.86-5.6-.46-1.96-.73-3.9-.82-5.84-.28-5.24,.71-10.38,2.77-15.01,1.49-3.35,3.53-6.47,6.01-9.16,3.45-3.7,7.77-6.67,12.73-8.48,1.29-.51,2.64-.9,4-1.22,2.18-.51,4.36-.78,6.53-.87,5.25-.13,10.36,.98,14.97,3.14,2.9,1.34,5.58,3.11,7.99,5.24Z"/><circle class="cls-1" cx="548.73" cy="648.04" r="12.72"/></g></g><g><g><path class="cls-2" d="M646,293.36c-2.03-4.86-8.41-6.01-12.09-2.23l-75.03,77.22c-4.27,4.39-11.29,4.5-15.68,.23l-24.37-23.68c-4.4-4.27-4.5-11.3-.23-15.69l75.04-77.22c3.67-3.78,2.34-10.12-2.57-12.01-35.49-13.72-77.28-5.92-105.46,23.08-28.43,29.25-34.88,71.71-19.69,106.96,2.19,5.09,.91,11-3.1,14.82l-202.43,192.91c-16.46,15.69-16.59,41.91-.28,57.76,15.94,15.49,41.32,15.01,56.67-.79,.37-.38,.73-.78,1.1-1.17l186.64-207.97c3.72-4.14,9.62-5.59,14.78-3.52,35.73,14.35,78.14,6.7,106.64-22.63,28.19-29,34.79-70.99,20.06-106.07Zm-183.41,128.73c1.04,0,2.08,.4,2.88,1.17,1.57,1.52,1.68,4,.24,5.66l-117.11,137.55c-.14,.15-.28,.3-.42,.45-5.95,6.06-15.76,6.19-21.88,.31-3.04-2.93-4.71-6.85-4.69-11.04,.02-4.2,1.73-8.11,4.79-11l133.33-121.98c.78-.73,1.78-1.11,2.78-1.12h.08Zm-151.63,185.01c.18,.27,.38,.55,.57,.83,.47,.62,.44,1.44-.07,2-.48,.54-1.24,.7-1.91,.43l-1.68-.69c-2.88-1.18-5.85-1.72-8.81-1.63-3.79,.13-7.37,1.33-10.36,3.49l-5.83,4.38c-.64,.47-1.47,.44-2.08-.05-.01,0-.02,0-.02,0-.62-.51-.8-1.31-.45-2l3.33-6.54c1.62-3.18,2.32-6.77,2.03-10.39-.23-2.89-1.1-5.68-2.53-8.08l-.95-1.61c-.38-.63-.29-1.41,.21-1.93,.51-.51,1.3-.64,1.97-.32,.29,.15,.57,.28,.84,.4,6.36,2.78,13.93,2,19.76-2.05l6.06-4c.63-.43,1.49-.39,2.09,.15,.61,.53,.75,1.34,.36,2.02l-3.5,6.1c-3.5,6.1-3.12,13.38,.97,19.5Z"/><path class="cls-1" d="M315.94,582.9c1.06-1.85,.67-4.14-.93-5.53-1.57-1.39-3.86-1.54-5.52-.39l-6.12,4.03c-5.03,3.49-11.55,4.18-17.02,1.79-.23-.1-.46-.22-.74-.36-1.75-.84-3.84-.49-5.22,.9-1.4,1.43-1.65,3.64-.62,5.33l.95,1.61c1.21,2.03,1.95,4.4,2.15,6.86,.25,3.1-.35,6.18-1.74,8.89l-3.32,6.54c-.95,1.86-.47,4.1,1.15,5.45l.8,.67h.29c.6,.25,1.23,.38,1.87,.37,.92-.02,1.85-.31,2.64-.89l5.79-4.35c2.53-1.83,5.58-2.85,8.81-2.95,2.55-.09,5.13,.39,7.64,1.41l1.68,.69c1.78,.73,3.83,.26,5.07-1.14,1.43-1.58,1.53-3.88,.27-5.56-.17-.24-.35-.49-.52-.74-3.48-5.21-3.81-11.39-.87-16.53l3.51-6.1Zm-30.85,27.81l1.07-2.12c1.86-3.64,2.67-7.75,2.34-11.9-.23-2.77-.97-5.46-2.16-7.88,6.74,2.11,14.29,.98,20.19-3.12l2.09-1.38-1.08,1.88c-3.62,6.32-3.67,13.73-.25,20.25-2.74-.9-5.53-1.31-8.32-1.22-4.35,.14-8.48,1.53-11.97,4.05l-1.91,1.44Zm30.85-27.81c1.06-1.85,.67-4.14-.93-5.53-1.57-1.39-3.86-1.54-5.52-.39l-6.12,4.03c-5.03,3.49-11.55,4.18-17.02,1.79-.23-.1-.46-.22-.74-.36-1.75-.84-3.84-.49-5.22,.9-1.4,1.43-1.65,3.64-.62,5.33l.95,1.61c1.21,2.03,1.95,4.4,2.15,6.86,.25,3.1-.35,6.18-1.74,8.89l-3.32,6.54c-.95,1.86-.47,4.1,1.15,5.45l.8,.67h.29c.6,.25,1.23,.38,1.87,.37,.92-.02,1.85-.31,2.64-.89l5.79-4.35c2.53-1.83,5.58-2.85,8.81-2.95,2.55-.09,5.13,.39,7.64,1.41l1.68,.69c1.78,.73,3.83,.26,5.07-1.14,1.43-1.58,1.53-3.88,.27-5.56-.17-.24-.35-.49-.52-.74-3.48-5.21-3.81-11.39-.87-16.53l3.51-6.1Zm-30.85,27.81l1.07-2.12c1.86-3.64,2.67-7.75,2.34-11.9-.23-2.77-.97-5.46-2.16-7.88,6.74,2.11,14.29,.98,20.19-3.12l2.09-1.38-1.08,1.88c-3.62,6.32-3.67,13.73-.25,20.25-2.74-.9-5.53-1.31-8.32-1.22-4.35,.14-8.48,1.53-11.97,4.05l-1.91,1.44Zm363.52-318.45c-1.32-3.13-4.11-5.39-7.47-6.02-3.39-.64-6.85,.45-9.25,2.92l-75.04,77.22c-3.18,3.27-8.42,3.35-11.68,.18l-24.38-23.69c-3.27-3.18-3.34-8.42-.17-11.69l75.04-77.22c2.41-2.47,3.4-5.96,2.66-9.33-.73-3.34-3.06-6.06-6.23-7.29-37.73-14.57-80.32-5.25-108.51,23.76-28.48,29.31-36.43,72.51-20.25,110.04,1.7,3.95,.71,8.63-2.45,11.65l-202.44,192.91c-8.52,8.13-13.25,19.09-13.3,30.87-.06,11.77,4.56,22.77,13,30.97,8.49,8.25,19.54,12.28,30.53,12.12,10.98-.16,21.9-4.5,30.14-12.97,.38-.4,.76-.81,1.17-1.26l186.64-207.97c2.04-2.27,4.92-3.51,7.84-3.51,1.28,0,2.56,.24,3.79,.73,12.71,5.1,25.97,7.48,39.07,7.29,26.13-.37,51.6-10.97,70.65-30.57,28.19-29.01,36.29-71.85,20.64-109.14Zm-92.74,134.08c-11.92,0-23.97-2.26-35.52-6.9-6.21-2.49-13.41-.78-17.93,4.25l-186.65,207.98c-.34,.36-.67,.73-1.01,1.08-14.31,14.73-37.95,15.06-52.69,.74-7.33-7.12-11.34-16.68-11.29-26.9,.05-10.22,4.15-19.74,11.56-26.8l202.43-192.91c4.87-4.64,6.37-11.86,3.75-17.97-15.28-35.43-7.78-76.21,19.11-103.88,17.94-18.45,42.04-28.47,66.77-28.82,11.95-.17,24.05,1.92,35.66,6.4,1.42,.55,2.42,1.72,2.75,3.23,.33,1.53-.1,3.06-1.19,4.18l-75.04,77.23c-5.35,5.5-5.22,14.32,.28,19.67l24.37,23.68c5.5,5.35,14.32,5.22,19.67-.28l75.04-77.22c1.09-1.13,2.61-1.61,4.15-1.31,1.51,.28,2.72,1.25,3.31,2.66,14.77,35.2,7.13,75.63-19.48,103.02-18.31,18.84-42.91,28.87-68.05,28.87Zm-246.38,150.64l-6.12,4.03c-5.03,3.49-11.55,4.18-17.02,1.79-.23-.1-.46-.22-.74-.36-1.75-.84-3.84-.49-5.22,.9-1.4,1.43-1.65,3.64-.62,5.33l.95,1.61c1.21,2.03,1.95,4.4,2.15,6.86,.25,3.1-.35,6.18-1.74,8.89l-3.32,6.54c-.95,1.86-.47,4.1,1.15,5.45l.8,.67h.29c.6,.25,1.23,.38,1.87,.37,.92-.02,1.85-.31,2.64-.89l5.79-4.35c2.53-1.83,5.58-2.85,8.81-2.95,2.55-.09,5.13,.39,7.64,1.41l1.68,.69c1.78,.73,3.83,.26,5.07-1.14,1.43-1.58,1.53-3.88,.27-5.56-.17-.24-.35-.49-.52-.74-3.48-5.21-3.81-11.39-.87-16.53l3.51-6.1c1.06-1.85,.67-4.14-.93-5.53-1.57-1.39-3.86-1.54-5.52-.39Zm-24.4,33.73l1.07-2.12c1.86-3.64,2.67-7.75,2.34-11.9-.23-2.77-.97-5.46-2.16-7.88,6.74,2.11,14.29,.98,20.19-3.12l2.09-1.38-1.08,1.88c-3.62,6.32-3.67,13.73-.25,20.25-2.74-.9-5.53-1.31-8.32-1.22-4.35,.14-8.48,1.53-11.97,4.05l-1.91,1.44Z"/></g><path class="cls-5" d="M466.83,421.85c-2.34-2.26-6.05-2.3-8.43-.09l-133.34,121.99c-3.46,3.28-5.39,7.69-5.41,12.43s1.86,9.16,5.29,12.46c3.45,3.32,7.93,4.94,12.4,4.87,4.46-.06,8.89-1.81,12.23-5.21,.17-.17,.32-.34,.5-.53l117.13-137.57c1-1.15,1.49-2.57,1.49-3.98,0-1.6-.63-3.18-1.86-4.37Zm-1.12,7.07l-117.11,137.55c-.14,.15-.28,.3-.42,.45-5.95,6.06-15.76,6.19-21.88,.31-3.04-2.93-4.71-6.85-4.69-11.04,.02-4.2,1.73-8.11,4.79-11l133.33-121.98c.78-.73,1.78-1.11,2.78-1.12h.08c1.04,0,2.08,.4,2.88,1.17,1.57,1.52,1.68,4,.24,5.66Z"/><path class="cls-5" d="M465.71,428.92l-117.11,137.55c-.14,.15-.28,.3-.42,.45-5.95,6.06-15.76,6.19-21.88,.31-3.04-2.93-4.71-6.85-4.69-11.04,.02-4.2,1.73-8.11,4.79-11l133.33-121.98c.78-.73,1.78-1.11,2.78-1.12h.08c1.04,0,2.08,.4,2.88,1.17,1.57,1.52,1.68,4,.24,5.66Z"/></g><g><g><rect class="cls-4" x="185.46" y="342.97" width="82.32" height="17.27"/><path class="cls-1" d="M267.78,363.65h-82.32c-1.88,0-3.4-1.52-3.4-3.4v-17.27c0-1.88,1.52-3.4,3.4-3.4h82.32c1.88,0,3.4,1.52,3.4,3.4v17.27c0,1.88-1.52,3.4-3.4,3.4Zm-78.92-6.8h75.52v-10.47h-75.52v10.47Z"/></g><g><path class="cls-5" d="M267.78,373.08v11.35c0,2.18-.16,4.32-.47,6.42h-81.38c-.31-2.09-.47-4.23-.47-6.42v-11.35h82.32Z"/><path class="cls-1" d="M267.31,394.25h-81.38c-1.69,0-3.12-1.24-3.37-2.91-.33-2.29-.5-4.61-.5-6.91v-11.35c0-1.88,1.52-3.4,3.4-3.4h82.32c1.88,0,3.4,1.52,3.4,3.4v11.35c0,2.3-.17,4.62-.5,6.91-.25,1.67-1.68,2.91-3.37,2.91Zm-78.34-6.8h75.29c.07-1.01,.11-2.01,.11-3.01v-7.95h-75.52v7.95c0,1,.04,2.01,.11,3.01Z"/></g><g><path class="cls-2" d="M267.31,404.66c-3,20.39-20.07,36.03-40.69,36.03s-37.7-15.63-40.69-36.03h81.38Z"/><path class="cls-1" d="M226.62,444.09c-21.86,0-40.8-16.74-44.06-38.93-.14-.98,.15-1.97,.79-2.72,.65-.75,1.59-1.18,2.57-1.18h81.38c.99,0,1.93,.43,2.57,1.18,.65,.75,.94,1.74,.79,2.72-3.26,22.2-22.2,38.93-44.06,38.93Zm-36.55-36.03c4.26,16.91,19.34,29.22,36.55,29.22s32.29-12.31,36.55-29.22h-73.1Z"/></g><g><polygon class="cls-1" points="272.09 304.48 272.07 304.59 267.3 329.16 184.98 329.16 181.17 304.59 181.15 304.48 272.09 304.48"/><path class="cls-1" d="M267.3,332.56h-82.32c-1.68,0-3.1-1.22-3.36-2.88l-3.82-24.61c-.17-.99,.1-2.01,.75-2.77,.65-.77,1.6-1.21,2.6-1.21h90.94c1,0,1.96,.44,2.6,1.21,.65,.77,.92,1.78,.75,2.77l-.02,.11-4.78,24.63c-.31,1.6-1.71,2.75-3.34,2.75Zm-79.41-6.8h76.6l3.47-17.87h-82.84l2.77,17.87Z"/></g><path class="cls-1" d="M272.07,308.96c-.33,0-.65-.04-.97-.11h-88.96c-1.03,.23-2.12,.09-3.08-.43-34.18-18.82-55.41-55.79-55.41-96.47,0-59.97,46.19-108.75,102.97-108.75s102.97,48.79,102.97,108.75c0,40.68-21.23,77.65-55.41,96.47-.66,.36-1.39,.54-2.11,.54Zm-89.95-8.86h89.01c30.7-17.48,49.72-51.13,49.72-88.16,0-55.14-42.27-100-94.22-100s-94.22,44.86-94.22,100c0,37.03,19.01,70.68,49.72,88.16Z"/><g><path class="cls-1" d="M237.8,312.31c-2.41,0-4.37-1.95-4.37-4.36l-.16-53.89h-13.11v53.87c0,2.42-1.96,4.37-4.37,4.37s-4.37-1.96-4.37-4.37v-58.25c0-2.42,1.96-4.37,4.37-4.37h21.85c2.41,0,4.37,1.95,4.37,4.36l.17,58.25c0,2.42-1.95,4.38-4.36,4.39h-.01Z"/><path class="cls-1" d="M215.78,254.06c-1.03,0-2.06-.37-2.87-1.07l-23.8-20.71c-4-3.48-6.11-8.61-5.77-14.05,.33-5.39,3-10.17,7.33-13.09,4.45-3.01,10.03-3.53,14.91-1.38,5.18,2.28,8.8,7.11,9.67,12.93l4.85,32.36c.27,1.81-.62,3.6-2.22,4.48-.66,.36-1.38,.54-2.1,.54Zm-16.41-42.88c-1.32,0-2.63,.4-3.8,1.19-2.06,1.39-3.33,3.72-3.5,6.38-.17,2.71,.85,5.24,2.79,6.92l14.84,12.92-3.09-20.62c-.42-2.83-2.12-5.16-4.54-6.22-.88-.38-1.79-.57-2.69-.57Z"/><path class="cls-1" d="M237.63,254.06c-.71,0-1.43-.17-2.08-.53-1.61-.87-2.51-2.66-2.24-4.47l4.68-32.4c.88-5.85,4.49-10.68,9.68-12.96,4.88-2.15,10.46-1.63,14.91,1.38,4.33,2.93,7,7.7,7.33,13.09,.33,5.45-1.77,10.57-5.77,14.05l-23.61,20.74c-.82,.72-1.85,1.09-2.89,1.09Zm16.24-42.92c-.91,0-1.82,.19-2.69,.57-2.42,1.06-4.11,3.39-4.54,6.22l-2.98,20.63,14.72-12.92c1.95-1.7,2.96-4.22,2.8-6.94-.16-2.66-1.44-4.98-3.5-6.38-1.17-.79-2.48-1.2-3.8-1.2Z"/></g><g><path class="cls-1" d="M46.66,280.23c-1.56,0-3.07-.83-3.86-2.3-1.14-2.13-.35-4.78,1.78-5.92l46.91-25.21c2.13-1.15,4.78-.35,5.92,1.78,1.14,2.13,.35,4.78-1.78,5.92l-46.91,25.21c-.66,.35-1.37,.52-2.07,.52Z"/><path class="cls-1" d="M85.91,151.02c-.09,0-.18,0-.27,0l-51.69-3.15c-2.41-.15-4.25-2.22-4.1-4.63,.15-2.41,2.2-4.26,4.63-4.1l51.69,3.15c2.41,.15,4.25,2.22,4.1,4.63-.14,2.32-2.07,4.11-4.36,4.11Z"/><path class="cls-1" d="M169.19,72.23c-1.7,0-3.32-1-4.03-2.67l-19.15-45.17c-.94-2.22,.1-4.79,2.32-5.73,2.22-.94,4.79,.1,5.73,2.32l19.15,45.17c.94,2.22-.1,4.79-2.32,5.73-.56,.24-1.14,.35-1.71,.35Z"/><path class="cls-1" d="M406.58,280.23c-.7,0-1.41-.17-2.07-.52l-46.9-25.21c-2.13-1.14-2.93-3.8-1.78-5.92,1.14-2.13,3.8-2.93,5.92-1.78l46.9,25.21c2.13,1.14,2.93,3.8,1.78,5.92-.79,1.47-2.3,2.3-3.86,2.3Z"/><path class="cls-1" d="M367.33,151.02c-2.29,0-4.22-1.79-4.36-4.11-.15-2.41,1.69-4.48,4.1-4.63l51.69-3.15c2.41-.16,4.49,1.69,4.63,4.1,.15,2.41-1.69,4.48-4.1,4.63l-51.69,3.15c-.09,0-.18,0-.27,0Z"/><path class="cls-1" d="M284.05,72.23c-.57,0-1.15-.11-1.71-.35-2.22-.94-3.26-3.51-2.32-5.73l19.15-45.17c.94-2.22,3.51-3.26,5.73-2.32,2.22,.94,3.26,3.51,2.32,5.73l-19.15,45.17c-.71,1.67-2.33,2.67-4.03,2.67Z"/></g></g><path class="cls-1" d="M120.08,919.11c-.03,.93-.62,1.72-1.5,1.99l-2.18,.67c-3.74,1.16-7.05,3.04-9.83,5.58-3.55,3.24-6.04,7.43-7.17,12.12l-2.07,9.31c-.24,1-1.07,1.65-2.06,1.65h-.03c-1-.01-1.82-.68-2.04-1.68l-2.1-9.47c-1.01-4.61-3.24-8.89-6.46-12.37-2.56-2.77-5.67-4.93-9-6.23l-2.22-.87c-.87-.34-1.42-1.21-1.35-2.16,.07-.96,.73-1.74,1.65-1.95,.39-.09,.76-.18,1.12-.28,8.4-2.38,15.07-9.41,17.42-18.37l2.6-9.1c.26-.98,1.12-1.63,2.14-1.58,1.01,.05,1.81,.77,1.99,1.79l1.56,9.16c1.57,9.14,7.83,16.35,16.74,19.27,.41,.14,.82,.26,1.23,.37,.96,.27,1.59,1.13,1.56,2.15Z"/><path class="cls-1" d="M690.02,492.98c-.05,1.26-.83,2.3-2.02,2.68l-2.44,.76c-4.16,1.28-7.83,3.35-10.91,6.17-3.94,3.59-6.67,8.22-7.93,13.41l-2.33,10.47c-.32,1.34-1.43,2.22-2.76,2.22h-.03c-1.34-.02-2.44-.91-2.74-2.25l-2.35-10.66c-1.13-5.12-3.61-9.86-7.18-13.71-2.83-3.07-6.28-5.46-9.97-6.9l-2.49-.98c-1.18-.46-1.9-1.62-1.81-2.9,.09-1.28,.98-2.31,2.2-2.6,.42-.11,.83-.2,1.24-.31,9.3-2.63,16.69-10.44,19.29-20.36l2.94-10.26c.33-1.28,1.51-2.14,2.85-2.09,1.34,.06,2.44,1.04,2.66,2.38l1.76,10.31c1.73,10.12,8.68,18.11,18.55,21.35,.44,.14,.9,.28,1.35,.41,1.26,.35,2.12,1.53,2.09,2.87Z"/><path class="cls-1" d="M738.01,393.47c-.06,3.52-1.46,6.82-3.96,9.27-2.44,2.39-5.64,3.7-9.03,3.7h-.23c-7.17-.12-12.9-6.15-12.77-13.43,.12-7.2,5.93-12.98,12.99-12.98h.23c7.17,.13,12.9,6.16,12.77,13.44Z"/><path class="cls-1" d="M337.51,749.2c-.02,1.77-.73,3.41-1.98,4.64-1.22,1.2-2.82,1.85-4.51,1.85h-.12c-1.73-.03-3.35-.74-4.56-2.01-1.21-1.27-1.85-2.94-1.82-4.71,.03-1.76,.73-3.41,1.98-4.63,1.25-1.23,2.89-1.9,4.63-1.85,1.73,.03,3.35,.74,4.56,2.01,1.21,1.27,1.86,2.94,1.82,4.7Z"/><path class="cls-1" d="M687.51,958.2c-.02,1.77-.73,3.41-1.98,4.64-1.22,1.2-2.82,1.85-4.51,1.85h-.12c-1.73-.03-3.35-.74-4.56-2.01-1.21-1.27-1.85-2.94-1.82-4.71,.03-1.76,.73-3.41,1.98-4.63,1.25-1.23,2.89-1.9,4.63-1.85,1.73,.03,3.35,.74,4.56,2.01,1.21,1.27,1.86,2.94,1.82,4.7Z"/><path class="cls-1" d="M165.01,606.13c-.02,1.76-.73,3.41-1.98,4.63-1.22,1.2-2.82,1.86-4.51,1.86h-.12c-1.73-.03-3.35-.75-4.56-2.02-1.21-1.27-1.85-2.94-1.82-4.7,.06-3.6,2.96-6.49,6.49-6.49h.12c1.73,.03,3.35,.75,4.56,2.02s1.86,2.94,1.82,4.7Z"/><path class="cls-1" d="M353.51,977.96c-.05,3.26-1.39,6.19-3.52,8.31-2.12,2.11-5.03,3.42-8.22,3.42h-.21c-6.47-.12-11.65-5.56-11.54-12.14,.11-6.58,5.47-11.81,11.95-11.73,6.48,.11,11.66,5.56,11.54,12.14Z"/><path class="cls-1" d="M544.01,137.2c-.02,1.76-.73,3.41-1.98,4.63-1.22,1.2-2.82,1.86-4.51,1.86h-.12c-1.73-.03-3.35-.75-4.56-2.02-1.21-1.27-1.85-2.94-1.82-4.7,.03-1.76,.73-3.41,1.98-4.63,1.25-1.23,2.91-1.87,4.63-1.86,1.73,.03,3.35,.75,4.56,2.02,1.21,1.27,1.85,2.94,1.82,4.7Z"/><path class="cls-1" d="M97.01,783.2c-.02,1.77-.73,3.41-1.98,4.64-1.22,1.2-2.82,1.85-4.51,1.85h-.12c-1.73-.03-3.35-.74-4.56-2.01-1.21-1.27-1.85-2.94-1.82-4.7,.03-1.77,.73-3.41,1.98-4.64,1.25-1.22,2.85-1.86,4.63-1.85,3.58,.06,6.45,3.07,6.38,6.71Z"/><path class="cls-1" d="M557.13,481.55c-.08,4.71-3.87,8.48-8.49,8.48h-.15c-2.27-.04-4.39-.97-5.97-2.63-1.57-1.66-2.42-3.84-2.38-6.15,.04-2.31,.96-4.46,2.59-6.06,1.63-1.6,3.75-2.46,6.05-2.42,4.69,.08,8.43,4.02,8.35,8.78Z"/><path class="cls-1" d="M142.01,493.2c-.03,2.31-.96,4.46-2.59,6.06-1.59,1.57-3.69,2.43-5.9,2.43h-.15c-2.27-.04-4.39-.98-5.97-2.64-1.57-1.66-2.42-3.84-2.38-6.15,.04-2.3,.96-4.45,2.59-6.06,1.63-1.6,3.74-2.44,6.05-2.42,2.27,.04,4.39,.97,5.97,2.63,1.58,1.66,2.42,3.85,2.38,6.15Z"/><path class="cls-1" d="M110.92,417.94c-.04,1.43-.94,2.63-2.29,3.05l-4.06,1.25c-7.08,2.2-13.35,5.75-18.61,10.56-6.75,6.15-11.46,14.1-13.62,22.99l-3.86,17.38c-.37,1.52-1.63,2.52-3.14,2.52h-.04c-1.53-.02-2.79-1.05-3.13-2.57l-3.9-17.68c-1.92-8.72-6.15-16.82-12.24-23.42-4.85-5.25-10.75-9.33-17.07-11.81l-4.13-1.62c-1.36-.53-2.17-1.82-2.06-3.3,.1-1.48,1.09-2.64,2.51-2.97,.75-.17,1.44-.35,2.14-.54,15.9-4.5,28.55-17.83,32.99-34.79l4.86-16.97c.39-1.5,1.7-2.46,3.26-2.41,1.56,.07,2.78,1.16,3.05,2.72l2.91,17.1c2.98,17.33,14.84,30.99,31.73,36.54,.76,.25,1.54,.48,2.32,.7,1.47,.4,2.42,1.72,2.38,3.27Z"/><path class="cls-1" d="M768.25,68.55c.03,3.5,1.52,6.77,4.18,9.21,2.67,2.43,6.2,3.75,9.94,3.7,.08-.01,.17-.01,.25-.01,3.65-.11,7.06-1.51,9.62-3.97,2.6-2.48,4.03-5.75,4.03-9.2v-.11c-.03-3.5-1.51-6.77-4.18-9.21-2.67-2.43-6.19-3.75-9.94-3.7-3.7,.08-7.24,1.46-9.87,3.97-2.62,2.51-4.05,5.82-4.03,9.32Zm13.77-9.26h.17c2.59-.03,5.03,.88,6.88,2.56,.92,.84,1.64,1.83,2.13,2.91,.49,1.08,.75,2.25,.76,3.47,.02,2.42-.97,4.71-2.79,6.45-1.81,1.73-4.2,2.73-6.83,2.74-2.59,.04-5.04-.87-6.88-2.56-1.85-1.68-2.87-3.95-2.89-6.37-.02-2.42,.96-4.71,2.78-6.45,1.78-1.7,4.14-2.67,6.67-2.75Z"/><path class="cls-1" d="M752.07,840.38c0,3.03-2.33,5.49-5.19,5.49h-11.17v11.78c0,3.03-2.33,5.48-5.2,5.48s-5.19-2.45-5.19-5.48v-11.78h-11.17c-2.86,0-5.19-2.46-5.19-5.49s2.33-5.48,5.19-5.48h11.17v-11.78c0-3.03,2.33-5.49,5.19-5.49s5.2,2.46,5.2,5.49v11.78h11.17c2.86,0,5.19,2.46,5.19,5.48Z"/><path class="cls-1" d="M697.54,248.69h-.05c-2.17,.04-3.98-1.24-4.5-3.21l-5.01-18.64c-2.43-9.07-7.47-17.41-14.59-24.12-5.66-5.33-12.48-9.4-19.72-11.77l-4.82-1.58c-1.91-.62-3.12-2.31-3.02-4.2,.09-1.89,1.48-3.49,3.44-3.96,.84-.2,1.63-.41,2.4-.64,17.97-5.24,31.97-19.62,36.55-37.54l5.13-18.21c.5-1.96,2.32-3.3,4.52-3.26,2.19,.03,3.95,1.4,4.38,3.41l3.86,18.06c3.86,18.03,17.73,31.92,37.08,37.15,.88,.24,1.77,.45,2.66,.65,2.09,.47,3.49,2.14,3.48,4.15-.01,1.86-1.24,3.45-3.13,4.05l-4.65,1.48c-8,2.54-15.02,6.47-20.88,11.68-7.49,6.66-12.62,15.13-14.82,24.49l-3.96,18.59c-.47,2-2.21,3.35-4.35,3.42Z"/><path class="cls-1" d="M685.2,45.16c0,3.03-2.32,5.49-5.19,5.49h-11.17v11.78c0,3.03-2.33,5.48-5.19,5.48s-5.2-2.45-5.2-5.48v-11.78h-11.17c-2.86,0-5.19-2.46-5.19-5.49s2.33-5.48,5.19-5.48h11.17v-11.78c0-3.03,2.33-5.49,5.2-5.49s5.19,2.46,5.19,5.49v11.78h11.17c2.87,0,5.19,2.46,5.19,5.48Z"/><path class="cls-1" d="M383.02,371.16c0,3.03-2.33,5.49-5.2,5.49h-11.16v11.78c0,3.03-2.33,5.48-5.2,5.48s-5.19-2.45-5.19-5.48v-11.78h-11.17c-2.87,0-5.19-2.46-5.19-5.49s2.32-5.48,5.19-5.48h11.17v-11.78c0-3.03,2.32-5.49,5.19-5.49s5.2,2.46,5.2,5.49v11.78h11.16c2.87,0,5.2,2.46,5.2,5.48Z"/><path class="cls-1" d="M214.45,505.68c8.52-.13,15.51,6.74,15.58,15.28,.06,8.46-6.68,15.45-15.07,15.73h-.27c-4.13,.06-8.03-1.49-10.96-4.38-2.95-2.88-4.58-6.75-4.62-10.89-.03-4.15,1.54-8.06,4.44-11.04,2.9-2.97,6.71-4.63,10.9-4.7Z"/><path class="cls-1" d="M206.91,943.07v-.14c-.02-3.5-1.51-6.77-4.17-9.2-2.67-2.44-6.2-3.75-9.94-3.7-3.74,0-7.25,1.46-9.87,3.97-2.63,2.51-4.06,5.82-4.03,9.31,.03,3.5,1.51,6.77,4.18,9.21,2.67,2.44,6.2,3.75,9.94,3.7,.08,0,.16,0,.25-.01,3.64-.1,7.05-1.51,9.62-3.96,2.59-2.48,4.02-5.73,4.02-9.18Zm-20.81,6.56c-1.84-1.69-2.87-3.95-2.89-6.38-.02-2.42,.97-4.71,2.79-6.45,1.77-1.69,4.13-2.67,6.66-2.74h.33c5.28,0,9.57,3.98,9.61,8.93,.02,2.42-.96,4.71-2.78,6.45-1.82,1.74-4.26,2.74-6.84,2.75-2.59,.03-5.03-.87-6.88-2.56Z"/></svg>