<?xml version="1.0" encoding="UTF-8"?><svg id="conhecendo" xmlns="http://www.w3.org/2000/svg" viewBox="0 0 957 1111"><defs><style>.cls-1{fill:#fff;}.cls-2{fill:#ff9460;}.cls-3{fill:#1a3c7d;}.cls-4{fill:#ee4a00;}.cls-5{fill:#06296b;}.cls-6{fill:#ff6d2a;}</style></defs><path class="cls-1" d="M312.62,834.18c-.03,.93-.62,1.72-1.5,1.99l-2.18,.67c-3.74,1.16-7.05,3.04-9.83,5.58-3.55,3.24-6.04,7.43-7.17,12.12l-2.07,9.31c-.24,1-1.07,1.65-2.06,1.65h-.03c-1-.01-1.82-.68-2.04-1.68l-2.1-9.47c-1.01-4.61-3.24-8.89-6.46-12.37-2.56-2.77-5.67-4.93-9-6.23l-2.22-.87c-.87-.34-1.42-1.21-1.35-2.16,.07-.96,.73-1.74,1.65-1.95,.39-.09,.76-.18,1.12-.28,8.4-2.38,15.07-9.41,17.42-18.37l2.6-9.1c.26-.98,1.12-1.63,2.14-1.58,1.01,.05,1.81,.77,1.99,1.79l1.56,9.16c1.57,9.14,7.83,16.35,16.74,19.27,.41,.14,.82,.26,1.23,.37,.96,.27,1.59,1.13,1.56,2.15Z"/><path class="cls-1" d="M783.56,968.79c-.05,1.26-.83,2.3-2.02,2.68l-2.44,.76c-4.16,1.28-7.83,3.35-10.91,6.17-3.94,3.59-6.67,8.22-7.93,13.41l-2.33,10.47c-.32,1.34-1.43,2.22-2.76,2.22h-.03c-1.34-.02-2.44-.91-2.74-2.25l-2.35-10.66c-1.13-5.12-3.61-9.86-7.18-13.71-2.83-3.07-6.28-5.46-9.97-6.9l-2.49-.98c-1.18-.46-1.9-1.62-1.81-2.9,.09-1.28,.98-2.31,2.2-2.6,.42-.11,.83-.2,1.24-.31,9.3-2.63,16.69-10.44,19.29-20.36l2.94-10.26c.33-1.28,1.51-2.14,2.85-2.09,1.34,.06,2.44,1.04,2.66,2.38l1.76,10.31c1.73,10.12,8.68,18.11,18.55,21.35,.44,.14,.9,.28,1.35,.41,1.26,.35,2.12,1.53,2.09,2.87Z"/><path class="cls-1" d="M937.55,394.3c-.06,3.52-1.46,6.82-3.96,9.27-2.44,2.39-5.64,3.7-9.03,3.7h-.23c-7.17-.12-12.9-6.15-12.77-13.43,.12-7.2,5.93-12.98,12.99-12.98h.23c7.17,.13,12.9,6.16,12.77,13.44Z"/><path class="cls-1" d="M154.39,801.3c-.04,3.84-1.58,7.39-4.29,10.06-2.64,2.6-6.11,4.01-9.78,4.01h-.26c-3.75-.07-7.26-1.6-9.88-4.36-2.62-2.75-4.01-6.37-3.95-10.21,.07-3.82,1.58-7.39,4.29-10.04,2.71-2.67,6.26-4.12,10.04-4.01,3.75,.06,7.26,1.6,9.88,4.36,2.62,2.75,4.03,6.37,3.95,10.19Z"/><path class="cls-1" d="M447.37,100.85c-.03,2.36-.97,4.54-2.64,6.18-1.63,1.6-3.76,2.46-6.01,2.46h-.16c-2.3-.04-4.46-.99-6.07-2.68-1.61-1.69-2.46-3.92-2.42-6.27,.04-2.34,.97-4.54,2.64-6.17,1.67-1.64,3.85-2.53,6.17-2.46,2.31,.04,4.46,.99,6.08,2.68,1.61,1.69,2.48,3.92,2.42,6.26Z"/><path class="cls-1" d="M613.37,445.85c-.03,2.36-.97,4.54-2.64,6.18-1.63,1.6-3.76,2.46-6.01,2.46h-.16c-2.3-.04-4.46-.99-6.07-2.68-1.61-1.69-2.46-3.92-2.42-6.27,.04-2.34,.97-4.54,2.64-6.17,1.67-1.64,3.85-2.53,6.17-2.46,2.31,.04,4.46,.99,6.08,2.68,1.61,1.69,2.48,3.92,2.42,6.26Z"/><path class="cls-1" d="M321.37,209.85c-.03,2.36-.97,4.54-2.64,6.18-1.63,1.6-3.76,2.46-6.01,2.46h-.16c-2.3-.04-4.46-.99-6.07-2.68-1.61-1.69-2.46-3.92-2.42-6.27,.04-2.34,.97-4.54,2.64-6.17,1.67-1.64,3.85-2.53,6.17-2.46,2.31,.04,4.46,.99,6.08,2.68,1.61,1.69,2.48,3.92,2.42,6.26Z"/><path class="cls-1" d="M397.55,762.96c-.02,1.76-.73,3.41-1.98,4.63-1.22,1.2-2.82,1.86-4.51,1.86h-.12c-1.73-.03-3.35-.75-4.56-2.02-1.21-1.27-1.85-2.94-1.82-4.7,.06-3.6,2.96-6.49,6.49-6.49h.12c1.73,.03,3.35,.75,4.56,2.02s1.86,2.94,1.82,4.7Z"/><path class="cls-1" d="M521.05,1086.77c-.05,3.26-1.39,6.19-3.52,8.31-2.12,2.11-5.03,3.42-8.22,3.42h-.21c-6.47-.12-11.65-5.56-11.54-12.14,.11-6.58,5.47-11.81,11.95-11.73,6.48,.11,11.66,5.56,11.54,12.14Z"/><path class="cls-1" d="M762.55,144.01c-.02,1.76-.73,3.41-1.98,4.63-1.22,1.2-2.82,1.86-4.51,1.86h-.12c-1.73-.03-3.35-.75-4.56-2.02-1.21-1.27-1.85-2.94-1.82-4.7,.03-1.76,.73-3.41,1.98-4.63,1.25-1.23,2.91-1.87,4.63-1.86,1.73,.03,3.35,.75,4.56,2.02,1.21,1.27,1.85,2.94,1.82,4.7Z"/><path class="cls-1" d="M88.55,736.01c-.02,1.77-.73,3.41-1.98,4.64-1.22,1.2-2.82,1.85-4.51,1.85h-.12c-1.73-.03-3.35-.74-4.56-2.01-1.21-1.27-1.85-2.94-1.82-4.7,.03-1.77,.73-3.41,1.98-4.64,1.25-1.22,2.85-1.86,4.63-1.85,3.58,.06,6.45,3.07,6.38,6.71Z"/><path class="cls-1" d="M767.67,640.02c-.08,4.71-3.87,8.48-8.49,8.48h-.15c-2.27-.04-4.39-.97-5.97-2.63-1.57-1.66-2.42-3.84-2.38-6.15,.04-2.31,.96-4.46,2.59-6.06,1.63-1.6,3.75-2.46,6.05-2.42,4.69,.08,8.43,4.02,8.35,8.78Z"/><path class="cls-1" d="M63.55,412.01c-.03,2.31-.96,4.46-2.59,6.06-1.59,1.57-3.69,2.43-5.9,2.43h-.15c-2.27-.04-4.39-.98-5.97-2.64-1.57-1.66-2.42-3.84-2.38-6.15,.04-2.3,.96-4.45,2.59-6.06,1.63-1.6,3.74-2.44,6.05-2.42,2.27,.04,4.39,.97,5.97,2.63,1.58,1.66,2.42,3.85,2.38,6.15Z"/><path class="cls-1" d="M202.46,189.75c-.04,1.43-.94,2.63-2.29,3.05l-4.06,1.25c-7.08,2.2-13.35,5.75-18.61,10.56-6.75,6.15-11.46,14.1-13.62,22.99l-3.86,17.38c-.37,1.52-1.63,2.52-3.14,2.52h-.04c-1.53-.02-2.79-1.05-3.13-2.57l-3.9-17.68c-1.92-8.72-6.15-16.82-12.24-23.42-4.85-5.25-10.75-9.33-17.07-11.81l-4.13-1.62c-1.36-.53-2.17-1.82-2.06-3.3,.1-1.48,1.09-2.64,2.51-2.97,.75-.17,1.44-.35,2.14-.54,15.9-4.5,28.55-17.83,32.99-34.79l4.86-16.97c.39-1.5,1.7-2.46,3.26-2.41,1.56,.07,2.78,1.16,3.05,2.72l2.91,17.1c2.98,17.33,14.84,30.99,31.73,36.54,.76,.25,1.54,.48,2.32,.7,1.47,.4,2.42,1.72,2.38,3.27Z"/><path class="cls-1" d="M821.79,341.38c.03,3.5,1.52,6.77,4.18,9.21,2.67,2.43,6.2,3.75,9.94,3.7,.08-.01,.17-.01,.25-.01,3.65-.11,7.06-1.51,9.62-3.97,2.6-2.48,4.03-5.75,4.03-9.2v-.11c-.03-3.5-1.51-6.77-4.18-9.21-2.67-2.43-6.19-3.75-9.94-3.7-3.7,.08-7.24,1.46-9.87,3.97-2.62,2.51-4.05,5.82-4.03,9.32Zm13.77-9.26h.17c2.59-.03,5.03,.88,6.88,2.56,.92,.84,1.64,1.83,2.13,2.91,.49,1.08,.75,2.25,.76,3.47,.02,2.42-.97,4.71-2.79,6.45-1.81,1.73-4.2,2.73-6.83,2.74-2.59,.04-5.04-.87-6.88-2.56-1.85-1.68-2.87-3.95-2.89-6.37-.02-2.42,.96-4.71,2.78-6.45,1.78-1.7,4.14-2.67,6.67-2.75Z"/><path class="cls-1" d="M885.08,269.52h-.05c-2.17,.04-3.98-1.24-4.5-3.21l-5.01-18.64c-2.43-9.07-7.47-17.41-14.59-24.12-5.66-5.33-12.48-9.4-19.72-11.77l-4.82-1.58c-1.91-.62-3.12-2.31-3.02-4.2,.09-1.89,1.48-3.49,3.44-3.96,.84-.2,1.63-.41,2.4-.64,17.97-5.24,31.97-19.62,36.55-37.54l5.13-18.21c.5-1.96,2.32-3.3,4.52-3.26,2.19,.03,3.95,1.4,4.38,3.41l3.86,18.06c3.86,18.03,17.73,31.92,37.08,37.15,.88,.24,1.77,.45,2.66,.65,2.09,.47,3.49,2.14,3.48,4.15-.01,1.86-1.24,3.45-3.13,4.05l-4.65,1.48c-8,2.54-15.02,6.47-20.88,11.68-7.49,6.66-12.62,15.13-14.82,24.49l-3.96,18.59c-.47,2-2.21,3.35-4.35,3.42Z"/><path class="cls-1" d="M895.74,736.99c0,3.03-2.32,5.49-5.19,5.49h-11.17v11.78c0,3.03-2.33,5.48-5.19,5.48s-5.2-2.45-5.2-5.48v-11.78h-11.17c-2.86,0-5.19-2.46-5.19-5.49s2.33-5.48,5.19-5.48h11.17v-11.78c0-3.03,2.33-5.49,5.2-5.49s5.19,2.46,5.19,5.49v11.78h11.17c2.87,0,5.19,2.46,5.19,5.48Z"/><path class="cls-1" d="M697.56,327.99c0,3.03-2.33,5.49-5.2,5.49h-11.16v11.78c0,3.03-2.33,5.48-5.2,5.48s-5.19-2.45-5.19-5.48v-11.78h-11.17c-2.87,0-5.19-2.46-5.19-5.49s2.32-5.48,5.19-5.48h11.17v-11.78c0-3.03,2.32-5.49,5.19-5.49s5.2,2.46,5.2,5.49v11.78h11.16c2.87,0,5.2,2.46,5.2,5.48Z"/><path class="cls-1" d="M618.99,573.49c8.52-.13,15.51,6.74,15.58,15.28,.06,8.46-6.68,15.45-15.07,15.73h-.27c-4.13,.06-8.03-1.49-10.96-4.38-2.95-2.88-4.58-6.75-4.62-10.89-.03-4.15,1.54-8.06,4.44-11.04,2.9-2.97,6.71-4.63,10.9-4.7Z"/><path class="cls-1" d="M414.45,960.9v-.14c-.02-3.5-1.51-6.77-4.17-9.2-2.67-2.44-6.2-3.75-9.94-3.7-3.74,0-7.25,1.46-9.87,3.97-2.63,2.51-4.06,5.82-4.03,9.31,.03,3.5,1.51,6.77,4.18,9.21,2.67,2.44,6.2,3.75,9.94,3.7,.08,0,.16,0,.25-.01,3.64-.1,7.05-1.51,9.62-3.96,2.59-2.48,4.02-5.73,4.02-9.18Zm-20.81,6.56c-1.84-1.69-2.87-3.95-2.89-6.38-.02-2.42,.97-4.71,2.79-6.45,1.77-1.69,4.13-2.67,6.66-2.74h.33c5.28,0,9.57,3.98,9.61,8.93,.02,2.42-.96,4.71-2.78,6.45-1.82,1.74-4.26,2.74-6.84,2.75-2.59,.03-5.03-.87-6.88-2.56Z"/><path class="cls-1" d="M47.45,264.9v-.14c-.02-3.5-1.51-6.77-4.17-9.2-2.67-2.44-6.2-3.75-9.94-3.7-3.74,0-7.25,1.46-9.87,3.97-2.63,2.51-4.06,5.82-4.03,9.31,.03,3.5,1.51,6.77,4.18,9.21,2.67,2.44,6.2,3.75,9.94,3.7,.08,0,.16,0,.25-.01,3.64-.1,7.05-1.51,9.62-3.96,2.59-2.48,4.02-5.73,4.02-9.18Zm-20.81,6.56c-1.84-1.69-2.87-3.95-2.89-6.38-.02-2.42,.97-4.71,2.79-6.45,1.77-1.69,4.13-2.67,6.66-2.74h.33c5.28,0,9.57,3.98,9.61,8.93,.02,2.42-.96,4.71-2.78,6.45-1.82,1.74-4.26,2.74-6.84,2.75-2.59,.03-5.03-.87-6.88-2.56Z"/><g><path class="cls-6" d="M241.71,1014.03l.45-.73c11.26-18.4,13.7-40.61,6.99-62.4-6.73-21.87-21.86-40.76-42.55-53.23-20.57-12.69-44.55-17.04-67.09-12.82-22.6,4.19-41.2,16.66-52.38,35.04-11.21,18.44-13.7,40.61-6.97,62.48,6.73,21.87,21.86,40.76,42.56,53.23,.44,.27,.88,.55,1.41,.8,20.31,11.87,43.62,16.1,65.69,12.02,22.28-4.17,40.69-16.33,51.9-34.4Zm-124.43-38.69c-3.72-12.2-2.36-24.59,3.92-34.92,6.26-10.29,16.65-17.25,29.28-19.6,12.28-2.28,25.3,.06,36.7,6.72l1.46,.91c23.4,14.51,31.97,43.13,19.17,64.17-6.26,10.29-16.6,17.27-29.23,19.63-12.63,2.35-26.06-.12-37.52-7.17-11.56-6.99-20.01-17.5-23.77-29.73Z"/><path class="cls-1" d="M173.24,1053.94c-17.56,0-35.19-4.78-51.01-14-.63-.32-1.14-.63-1.6-.91-21.54-12.99-37.28-32.69-44.29-55.47-7.06-22.95-4.44-46.29,7.38-65.74,11.79-19.39,31.35-32.5,55.07-36.9,23.88-4.47,48.71,.26,69.92,13.34,21.53,12.98,37.27,32.68,44.28,55.46,7.08,22.98,4.45,46.3-7.4,65.66l-.47,.75c-11.77,18.97-31.15,31.84-54.56,36.22-5.71,1.06-11.51,1.58-17.31,1.58Zm-16.76-166.66c-5.42,0-10.85,.5-16.23,1.51-21.46,3.98-39.11,15.77-49.7,33.19-10.61,17.46-12.95,38.5-6.57,59.23,6.43,20.9,20.92,39,40.8,50.98,.43,.27,.75,.46,1.08,.62l.28,.15c19.42,11.35,41.78,15.45,62.94,11.54,21.17-3.96,38.66-15.53,49.23-32.57l.45-.73c10.62-17.36,12.96-38.36,6.57-59.11-6.43-20.9-20.92-39-40.79-50.98-14.75-9.1-31.37-13.82-48.06-13.82Zm12.64,129.84c-10.49,0-20.92-2.95-30.16-8.64-12.4-7.5-21.46-18.86-25.5-31.96h0c-4.07-13.34-2.53-26.9,4.33-38.17,6.85-11.27,18.21-18.89,31.96-21.45,13.27-2.46,27.28,.09,39.45,7.2l.09,.05,1.46,.91c25.17,15.61,34.35,46.85,20.48,69.65-6.87,11.3-18.21,18.93-31.92,21.48-3.37,.63-6.78,.94-10.19,.94Zm-48.02-42.95c3.46,11.22,11.28,20.98,22.02,27.48,10.58,6.51,22.9,8.87,34.72,6.66,11.45-2.13,20.87-8.44,26.55-17.77,11.6-19.06,3.59-45.39-17.86-58.69l-1.42-.88c-10.5-6.12-22.54-8.33-33.9-6.22-11.49,2.14-20.93,8.44-26.59,17.75-5.66,9.3-6.9,20.54-3.51,31.66Z"/></g><g><path class="cls-3" d="M802.02,520.13c-19.57,8.28-38.9,14.67-56.12,18.61-10.14-11.1-16.32-25.88-16.32-42.11,0-34.52,27.98-62.5,62.5-62.5s60.41,25.94,62.38,58.68c-14.82,9.61-32.87,19.04-52.44,27.32Z"/><path class="cls-1" d="M745.9,542.74c-1.11,0-2.19-.46-2.95-1.3-11.2-12.26-17.37-28.17-17.37-44.81,0-36.67,29.83-66.5,66.5-66.5s64.27,27.43,66.37,62.44c.09,1.44-.61,2.81-1.82,3.6-15.09,9.79-33.44,19.35-53.06,27.65-19.64,8.31-39.27,14.82-56.79,18.83-.3,.07-.6,.1-.89,.1Zm46.18-104.61c-32.26,0-58.5,26.24-58.5,58.5,0,13.86,4.86,27.14,13.74,37.67,16.48-3.94,34.79-10.09,53.14-17.85h0c18.33-7.76,35.5-16.62,49.82-25.71-2.96-29.68-28.09-52.61-58.2-52.61Z"/></g><g><path class="cls-5" d="M811.93,540.34c17.59-7.44,34.02-15.81,48.12-24.44-4.05,30.61-30.24,54.23-61.96,54.23-13.94,0-26.81-4.56-37.2-12.28,16.02-4.11,33.46-10.07,51.04-17.51Z"/><path class="cls-1" d="M798.09,574.13c-14.39,0-28.08-4.52-39.59-13.07-1.24-.92-1.84-2.47-1.54-3.98,.3-1.51,1.44-2.72,2.93-3.1,15.87-4.07,33.32-10.06,50.48-17.32h0c17.16-7.26,33.62-15.62,47.59-24.17,1.31-.81,2.98-.78,4.27,.06s1.99,2.35,1.79,3.88c-4.35,32.9-32.69,57.71-65.92,57.71Zm-27.42-14.8c8.38,4.47,17.72,6.8,27.42,6.8,26.27,0,49.06-17.61,56.19-42.18-12.45,7.11-26.39,13.98-40.79,20.07h0c-14.41,6.1-29.04,11.32-42.82,15.3Z"/></g><path class="cls-1" d="M870.69,499.57c-5.81,4.6-12.53,9.23-19.96,13.77-12.89,7.89-27.91,15.54-43.99,22.35-16.07,6.8-32.02,12.25-46.66,16.01-8.44,2.17-16.45,3.77-23.79,4.75-5.35,.71-10.21,1.06-14.56,1.06-13.74,0-22.4-3.52-25.31-10.4-5.38-12.74,6.17-23.03,21.43-34.03,2.05-1.48,4.9-1.01,6.38,1.03,1.47,2.05,1.01,4.9-1.03,6.38-21.73,15.68-19.72,19.83-18.35,23.05,1.45,3.43,10.24,6.49,30.24,3.84,5.27-.7,10.89-1.75,16.79-3.1,15.74-3.6,33.42-9.44,51.31-17.01,17.89-7.57,34.4-16.19,47.95-24.98,5.07-3.28,9.75-6.59,13.92-9.88,15.84-12.52,19.76-20.96,18.3-24.38-1.39-3.3,2.01-9.55-25.11-4.59-2.49,.46-4.86-1.19-5.32-3.67-.46-2.49,1.19-4.87,3.68-5.32,18.95-3.47,29.71-2.91,35.17,10.01,3.84,9.06-3.45,21.21-21.07,35.12Z"/><g><path class="cls-4" d="M565.93,937.28c-28.23-3.85-53.65-16.62-73.33-35.37,15.74-3.62,29.67-5.39,43.44,6.89,1.46,1.31,2.95,2.63,4.45,3.96,7.48,6.63,15.21,13.49,21.83,20.33,1.29,1.33,2.49,2.73,3.61,4.19Z"/><path class="cls-2" d="M630.61,930.01c-14.52,5.49-30.26,8.49-46.68,8.49-1.73,0-3.44-.03-5.15-.1-2.63-4.32-5.61-8.49-9.27-12.27-6.89-7.11-14.76-14.09-22.38-20.85-1.49-1.33-2.98-2.64-4.43-3.94-19.2-17.14-38.8-12.44-57.74-7.9-.14,.03-.27,.07-.41,.1-7.19-8.15-13.4-17.19-18.42-26.93,3.53-3.02,7.15-5.76,11.38-7.87,10.97-5.46,21.08-5,34.82-2.36l1.91,.37c8.01,1.52,17.98,3.41,24.04,7.91,2.93,2.18,5.54,4.59,8.3,7.14,3.96,3.67,8.06,7.46,13.31,10.67,7.04,4.3,14.38,7.91,21.48,11.39,11.35,5.58,22.07,10.85,31.7,18.73,5.58,4.56,11.87,10.78,17.54,17.42Z"/><path class="cls-4" d="M683.94,892.83c-5.25,6.03-11.03,11.59-17.28,16.6-10.58-9.72-22.42-17.51-33.98-24.56-2.51-1.53-5.62-3.24-9.21-5.23-13.45-7.42-35.96-19.84-38.33-31.04-1.03-4.87-.52-8,1.53-9.3,4.8-3.04,17.33,.51,23.85,5.44,18.06,13.68,33.17,24.45,47.56,33.9,3.74,2.46,8.39,4.86,13.31,7.4,4.15,2.14,8.51,4.39,12.55,6.79Z"/><path class="cls-6" d="M696.39,876.02c-1.92,3.07-3.96,6.05-6.12,8.95-4.63-2.84-9.57-5.39-14.28-7.82-4.68-2.42-9.1-4.7-12.41-6.87-14.2-9.32-29.14-19.97-47.02-33.51-8.51-6.45-25.5-12.1-35.24-5.91-4.08,2.59-8.43,8.13-5.95,19.82,3.32,15.67,26.41,28.41,43.28,37.72,3.49,1.93,6.51,3.59,8.84,5.01,10.56,6.44,21.34,13.5,30.97,22.1-5.76,3.93-11.85,7.43-18.22,10.42-6.66-8.11-14.25-15.7-20.83-21.08-10.51-8.6-22.26-14.38-33.62-19.96-6.9-3.39-14.03-6.89-20.67-10.95-4.4-2.69-7.97-5.99-11.74-9.48-2.84-2.62-5.77-5.33-9.13-7.83-7.9-5.86-19.12-7.99-28.14-9.71l-1.88-.35c-15.45-2.98-27.73-3.48-41.17,3.22-4.27,2.13-7.93,4.72-11.31,7.46-2.35-5.6-4.34-11.39-5.91-17.34,8.75-4.74,19-8.3,30.07-10.29,7.13-1.29,14.35-1.48,22-1.68,9.47-.26,19.26-.52,28.92-3.03,7.09-1.84,13.25-4.12,19.22-6.33,14.47-5.35,25.91-9.57,43.14-5.15,23,5.9,40.33,12.94,56.19,22.82,6.45,4.02,11.53,9.31,16.91,14.92,3.16,3.3,6.44,6.71,10.03,9.87,1.65,1.45,4.03,4.09,6.55,6.89,2.43,2.7,4.95,5.49,7.52,8.09Z"/><path class="cls-2" d="M712.56,837.87c-2.53,10.21-6.25,19.96-11.01,29.09-2.06-2.16-3.91-4.22-5.25-5.71-2.84-3.16-5.3-5.89-7.39-7.73-3.27-2.87-6.26-5.98-9.41-9.27-5.57-5.81-11.33-11.81-18.84-16.49-16.76-10.44-34.96-17.85-59-24.02-20.24-5.19-34.26-.02-49.09,5.46-5.73,2.12-11.66,4.31-18.27,6.03-8.55,2.23-17.35,2.46-26.66,2.71-7.69,.2-15.64,.41-23.52,1.84-6.65,1.2-18.51,3.99-30.56,9.98-1.4-7.71-2.13-15.65-2.13-23.76,0-2.63,.08-5.24,.23-7.83,15.34-3.12,29.93-1.99,45.98,.84,13.86,2.44,25.51-1.14,37.84-4.94l.55-.17c7.19-2.21,12.48-5.7,17.61-9.07,3.6-2.38,7.01-4.62,11.08-6.46,14.14-6.4,32.57-.76,48.83,4.22,2.87,.88,5.57,1.71,8.22,2.46,18.37,5.22,34.85,12.13,53.95,20.9,9.8,4.51,15.01,10,22.89,18.31,4.02,4.24,8.42,8.39,12.67,12.4,.43,.4,.85,.8,1.28,1.21Z"/><path class="cls-4" d="M702.14,746.16c-.81-.47-1.65-.92-2.5-1.34-15.99-7.91-30.78-14.6-45.22-20.48-12.34-5.01-30.52-17.56-38.38-29.08-1.21-1.77-3.02-5.29-5.11-9.37-1.75-3.4-3.63-7.06-5.64-10.67,42.36,6.89,78.04,33.94,96.85,70.94Z"/><path class="cls-2" d="M715.66,791.76c-7.63-4.93-15.92-9.02-23.1-12.56-2.25-1.12-4.4-2.17-6.38-3.19-4.72-2.42-9.5-4.98-14.13-7.46-16.94-9.08-34.46-18.47-53.76-23.42-12.3-3.15-24.95-6.87-32.61-14.59-3.59-3.62-4.7-8.78-5.98-14.75-.78-3.59-1.57-7.3-3.01-10.9-3.95-9.95-12.72-20.35-23.54-27.78,9.88-2.36,20.19-3.61,30.78-3.61,2.99,0,5.96,.1,8.9,.3,3.37,5.34,6.53,11.49,9.19,16.67,2.34,4.55,4.19,8.15,5.75,10.43,9.37,13.73,29.08,27.1,42.87,32.71,14.21,5.78,28.79,12.38,44.56,20.17,5.79,2.86,10.69,7.28,15.12,12.43h0c2.59,8.21,4.4,16.75,5.33,25.55Z"/><path class="cls-6" d="M716.43,806c0,6.9-.53,13.68-1.55,20.3-3.09-2.94-6.18-5.93-9.01-8.92-8.06-8.5-14.42-15.21-25.98-20.52-19.52-8.96-36.4-16.03-55.39-21.43-2.55-.72-5.21-1.54-8.02-2.4-17.06-5.22-38.3-11.72-55.88-3.77-4.79,2.16-8.69,4.73-12.47,7.22-4.74,3.12-9.22,6.08-15.04,7.87l-.55,.17c-11.63,3.58-21.67,6.67-33.16,4.64-18.08-3.18-32.87-3.69-46.7-1.34,1.13-8.27,3.04-16.3,5.63-24.01,3.96,.23,8.09,.8,12.17,1.37,5.22,.73,10.16,1.41,14.79,1.43,1.33,0,2.64,.01,3.94,.03,1.56,.01,3.12,.03,4.68,.03,13.74,0,27.56-1.16,38.6-13.72,7.51-8.53,11.46-18.54,10.83-27.46-.51-7.19-3.91-13.68-9.84-18.77-2.9-2.48-6.33-4.22-9.65-5.89-2.89-1.46-5.62-2.84-7.57-4.51-.93-.79-1.81-1.65-2.68-2.56,8.23-5.18,17.06-9.47,26.36-12.76,12.33,5.98,23.35,17.25,27.46,27.59,1.13,2.82,1.8,5.97,2.52,9.3,1.41,6.56,3.01,13.99,8.67,19.69,9.45,9.53,23.56,13.74,37.21,17.24,18.13,4.65,34.35,13.34,51.53,22.54,4.66,2.5,9.48,5.09,14.29,7.55,2.02,1.04,4.21,2.12,6.52,3.26,8.96,4.42,19.81,9.78,28.28,16.32,0,.5,0,1.01,0,1.51Z"/><path class="cls-4" d="M524.99,746.35c-9.28,10.54-20.93,10.43-35.68,10.29-1.32-.02-2.66-.03-4-.03-3.96-.02-8.58-.66-13.46-1.33-3.18-.44-6.49-.9-9.82-1.2,9.33-21.82,24.36-40.66,43.2-54.61,1.39,1.52,2.87,3.04,4.55,4.47,2.86,2.44,6.25,4.15,9.54,5.81,2.92,1.48,5.67,2.87,7.65,4.56,3.91,3.36,6.06,7.36,6.37,11.88,.44,6.27-2.6,13.62-8.35,20.16Z"/><path class="cls-1" d="M726.29,799.69c-.19-4.34-.57-8.64-1.15-12.87-1.18-8.78-3.17-17.3-5.89-25.5-17.32-52.34-64.21-91.33-120.79-97.08-4.58-.47-9.22-.72-13.92-.74h-.61c-15.15,0-29.75,2.38-43.46,6.78-5.65,1.81-11.15,3.96-16.47,6.44-6.01,2.8-11.79,6-17.32,9.58-2.86,1.86-5.66,3.81-8.38,5.86-20.84,15.72-37.24,37.01-46.97,61.65-1.36,3.44-2.59,6.96-3.68,10.53-2.55,8.31-4.36,16.94-5.34,25.82-.4,3.52-.66,7.09-.79,10.68-.06,1.71-.09,3.43-.09,5.16,0,9.93,1.02,19.63,2.97,28.99,.73,3.54,1.59,7.03,2.59,10.46,1.85,6.42,4.14,12.65,6.84,18.67,1.41,3.16,2.94,6.26,4.58,9.29,4.32,8.02,9.4,15.59,15.12,22.6,2.43,2.97,4.97,5.84,7.63,8.6,23.55,24.54,55.76,40.68,91.67,43.46,3.66,.29,7.37,.43,11.1,.43h.45c18.63-.06,36.43-3.71,52.74-10.3,3.16-1.27,6.27-2.66,9.32-4.15,6.76-3.32,13.22-7.15,19.33-11.46,2.75-1.93,5.43-3.96,8.03-6.08,6.68-5.44,12.85-11.47,18.45-18.02,2.16-2.53,4.24-5.13,6.22-7.81,1.91-2.58,3.74-5.22,5.48-7.93,1.81-2.82,3.52-5.71,5.13-8.66,4.86-8.89,8.8-18.37,11.69-28.28,1.08-3.7,2.01-7.46,2.79-11.27,1.35-6.6,2.23-13.36,2.63-20.25,.16-2.74,.24-5.51,.24-8.29,0-2.11-.05-4.22-.14-6.31Zm-24.16-53.53c-.81-.47-1.65-.92-2.5-1.34-15.99-7.91-30.78-14.6-45.22-20.48-12.34-5.01-30.52-17.56-38.38-29.08-1.21-1.77-3.02-5.29-5.11-9.37-1.75-3.4-3.63-7.06-5.64-10.67,42.36,6.89,78.04,33.94,96.85,70.94Zm-118.2-72.66c2.99,0,5.96,.1,8.9,.3,3.37,5.34,6.53,11.49,9.19,16.67,2.34,4.55,4.19,8.15,5.75,10.43,9.37,13.73,29.08,27.1,42.87,32.71,14.21,5.78,28.79,12.38,44.56,20.17,5.79,2.86,10.69,7.28,15.12,12.43h0c2.59,8.21,4.4,16.75,5.33,25.55-7.63-4.93-15.92-9.02-23.1-12.56-2.25-1.12-4.4-2.17-6.38-3.19-4.72-2.42-9.5-4.98-14.13-7.46-16.94-9.08-34.46-18.47-53.76-23.42-12.3-3.15-24.95-6.87-32.61-14.59-3.59-3.62-4.7-8.78-5.98-14.75-.78-3.59-1.57-7.3-3.01-10.9-3.95-9.95-12.72-20.35-23.54-27.78,9.88-2.36,20.19-3.61,30.78-3.61Zm-78.7,25.97c1.39,1.52,2.87,3.04,4.55,4.47,2.86,2.44,6.25,4.15,9.54,5.81,2.92,1.48,5.67,2.87,7.65,4.56,3.91,3.36,6.06,7.36,6.37,11.88,.44,6.27-2.6,13.62-8.35,20.16-9.28,10.54-20.93,10.43-35.68,10.29-1.32-.02-2.66-.03-4-.03-3.96-.02-8.58-.66-13.46-1.33-3.18-.44-6.49-.9-9.82-1.2,9.33-21.82,24.36-40.66,43.2-54.61Zm-12.63,202.44c15.74-3.62,29.67-5.39,43.44,6.89,1.46,1.31,2.95,2.63,4.45,3.96,7.48,6.63,15.21,13.49,21.83,20.33,1.29,1.33,2.49,2.73,3.61,4.19-28.23-3.85-53.65-16.62-73.33-35.37Zm91.33,36.59c-1.73,0-3.44-.03-5.15-.1-2.63-4.32-5.61-8.49-9.27-12.27-6.89-7.11-14.76-14.09-22.38-20.85-1.49-1.33-2.98-2.64-4.43-3.94-19.2-17.14-38.8-12.44-57.74-7.9-.14,.03-.27,.07-.41,.1-7.19-8.15-13.4-17.19-18.42-26.93,3.53-3.02,7.15-5.76,11.38-7.87,10.97-5.46,21.08-5,34.82-2.36l1.91,.37c8.01,1.52,17.98,3.41,24.04,7.91,2.93,2.18,5.54,4.59,8.3,7.14,3.96,3.67,8.06,7.46,13.31,10.67,7.04,4.3,14.38,7.91,21.48,11.39,11.35,5.58,22.07,10.85,31.7,18.73,5.58,4.56,11.87,10.78,17.54,17.42-14.52,5.49-30.26,8.49-46.68,8.49Zm82.73-29.07c-10.58-9.72-22.42-17.51-33.98-24.56-2.51-1.53-5.62-3.24-9.21-5.23-13.45-7.42-35.96-19.84-38.33-31.04-1.03-4.87-.52-8,1.53-9.3,4.8-3.04,17.33,.51,23.85,5.44,18.06,13.68,33.17,24.45,47.56,33.9,3.74,2.46,8.39,4.86,13.31,7.4,4.15,2.14,8.51,4.39,12.55,6.79-5.25,6.03-11.03,11.59-17.28,16.6Zm23.6-24.46c-4.63-2.84-9.57-5.39-14.28-7.82-4.68-2.42-9.1-4.7-12.41-6.87-14.2-9.32-29.14-19.97-47.02-33.51-8.51-6.45-25.5-12.1-35.24-5.91-4.08,2.59-8.43,8.13-5.95,19.82,3.32,15.67,26.41,28.41,43.28,37.72,3.49,1.93,6.51,3.59,8.84,5.01,10.56,6.44,21.34,13.5,30.97,22.1-5.76,3.93-11.85,7.43-18.22,10.42-6.66-8.11-14.25-15.7-20.83-21.08-10.51-8.6-22.26-14.38-33.62-19.96-6.9-3.39-14.03-6.89-20.67-10.95-4.4-2.69-7.97-5.99-11.74-9.48-2.84-2.62-5.77-5.33-9.13-7.83-7.9-5.86-19.12-7.99-28.14-9.71l-1.88-.35c-15.45-2.98-27.73-3.48-41.17,3.22-4.27,2.13-7.93,4.72-11.31,7.46-2.35-5.6-4.34-11.39-5.91-17.34,8.75-4.74,19-8.3,30.07-10.29,7.13-1.29,14.35-1.48,22-1.68,9.47-.26,19.26-.52,28.92-3.03,7.09-1.84,13.25-4.12,19.22-6.33,14.47-5.35,25.91-9.57,43.14-5.15,23,5.9,40.33,12.94,56.19,22.82,6.45,4.02,11.53,9.31,16.91,14.92,3.16,3.3,6.44,6.71,10.03,9.87,1.65,1.45,4.03,4.09,6.55,6.89,2.43,2.7,4.95,5.49,7.52,8.09-1.92,3.07-3.96,6.05-6.12,8.95Zm11.29-18.01c-2.06-2.16-3.91-4.22-5.25-5.71-2.84-3.16-5.3-5.89-7.39-7.73-3.27-2.87-6.26-5.98-9.41-9.27-5.57-5.81-11.33-11.81-18.84-16.49-16.76-10.44-34.96-17.85-59-24.02-20.24-5.19-34.26-.02-49.09,5.46-5.73,2.12-11.66,4.31-18.27,6.03-8.55,2.23-17.35,2.46-26.66,2.71-7.69,.2-15.64,.41-23.52,1.84-6.65,1.2-18.51,3.99-30.56,9.98-1.4-7.71-2.13-15.65-2.13-23.76,0-2.63,.08-5.24,.23-7.83,15.34-3.12,29.93-1.99,45.98,.84,13.86,2.44,25.51-1.14,37.84-4.94l.55-.17c7.19-2.21,12.48-5.7,17.61-9.07,3.6-2.38,7.01-4.62,11.08-6.46,14.14-6.4,32.57-.76,48.83,4.22,2.87,.88,5.57,1.71,8.22,2.46,18.37,5.22,34.85,12.13,53.95,20.9,9.8,4.51,15.01,10,22.89,18.31,4.02,4.24,8.42,8.39,12.67,12.4,.43,.4,.85,.8,1.28,1.21-2.53,10.21-6.25,19.96-11.01,29.09Zm13.33-40.66c-3.09-2.94-6.18-5.93-9.01-8.92-8.06-8.5-14.42-15.21-25.98-20.52-19.52-8.96-36.4-16.03-55.39-21.43-2.55-.72-5.21-1.54-8.02-2.4-17.06-5.22-38.3-11.72-55.88-3.77-4.79,2.16-8.69,4.73-12.47,7.22-4.74,3.12-9.22,6.08-15.04,7.87l-.55,.17c-11.63,3.58-21.67,6.67-33.16,4.64-18.08-3.18-32.87-3.69-46.7-1.34,1.13-8.27,3.04-16.3,5.63-24.01,3.96,.23,8.09,.8,12.17,1.37,5.22,.73,10.16,1.41,14.79,1.43,1.33,0,2.64,.01,3.94,.03,1.56,.01,3.12,.03,4.68,.03,13.74,0,27.56-1.16,38.6-13.72,7.51-8.53,11.46-18.54,10.83-27.46-.51-7.19-3.91-13.68-9.84-18.77-2.9-2.48-6.33-4.22-9.65-5.89-2.89-1.46-5.62-2.84-7.57-4.51-.93-.79-1.81-1.65-2.68-2.56,8.23-5.18,17.06-9.47,26.36-12.76,12.33,5.98,23.35,17.25,27.46,27.59,1.13,2.82,1.8,5.97,2.52,9.3,1.41,6.56,3.01,13.99,8.67,19.69,9.45,9.53,23.56,13.74,37.21,17.24,18.13,4.65,34.35,13.34,51.53,22.54,4.66,2.5,9.48,5.09,14.29,7.55,2.02,1.04,4.21,2.12,6.52,3.26,8.96,4.42,19.81,9.78,28.28,16.32,0,.5,0,1.01,0,1.51,0,6.9-.53,13.68-1.55,20.3Z"/></g><g><circle class="cls-3" cx="664.93" cy="210" r="28.5"/><path class="cls-1" d="M664.93,242.5c-17.92,0-32.5-14.58-32.5-32.5s14.58-32.5,32.5-32.5,32.5,14.58,32.5,32.5-14.58,32.5-32.5,32.5Zm0-57c-13.51,0-24.5,10.99-24.5,24.5s10.99,24.5,24.5,24.5,24.5-10.99,24.5-24.5-10.99-24.5-24.5-24.5Z"/></g><g><circle class="cls-2" cx="280.93" cy="45" r="28.5"/><path class="cls-1" d="M280.93,77.5c-17.92,0-32.5-14.58-32.5-32.5s14.58-32.5,32.5-32.5,32.5,14.58,32.5,32.5-14.58,32.5-32.5,32.5Zm0-57c-13.51,0-24.5,10.99-24.5,24.5s10.99,24.5,24.5,24.5,24.5-10.99,24.5-24.5-10.99-24.5-24.5-24.5Z"/></g><g><circle class="cls-3" cx="310.43" cy="584.5" r="22"/><path class="cls-1" d="M310.43,610.5c-14.34,0-26-11.66-26-26s11.66-26,26-26,26,11.66,26,26-11.66,26-26,26Zm0-44c-9.92,0-18,8.07-18,18s8.08,18,18,18,18-8.07,18-18-8.08-18-18-18Z"/></g><g><path class="cls-1" d="M344.08,529.01c-28.75,0-45.52-15.15-46.08-41.75-.46-21.81,10.17-51.44,28.44-79.27,6.91-10.53,31.19-44.93,53.34-45.47,8.12-.2,21.94,3.98,22.77,34.17,.11,4.14-3.15,7.59-7.29,7.7-4.1,.11-7.59-3.15-7.7-7.29-.13-4.61-1.03-19.59-7.32-19.59-.03,0-.06,0-.1,0-7.96,.19-24.66,13.55-41.17,38.71-16.42,25.01-26.37,52.11-25.98,70.72,.4,18.84,10.62,27.43,32.3,27.05,22.96-.41,79.81-41.09,124.11-81.07,3.07-2.78,7.82-2.53,10.59,.54,2.77,3.08,2.53,7.82-.54,10.59-9.55,8.62-94.45,84.23-133.89,84.93-.5,0-1,.01-1.49,.01Z"/><path class="cls-1" d="M377.31,459.21c-3.3,0-6.17-.93-8.62-2.81-9.04-6.93-4.95-21.7-3.6-26.55,1.1-3.99,5.23-6.33,9.23-5.23,3.99,1.11,6.33,5.24,5.23,9.23-1.66,5.99-1.63,9.02-1.45,10.33,4.72-.55,18.88-8.78,36.19-28.42,19.1-21.67,32.53-46.04,36.84-66.88,6.74-32.55-9.24-53.71-47.5-62.9-36.48-8.76-113.03,26.62-153.36,83.69-2.39,3.38-7.07,4.19-10.45,1.8-3.38-2.39-4.19-7.07-1.8-10.45,20.37-28.83,50.35-54.28,84.42-71.68,32.41-16.55,63.28-23.09,84.69-17.95,44.37,10.66,57.01,35.12,59.8,53.77,7.27,48.65-43.34,110.87-73.32,128.54-6.22,3.66-11.66,5.5-16.28,5.5Zm.97-14.2h0Z"/><path class="cls-1" d="M271.81,742.85c-9.68,0-19.03-1.75-27.96-5.23-34.39-13.43-58.67-52.09-63.38-100.9-8.55-88.76,.4-163.7,26.61-222.76,1.68-3.79,6.11-5.49,9.9-3.81,3.79,1.68,5.49,6.11,3.81,9.9-25.15,56.67-33.69,129.08-25.39,215.24,4.16,43.15,24.81,77.01,53.9,88.37,28.18,11.01,61.25,.55,95.63-30.23,3.09-2.76,7.83-2.5,10.59,.58,2.76,3.09,2.5,7.83-.58,10.59-19.81,17.74-39.7,29.47-59.09,34.85-8.2,2.28-16.23,3.41-24.04,3.41Z"/><path class="cls-1" d="M395.44,673c-2.19,0-4.35-.95-5.83-2.78-2.61-3.22-2.11-7.94,1.11-10.55,67.75-54.88,116.2-103.66,178.75-179.97,2.63-3.21,7.35-3.67,10.55-1.05,3.2,2.63,3.67,7.35,1.05,10.56-63.26,77.18-112.29,126.54-180.91,182.12-1.39,1.12-3.06,1.67-4.72,1.67Z"/><path class="cls-1" d="M301.29,658.38c-8.35,0-16.35-1.27-23.77-3.85-25.36-8.83-39.08-37.51-39.68-82.94-.44-33.57,6.42-71.55,13.42-94.29,28.01-91.04,64.64-139.68,115.25-153.05,4-1.06,8.11,1.33,9.17,5.34,1.06,4-1.33,8.11-5.34,9.17-45.12,11.92-78.41,57.34-104.75,142.95-4.96,16.14-13.24,53.19-12.76,89.69,.35,26.88,5.78,60.67,29.61,68.97,18.65,6.49,42.51,2.48,65.45-11.01,20.75-12.2,37.94-30.26,54.56-47.72,2.86-3,7.6-3.12,10.6-.26,3,2.86,3.12,7.6,.26,10.6-17.33,18.21-35.26,37.04-57.82,50.31-18.05,10.62-36.87,16.1-54.22,16.1Z"/><path class="cls-1" d="M117.62,630.23c-3.21,0-6.19-2.08-7.17-5.32-26.89-88.3-18.02-172.93,26.36-251.52,39.58-70.1,97.59-116.96,128.64-138.66,3.4-2.37,8.07-1.54,10.44,1.85,2.37,3.4,1.54,8.07-1.85,10.44-50.87,35.54-211.97,167.5-149.24,373.52,1.21,3.96-1.03,8.15-4.99,9.36-.73,.22-1.46,.33-2.19,.33Z"/><path class="cls-1" d="M515.8,390.03c-1.38,0-2.77-.38-4.01-1.17-3.5-2.22-4.53-6.85-2.31-10.35,27.62-43.5,23.03-105.7-10.66-144.68-33.69-38.98-94.57-52.52-141.61-31.5-3.78,1.69-8.22,0-9.91-3.79-1.69-3.78,0-8.22,3.79-9.91,25.75-11.51,56.01-14.27,85.21-7.78,29.2,6.49,55.43,21.82,73.88,43.16,18.45,21.34,29.81,49.52,32.01,79.35,2.2,29.83-4.92,59.37-20.04,83.18-1.43,2.25-3.86,3.48-6.34,3.48Z"/><path class="cls-1" d="M465.47,528.18c-2.13,0-4.24-.9-5.73-2.65-2.68-3.16-2.29-7.89,.87-10.57,46.96-39.79,80.17-80.14,101.52-123.35,25.3-51.19,32.59-105.89,20.52-154.03-13.23-52.77-52.04-97.04-98.87-112.79-3.93-1.32-6.04-5.57-4.72-9.5,1.32-3.93,5.58-6.04,9.5-4.72,26.17,8.8,50.24,25.37,69.62,47.91,18.57,21.61,32.07,47.7,39.02,75.45,12.94,51.59,5.26,109.95-21.62,164.32-22.28,45.08-56.72,87-105.27,128.15-1.41,1.19-3.13,1.78-4.84,1.78Z"/></g></svg>