<?xml version="1.0" encoding="UTF-8"?><svg id="conhecendo" xmlns="http://www.w3.org/2000/svg" xmlns:xlink="http://www.w3.org/1999/xlink" viewBox="0 0 1158 1054"><defs><style>.cls-1{fill:url(#Gradiente_sem_nome_10-3);}.cls-2{fill:#fff;}.cls-3{fill:url(#Gradiente_sem_nome_14);}.cls-4{fill:url(#Gradiente_sem_nome_10-2);}.cls-5{fill:#ff9460;}.cls-6{fill:#e4dede;}.cls-7{fill:url(#Gradiente_sem_nome_10);}.cls-8{fill:#1a3c7d;}.cls-9{fill:#ee4a00;}.cls-10{fill:#ff6d2a;}</style><linearGradient id="Gradiente_sem_nome_10" x1="224" y1="755.26" x2="752.43" y2="755.26" gradientUnits="userSpaceOnUse"><stop offset="0" stop-color="#fff"/><stop offset=".05" stop-color="#fff" stop-opacity=".93"/><stop offset=".32" stop-color="#fff" stop-opacity=".61"/><stop offset=".56" stop-color="#fff" stop-opacity=".35"/><stop offset=".76" stop-color="#fff" stop-opacity=".16"/><stop offset=".91" stop-color="#fff" stop-opacity=".04"/><stop offset="1" stop-color="#fff" stop-opacity="0"/></linearGradient><linearGradient id="Gradiente_sem_nome_14" x1="683.35" y1="343.05" x2="745.46" y2="343.05" gradientUnits="userSpaceOnUse"><stop offset="0" stop-color="#fff"/><stop offset=".08" stop-color="#fff" stop-opacity=".98"/><stop offset=".17" stop-color="#fff" stop-opacity=".92"/><stop offset=".26" stop-color="#fff" stop-opacity=".83"/><stop offset=".37" stop-color="#fff" stop-opacity=".7"/><stop offset=".47" stop-color="#fff" stop-opacity=".53"/><stop offset=".58" stop-color="#fff" stop-opacity=".33"/><stop offset=".69" stop-color="#fff" stop-opacity=".09"/><stop offset=".73" stop-color="#fff" stop-opacity="0"/></linearGradient><linearGradient id="Gradiente_sem_nome_10-2" x1="676.07" y1="220.93" x2="1141.98" y2="220.93" xlink:href="#Gradiente_sem_nome_10"/><linearGradient id="Gradiente_sem_nome_10-3" x1="11277.01" y1="538.08" x2="11663.65" y2="538.08" gradientTransform="translate(11320.17 3114.6) rotate(-168.02)" xlink:href="#Gradiente_sem_nome_10"/></defs><path class="cls-2" d="M160.95,1017.98c-.03,1.07-.71,1.98-1.73,2.29l-2.51,.77c-4.3,1.33-8.11,3.5-11.31,6.42-4.08,3.73-6.95,8.55-8.25,13.94l-2.38,10.71c-.28,1.15-1.23,1.9-2.37,1.9h-.03c-1.15-.01-2.09-.78-2.35-1.93l-2.42-10.89c-1.16-5.3-3.73-10.23-7.43-14.23-2.94-3.19-6.52-5.67-10.35-7.17l-2.55-1c-1-.39-1.63-1.39-1.55-2.48,.08-1.1,.84-2,1.9-2.24,.45-.1,.87-.21,1.29-.32,9.66-2.74,17.33-10.82,20.04-21.13l2.99-10.47c.3-1.13,1.29-1.87,2.46-1.82,1.16,.06,2.08,.89,2.29,2.06l1.79,10.54c1.81,10.51,9.01,18.81,19.25,22.16,.47,.16,.94,.3,1.41,.43,1.1,.31,1.83,1.3,1.79,2.47Z"/><path class="cls-2" d="M1076.44,488.44c-.05,1.45-.96,2.64-2.32,3.08l-2.81,.87c-4.78,1.47-9,3.86-12.55,7.1-4.53,4.13-7.68,9.45-9.13,15.43l-2.68,12.04c-.36,1.54-1.65,2.55-3.17,2.55h-.04c-1.54-.02-2.81-1.05-3.15-2.59l-2.7-12.26c-1.3-5.89-4.15-11.34-8.26-15.77-3.26-3.53-7.22-6.28-11.46-7.93l-2.86-1.12c-1.36-.53-2.19-1.87-2.08-3.33,.11-1.47,1.12-2.66,2.54-2.99,.49-.13,.96-.24,1.43-.36,10.7-3.02,19.19-12.01,22.18-23.41l3.39-11.81c.38-1.47,1.74-2.46,3.28-2.41,1.54,.07,2.81,1.2,3.06,2.73l2.03,11.86c1.99,11.64,9.98,20.82,21.33,24.56,.51,.16,1.03,.33,1.56,.47,1.45,.4,2.44,1.76,2.41,3.3Z"/><path class="cls-2" d="M369.07,427.48c-.05,1.45-.96,2.64-2.32,3.08l-2.81,.87c-4.78,1.47-9,3.86-12.55,7.1-4.53,4.13-7.68,9.45-9.13,15.43l-2.68,12.04c-.36,1.54-1.65,2.55-3.17,2.55h-.04c-1.54-.02-2.81-1.05-3.15-2.59l-2.7-12.26c-1.3-5.89-4.15-11.34-8.26-15.77-3.26-3.53-7.22-6.28-11.46-7.93l-2.86-1.12c-1.36-.53-2.19-1.87-2.08-3.33,.11-1.47,1.12-2.66,2.54-2.99,.49-.13,.96-.24,1.43-.36,10.7-3.02,19.19-12.01,22.18-23.41l3.39-11.81c.38-1.47,1.74-2.46,3.28-2.41,1.54,.07,2.81,1.2,3.06,2.73l2.03,11.86c1.99,11.64,9.98,20.82,21.33,24.56,.51,.16,1.03,.33,1.56,.47,1.45,.4,2.44,1.76,2.41,3.3Z"/><path class="cls-2" d="M553.09,591.2c-.07,4.05-1.68,7.84-4.55,10.66-2.81,2.75-6.49,4.26-10.39,4.26h-.26c-8.25-.14-14.84-7.07-14.69-15.45,.14-8.28,6.82-14.93,14.94-14.93h.26c8.25,.15,14.84,7.09,14.69,15.46Z"/><path class="cls-2" d="M850.8,1025.17c-.05,4.41-1.82,8.5-4.94,11.57-3.04,2.99-7.03,4.61-11.24,4.61h-.3c-4.31-.07-8.35-1.84-11.37-5.01-3.02-3.17-4.61-7.33-4.54-11.74,.07-4.39,1.82-8.5,4.94-11.54,3.12-3.07,7.21-4.74,11.54-4.61,4.31,.07,8.35,1.84,11.37,5.01,3.02,3.17,4.64,7.33,4.54,11.72Z"/><path class="cls-2" d="M857.68,708.2c-.03,2.71-1.12,5.23-3.03,7.11-1.87,1.84-4.32,2.83-6.91,2.83h-.18c-2.65-.05-5.13-1.13-6.99-3.08-1.85-1.95-2.83-4.51-2.79-7.22,.05-2.7,1.12-5.23,3.03-7.09,1.92-1.88,4.43-2.91,7.09-2.83,2.65,.05,5.13,1.13,6.99,3.08,1.85,1.95,2.85,4.51,2.79,7.2Z"/><path class="cls-2" d="M1075.06,628.84c-.03,2.71-1.12,5.23-3.03,7.11-1.87,1.84-4.32,2.83-6.91,2.83h-.18c-2.65-.05-5.13-1.13-6.99-3.08-1.85-1.95-2.83-4.51-2.79-7.22,.05-2.7,1.12-5.23,3.03-7.09,1.92-1.88,4.43-2.91,7.09-2.83,2.65,.05,5.13,1.13,6.99,3.08,1.85,1.95,2.85,4.51,2.79,7.2Z"/><path class="cls-2" d="M1087.72,796.76c-.03,2.71-1.12,5.23-3.03,7.11-1.87,1.84-4.32,2.83-6.91,2.83h-.18c-2.65-.05-5.13-1.13-6.99-3.08-1.85-1.95-2.83-4.51-2.79-7.22,.05-2.7,1.12-5.23,3.03-7.09,1.92-1.88,4.43-2.91,7.09-2.83,2.65,.05,5.13,1.13,6.99,3.08,1.85,1.95,2.85,4.51,2.79,7.2Z"/><path class="cls-2" d="M170.07,397.58c-.02,2.02-.84,3.92-2.28,5.33-1.4,1.38-3.24,2.14-5.19,2.14h-.14c-1.99-.03-3.85-.86-5.24-2.32-1.39-1.46-2.13-3.38-2.09-5.41,.07-4.14,3.4-7.46,7.46-7.46h.14c1.99,.03,3.85,.86,5.24,2.32s2.14,3.38,2.09,5.41Z"/><path class="cls-2" d="M639.93,243.42c-.06,3.75-1.6,7.12-4.05,9.56-2.44,2.43-5.79,3.93-9.45,3.93h-.24c-7.44-.14-13.4-6.4-13.27-13.96,.13-7.57,6.29-13.58,13.74-13.49,7.45,.13,13.41,6.4,13.27,13.96Z"/><path class="cls-2" d="M519.73,385.17c-.02,2.02-.84,3.92-2.28,5.33-1.4,1.38-3.24,2.14-5.19,2.14h-.14c-1.99-.03-3.85-.86-5.24-2.32-1.39-1.46-2.13-3.38-2.09-5.41,.03-2.02,.84-3.92,2.28-5.33,1.44-1.41,3.35-2.15,5.33-2.14,1.99,.03,3.85,.86,5.24,2.32,1.39,1.46,2.13,3.38,2.09,5.41Z"/><path class="cls-2" d="M499.03,929.22c-.02,2.04-.84,3.92-2.28,5.34-1.4,1.38-3.24,2.13-5.19,2.13h-.14c-1.99-.03-3.85-.85-5.24-2.31-1.39-1.46-2.13-3.38-2.09-5.41,.03-2.04,.84-3.92,2.28-5.34,1.44-1.4,3.28-2.14,5.33-2.13,4.12,.07,7.42,3.53,7.34,7.72Z"/><path class="cls-2" d="M238.07,1029.29c-.09,5.42-4.45,9.75-9.77,9.75h-.17c-2.61-.05-5.05-1.12-6.87-3.02-1.81-1.91-2.78-4.42-2.74-7.07,.05-2.66,1.1-5.13,2.98-6.97,1.87-1.84,4.31-2.83,6.96-2.78,5.39,.09,9.7,4.62,9.6,10.1Z"/><path class="cls-2" d="M690.24,669.51c-.03,2.66-1.1,5.13-2.98,6.97-1.83,1.81-4.24,2.79-6.79,2.79h-.17c-2.61-.05-5.05-1.13-6.87-3.04-1.81-1.91-2.78-4.42-2.74-7.07,.05-2.65,1.1-5.12,2.98-6.97,1.87-1.84,4.3-2.81,6.96-2.78,2.61,.05,5.05,1.12,6.87,3.03,1.82,1.91,2.78,4.43,2.74,7.07Z"/><path class="cls-2" d="M620.53,84.76c-.04,1.47-.97,2.71-2.36,3.14l-4.18,1.29c-7.29,2.26-13.74,5.92-19.15,10.87-6.95,6.33-11.79,14.51-14.02,23.66l-3.97,17.89c-.38,1.56-1.68,2.59-3.23,2.59h-.04c-1.57-.02-2.87-1.08-3.22-2.64l-4.01-18.2c-1.98-8.97-6.33-17.31-12.6-24.1-4.99-5.4-11.06-9.6-17.57-12.15l-4.25-1.67c-1.4-.55-2.23-1.87-2.12-3.4,.1-1.52,1.12-2.72,2.58-3.06,.77-.17,1.48-.36,2.2-.56,16.36-4.63,29.38-18.35,33.95-35.8l5-17.46c.4-1.54,1.75-2.53,3.36-2.48,1.61,.07,2.86,1.19,3.14,2.8l2.99,17.6c3.07,17.84,15.27,31.89,32.65,37.61,.78,.26,1.58,.49,2.39,.72,1.51,.41,2.49,1.77,2.45,3.37Z"/><path class="cls-2" d="M391.19,544.13c.03,4.03,1.75,7.79,4.81,10.59,3.07,2.79,7.13,4.31,11.43,4.26,.09-.01,.2-.01,.29-.01,4.2-.13,8.12-1.74,11.06-4.57,2.99-2.85,4.64-6.61,4.64-10.58v-.13c-.03-4.03-1.74-7.79-4.81-10.59-3.07-2.79-7.12-4.31-11.43-4.26-4.26,.09-8.33,1.68-11.35,4.57-3.01,2.89-4.66,6.69-4.64,10.72Zm15.84-10.65h.2c2.98-.03,5.79,1.01,7.91,2.94,1.06,.97,1.89,2.1,2.45,3.35,.56,1.24,.86,2.59,.87,3.99,.02,2.78-1.12,5.42-3.21,7.42-2.08,1.99-4.83,3.14-7.86,3.15-2.98,.05-5.8-1-7.91-2.94-2.13-1.93-3.3-4.54-3.32-7.33-.02-2.78,1.1-5.42,3.2-7.42,2.05-1.96,4.76-3.07,7.67-3.16Z"/><path class="cls-2" d="M919.46,952.78h-.06c-2.5,.05-4.58-1.43-5.18-3.69l-5.76-21.44c-2.79-10.43-8.59-20.02-16.78-27.74-6.51-6.13-14.35-10.81-22.68-13.54l-5.54-1.82c-2.2-.71-3.59-2.66-3.47-4.83,.1-2.17,1.7-4.01,3.96-4.55,.97-.23,1.87-.47,2.76-.74,20.67-6.03,36.77-22.57,42.04-43.18l5.9-20.94c.58-2.25,2.67-3.8,5.2-3.75,2.52,.03,4.54,1.61,5.04,3.92l4.44,20.77c4.44,20.74,20.39,36.71,42.65,42.73,1.01,.28,2.04,.52,3.06,.75,2.4,.54,4.01,2.46,4,4.77-.01,2.14-1.43,3.97-3.6,4.66l-5.35,1.7c-9.2,2.92-17.28,7.44-24.02,13.43-8.61,7.66-14.52,17.4-17.05,28.17l-4.55,21.38c-.54,2.3-2.54,3.85-5,3.93Z"/><path class="cls-2" d="M766.68,848.12h-.03c-1.49,.03-2.73-.85-3.09-2.21l-3.44-12.8c-1.67-6.23-5.13-11.96-10.02-16.57-3.89-3.66-8.57-6.46-13.55-8.09l-3.31-1.09c-1.31-.43-2.14-1.59-2.07-2.89,.06-1.3,1.02-2.4,2.36-2.72,.58-.14,1.12-.28,1.65-.44,12.34-3.6,21.96-13.48,25.11-25.79l3.52-12.51c.34-1.35,1.59-2.27,3.11-2.24,1.5,.02,2.71,.96,3.01,2.34l2.65,12.41c2.65,12.39,12.18,21.93,25.47,25.52,.6,.16,1.22,.31,1.83,.45,1.44,.32,2.4,1.47,2.39,2.85,0,1.28-.85,2.37-2.15,2.78l-3.19,1.02c-5.5,1.74-10.32,4.44-14.34,8.02-5.15,4.58-8.67,10.39-10.18,16.82l-2.72,12.77c-.32,1.37-1.52,2.3-2.99,2.35Z"/><path class="cls-2" d="M888.01,405.66c0,3.49-2.67,6.31-5.97,6.31h-12.85v13.55c0,3.49-2.68,6.3-5.97,6.3s-5.98-2.82-5.98-6.3v-13.55h-12.85c-3.29,0-5.97-2.83-5.97-6.31s2.68-6.3,5.97-6.3h12.85v-13.55c0-3.49,2.68-6.31,5.98-6.31s5.97,2.83,5.97,6.31v13.55h12.85c3.3,0,5.97,2.83,5.97,6.3Z"/><path class="cls-2" d="M735.98,995.71c0,3.49-2.68,6.31-5.98,6.31h-12.84v13.55c0,3.49-2.68,6.3-5.98,6.3s-5.97-2.82-5.97-6.3v-13.55h-12.85c-3.3,0-5.97-2.83-5.97-6.31s2.67-6.3,5.97-6.3h12.85v-13.55c0-3.49,2.67-6.31,5.97-6.31s5.98,2.83,5.98,6.31v13.55h12.84c3.3,0,5.98,2.83,5.98,6.3Z"/><path class="cls-2" d="M282.8,274.54c0,3.49-2.68,6.31-5.98,6.31h-12.84v13.55c0,3.49-2.68,6.3-5.98,6.3s-5.97-2.82-5.97-6.3v-13.55h-12.85c-3.3,0-5.97-2.83-5.97-6.31s2.67-6.3,5.97-6.3h12.85v-13.55c0-3.49,2.67-6.31,5.97-6.31s5.98,2.83,5.98,6.31v13.55h12.84c3.3,0,5.98,2.83,5.98,6.3Z"/><path class="cls-2" d="M830.29,126.02c12.73-.19,23.16,10.06,23.26,22.82,.09,12.63-9.97,23.08-22.5,23.48h-.4c-6.16,.09-11.98-2.23-16.37-6.54-4.4-4.3-6.84-10.08-6.89-16.26-.05-6.19,2.31-12.03,6.63-16.48,4.33-4.43,10.02-6.91,16.28-7.02Z"/><path class="cls-2" d="M1071.58,987.72v-.21c-.03-5.3-2.29-10.26-6.32-13.94-4.05-3.7-9.39-5.68-15.06-5.61-5.67,.01-10.99,2.21-14.96,6.02-3.98,3.8-6.15,8.82-6.11,14.11,.05,5.3,2.29,10.26,6.33,13.96,4.05,3.7,9.39,5.68,15.06,5.61,.12,0,.24,0,.38-.02,5.52-.15,10.68-2.29,14.58-6,3.92-3.76,6.09-8.68,6.09-13.91Zm-31.53,9.94c-2.79-2.56-4.35-5.99-4.38-9.67-.03-3.67,1.47-7.14,4.23-9.77,2.68-2.56,6.26-4.05,10.09-4.15h.5c8,0,14.5,6.03,14.56,13.53,.03,3.67-1.45,7.14-4.21,9.77-2.76,2.64-6.45,4.15-10.36,4.17-3.92,.05-7.62-1.32-10.42-3.88Z"/><path class="cls-2" d="M647.29,874.84v-.16c-.02-4.03-1.74-7.79-4.8-10.58-3.07-2.81-7.13-4.31-11.43-4.26-4.3,.01-8.34,1.68-11.35,4.57-3.02,2.89-4.67,6.69-4.64,10.71,.03,4.03,1.74,7.79,4.81,10.59,3.07,2.81,7.13,4.31,11.43,4.26,.09,0,.18,0,.29-.01,4.19-.12,8.11-1.74,11.07-4.55,2.98-2.85,4.62-6.59,4.62-10.56Zm-23.94,7.55c-2.12-1.94-3.3-4.54-3.32-7.34-.02-2.78,1.12-5.42,3.21-7.42,2.04-1.94,4.75-3.07,7.66-3.15h.38c6.07,0,11.01,4.58,11.05,10.27,.02,2.78-1.1,5.42-3.2,7.42-2.09,2-4.9,3.15-7.87,3.16-2.98,.03-5.79-1-7.91-2.94Z"/><g><g><g><path class="cls-6" d="M220.23,943.05c-4.92-.14-9.8-.33-14.63-.6-5.91-4.98-11.81-10.16-17.68-15.5t-.02-.02c.18-.94,.31-1.87,.4-2.81,.24-2.55,.14-5.05-.26-7.42-.08-.51-.18-1.01-.3-1.51-.1-.49-.23-.99-.38-1.47-.06-.21-.12-.41-.18-.61-.58-1.82-1.36-3.53-2.3-5.08-.24-.39-.49-.78-.75-1.15-.33-.46-.68-.91-1.04-1.35-.26-.32-.55-.64-.84-.94-.09-.1-.18-.2-.28-.29-.2-.21-.39-.39-.6-.59-2.04-1.87-4.45-3.28-7.18-4.05-1.99-.56-4-.75-6-.59-.29,.01-.58,.05-.86,.08-.12,.01-.23,.02-.33,.05-.46,.06-.91,.15-1.36,.25-.16,.02-.32,.06-.47,.1-.36,.08-.71,.18-1.07,.3-.36,.1-.71,.22-1.06,.36-.31,.11-.61,.23-.92,.37-.27,.11-.53,.23-.79,.36-.07,.03-.15,.07-.22,.1-.05,.02-.09,.05-.14,.07l.02-.18,9.33-79.26,.84-7.15,.94-7.97c2.3,2.7,4.8,5.1,7.41,7.13,.29,.22,.56,.44,.85,.64,.26,.2,.53,.39,.79,.58,.31,.23,.63,.45,.95,.67,.44,.29,.86,.56,1.3,.83,.46,.3,.93,.58,1.39,.84,.4,.23,.81,.45,1.22,.66,.07,.05,.14,.08,.22,.12,.47,.24,.94,.47,1.41,.69,.46,.22,.93,.43,1.4,.62,.38,.16,.77,.31,1.16,.46,.44,.16,.87,.32,1.31,.46,.44,.15,.89,.29,1.32,.4,.89,.25,1.78,.47,2.68,.64,.34,.06,.69,.13,1.04,.17,.39,.06,.79,.11,1.19,.15,.21,.03,.41,.06,.63,.07,.25,.02,.52,.05,.77,.05,4.35,.28,8.58-.54,12.41-2.55,.43-.23,.85-.46,1.25-.72h.01c.37-.22,.72-.45,1.08-.7,.36-.23,.7-.49,1.04-.76,.29-.22,.58-.45,.84-.69,.07-.06,.13-.11,.2-.16,.31-.28,.63-.56,.91-.85,.3-.3,.6-.6,.89-.91,.01-.01,.02-.02,.03-.03,.22-.24,.43-.48,.63-.72,.14-.16,.28-.32,.4-.49,.23-.28,.45-.56,.66-.85,.23-.3,.44-.61,.66-.93,.01-.02,.02-.03,.03-.06,.18-.28,.36-.55,.53-.84,.18-.29,.35-.56,.51-.85,.16-.29,.32-.59,.47-.89,.31-.6,.6-1.21,.86-1.84,.14-.31,.28-.62,.39-.94,.28-.7,.53-1.41,.76-2.15,.14-.44,.26-.87,.38-1.32,.05-.17,.09-.35,.14-.53,.08-.31,.16-.62,.22-.93,.01-.03,.02-.07,.02-.09,.11-.52,.22-1.05,.31-1.58,.1-.54,.18-1.09,.25-1.66,.1-.74,.17-1.47,.23-2.22,.02-.33,.05-.68,.06-1.02,.02-.3,.03-.6,.03-.9,.02-.47,.02-.95,.02-1.44,0-.56-.01-1.13-.05-1.7,.01-.02,0-.05,0-.07-.02-.6-.07-1.2-.12-1.81-.01-.24-.03-.47-.06-.71-.03-.41-.08-.83-.14-1.24-.05-.35-.08-.68-.14-1.02-.03-.25-.07-.51-.12-.76-.08-.51-.17-1.02-.26-1.53-.08-.45-.17-.89-.26-1.33-.23-1.01-.48-2.02-.77-3.04-.1-.41-.23-.85-.37-1.27-.15-.53-.32-1.05-.51-1.56-.03-.13-.07-.24-.12-.34-.17-.49-.35-.99-.54-1.48-.21-.56-.44-1.13-.67-1.69h0c-.24-.58-.48-1.14-.74-1.69-.22-.48-.45-.98-.69-1.46-.25-.52-.51-1.02-.77-1.53-9.16-17.46-25.56-27.52-39.43-25.35l9.91-84.15h11.54c-.98,1.84-1.54,4-1.54,6.33,0,6.67,4.64,12.08,10.35,12.08s10.35-5.41,10.35-12.08c0-2.32-.56-4.49-1.54-6.33h63.67l1.24,10.5c-10.56-.43-20.6,7.37-23.57,19.04-3.38,13.23,3.61,26.44,15.61,29.5,4.65,1.18,9.35,.68,13.57-1.15l7.92,66.96c-1.48-.81-2.99-1.15-4.49-.99-.46,.05-.9,.14-1.33,.28-.14,.05-.28,.09-.41,.15-.14,.05-.27,.1-.4,.16-.01,.01-.02,.01-.05,.03-.18,.07-.37,.16-.55,.26-.1,.06-.22,.13-.32,.2-.09,.05-.18,.11-.28,.18-.12,.07-.23,.15-.35,.23-.11,.09-.23,.18-.34,.29-.26,.2-.52,.43-.77,.68-.16,.16-.33,.32-.48,.51-.38,.41-.75,.86-1.09,1.35-.23,.31-.45,.63-.66,.98-.16,.24-.31,.49-.45,.75-.21,.36-.41,.74-.61,1.13-.13,.24-.25,.49-.37,.76-.15,.3-.29,.61-.41,.93-.17,.38-.33,.77-.48,1.17-.14,.35-.26,.7-.39,1.06-.13,.36-.25,.72-.37,1.09-.12,.37-.23,.75-.34,1.14-.08,.26-.16,.54-.23,.82-.03,.14-.08,.29-.12,.43-.18,.67-.34,1.36-.51,2.06-.26,1.15-.49,2.35-.69,3.59-.14,.76-.25,1.53-.36,2.32-.07,.51-.13,1.02-.2,1.54-.1,.97-.2,1.94-.28,2.94-.03,.37-.06,.72-.08,1.09-.03,.36-.06,.72-.07,1.09-.01,.31-.03,.62-.05,.94-.03,.63-.06,1.27-.08,1.91-.05,1.64-.05,3.34-.01,5.06v.15c.01,.45,.02,.91,.05,1.37,.02,.75,.05,1.52,.09,2.28,.05,.98,.12,1.97,.2,2.96,0,.07,.01,.14,.02,.22,.07,1,.17,2.01,.28,3.04,.08,.76,.17,1.52,.26,2.27,.03,.29,.07,.59,.1,.87,.06,.46,.13,.92,.2,1.37,.07,.54,.15,1.07,.24,1.6,.14,.87,.28,1.73,.44,2.58,.03,.2,.07,.4,.12,.6,.1,.58,.22,1.15,.33,1.71,.06,.29,.12,.56,.17,.85,.16,.76,.32,1.51,.51,2.24,.03,.17,.08,.33,.12,.51h.01c.17,.77,.36,1.52,.56,2.25,.18,.74,.39,1.46,.6,2.17,.02,.08,.05,.15,.07,.22,.15,.51,.3,1,.45,1.48,.46,1.47,.93,2.88,1.44,4.23,.16,.41,.31,.83,.47,1.23,.01,.03,.03,.07,.05,.1,.16,.44,.35,.87,.53,1.3,.17,.43,.35,.84,.54,1.25,.17,.4,.36,.81,.55,1.21,.18,.39,.37,.78,.56,1.16,.18,.38,.38,.75,.56,1.12,.4,.74,.79,1.45,1.21,2.12,.21,.33,.4,.67,.61,.98,.82,1.28,1.67,2.43,2.54,3.42,.21,.25,.43,.48,.64,.71,.23,.25,.47,.49,.71,.7,.2,.21,.4,.39,.61,.56,.22,.2,.45,.38,.68,.55,.23,.18,.45,.34,.68,.49,.23,.16,.46,.3,.7,.44,.13,.07,.25,.14,.38,.21,.2,.1,.39,.2,.59,.29,.36,.16,.72,.3,1.09,.4,.2,.06,.39,.1,.58,.14,.28,.07,.56,.11,.84,.13,.21,.02,.41,.03,.62,.03,.24,0,.47-.01,.71-.03,1.9-.2,3.63-1.2,5.18-2.85l8.1,68.45c-12.58,1.66-25.76,2.93-39.39,3.76-12.36,.76-25.1,1.16-38.06,1.16-6.02,0-11.97-.08-17.86-.25Z"/><rect class="cls-10" x="189.65" y="553.59" width="92.84" height="69.08"/><path class="cls-2" d="M234.5,583h3.15c5.8,0,10.5,4.7,10.5,10.5v29.18h-24.15v-29.18c0-5.8,4.7-10.5,10.5-10.5Z"/><rect class="cls-9" x="189.65" y="621.53" width="92.84" height="36.81"/><path class="cls-5" d="M282.4,553.59h-117.42c-4.82,0-7.43-5.66-4.29-9.32l54.43-63.64c4.92-5.75,12.56-9.38,20.74-9.41,.54,0,1.08,0,1.63,.03,7.69,.35,14.72,3.92,19.36,9.33l54.6,63.69c3.14,3.67,.54,9.33-4.29,9.33h-24.75Z"/><path class="cls-8" d="M188.3,924.12c-.08,.93-.22,1.86-.4,2.81-9.33-8.51-18.29-17.16-26.79-25.88,.07-.03,.15-.07,.22-.1,.27-.13,.53-.24,.79-.36,.31-.14,.61-.25,.92-.37,.34-.14,.7-.25,1.06-.36,.36-.11,.71-.22,1.07-.3,.15-.05,.31-.08,.47-.1,.45-.1,.9-.2,1.36-.25,.1-.02,.22-.03,.33-.05,.29-.03,.58-.07,.86-.08,2-.16,4.01,.02,6,.59,2.73,.77,5.14,2.17,7.18,4.05,.21,.2,.4,.38,.6,.59,.09,.09,.18,.18,.28,.29,.29,.3,.58,.62,.84,.94,.36,.44,.7,.89,1.04,1.35,.25,.37,.51,.76,.75,1.15,.94,1.55,1.73,3.27,2.3,5.08,.07,.2,.13,.4,.18,.61,.15,.48,.28,.98,.38,1.47,.66,2.81,.86,5.83,.56,8.93Z"/><path class="cls-8" d="M281.34,929.24c-1.21,4.68-2.98,9.02-5.19,12.91-12.36,.76-25.1,1.16-38.06,1.16-6.02,0-11.97-.08-17.86-.25-3.35-8.63-4.01-19.23-1.23-29.99,5.82-22.44,24.49-37.01,41.71-32.55,17.22,4.46,26.45,26.27,20.63,48.72Z"/><ellipse class="cls-8" cx="198.98" cy="863.64" rx="9.78" ry="10.93"/><path class="cls-8" d="M225.26,795.44c-.45,5.99-2.16,11.46-5.07,15.84-1.93,2.92-4.41,5.37-7.37,7.17-.4,.26-.83,.49-1.25,.72-6.44,3.38-13.99,3.37-21.35,.61-3.67-1.37-7.29-3.43-10.71-6.1-2.61-2.04-5.11-4.43-7.41-7.13l5.04-42.78,.9-7.63,1.61-13.66c13.87-2.17,30.27,7.89,39.43,25.35,3.24,6.18,5.2,12.57,5.95,18.71,.38,3.05,.45,6.03,.24,8.89Z"/><ellipse class="cls-8" cx="249.59" cy="833.16" rx="19.28" ry="20.7"/><ellipse class="cls-8" cx="257.07" cy="764.73" rx="10.35" ry="12.08"/><path class="cls-8" d="M220.26,664.66c0,6.67-4.64,12.08-10.35,12.08s-10.35-5.41-10.35-12.08c0-2.32,.56-4.49,1.54-6.33h17.62c.98,1.84,1.54,4,1.54,6.33Z"/><ellipse class="cls-8" cx="218.54" cy="717.08" rx="13.23" ry="16.01"/><path class="cls-8" d="M289.25,716.22c-4.22,1.83-8.93,2.33-13.57,1.15-12-3.06-18.99-16.28-15.61-29.5,2.97-11.66,13.01-19.46,23.57-19.04l5.61,47.39Z"/><path class="cls-8" d="M307.45,869.93c-1.54,1.66-3.28,2.66-5.18,2.85-.24,.02-.47,.03-.71,.03-.21,0-.41-.01-.62-.03-.28-.01-.56-.06-.84-.13-.18-.03-.38-.08-.58-.14-.37-.1-.74-.24-1.09-.4-.2-.09-.39-.18-.59-.29-.13-.07-.25-.14-.38-.21-.24-.14-.47-.28-.7-.44-.23-.16-.46-.32-.68-.49-.23-.17-.46-.36-.68-.55-.21-.17-.41-.36-.61-.56-.24-.21-.48-.45-.71-.7-.22-.23-.44-.46-.64-.71-.87-.99-1.73-2.14-2.54-3.42-.21-.31-.4-.64-.61-.98-.41-.67-.8-1.38-1.21-2.12-.18-.37-.38-.74-.56-1.12-.2-.38-.38-.77-.56-1.16-.2-.4-.38-.81-.55-1.21-.2-.41-.37-.83-.54-1.25-.18-.43-.36-.86-.53-1.3-.01-.03-.03-.07-.05-.1-.16-.4-.31-.82-.47-1.23-.51-1.36-.98-2.76-1.44-4.23-.15-.48-.3-.98-.45-1.48-.02-.07-.05-.14-.07-.22-.41-1.43-.79-2.9-1.16-4.42h-.01c-.03-.18-.08-.34-.12-.52-.17-.74-.34-1.48-.51-2.24-.06-.29-.12-.56-.17-.85-.12-.56-.23-1.14-.33-1.71-.05-.2-.08-.4-.12-.6-.16-.85-.3-1.7-.44-2.58-.09-.53-.17-1.06-.24-1.6-.07-.45-.14-.91-.2-1.37-.03-.29-.07-.59-.1-.87-.09-.75-.18-1.51-.26-2.27-.1-1.02-.21-2.04-.28-3.04-.01-.08-.02-.15-.02-.22-.08-.99-.15-1.98-.2-2.96-.05-.76-.07-1.53-.09-2.28-.02-.46-.03-.92-.05-1.37v-.15c-.03-1.73-.03-3.42,.01-5.06,.02-.64,.05-1.28,.08-1.91,.01-.32,.03-.63,.05-.94,.01-.37,.03-.74,.07-1.09,.02-.37,.05-.72,.08-1.09,.08-1,.17-1.98,.28-2.94,.07-.52,.13-1.04,.2-1.54,.1-.79,.22-1.56,.36-2.32,.2-1.24,.43-2.44,.69-3.59,.16-.7,.32-1.39,.51-2.06,.32-1.22,.67-2.38,1.06-3.47,.13-.36,.25-.71,.39-1.06,1.14-2.96,2.5-5.35,4.07-7.06,.15-.18,.32-.35,.48-.51,.25-.25,.51-.48,.77-.68,.12-.1,.23-.2,.34-.29,.12-.08,.23-.16,.35-.23,.09-.07,.18-.14,.28-.18,.1-.07,.22-.14,.32-.2,.18-.1,.37-.2,.55-.26,.02-.02,.03-.02,.05-.03,.14-.06,.26-.11,.4-.16,.14-.06,.28-.1,.41-.15,.44-.14,.87-.23,1.33-.28,1.5-.16,3,.18,4.49,.99l3.66,30.89,.85,7.14,4.26,36,1.37,11.54,.14,1.17Z"/></g><g><path class="cls-2" d="M364.4,929.27c-2.39,.61-4.82,1.18-7.29,1.75-12.85,2.93-26.79,5.41-41.57,7.36l.83,6.99c16.04-2.07,31.07-4.78,44.8-8.04,2.44-.56,4.84-1.16,7.2-1.77-1.28-2.07-2.6-4.18-3.97-6.29Zm-170.24,12.49c-4.3-.31-8.55-.66-12.74-1.06-8.49-.78-16.76-1.75-24.78-2.88-70.85-9.89-121.56-32.11-121.56-57.21,0-17.45,24.51-33.51,63.26-45,2.28-.68,4.61-1.35,6.99-1.98-1.41-2.08-2.77-4.14-4.07-6.2-2.35,.66-4.65,1.33-6.9,2.04-40.94,12.62-66.18,30.72-66.18,51.14,0,29.3,51.94,53.82,127.64,64.23,5.73,.79,11.59,1.5,17.59,2.1h.01c9.54,1,19.38,1.78,29.5,2.32,3.8,.21,7.64,.38,11.5,.51-2.94-2.39-5.89-4.83-8.82-7.33-3.84-.2-7.66-.43-11.43-.69Z"/><path class="cls-2" d="M217.79,951.04l-3.41-.11c-3.71-.12-7.58-.29-11.53-.51-9.96-.53-19.88-1.31-29.51-2.32h-.06c-6-.62-11.93-1.33-17.63-2.12-37.79-5.2-69.79-13.89-92.55-25.14-23.6-11.66-36.07-25.57-36.07-40.23,0-20.37,23.79-38.92,66.99-52.24,2.25-.7,4.58-1.39,6.93-2.04l.82-.23,.46,.72c1.24,1.97,2.57,3.99,4.05,6.17l.91,1.34-1.57,.42c-2.18,.58-4.46,1.22-6.96,1.97-39.68,11.77-62.44,27.77-62.44,43.89,0,23.47,48.45,46,120.57,56.07,8.11,1.14,16.43,2.1,24.72,2.87,3.91,.37,8.07,.72,12.72,1.06h0c3.73,.26,7.57,.49,11.41,.69l.39,.02,.3,.25c2.78,2.37,5.66,4.76,8.8,7.31l2.65,2.15Zm-44.33-5.24h.07c9.6,1.01,19.51,1.79,29.44,2.33,2.73,.15,5.43,.28,8.06,.38-2.05-1.68-3.99-3.31-5.89-4.92-3.72-.19-7.44-.42-11.07-.67h0c-4.67-.34-8.85-.68-12.77-1.06-8.33-.77-16.68-1.74-24.83-2.88-74.45-10.39-122.55-33.3-122.55-58.35,0-17.47,22.76-33.84,64.08-46.1,1.94-.58,3.74-1.09,5.47-1.57-.97-1.44-1.87-2.82-2.73-4.17-2.05,.58-4.08,1.18-6.05,1.79-41.55,12.81-65.37,31.04-65.37,50.04,0,27.74,49.71,52.51,126.64,63.09,5.66,.78,11.54,1.49,17.49,2.09Zm141.91,.86l-1.1-9.27,1.13-.15c14.68-1.94,28.63-4.41,41.46-7.34,2.74-.62,5.12-1.19,7.26-1.74l.8-.2,.45,.69c1.3,2.01,2.6,4.08,3.98,6.31l.82,1.33-1.51,.39c-2.64,.68-5.01,1.26-7.23,1.78-13.92,3.3-29.03,6.01-44.91,8.06l-1.15,.15Zm1.45-7.29l.56,4.71c15.38-2.02,30.02-4.67,43.53-7.87,1.77-.41,3.64-.86,5.66-1.38-.92-1.47-1.8-2.88-2.68-4.25-1.95,.49-4.1,1-6.52,1.55-12.57,2.87-26.21,5.3-40.55,7.23Z"/></g><g><path class="cls-2" d="M316.37,945.38c-14.32,1.86-29.46,3.22-45.23,4.01-10.74,.54-21.79,.82-33.06,.82-4.8,0-9.56-.05-14.26-.15-3.16-.07-6.29-.16-9.41-.28-2.94-2.39-5.89-4.83-8.82-7.33,4.83,.26,9.71,.46,14.63,.6,5.89,.17,11.85,.25,17.86,.25,12.96,0,25.7-.4,38.06-1.16,13.63-.83,26.81-2.1,39.39-3.76l.83,6.99Z"/><path class="cls-2" d="M238.09,951.36c-4.96,0-9.77-.05-14.29-.15-3.17-.07-6.3-.16-9.43-.28h-.38s-.3-.26-.3-.26c-3.15-2.56-6.04-4.96-8.84-7.34l-2.6-2.21,3.41,.19c4.65,.25,9.56,.46,14.6,.6,5.73,.17,11.73,.25,17.83,.25,12.68,0,25.46-.39,37.99-1.16,13.31-.81,26.53-2.07,39.31-3.75l1.16-.15,1.1,9.28-1.13,.15c-14.49,1.88-29.73,3.24-45.32,4.02-10.79,.54-21.93,.82-33.11,.82Zm-23.24-2.71c2.98,.11,5.98,.2,9.01,.26,4.5,.1,9.29,.15,14.24,.15,11.14,0,22.24-.27,33-.81,15.12-.76,29.92-2.06,44.01-3.86l-.56-4.71c-12.48,1.61-25.36,2.83-38.32,3.62-12.58,.77-25.41,1.16-38.13,1.16-6.12,0-12.14-.09-17.9-.25-3.84-.11-7.61-.25-11.25-.42,1.89,1.58,3.84,3.19,5.9,4.87Z"/></g><g><path class="cls-2" d="M170.01,814.52l-.84,7.15c-23.97,2.71-45.98,6.81-64.99,11.97-1.41-2.08-2.77-4.14-4.07-6.2,20.22-5.7,43.87-10.12,69.9-12.93Z"/><path class="cls-2" d="M103.69,834.97l-.46-.68c-1.5-2.2-2.84-4.24-4.09-6.23l-.82-1.3,1.48-.42c20.59-5.81,44.17-10.17,70.09-12.96l1.43-.15-1.12,9.49-.91,.1c-23.75,2.69-45.56,6.71-64.81,11.94l-.79,.22Zm-1.78-6.83c.87,1.35,1.78,2.73,2.76,4.18,18.93-5.09,40.27-9.02,63.46-11.69l.56-4.81c-24.6,2.72-47.06,6.86-66.78,12.32Z"/></g><g><path class="cls-2" d="M448,880.62c0,22.57-30.85,42.32-79.63,54.94-1.28-2.07-2.6-4.18-3.97-6.29,46.43-11.59,76.7-29.27,76.7-48.65,0-27.16-59.38-50.94-139.41-59.4l-.85-7.14c86.14,8.65,147.17,34.79,147.17,66.54Z"/><path class="cls-2" d="M367.84,936.89l-.45-.72c-1.37-2.22-2.66-4.27-3.95-6.27l-.87-1.35,1.56-.39c47.48-11.86,75.82-29.63,75.82-47.54,0-25.69-56.91-49.65-138.39-58.25l-.91-.1-1.13-9.48,1.43,.14c42.87,4.3,79.61,12.85,106.24,24.7,27.45,12.22,41.96,27.08,41.96,42.98,0,22.38-29.34,42.81-80.49,56.06l-.82,.21Zm-1.6-6.89c.87,1.37,1.75,2.77,2.67,4.24,49.55-12.96,77.95-32.48,77.95-53.62,0-30.17-58.08-56.33-144.71-65.25l.57,4.81c39,4.19,74.17,12.23,99.13,22.67,26.43,11.06,40.4,24.12,40.4,37.77,0,19.12-27.68,37.08-76.01,49.38Z"/></g><g><path class="cls-2" d="M160.99,900.93c-22.01-22.56-41-45.5-55.66-67.29-1.41-2.08-2.77-4.14-4.07-6.2-2.35,.66-4.65,1.33-6.9,2.04,1.29,2.04,2.61,4.08,3.98,6.14,15.92,23.97,37.02,49.34,61.62,74.1l1.01-8.6s.09-.05,.14-.07c-.05-.03-.09-.08-.12-.12Zm207.38,34.63c-1.28-2.07-2.6-4.18-3.97-6.29-2.39,.61-4.82,1.18-7.29,1.75,1.4,2.13,2.76,4.23,4.06,6.31,15.75,25.13,24.61,47.26,24.61,62.98,0,7.1-1.82,12.88-5.61,17.06-17.79,19.52-74.99-1.17-137.78-46.19-9.24-6.63-18.6-13.78-27.97-21.41-2.94-2.39-5.89-4.83-8.82-7.33-3.84-.2-7.66-.43-11.43-.69,2.92,2.55,5.83,5.05,8.75,7.51,9.26,7.79,18.47,15.1,27.58,21.91,51.06,38.14,98.56,60.25,128.87,60.25,5.61,0,10.64-.76,14.99-2.31,4.35-1.55,8.02-3.91,10.93-7.1,14.25-15.64,6.79-47.72-16.91-86.46Z"/><path class="cls-2" d="M359.36,1032.58c-30.89,0-78.11-22.04-129.56-60.48-9.14-6.83-18.44-14.22-27.63-21.95-2.97-2.5-5.91-5.03-8.77-7.53l-2.58-2.25,3.41,.24c3.73,.26,7.57,.49,11.41,.69l.39,.02,.3,.25c2.78,2.37,5.66,4.76,8.8,7.31,9.23,7.51,18.63,14.7,27.92,21.36,63.56,45.57,119.59,64.64,136.26,46.35,3.52-3.88,5.31-9.36,5.31-16.28,0-15.29-8.45-36.86-24.44-62.37-1.24-1.99-2.56-4.04-4.04-6.29l-.91-1.39,1.62-.37c2.74-.62,5.12-1.19,7.26-1.74l.8-.2,.45,.69c1.3,2.01,2.6,4.08,3.98,6.31h0c25.07,41,31.03,72.19,16.78,87.84-3,3.29-6.83,5.78-11.39,7.41-4.42,1.58-9.59,2.38-15.37,2.38Zm-161.87-89.44c2.03,1.75,4.09,3.51,6.16,5.26,9.16,7.7,18.42,15.06,27.53,21.87,50.31,37.58,98.23,60.02,128.18,60.02,5.52,0,10.43-.76,14.6-2.25,4.2-1.5,7.72-3.78,10.46-6.79,13.31-14.61,7.1-45.62-17.04-85.08h0c-1.21-1.97-2.36-3.8-3.51-5.58-1.51,.38-3.13,.77-4.91,1.18,1.13,1.74,2.18,3.37,3.17,4.96,16.22,25.88,24.79,47.87,24.79,63.59,0,7.52-1.99,13.52-5.91,17.83-17.75,19.48-73.73,.98-139.3-46.03-9.33-6.69-18.76-13.91-28.03-21.45-3.04-2.47-5.84-4.79-8.54-7.09-2.56-.13-5.12-.28-7.65-.44Zm-36.68-30.92l-1.68-1.69c-24.54-24.7-45.89-50.38-61.76-74.27-1.32-1.98-2.62-4-3.99-6.16l-.8-1.27,1.43-.45c2.25-.7,4.58-1.39,6.93-2.05l.82-.23,.46,.72c1.24,1.97,2.57,3.99,4.05,6.17,14.7,21.85,33.38,44.44,55.53,67.13l.04,.04,1.44,1.07-1.25,.63-1.22,10.35Zm-64.68-82.08c1.07,1.68,2.11,3.28,3.16,4.85,15.42,23.22,36.07,48.16,59.8,72.22l.69-5.87c-22.08-22.66-40.72-45.22-55.4-67.05-1.31-1.93-2.51-3.74-3.63-5.5-1.56,.44-3.1,.89-4.61,1.35Z"/></g><g><path class="cls-2" d="M205.6,942.45c-3.84-.2-7.66-.43-11.43-.69-2.86-2.48-5.72-5.03-8.58-7.61-.77-.69-1.55-1.4-2.32-2.1-8.06-7.35-15.85-14.8-23.3-22.33l1.01-8.6s.09-.05,.14-.07c8.5,8.72,17.46,17.37,26.79,25.88t.02,.02c5.87,5.35,11.77,10.52,17.68,15.5Z"/><path class="cls-2" d="M208.95,943.78l-3.41-.17c-3.85-.2-7.71-.43-11.45-.69l-.38-.03-.29-.25c-2.6-2.25-5.41-4.75-8.6-7.63-.68-.61-1.38-1.25-2.07-1.88l-.25-.23c-8.13-7.41-15.98-14.93-23.35-22.37l-.39-.39,1.15-9.77,1.44-.72,.59,.6c8.4,8.61,17.39,17.31,26.74,25.83,5.88,5.37,11.82,10.57,17.67,15.5l2.61,2.2Zm-14.32-3.13c2.5,.17,5.06,.33,7.62,.48-5.02-4.28-10.09-8.75-15.1-13.32-8.82-8.05-17.31-16.23-25.29-24.35l-.69,5.85c7.22,7.28,14.92,14.64,22.87,21.89l.25,.23c.69,.62,1.38,1.26,2.06,1.87,3.06,2.76,5.77,5.17,8.28,7.35Z"/></g><g><path class="cls-2" d="M364.4,929.27c-2.39,.61-4.82,1.18-7.29,1.75-12.95-19.67-29.85-40.94-49.8-62.26l-1.37-11.54c24.05,24.8,43.88,49.44,58.46,72.05Z"/><path class="cls-2" d="M356.59,932.32l-.44-.67c-13.11-19.91-30.29-41.38-49.68-62.11l-.26-.28-1.81-15.29,2.37,2.44c23.48,24.21,43.75,49.19,58.61,72.23l.87,1.34-1.55,.39c-2.17,.55-4.56,1.13-7.32,1.76l-.78,.18Zm-48.18-64.07c19.16,20.5,36.16,41.73,49.23,61.47,1.79-.41,3.42-.8,4.93-1.17-14.19-21.76-33.16-45.21-55.08-68.07l.92,7.77Z"/></g><g><path class="cls-2" d="M78.96,743.86c-10.65,11.69-5.68,37.66,13.63,71.25,2.34,4.05,4.83,8.17,7.52,12.33-2.35,.66-4.65,1.33-6.9,2.04-2.34-3.68-4.54-7.33-6.61-10.93-21.21-36.91-25.74-65.09-12.74-79.34,16.01-17.56,55.19-9.77,103.03,16.93l-.9,7.63c-30.58-17.43-57.59-27.26-76.22-27.26-9.13,0-16.26,2.36-20.81,7.35Z"/><path class="cls-2" d="M92.71,830.84l-.47-.74c-2.35-3.7-4.58-7.39-6.64-10.97-21.48-37.39-25.96-66.04-12.6-80.69,15.97-17.51,54.03-11.43,104.45,16.7l.67,.37-1.19,10.11-1.51-.86c-30.68-17.48-57.55-27.11-75.65-27.11-9.03,0-15.75,2.35-19.96,6.97h0c-10.29,11.29-5.27,36.77,13.78,69.91,2.48,4.31,4.94,8.33,7.49,12.28l.85,1.31-1.51,.42c-2.33,.65-4.64,1.33-6.87,2.03l-.84,.26Zm7.03-99.8c-11.02,0-19.57,2.95-25.04,8.95-12.63,13.85-8.05,41.55,12.89,77.99,1.9,3.31,3.96,6.71,6.12,10.14,1.5-.46,3.04-.92,4.59-1.36-2.26-3.54-4.51-7.26-6.71-11.07-19.58-34.06-24.49-60.52-13.48-72.6h0c4.66-5.13,11.95-7.73,21.66-7.73,18.2,0,44.88,9.42,75.28,26.55l.61-5.14c-30.59-16.98-56.93-25.74-75.91-25.74Z"/></g></g><polygon class="cls-7" points="236.07 583 752.43 618.91 752.43 927.53 224 621.44 236.07 583"/></g><polygon class="cls-3" points="745.46 343.18 683.35 343.18 683.5 342.92 745.34 342.95 745.46 343.18"/><polygon class="cls-5" points="683.36 343.18 705.21 304.65 723.61 304.65 723.61 304.65 745.47 343.18 683.36 343.18"/><g><g><polygon class="cls-10" points="743.08 481.83 675.83 414.58 676.83 388.12 697.37 388.12 741.03 431.78 743.08 481.83"/><polygon class="cls-5" points="745.4 538.15 690.05 482.8 682.36 475.11 673.87 466.61 674.15 459.13 674.45 451.23 675.83 414.58 743.08 481.83 743.09 482.11 743.39 489.44 743.56 493.36 743.93 502.55 745.4 538.15"/><path class="cls-10" d="M745.89,550.07c-13.06-.49-26.75-1.55-40.7-3.16-1.88-.22-3.77-.44-5.64-.68l-27.68-26.21,1.43-38.2,.28-7.14,.3-8.08,8.5,8.5,7.69,7.69,55.34,55.34,.49,11.93Z"/><path class="cls-5" d="M699.55,546.23c-.64-.07-1.27-.16-1.9-.24-2.11-1.39-4.22-2.8-6.34-4.22-6.79-4.58-13.39-9.26-19.74-13.99l.29-7.75,27.68,26.21Z"/><rect class="cls-8" x="676.82" y="345.52" width="62.4" height="42.6"/><polygon class="cls-4" points="1141.98 346.72 718.35 346.47 676.07 346.45 698.73 306.52 1141.98 95.14 1141.98 346.72"/><polygon class="cls-5" points="741.03 431.78 697.37 388.12 739.23 388.12 741.03 431.78"/><path class="cls-2" d="M705.27,346.72h5.8c8,0,14.5,6.5,14.5,14.5v24.3c0,1.1-.9,2-2,2h-30.8c-1.1,0-2-.9-2-2v-24.3c0-8,6.5-14.5,14.5-14.5Z"/><rect class="cls-2" x="664.52" y="385.12" width="87.6" height="19.2" rx="9.6" ry="9.6"/></g><g><path class="cls-2" d="M616.83,479.29c-.79-.89-1.57-1.76-2.3-2.63-2.88,.37-5.68,.79-8.36,1.26,1.75,2.12,3.53,4.2,5.29,6.17,.07,.07,.13,.16,.2,.23,1.13-.17,2.29-.34,3.49-.49,1.72-.23,3.47-.44,5.26-.62-1.22-1.32-2.42-2.62-3.58-3.91Zm189.26,68.47c-.07-.07-.13-.16-.2-.23-1.13,.17-2.29,.34-3.49,.49-1.72,.23-3.47,.43-5.26,.62,1.22,1.32,2.42,2.62,3.58,3.91,.79,.89,1.57,1.76,2.3,2.63,2.89-.37,5.68-.79,8.36-1.26-1.75-2.12-3.53-4.2-5.29-6.17Z"/><path class="cls-2" d="M826.11,595.19c-3.32,4.92-9.53,6.78-16.99,6.78-10.44,0-23.36-3.62-34.49-7.66-22.27-8.05-48.7-21.66-75.5-38.8-1.36-.85-2.7-1.73-4.06-2.62-8.16-1.09-16.31-2.38-24.31-3.83-55.97-10.16-105.05-28.75-102.65-49.45,1.26-10.82,16.08-17.87,38.05-21.71,1.75,2.12,3.53,4.2,5.29,6.17,.07,.07,.13,.16,.2,.23-25.82,3.88-35.77,10.8-36.4,16.14-.64,5.58,8.22,15.16,35.03,25.32,16.84,6.38,37.73,11.88,60.74,16.08,3.36,.61,6.76,1.2,10.2,1.75-3.38-2.35-6.72-4.73-10-7.1l.34-8.72c6.35,4.73,12.95,9.41,19.74,13.99,2.11,1.43,4.22,2.83,6.34,4.22,.62,.08,1.26,.17,1.9,.24,1.87,.24,3.76,.47,5.64,.68,13.96,1.61,27.65,2.66,40.7,3.16,18.73,.7,36.17,.23,51.25-1.43,1.22,1.32,2.42,2.62,3.58,3.91,.79,.89,1.57,1.76,2.3,2.63-12.18,1.58-26.05,2.34-40.74,2.34s-28.81-.7-43.56-2c-2.36-.2-4.73-.43-7.09-.66,.36,.23,.73,.44,1.09,.66,22.97,14,45.25,25.12,64.36,32.03,26.95,9.76,39.92,8.26,43.06,3.61h.01c3-4.46-.04-16.2-17.12-35.98,2.89-.37,5.68-.79,8.36-1.26,11.63,14.17,21.65,31.01,14.72,41.27Z"/><path class="cls-2" d="M849.44,532.22c-1.03,8.86-11.15,15.18-26.84,19.3-3.48,.91-7.22,1.72-11.21,2.41-1.75-2.12-3.53-4.2-5.29-6.17-.07-.07-.13-.16-.2-.23,25.81-3.88,35.77-10.8,36.4-16.14,.02-.18,.04-.37,.04-.56,0-5.65-9.14-14.93-35.06-24.76-17.59-6.67-39.61-12.37-63.86-16.63l-.3-7.33c57.48,10.02,108.79,28.96,106.34,50.11Z"/><path class="cls-2" d="M673.57,474.69l-.28,7.14c-6.17-.25-12.2-.37-18.06-.37-12.53,0-24.25,.58-34.82,1.74-1.22-1.32-2.42-2.62-3.58-3.91-.79-.89-1.57-1.76-2.3-2.63,17.15-2.23,37.64-2.82,59.04-1.97Z"/><path class="cls-2" d="M620.41,483.2c-1.22-1.32-2.42-2.62-3.58-3.91-.79-.89-1.57-1.76-2.3-2.63-2.88,.37-5.68,.79-8.36,1.26,1.75,2.12,3.53,4.2,5.29,6.17,.07,.07,.13,.16,.2,.23,14.88,16.58,35.64,34.74,59.58,52.19l.34-8.72c-20.14-14.93-37.78-30.29-51.17-44.58Zm185.69,64.56c-.07-.07-.13-.16-.2-.23-1.13,.17-2.29,.34-3.49,.49-1.72,.23-3.47,.43-5.26,.62,1.22,1.32,2.42,2.62,3.58,3.91,.79,.89,1.57,1.76,2.3,2.63,2.89-.37,5.68-.79,8.36-1.26-1.75-2.12-3.53-4.2-5.29-6.17Z"/><path class="cls-2" d="M805.89,547.53c-1.13,.17-2.29,.34-3.49,.49-1.72,.23-3.47,.43-5.26,.62-13.85-14.77-32.22-30.68-53.21-46.09l-.37-9.19c25.1,18.04,46.88,36.95,62.33,54.17Z"/><path class="cls-2" d="M674.45,451.23l-.3,7.9c-11.9-6.05-23.27-11.06-33.68-14.83-14.48-5.24-24.94-7.24-31.99-7.24-6.06,0-9.61,1.48-11.06,3.62-3.01,4.46,.02,16.2,17.11,35.98-2.88,.37-5.68,.79-8.36,1.26-11.63-14.17-21.65-31.01-14.72-41.27,7.97-11.78,32.39-6.04,51.48,.88,9.8,3.55,20.44,8.17,31.54,13.7Z"/></g></g><path class="cls-2" d="M505.26,242.09c-1.6,1.94-3.42,4-5.45,6.19-2.59-.32-5.37-.6-8.35-.83-6.08-.47-12.61-.7-19.47-.7-11.18,0-23.28,.61-35.97,1.82l-.75-6.81c26.32-2.47,51.3-2.6,69.99,.33Z"/><path class="cls-2" d="M512.89,243.56c-2.4-.56-4.96-1.05-7.64-1.47,9.94-12.08,11.9-19.84,9.83-23.42-.72-1.25-2.13-2.33-4.31-3.09-2.19-.77-5.15-1.23-8.97-1.23-6.63,0-15.85,1.37-28.13,4.85-11.95,3.39-25.25,8.34-39.28,14.55l-.79-7.18c13.58-5.95,26.52-10.7,38.2-14.01,18.71-5.31,42.45-9.17,49.27,2.66,4.43,7.66-.41,18.2-8.18,28.34Z"/><g><g><path class="cls-9" d="M364.25,305.22h60.6c-2.1,1.27-4.23,2.51-6.38,3.75-1.55,.9-3.09,1.77-4.64,2.65-1.74,.32-3.5,.63-5.26,.93-15.7,2.7-31.08,4.62-45.58,5.73l1.25-13.05Z"/><path class="cls-9" d="M442.28,305.6c-2.54,.63-5.11,1.23-7.71,1.82,1.18-.74,2.36-1.46,3.53-2.2h4.13l.05,.38Z"/><path class="cls-10" d="M441.13,295.12c-5.27,3.4-10.7,6.79-16.28,10.1h-60.6l3.38-35.29,.83-8.7,.16-1.61,.69-7.25,6.73-70.23h52.68l4.88,44.42,.79,7.18,.87,8.01,.75,6.81,5.12,46.56Z"/><path class="cls-10" d="M442.24,305.22h-4.13c1.3-.81,2.59-1.62,3.86-2.43l.27,2.43Z"/><rect class="cls-5" x="376.04" y="137.3" width="52.68" height="44.86"/><path class="cls-8" d="M428.72,124.64v12.65h-52.68v-12.65c0-14.4,9.52-26.33,23.46-27.5v-1.83c0-1.59,1.29-2.88,2.88-2.88,.79,0,1.52,.32,2.04,.84,.52,.52,.84,1.24,.84,2.04v1.96c6.18,.77,11.62,3.65,15.7,7.88,4.83,5,7.76,11.9,7.76,19.5Z"/><rect class="cls-2" x="374.2" y="171.8" width="56.36" height="10.35" rx="4.03" ry="4.03"/><path class="cls-2" d="M374.28,151.67h56.2c2.59,0,4.68-3.22,4.68-7.19h0c0-3.97-2.1-7.19-4.68-7.19h-56.2c-2.59,0-4.68,3.22-4.68,7.19h0c0,3.97,2.1,7.19,4.68,7.19Z"/><rect class="cls-2" x="383.4" y="201.71" width="11.5" height="21.85" rx="5" ry="5"/><rect class="cls-2" x="414.45" y="233.91" width="11.5" height="21.85" rx="5" ry="5"/><rect class="cls-2" x="383.4" y="264.97" width="11.5" height="21.85" rx="5" ry="5"/></g><path class="cls-2" d="M315.6,318.7c-2.98-.23-5.76-.51-8.35-.83-2.96-.38-5.67-.81-8.15-1.28-1.79,2.05-3.44,4.05-4.93,6,2.4,.55,4.96,1.04,7.64,1.45,9.52,1.51,20.69,2.21,32.85,2.21,8.81,0,18.12-.37,27.7-1.07l.66-6.91c-17.4,1.33-33.54,1.5-47.4,.43Zm189.66-76.61c-1.6,1.94-3.42,4-5.45,6.19,2.96,.38,5.67,.81,8.15,1.28,1.73-1.97,3.38-3.97,4.93-5.99-2.4-.56-4.96-1.05-7.64-1.47Z"/><path class="cls-2" d="M507.96,249.55c-2.97,3.38-6.13,6.65-9.24,9.66-14.52,14.09-34.22,29.19-56.75,43.58-1.28,.81-2.56,1.62-3.86,2.43-1.17,.74-2.35,1.46-3.53,2.2-6.75,1.52-13.68,2.92-20.74,4.2,1.54-.87,3.08-1.75,4.64-2.65,2.15-1.24,4.28-2.48,6.38-3.75,5.58-3.31,11.01-6.69,16.28-10.1,20.93-13.57,39.2-27.69,52.78-40.87,2.14-2.08,4.11-4.08,5.89-5.98,2.96,.38,5.67,.81,8.15,1.28Z"/><path class="cls-2" d="M537.47,262.17c0,18.85-43.82,38.08-94.44,50.31-8.79,2.13-17.78,4.05-26.8,5.72-2.15,.39-4.31,.78-6.48,1.15-4.82,.83-9.66,1.59-14.52,2.28-11.07,1.58-22.14,2.78-32.9,3.57l.66-6.91c14.5-1.1,29.88-3.03,45.58-5.73,1.76-.3,3.52-.61,5.26-.93,7.06-1.28,13.99-2.68,20.74-4.2,2.6-.59,5.16-1.18,7.71-1.82,21.3-5.15,40.54-11.4,56.01-18.25,25.12-11.12,33.1-20.76,32.19-26.06-.46-2.65-3.36-5.58-9.58-8.11-3.32-1.36-7.6-2.6-12.95-3.62,1.73-1.97,3.38-3.97,4.93-5.99,13.94,3.19,23.04,8.57,24.41,16.56,.12,.68,.17,1.37,.17,2.05Z"/><path class="cls-2" d="M369.31,252.38l-.69,7.25c-22.83,5.33-43.47,11.92-59.87,19.17-25.13,11.13-33.1,20.76-32.19,26.06,.7,4.07,7.18,8.8,22.53,11.73-1.79,2.05-3.44,4.05-4.93,6-13.94-3.2-23.03-8.58-24.4-16.57-2.31-13.45,18.4-25.66,36.2-33.54,17.32-7.66,39.2-14.58,63.35-20.11Z"/><path class="cls-2" d="M409.76,319.35c-4.82,.83-9.66,1.59-14.52,2.28-11.71,5.98-23.16,11.25-34.06,15.64-9.82,3.97-19.16,7.23-27.8,9.68-26.44,7.5-38.73,5.2-41.42,.54-2.07-3.59-.1-11.36,9.83-23.44,1.61-1.94,3.42-4,5.45-6.18-2.96-.38-5.67-.81-8.15-1.28-1.79,2.05-3.44,4.05-4.93,6-8.68,11.38-12.23,21.31-8.18,28.34,3.3,5.69,10.52,7.75,19.24,7.75,9.33,0,20.36-2.36,30.03-5.11,7.89-2.24,16.34-5.13,25.19-8.6,17.52-6.87,36.58-16.01,55.78-26.79-2.15,.39-4.31,.78-6.48,1.15Zm95.5-77.26c-1.6,1.94-3.42,4-5.45,6.19,2.96,.38,5.67,.81,8.15,1.28,1.73-1.97,3.38-3.97,4.93-5.99-2.4-.56-4.96-1.05-7.64-1.47Z"/><path class="cls-2" d="M368.46,261.24l-.83,8.7c-21.66,13.91-40.54,28.41-54.5,41.96-2.14,2.08-4.11,4.08-5.89,5.98-2.96-.38-5.67-.81-8.15-1.28,15.42-17.55,41.25-37.65,69.37-55.36Z"/><polygon class="cls-1" points="44.06 64.18 415.79 145.99 415.79 174.99 0 271.88 44.06 64.18"/></g></svg>