<?xml version="1.0" encoding="UTF-8"?><svg id="conhecendo" xmlns="http://www.w3.org/2000/svg" viewBox="0 0 1000 981"><defs><style>.cls-1{fill:#fff;}.cls-2{fill:#ff9460;}.cls-3{fill:#1a3c7d;}.cls-4{fill:#ee4a00;}.cls-5{fill:#ff6d2a;}</style></defs><g><g><path class="cls-5" d="M716.19,766.35l45.85,21.54-19.36,41.21c-3.29,7-9.62,10.95-14.15,8.82l-29.46-13.84c-4.53-2.13-5.53-9.52-2.24-16.52l19.36-41.21Z"/><path class="cls-1" d="M733.34,841.1c-2.12,.45-4.19,.26-6.02-.6l-29.46-13.84c-6.04-2.84-7.62-11.76-3.61-20.3l19.36-41.21c.32-.68,.9-1.21,1.61-1.47,.71-.26,1.49-.22,2.18,.1l45.85,21.54c1.42,.67,2.03,2.36,1.37,3.79l-19.36,41.21c-1.82,3.87-4.55,7.08-7.68,9.04-1.39,.86-2.82,1.45-4.23,1.75Zm-15.79-70.96l-18.15,38.63c-2.79,5.95-1.78,11.48,.88,12.73l29.46,13.84c1.73,.82,3.76-.17,4.82-.83,2.18-1.36,4.2-3.77,5.54-6.63l18.15-38.63-40.69-19.12Z"/></g><g><polygon class="cls-4" points="846.04 487.23 891.89 508.77 770.27 769.73 724.42 748.19 846.04 487.23"/><path class="cls-1" d="M770.86,772.51c-.6,.13-1.24,.06-1.8-.21l-45.85-21.54c-1.42-.67-2.03-2.36-1.37-3.78l121.62-260.96c.32-.69,.9-1.22,1.61-1.47,.71-.26,1.5-.22,2.18,.1l45.85,21.54c1.42,.67,2.03,2.36,1.37,3.78l-121.62,260.96c-.32,.69-.9,1.22-1.61,1.47-.12,.05-.25,.08-.38,.11Zm-42.66-25.69l40.69,19.12,119.22-255.81-40.69-19.12-119.22,255.8Z"/></g><g><g><polygon class="cls-1" points="882.45 448.16 899.41 456.13 891.89 508.77 846.04 487.23 882.45 448.16"/><path class="cls-1" d="M892.48,511.55c-.6,.13-1.23,.06-1.8-.21l-45.85-21.54c-.82-.39-1.41-1.14-1.58-2.04-.17-.89,.09-1.81,.71-2.48l36.4-39.07c.84-.9,2.17-1.16,3.29-.64l16.96,7.97c1.13,.53,1.78,1.74,1.61,2.98l-7.52,52.64c-.13,.89-.67,1.67-1.47,2.1-.24,.13-.5,.22-.76,.28Zm-41.69-25.24l38.83,18.24,6.68-46.75-13.18-6.19-32.33,34.7Z"/></g><path class="cls-3" d="M905.84,434.12l-3.62,22.46c-.13,.89-.68,1.64-1.48,2.07-.24,.12-.48,.2-.73,.26-.6,.13-1.24,.06-1.8-.2l-16.97-7.98c-.81-.38-1.4-1.13-1.58-2.02-.18-.89,.08-1.81,.7-2.48l15.55-17c2.08-2.26,4.78-2.99,7.03-1.9,2.29,1.11,3.4,3.7,2.91,6.79Z"/></g></g><g><g><polygon class="cls-2" points="617.47 523.59 617.47 676.94 657.42 676.94 657.42 465.6 617.47 523.59"/><polygon class="cls-2" points="556.91 545.08 556.91 676.94 596.85 676.94 596.85 566.98 556.91 545.08"/><polygon class="cls-2" points="497.63 520.61 497.63 676.94 537.58 676.94 537.58 541.09 497.63 520.61"/><polygon class="cls-2" points="437.06 599.34 437.06 676.94 477.01 676.94 477.01 534.91 437.06 599.34"/></g><path class="cls-5" d="M407.79,664.9c3.28,0,6.48-1.64,8.33-4.63l69.96-126.1,92.83,36.85c4.45,2.82,10.33,1.6,13.31-2.74l89.37-125.72c3.06-4.46,1.93-10.56-2.53-13.62-4.46-3.06-10.56-1.93-13.62,2.53l-84.03,117.94-93.21-37.09c-2.21-1.4-4.88-1.85-7.43-1.27-2.54,.58-4.75,2.16-6.13,4.38l-75.16,134.49c-2.85,4.6-1.44,10.64,3.16,13.49,1.61,1,3.39,1.47,5.16,1.47Z"/><path class="cls-1" d="M713.83,429.07c.04,1.35-.76,2.53-2.04,2.98l-3.23,1.17c-5.58,2.04-10.45,5.09-14.47,9.1-5.14,5.13-8.57,11.59-9.94,18.67l-2.41,14.03c-.27,1.44-1.44,2.46-2.91,2.51-.04,.01-.09,.01-.13,.01-1.4,0-2.59-.9-2.98-2.27l-3.9-13.93c-1.89-6.79-5.62-13-10.76-17.95-4.1-3.93-8.98-6.91-14.14-8.6l-3.42-1.11c-1.3-.43-2.16-1.62-2.14-3,.04-1.37,.94-2.54,2.29-2.93,.55-.15,1.11-.32,1.65-.5,12.54-4.21,22.11-15.25,24.97-28.83l3.22-13.69c.31-1.46,1.51-2.45,3-2.46h.03c1.47,0,2.68,.97,3,2.41l3.08,13.51c3.09,13.53,13.14,23.79,26.89,27.45,.62,.17,1.25,.32,1.88,.46,1.43,.31,2.41,1.5,2.44,2.95Z"/><circle class="cls-1" cx="408.04" cy="659.42" r="18.87"/><circle class="cls-1" cx="482.97" cy="520.61" r="18.87"/><circle class="cls-1" cx="583.82" cy="555.95" r="18.87"/></g><g><g><path class="cls-2" d="M279.04,612.14h1.05c4.6,0,8.33,3.73,8.33,8.33v9.92c0,4.6-3.73,8.33-8.33,8.33h-1.05v-26.57h0Z" transform="translate(-282.46 236.72) rotate(-31.13)"/><g><path class="cls-2" d="M152.53,706.57h1.05c4.6,0,8.33,3.73,8.33,8.33v9.92c0,4.6-3.73,8.33-8.33,8.33h-1.05v-26.57h0Z" transform="translate(663.93 1254.78) rotate(148.87)"/><path class="cls-2" d="M136.77,680.47h1.05c4.6,0,8.33,3.73,8.33,8.33v9.92c0,4.6-3.73,8.33-8.33,8.33h-1.05v-26.57h0Z" transform="translate(621.2 1214.5) rotate(148.87)"/></g></g><rect class="cls-1" x="184.7" y="588.86" width="153.98" height="304.05" rx="26.09" ry="26.09" transform="translate(-345.32 241.95) rotate(-31.13)"/><rect class="cls-4" x="187.03" y="602.86" width="133" height="249.04" rx="17.73" ry="17.73" transform="translate(-339.51 235.79) rotate(-31.13)"/><path class="cls-1" d="M222.74,625.73l-44.83,27.07c-1.48,.89-3.4,.42-4.29-1.06-.89-1.48-.42-3.4,1.06-4.29l44.83-27.07c1.48-.89,3.4-.42,4.29,1.06,.89,1.48,.42,3.4-1.06,4.29Z"/><circle class="cls-3" cx="329.82" cy="853.71" r="11.33"/></g><g><rect class="cls-1" x="186.95" y="178.87" width="338.72" height="252.12" rx="32.84" ry="32.84" transform="translate(-109 246.4) rotate(-33.39)"/><g><rect class="cls-5" x="212.99" y="302.89" width="46.4" height="48.31" rx="7.09" ry="7.09" transform="translate(-140.99 183.95) rotate(-33.39)"/><rect class="cls-5" x="260.15" y="271.81" width="46.4" height="48.31" rx="7.09" ry="7.09" transform="translate(-116.11 204.77) rotate(-33.39)"/><rect class="cls-5" x="307.32" y="240.72" width="46.4" height="48.31" rx="7.09" ry="7.09" transform="translate(-91.22 225.6) rotate(-33.39)"/><rect class="cls-5" x="354.48" y="209.64" width="46.4" height="48.31" rx="7.09" ry="7.09" transform="translate(-66.33 246.42) rotate(-33.39)"/><rect class="cls-5" x="400.8" y="179.11" width="46.4" height="48.31" rx="7.09" ry="7.09" transform="translate(-41.88 266.87) rotate(-33.39)"/><rect class="cls-5" x="192.09" y="288.86" width="46.4" height="12.34" rx="4.51" ry="4.51" transform="translate(-126.82 167.16) rotate(-33.39)"/><rect class="cls-5" x="239.25" y="257.78" width="46.4" height="12.34" rx="4.51" ry="4.51" transform="translate(-101.94 187.99) rotate(-33.39)"/><rect class="cls-5" x="286.42" y="226.69" width="46.4" height="12.34" rx="4.51" ry="4.51" transform="translate(-77.05 208.81) rotate(-33.39)"/><rect class="cls-5" x="333.58" y="195.61" width="46.4" height="12.34" rx="4.51" ry="4.51" transform="translate(-52.16 229.64) rotate(-33.39)"/><rect class="cls-5" x="379.9" y="165.08" width="46.4" height="12.34" rx="4.51" ry="4.51" transform="translate(-27.71 250.09) rotate(-33.39)"/><rect class="cls-5" x="245.57" y="352.34" width="46.4" height="48.31" rx="7.09" ry="7.09" transform="translate(-162.83 210.04) rotate(-33.39)"/><rect class="cls-5" x="292.74" y="321.25" width="46.4" height="48.31" rx="7.09" ry="7.09" transform="translate(-137.94 230.86) rotate(-33.39)"/><rect class="cls-5" x="339.9" y="290.17" width="46.4" height="48.31" rx="7.09" ry="7.09" transform="translate(-113.05 251.69) rotate(-33.39)"/><rect class="cls-3" x="387.07" y="259.08" width="46.4" height="48.31" rx="7.09" ry="7.09" transform="translate(-88.16 272.51) rotate(-33.39)"/><rect class="cls-5" x="433.39" y="228.55" width="46.4" height="48.31" rx="7.09" ry="7.09" transform="translate(-63.71 292.97) rotate(-33.39)"/><rect class="cls-5" x="277.84" y="401.29" width="46.4" height="48.31" rx="7.09" ry="7.09" transform="translate(-184.44 235.87) rotate(-33.39)"/><rect class="cls-5" x="325" y="370.21" width="46.4" height="48.31" rx="7.09" ry="7.09" transform="translate(-159.55 256.7) rotate(-33.39)"/><rect class="cls-5" x="372.17" y="339.12" width="46.4" height="48.31" rx="7.09" ry="7.09" transform="translate(-134.66 277.52) rotate(-33.39)"/><rect class="cls-5" x="419.33" y="308.04" width="46.4" height="48.31" rx="7.09" ry="7.09" transform="translate(-109.77 298.35) rotate(-33.39)"/><rect class="cls-5" x="465.65" y="277.51" width="46.4" height="48.31" rx="7.09" ry="7.09" transform="translate(-85.33 318.8) rotate(-33.39)"/></g><g><rect class="cls-2" x="195.21" y="226.21" width="23.26" height="44.65" rx="11.63" ry="11.63" transform="translate(-102.63 154.84) rotate(-33.39)"/><rect class="cls-2" x="274.72" y="173.81" width="23.26" height="44.65" rx="11.63" ry="11.63" transform="translate(-60.68 189.95) rotate(-33.39)"/><rect class="cls-2" x="351.79" y="123.01" width="23.26" height="44.65" rx="11.63" ry="11.63" transform="translate(-20 223.98) rotate(-33.39)"/></g></g><g><path class="cls-1" d="M833.13,317.89c-13.27,8.49-28.91,12.29-44.46,9.81l26.15,43.87c1.39,4.31-3.84,7.83-6.59,4.42l-81.11-64.69-77.28-21.07c-34.44-9.39-55.23-46.98-46.28-85.38,4.85-20.8,17.31-37.61,33.15-47.74,15.09-9.65,33.25-13.24,50.84-8.44l132.43,36.11c34.44,9.39,55.23,46.98,46.28,85.38-4.85,20.8-17.31,37.61-33.15,47.74Z"/><circle class="cls-3" cx="677.01" cy="220.18" r="19.67"/><circle class="cls-3" cx="736.8" cy="236.48" r="19.67"/><circle class="cls-3" cx="796.6" cy="252.78" r="19.67"/></g><path class="cls-1" d="M960.22,166.65c-.03,.93-.62,1.72-1.5,1.99l-2.18,.67c-3.74,1.16-7.05,3.04-9.83,5.58-3.55,3.24-6.04,7.43-7.17,12.12l-2.07,9.31c-.24,1-1.07,1.65-2.06,1.65h-.03c-1-.01-1.82-.68-2.04-1.68l-2.1-9.47c-1.01-4.61-3.24-8.89-6.46-12.37-2.56-2.77-5.67-4.93-9-6.23l-2.22-.87c-.87-.34-1.42-1.21-1.35-2.16,.07-.96,.73-1.74,1.65-1.95,.39-.09,.76-.18,1.12-.28,8.4-2.38,15.07-9.41,17.42-18.37l2.6-9.1c.26-.98,1.12-1.63,2.14-1.58,1.01,.05,1.81,.77,1.99,1.79l1.56,9.16c1.57,9.14,7.83,16.35,16.74,19.27,.41,.14,.82,.26,1.23,.37,.96,.27,1.59,1.13,1.56,2.15Z"/><path class="cls-1" d="M482.4,787.59c-.05,1.26-.83,2.3-2.02,2.68l-2.44,.76c-4.16,1.28-7.83,3.35-10.91,6.17-3.94,3.59-6.67,8.22-7.93,13.41l-2.33,10.47c-.32,1.34-1.43,2.22-2.76,2.22h-.03c-1.34-.02-2.44-.91-2.74-2.25l-2.35-10.66c-1.13-5.12-3.61-9.86-7.18-13.71-2.83-3.07-6.28-5.46-9.97-6.9l-2.49-.98c-1.18-.46-1.9-1.62-1.81-2.9,.09-1.28,.98-2.31,2.2-2.6,.42-.11,.83-.2,1.24-.31,9.3-2.63,16.69-10.44,19.29-20.36l2.94-10.26c.33-1.28,1.51-2.14,2.85-2.09,1.34,.06,2.44,1.04,2.66,2.38l1.76,10.31c1.73,10.12,8.68,18.11,18.55,21.35,.44,.14,.9,.28,1.35,.41,1.26,.35,2.12,1.53,2.09,2.87Z"/><path class="cls-1" d="M74.66,565.34c-.08,4.68-1.94,9.06-5.26,12.31-3.24,3.17-7.49,4.91-11.99,4.91h-.31c-9.52-.16-17.13-8.17-16.96-17.84,.16-9.56,7.88-17.24,17.25-17.24h.31c9.52,.17,17.13,8.18,16.96,17.85Z"/><path class="cls-1" d="M761.24,539.23c-.04,3.84-1.58,7.39-4.29,10.06-2.64,2.6-6.11,4.01-9.78,4.01h-.26c-3.75-.07-7.26-1.6-9.88-4.36-2.62-2.75-4.01-6.37-3.95-10.21,.07-3.82,1.58-7.39,4.29-10.04,2.71-2.67,6.26-4.12,10.04-4.01,3.75,.06,7.26,1.6,9.88,4.36,2.62,2.75,4.03,6.37,3.95,10.19Z"/><path class="cls-1" d="M597.21,21.65c-.03,2.36-.97,4.54-2.64,6.18-1.63,1.6-3.76,2.46-6.01,2.46h-.16c-2.3-.04-4.46-.99-6.07-2.68-1.61-1.69-2.46-3.92-2.42-6.27,.04-2.34,.97-4.54,2.64-6.17,1.67-1.64,3.85-2.53,6.17-2.46,2.31,.04,4.46,.99,6.08,2.68,1.61,1.69,2.48,3.92,2.42,6.26Z"/><path class="cls-1" d="M563.75,177.49c-.04,3.74-1.54,7.2-4.18,9.8-2.58,2.53-5.96,3.91-9.53,3.91h-.25c-3.65-.06-7.08-1.56-9.63-4.25-2.56-2.68-3.91-6.21-3.84-9.95,.06-3.72,1.54-7.2,4.18-9.78,2.64-2.6,6.1-4.01,9.78-3.91,3.65,.06,7.08,1.56,9.63,4.25,2.56,2.68,3.93,6.21,3.84,9.93Z"/><path class="cls-1" d="M333.42,74.2c-.03,2.36-.97,4.54-2.64,6.18-1.63,1.6-3.76,2.46-6.01,2.46h-.16c-2.3-.04-4.46-.99-6.07-2.68-1.61-1.69-2.46-3.92-2.42-6.27,.04-2.34,.97-4.54,2.64-6.17,1.67-1.64,3.85-2.53,6.17-2.46,2.31,.04,4.46,.99,6.08,2.68,1.61,1.69,2.48,3.92,2.42,6.26Z"/><path class="cls-1" d="M620.4,338.59c-.02,1.76-.73,3.41-1.98,4.63-1.22,1.2-2.82,1.86-4.51,1.86h-.12c-1.73-.03-3.35-.75-4.56-2.02-1.21-1.27-1.85-2.94-1.82-4.7,.06-3.6,2.96-6.49,6.49-6.49h.12c1.73,.03,3.35,.75,4.56,2.02s1.86,2.94,1.82,4.7Z"/><path class="cls-1" d="M799.9,897.56c-.05,3.26-1.39,6.19-3.52,8.31-2.12,2.11-5.03,3.42-8.22,3.42h-.21c-6.47-.12-11.65-5.56-11.54-12.14,.11-6.58,5.47-11.81,11.95-11.73,6.48,.11,11.66,5.56,11.54,12.14Z"/><path class="cls-1" d="M614.4,798.8c-.02,1.76-.73,3.41-1.98,4.63-1.22,1.2-2.82,1.86-4.51,1.86h-.12c-1.73-.03-3.35-.75-4.56-2.02-1.21-1.27-1.85-2.94-1.82-4.7,.03-1.76,.73-3.41,1.98-4.63,1.25-1.23,2.91-1.87,4.63-1.86,1.73,.03,3.35,.75,4.56,2.02,1.21,1.27,1.85,2.94,1.82,4.7Z"/><path class="cls-1" d="M874.4,736.8c-.02,1.76-.73,3.41-1.98,4.63-1.22,1.2-2.82,1.86-4.51,1.86h-.12c-1.73-.03-3.35-.75-4.56-2.02-1.21-1.27-1.85-2.94-1.82-4.7,.03-1.76,.73-3.41,1.98-4.63,1.25-1.23,2.91-1.87,4.63-1.86,1.73,.03,3.35,.75,4.56,2.02,1.21,1.27,1.85,2.94,1.82,4.7Z"/><path class="cls-1" d="M780.4,427.8c-.02,1.77-.73,3.41-1.98,4.64-1.22,1.2-2.82,1.85-4.51,1.85h-.12c-1.73-.03-3.35-.74-4.56-2.01-1.21-1.27-1.85-2.94-1.82-4.7,.03-1.77,.73-3.41,1.98-4.64,1.25-1.22,2.85-1.86,4.63-1.85,3.58,.06,6.45,3.07,6.38,6.71Z"/><path class="cls-1" d="M354.51,539.81c-.08,4.71-3.87,8.48-8.49,8.48h-.15c-2.27-.04-4.39-.97-5.97-2.63-1.57-1.66-2.42-3.84-2.38-6.15,.04-2.31,.96-4.46,2.59-6.06,1.63-1.6,3.75-2.46,6.05-2.42,4.69,.08,8.43,4.02,8.35,8.78Z"/><path class="cls-1" d="M109.4,358.8c-.03,2.31-.96,4.46-2.59,6.06-1.59,1.57-3.69,2.43-5.9,2.43h-.15c-2.27-.04-4.39-.98-5.97-2.64-1.57-1.66-2.42-3.84-2.38-6.15,.04-2.3,.96-4.45,2.59-6.06,1.63-1.6,3.74-2.44,6.05-2.42,2.27,.04,4.39,.97,5.97,2.63,1.58,1.66,2.42,3.85,2.38,6.15Z"/><path class="cls-1" d="M174.31,113.37c-.04,1.43-.94,2.63-2.29,3.05l-4.06,1.25c-7.08,2.2-13.35,5.75-18.61,10.56-6.75,6.15-11.46,14.1-13.62,22.99l-3.86,17.38c-.37,1.52-1.63,2.52-3.14,2.52h-.04c-1.53-.02-2.79-1.05-3.13-2.57l-3.9-17.68c-1.92-8.72-6.15-16.82-12.24-23.42-4.85-5.25-10.75-9.33-17.07-11.81l-4.13-1.62c-1.36-.53-2.17-1.82-2.06-3.3,.1-1.48,1.09-2.64,2.51-2.97,.75-.17,1.44-.35,2.14-.54,15.9-4.5,28.55-17.83,32.99-34.79l4.86-16.97c.39-1.5,1.7-2.46,3.26-2.41,1.56,.07,2.78,1.16,3.05,2.72l2.91,17.1c2.98,17.33,14.84,30.99,31.73,36.54,.76,.25,1.54,.48,2.32,.7,1.47,.4,2.42,1.72,2.38,3.27Z"/><path class="cls-1" d="M472.64,935.01c.03,3.5,1.52,6.77,4.18,9.21,2.67,2.43,6.2,3.75,9.94,3.7,.08-.01,.17-.01,.25-.01,3.65-.11,7.06-1.51,9.62-3.97,2.6-2.48,4.03-5.75,4.03-9.2v-.11c-.03-3.5-1.51-6.77-4.18-9.21-2.67-2.43-6.19-3.75-9.94-3.7-3.7,.08-7.24,1.46-9.87,3.97-2.62,2.51-4.05,5.82-4.03,9.32Zm13.77-9.26h.17c2.59-.03,5.03,.88,6.88,2.56,.92,.84,1.64,1.83,2.13,2.91,.49,1.08,.75,2.25,.76,3.47,.02,2.42-.97,4.71-2.79,6.45-1.81,1.73-4.2,2.73-6.83,2.74-2.59,.04-5.04-.87-6.88-2.56-1.85-1.68-2.87-3.95-2.89-6.37-.02-2.42,.96-4.71,2.78-6.45,1.78-1.7,4.14-2.67,6.67-2.75Z"/><path class="cls-1" d="M939.93,966.29h-.05c-2.17,.04-3.98-1.24-4.5-3.21l-5.01-18.64c-2.43-9.07-7.47-17.41-14.59-24.12-5.66-5.33-12.48-9.4-19.72-11.77l-4.82-1.58c-1.91-.62-3.12-2.31-3.02-4.2,.09-1.89,1.48-3.49,3.44-3.96,.84-.2,1.63-.41,2.4-.64,17.97-5.24,31.97-19.62,36.55-37.54l5.13-18.21c.5-1.96,2.32-3.3,4.52-3.26,2.19,.03,3.95,1.4,4.38,3.41l3.86,18.06c3.86,18.03,17.73,31.92,37.08,37.15,.88,.24,1.77,.45,2.66,.65,2.09,.47,3.49,2.14,3.48,4.15-.01,1.86-1.24,3.45-3.13,4.05l-4.65,1.48c-8,2.54-15.02,6.47-20.88,11.68-7.49,6.66-12.62,15.13-14.82,24.49l-3.96,18.59c-.47,2-2.21,3.35-4.35,3.42Z"/><path class="cls-1" d="M198.59,507.62c0,3.03-2.32,5.49-5.19,5.49h-11.17v11.78c0,3.03-2.33,5.48-5.19,5.48s-5.2-2.45-5.2-5.48v-11.78h-11.17c-2.86,0-5.19-2.46-5.19-5.49s2.33-5.48,5.19-5.48h11.17v-11.78c0-3.03,2.33-5.49,5.2-5.49s5.19,2.46,5.19,5.49v11.78h11.17c2.87,0,5.19,2.46,5.19,5.48Z"/><path class="cls-1" d="M972.41,360.62c0,3.03-2.33,5.49-5.2,5.49h-11.16v11.78c0,3.03-2.33,5.48-5.2,5.48s-5.19-2.45-5.19-5.48v-11.78h-11.17c-2.87,0-5.19-2.46-5.19-5.49s2.32-5.48,5.19-5.48h11.17v-11.78c0-3.03,2.32-5.49,5.19-5.49s5.2,2.46,5.2,5.49v11.78h11.16c2.87,0,5.2,2.46,5.2,5.48Z"/><path class="cls-1" d="M303.83,944.29c8.52-.13,15.51,6.74,15.58,15.28,.06,8.46-6.68,15.45-15.07,15.73h-.27c-4.13,.06-8.03-1.49-10.96-4.38-2.95-2.88-4.58-6.75-4.62-10.89-.03-4.15,1.54-8.06,4.44-11.04,2.9-2.97,6.71-4.63,10.9-4.7Z"/><path class="cls-1" d="M540.3,425.53v-.14c-.02-3.5-1.51-6.77-4.17-9.2-2.67-2.44-6.2-3.75-9.94-3.7-3.74,0-7.25,1.46-9.87,3.97-2.63,2.51-4.06,5.82-4.03,9.31,.03,3.5,1.51,6.77,4.18,9.21,2.67,2.44,6.2,3.75,9.94,3.7,.08,0,.16,0,.25-.01,3.64-.1,7.05-1.51,9.62-3.96,2.59-2.48,4.02-5.73,4.02-9.18Zm-20.81,6.56c-1.84-1.69-2.87-3.95-2.89-6.38-.02-2.42,.97-4.71,2.79-6.45,1.77-1.69,4.13-2.67,6.66-2.74h.33c5.28,0,9.57,3.98,9.61,8.93,.02,2.42-.96,4.71-2.78,6.45-1.82,1.74-4.26,2.74-6.84,2.75-2.59,.03-5.03-.87-6.88-2.56Z"/><path class="cls-1" d="M35.3,217.53v-.14c-.02-3.5-1.51-6.77-4.17-9.2-2.67-2.44-6.2-3.75-9.94-3.7-3.74,0-7.25,1.46-9.87,3.97-2.63,2.51-4.06,5.82-4.03,9.31,.03,3.5,1.51,6.77,4.18,9.21,2.67,2.44,6.2,3.75,9.94,3.7,.08,0,.16,0,.25-.01,3.64-.1,7.05-1.51,9.62-3.96,2.59-2.48,4.02-5.73,4.02-9.18Zm-20.81,6.56c-1.84-1.69-2.87-3.95-2.89-6.38-.02-2.42,.97-4.71,2.79-6.45,1.77-1.69,4.13-2.67,6.66-2.74h.33c5.28,0,9.57,3.98,9.61,8.93,.02,2.42-.96,4.71-2.78,6.45-1.82,1.74-4.26,2.74-6.84,2.75-2.59,.03-5.03-.87-6.88-2.56Z"/></svg>