<svg width="580" height="400" viewBox="0 0 580 400" fill="none" xmlns="http://www.w3.org/2000/svg">
<path d="M183.008 375.82L199.718 367.85L207.928 385.09C209.318 388.02 209.118 391.03 207.468 391.81L196.728 396.93C195.078 397.72 192.608 395.98 191.218 393.05L183.008 375.81V375.82Z" fill="#05183C"/>
<path d="M195.868 398.93C194.878 398.93 193.828 398.57 192.828 397.87C191.538 396.96 190.378 395.53 189.578 393.84L181.368 376.6C180.938 375.7 181.318 374.62 182.218 374.19L198.928 366.22C199.358 366.01 199.858 365.99 200.308 366.15C200.758 366.31 201.128 366.64 201.338 367.08L209.548 384.32C211.428 388.27 210.858 392.2 208.228 393.45L197.488 398.57C196.978 398.81 196.428 398.93 195.858 398.93H195.868ZM185.418 376.67L192.848 392.28C193.378 393.4 194.138 394.36 194.918 394.91C195.478 395.3 195.858 395.34 195.948 395.3L206.688 390.18C207.028 390.02 207.428 388.23 206.298 385.87L198.868 370.27L185.418 376.68V376.67Z" fill="white"/>
<path d="M127.139 259.44L143.849 251.47L196.039 360.34L179.329 368.32L127.139 259.44Z" fill="#06296B"/>
<path d="M179.328 370.119C178.658 370.119 178.008 369.739 177.698 369.089L125.508 260.209C125.298 259.779 125.278 259.279 125.438 258.829C125.598 258.379 125.928 258.009 126.368 257.799L143.078 249.829C143.978 249.399 145.058 249.779 145.488 250.679L197.678 359.559C197.888 359.989 197.908 360.489 197.748 360.939C197.588 361.389 197.258 361.759 196.818 361.969L180.108 369.939C179.858 370.059 179.588 370.119 179.328 370.119ZM129.548 260.289L180.178 365.899L193.628 359.489L142.998 253.879L129.548 260.289Z" fill="white"/>
<path d="M123.357 237.619L129.537 234.669L143.847 251.469L127.137 259.439L123.357 237.619Z" fill="white"/>
<path d="M127.138 261.249C126.848 261.249 126.568 261.179 126.308 261.049C125.808 260.789 125.448 260.309 125.358 259.749L121.578 237.929C121.438 237.129 121.848 236.339 122.578 235.989L128.758 233.039C129.498 232.689 130.388 232.879 130.918 233.499L145.218 250.299C145.578 250.729 145.728 251.299 145.608 251.849C145.488 252.399 145.128 252.859 144.618 253.109L127.908 261.079C127.658 261.199 127.398 261.259 127.128 261.259L127.138 261.249ZM125.378 238.659L128.508 256.779L140.938 250.849L129.058 236.899L125.368 238.659H125.378Z" fill="white"/>
<path d="M124.288 226.65L130.298 233.94C130.538 234.22 130.648 234.6 130.598 234.96C130.578 235.07 130.558 235.16 130.518 235.25C130.428 235.47 130.258 235.64 130.058 235.74L123.868 238.69C123.568 238.83 123.218 238.8 122.908 238.61C122.598 238.42 122.378 238.09 122.308 237.72L120.598 228.31C120.378 227.06 120.748 226.04 121.578 225.65C122.428 225.26 123.458 225.64 124.288 226.64V226.65Z" fill="#06296B"/>
<path d="M299.368 391.81C295.498 391.81 291.628 391.78 287.748 391.72C286.148 391.69 284.558 391.67 282.968 391.63C280.608 391.58 278.238 391.52 275.888 391.45C214.538 389.56 157.258 380.56 110.218 365.42C107.808 364.65 105.418 363.85 103.078 363.05C96.4578 360.77 90.1878 358.41 84.4078 356.03C77.1978 353.07 70.3078 349.9 63.9378 346.62C27.5478 327.82 8.55782 305.52 9.00782 282.13C9.65782 248.21 51.4378 217.97 123.638 199.18C124.278 199.01 124.918 198.85 125.578 198.69C126.168 198.53 126.818 198.37 127.468 198.21C135.788 196.13 144.488 194.2 153.338 192.49C160.278 191.14 167.608 189.87 175.138 188.72C181.798 187.7 188.478 186.79 195.008 186.02C195.338 185.98 195.718 185.93 196.108 185.89C199.248 185.51 202.558 185.14 205.838 184.81C207.868 184.6 209.908 184.39 211.968 184.2C218.278 183.61 224.658 183.1 230.938 182.68C231.628 182.64 232.308 182.59 232.978 182.55L235.648 182.39C236.738 182.32 237.848 182.26 238.968 182.2C244.178 181.91 249.618 181.67 255.128 181.49C255.798 181.46 256.488 181.44 257.188 181.42L259.228 181.36C261.808 181.29 264.388 181.23 266.988 181.19L271.168 181.13C278.018 181.06 284.958 181.07 291.788 181.17C309.798 181.44 327.868 182.36 345.508 183.89C355.688 184.78 365.818 185.88 375.618 187.18C393.228 189.49 410.368 192.46 426.558 196.02L428.668 196.49C429.288 196.63 429.908 196.77 430.538 196.91C437.038 198.39 443.508 199.99 449.738 201.67C450.238 201.8 450.748 201.94 451.258 202.08L453.678 202.75C528.618 223.72 571.218 255.79 570.548 290.75C570.548 291.22 570.528 291.73 570.498 292.22C570.138 298.68 568.268 305.09 564.938 311.27C552.988 333.51 522.638 352.98 477.168 367.55C474.828 368.3 472.438 369.04 470.018 369.77C422.118 384.06 361.918 391.81 299.398 391.81H299.368ZM279.778 188.3C276.918 188.3 274.068 188.32 271.228 188.35L267.108 188.41C264.528 188.46 261.978 188.51 259.438 188.58L257.388 188.64C256.718 188.66 256.048 188.68 255.388 188.7C249.908 188.88 244.518 189.12 239.358 189.41C238.258 189.47 237.168 189.53 236.098 189.6L233.448 189.76C232.788 189.81 232.088 189.85 231.398 189.89C225.208 190.3 218.898 190.8 212.648 191.39C210.618 191.58 208.598 191.78 206.588 191.99C203.338 192.32 200.078 192.68 196.878 193.07C196.488 193.11 196.208 193.15 195.928 193.18C189.428 193.95 182.828 194.85 176.248 195.86C168.818 197 161.568 198.25 154.728 199.58C146.008 201.27 137.428 203.17 129.228 205.22C128.598 205.38 127.988 205.53 127.378 205.69C126.708 205.86 126.098 206.01 125.488 206.17C57.6478 223.83 16.8178 252.27 16.2478 282.27C15.8478 302.72 33.4878 322.74 67.2578 340.19C73.4378 343.38 80.1378 346.46 87.1578 349.34C92.8078 351.67 98.9478 353.98 105.418 356.21C107.708 356.99 110.058 357.77 112.428 358.53C158.838 373.47 215.438 382.35 276.108 384.21C278.438 384.28 280.788 384.34 283.138 384.39C284.718 384.43 286.288 384.45 287.868 384.48C353.808 385.49 417.748 377.8 467.928 362.83C470.308 362.12 472.638 361.4 474.938 360.66C517.968 346.87 547.658 328.11 558.548 307.84C561.378 302.6 562.958 297.21 563.258 291.82C563.278 291.43 563.298 291.04 563.298 290.64C563.888 259.67 522.178 229.43 451.718 209.72L449.328 209.06C448.838 208.93 448.358 208.79 447.868 208.66C441.708 207 435.338 205.42 428.908 203.96C428.288 203.82 427.688 203.68 427.098 203.55L424.998 203.08C409.018 199.57 392.078 196.63 374.678 194.35C364.978 193.07 354.948 191.97 344.878 191.1C327.408 189.58 309.508 188.67 291.678 188.4C287.738 188.34 283.758 188.31 279.778 188.31V188.3Z" fill="white"/>
<path d="M72.5887 368.11L70.5087 379.26C70.2187 380.66 68.2487 380.71 67.8787 379.33L64.9287 368.19C63.4387 362.54 60.3887 357.34 56.2587 353.26C52.9887 350.03 49.0487 347.49 44.6687 345.99L43.5787 345.62L41.9687 345.07C40.7087 344.64 40.7687 342.83 42.0587 342.49H42.0787C42.5387 342.36 42.9987 342.23 43.4587 342.08C54.0287 338.71 61.9687 329.5 64.4387 318.61L64.6487 317.78L67.1687 307.72C67.4887 306.31 69.4987 306.32 69.7987 307.74L71.9087 317.66L72.0987 318.54C74.5287 329.89 82.9187 338.44 93.9887 341.56C94.4987 341.71 95.0187 341.84 95.5387 341.96C96.2187 342.12 96.5787 342.69 96.5787 343.27C96.5787 343.8 96.2887 344.34 95.6687 344.55L93.9287 345.15L93.0687 345.45C88.4687 347.05 84.3587 349.55 81.0287 352.79C76.8187 356.87 73.8187 362.11 72.5787 368.13L72.5887 368.11Z" fill="white"/>
<path d="M69.1883 381.11C68.2183 381.11 67.3983 380.48 67.1483 379.54L64.1983 368.39C62.7483 362.89 59.8283 357.85 55.7283 353.81C52.4783 350.59 48.5683 348.14 44.4283 346.72L41.7183 345.79C40.8183 345.48 40.2583 344.67 40.2883 343.72C40.3183 342.77 40.9383 341.99 41.8583 341.75C42.3383 341.63 42.7783 341.49 43.2183 341.35C53.3783 338.11 61.2183 329.33 63.6783 318.44L66.4083 307.53C66.6283 306.56 67.4583 305.9 68.4683 305.9H68.4883C69.5083 305.9 70.3283 306.58 70.5383 307.57L72.8283 318.37C75.1683 329.31 83.1483 337.7 94.1783 340.81C94.6783 340.95 95.1883 341.08 95.6883 341.2C96.6583 341.43 97.3183 342.25 97.3183 343.24C97.3183 344.16 96.7683 344.95 95.8983 345.25L93.3083 346.15C88.7883 347.72 84.8283 350.13 81.5483 353.31C77.3383 357.38 74.4883 362.55 73.3183 368.25L71.2383 379.39C71.0383 380.39 70.2283 381.06 69.2283 381.09C69.2083 381.09 69.1883 381.09 69.1683 381.09L69.1883 381.11ZM68.4883 307.43C68.3683 307.43 68.0083 307.46 67.9183 307.89L65.1883 318.8C62.6083 330.2 54.3783 339.4 43.7083 342.81C43.2483 342.96 42.7683 343.1 42.2883 343.22C41.8783 343.33 41.8383 343.67 41.8283 343.77C41.8283 343.87 41.8383 344.21 42.2183 344.34L44.9283 345.27C49.2783 346.76 53.3883 349.34 56.8083 352.72C61.0883 356.96 64.1583 362.24 65.6783 368L68.6283 379.14C68.7383 379.56 69.1183 379.58 69.2083 379.58C69.3183 379.58 69.6783 379.53 69.7683 379.11L71.8483 367.96C73.0883 361.95 76.0883 356.51 80.5183 352.22C83.9583 348.88 88.1083 346.35 92.8383 344.71L95.4283 343.81C95.7883 343.69 95.8183 343.38 95.8183 343.25C95.8183 343.17 95.7883 342.78 95.3683 342.68C94.8383 342.56 94.3083 342.42 93.7883 342.27C82.1983 339 73.8183 330.18 71.3583 318.67L69.0683 307.87C68.9783 307.44 68.6283 307.45 68.4983 307.41L68.4883 307.43Z" fill="#E4DEDE"/>
<path d="M509.74 241.32C517.731 241.32 524.21 234.841 524.21 226.85C524.21 218.858 517.731 212.38 509.74 212.38C501.748 212.38 495.27 218.858 495.27 226.85C495.27 234.841 501.748 241.32 509.74 241.32Z" fill="white"/>
<path d="M509.739 242.53H509.659C501.009 242.49 494.019 235.42 494.059 226.77C494.099 218.15 501.129 211.17 509.739 211.17H509.819C514.009 211.19 517.939 212.84 520.879 215.82C523.829 218.8 525.439 222.74 525.419 226.93C525.399 231.12 523.749 235.05 520.769 237.99C517.809 240.92 513.899 242.53 509.739 242.53ZM509.739 213.58C502.449 213.58 496.509 219.49 496.469 226.78C496.429 234.09 502.349 240.08 509.669 240.12H509.739C513.259 240.12 516.569 238.76 519.069 236.28C521.589 233.79 522.989 230.46 522.999 226.92C523.019 223.38 521.649 220.04 519.159 217.52C516.669 215 513.339 213.6 509.799 213.59H509.729L509.739 213.58Z" fill="#E4DEDE"/>
<path d="M397.407 110.38L372.667 107.13C367.747 106.48 363.047 111.25 362.187 117.77L345.657 243.48C344.797 250 348.107 255.82 353.017 256.46L377.757 259.72C382.677 260.36 387.377 255.6 388.227 249.08L404.757 123.37C405.617 116.86 402.307 111.04 397.387 110.39L397.407 110.38ZM384.047 112.08C388.277 112.1 388.357 118.66 384.127 118.64C379.897 118.62 379.817 112.06 384.047 112.08Z" fill="white"/>
<path d="M390.198 217.38L385.818 250.14C385.488 252.66 383.458 254.46 381.298 254.17L351.358 250.15C349.198 249.87 347.718 247.59 348.048 245.07L352.418 212.31C352.758 209.79 354.778 207.99 356.938 208.28L386.888 212.3C389.048 212.58 390.528 214.86 390.198 217.38Z" fill="#EE4A00"/>
<path d="M396.038 173.019L391.658 205.779C391.328 208.299 389.298 210.099 387.138 209.809L357.198 205.789C355.038 205.509 353.558 203.229 353.888 200.709L358.258 167.949C358.598 165.429 360.618 163.629 362.778 163.919L392.728 167.939C394.888 168.219 396.368 170.499 396.038 173.019Z" fill="#FF6D2A"/>
<path d="M401.868 128.649L397.488 161.409C397.158 163.929 395.128 165.729 392.968 165.439L363.028 161.429C360.868 161.139 359.388 158.859 359.718 156.339L364.088 123.579C364.428 121.059 366.448 119.259 368.608 119.549L398.558 123.569C400.718 123.849 402.198 126.129 401.868 128.649Z" fill="#FF9460"/>
<path d="M325.655 116.838L188.634 127.165C180.83 127.753 174.981 134.556 175.569 142.359L191.176 349.442C191.764 357.246 198.567 363.095 206.371 362.507L343.392 352.18C351.196 351.592 357.045 344.789 356.457 336.986L340.85 129.903C340.262 122.099 333.459 116.25 325.655 116.838Z" fill="#FF9460"/>
<path d="M207.968 364.69C197.908 364.69 189.378 356.91 188.608 346.72L173.458 145.46C173.068 140.3 174.728 135.29 178.118 131.35C181.508 127.41 186.218 125.02 191.368 124.63L322.568 114.75C333.228 113.95 342.598 121.98 343.398 132.66L358.548 333.92C359.348 344.6 351.318 353.95 340.638 354.75L209.438 364.63C208.948 364.67 208.448 364.69 207.968 364.69ZM324.038 119.38C323.668 119.38 323.298 119.39 322.918 119.42L191.718 129.3C187.808 129.59 184.238 131.41 181.658 134.41C179.078 137.41 177.818 141.21 178.118 145.12L193.268 346.38C193.558 350.29 195.378 353.86 198.378 356.44C201.378 359.02 205.188 360.28 209.088 359.98L340.288 350.1C348.398 349.49 354.498 342.39 353.888 334.28L338.738 133.02C338.158 125.28 331.668 119.37 324.038 119.37V119.38Z" fill="white"/>
<path d="M218.029 191.2C229.798 191.2 239.339 181.659 239.339 169.89C239.339 158.121 229.798 148.58 218.029 148.58C206.26 148.58 196.719 158.121 196.719 169.89C196.719 181.659 206.26 191.2 218.029 191.2Z" fill="#1A3C7D"/>
<path d="M233.279 165.81C233.059 165.61 232.719 165.64 232.529 165.86L229.209 169.7C228.049 168.04 226.509 166.7 224.749 165.76L226.879 161.23C226.999 160.96 226.879 160.65 226.629 160.52C226.359 160.4 226.049 160.51 225.919 160.77L223.789 165.29C222.009 164.51 220.039 164.12 218.039 164.2L217.619 158.88C217.599 158.59 217.339 158.37 217.049 158.39C216.759 158.41 216.539 158.67 216.569 158.96L216.989 164.28C214.979 164.52 213.069 165.22 211.409 166.29C211.399 166.21 211.369 166.13 211.319 166.07L208.409 161.8C208.249 161.56 207.919 161.5 207.669 161.66C207.429 161.82 207.369 162.15 207.529 162.4L210.439 166.67C210.489 166.74 210.549 166.8 210.629 166.84C208.979 168.08 207.619 169.71 206.729 171.6L203.099 168.54C202.879 168.35 202.539 168.38 202.349 168.6C202.159 168.82 202.189 169.16 202.419 169.35L206.619 172.89C209.149 176.91 213.849 179.25 218.669 178.86C223.589 178.47 227.929 175.3 229.729 170.79L229.789 170.64L233.329 166.54C233.519 166.32 233.499 165.98 233.269 165.79L233.279 165.81ZM221.959 171.1L221.709 171.21L221.589 171.25C220.949 171.51 220.389 171.9 219.929 172.4C219.369 173.01 218.969 173.79 218.839 174.65L218.629 176.25C218.609 176.44 218.309 176.48 218.259 176.28L217.749 174.71C217.489 173.93 217.009 173.2 216.389 172.65C215.899 172.22 215.319 171.88 214.689 171.71L214.519 171.65L214.289 171.59C214.099 171.55 214.089 171.27 214.279 171.21C214.359 171.2 214.409 171.17 214.469 171.15C215.959 170.58 217.029 169.2 217.289 167.64L217.319 167.53L217.589 166.07C217.629 165.87 217.919 165.85 217.959 166.04L218.339 167.44L218.369 167.56C218.809 169.17 220.069 170.32 221.669 170.68C221.759 170.7 221.829 170.71 221.899 170.73C221.989 170.75 222.049 170.82 222.059 170.91C222.059 170.99 222.019 171.07 221.939 171.1H221.959Z" fill="white"/>
<path d="M283.408 164.58H283.388L250.878 166.87C249.648 166.96 248.578 166.03 248.488 164.79C248.398 163.56 249.328 162.44 250.568 162.4L283.078 160.12C284.308 160.03 285.378 160.96 285.468 162.2C285.558 163.42 284.638 164.49 283.418 164.59L283.408 164.58Z" fill="#EE4A00"/>
<path d="M306.378 171.97H306.368L251.568 176.03C250.338 176.12 249.258 175.2 249.168 173.96C249.078 172.73 250.008 171.63 251.238 171.56L306.038 167.5C307.268 167.41 308.348 168.33 308.438 169.57C308.528 170.8 307.608 171.87 306.388 171.97H306.378Z" fill="#EE4A00"/>
<path d="M323.679 179.821L252.269 185.201C251.039 185.291 249.959 184.371 249.869 183.141C249.779 181.911 250.699 180.841 251.919 180.741L323.329 175.361C324.559 175.271 325.639 176.191 325.729 177.421C325.819 178.651 324.899 179.721 323.679 179.821Z" fill="#EE4A00"/>
<path d="M290.568 153.38H290.538L250.598 156.19C249.088 156.3 247.768 155.15 247.668 153.64C247.568 152.13 248.698 150.75 250.218 150.71L290.158 147.9C291.668 147.79 292.988 148.94 293.088 150.45C293.198 151.95 292.068 153.26 290.568 153.38Z" fill="#FF6D2A"/>
<path d="M220.478 281.371C219.538 281.371 218.738 280.641 218.678 279.681C218.608 278.681 219.358 277.821 220.358 277.751L316.738 271.141C317.728 271.061 318.598 271.821 318.668 272.821C318.738 273.821 317.988 274.681 316.988 274.751L220.608 281.361C220.608 281.361 220.528 281.361 220.478 281.361V281.371Z" fill="#FF6D2A"/>
<path d="M219.92 273.63C218.98 273.63 218.18 272.9 218.12 271.94C218.05 270.94 218.8 270.08 219.8 270.01L316.18 263.4C317.17 263.32 318.04 264.08 318.11 265.08C318.18 266.08 317.43 266.94 316.43 267.01L220.05 273.62C220.05 273.62 219.97 273.62 219.92 273.62V273.63Z" fill="#FF6D2A"/>
<path d="M219.349 265.88C218.409 265.88 217.609 265.15 217.549 264.19C217.479 263.19 218.229 262.33 219.229 262.26L315.609 255.65C316.589 255.57 317.469 256.33 317.539 257.33C317.609 258.33 316.859 259.19 315.859 259.26L219.479 265.87C219.479 265.87 219.399 265.87 219.349 265.87V265.88Z" fill="#FF6D2A"/>
<path d="M218.789 258.14C217.849 258.14 217.049 257.41 216.989 256.45C216.919 255.45 217.669 254.59 218.669 254.52L315.049 247.91C316.029 247.83 316.909 248.59 316.979 249.59C317.049 250.59 316.299 251.45 315.299 251.52L218.919 258.13C218.919 258.13 218.839 258.13 218.789 258.13V258.14Z" fill="#FF6D2A"/>
<path d="M218.16 249.54C217.22 249.54 216.42 248.81 216.36 247.85C216.29 246.85 217.04 245.99 218.04 245.92L314.42 239.31C315.4 239.23 316.28 239.99 316.35 240.99C316.42 241.99 315.67 242.85 314.67 242.92L218.29 249.53C218.29 249.53 218.21 249.53 218.16 249.53V249.54Z" fill="#FF6D2A"/>
<path d="M217.109 236.91C215.219 236.91 213.629 235.45 213.499 233.54C213.359 231.55 214.869 229.82 216.859 229.68L313.239 223.07C315.219 222.95 316.959 224.44 317.099 226.43C317.239 228.42 315.729 230.15 313.739 230.29L217.359 236.9C217.279 236.9 217.189 236.9 217.109 236.9V236.91Z" fill="#FF6D2A"/>
<path d="M248.69 319.22C247.74 319.22 246.95 318.48 246.89 317.53C246.83 316.53 247.58 315.67 248.58 315.61L294.32 312.69C295.32 312.64 296.18 313.38 296.24 314.38C296.3 315.38 295.55 316.24 294.55 316.3L248.81 319.22C248.81 319.22 248.73 319.22 248.69 319.22Z" fill="#FF6D2A"/>
<path d="M222.808 313.32C221.868 313.32 221.068 312.59 221.008 311.63C220.938 310.63 221.688 309.77 222.688 309.7L319.068 303.09C320.058 303.01 320.928 303.77 320.998 304.77C321.068 305.77 320.318 306.63 319.318 306.7L222.938 313.31C222.938 313.31 222.858 313.31 222.808 313.31V313.32Z" fill="#FF6D2A"/>
<path d="M222.24 305.581C221.3 305.581 220.5 304.851 220.44 303.891C220.37 302.891 221.12 302.031 222.12 301.961L318.5 295.351C319.49 295.271 320.36 296.031 320.43 297.031C320.5 298.031 319.75 298.891 318.75 298.961L222.37 305.571C222.37 305.571 222.29 305.571 222.24 305.571V305.581Z" fill="#FF6D2A"/>
<path d="M221.68 297.84C220.74 297.84 219.94 297.11 219.88 296.15C219.81 295.15 220.56 294.29 221.56 294.22L317.94 287.61C318.93 287.53 319.8 288.29 319.87 289.29C319.94 290.29 319.19 291.15 318.19 291.22L221.81 297.83C221.81 297.83 221.73 297.83 221.68 297.83V297.84Z" fill="#FF6D2A"/>
<path d="M221.049 289.241C220.109 289.241 219.309 288.511 219.249 287.551C219.179 286.551 219.929 285.691 220.929 285.621L317.309 279.011C318.299 278.931 319.169 279.691 319.239 280.691C319.309 281.691 318.559 282.551 317.559 282.621L221.179 289.231C221.179 289.231 221.099 289.231 221.049 289.231V289.241Z" fill="#FF6D2A"/>
<path d="M323.278 325.22L274.768 357.77C274.148 356.83 273.868 355.69 274.048 354.49L285.458 282.13C285.658 280.83 286.398 279.74 287.408 279.03L323.268 325.21L323.278 325.22Z" fill="#FF9460"/>
<path d="M274.768 359.58C274.648 359.58 274.528 359.57 274.408 359.54C273.938 359.44 273.518 359.17 273.258 358.76C272.368 357.41 272.018 355.79 272.268 354.21L283.678 281.85C283.958 280.1 284.918 278.57 286.388 277.55C287.178 277 288.258 277.16 288.848 277.93L324.708 324.11C325.018 324.51 325.148 325.01 325.068 325.51C324.988 326.01 324.708 326.45 324.288 326.72L275.778 359.27C275.478 359.47 275.128 359.58 274.768 359.58ZM287.368 281.93C287.318 282.09 287.268 282.25 287.248 282.42L275.838 354.78C275.838 354.78 275.828 354.85 275.818 354.89L320.648 324.81L287.368 281.94V281.93Z" fill="white"/>
<path d="M409.75 378.491C408.73 379.601 407.2 380.191 405.61 379.941L277.92 359.801C276.59 359.591 275.46 358.811 274.77 357.771L323.28 325.221L339.05 345.521C341.54 348.731 346.08 349.471 349.48 347.241L371.67 332.581L409.74 378.491H409.75Z" fill="#EE4A00"/>
<path d="M406.329 381.8C405.999 381.8 405.659 381.77 405.319 381.72L277.629 361.58C275.839 361.3 274.249 360.27 273.249 358.75C272.699 357.92 272.929 356.81 273.749 356.25L322.259 323.7C323.049 323.17 324.109 323.34 324.699 324.09L340.469 344.39C342.359 346.84 345.879 347.41 348.469 345.71L370.659 331.05C371.429 330.54 372.459 330.7 373.049 331.4L411.119 377.31C411.699 378.01 411.669 379.02 411.059 379.69C409.829 381.04 408.109 381.78 406.319 381.78L406.329 381.8ZM277.789 357.91C277.919 357.95 278.059 357.98 278.199 358.01L405.889 378.15C406.289 378.21 406.689 378.19 407.059 378.09L371.309 334.99L350.469 348.75C346.299 351.49 340.659 350.56 337.619 346.63L322.879 327.66L277.789 357.92V357.91Z" fill="white"/>
<path d="M422.328 303.72L410.918 376.08C410.768 377.02 410.348 377.85 409.748 378.5L371.678 332.59L421.188 299.88C422.098 300.89 422.568 302.28 422.338 303.72H422.328Z" fill="#FF9460"/>
<path d="M409.749 380.3C409.749 380.3 409.719 380.3 409.699 380.3C409.179 380.29 408.689 380.05 408.359 379.65L370.289 333.74C369.959 333.34 369.819 332.83 369.889 332.32C369.969 331.81 370.249 331.36 370.679 331.07L420.189 298.36C420.939 297.87 421.929 297.99 422.529 298.66C423.849 300.12 424.429 302.07 424.129 304L412.719 376.36C412.519 377.62 411.959 378.79 411.089 379.73C410.749 380.1 410.269 380.31 409.759 380.31L409.749 380.3ZM374.359 332.98L409.259 375.06L420.549 303.44C420.599 303.11 420.589 302.79 420.529 302.47L374.349 332.98H374.359Z" fill="white"/>
<path d="M421.178 299.87L371.668 332.58L349.478 347.24C346.088 349.48 341.538 348.74 339.048 345.52L323.278 325.22L287.418 279.04C288.368 278.38 289.548 278.08 290.778 278.28L418.468 298.42C419.548 298.59 420.488 299.13 421.178 299.89V299.87Z" fill="#FF6D2A"/>
<path d="M345.208 350.32C342.328 350.32 339.488 349.04 337.618 346.62L285.988 280.14C285.688 279.75 285.558 279.25 285.628 278.76C285.708 278.27 285.978 277.83 286.388 277.55C287.748 276.6 289.408 276.22 291.058 276.48L418.748 296.62C420.188 296.85 421.528 297.57 422.518 298.66C422.878 299.05 423.038 299.58 422.978 300.1C422.918 300.62 422.618 301.09 422.178 301.39L350.478 348.76C348.868 349.82 347.028 350.33 345.208 350.33V350.32ZM290.508 280.06L340.478 344.41C342.368 346.86 345.888 347.43 348.478 345.73L417.548 300.1L290.498 280.07L290.508 280.06Z" fill="white"/>
<path d="M442.79 265.468L372.01 244.677C369.97 244.078 367.831 245.246 367.231 247.286L355.493 287.247C354.893 289.287 356.061 291.427 358.102 292.026L428.881 312.818C430.921 313.417 433.061 312.249 433.66 310.209L445.399 270.247C445.998 268.207 444.83 266.067 442.79 265.468Z" fill="#FF6D2A"/>
<path d="M429.438 314.57C428.827 314.57 428.217 314.48 427.617 314.31L358.367 293.97C354.957 292.97 352.998 289.37 353.998 285.96L365.287 247.52C366.287 244.11 369.887 242.14 373.297 243.15L442.547 263.49C444.197 263.97 445.557 265.08 446.387 266.59C447.217 268.11 447.407 269.85 446.917 271.5L435.627 309.93C435.147 311.58 434.037 312.94 432.527 313.77C431.557 314.3 430.508 314.57 429.438 314.57ZM428.637 310.83C429.357 311.04 430.127 310.96 430.787 310.59C431.457 310.23 431.937 309.63 432.147 308.91L443.438 270.48C443.647 269.76 443.567 268.99 443.197 268.33C442.837 267.66 442.237 267.18 441.517 266.97L372.267 246.63C370.767 246.19 369.188 247.05 368.748 248.55L357.457 286.99C357.017 288.49 357.877 290.07 359.377 290.51L428.627 310.85L428.637 310.83Z" fill="white"/>
<path d="M431.827 298.29H431.817L416.297 293.59C415.707 293.41 415.377 292.79 415.557 292.2C415.737 291.61 416.367 291.26 416.947 291.46L432.467 296.16C433.057 296.34 433.387 296.96 433.207 297.55C433.027 298.13 432.417 298.47 431.827 298.3V298.29Z" fill="#05183C"/>
<path d="M429.788 305.23H429.778L414.258 300.53C413.668 300.35 413.338 299.73 413.518 299.14C413.698 298.55 414.328 298.2 414.908 298.4L430.428 303.1C431.018 303.28 431.348 303.9 431.168 304.49C430.988 305.07 430.378 305.41 429.788 305.24V305.23Z" fill="#05183C"/>
<path d="M400.458 292.509C408.068 292.509 414.238 286.34 414.238 278.729C414.238 271.119 408.068 264.949 400.458 264.949C392.847 264.949 386.678 271.119 386.678 278.729C386.678 286.34 392.847 292.509 400.458 292.509Z" fill="#06296B"/>
<path d="M410.328 280.58C410.238 280.41 410.028 280.36 409.858 280.45L407.008 282.09C406.658 280.83 405.998 279.68 405.128 278.73L407.398 276.42C407.528 276.28 407.528 276.07 407.398 275.93C407.258 275.8 407.048 275.8 406.908 275.93L404.648 278.23C403.728 277.37 402.608 276.71 401.378 276.33L402.258 272.99C402.308 272.81 402.198 272.62 402.008 272.57C401.818 272.52 401.638 272.63 401.588 272.82L400.708 276.16C399.428 275.87 398.108 275.9 396.878 276.2C396.878 276.15 396.888 276.1 396.878 276.04L396.008 272.81C395.958 272.63 395.768 272.52 395.588 272.57C395.408 272.62 395.298 272.81 395.348 272.99L396.208 276.22C396.218 276.28 396.248 276.32 396.288 276.36C395.018 276.76 393.838 277.47 392.888 278.43L391.328 275.79C391.228 275.62 391.018 275.57 390.858 275.67C390.698 275.77 390.638 275.98 390.738 276.14L392.538 279.2C393.228 282.19 395.588 284.63 398.618 285.42C401.708 286.23 405.028 285.23 407.098 282.86L407.168 282.78L410.208 281.03C410.368 280.94 410.428 280.73 410.338 280.56L410.328 280.58ZM402.288 281.39H402.118H402.038C401.588 281.41 401.168 281.53 400.778 281.74C400.308 281.99 399.898 282.38 399.628 282.88L399.158 283.81C399.098 283.92 398.918 283.89 398.928 283.75L398.958 282.68C398.958 282.15 398.828 281.6 398.568 281.13C398.358 280.76 398.078 280.43 397.728 280.19L397.638 280.12L397.508 280.04C397.408 279.97 397.458 279.8 397.578 279.81C397.628 279.81 397.668 279.81 397.708 279.81C398.738 279.78 399.688 279.17 400.178 278.27L400.218 278.21L400.698 277.38C400.768 277.26 400.948 277.32 400.928 277.44L400.858 278.38V278.46C400.768 279.53 401.298 280.51 402.198 281.07C402.248 281.1 402.288 281.12 402.328 281.15C402.378 281.18 402.398 281.24 402.388 281.29C402.378 281.34 402.328 281.38 402.278 281.38L402.288 281.39Z" fill="white"/>
</svg>
