<svg width="580" height="400" viewBox="0 0 580 400" fill="none" xmlns="http://www.w3.org/2000/svg">
<path d="M269.438 342.28L246.508 384.52H338.228L314.088 342.28H269.438Z" fill="#EE4A00"/>
<path d="M366.579 383.31H218.149C216.481 383.31 215.129 384.662 215.129 386.33V395.98C215.129 397.647 216.481 399 218.149 399H366.579C368.247 399 369.599 397.647 369.599 395.98V386.33C369.599 384.662 368.247 383.31 366.579 383.31Z" fill="#FF6D2A"/>
<path d="M299.518 389.06C295.648 389.06 291.778 389.03 287.898 388.97C286.298 388.94 284.698 388.92 283.118 388.88C280.758 388.83 278.388 388.77 276.028 388.7C214.648 386.81 157.328 377.8 110.268 362.66C107.858 361.89 105.468 361.09 103.118 360.29C96.4982 358.01 90.2082 355.64 84.4382 353.26C77.2282 350.3 70.3382 347.13 63.9582 343.84C27.5482 325.03 8.54816 302.72 9.00816 279.31C9.65816 245.37 51.4582 215.12 123.698 196.32C124.338 196.15 124.978 195.99 125.628 195.83C126.228 195.67 126.868 195.51 127.528 195.35C135.868 193.26 144.578 191.33 153.418 189.62C160.358 188.27 167.698 187 175.228 185.84C181.888 184.82 188.568 183.91 195.108 183.13C195.448 183.08 195.828 183.04 196.208 183C199.318 182.62 202.628 182.25 205.948 181.92C207.978 181.71 210.018 181.5 212.078 181.31C218.368 180.72 224.758 180.21 231.058 179.79C231.748 179.75 232.428 179.7 233.098 179.66L235.758 179.5C236.858 179.43 237.978 179.37 239.088 179.31C244.278 179.02 249.728 178.78 255.258 178.6C255.928 178.57 256.618 178.55 257.318 178.53L259.358 178.47C261.938 178.4 264.518 178.34 267.118 178.3L271.308 178.24C278.178 178.17 285.128 178.18 291.938 178.28C309.958 178.55 328.048 179.47 345.688 181.01C355.868 181.9 366.008 183 375.818 184.3C393.438 186.61 410.588 189.58 426.788 193.15L428.768 193.59C429.428 193.74 430.098 193.89 430.768 194.04C437.278 195.52 443.748 197.13 449.978 198.81C450.468 198.94 450.968 199.08 451.478 199.22L453.918 199.9C528.898 220.88 571.518 252.97 570.848 287.95C570.848 288.42 570.828 288.93 570.798 289.42C570.438 295.88 568.568 302.3 565.228 308.48C553.268 330.74 522.898 350.21 477.408 364.79C475.068 365.54 472.678 366.28 470.248 367.01C422.318 381.31 362.088 389.06 299.528 389.06H299.518ZM279.938 185.44C277.078 185.44 274.218 185.45 271.358 185.49L267.228 185.55C264.648 185.6 262.098 185.65 259.558 185.72L257.508 185.78C256.828 185.8 256.168 185.82 255.498 185.84C249.998 186.02 244.608 186.26 239.458 186.54C238.358 186.6 237.268 186.66 236.188 186.73L233.538 186.89C232.878 186.94 232.178 186.98 231.488 187.02C225.278 187.43 218.958 187.94 212.728 188.52C210.698 188.71 208.678 188.91 206.668 189.12C203.388 189.45 200.128 189.82 196.958 190.2C196.568 190.24 196.288 190.28 195.998 190.31C189.498 191.08 182.888 191.98 176.308 192.99C168.868 194.13 161.628 195.39 154.778 196.72C146.068 198.41 137.488 200.31 129.268 202.36C128.638 202.52 128.028 202.67 127.408 202.83C126.738 203 126.128 203.15 125.508 203.31C57.6682 220.99 16.8182 249.45 16.2482 279.46C15.8482 299.92 33.4982 319.95 67.2882 337.41C73.4782 340.6 80.1782 343.68 87.1982 346.57C92.8482 348.9 98.9882 351.21 105.468 353.44C107.758 354.22 110.108 355.01 112.478 355.77C158.908 370.71 215.538 379.6 276.248 381.47C278.578 381.54 280.928 381.6 283.288 381.65C284.868 381.69 286.438 381.71 288.018 381.74C353.998 382.75 417.968 375.06 468.168 360.08C470.548 359.37 472.888 358.65 475.188 357.91C518.238 344.11 547.948 325.34 558.848 305.06C561.678 299.82 563.258 294.42 563.558 289.03C563.578 288.64 563.598 288.25 563.598 287.85C564.198 256.86 522.458 226.6 451.958 206.88L449.538 206.21C449.058 206.08 448.578 205.95 448.098 205.82C441.938 204.16 435.568 202.58 429.138 201.11C428.478 200.96 427.838 200.81 427.188 200.67L425.218 200.23C409.228 196.71 392.288 193.77 374.868 191.49C365.158 190.21 355.128 189.11 345.058 188.24C327.588 186.72 309.678 185.81 291.828 185.54C287.898 185.48 283.928 185.45 279.948 185.45L279.938 185.44Z" fill="white"/>
<path d="M72.6278 365.35L70.5478 376.51C70.2578 377.91 68.2878 377.96 67.9178 376.58L64.9678 365.43C63.4778 359.78 60.4278 354.57 56.2978 350.49C53.0278 347.25 49.0878 344.72 44.7078 343.22L43.6178 342.84L42.0078 342.29C40.7478 341.86 40.8078 340.05 42.0978 339.71H42.1178C42.5778 339.58 43.0378 339.45 43.4978 339.3C54.0778 335.92 62.0178 326.72 64.4878 315.82L64.6978 314.99L67.2178 304.92C67.5378 303.51 69.5478 303.52 69.8578 304.94L71.9678 314.86L72.1578 315.74C74.5878 327.1 82.9878 335.65 94.0578 338.77C94.5678 338.92 95.0878 339.05 95.6078 339.17C96.2878 339.33 96.6478 339.9 96.6478 340.48C96.6478 341.01 96.3578 341.55 95.7378 341.77L93.9978 342.37L93.1378 342.67C88.5278 344.27 84.4278 346.77 81.0878 350.01C76.8678 354.09 73.8778 359.33 72.6278 365.36V365.35Z" fill="white"/>
<path d="M69.2176 378.351C68.2476 378.351 67.4276 377.721 67.1776 376.771L64.2276 365.621C62.7776 360.121 59.8476 355.081 55.7576 351.031C52.4976 347.811 48.5976 345.361 44.4576 343.941L41.7476 343.011C40.8476 342.701 40.2876 341.891 40.3176 340.931C40.3476 339.971 40.9676 339.201 41.8876 338.961C42.3676 338.841 42.8076 338.711 43.2476 338.561C53.4176 335.311 61.2576 326.531 63.7276 315.641L66.4576 304.731C66.6776 303.751 67.5276 303.101 68.5276 303.101C69.5476 303.101 70.3676 303.781 70.5776 304.771L72.8776 315.581C75.2176 326.531 83.2076 334.921 94.2376 338.031C94.7376 338.171 95.2475 338.301 95.7575 338.421C96.7275 338.651 97.3876 339.471 97.3976 340.461C97.3976 341.381 96.8476 342.171 95.9776 342.481L93.3876 343.381C88.8676 344.951 84.9075 347.361 81.6175 350.551C77.4075 354.631 74.5576 359.791 73.3776 365.501L71.2976 376.651C71.0976 377.651 70.2876 378.321 69.2876 378.351C69.2676 378.351 69.2476 378.351 69.2276 378.351H69.2176ZM68.5176 304.631C68.4076 304.631 68.0376 304.661 67.9476 305.091L65.2176 316.001C62.6376 327.401 54.3976 336.611 43.7176 340.021C43.2576 340.171 42.7776 340.311 42.2976 340.431C41.8876 340.541 41.8476 340.881 41.8376 340.981C41.8376 341.081 41.8476 341.421 42.2276 341.551L44.9376 342.481C49.2976 343.971 53.3976 346.551 56.8176 349.931C61.1076 354.171 64.1676 359.461 65.6876 365.221L68.6376 376.371C68.7476 376.791 69.1276 376.811 69.2176 376.811C69.3276 376.811 69.6876 376.761 69.7776 376.341L71.8576 365.181C73.0976 359.171 76.0976 353.731 80.5276 349.441C83.9776 346.101 88.1276 343.571 92.8576 341.931L95.4476 341.031C95.8076 340.911 95.8376 340.601 95.8376 340.471C95.8376 340.391 95.8076 340.001 95.3876 339.901C94.8576 339.781 94.3276 339.641 93.7976 339.491C82.2076 336.221 73.8176 327.401 71.3576 315.881L69.0576 305.071C68.9676 304.641 68.6276 304.601 68.4876 304.611L68.5176 304.631Z" fill="#E4DEDE"/>
<path d="M510.009 238.49C518.006 238.49 524.489 232.007 524.489 224.01C524.489 216.013 518.006 209.53 510.009 209.53C502.012 209.53 495.529 216.013 495.529 224.01C495.529 232.007 502.012 238.49 510.009 238.49Z" fill="white"/>
<path d="M510.009 239.7H509.929C501.279 239.66 494.279 232.58 494.319 223.93C494.359 215.31 501.389 208.32 510.009 208.32H510.089C514.279 208.34 518.209 209.99 521.159 212.97C524.109 215.95 525.719 219.9 525.699 224.09C525.679 228.28 524.029 232.21 521.049 235.16C518.089 238.09 514.179 239.7 510.019 239.7H510.009ZM510.009 210.74C502.719 210.74 496.769 216.65 496.729 223.95C496.689 231.27 502.619 237.26 509.939 237.29H510.009C513.529 237.29 516.839 235.93 519.349 233.45C521.869 230.96 523.269 227.63 523.289 224.08C523.309 220.53 521.939 217.19 519.449 214.67C516.959 212.15 513.629 210.75 510.079 210.73H510.009V210.74Z" fill="#E4DEDE"/>
<path d="M423.308 168.031V326.591H161.428V168.031C161.428 154.961 170.338 144.351 181.338 144.351H403.398C414.388 144.351 423.308 154.951 423.308 168.031Z" fill="#EE4A00"/>
<path d="M425.728 329H159.018V168.03C159.018 153.64 169.038 141.94 181.348 141.94H403.408C415.718 141.94 425.738 153.64 425.738 168.03V329H425.728ZM163.848 324.17H420.898V168.03C420.898 156.31 413.048 146.77 403.398 146.77H181.338C171.688 146.77 163.838 156.31 163.838 168.03V324.18L163.848 324.17Z" fill="white"/>
<path d="M423.308 322.97V329.6C423.308 337.39 414.388 343.49 403.398 343.49H181.338C170.328 343.49 161.428 337.39 161.428 329.6V322.97H423.308Z" fill="#FF6D2A"/>
<path d="M403.398 345.9H181.338C168.818 345.9 159.008 338.74 159.008 329.59V320.55H425.728V329.59C425.728 338.73 415.918 345.9 403.398 345.9ZM163.838 325.38V329.59C163.838 335.92 171.688 341.07 181.338 341.07H403.398C413.048 341.07 420.898 335.92 420.898 329.59V325.38H163.838Z" fill="white"/>
<path d="M273.29 322.46V255.17C273.29 254.12 272.44 253.28 271.4 253.28H248.39C247.34 253.28 246.5 254.13 246.5 255.17V322.46H273.3H273.29Z" fill="#06296B"/>
<path d="M274.78 323.95H245.01V255.17C245.01 253.31 246.53 251.79 248.39 251.79H271.4C273.27 251.79 274.78 253.31 274.78 255.17V323.95ZM247.98 320.97H271.8V255.17C271.8 254.95 271.62 254.77 271.4 254.77H248.39C248.17 254.77 247.99 254.95 247.99 255.17V320.97H247.98Z" fill="white"/>
<path d="M255.268 230.54H265.188L273.288 253.71H246.488L255.268 230.54Z" fill="white"/>
<path d="M273.289 255.2H246.489C245.999 255.2 245.539 254.96 245.259 254.56C244.979 254.16 244.919 253.64 245.089 253.19L253.869 230.02C254.089 229.44 254.639 229.06 255.259 229.06H265.169C265.799 229.06 266.369 229.46 266.579 230.06L274.679 253.23C274.839 253.68 274.769 254.19 274.489 254.58C274.209 254.97 273.759 255.21 273.279 255.21L273.289 255.2ZM248.649 252.22H271.189L264.129 232.02H256.299L248.649 252.22Z" fill="white"/>
<path d="M266.06 231.4C265.78 231.79 265.33 232.03 264.85 232.03H254.94C254.46 232.03 253.99 231.79 253.72 231.39C253.44 230.99 253.38 230.47 253.55 230.02L257.17 220.44C257.67 219.12 258.76 218.3 260.04 218.3H260.08C261.35 218.31 262.48 219.19 262.95 220.53L266.27 230.04C266.43 230.5 266.36 231 266.08 231.39L266.06 231.4Z" fill="#06296B"/>
<path d="M338.108 322.46V245.29H328.018L328.008 322.46H338.108Z" fill="#06296B"/>
<path d="M339.598 323.95H326.518V243.8H339.588V323.94L339.598 323.95ZM329.498 320.97H336.628V246.78H329.518V320.97H329.498Z" fill="white"/>
<path d="M332.228 210.41C332.228 210.41 332.378 228.02 324.818 235.58C316.628 243.77 326.728 254.95 326.728 254.95H338.348C338.348 254.95 348.258 251.93 347.488 240.91C345.658 214.73 332.218 210.41 332.218 210.41H332.228Z" fill="white"/>
<path d="M310.579 322.46L311.089 253.25L282.619 253.26L282.799 322.46H310.579Z" fill="#FF6D2A"/>
<path d="M310.579 323.95H282.799C281.979 323.95 281.309 323.29 281.309 322.47L281.129 253.27C281.129 252.88 281.279 252.5 281.559 252.22C281.839 251.94 282.219 251.78 282.609 251.78H311.079C311.479 251.78 311.859 251.93 312.139 252.21C312.419 252.49 312.569 252.87 312.569 253.27L312.059 322.48C312.059 323.3 311.389 323.96 310.569 323.96L310.579 323.95ZM284.279 320.97H309.099L309.589 254.74H284.109L284.279 320.97Z" fill="white"/>
<path d="M354.108 168.451L239.808 168.411C238.988 168.411 238.318 167.741 238.318 166.921C238.318 166.101 238.988 165.431 239.808 165.431L354.108 165.471C354.928 165.471 355.598 166.141 355.598 166.961C355.598 167.781 354.928 168.451 354.108 168.451Z" fill="white"/>
<path d="M356.248 220.6C355.528 220.6 354.898 220.07 354.778 219.34C350.218 190.02 325.988 168.72 297.178 168.71H297.158C268.628 168.71 244.288 189.74 239.288 218.73C239.148 219.54 238.378 220.09 237.568 219.94C236.758 219.8 236.218 219.03 236.358 218.22C241.608 187.8 267.178 165.73 297.158 165.73H297.178C327.468 165.74 352.928 188.09 357.718 218.88C357.848 219.69 357.288 220.45 356.478 220.58C356.398 220.59 356.328 220.6 356.248 220.6Z" fill="white"/>
<path d="M314.689 224.23L311.009 253.7H282.539L278.639 224.46C278.389 222.24 278.709 220 279.579 217.93L295.029 181.03C295.119 180.82 295.439 180.88 295.439 181.1L295.299 219.21C293.159 219.88 291.609 221.81 291.599 224.07C291.599 226.34 293.139 228.27 295.269 228.94C295.799 229.11 296.369 229.21 296.959 229.21C297.619 229.21 298.259 229.1 298.849 228.88C300.889 228.15 302.349 226.28 302.359 224.08C302.359 221.88 300.919 220.01 298.889 219.28L299.029 181.15C299.029 180.93 299.359 180.87 299.439 181.08L313.869 218.15C314.619 220.09 314.909 222.16 314.699 224.22L314.689 224.23Z" fill="#FF6D2A"/>
<path d="M282.539 255.2C281.789 255.2 281.159 254.65 281.059 253.91L277.159 224.67C276.879 222.18 277.239 219.67 278.199 217.37L293.649 180.47C293.959 179.73 294.769 179.31 295.559 179.46C296.349 179.62 296.919 180.32 296.919 181.12L296.779 219.24C296.779 219.89 296.349 220.46 295.729 220.66C294.149 221.15 293.079 222.54 293.069 224.11C293.069 225.68 294.119 227.06 295.689 227.55C296.099 227.68 296.509 227.75 296.939 227.75C297.429 227.77 297.889 227.67 298.309 227.51C299.829 226.97 300.839 225.6 300.849 224.1C300.849 222.6 299.859 221.24 298.369 220.71C297.779 220.5 297.379 219.93 297.379 219.3L297.519 181.17C297.519 180.36 298.099 179.66 298.899 179.51C299.709 179.37 300.499 179.8 300.799 180.56L315.229 217.63C316.059 219.77 316.379 222.11 316.149 224.39C316.149 224.4 316.149 224.41 316.149 224.42L312.469 253.89C312.379 254.63 311.739 255.19 310.989 255.19H282.519L282.539 255.2ZM293.929 187.54L280.959 218.52C280.189 220.35 279.899 222.35 280.119 224.31L283.839 252.23H309.689L313.209 224.08C313.389 222.27 313.139 220.42 312.479 218.71L300.489 187.91L300.379 218.34C302.499 219.5 303.859 221.7 303.849 224.1C303.839 226.85 302.029 229.34 299.359 230.29C298.629 230.57 297.819 230.71 296.969 230.71C296.239 230.71 295.509 230.6 294.819 230.37C291.999 229.49 290.109 226.96 290.119 224.08C290.119 221.57 291.579 219.34 293.829 218.22L293.939 187.53L293.929 187.54Z" fill="white"/>
<path d="M240.012 172.897C243.478 172.781 246.198 170.006 246.087 166.699C245.975 163.393 243.075 160.807 239.608 160.924C236.142 161.041 233.422 163.816 233.534 167.122C233.645 170.429 236.546 173.014 240.012 172.897Z" fill="#06296B"/>
<path d="M354.309 172.938C357.775 172.822 360.495 170.047 360.384 166.74C360.272 163.434 357.372 160.848 353.905 160.965C350.439 161.082 347.719 163.857 347.831 167.163C347.942 170.47 350.842 173.055 354.309 172.938Z" fill="#06296B"/>
<path d="M303.439 172.93L290.889 172.92L290.929 160.95L303.479 160.96L303.439 172.93Z" fill="#06296B"/>
<path d="M245.878 222.361H233.328L233.378 210.391H245.928L245.878 222.361Z" fill="#06296B"/>
<path d="M360.179 222.401H347.629L347.669 210.431H360.219L360.179 222.401Z" fill="#06296B"/>
<path d="M236.73 232.46H211.27V322.46H236.73V232.46Z" fill="#1A3C7D"/>
<path d="M237.939 323.67H210.059V231.25H237.939V323.67ZM212.479 321.26H235.529V233.66H212.479V321.25V321.26Z" fill="white"/>
<path d="M236.729 252.05H221.579C220.909 252.05 220.369 251.51 220.369 250.84C220.369 250.17 220.909 249.63 221.579 249.63H236.729C237.399 249.63 237.939 250.17 237.939 250.84C237.939 251.51 237.399 252.05 236.729 252.05Z" fill="white"/>
<path d="M236.729 276.93H221.579C220.909 276.93 220.369 276.39 220.369 275.72C220.369 275.05 220.909 274.51 221.579 274.51H236.729C237.399 274.51 237.939 275.05 237.939 275.72C237.939 276.39 237.399 276.93 236.729 276.93Z" fill="white"/>
<path d="M236.729 301.81H221.579C220.909 301.81 220.369 301.27 220.369 300.6C220.369 299.93 220.909 299.39 221.579 299.39H236.729C237.399 299.39 237.939 299.93 237.939 300.6C237.939 301.27 237.399 301.81 236.729 301.81Z" fill="white"/>
<path d="M236.728 265.03H227.628C226.958 265.03 226.418 264.49 226.418 263.82C226.418 263.15 226.958 262.61 227.628 262.61H236.728C237.398 262.61 237.938 263.15 237.938 263.82C237.938 264.49 237.398 265.03 236.728 265.03Z" fill="white"/>
<path d="M236.728 289.91H227.628C226.958 289.91 226.418 289.37 226.418 288.7C226.418 288.03 226.958 287.49 227.628 287.49H236.728C237.398 287.49 237.938 288.03 237.938 288.7C237.938 289.37 237.398 289.91 236.728 289.91Z" fill="white"/>
<path d="M236.728 313.71H227.628C226.958 313.71 226.418 313.17 226.418 312.5C226.418 311.83 226.958 311.29 227.628 311.29H236.728C237.398 311.29 237.938 311.83 237.938 312.5C237.938 313.17 237.398 313.71 236.728 313.71Z" fill="white"/>
<path d="M380.708 321.76V242.62C380.708 238.27 378.078 234.73 374.838 234.73H358.548C355.308 234.73 352.678 238.27 352.678 242.62V321.76H380.708ZM366.338 237C369.078 236.65 369.688 240.95 366.948 241.3C364.208 241.65 363.598 237.35 366.338 237Z" fill="white"/>
<path d="M379.237 320.56L379.277 305.45C379.277 303.87 378.127 302.59 376.707 302.59L356.987 302.54C355.567 302.54 354.407 303.81 354.407 305.39L354.377 320.57H379.247L379.237 320.56Z" fill="#05183C"/>
<path d="M379.277 276.001L379.227 297.891C379.227 299.571 378.067 300.931 376.647 300.931L356.927 300.871C355.507 300.871 354.347 299.501 354.357 297.821L354.397 275.931C354.397 274.251 355.557 272.891 356.977 272.891L376.697 272.951C378.117 272.951 379.267 274.321 379.267 276.001H379.277Z" fill="#06296B"/>
<path d="M379.277 246.35L379.227 268.24C379.227 269.92 378.067 271.28 376.647 271.28L356.927 271.23C355.507 271.23 354.347 269.85 354.357 268.17L354.397 246.28C354.397 244.6 355.557 243.24 356.977 243.24L376.697 243.3C378.117 243.3 379.267 244.67 379.267 246.35H379.277Z" fill="#1A3C7D"/>
</svg>
