<svg width="580" height="400" viewBox="0 0 580 400" fill="none" xmlns="http://www.w3.org/2000/svg">
<path d="M361.068 97.6456L186.566 101.758C178.743 101.942 172.55 108.434 172.734 116.258L178.575 364.119C178.76 371.943 185.252 378.136 193.075 377.951L367.577 373.839C375.401 373.655 381.593 367.163 381.409 359.339L375.568 111.478C375.384 103.654 368.892 97.4612 361.068 97.6456Z" fill="#FF9460"/>
<path d="M195.587 380C185.207 380 176.647 371.68 176.397 361.26L170.677 119.21C170.427 108.63 178.837 99.8096 189.417 99.5596L358.107 95.5796C363.237 95.4596 368.077 97.3496 371.797 100.9C375.517 104.45 377.637 109.22 377.757 114.32L383.477 356.37C383.727 366.95 375.317 375.76 364.737 376.02L196.037 380C195.887 380 195.727 380 195.577 380H195.587ZM358.577 99.8196C358.457 99.8196 358.337 99.8196 358.217 99.8196L189.517 103.8C181.277 103.99 174.727 110.86 174.927 119.1L180.647 361.15C180.837 369.27 187.507 375.75 195.587 375.75C195.707 375.75 195.827 375.75 195.947 375.75L364.637 371.77C372.877 371.57 379.427 364.71 379.227 356.47L373.507 114.42C373.417 110.45 371.767 106.74 368.867 103.97C366.057 101.29 362.407 99.8196 358.567 99.8196H358.577Z" fill="white"/>
<path d="M300.088 397.72C296.228 397.72 292.358 397.69 288.478 397.63C286.878 397.6 285.288 397.58 283.698 397.54C281.348 397.49 278.978 397.43 276.618 397.36C215.328 395.47 158.098 386.48 111.108 371.36C108.698 370.59 106.318 369.79 103.968 368.99C97.3682 366.72 91.0982 364.36 85.3182 361.97C78.1182 359.01 71.2382 355.85 64.8682 352.56C28.5282 333.78 9.54817 311.51 10.0082 288.14C10.6582 254.25 52.3982 224.04 124.528 205.27C125.158 205.1 125.808 204.94 126.458 204.78C127.048 204.62 127.698 204.46 128.348 204.3C136.658 202.22 145.358 200.29 154.198 198.58C161.118 197.24 168.448 195.97 175.978 194.81C182.608 193.8 189.288 192.89 195.828 192.11C196.188 192.06 196.558 192.01 196.928 191.98C200.068 191.6 203.368 191.23 206.648 190.9C208.668 190.69 210.718 190.48 212.768 190.29C219.068 189.7 225.448 189.19 231.718 188.77C232.408 188.73 233.088 188.68 233.758 188.64L236.418 188.48C237.498 188.41 238.618 188.35 239.738 188.29C244.948 188 250.388 187.76 255.878 187.58C256.548 187.55 257.238 187.53 257.928 187.51L260.118 187.45H260.128C262.638 187.38 265.168 187.33 267.708 187.28L271.888 187.22C278.748 187.15 285.688 187.16 292.488 187.26C310.478 187.53 328.538 188.45 346.158 189.98C356.328 190.86 366.448 191.97 376.238 193.26C393.828 195.56 410.958 198.54 427.138 202.09L429.108 202.53C429.778 202.68 430.438 202.83 431.108 202.98C437.608 204.46 444.068 206.06 450.288 207.74C450.808 207.88 451.338 208.03 451.878 208.17L454.218 208.82C529.088 229.77 571.638 261.81 570.968 296.74C570.968 297.21 570.948 297.72 570.918 298.21C570.558 304.66 568.688 311.07 565.358 317.24C553.418 339.46 523.098 358.91 477.668 373.47C475.328 374.22 472.948 374.96 470.518 375.68C422.668 389.96 362.528 397.7 300.058 397.7L300.088 397.72ZM260.018 194.69L258.238 194.74C257.458 194.76 256.798 194.78 256.138 194.81C250.678 194.99 245.288 195.23 240.118 195.51C239.018 195.57 237.928 195.63 236.858 195.7L234.218 195.86C233.548 195.91 232.858 195.95 232.168 195.99C225.988 196.4 219.678 196.9 213.438 197.49C211.408 197.68 209.388 197.88 207.388 198.09C204.148 198.42 200.888 198.78 197.688 199.17C197.318 199.21 197.048 199.24 196.778 199.28C190.228 200.06 183.628 200.96 177.078 201.96C169.638 203.1 162.408 204.35 155.578 205.68C146.868 207.37 138.298 209.26 130.108 211.32C129.478 211.48 128.868 211.63 128.258 211.79C127.588 211.96 126.978 212.11 126.368 212.27C58.5982 229.9 17.8082 258.31 17.2382 288.28C16.8382 308.71 34.4682 328.71 68.1982 346.14C74.3782 349.33 81.0682 352.4 88.0782 355.28C93.7282 357.61 99.8682 359.92 106.318 362.14C108.608 362.92 110.948 363.7 113.318 364.46C159.678 379.38 216.228 388.25 276.838 390.12C279.158 390.19 281.508 390.25 283.858 390.3C285.438 390.34 287.008 390.37 288.578 390.39C354.458 391.4 418.338 383.72 468.468 368.76C470.838 368.05 473.178 367.33 475.478 366.59C518.458 352.81 548.128 334.07 559.008 313.82C561.828 308.58 563.418 303.2 563.718 297.81C563.738 297.42 563.758 297.03 563.758 296.63C564.348 265.69 522.678 235.48 452.288 215.78L449.968 215.14C449.458 215 448.948 214.86 448.438 214.72C442.288 213.06 435.918 211.48 429.498 210.02C428.838 209.87 428.198 209.72 427.548 209.58L425.588 209.14C409.628 205.63 392.708 202.69 375.318 200.42C365.628 199.14 355.618 198.05 345.548 197.17C328.098 195.65 310.218 194.75 292.398 194.48C285.658 194.38 278.778 194.37 271.968 194.44L267.848 194.5C265.278 194.55 262.728 194.6 260.188 194.67H260.028L260.018 194.69Z" fill="white"/>
<path d="M522.998 371.629L520.918 382.769C520.628 384.169 518.658 384.219 518.288 382.839L515.348 371.709C513.858 366.069 510.818 360.869 506.688 356.789C503.418 353.559 499.488 351.029 495.108 349.529L494.018 349.159L492.408 348.609C491.148 348.179 491.208 346.369 492.498 346.029H492.518C492.978 345.899 493.438 345.769 493.898 345.619C504.458 342.249 512.388 333.059 514.858 322.179L515.068 321.349L517.578 311.299C517.898 309.889 519.908 309.899 520.208 311.319L522.318 321.229L522.508 322.109C524.928 333.449 533.318 341.989 544.378 345.109C544.888 345.259 545.408 345.389 545.928 345.509C546.608 345.669 546.968 346.239 546.968 346.819C546.968 347.349 546.678 347.889 546.058 348.099L544.328 348.699L543.468 348.999C538.868 350.599 534.768 353.099 531.438 356.329C527.228 360.399 524.238 365.639 522.998 371.659V371.629Z" fill="white"/>
<path d="M519.597 384.609C518.627 384.609 517.807 383.98 517.557 383.04L514.617 371.91C513.167 366.42 510.247 361.379 506.157 357.339C502.907 354.119 499.007 351.67 494.867 350.26L492.167 349.339C491.267 349.029 490.707 348.22 490.737 347.27C490.767 346.32 491.387 345.549 492.307 345.299C492.787 345.179 493.227 345.049 493.667 344.899C503.817 341.659 511.657 332.889 514.117 322.009L516.847 311.109C517.067 310.139 517.887 309.479 518.897 309.479H518.917C519.937 309.479 520.757 310.159 520.967 311.149L523.257 321.939C525.587 332.869 533.568 341.249 544.588 344.359C545.088 344.499 545.597 344.629 546.097 344.749C547.067 344.969 547.727 345.789 547.727 346.789C547.727 347.709 547.177 348.499 546.307 348.799L543.717 349.7C539.207 351.27 535.247 353.669 531.967 356.859C527.767 360.929 524.917 366.089 523.747 371.779L521.667 382.91C521.467 383.9 520.657 384.579 519.657 384.609C519.637 384.609 519.617 384.609 519.597 384.609ZM518.897 310.999C518.787 310.999 518.427 311.04 518.327 311.46L515.597 322.359C513.027 333.749 504.798 342.94 494.138 346.35C493.678 346.5 493.197 346.639 492.727 346.759C492.317 346.869 492.277 347.209 492.267 347.309C492.267 347.409 492.277 347.75 492.657 347.88L495.357 348.799C499.707 350.289 503.807 352.859 507.217 356.239C511.497 360.469 514.557 365.75 516.077 371.51L519.017 382.64C519.127 383.06 519.487 383.079 519.597 383.079C519.707 383.079 520.067 383.029 520.157 382.609L522.237 371.469C523.477 365.469 526.468 360.039 530.898 355.749C534.338 352.409 538.488 349.889 543.208 348.249L545.797 347.35C546.157 347.23 546.187 346.919 546.187 346.789C546.187 346.709 546.167 346.319 545.737 346.219C545.207 346.099 544.678 345.959 544.148 345.809C532.578 342.539 524.197 333.73 521.737 322.24L519.447 311.449C519.357 311.019 518.977 311 518.877 310.99L518.897 310.999Z" fill="#E4DEDE"/>
<path d="M47.9776 352.16C55.9636 352.16 62.4376 345.686 62.4376 337.7C62.4376 329.714 55.9636 323.24 47.9776 323.24C39.9915 323.24 33.5176 329.714 33.5176 337.7C33.5176 345.686 39.9915 352.16 47.9776 352.16Z" fill="white"/>
<path d="M47.9785 353.37H47.8985C43.7185 353.35 39.7885 351.7 36.8485 348.73C33.9085 345.76 32.2985 341.81 32.3185 337.63C32.3585 329.02 39.3785 322.04 47.9885 322.04H48.0685C56.7085 322.08 63.6985 329.15 63.6585 337.79C63.6385 341.97 61.9885 345.9 59.0185 348.84C56.0685 351.76 52.1585 353.37 47.9985 353.37H47.9785ZM47.9785 324.45C40.6985 324.45 34.7585 330.35 34.7185 337.64C34.6985 341.18 36.0585 344.52 38.5485 347.03C41.0385 349.55 44.3585 350.94 47.8985 350.96C51.4385 350.98 54.7785 349.62 57.2885 347.13C59.8085 344.64 61.1985 341.32 61.2185 337.78C61.2585 330.47 55.3385 324.49 48.0285 324.46H47.9585L47.9785 324.45Z" fill="#E4DEDE"/>
<path d="M500.337 143.56L462.367 123.29C454.817 119.25 444.337 124.11 438.997 134.1L335.967 327.04C330.627 337.05 332.427 348.46 339.967 352.48L377.947 372.77C385.507 376.8 395.977 371.95 401.317 361.96L504.347 169C509.687 159.01 507.877 147.6 500.327 143.56H500.337ZM477.727 138.19C484.537 140.8 480.697 151.44 473.867 148.83C467.057 146.22 470.897 135.58 477.727 138.19Z" fill="white"/>
<path d="M423.717 311.96L396.757 362.19C394.697 366.05 390.327 367.73 387.017 365.95L341.117 341.27C337.797 339.5 336.787 334.92 338.867 331.06L365.817 280.82C367.887 276.96 372.247 275.28 375.557 277.06L421.467 301.74C424.787 303.51 425.787 308.09 423.717 311.95V311.96Z" fill="#EE4A00"/>
<path d="M460.078 243.87L433.118 294.1C431.058 297.96 426.688 299.64 423.378 297.86L377.478 273.18C374.158 271.41 373.148 266.83 375.228 262.97L402.178 212.73C404.248 208.87 408.608 207.19 411.918 208.97L457.828 233.65C461.148 235.42 462.148 240 460.078 243.86V243.87Z" fill="#FF6D2A"/>
<path d="M496.437 175.77L469.477 226C467.417 229.86 463.047 231.54 459.737 229.76L413.827 205.09C410.517 203.31 409.507 198.72 411.577 194.87L438.527 144.63C440.597 140.77 444.957 139.09 448.267 140.87L494.177 165.55C497.497 167.32 498.497 171.9 496.427 175.76L496.437 175.77Z" fill="#FF9460"/>
<path d="M361.07 97.6456L186.568 101.758C178.745 101.942 172.552 108.434 172.736 116.258L178.577 364.119C178.762 371.943 185.254 378.136 193.077 377.951L367.579 373.839C375.403 373.655 381.595 367.163 381.411 359.339L375.57 111.478C375.385 103.654 368.894 97.4612 361.07 97.6456Z" fill="#FF9460"/>
<path d="M195.588 380.29C185.058 380.29 176.368 371.85 176.118 361.27L170.398 119.22C170.278 114.04 172.188 109.1 175.788 105.33C179.388 101.55 184.228 99.4099 189.408 99.2899L358.108 95.3099C363.268 95.1799 368.228 97.0999 371.998 100.7C375.778 104.3 377.918 109.14 378.038 114.32L383.758 356.37C384.008 367.11 375.478 376.05 364.738 376.31L196.048 380.29C195.888 380.29 195.738 380.29 195.578 380.29H195.588ZM358.578 100.1C358.458 100.1 358.348 100.1 358.228 100.1L189.538 104.08C185.638 104.17 181.998 105.79 179.288 108.63C176.578 111.47 175.128 115.19 175.228 119.08L180.948 361.13C181.138 369.21 187.878 375.62 195.958 375.44L364.658 371.46C372.738 371.27 379.158 364.54 378.968 356.45L373.248 114.4C373.158 110.5 371.538 106.86 368.698 104.15C365.938 101.52 362.368 100.08 358.598 100.08L358.578 100.1Z" fill="white"/>
<path d="M209.168 258C215.425 258 220.498 252.927 220.498 246.67C220.498 240.412 215.425 235.34 209.168 235.34C202.911 235.34 197.838 240.412 197.838 246.67C197.838 252.927 202.911 258 209.168 258Z" fill="#06296B"/>
<path d="M243.139 257.06C249.396 257.06 254.469 251.988 254.469 245.73C254.469 239.473 249.396 234.4 243.139 234.4C236.881 234.4 231.809 239.473 231.809 245.73C231.809 251.988 236.881 257.06 243.139 257.06Z" fill="#FF6D2A"/>
<path d="M277.107 256.11C283.365 256.11 288.437 251.038 288.437 244.78C288.437 238.523 283.365 233.45 277.107 233.45C270.85 233.45 265.777 238.523 265.777 244.78C265.777 251.038 270.85 256.11 277.107 256.11Z" fill="#EE4A00"/>
<path d="M311.078 255.17C317.335 255.17 322.408 250.097 322.408 243.84C322.408 237.582 317.335 232.51 311.078 232.51C304.821 232.51 299.748 237.582 299.748 243.84C299.748 250.097 304.821 255.17 311.078 255.17Z" fill="#06296B"/>
<path d="M343.629 254.261C349.886 254.261 354.959 249.188 354.959 242.931C354.959 236.673 349.886 231.601 343.629 231.601C337.371 231.601 332.299 236.673 332.299 242.931C332.299 249.188 337.371 254.261 343.629 254.261Z" fill="#06296B"/>
<path d="M376.498 253.35C370.238 253.52 365.038 248.6 364.858 242.34C364.688 236.08 369.608 230.88 375.868 230.7L376.498 253.35Z" fill="#EE4A00"/>
<path d="M263.778 223.65H263.738L199.888 225.16C195.198 225.27 191.308 221.56 191.198 216.87C191.088 212.18 194.798 208.22 199.488 208.18L263.338 206.67C268.028 206.56 271.918 210.27 272.028 214.96C272.138 219.64 268.448 223.52 263.768 223.65H263.778Z" fill="#FF6D2A"/>
<path d="M353.368 221.16H353.328L289.478 222.67C284.788 222.78 280.898 219.07 280.788 214.38C280.678 209.7 284.368 205.82 289.048 205.69H289.088L352.938 204.18C357.628 204.07 361.518 207.78 361.628 212.47C361.738 217.15 358.048 221.03 353.368 221.16Z" fill="white"/>
<path d="M238.149 163.02H238.119L192.899 163.86C191.189 163.89 189.769 162.53 189.739 160.81C189.709 159.1 191.069 157.61 192.789 157.65L238.009 156.81C239.719 156.78 241.139 158.14 241.169 159.86C241.199 161.56 239.849 162.97 238.149 163.02Z" fill="#EE4A00"/>
<path d="M269.46 174.91H269.44L193.22 176.61C191.51 176.65 190.09 175.29 190.05 173.58C190.01 171.87 191.38 170.41 193.08 170.41L269.3 168.71C271.01 168.67 272.43 170.03 272.47 171.74C272.51 173.45 271.16 174.87 269.45 174.91H269.46Z" fill="#EE4A00"/>
<path d="M292.869 187.02H292.859L193.519 189.37C191.809 189.41 190.379 188.05 190.339 186.34C190.299 184.63 191.649 183.21 193.359 183.16H193.369L292.709 180.81C294.419 180.77 295.849 182.13 295.889 183.84C295.929 185.55 294.579 186.97 292.869 187.02Z" fill="#EE4A00"/>
<path d="M239.323 275.207L195.605 276.238C192.314 276.315 189.709 279.046 189.787 282.336L190.754 323.355C190.831 326.646 193.562 329.25 196.852 329.173L240.57 328.143C243.861 328.065 246.466 325.334 246.388 322.044L245.421 281.025C245.344 277.734 242.613 275.13 239.323 275.207Z" fill="#EE4A00"/>
<path d="M300.016 273.529L256.298 274.559C253.007 274.636 250.403 277.367 250.48 280.658L251.447 321.676C251.524 324.967 254.255 327.572 257.546 327.494L301.264 326.464C304.554 326.386 307.159 323.656 307.081 320.365L306.115 279.346C306.037 276.056 303.307 273.451 300.016 273.529Z" fill="#EE4A00"/>
<path d="M360.719 271.849L317.001 272.879C313.711 272.957 311.106 275.687 311.183 278.978L312.15 319.996C312.228 323.287 314.958 325.892 318.249 325.814L361.967 324.784C365.257 324.707 367.862 321.976 367.785 318.685L366.818 277.667C366.74 274.376 364.01 271.771 360.719 271.849Z" fill="#EE4A00"/>
<path d="M247.068 340.11L247.868 373.81L198.908 374.96C196.568 375.01 194.308 374.66 192.208 373.97L191.428 341.43C191.328 336.77 195.018 332.9 199.668 332.79L238.438 331.88C243.098 331.76 246.948 335.45 247.068 340.11Z" fill="#EE4A00"/>
<path d="M307.768 338.42L308.568 372.38L252.928 373.69L252.128 339.75C252.008 335.09 255.698 331.22 260.358 331.11L299.128 330.2C303.788 330.08 307.658 333.77 307.768 338.43V338.42Z" fill="#EE4A00"/>
<path d="M368.457 336.73L369.237 369.41C366.897 370.45 364.327 371.06 361.617 371.12L313.627 372.26L312.817 338.05C312.697 333.39 316.387 329.52 321.047 329.41L359.817 328.5C364.477 328.38 368.347 332.07 368.447 336.73H368.457Z" fill="#EE4A00"/>
<path d="M338.818 185.95C352.112 185.95 362.888 175.173 362.888 161.88C362.888 148.586 352.112 137.81 338.818 137.81C325.525 137.81 314.748 148.586 314.748 161.88C314.748 175.173 325.525 185.95 338.818 185.95Z" fill="#06296B"/>
<path d="M356.259 158.16C356.019 157.93 355.639 157.94 355.409 158.17L351.439 162.31C350.229 160.37 348.569 158.77 346.639 157.61L349.309 152.62C349.469 152.33 349.349 151.96 349.069 151.81C348.779 151.65 348.409 151.76 348.249 152.05L345.589 157.03C343.629 156.05 341.429 155.49 339.169 155.46L338.999 149.44C338.999 149.11 338.709 148.85 338.379 148.85C338.049 148.85 337.789 149.14 337.799 149.47L337.969 155.49C335.689 155.64 333.489 156.33 331.559 157.44C331.559 157.35 331.529 157.26 331.479 157.18L328.439 152.2C328.269 151.92 327.899 151.83 327.619 152C327.339 152.17 327.249 152.54 327.419 152.82L330.449 157.8C330.499 157.89 330.569 157.95 330.649 158C328.719 159.3 327.089 161.06 325.969 163.15L322.049 159.49C321.809 159.26 321.429 159.28 321.199 159.52C320.979 159.76 320.989 160.14 321.229 160.37L325.759 164.61C328.379 169.29 333.539 172.2 339.009 172.05C344.589 171.89 349.669 168.57 351.959 163.59L352.039 163.42L356.269 159C356.499 158.76 356.489 158.38 356.249 158.15L356.259 158.16ZM343.179 163.47L342.889 163.57L342.749 163.61C342.009 163.87 341.359 164.28 340.809 164.81C340.139 165.46 339.649 166.32 339.449 167.29L339.119 169.09C339.079 169.31 338.749 169.34 338.699 169.1L338.219 167.3C337.969 166.4 337.479 165.56 336.809 164.9C336.279 164.38 335.649 163.96 334.949 163.74L334.759 163.67L334.509 163.59C334.299 163.53 334.299 163.22 334.509 163.17C334.599 163.16 334.659 163.14 334.729 163.11C336.439 162.55 337.729 161.07 338.119 159.31L338.159 159.18L338.549 157.55C338.599 157.32 338.929 157.32 338.969 157.55L339.319 159.15L339.349 159.29C339.749 161.13 341.109 162.5 342.889 163C342.989 163.03 343.059 163.05 343.149 163.07C343.249 163.1 343.319 163.18 343.319 163.28C343.319 163.37 343.259 163.46 343.169 163.48L343.179 163.47Z" fill="white"/>
<path d="M296.557 124.57H296.527L251.307 125.41C249.597 125.44 248.177 124.08 248.147 122.36C248.117 120.65 249.477 119.16 251.197 119.2L296.417 118.36C298.127 118.33 299.547 119.69 299.577 121.41C299.607 123.11 298.257 124.52 296.557 124.57Z" fill="white"/>
<path d="M186.428 339.669L221.678 310.609L238.568 331.099C241.438 334.579 240.938 339.719 237.458 342.589L214.808 361.259C211.328 364.129 206.188 363.629 203.318 360.149L186.428 339.659V339.669Z" fill="#FF6D2A"/>
<path d="M209.628 365.53C206.578 365.53 203.548 364.22 201.458 361.69L184.568 341.2C184.158 340.71 183.968 340.07 184.028 339.44C184.088 338.8 184.398 338.22 184.898 337.81L220.148 308.75C221.178 307.9 222.698 308.05 223.538 309.08L240.428 329.57C244.138 334.07 243.498 340.75 238.998 344.46L216.348 363.13C214.378 364.75 211.998 365.54 209.628 365.54V365.53ZM189.818 339.99L205.178 358.62C207.198 361.07 210.828 361.42 213.278 359.4L235.928 340.73C238.378 338.71 238.728 335.08 236.708 332.63L221.348 314L189.818 339.99Z" fill="white"/>
<path d="M120.562 187.94L85.3145 216.996L178.296 329.792L213.544 300.736L120.562 187.94Z" fill="#EE4A00"/>
<path d="M178.287 332.21C178.207 332.21 178.137 332.21 178.057 332.2C177.417 332.14 176.837 331.83 176.427 331.33L83.4571 218.53C83.0471 218.04 82.8571 217.4 82.9171 216.77C82.9771 216.13 83.2871 215.55 83.7871 215.14L119.037 186.08C120.067 185.23 121.587 185.38 122.427 186.41L215.407 299.21C216.257 300.24 216.107 301.76 215.077 302.6L179.827 331.66C179.397 332.02 178.847 332.21 178.297 332.21H178.287ZM88.7071 217.33L178.617 326.41L210.147 300.42L120.237 191.34L88.7071 217.33Z" fill="white"/>
<path d="M74.7793 180.689L87.8193 169.939L118.239 185.129L82.9893 214.179L74.7793 180.689Z" fill="white"/>
<path d="M82.9887 216.59C82.7387 216.59 82.4787 216.55 82.2287 216.47C81.4387 216.21 80.8487 215.56 80.6487 214.76L72.4387 181.27C72.2187 180.37 72.5287 179.43 73.2487 178.84L86.2887 168.09C87.0187 167.49 88.0487 167.37 88.8987 167.79L119.319 182.97C120.049 183.33 120.549 184.04 120.639 184.85C120.729 185.66 120.409 186.46 119.779 186.98L84.5287 216.04C84.0887 216.4 83.5487 216.59 82.9987 216.59H82.9887ZM77.4787 181.59L84.4187 209.88L113.849 185.62L88.1487 172.79L77.4787 181.58V181.59Z" fill="white"/>
<path d="M75.3381 163.7L87.8181 169.94L74.7781 180.69L71.3781 166.86C70.8081 164.55 73.2081 162.63 75.3381 163.7Z" fill="#FF9460"/>
<path d="M74.7779 183.1C74.5279 183.1 74.2679 183.06 74.0179 182.98C73.2279 182.72 72.6379 182.07 72.4379 181.27L69.0379 167.44C68.5479 165.45 69.2379 163.42 70.8379 162.14C72.4379 160.86 74.5779 160.63 76.4079 161.55L88.8879 167.79C89.6179 168.15 90.1179 168.86 90.2079 169.67C90.2979 170.48 89.9779 171.28 89.3479 171.8L76.3079 182.55C75.8679 182.91 75.3279 183.1 74.7779 183.1ZM74.0879 165.81C74.0179 165.81 73.9379 165.83 73.8579 165.9C73.6679 166.05 73.7079 166.22 73.7279 166.29L76.2079 176.4L83.4279 170.45L74.2579 165.87C74.2579 165.87 74.1679 165.82 74.0879 165.82V165.81Z" fill="#FF9460"/>
</svg>
