<svg width="580" height="400" viewBox="0 0 580 400" fill="none" xmlns="http://www.w3.org/2000/svg">
<path d="M198.838 334.55L232.958 360.41L209.718 391.08C205.768 396.29 199.838 398.44 196.478 395.89L174.548 379.28C171.178 376.73 171.648 370.44 175.598 365.23L198.838 334.56V334.55Z" fill="#FF6D2A"/>
<path d="M199.899 399.36C198.069 399.36 196.389 398.84 195.029 397.8L173.099 381.19C168.609 377.78 168.859 370.13 173.679 363.77L196.919 333.1C197.309 332.59 197.879 332.26 198.509 332.17C199.139 332.08 199.779 332.25 200.289 332.64L234.409 358.5C235.469 359.3 235.679 360.81 234.869 361.87L211.629 392.54C209.439 395.42 206.629 397.6 203.689 398.66C202.389 399.13 201.099 399.36 199.879 399.36H199.899ZM199.309 337.92L177.519 366.68C174.159 371.11 174.029 375.86 176.009 377.36L197.939 393.97C199.229 394.95 201.079 394.49 202.069 394.13C204.109 393.39 206.199 391.75 207.809 389.62L229.599 360.87L199.309 337.92Z" fill="white"/>
<path d="M353.418 365.33L389.558 339.87L408.578 367.03C411.808 371.64 411.538 377.42 407.968 379.93L384.748 396.29C381.178 398.8 375.668 397.1 372.438 392.49L353.418 365.33Z" fill="#EE4A00"/>
<path d="M380.939 399.85C380.359 399.85 379.759 399.8 379.159 399.69C375.829 399.11 372.659 396.98 370.469 393.86L351.449 366.7C350.689 365.61 350.949 364.12 352.039 363.35L388.179 337.89C388.699 337.52 389.339 337.37 389.979 337.49C390.609 337.6 391.169 337.96 391.539 338.48L410.559 365.64C414.539 371.33 414.009 378.62 409.359 381.89L386.139 398.25C384.649 399.3 382.849 399.85 380.949 399.85H380.939ZM356.769 365.91L374.409 391.11C375.849 393.16 377.929 394.6 379.979 394.96C380.879 395.12 382.199 395.14 383.349 394.33L406.569 377.97C409.009 376.25 409.019 371.88 406.589 368.41L388.959 343.23L356.759 365.91H356.769Z" fill="white"/>
<path d="M298.548 368.73C294.688 368.73 290.838 368.7 286.968 368.64H286.628C285.148 368.61 283.668 368.59 282.198 368.55C279.848 368.5 277.478 368.44 275.138 368.37C213.968 366.49 156.838 357.51 109.928 342.42C107.518 341.65 105.138 340.86 102.808 340.06C96.2282 337.79 89.9682 335.44 84.1882 333.06C77.0082 330.11 70.1382 326.95 63.7782 323.67C27.4882 304.91 8.54818 282.68 9.00818 259.35C9.65818 225.52 51.3182 195.37 123.308 176.64C123.938 176.47 124.588 176.31 125.238 176.15C125.828 175.99 126.468 175.83 127.128 175.67C135.418 173.59 144.098 171.67 152.918 169.96C159.838 168.61 167.158 167.35 174.658 166.2C181.288 165.19 187.958 164.28 194.468 163.5C194.798 163.46 195.178 163.41 195.558 163.37C198.688 162.99 201.988 162.62 205.268 162.29C207.288 162.08 209.328 161.88 211.378 161.68C217.668 161.09 224.038 160.58 230.298 160.17C230.978 160.13 231.648 160.08 232.318 160.04L234.988 159.88C236.068 159.81 237.188 159.75 238.298 159.69C243.498 159.4 248.928 159.16 254.408 158.98C255.068 158.95 255.758 158.93 256.458 158.91L258.648 158.85C261.158 158.78 263.678 158.73 266.218 158.68L270.388 158.62C277.248 158.55 284.168 158.56 290.958 158.66C308.918 158.93 326.938 159.85 344.528 161.38C354.678 162.26 364.778 163.37 374.558 164.66C392.108 166.96 409.208 169.93 425.358 173.48L427.328 173.92C427.998 174.07 428.658 174.22 429.318 174.37C435.788 175.84 442.238 177.44 448.468 179.12C448.968 179.25 449.468 179.39 449.978 179.53L452.398 180.2C527.128 201.11 569.608 233.09 568.938 267.95C568.938 268.43 568.918 268.93 568.888 269.42C568.528 275.86 566.668 282.25 563.338 288.42C551.418 310.6 521.148 330.01 475.808 344.54C473.468 345.29 471.098 346.03 468.678 346.75C420.918 361 360.888 368.73 298.538 368.73H298.548ZM258.558 166.08L256.678 166.13C256.008 166.15 255.348 166.17 254.688 166.19C249.228 166.37 243.858 166.6 238.698 166.89C237.598 166.95 236.518 167.01 235.448 167.08L232.808 167.24C232.138 167.29 231.448 167.33 230.768 167.37C224.598 167.78 218.298 168.28 212.068 168.87C210.038 169.06 208.028 169.26 206.028 169.47C202.788 169.8 199.538 170.16 196.348 170.55C195.958 170.59 195.678 170.63 195.398 170.66C188.918 171.43 182.328 172.33 175.778 173.33C168.368 174.47 161.148 175.72 154.318 177.04C145.618 178.72 137.068 180.62 128.888 182.67C128.258 182.83 127.648 182.98 127.038 183.14C126.368 183.31 125.758 183.46 125.148 183.62C57.5082 201.22 16.7982 229.58 16.2182 259.49C15.8182 279.88 33.4082 299.85 67.0882 317.25C73.2582 320.43 79.9382 323.51 86.9382 326.38C92.5882 328.71 98.7082 331.01 105.148 333.23C107.438 334.01 109.768 334.79 112.138 335.55C158.408 350.44 214.848 359.3 275.358 361.16C277.678 361.23 280.018 361.29 282.368 361.34C283.838 361.38 285.288 361.4 286.748 361.42H287.078C352.828 362.43 416.598 354.77 466.628 339.84C468.998 339.13 471.328 338.41 473.618 337.67C516.528 323.92 546.138 305.21 556.998 285C559.818 279.77 561.398 274.4 561.698 269.02C561.718 268.63 561.738 268.23 561.738 267.84C562.328 236.97 520.728 206.81 450.468 187.15L448.078 186.49C447.588 186.36 447.108 186.22 446.618 186.09C440.478 184.43 434.118 182.86 427.718 181.4C427.058 181.25 426.418 181.1 425.778 180.96L423.818 180.52C407.878 177.02 390.988 174.08 373.638 171.81C363.958 170.53 353.968 169.44 343.928 168.57C326.518 167.06 308.668 166.15 290.878 165.88C284.158 165.78 277.298 165.76 270.488 165.84L266.378 165.9C263.808 165.95 261.268 166 258.728 166.07H258.568L258.558 166.08Z" fill="white"/>
<path d="M546.309 253.681L544.239 264.801C543.949 266.191 541.979 266.251 541.619 264.871L538.679 253.761C537.199 248.131 534.149 242.941 530.039 238.871C526.779 235.651 522.849 233.121 518.489 231.621L517.399 231.251L515.789 230.701C514.529 230.271 514.599 228.471 515.879 228.131H515.899C516.359 228.001 516.819 227.871 517.269 227.721C527.809 224.361 535.729 215.181 538.189 204.321L538.399 203.491L540.909 193.461C541.229 192.051 543.239 192.071 543.539 193.481L545.639 203.371L545.829 204.251C548.249 215.571 556.619 224.091 567.659 227.211C568.169 227.361 568.679 227.491 569.199 227.611C569.879 227.771 570.239 228.341 570.239 228.911C570.239 229.441 569.949 229.981 569.329 230.191L567.599 230.791L566.749 231.091C562.159 232.681 558.069 235.181 554.739 238.401C550.539 242.471 547.549 247.691 546.309 253.701V253.681Z" fill="white"/>
<path d="M542.919 266.64C541.949 266.64 541.139 266.02 540.889 265.07L537.949 253.96C536.509 248.48 533.589 243.45 529.509 239.42C526.269 236.21 522.369 233.77 518.249 232.35L515.549 231.43C514.649 231.12 514.089 230.31 514.129 229.36C514.169 228.41 514.779 227.64 515.689 227.4C516.159 227.28 516.609 227.15 517.049 227C527.179 223.77 534.999 215.01 537.459 204.16L540.179 193.28C540.399 192.31 541.219 191.65 542.229 191.65H542.249C543.259 191.65 544.079 192.33 544.299 193.32L546.589 204.09C548.919 215 556.879 223.37 567.879 226.47C568.379 226.61 568.879 226.74 569.389 226.86C570.359 227.08 571.009 227.9 571.019 228.9C571.019 229.82 570.469 230.61 569.599 230.91L567.019 231.81C562.509 233.37 558.569 235.78 555.289 238.95C551.089 243.01 548.249 248.16 547.079 253.85L545.009 264.96C544.809 265.95 543.999 266.63 542.999 266.66C542.979 266.66 542.959 266.66 542.939 266.66L542.919 266.64ZM542.219 193.17C542.109 193.17 541.749 193.21 541.649 193.62L538.929 204.5C536.359 215.86 528.149 225.04 517.509 228.44C517.049 228.59 516.579 228.73 516.099 228.85C515.689 228.96 515.649 229.3 515.639 229.4C515.639 229.5 515.649 229.84 516.029 229.97L518.729 230.89C523.069 232.38 527.169 234.95 530.569 238.32C534.839 242.55 537.899 247.81 539.409 253.56L542.349 264.67C542.459 265.09 542.829 265.11 542.929 265.11C543.039 265.11 543.399 265.06 543.489 264.64L545.559 253.52C546.799 247.53 549.789 242.1 554.209 237.83C557.639 234.5 561.779 231.98 566.499 230.34L569.089 229.44C569.449 229.32 569.479 229.01 569.479 228.89C569.479 228.81 569.459 228.42 569.029 228.32C568.499 228.2 567.969 228.06 567.449 227.91C555.899 224.65 547.529 215.86 545.079 204.38L542.789 193.61C542.699 193.18 542.379 193.16 542.219 193.15V193.17Z" fill="#E4DEDE"/>
<path d="M103.508 350.461C111.478 350.461 117.938 344 117.938 336.031C117.938 328.061 111.478 321.601 103.508 321.601C95.5387 321.601 89.0781 328.061 89.0781 336.031C89.0781 344 95.5387 350.461 103.508 350.461Z" fill="white"/>
<path d="M103.509 351.671H103.429C99.2491 351.651 95.3391 350.001 92.3991 347.031C89.4591 344.061 87.8591 340.131 87.8791 335.951C87.9191 327.361 94.9291 320.391 103.519 320.391H103.599C112.219 320.431 119.199 327.481 119.159 336.111C119.119 344.701 112.109 351.671 103.529 351.671H103.509ZM103.509 322.801C96.2491 322.801 90.3191 328.691 90.2791 335.961C90.2591 339.491 91.6191 342.821 94.1091 345.341C96.5991 347.851 99.9091 349.241 103.449 349.261H103.519C110.779 349.261 116.709 343.371 116.749 336.101C116.789 328.801 110.879 322.841 103.589 322.801H103.519H103.509Z" fill="#E4DEDE"/>
<path d="M355.218 126.57L389.338 152.42L242.958 346.84L208.838 320.98L355.218 126.57Z" fill="#EE4A00"/>
<path d="M242.957 349.24C242.437 349.24 241.927 349.07 241.507 348.75L207.387 322.89C206.327 322.09 206.117 320.59 206.917 319.53L353.287 125.12C353.667 124.61 354.247 124.27 354.877 124.18C355.507 124.09 356.157 124.26 356.667 124.65L390.787 150.51C391.847 151.31 392.057 152.82 391.257 153.87L244.877 348.29C244.497 348.8 243.917 349.14 243.287 349.22C243.177 349.24 243.067 349.24 242.957 349.24ZM212.197 320.51L242.487 343.46L385.977 152.89L355.687 129.94L212.197 320.51Z" fill="white"/>
<path d="M239.559 204.18L277.189 177.71L380.399 326.79L344.259 352.24L239.559 204.18Z" fill="#FF6D2A"/>
<path d="M344.268 354.65C343.508 354.65 342.768 354.3 342.298 353.63L237.598 205.57C237.228 205.05 237.078 204.4 237.188 203.77C237.298 203.14 237.648 202.58 238.178 202.21L275.798 175.74C276.318 175.37 276.978 175.23 277.608 175.34C278.238 175.45 278.798 175.81 279.168 176.34L382.378 325.42C383.128 326.51 382.868 328 381.788 328.76L345.648 354.22C345.228 354.52 344.748 354.66 344.268 354.66V354.65ZM242.918 204.76L344.838 348.89L377.058 326.19L276.588 181.07L242.918 204.76Z" fill="white"/>
<path d="M392.177 100.65L404.797 110.22L389.337 152.42L355.217 126.57L392.177 100.65Z" fill="white"/>
<path d="M389.337 154.831C388.817 154.831 388.307 154.661 387.887 154.341L353.767 128.481C353.157 128.021 352.797 127.291 352.817 126.521C352.827 125.751 353.207 125.041 353.837 124.591L390.797 98.6808C391.657 98.0808 392.797 98.1008 393.627 98.7308L406.257 108.301C407.097 108.941 407.427 110.051 407.067 111.051L391.607 153.251C391.347 153.971 390.757 154.521 390.027 154.731C389.807 154.801 389.577 154.831 389.347 154.831H389.337ZM359.297 126.641L388.197 148.541L401.927 111.061L392.117 103.631L359.297 126.641Z" fill="white"/>
<path d="M413.978 93.1503L407.038 111.08C406.778 111.79 406.188 112.32 405.448 112.54C405.228 112.6 405.018 112.62 404.798 112.62C404.278 112.62 403.768 112.45 403.338 112.14L390.708 102.57C390.108 102.11 389.748 101.39 389.758 100.62C389.768 99.8503 390.138 99.1403 390.768 98.7003L406.608 87.3703C408.728 85.8703 411.078 85.7303 412.758 87.0303C414.458 88.3503 414.918 90.6903 413.968 93.1503H413.978Z" fill="#06296B"/>
<path d="M102.417 131.59C101.657 131.59 100.917 131.23 100.447 130.57C99.6874 129.48 99.9474 127.98 101.027 127.22L252.137 21.0201C253.227 20.2501 254.727 20.5201 255.487 21.6001C256.247 22.6801 255.987 24.1901 254.907 24.9501L103.797 131.15C103.377 131.45 102.897 131.59 102.417 131.59Z" fill="white"/>
<path d="M147.717 201.581C146.817 201.581 145.947 201.071 145.537 200.201C124.197 155.101 137.497 102.151 177.147 74.2906C196.567 60.6406 220.387 54.6206 244.217 57.3206C267.767 60.0006 289.907 70.9806 306.567 88.2606C307.487 89.2206 307.457 90.7406 306.507 91.6606C305.547 92.5806 304.027 92.5606 303.107 91.6006C269.817 57.0806 218.007 51.4506 179.917 78.2306C142.187 104.741 129.557 155.181 149.897 198.151C150.467 199.351 149.957 200.781 148.747 201.351C148.417 201.511 148.067 201.581 147.717 201.581Z" fill="white"/>
<path d="M254.657 135.33L277.177 177.71L239.557 204.18L207.217 169.15C204.827 166.45 203.167 163.19 202.387 159.64L188.507 96.5103C188.427 96.1603 188.907 95.9303 189.117 96.2303L224.357 146.74C222.157 149.61 221.887 153.61 223.987 156.61C226.087 159.61 229.917 160.73 233.357 159.63C234.217 159.37 235.057 158.96 235.847 158.41C236.727 157.79 237.467 157.06 238.037 156.21C240.057 153.36 240.247 149.53 238.207 146.61C236.177 143.7 232.527 142.57 229.157 143.49L193.907 92.9602C193.697 92.6602 194.077 92.2802 194.387 92.4902L247.917 128.07C250.717 129.93 253.017 132.41 254.657 135.33Z" fill="#EE4A00"/>
<path d="M239.557 206.59C238.907 206.59 238.257 206.33 237.787 205.82L205.447 170.79C202.757 167.76 200.907 164.1 200.037 160.17L186.157 97.0398C185.877 95.7698 186.547 94.4598 187.747 93.9298C188.937 93.3998 190.347 93.7998 191.087 94.8598L226.327 145.37C226.927 146.23 226.897 147.38 226.257 148.21C224.627 150.33 224.497 153.16 225.947 155.24C227.397 157.31 230.077 158.16 232.607 157.35C233.267 157.15 233.877 156.84 234.437 156.45C235.077 156 235.617 155.46 236.027 154.86C237.537 152.73 237.597 149.98 236.217 148C234.837 146.02 232.247 145.14 229.787 145.83C228.807 146.1 227.757 145.72 227.177 144.89L191.927 94.3598C191.177 93.2898 191.297 91.8198 192.217 90.8798C193.137 89.9298 194.607 89.7798 195.707 90.4998L249.237 126.08C252.337 128.14 254.927 130.94 256.737 134.17C256.737 134.19 256.757 134.2 256.767 134.22L279.287 176.6C279.857 177.67 279.537 179 278.547 179.7L240.927 206.17C240.507 206.46 240.027 206.61 239.547 206.61L239.557 206.59ZM193.087 106.13L204.737 159.14C205.427 162.27 206.907 165.19 209.017 167.57L239.887 201.01L274.047 176.97L252.537 136.49C251.097 133.93 249.037 131.71 246.577 130.08L202.097 100.52L230.237 140.85C234.117 140.42 237.957 142.06 240.177 145.24C242.717 148.88 242.647 153.85 239.997 157.6C239.277 158.65 238.337 159.59 237.227 160.38C236.257 161.06 235.187 161.59 234.067 161.93C229.527 163.38 224.677 161.8 222.017 157.98C219.697 154.66 219.537 150.35 221.467 146.79L193.087 106.11V106.13Z" fill="white"/>
<path d="M108.238 136.916C112.708 133.543 113.724 127.352 110.507 123.09C107.29 118.827 101.058 118.105 96.588 121.479C92.1179 124.852 91.1021 131.043 94.3191 135.306C97.5361 139.569 103.768 140.29 108.238 136.916Z" fill="#06296B"/>
<path d="M259.361 30.7288C263.831 27.3555 264.847 21.165 261.63 16.902C258.413 12.6391 252.181 11.918 247.711 15.2914C243.241 18.6647 242.225 24.8552 245.442 29.1182C248.659 33.3811 254.891 34.1022 259.361 30.7288Z" fill="#06296B"/>
<path d="M192.098 77.9801L175.507 89.6401L164.438 73.7801L181.027 62.1201L192.098 77.9801Z" fill="#06296B"/>
<path d="M161.976 196.82L145.376 208.48L134.316 192.62L150.906 180.96L161.976 196.82Z" fill="#06296B"/>
<path d="M313.088 90.6305L296.488 102.291L285.418 86.4305L302.018 74.7705L313.088 90.6305Z" fill="#06296B"/>
<path d="M256.668 247.46L278.538 233.46L293.428 227.25L307.418 234.33L329.298 249.21L307.418 269.34L290.798 278.96L262.788 259.71L256.668 247.46Z" fill="#06296B"/>
<path d="M351.949 238.189C351.179 237.349 349.879 237.299 349.059 238.069L334.699 251.259C330.739 243.909 324.929 237.769 318.009 233.289L329.569 214.859C330.169 213.899 329.879 212.639 328.909 212.039C327.959 211.439 326.689 211.739 326.099 212.699L314.479 231.219C308.629 228.079 302.139 226.059 295.369 225.409C295.369 225.309 295.389 225.219 295.369 225.119L295.639 203.499C295.589 202.369 294.619 201.509 293.499 201.549C292.369 201.599 291.499 202.559 291.559 203.689L291.279 225.189C283.119 225.079 275.179 226.969 268.099 230.499C268.079 230.459 268.069 230.419 268.049 230.389L258.839 212.839C258.309 211.829 257.079 211.449 256.079 211.969C255.069 212.499 254.689 213.739 255.209 214.739L264.429 232.289C264.459 232.349 264.499 232.409 264.539 232.459C257.919 236.439 252.229 241.939 248.099 248.599L235.589 235.319C234.819 234.499 233.519 234.459 232.699 235.229C231.879 235.999 231.839 237.299 232.609 238.119L247.039 253.449C254.909 269.929 271.799 280.949 290.399 281.619C309.349 282.309 327.309 272.139 336.179 255.729L336.489 255.159L351.809 241.089C352.649 240.319 352.699 239.029 351.939 238.199L351.949 238.189ZM308.589 253.719L307.459 254.109L306.919 254.249C303.999 255.249 301.379 256.789 299.179 258.869C296.509 261.399 294.539 264.739 293.699 268.549L292.289 275.609C292.129 276.469 290.829 276.559 290.609 275.639L288.839 268.519C287.899 264.979 286.009 261.619 283.409 258.979C281.359 256.919 278.889 255.209 276.139 254.289L275.409 253.989L274.409 253.669C273.589 253.409 273.599 252.209 274.459 251.989C274.789 251.959 275.069 251.879 275.339 251.769C282.109 249.659 287.269 243.889 288.889 236.989L289.059 236.509L290.689 230.099C290.919 229.209 292.209 229.219 292.359 230.099L293.639 236.439L293.749 236.989C295.209 244.249 300.479 249.719 307.489 251.809C307.869 251.939 308.169 252.009 308.509 252.109C308.929 252.239 309.169 252.549 309.179 252.919C309.179 253.259 308.949 253.599 308.579 253.709L308.589 253.719Z" fill="white"/>
<path d="M292.218 282.08C291.608 282.08 290.998 282.07 290.388 282.05C271.758 281.37 254.608 270.25 246.678 253.69L232.298 238.41C231.848 237.93 231.608 237.3 231.628 236.63C231.648 235.97 231.928 235.35 232.408 234.9C232.888 234.45 233.518 234.22 234.188 234.23C234.848 234.25 235.468 234.53 235.918 235.01L248.038 247.88C252.028 241.62 257.518 236.25 263.958 232.3L254.828 214.93C254.518 214.34 254.458 213.67 254.658 213.04C254.858 212.4 255.288 211.89 255.878 211.58C256.458 211.27 257.138 211.21 257.768 211.41C258.398 211.61 258.918 212.04 259.228 212.63L268.298 229.92C275.248 226.53 282.948 224.75 290.648 224.75H290.858L291.138 203.68C291.108 203.04 291.338 202.41 291.778 201.92C292.218 201.43 292.828 201.14 293.498 201.11C294.898 201.04 296.028 202.13 296.088 203.48L295.828 225.01C302.308 225.68 308.528 227.57 314.338 230.64L325.738 212.47C326.088 211.91 326.638 211.51 327.288 211.36C327.938 211.21 328.598 211.32 329.158 211.67C329.718 212.02 330.108 212.57 330.268 213.21C330.418 213.85 330.308 214.52 329.958 215.09L318.628 233.16C325.408 237.62 330.998 243.62 334.838 250.56L348.788 237.75C349.268 237.3 349.898 237.06 350.558 237.09C351.228 237.12 351.838 237.4 352.298 237.9C353.218 238.91 353.148 240.48 352.138 241.41L336.868 255.43L336.598 255.93C327.928 271.96 310.668 282.09 292.248 282.09L292.218 282.08ZM234.098 235.1C233.688 235.1 233.298 235.25 232.998 235.54C232.688 235.83 232.508 236.23 232.498 236.66C232.488 237.09 232.638 237.5 232.938 237.81L247.448 253.25C255.228 269.55 272.098 280.51 290.428 281.17C309.198 281.84 327.018 271.78 335.808 255.51L336.208 254.83L351.528 240.76C352.178 240.16 352.228 239.14 351.628 238.49C351.338 238.17 350.938 237.98 350.508 237.97C350.088 237.97 349.678 238.11 349.368 238.4L334.588 251.97L334.318 251.48C330.478 244.34 324.758 238.18 317.778 233.67L317.418 233.44L329.208 214.65C329.438 214.29 329.508 213.85 329.408 213.44C329.308 213.02 329.058 212.67 328.688 212.44C328.328 212.21 327.898 212.14 327.488 212.24C327.068 212.34 326.708 212.59 326.488 212.96L314.648 231.83L314.288 231.64C308.358 228.45 301.978 226.51 295.338 225.88L294.908 225.84L294.948 225.41C294.948 225.33 294.958 225.27 294.948 225.2L295.208 203.54C295.168 202.69 294.418 202.03 293.528 202.03C293.108 202.05 292.708 202.24 292.428 202.55C292.138 202.87 291.998 203.28 292.018 203.71L291.728 225.68H291.288C283.378 225.58 275.428 227.39 268.308 230.94L267.878 231.15L267.708 230.7L258.458 213.08C258.258 212.7 257.918 212.41 257.508 212.29C257.098 212.16 256.668 212.2 256.288 212.4C255.908 212.6 255.628 212.94 255.498 213.35C255.368 213.76 255.408 214.2 255.608 214.58L264.828 232.13C264.828 232.13 264.878 232.22 264.908 232.26L265.168 232.64L264.768 232.88C258.118 236.88 252.478 242.41 248.468 248.87L248.168 249.35L235.268 235.65C234.978 235.34 234.578 235.16 234.148 235.15C234.128 235.15 234.118 235.15 234.098 235.15V235.1ZM291.438 276.73C290.828 276.73 290.328 276.34 290.188 275.74L288.418 268.62C287.498 265.14 285.608 261.82 283.108 259.28C280.948 257.11 278.498 255.53 276.008 254.7L275.258 254.39L274.288 254.08C273.728 253.9 273.368 253.38 273.378 252.79C273.398 252.19 273.778 251.71 274.368 251.56C274.688 251.52 274.928 251.46 275.198 251.36C281.788 249.31 286.858 243.77 288.478 236.89L288.658 236.36L290.278 229.98C290.438 229.37 290.968 228.96 291.618 228.99C292.228 229.01 292.708 229.43 292.808 230.02L294.198 236.9C295.598 243.88 300.628 249.3 307.638 251.39C307.918 251.49 308.138 251.55 308.358 251.6L308.658 251.68C309.258 251.87 309.628 252.33 309.638 252.9C309.638 253.47 309.268 253.96 308.728 254.11L307.038 254.65C304.158 255.63 301.608 257.15 299.498 259.16C296.798 261.72 294.948 264.99 294.148 268.61L292.738 275.66C292.628 276.25 292.118 276.67 291.488 276.69H291.448L291.438 276.73ZM291.558 229.87C291.468 229.87 291.198 229.89 291.118 230.2L289.318 237.13C287.648 244.27 282.338 250.05 275.488 252.18C275.168 252.3 274.858 252.38 274.518 252.42C274.288 252.48 274.258 252.74 274.258 252.82C274.258 252.98 274.328 253.18 274.558 253.25L275.558 253.57L276.318 253.88C278.908 254.74 281.478 256.4 283.738 258.67C286.348 261.32 288.318 264.78 289.278 268.41L291.048 275.54C291.118 275.84 291.348 275.86 291.468 275.86C291.628 275.86 291.838 275.77 291.878 275.54L293.288 268.47C294.128 264.66 296.068 261.24 298.898 258.56C301.108 256.46 303.768 254.88 306.798 253.84L307.368 253.69L308.488 253.3C308.678 253.25 308.768 253.08 308.768 252.93C308.768 252.7 308.568 252.58 308.408 252.53L308.138 252.46C307.898 252.39 307.648 252.33 307.368 252.23C300.068 250.05 294.818 244.38 293.348 237.08L291.958 230.19C291.908 229.91 291.688 229.88 291.588 229.87H291.568H291.558Z" fill="#E4DEDE"/>
</svg>
