<svg width="394" height="600" viewBox="0 0 394 600" fill="none" xmlns="http://www.w3.org/2000/svg">
<g clip-path="url(#clip0_417_58)">
<path d="M375.93 418.99C346.1 462.93 295.2 501.32 235.33 510.5L226.03 351.3L324.62 336.21C332.68 335.29 338.77 328.41 338.77 320.22C338.77 311.33 331.63 304.12 322.82 304.12H224.07L223.07 279.77C222.91 279.76 222.77 279.74 222.61 279.73C222.76 279.67 222.91 279.61 223.06 279.55C243.22 271.36 258.25 253.05 261.99 230.86C262.58 227.34 262.89 223.73 262.89 220.05C262.89 188.27 240.05 161.93 209.99 156.82C206.57 156.24 203.06 155.93 199.48 155.92C194.4 155.91 189.46 156.49 184.72 157.62C156.65 164.28 135.75 189.7 135.75 220.04C135.75 223.77 136.07 227.43 136.67 230.99C140.46 253.22 155.59 271.54 175.85 279.66C175.92 279.65 175.99 279.64 176.06 279.64V279.75L174.98 304.12H78.0502C73.6402 304.12 69.6602 305.92 66.7702 308.83C63.8802 311.74 62.1002 315.76 62.1002 320.21C62.1002 328.4 68.1902 335.28 76.2602 336.2L172.9 351.28L163 510.38C100.06 500.51 47.1202 465.59 18.2902 417.92C12.8202 408.87 -1.00983 413.33 -0.299826 423.91C0.0101738 428.57 0.400173 432.33 0.840173 434.5C15.6802 507.03 80.1602 552.91 162.01 566.32C166 583.1 180.93 595.71 198.92 595.78H199.09C217.16 595.78 232.21 583.12 236.18 566.24C312.96 553.5 374.37 494.21 393.73 427.92C393.79 427.74 393.83 427.56 393.89 427.37C396.92 416.38 382.3 409.58 375.91 418.99H375.93ZM203.45 248.23L200.98 260.86C200.64 262.44 198.4 262.48 198 260.91L194.77 248.24C193.14 241.82 189.73 235.89 185.09 231.21C181.41 227.51 176.97 224.6 172.02 222.85L170.78 222.41L168.96 221.77C167.53 221.27 167.62 219.22 169.09 218.84H169.12C169.65 218.7 170.17 218.55 170.68 218.39C178.85 215.86 185.66 210.27 190.1 203.09C192.2 199.69 193.77 195.93 194.7 191.98L194.95 191.04L197.9 179.65C198.28 178.05 200.56 178.09 200.89 179.69L203.19 190.96L203.39 191.96C204.13 195.58 205.4 198.95 207.13 202.01C211.56 209.86 218.98 215.67 228 218.29C228.58 218.46 229.16 218.61 229.76 218.75C230.53 218.94 230.93 219.59 230.93 220.25C230.93 220.86 230.59 221.46 229.89 221.7L227.91 222.36L226.94 222.69C221.7 224.46 217.02 227.26 213.21 230.89C208.39 235.48 204.94 241.39 203.47 248.21L203.45 248.23Z" fill="#05183C"/>
<path d="M209.98 103.589V196.579C209.98 198.829 208.85 200.829 207.12 202.029C205.4 198.969 204.12 195.599 203.38 191.979L203.18 190.979L200.88 179.709C200.55 178.099 198.27 178.069 197.89 179.669L194.94 191.059L194.69 191.999C193.76 195.959 192.19 199.709 190.09 203.109C187.03 202.519 184.7 199.809 184.7 196.589V103.589C184.7 99.9392 187.69 96.9492 191.34 96.9492H203.33C206.98 96.9492 209.97 99.9392 209.97 103.589H209.98Z" fill="#05183C"/>
<path d="M195.25 6.43961C184.66 2.35961 171.43 4.69961 164.03 7.20961C163.78 7.29961 163.04 7.29961 163.06 7.65961C163.16 9.15961 167.88 9.57961 169.09 10.4696C171.95 12.5596 168.53 17.9196 169.51 19.4696C170.25 20.6296 173.29 21.1896 174.62 21.5396C175.21 21.6896 175.85 22.0996 176.09 22.4696C176.33 22.8396 176.49 23.5996 176.34 24.1896C175.81 26.2796 173.76 30.6596 174.6 32.6396C174.73 32.9496 175.39 33.3096 175.72 33.3496C180.91 34.0296 185.96 32.0296 190.62 33.8296C196.01 35.9096 200.62 40.0296 203.13 45.6996L216.75 76.3696C221.76 87.6496 217.01 101.05 205.82 106.28C194.4 111.61 180.77 106.46 175.68 94.9996L161.92 64.0096C159.86 59.3596 162.22 54.1996 160.6 49.7396C160.15 48.4996 157.47 47.3296 156.39 46.5796C155.63 46.0496 155.38 45.1496 155.51 44.2396C155.71 42.8796 156.45 39.7596 155.51 38.7496C154.66 37.8196 151.74 38.4596 150.48 38.3296C149.9 38.2696 149.3 37.8196 149.06 37.4796C148.82 37.1396 148.67 36.4296 148.71 35.8596C148.85 34.0496 149.19 30.2196 148.39 28.5896C147.52 26.8196 142.35 23.5196 142.35 23.5196C142.35 23.5196 129.81 43.0296 138.9 65.6996L158.79 110.51C168.68 132.78 194.66 143.31 217.02 133.63C239.54 123.89 249.84 97.4196 239.91 75.0396L219.81 29.7796C214.87 18.6496 205.83 10.5596 195.24 6.47961L195.25 6.43961Z" fill="#05183C"/>
</g>
<defs>
<clipPath id="clip0_417_58">
<rect width="394" height="600" fill="white"/>
</clipPath>
</defs>
</svg>
