<svg width="13" height="15" viewBox="0 0 13 15" fill="none" xmlns="http://www.w3.org/2000/svg">
<path d="M12.784 7.76476L12.1748 7.94276C9.72804 8.65767 7.87061 10.3239 7.3244 12.5176L6.81135 14.7834C6.7409 15.0673 6.2784 15.0738 6.19635 14.7928L5.53244 12.5183C4.93236 10.4521 3.15284 8.6692 0.842027 7.95862L0.21045 7.76404C-0.0837892 7.67323 -0.0647259 7.30569 0.237801 7.23866L0.243603 7.23722C2.88512 6.65203 4.90418 4.72999 5.53244 2.42312L6.19552 0.211374C6.27343 -0.0754537 6.74504 -0.0682385 6.81218 0.220031L7.3244 2.42312C7.8905 4.84602 9.9941 6.65636 12.7583 7.23722C13.0666 7.30208 13.0849 7.67684 12.7848 7.76476H12.784Z" fill="white"/>
</svg>
