<?xml version="1.0" encoding="UTF-8"?><svg id="Camada_5" xmlns="http://www.w3.org/2000/svg" viewBox="0 0 9583.44 8464.4"><defs><style>.cls-1{fill:#fff;}</style></defs><path class="cls-1" d="M154.24,3778.75l-7.35,2.47c-29.52,9.92-51.93,33.04-58.52,63.48l-6.19,31.44c-.85,3.94-6.43,4.03-7.42,.13l-8.01-31.56c-7.24-28.67-28.71-53.41-56.59-63.27l-7.62-2.7c-3.55-1.26-3.32-6.36,.33-7.29l.07-.02c31.87-8.12,56.23-34.79,63.81-66.8l8-30.69c.94-3.98,6.63-3.88,7.44,.12l6.18,30.57c6.83,33.62,32.21,58.74,65.56,66.8h0c3.72,.9,3.94,6.1,.32,7.32Z"/></svg>