<svg width="600" height="380" viewBox="0 0 600 380" fill="none" xmlns="http://www.w3.org/2000/svg">
<g clip-path="url(#clip0_507_325)">
<path d="M204.06 323.71L12.9698 176.2C-1.60021 164.95 -4.30021 144.02 6.94979 129.45C18.1998 114.88 39.1298 112.18 53.6998 123.43L206.31 241.22L547.76 6.12044C562.92 -4.31956 583.68 -0.489564 594.12 14.6704C604.56 29.8304 600.73 50.5904 585.57 61.0304L204.06 323.71Z" fill="#EE4A00"/>
<path d="M295.09 280.57L267.24 288.45C253.12 292.43 240.04 300.95 229.7 312.62C227.63 314.96 225.66 317.42 223.82 320.01C219.53 327.7 216.33 336.24 214.44 345.48L208.61 376.79C207.81 380.72 202.79 380.76 201.92 376.85L194.97 345.26C191.8 330.81 185.37 317.3 176.56 306.18C167.19 297.18 156.03 290.59 143.95 287.13L141.9 286.49L117.01 278.68C113.52 277.68 113.65 271.87 117.18 271.08L141.93 265.55L144.13 265.06C153.22 263.02 161.63 259.18 169.12 253.88C182.29 241.55 191.89 224.49 196.12 205.45L196.69 203.13L203.58 174.9C204.46 170.94 209.58 171.09 210.28 175.09L215.16 203.16L215.59 205.66C218.02 219.61 223.35 232.13 230.88 242.6C240.64 254.23 253.09 262.61 267.42 266.38L295.04 272.99C298.5 273.9 298.54 279.59 295.09 280.58V280.57Z" fill="white"/>
</g>
<defs>
<clipPath id="clip0_507_325">
<rect width="600" height="380" fill="white"/>
</clipPath>
</defs>
</svg>
