<svg width="600" height="600" viewBox="0 0 600 600" fill="none" xmlns="http://www.w3.org/2000/svg">
<path d="M460.72 144.101L455.99 168.301C455.34 171.331 451.04 171.411 450.28 168.411L444.09 144.131C440.96 131.821 434.43 120.461 425.53 111.501C418.49 104.411 409.96 98.8205 400.48 95.4805L398.11 94.6405L394.61 93.4105C391.88 92.4505 392.05 88.5205 394.86 87.8005H394.91C395.92 87.5305 396.92 87.2505 397.91 86.9405C420.95 79.8105 438.39 59.9505 443.95 36.3205L444.42 34.5205L450.08 12.6905C450.8 9.63053 455.18 9.69053 455.81 12.7705L460.21 34.3705L460.6 36.2905C465.66 61.0205 483.75 79.7505 507.76 86.7505C508.87 87.0805 509.99 87.3705 511.12 87.6405C512.6 88.0005 513.36 89.2505 513.36 90.5005C513.36 91.6605 512.71 92.8205 511.36 93.2805L507.57 94.5505L505.7 95.1805C495.66 98.5705 486.7 103.931 479.38 110.901C470.14 119.681 463.53 131.011 460.72 144.091V144.101Z" fill="#05183C"/>
<path d="M543.12 215.161L540.19 230.151C539.79 232.031 537.13 232.081 536.65 230.221L532.81 215.181C530.87 207.561 526.83 200.521 521.32 194.981C516.96 190.591 511.68 187.131 505.81 185.061L504.34 184.541L502.18 183.781C500.49 183.181 500.59 180.751 502.33 180.311H502.36C502.99 180.141 503.61 179.971 504.22 179.781C518.49 175.361 529.29 163.071 532.73 148.431L533.02 147.321L536.53 133.801C536.98 131.911 539.69 131.941 540.08 133.851L542.8 147.221L543.04 148.411C546.17 163.721 557.37 175.321 572.24 179.661C572.93 179.861 573.62 180.041 574.32 180.211C575.24 180.431 575.71 181.211 575.71 181.981C575.71 182.701 575.31 183.421 574.47 183.701L572.13 184.491L570.97 184.881C564.76 186.981 559.2 190.301 554.67 194.611C548.95 200.051 544.86 207.071 543.11 215.161H543.12Z" fill="#05183C"/>
<path d="M300 589.56C147.06 589.56 22.6396 465.14 22.6396 312.21C22.6396 159.28 147.06 34.8496 300 34.8496C331.76 34.8496 362.9 40.1696 392.56 50.6696C395.73 51.7996 397.39 55.2796 396.27 58.4496C395.15 61.6196 391.67 63.2896 388.49 62.1596C360.15 52.1296 330.38 47.0396 300.01 47.0396C153.8 47.0396 34.8496 165.99 34.8496 312.2C34.8496 458.41 153.8 577.36 300.01 577.36C446.22 577.36 565.17 458.41 565.17 312.2C565.17 290.2 562.47 268.35 557.16 247.25C556.34 243.99 558.31 240.68 561.58 239.85C564.85 239.03 568.16 241.01 568.98 244.27C574.54 266.34 577.36 289.19 577.36 312.2C577.36 465.13 452.94 589.55 300 589.55V589.56Z" fill="#05183C"/>
<path d="M449.58 271.379C449.58 270.769 449.52 270.099 449.4 269.489C449.34 268.999 449.28 268.509 449.16 268.029C449.1 267.299 448.98 266.569 448.79 265.899C448.61 264.919 448.36 263.949 448.06 262.969C448 262.599 447.88 262.299 447.75 261.929C447.75 261.809 447.75 261.749 447.69 261.689C447.39 260.709 447.08 259.739 446.65 258.829C446.65 258.709 446.59 258.589 446.53 258.459C446.04 257.299 445.55 256.139 444.95 255.049C443.85 252.859 442.57 250.779 441.05 248.829C440.32 247.789 439.53 246.819 438.67 245.899C428.98 256.449 419.04 266.869 409.29 277.349C398.14 289.299 387.04 301.179 375.95 313.069C399.6 341.169 418.62 372.629 441.3 401.459C442.64 399.629 443.86 397.679 444.96 395.609C445.69 394.089 446.36 392.559 446.97 390.979C447.34 389.999 447.7 388.969 448.01 387.929C448.07 387.809 448.07 387.629 448.13 387.499C448.5 386.279 448.74 384.999 448.98 383.779C449.16 382.799 449.35 381.889 449.41 380.909C449.47 380.609 449.53 380.239 449.53 379.869C449.59 379.499 449.65 379.199 449.65 378.829C449.71 377.729 449.77 376.639 449.77 375.539V274.959C449.77 273.739 449.71 272.579 449.59 271.359L449.58 271.379ZM393.07 365.619C392.89 365.379 392.7 365.189 392.58 364.949L363.2 326.669C361.37 328.679 359.48 330.689 357.59 332.699C346.86 344.279 336.5 358.179 324.25 368.179C310.41 379.459 292.98 380.739 277.19 372.689C259.57 363.669 246.65 345.809 234.52 330.749C233.97 330.079 233.48 329.469 232.94 328.799C220.02 345.009 205.94 360.249 192.16 375.679C192.1 375.739 192.1 375.799 192.1 375.799L166.25 408.899C173.99 415.669 184.17 419.749 195.27 419.749H405.51C413.62 419.749 421.24 417.559 427.82 413.649C415.57 398.109 404.41 381.769 393.07 365.619ZM194.47 284.489C183.62 271.689 173.32 258.459 161.37 246.759C154.85 254.379 151.07 264.249 151.07 274.979V375.559C151.07 381.349 152.17 386.899 154.3 391.959C162.59 381.349 171.43 371.049 180.63 361.119C194.59 346.059 208.43 330.949 220.98 314.729C212.2 304.609 203.18 294.799 194.46 284.499L194.47 284.489ZM405.51 230.789H195.26C188.25 230.789 181.67 232.439 175.81 235.359C187.7 247.309 198.06 260.719 209.09 273.519C223.54 290.469 238.41 306.799 252.55 324.109C255.41 327.579 258.52 331.609 261.88 335.689L272.61 347.449C279.13 353.549 286.39 358.299 294.43 359.639C306.19 361.469 313.94 353.179 321.13 345.249C332.53 332.569 344.29 320.139 355.94 307.699C378.62 283.379 401.66 259.419 423.97 234.859C418.36 232.239 412.08 230.779 405.5 230.779L405.51 230.789Z" fill="#05183C"/>
<path d="M449.76 274.98V375.56C449.76 376.66 449.7 377.75 449.64 378.85C449.64 379.22 449.58 379.52 449.52 379.89C449.52 380.26 449.46 380.62 449.4 380.93C449.34 381.91 449.16 382.82 448.97 383.8C448.73 385.02 448.48 386.3 448.12 387.52C448.06 387.64 448.06 387.82 448 387.95C447.69 388.99 447.33 390.02 446.96 391C446.35 392.58 445.68 394.11 444.95 395.63C443.85 397.7 442.63 399.65 441.29 401.48C418.61 372.65 399.6 341.19 375.94 313.09C387.03 301.2 398.13 289.32 409.28 277.37C419.03 266.89 428.97 256.46 438.66 245.92C439.51 246.83 440.31 247.81 441.04 248.85C442.56 250.8 443.84 252.87 444.94 255.07C445.55 256.17 446.04 257.33 446.52 258.48C446.58 258.6 446.64 258.72 446.64 258.85C447.07 259.76 447.37 260.74 447.68 261.71C447.74 261.77 447.74 261.83 447.74 261.95C447.86 262.32 447.98 262.62 448.05 262.99C448.36 263.97 448.6 264.94 448.78 265.92C448.96 266.59 449.08 267.32 449.15 268.05C449.27 268.54 449.33 269.03 449.39 269.51C449.51 270.12 449.57 270.79 449.57 271.4C449.69 272.62 449.75 273.78 449.75 275L449.76 274.98Z" fill="#05183C"/>
<path d="M427.81 413.66C421.23 417.56 413.61 419.76 405.5 419.76H195.26C184.17 419.76 172.28 415.31 164.54 408.54L192.09 375.81C192.09 375.81 192.09 375.75 192.15 375.69C205.93 360.27 220.01 345.03 232.93 328.81C233.48 329.48 233.97 330.09 234.51 330.76C246.64 345.82 259.56 363.68 277.18 372.7C292.97 380.75 310.4 379.47 324.24 368.19C336.49 358.19 346.85 344.29 357.58 332.71C359.47 330.7 361.36 328.69 363.19 326.68L392.57 364.96C392.69 365.2 392.88 365.39 393.06 365.63C404.4 381.78 415.55 398.12 427.81 413.66Z" fill="#05183C"/>
<path d="M220.99 314.72C208.43 330.93 194.59 346.05 180.64 361.11C171.44 371.05 162.6 381.35 154.31 391.95C152.18 386.89 151.08 381.34 151.08 375.55V274.97C151.08 264.24 154.86 254.37 161.38 246.75C173.33 258.45 183.63 271.68 194.48 284.48C203.2 294.78 212.22 304.6 221 314.71L220.99 314.72Z" fill="#05183C"/>
<path d="M423.98 234.869C401.67 259.439 378.63 283.389 355.95 307.709C344.31 320.149 332.54 332.579 321.14 345.259C313.95 353.179 306.21 361.469 294.44 359.649C286.39 358.309 279.14 353.549 272.62 347.459L261.89 335.699C258.54 331.619 255.43 327.589 252.56 324.119C238.42 306.809 223.54 290.469 209.1 273.529C198.07 260.729 187.7 247.319 175.82 235.369C181.67 232.439 188.26 230.799 195.27 230.799H405.51C412.09 230.799 418.37 232.259 423.98 234.879V234.869Z" fill="#05183C"/>
</svg>
