<svg width="600" height="600" viewBox="0 0 600 600" fill="none" xmlns="http://www.w3.org/2000/svg">
<path d="M445.81 413.56C443.25 416.18 440.45 418.56 437.4 420.69C436.61 420.39 435.88 419.84 435.27 419.11C435.15 419.05 435.09 418.99 435.03 418.87L433.81 417.29L364.14 326.34L324.27 367.91C324.03 368.15 323.72 368.4 323.48 368.64C316.59 373.7 308.36 376.26 300.13 376.26C291.9 376.26 283.18 373.52 276.11 368.09C275.87 367.91 275.62 367.66 275.38 367.36L235.82 324.14L162.37 416.19C161.03 415.03 159.75 413.75 158.59 412.47C158.28 412.23 158.04 411.92 157.86 411.62C156.4 409.97 155.06 408.21 153.9 406.38L227.48 315.07L162.44 243.99L161.1 242.53C161.04 242.41 160.92 242.35 160.86 242.23C160.31 241.56 159.95 240.77 159.76 239.91C162.32 237.23 165.12 234.91 168.17 232.84C168.9 233.21 169.57 233.69 170.12 234.3L170.18 234.36L171.83 236.19L238.4 308.91L241.33 312.14L284 358.77C293.39 365.72 306.31 365.84 315.82 359.07L359.59 313.41L360.87 312.01C360.93 311.95 360.99 311.95 361.05 311.89L433.65 236.12L435.36 234.41L435.54 234.17C436.09 233.56 436.7 233.13 437.37 232.89C440.42 234.9 443.22 237.28 445.78 239.96C445.6 240.75 445.23 241.54 444.62 242.22C444.56 242.34 444.44 242.46 444.31 242.59L443.03 243.93L372.62 317.44L443.15 409.42L444.61 411.25L444.73 411.43C445.22 412.1 445.58 412.83 445.83 413.56H445.81Z" fill="white"/>
<path d="M543.28 201.489C545.05 198.559 547.24 195.819 549.8 193.319C554.19 189.169 559.37 186.129 565.34 184.119L568.63 182.959C570.46 182.469 571.62 180.889 571.62 178.939C571.62 176.989 570.34 175.339 568.39 174.859L566.38 174.369C552.12 170.159 541.81 159.189 538.89 144.869L535.96 130.299C535.47 128.349 533.83 126.949 531.82 126.949C529.81 126.949 528.16 128.289 527.74 130.119L523.9 144.869C522.62 150.539 520 156.029 516.46 160.659C503.23 143.169 487.93 127.259 470.93 113.359C472.09 112.019 473.25 110.859 474.53 109.639C481.66 102.869 490.26 97.7491 500.01 94.4591L505.56 92.5691C507.82 91.8991 509.28 89.8891 509.28 87.5091C509.28 85.0091 507.63 82.9391 505.26 82.3891L501.91 81.4791C478.26 74.5291 461.31 56.3691 456.5 32.7791L451.68 9.30906C451.19 6.80906 449.12 5.09906 446.56 5.03906H446.44C443.94 5.03906 441.87 6.68906 441.26 9.05906L435.59 30.9391L435.16 32.7691C431.26 49.2291 421.2 64.0391 407.61 73.4291C407.18 73.7291 406.76 73.9791 406.33 74.2191C373.54 60.1991 337.51 52.4591 299.65 52.4591C149.8 52.4491 28.3701 173.879 28.3701 323.709C28.3701 473.539 149.8 594.969 299.63 594.969C449.46 594.969 570.89 473.539 570.89 323.709C570.89 280.309 560.71 239.279 542.55 202.949C542.73 202.459 542.98 201.969 543.28 201.489ZM460.56 376.989C460.56 391.129 454.95 404.059 445.81 413.559C443.25 416.179 440.45 418.559 437.4 420.689C428.99 426.419 418.75 429.769 407.84 429.769H197.59C184.06 429.769 171.68 424.589 162.36 416.179C161.02 415.019 159.74 413.739 158.58 412.459C158.27 412.219 158.03 411.909 157.85 411.609C156.39 409.959 155.05 408.199 153.89 406.369C148.16 397.959 144.87 387.839 144.87 376.989V276.529C144.87 262.329 150.54 249.339 159.74 239.889C162.3 237.209 165.1 234.889 168.15 232.819C176.5 227.149 186.68 223.799 197.59 223.799H407.83C418.74 223.799 428.92 227.149 437.33 232.879C440.38 234.889 443.18 237.269 445.74 239.949C454.88 249.399 460.55 262.319 460.55 276.519V376.979L460.56 376.989ZM451.9 140.659L447.15 164.859C447.15 164.919 447.09 165.159 446.66 165.229C446.29 165.349 446.11 164.859 446.05 164.799L439.89 140.539C436.72 127.919 430.08 116.279 420.69 106.829C413.25 99.3291 404.29 93.5991 394.78 90.2491L388.87 88.1191C388.81 88.1191 388.5 87.9991 388.5 87.6291C388.56 87.3191 388.68 87.1991 388.81 87.1391H388.93C390.03 86.8991 391 86.5291 392.1 86.2291C398.38 84.2791 404.53 81.2891 410.33 77.3891C424.84 67.3291 435.63 51.4791 439.83 33.8691L445.93 10.2791C445.93 10.1591 445.99 9.84906 446.42 9.84906C446.66 9.66906 446.91 10.0891 446.97 10.2191L451.36 31.9191L451.79 33.7491C456.97 59.1091 475.2 78.6091 500.62 86.0491L504.03 86.9591C504.27 87.0191 504.46 87.1391 504.46 87.5091L504.09 87.9991L498.48 89.8891C488.06 93.4291 478.85 98.9091 471.23 106.169C469.83 107.509 468.55 108.849 467.27 110.249C459.59 118.849 454.29 129.329 451.91 140.669L451.9 140.659ZM534.31 211.679L531.87 224.239L528.64 211.619C526.63 203.569 522.42 196.199 516.51 190.279C511.69 185.459 506.21 181.929 500.05 179.729L498.22 179.119C498.28 179.119 498.34 179.059 498.4 179.059C506.75 176.499 514.13 171.319 519.8 164.129C524.01 158.829 527.05 152.489 528.52 146.029L531.75 133.779L534.19 145.849C537.48 161.939 549.06 174.319 565.16 178.949L565.4 179.009L563.75 179.619C557.17 181.809 551.38 185.229 546.5 189.859C543.57 192.659 541.14 195.769 539.19 199.059C536.93 202.899 535.29 207.109 534.31 211.679Z" fill="white"/>
<path d="M241.3 312.13L238.37 308.9C238.74 309.08 239.1 309.33 239.47 309.57C240.32 310.24 240.99 311.15 241.3 312.13Z" fill="white"/>
</svg>
