<?xml version="1.0" encoding="UTF-8"?><svg id="Camada_3" xmlns="http://www.w3.org/2000/svg" xmlns:xlink="http://www.w3.org/1999/xlink" viewBox="0 0 1920 1080"><defs><style>.cls-1{fill:#fff;}.cls-2{fill:url(#Gradiente_sem_nome_43);opacity:.8;}.cls-3{opacity:.2;}.cls-3,.cls-4{fill:#05183c;}.cls-5{fill:#e4dede;}.cls-6{fill:#e5e3e3;}.cls-7{fill:#ee4a00;}.cls-8{fill:#ff6d2a;}.cls-4{opacity:.17;}.cls-9{fill:#fc5500;}</style><linearGradient id="Gradiente_sem_nome_43" x1="406.39" y1="584.7" x2="1954.2" y2="584.7" gradientUnits="userSpaceOnUse"><stop offset="0" stop-color="#fff"/><stop offset=".08" stop-color="#f8f9f9"/><stop offset=".2" stop-color="#e6e8eb"/><stop offset=".33" stop-color="#c8ccd4"/><stop offset=".48" stop-color="#9fa6b4"/><stop offset=".65" stop-color="#6a758b"/><stop offset=".82" stop-color="#2a3a59"/><stop offset=".91" stop-color="#05183c"/><stop offset="1" stop-color="#05183c"/></linearGradient></defs><g><g><path class="cls-7" d="M484.79,398.13l-90.63,27.75-90.63-27.75s6.98-3.84,17.61-8.79c13.58-6.3,33.17-14.38,51.75-18.46,7.39-1.62,14.62-2.62,21.27-2.62s14.01,.92,21.27,2.45c18.97,3.97,38.33,12.02,51.75,18.38,10.68,5.06,17.61,9.05,17.61,9.05Z"/><path class="cls-1" d="M415.58,387.46c0,4-3.24,7.25-7.24,7.25h-28.51c-4,0-7.24-3.47-7.24-7.47h-.22l.38-29.66c0-11.78,9.55-21.34,21.34-21.34,5.89,0,11.22,2.39,15.09,6.26,3.85,3.85,6.24,9.19,6.24,15.08v29.87h.16Z"/><path class="cls-6" d="M467.34,401.74v-84.38h-146.52v84.42c-10.62-2.07-17.66-3.65-17.66-3.65l90.93,27.75,90.91-27.75s-7.05,1.56-17.66,3.61Zm-59-7.03h-28.51c-3.99,0-7.24-3.48-7.24-7.47h.15v-29.66c0-11.78,9.54-21.34,21.34-21.34,5.89,0,11.21,2.39,15.09,6.27s6.24,9.19,6.24,15.08v29.87h.15c0,3.99-3.25,7.25-7.24,7.25Z"/><path class="cls-8" d="M481.54,317.05h-14.19v.31h-146.52v-.31h-14.21c.28-.82,.65-1.64,1.1-2.44,16.37-30.52,41.9-51.29,81.63-52.9v-5.35c0-2.61,2.12-4.74,4.75-4.74,1.31,0,2.49,.52,3.33,1.39,.87,.86,1.41,2.04,1.41,3.34v5.35c39.71,1.63,65.24,22.38,81.61,52.9,.45,.8,.81,1.63,1.1,2.44Z"/><path class="cls-8" d="M485.01,398.13l-27.09,58.24c-18.59,6.72-43.74,13.74-67.41,13.74-20.18,0-42.51-5.99-60.23-12.17l.04-.31c-.15-.03-.3-.06-.45-.08l-26.71-59.42s62.26,13.67,90.37,13.67c29.51,0,91.48-13.67,91.48-13.67Z"/><path class="cls-5" d="M466.46,527.65c-18.89,7.43-48.42,16.95-75.95,16.95-23.66,0-50.33-8.25-68.99-15.39l.63-5.1,2.54-20.61,5.59-45.54c17.72,6.18,40.05,12.17,60.23,12.17,23.66,0,48.82-7.03,67.41-13.74l-.17,.38,3.57,29.07,5.14,41.82Z"/><path class="cls-8" d="M477.38,616.47c-17.09,7.39-52.71,20.87-85.46,20.87-29.51,0-63.7-12.82-81.18-20.3l10.78-87.82c18.66,7.14,45.33,15.39,68.99,15.39,27.53,0,57.06-9.51,75.95-16.95l6.83,55.59,3.23,26.22,.86,7.01Z"/><path class="cls-5" d="M490.31,721.61c-2.94,1.21-6.69,2.7-11.1,4.33-.16,.05-.31,.11-.47,.17,.19-.1,.34-.17,.47-.23l-.14-1.09-1.69-13.83c-2.23,1.33-12.62,7.45-25.35,13.71-1,.51-2.02,1-3.06,1.51-1.31,.61-2.63,1.25-3.98,1.87,.11-.34,.23-.69,.35-1.03,1.53-4.29,5.86-10.44,3.54-15.37-.19-.41-.4-.79-.63-1.14-.11-.18-.24-.35-.36-.51-.13-.17-.26-.32-.4-.47,1.26-2.83,2.39-5.89,1.97-8.7-.03-.26-.09-.53-.16-.79h0c-.1-.4-.24-.79-.42-1.17-.54-1.17-1.23-2.12-2.05-2.86-.66-.59-1.39-1.06-2.18-1.4-.2-.09-.41-.17-.61-.24-1.86-.67-4.02-.77-6.26-.5-2.49,.29-5.09,1.04-7.51,2.02,0,0,0,.01-.01,.01-1.04,.41-2.04,.86-2.98,1.34-.32,.16-.63,.32-.93,.48-1.21,.64-2.3,1.31-3.23,1.95-.24,.16-.46,.31-.67,.47-.68-.88-1.22-2.26-1.76-3.8-.12-.34-.24-.7-.37-1.05-.24-.71-.49-1.44-.76-2.16-.2-.53-.41-1.06-.64-1.57-.15-.33-.31-.66-.48-.98h0c-.25-.48-.52-.93-.81-1.34-.2-.27-.4-.52-.62-.75-.21-.23-.45-.44-.7-.63-.12-.09-.24-.18-.37-.26-.39-.24-.81-.41-1.27-.51-.15-.04-.31-.06-.47-.08-.33-.03-.65-.03-.96,0-.3,.03-.6,.09-.88,.19-.12,.04-.24,.08-.35,.14-.17,.07-.34,.16-.5,.25-.09,.05-.19,.11-.28,.18-.16,.11-.32,.22-.47,.35h-.01s-.01,.02-.02,.03c-.12,.1-.24,.21-.36,.32-.1,.1-.2,.2-.29,.31-.09,.09-.17,.19-.25,.29t-.01,.01c-.21,.25-.41,.53-.61,.82-.12,.17-.23,.35-.33,.53-.11,.18-.22,.37-.32,.56-.2,.37-.39,.76-.57,1.16h-.01c-.14,.31-.27,.62-.4,.93-.13,.31-.25,.63-.36,.94-.12,.31-.23,.62-.33,.92-.08,.23-.15,.46-.23,.68-.08,.23-.15,.45-.21,.67-.32,1.02-.59,1.93-.83,2.64-.11,.32-.22,.65-.33,1-.11,.35-.23,.71-.34,1.08,0,0-.01,.01-.01,.02-.17,.56-.35,1.14-.54,1.73-.27,.87-.55,1.78-.86,2.71-.04,.15-.09,.3-.14,.44-1.39,4.3-3.09,8.85-5.26,11.46-.25,.3-.51,.58-.77,.82-.39,.37-.8,.69-1.21,.96-.28,.18-.56,.34-.84,.48-.29,.14-.57,.26-.86,.37-.15,.06-.3,.11-.44,.16-1.87,.62-3.84,.73-5.7,1.2-.23,.05-.45,.11-.68,.18-.1,.03-.2,.06-.3,.1-.32,.11-.65,.23-.97,.38-.65,.3-1.27,.68-1.86,1.19-.27,.23-.57,.51-.89,.82-.15,.15-.32,.3-.48,.48-.17,.16-.35,.34-.52,.52-.51,.54-1.06,1.12-1.59,1.73-.36,.4-.71,.81-1.05,1.23,.01,.01,0,.01,0,.01-.34,.41-.67,.83-.97,1.24-.77,1.04-1.41,2.03-1.77,2.86-.09,.21-.18,.4-.28,.59-.18,.37-.37,.69-.57,.98-.2,.29-.41,.54-.62,.76-.21,.22-.43,.41-.65,.56-.11,.08-.22,.15-.34,.22-.67,.38-1.38,.54-2.12,.6-.01,.01-.02,.01-.03,0-.73,.05-1.47,0-2.23-.02h-.18c-.51-.02-1.03-.01-1.55,.04-.17,.02-.35,.04-.52,.08h0c-.43,.08-.87,.21-1.3,.42-.43,.2-.85,.48-1.26,.86h0c-.04,.05-.09,.09-.13,.14,0,0-.01,.01-.01,0-.08,.08-.16,.15-.23,.24-.12,.12-.23,.25-.33,.39-.26,.33-.47,.69-.65,1.06-.14,.28-.26,.57-.36,.86-.07,.22-.15,.46-.21,.69-.02,.04-.03,.09-.04,.13-.05,.19-.1,.39-.14,.58-2.72-.48-5.42-1.02-8.1-1.59-1.33-.29-2.67-.59-3.99-.89-1.33-.31-2.64-.62-3.95-.95-4.46-1.09-8.82-2.29-12.99-3.51h0s-.01-.01-.01-.01c-4.4-1.29-8.62-2.62-12.57-3.93-.04,0-.07-.01-.1-.03-3.81-1.28-7.38-2.54-10.65-3.73-.84-.31-1.66-.62-2.45-.92-1.42-.53-2.78-1.05-4.06-1.55-.03,0-.06-.02-.09-.03-.29-.12-.57-.23-.86-.34-.46-.17-.9-.35-1.33-.52-.45-.18-.9-.36-1.33-.53-.01,0-.03-.01-.04-.01-1.11-.45-2.14-.87-3.08-1.26l12.44-101.03,.42-3.42h0c1.04,.44,2.14,.9,3.29,1.38,.06,.03,.12,.05,.18,.08,1.68,.69,3.48,1.42,5.37,2.17,.51,.2,1.03,.4,1.55,.61,.48,.19,.97,.38,1.47,.57,.69,.26,1.39,.52,2.1,.79,1.7,.64,3.47,1.29,5.28,1.93,.15,.05,.29,.11,.44,.16,1.04,.36,2.1,.73,3.17,1.1,.09,.03,.18,.06,.27,.09,1.12,.39,2.26,.77,3.42,1.15,.11,.03,.21,.06,.32,.1,.71,.23,1.42,.46,2.14,.69,3.18,1,6.45,1.98,9.8,2.9,.91,.25,1.83,.5,2.75,.74,2.72,.71,5.48,1.38,8.26,2,.9,.2,1.8,.39,2.7,.58,1.81,.37,3.62,.72,5.44,1.04,.67,.12,1.34,.23,2.01,.34,.32,.05,.64,.1,.95,.16,.79,.12,1.57,.24,2.36,.35,.05,0,.1,.01,.16,.02,.85,.12,1.71,.24,2.56,.34,.07,.01,.13,.02,.2,.03,.88,.11,1.77,.21,2.65,.3,1.77,.18,3.54,.33,5.3,.44,.07,0,.15,0,.22,.02,.86,.04,1.71,.09,2.56,.12,.56,.03,1.13,.05,1.69,.06,.85,.03,1.7,.04,2.54,.04h.03c.9,0,1.8-.01,2.71-.04,.34,0,.68-.01,1.02-.02,.66-.02,1.32-.04,1.98-.07,.39-.02,.77-.04,1.16-.06,.66-.03,1.31-.07,1.96-.12,.21-.01,.41-.03,.61-.04,.75-.06,1.49-.12,2.23-.18,2.03-.18,4.06-.4,6.08-.66,.71-.09,1.42-.18,2.13-.29,.3-.03,.6-.07,.89-.12,.54-.07,1.08-.16,1.62-.24,2.67-.41,5.34-.88,7.98-1.41,.83-.16,1.66-.33,2.48-.51,.66-.14,1.32-.28,1.97-.42,5.1-1.12,10.08-2.41,14.86-3.79,.77-.22,1.53-.45,2.29-.67,.76-.23,1.51-.46,2.26-.69,1.5-.46,2.97-.92,4.41-1.39,.72-.24,1.44-.47,2.15-.71,.7-.23,1.4-.47,2.1-.71,.59-.2,1.18-.41,1.77-.61,2.14-.75,4.2-1.49,6.17-2.23,.63-.23,1.25-.47,1.86-.7,.08-.03,.16-.06,.24-.09,.53-.2,1.05-.4,1.56-.6,.52-.2,1.01-.4,1.5-.59,.45-.18,.89-.35,1.32-.52,1.3-.52,2.55-1.03,3.74-1.52,.02-.01,.05-.02,.08-.03,1.55-.65,3-1.26,4.33-1.84h0s12.93,105.15,12.93,105.15Z"/><path class="cls-8" d="M363.47,741.29c-.83,3.92-.17,8.04-7.45,7-8.25-1.19-7.57-7.6-13.6,2.28-1.11,1.83-2.37,4.27-3.91,6.58-2.7,4.12-6.23,7.78-11.3,6.89-6.38-1.17-7.05-10.59-14.99-11.14-6.24-.44-8.66,5.31-14.42,5.8,.14-1.74-.53-3.68-2.67-6.17,2.43-3.7,4.43-6.52,.35-11.59l2.39-19.43c12.06,4.96,38.23,14.91,65.59,19.8Z"/><path class="cls-8" d="M496.29,770.3c-.34,.25-.69,.5-1.04,.76h-.01c-.71,.5-1.45,1-2.18,1.5h-.01c-.74,.51-1.48,1.01-2.21,1.52-1.1,.77-2.16,1.55-3.11,2.35-.72,.61-1.41,1.19-2.1,1.78-2.22,1.88-4.31,3.77-6.17,5.73-3.09,.61-6.19,4.73-9.28,5.56-.04,.01-.08,.02-.12,.03-.2,.05-.4,.08-.6,.1-.24-.41-.45-.82-.65-1.25h0c-.19-.43-.36-.87-.52-1.31-.31-.89-.55-1.81-.72-2.74h0s-.01-.02-.01-.04h.01c.04-.36,.09-.71,.14-1.06,.21-1.69,.47-3.33,.68-4.88,.53-3.99,2.61-10.79,2.34-16.07-.01-.31-.02-.62-.07-.92-.02-.29-.07-.59-.12-.87-.03-.22-.07-.43-.13-.63-.01-.1-.04-.2-.07-.28-.1-.38-.22-.73-.36-1.07,.95-5.16,1.48-10.71-1.03-13.64-.53,1.05-1.18,2.53-1.93,4.2t0,.01v.02c-1.09,2.4-2.38,5.18-3.83,7.67h0c-3.45,5.86-7.8,9.95-12.44,2.89-3.02-4.58-.56-10-1.56-14.99-.05-.31-.12-.62-.22-.93-.04-.2-.1-.39-.17-.59-.06-.24-.14-.48-.23-.7-.07-.23-.15-.44-.23-.65-.15-.35-.29-.7-.44-1.04-.48-1.04-1-2.04-1.53-3.05,8.4-2.3,15.58-4.79,21.1-6.88,1.99-.76,3.77-1.48,5.3-2.11-.01-.07-.03-.13-.05-.18-.05-.09-.1-.16-.17-.21,2.15-.75,4.18-1.48,6.11-2.2,.03-.01,.06-.02,.08-.02,.16-.06,.31-.12,.47-.17,4.41-1.63,8.16-3.12,11.1-4.33l2.64,21.44h-.01c-.17,.06-.34,.1-.52,.14-.24,.06-.48,.11-.72,.17-.69,.16-1.34,.32-1.95,.47-.33,.07-.65,.16-.95,.24-.07,.01-.15,.03-.22,.05-.1,.03-.21,.06-.31,.09-.43,.11-.84,.22-1.22,.33-.17,.04-.33,.08-.49,.13-.3,.08-.59,.17-.86,.25t-.02,0c-.67,.21-1.25,.41-1.72,.6-.05,.02-.09,.04-.13,.05h-.01c-.24,.1-.45,.19-.64,.29-.13,.06-.25,.12-.36,.19-.42,.23-.69,.45-.83,.68-.89,1.48,4.05,2.79,9.5,5.73h.01c.93,.5,1.87,1.05,2.8,1.65,0,.02,.01,.02,.01,.02l.07,.53h0c-.31,.1-.62,.2-.94,.28-.33,.08-.66,.16-1.01,.24-1.49,.34-2.81,.65-3.95,.93-.59,.15-1.14,.29-1.65,.43-.08,.03-.17,.06-.26,.09-.16,.04-.3,.08-.45,.12-.14,.05-.27,.09-.41,.13-1.14,.34-2,.65-2.6,.96-.62,.29-.98,.59-1.14,.87-.01,.04-.04,.09-.04,.14-.04,.12-.04,.25,.03,.39,.03,.08,.07,.16,.12,.24,.13,.17,.33,.34,.59,.52,.21,.14,.47,.29,.76,.45,2.5,1.38,7.66,3.13,12.23,6.36,.07,.06,.17,.12,.24,.17l.4,3.32Z"/><path class="cls-7" d="M415.58,387.46c0,4-3.24,7.25-7.24,7.25h-28.51c-4,0-7.43-3.41-7.43-7.41l43.18,.15Z"/><g><path class="cls-9" d="M295.14,752.52h-.01c-.32-.37-.63-.69-.94-.96l1.31-10.64c4.08,5.07,2.08,7.9-.35,11.59Z"/><path class="cls-9" d="M494.31,754.13c-9.95-6.45-21.18-6.52-1.9-10.93,.18-.04,.37-.08,.53-.14l1.36,11.07Z"/><path class="cls-9" d="M447.49,709.53c-2.29-2.61-5.87-3.23-9.71-2.77-5.71,.65-11.96,3.71-15.33,6.16-2.42-3.09-3.09-12.37-8.25-12.89-5.42-.57-7.38,8.21-8.59,11.69-1.72,5.01-4,14.01-7.47,18.12-4.01,4.73-9.6,2.29-13.63,5.73-2.16,1.84-6.11,6.13-7.27,8.71-2.95,6.65-7.74,1.49-11.66,5.02-4.57,4.07,.48,12.28-9.55,10.87-8.25-1.16-7.58-7.44-13.61,2.24-1.11,1.8-2.37,4.2-3.9,6.46-2.7,4.03-6.23,7.65-11.3,6.76-6.38-1.14-7.05-10.4-14.99-10.95-6.65-.45-8.95,5.98-15.59,5.75-.56-.01-1.1-.07-1.62-.17h-.01c-.96-.18-1.86-.49-2.72-.9,.04-.1,.08-.2,.13-.3,.08-.19,.17-.38,.27-.58,1.86-4.05,4.88-6.61,5.12-9.8,3.04-.26,5.16-1.98,7.39-3.49,1.9-1.28,3.89-2.4,6.62-2.32,.14-.01,.27,0,.41,.01,7.94,.55,8.61,9.98,14.99,11.14,5.07,.9,8.6-2.76,11.3-6.88,1.06-1.61,2-3.28,2.85-4.76,.36-.65,.71-1.26,1.05-1.82,1.02-1.66,1.84-2.87,2.56-3.71,3.5-4.16,4.19,.44,11.05,1.44,1.39,.2,2.48,.21,3.36,.07,.17-.03,.32-.06,.47-.1,.16-.04,.32-.08,.47-.14,.13-.04,.26-.09,.38-.16,.09-.04,.18-.08,.26-.13,.37-.21,.66-.47,.91-.77,.1-.12,.19-.25,.27-.39,.05-.07,.1-.15,.14-.24,.13-.24,.24-.5,.33-.77,.1-.27,.17-.56,.24-.86,.04-.18,.08-.35,.11-.54,.01-.02,.01-.04,.01-.06,.1-.52,.18-1.05,.26-1.6,.07-.44,.15-.88,.24-1.32,.04-.19,.09-.39,.14-.58,.07-.28,.15-.55,.25-.82,.08-.22,.17-.44,.27-.66,.02-.07,.06-.14,.09-.2,.18-.37,.39-.73,.65-1.06,.1-.13,.21-.26,.33-.39,.08-.08,.16-.17,.24-.24,.04-.05,.09-.09,.13-.13,.41-.38,.83-.66,1.26-.87,.43-.2,.86-.33,1.3-.42h0c.17-.03,.35-.06,.52-.08,.52-.05,1.04-.06,1.55-.04h.18c.76,.03,1.51,.07,2.23,.02,.01,.01,.02,.01,.03,0,.74-.05,1.45-.21,2.12-.6,.12-.07,.23-.14,.34-.22,.22-.16,.44-.34,.65-.56,.21-.22,.42-.47,.62-.76,.19-.29,.39-.62,.57-.98,.1-.19,.19-.38,.28-.59,.36-.83,1-1.82,1.77-2.86,.31-.41,.63-.82,.97-1.24,0,0,.01,0,0-.01,.35-.42,.7-.83,1.05-1.23,.53-.61,1.08-1.19,1.59-1.73,.18-.18,.35-.35,.52-.52,.16-.16,.33-.32,.48-.48,.32-.3,.62-.57,.89-.81,.59-.52,1.21-.9,1.86-1.2,.32-.15,.65-.27,.97-.38,.1-.04,.2-.07,.3-.1,.23-.07,.45-.13,.68-.18,1.86-.46,3.82-.58,5.7-1.2,.14-.05,.29-.1,.44-.16,.29-.11,.58-.23,.86-.37s.56-.3,.84-.48c.41-.27,.82-.58,1.21-.96,.26-.24,.52-.52,.77-.82,2.17-2.61,3.87-7.16,5.26-11.46,.05-.14,.1-.29,.14-.44,.31-.93,.59-1.84,.86-2.71,.19-.59,.37-1.17,.54-1.73,0-.01,.01-.02,.01-.02,.11-.37,.23-.73,.34-1.08,.1-.34,.21-.67,.32-.99,.24-.71,.51-1.63,.84-2.65,.06-.22,.13-.44,.21-.67,.08-.22,.15-.45,.23-.68,.1-.3,.21-.61,.33-.92,.11-.31,.23-.63,.36-.94,.13-.31,.26-.62,.4-.93h.01c.18-.4,.37-.79,.57-1.16,.1-.19,.21-.38,.32-.56,.1-.18,.21-.36,.33-.53,.2-.29,.4-.57,.61-.82t.01-.01c.08-.1,.16-.2,.25-.29,.09-.11,.19-.21,.29-.31,.12-.11,.24-.22,.36-.32,.01-.01,.01-.02,.02-.02h.01c.15-.14,.31-.25,.47-.36,.09-.07,.18-.13,.28-.18,.16-.09,.33-.18,.5-.25,.12-.05,.23-.1,.35-.14,.28-.09,.57-.15,.88-.19,.31-.03,.63-.03,.96,.01,.16,.02,.32,.04,.47,.07,.46,.1,.88,.28,1.27,.51,.13,.08,.25,.17,.37,.26,.25,.19,.48,.4,.7,.63s.42,.48,.62,.75c.29,.41,.56,.86,.81,1.33h0c.17,.32,.32,.65,.48,.99,.22,.51,.44,1.04,.64,1.57,.27,.72,.52,1.45,.76,2.16,.12,.35,.24,.71,.37,1.05,.54,1.54,1.08,2.92,1.76,3.8,.21-.16,.43-.31,.67-.47,.93-.64,2.02-1.3,3.23-1.95,.3-.16,.61-.32,.93-.48,.94-.47,1.95-.92,2.98-1.34,.01,0,.01-.01,.01-.01,2.42-.96,5.01-1.72,7.51-2.01,2.24-.28,4.39-.17,6.26,.49,.2,.07,.41,.15,.61,.24,.79,.35,1.53,.81,2.18,1.4,.82,.74,1.51,1.69,2.05,2.86,.17,.38,.31,.77,.42,1.16h0c.07,.27,.12,.53,.16,.8,.42,2.81-.71,5.87-1.97,8.7Z"/><path class="cls-9" d="M469.98,758.51c-.08-.17-.15-.32-.22-.46-.09-.2-.21-.41-.35-.59-.12-.21-.28-.43-.46-.62-.07,.15-.16,.31-.24,.46-.08,.17-.17,.34-.24,.51h0c-.04,.07-.07,.14-.1,.19-.05,.12-.11,.24-.17,.37-.29,.63-.61,1.33-.95,2.09-.09,.17-.16,.34-.24,.51-.1,.22-.21,.46-.32,.7-.51,1.11-1.07,2.29-1.66,3.46-1.08,2.15-2.29,4.28-3.61,6.03-.47,.61-.94,1.19-1.45,1.68-1.29,1.32-2.67,2.17-4.1,2.18-.42,0-.85-.06-1.28-.21-.11-.03-.21-.07-.31-.11h-.01c-.1-.06-.2-.1-.31-.16-.1-.05-.21-.11-.31-.17h-.02c-.21-.14-.4-.28-.62-.45-.21-.15-.42-.33-.64-.56-.54-.53-1.07-1.19-1.62-2.01-.15-.22-.29-.46-.43-.7h0c-.26-.48-.45-.97-.62-1.46-1.28-3.99,.34-8.42-.51-12.55-.17-.86-.42-1.67-.7-2.44-.2-.51-.41-1-.63-1.48-.24-.49-.48-.98-.72-1.46-.36-.7-.74-1.41-1.12-2.11-.26-.49-.51-.98-.73-1.47-.24-.5-.47-.99-.66-1.51-.21-.52-.4-1.05-.55-1.6-.07-.27-.16-.53-.21-.8-.27-1.07-.45-2.14-.57-3.2v-.02c-.05-.66-.09-1.32-.11-1.98h0c1.08-.28,2.14-.56,3.18-.86,.53,1.01,1.05,2.01,1.53,3.05,.15,.34,.29,.69,.44,1.04,.08,.21,.16,.42,.23,.65,.09,.22,.17,.46,.23,.7,.07,.2,.13,.39,.17,.59,.1,.31,.17,.62,.22,.93,1,4.99-1.46,10.41,1.56,14.99,4.64,7.06,8.99,2.97,12.44-2.88h0c1.45-2.5,2.74-5.28,3.83-7.68v-.02s.01-.01,0-.01c.75-1.67,1.4-3.15,1.93-4.2,2.51,2.93,1.98,8.48,1.03,13.64Z"/><path class="cls-9" d="M497.58,780.8c-2.92,2.36-6.9,4.57-9.85,7.01-.25,.21-.5,.42-.75,.62-1.06,.88-2.1,1.74-3.11,2.63-1.57,1.35-3.06,2.73-4.41,4.15-2.25,.42-4.51,2.69-6.78,4.18-1.06,.73-2.15,1.3-3.23,1.38-2.78-4.76-2.57-10.79-1.88-16.44,.17,.93,.41,1.85,.72,2.74,.15,.44,.32,.88,.52,1.3h0c.19,.44,.41,.86,.64,1.27,.21-.02,.41-.05,.61-.11,.04-.01,.08-.02,.12-.03,2.92-.87,4.91-5.21,7.66-6.73,2.41-1.33,5.23-2.9,7.76-4.71,.74-.52,1.46-1.06,2.13-1.63,.95-.8,2.01-1.58,3.11-2.35,.73-.5,1.47-1.01,2.21-1.51h.01c.74-.51,1.47-1,2.18-1.5h.01c.36-.26,.7-.51,1.04-.76l1.29,10.49Z"/></g><g><path class="cls-9" d="M316.59,739.55c-.24-.24-.14-1.05,0-1.36,.42-.93,2.16-3.1,3.09-2.68,.92,.42,.71,3.32,0,4.04-.55,.55-2.54,.55-3.09,0Z"/><path class="cls-9" d="M305.45,756.11c-.41-.41-.24-1.81,0-2.35,.73-1.61,3.73-5.36,5.34-4.63,1.59,.72,1.23,5.74,0,6.98-.94,.94-4.39,.94-5.34,0Z"/><path class="cls-9" d="M369.91,737.62c-.34,.51-1.81,.63-2.42,.5-1.81-.42-6.31-2.71-5.9-4.52,.41-1.79,5.65-2.48,7.18-1.47,1.17,.77,1.9,4.33,1.13,5.5Z"/><path class="cls-9" d="M459.99,716.45c-.24-.24-.14-1.05,0-1.36,.42-.93,2.16-3.1,3.09-2.68s.71,3.32,0,4.04c-.55,.55-2.54,.55-3.09,0Z"/><path class="cls-9" d="M441.07,668.98c-.24-.24-.14-1.05,0-1.36,.42-.93,2.16-3.1,3.09-2.68s.71,3.32,0,4.04c-.55,.55-2.54,.55-3.09,0Z"/><path class="cls-9" d="M336.45,738.15c-2-1-3.02-5.75-.66-6.69,3.59-1.42,14.1,2.95,12.91,5.47-.9,1.9-9.95,2.36-12.25,1.21Z"/><path class="cls-9" d="M298.36,740.2c-1.33-1.03-1.49-5.95,0-6.74,1.91-1.01,7.53,2.73,7.16,4.87-.31,1.82-5.69,3-7.16,1.87Z"/><path class="cls-9" d="M359.38,727.9c1.01-1.08,2.72-3.51,3.63-4.69,.41-.53,1.01-2.35,1.65-2.13,2.24,.76,1.51,7.63,0,9.46-1.69,2.04-9.25,4.36-10.43,1.98-.77-1.55,3.97-3.35,5.15-4.62Z"/><path class="cls-9" d="M383.01,718.64c-1.27-.91-.8-4.91,0-6.25,.85-1.43,4.41-4.01,5.84-3.16,.6,.35,0,2.08,0,2.77,0,1.17,.68,3.72,0,4.67-.9,1.25-4.58,2.87-5.84,1.97Z"/><path class="cls-9" d="M328.2,756.48c-1.35-.27-3.81-4.09-4.26-5.65-.48-1.66-.19-5.55,1.21-5.4,.59,.06,1.42,1.88,1.89,2.51,.8,1.05,2.93,3.06,3.18,4.22,.33,1.52-.69,4.59-2.03,4.33Z"/><path class="cls-9" d="M412.38,684.52c-.75-1.54,2.63-5.95,4.26-5.39,1.27,.44,.95,4.43,0,5.39-.75,.75-3.79,.96-4.26,0Z"/><path class="cls-9" d="M346.88,751.45c-2.61,1.76-12.02,.88-11.55-1.21,.37-1.64,7.91-3.78,10.03-3.35,1.67,.34,3.14,3.47,1.52,4.56Z"/><path class="cls-9" d="M407.93,692.15c-2.9-.19-6.46-9.13-4.13-10.86,1.78-1.32,6.57,3.26,7.04,5.43,.32,1.51-1.37,5.53-2.91,5.43Z"/><path class="cls-9" d="M488.99,770.39c-.86-.06-1.92-2.71-1.23-3.23,.53-.39,1.95,.97,2.09,1.61,.1,.45-.41,1.64-.86,1.61Z"/><path class="cls-9" d="M473.01,781.75c-1.51-.1-3.37-4.76-2.15-5.66,.93-.69,3.43,1.7,3.67,2.83,.17,.79-.72,2.88-1.52,2.83Z"/><path class="cls-9" d="M472.77,728.72c.17,1.07-2.39,2.89-3.48,2.94-.45,.01-1.24-.37-1.81-.83,1.98-.76,3.77-1.48,5.3-2.11Z"/><path class="cls-9" d="M378.67,722.91c-1.8-.12-4-5.65-2.56-6.73,1.11-.82,4.07,2.02,4.36,3.36,.2,.93-.85,3.42-1.8,3.36Z"/><path class="cls-9" d="M342.34,718.96c-1.45-.09-3.24-4.57-2.07-5.44,.89-.66,3.29,1.63,3.52,2.72,.16,.75-.69,2.77-1.46,2.72Z"/><path class="cls-9" d="M321.44,719.74c-1.45-.09-3.24-4.57-2.07-5.44,.89-.66,3.29,1.63,3.52,2.72,.16,.75-.69,2.77-1.46,2.72Z"/><path class="cls-9" d="M488.38,732.38c-.86-.06-1.92-2.71-1.23-3.23,.53-.39,1.95,.97,2.09,1.61,.1,.45-.41,1.64-.86,1.61Z"/><path class="cls-9" d="M464.49,745.03c-.86-.06-1.92-2.71-1.23-3.23,.53-.39,1.95,.97,2.09,1.61,.1,.45-.41,1.64-.86,1.61Z"/><path class="cls-9" d="M444.65,692.19c-.86-.06-1.92-2.71-1.23-3.23,.53-.39,1.95,.97,2.09,1.61,.1,.45-.41,1.64-.86,1.61Z"/><path class="cls-9" d="M454.98,677.69c-.86-.06-1.92-2.71-1.23-3.23,.53-.39,1.95,.97,2.09,1.61,.1,.45-.41,1.64-.86,1.61Z"/><path class="cls-9" d="M451.81,723.69s.1,.39,.22,.98c-1,.51-2.02,1-3.06,1.5-.51-2.04-.66-4.33-.38-5.48,.28-1.05,2.22-3.41,3.22-2.96,1.38,.59,0,5.96,0,5.96Z"/><path class="cls-9" d="M443.66,681.4c2.13-1.29,6.17,5.09,6.5,7.56,.15,1.09-.79,3.99-1.88,3.96-1.49-.05-2.22-5.54-2.22-5.54,0,0-3.77-5.14-2.4-5.98Z"/><path class="cls-9" d="M483.26,745.23c-1.32-1.32,0-5.58,0-7.44,0-.73-.71-2.76,0-2.91,2.78-.6,6.22,7.97,4.68,10.36-.63,.98-3.85,.83-4.68,0Z"/><path class="cls-9" d="M473.43,772.29c-.5-.96-.54-3.39,0-4.33,.57-.99,2.83-2.45,3.96-2.28,2.22,.34,6.3,4.37,6.07,6.6-.16,1.53-3.48,3.57-5.01,3.57s-4.31-2.2-5.01-3.57Z"/><path class="cls-9" d="M461.06,756.65c-2.43-1.67-2.08-9.71,0-11.79,.61-.61,2.75-.51,3.44,0,1.97,1.45,3.96,7.14,2.89,9.34-.74,1.53-4.93,3.41-6.33,2.45Z"/></g><path class="cls-4" d="M305.95,398.73c.42,.08,.9,.18,1.41,.3-.51-.1-.98-.2-1.41-.3Z"/><path class="cls-4" d="M320.83,401.77h0c-.32-.04-.65-.11-.96-.18,.31,.06,.63,.11,.96,.18Z"/><path class="cls-4" d="M305.95,398.73c.42,.08,.9,.18,1.41,.3-.51-.1-.98-.2-1.41-.3Z"/><path class="cls-4" d="M320.83,401.77h0c-.32-.04-.65-.11-.96-.18,.31,.06,.63,.11,.96,.18Z"/></g><path class="cls-3" d="M485.63,778.21l-.03-.15-.55-4.19-1.63-13.42-.08-.62-.24-1.99-1.39-11.43-2.5-20.47v-.06c-.13,.06-.28,.13-.47,.23-.02,0-.05,.01-.08,.02-1.93,.72-3.96,1.45-6.11,2.2,.07,.05,.12,.12,.17,.21,.02,.05,.04,.11,.05,.18-1.53,.63-3.31,1.35-5.3,2.11-5.52,2.09-12.7,4.58-21.1,6.88-1.04,.3-2.1,.58-3.18,.85h0c.02,.67,.06,1.33,.11,1.99v.02c.12,1.06,.3,2.13,.57,3.2,.05,.27,.14,.53,.21,.8,.15,.55,.34,1.08,.55,1.6,.19,.52,.42,1.01,.66,1.51,.22,.49,.47,.98,.73,1.47,.38,.7,.76,1.41,1.12,2.11,.24,.48,.48,.97,.72,1.46,.22,.48,.43,.97,.63,1.48,.28,.77,.53,1.58,.7,2.44,.85,4.13-.77,8.56,.51,12.55,.17,.49,.36,.98,.62,1.45h0c.14,.25,.28,.49,.43,.71,.55,.82,1.08,1.48,1.62,2.01,.22,.23,.43,.41,.64,.56,.22,.17,.41,.31,.62,.45h.02c.1,.06,.21,.12,.31,.17,.11,.06,.21,.1,.31,.16h.01c.1,.04,.2,.08,.31,.11,.43,.15,.86,.21,1.28,.21,1.43-.01,2.81-.86,4.1-2.18,.51-.49,.98-1.07,1.45-1.68,1.32-1.75,2.53-3.88,3.61-6.03,.59-1.17,1.15-2.35,1.66-3.46,.11-.24,.22-.48,.32-.7,.08-.17,.15-.34,.24-.51,.34-.76,.66-1.46,.95-2.09,.06-.13,.12-.25,.17-.37,.03-.05,.06-.12,.1-.18h0c.07-.18,.16-.35,.24-.52,.08-.15,.17-.31,.24-.46,.18,.19,.34,.41,.46,.62,.14,.18,.26,.39,.35,.59,.07,.14,.14,.29,.22,.46,.14,.34,.26,.69,.36,1.07,.03,.08,.06,.18,.07,.28,.06,.2,.1,.41,.13,.63,.05,.28,.1,.58,.12,.87,.05,.3,.06,.61,.07,.92,.27,5.28-1.81,12.08-2.34,16.07-.21,1.55-.47,3.19-.68,4.88-.05,.35-.1,.7-.14,1.05h-.01s0,.04,.01,.04h0c-.69,5.66-.9,11.69,1.88,16.45,1.08-.08,2.17-.65,3.23-1.38,2.27-1.49,4.53-3.76,6.78-4.18,1.35-1.42,2.84-2.8,4.41-4.15,1.01-.89,2.05-1.75,3.11-2.63v-.03l-1.35-10.19Zm-37.74-68.21c.12,.16,.25,.33,.36,.51,.23,.35,.44,.73,.63,1.14,2.32,4.93-2.01,11.08-3.54,15.37-.12,.34-.24,.69-.35,1.03,1.35-.62,2.67-1.26,3.98-1.87,1.04-.51,2.06-1,3.06-1.51,12.73-6.26,23.12-12.38,25.35-13.71l-10.95-89.75-.02-.25-.27-2.18-.86-7.07-.7-5.72-2.53-20.71-6.53-53.56h0s-.3-2.48-.3-2.48l-1.46-11.98-3.68-30.19-3.28-26.93h0s-.29-2.38-.29-2.38l.17-.37,25.53-55.35h.01s.03-.07,.03-.07l.61-1.29v-.03s0,0-.03,0c-.31,.05-2.6,.44-5.49,1-2.71,.51-5.95,1.15-8.54,1.75-.01,.01-.02,.01-.03,.01-1.01,.24-1.92,.47-2.66,.69v-87.12h14.19c-.28-.82-.65-1.73-1.1-2.53-14.96-28.13-37.59-48.04-71.69-52.5-1.4-.12-8.16-.26-8.16-.26h-.01c-1.24,.05-2.47,.11-3.68,.21-.61,.04-1.21,.09-1.81,.14-.6,.05-1.19,.11-1.78,.17-.9,.09-1.79,.19-2.67,.32-.3,.04-.61,.07-.91,.12-.52,.07-1.04,.15-1.55,.23-.05,0-.09,0-.13,.02-.04,0-.08,0-.12,.01-.81,.12-1.61,.25-2.39,.41-.3,.05-.59,.1-.89,.16-.56,.1-1.12,.21-1.67,.33-1.1,.22-2.19,.48-3.27,.74-1.09,.26-2.15,.54-3.21,.85-.84,.24-1.66,.49-2.48,.75-.21,.07-.43,.12-.64,.19-.5,.15-1,.32-1.49,.5-.02,.01-.04,.01-.05,.02-.13,.05-.26,.09-.38,.14-.13,.04-.27,.08-.4,.13-.55,.18-1.1,.38-1.63,.58-.4,.14-.81,.3-1.2,.47-.3,.11-.59,.22-.88,.35-.41,.15-.8,.32-1.2,.49-.16,.06-.33,.12-.49,.22-.01,0-.01,.01-.02,.01-.04,.02-.09,.04-.13,.05-.75,.31-1.48,.64-2.22,.99-.18,.07-.35,.15-.53,.25-.84,.39-1.69,.8-2.52,1.23t-.02,.03c-.71,.34-1.4,.71-2.08,1.11-.43,.21-.83,.44-1.24,.69-.69,.38-1.36,.77-2.04,1.21-.12,.07-.23,.15-.35,.22,0,0,0,0-.01,0-.64,.39-1.28,.78-1.9,1.19-.21,.13-.42,.27-.63,.42-.32,.21-.64,.43-.96,.66-.42,.29-.83,.58-1.25,.87-3.72,2.63-7.22,5.57-10.47,8.77-.36,.36-.73,.71-1.08,1.09-.33,.33-.66,.67-.99,1.01-.46,.47-.91,.94-1.33,1.41-.63,.68-1.25,1.36-1.85,2.06-.34,.39-.68,.77-1.01,1.17-.33,.39-.66,.78-.99,1.18-.98,1.19-1.94,2.41-2.88,3.65-.63,.83-1.24,1.66-1.84,2.52-.3,.43-.6,.86-.9,1.29-2.68,3.86-5.16,7.94-7.46,12.22-.35,.62-.63,1.24-.87,1.87h0c-.07,.18-.14,.32-.2,.49h8.56v.08h5.62v72.23c-10.67,4.96-17.66,8.8-17.66,8.8l.04,.08v.03h.01v.03l26.66,59.24c.15,.03,.29,.05,.45,.08l-.02,.14h0s-.02,.16-.02,.16l-5.6,45.51-.02,.21-2.52,20.39v.16s-.63,4.94-.63,4.94l-10.78,87.76-.42,3.42-.03,.2-12.41,100.77-2.39,19.42-1.3,10.63s.02,.02,.03,.03c0,.01,.01,.01,.01,.01,.29,.24,.59,.55,.9,.89h.01c.05,.07,.09,.11,.14,.17,1.94,2.3,2.62,4.14,2.55,5.79v.04c0,.06,0,.12-.02,.18-.24,3.19-3.26,5.75-5.11,9.8-.11,.22-.21,.45-.31,.66-.03,.07-.07,.15-.1,.22,.03,.02,.07,.04,.13,.07h.01s.09,.04,.14,.06c.44,.21,1.28,.6,2.44,1.14h.01c.52,.1,1.06,.16,1.62,.17,6.64,.23,8.94-6.2,15.59-5.75,7.94,.55,8.61,9.81,14.99,10.95,5.07,.89,8.6-2.73,11.3-6.76,1.53-2.26,2.79-4.66,3.9-6.46,6.03-9.68,5.36-3.4,13.61-2.24,10.03,1.41,4.98-6.8,9.55-10.87,3.92-3.53,8.71,1.63,11.66-5.02,1.16-2.58,5.11-6.87,7.27-8.71,4.03-3.44,9.62-1,13.63-5.73,3.47-4.11,5.75-13.11,7.47-18.12,1.21-3.48,3.17-12.26,8.59-11.69,5.16,.52,5.83,9.8,8.25,12.89,3.37-2.45,9.62-5.51,15.33-6.16,3.84-.46,7.42,.16,9.71,2.77,.14,.15,.27,.3,.4,.47Zm-127.06-308.33c-.32-.06-.65-.13-.96-.2,.31,.05,.64,.11,.96,.18v.02Zm-5.62,.67c-.32-.06-.65-.13-.96-.2,.31,.06,.64,.12,.96,.19h0Z"/><path class="cls-5" d="M455.28,516.52s-19.67,11.24-43.56,18.27c-21.31,6.27-53.4,5.62-53.4,5.62,0,0,15.46,4.22,26.7,4.22,40.77,0,70.85-13.04,70.85-13.04l-.59-15.07Z"/><path class="cls-8" d="M466.52,605.05s-25.82,11.06-49.18,19.67c-26.7,9.84-57.61,8.43-57.61,8.43,0,0,29.43,6.59,50.59,2.81,39.34-7.03,57.61-15.46,57.61-15.46l-1.41-15.46Z"/><polygon class="cls-8" points="481.54 317.05 392.04 316.99 474.95 305.75 481.54 317.05"/></g><path class="cls-2" d="M393.1,335.78l1526.65-103.78V937.4L372.4,387.31l-.46-28.61c0-12.09,9.25-22.11,21.16-22.92Z"/></svg>