<?xml version="1.0" encoding="UTF-8"?><svg id="Camada_3" xmlns="http://www.w3.org/2000/svg" xmlns:xlink="http://www.w3.org/1999/xlink" viewBox="0 0 1920 1080"><defs><style>.cls-1{fill:#fff;}.cls-2{fill:url(#Gradiente_sem_nome_43);opacity:.8;}.cls-3{opacity:.2;}.cls-3,.cls-4{fill:#05183c;}.cls-5{fill:#e4dede;}.cls-6{fill:#e5e3e3;}.cls-7{fill:#ee4a00;}.cls-8{fill:#ff6d2a;}.cls-4{opacity:.17;}.cls-9{fill:#fc5500;}</style><linearGradient id="Gradiente_sem_nome_43" x1="406.39" y1="584.7" x2="1954.2" y2="584.7" gradientUnits="userSpaceOnUse"><stop offset="0" stop-color="#fff"/><stop offset=".08" stop-color="#f8f9f9"/><stop offset=".2" stop-color="#e6e8eb"/><stop offset=".33" stop-color="#c8ccd4"/><stop offset=".48" stop-color="#9fa6b4"/><stop offset=".65" stop-color="#6a758b"/><stop offset=".82" stop-color="#2a3a59"/><stop offset=".91" stop-color="#05183c"/><stop offset="1" stop-color="#05183c"/></linearGradient></defs><g><g><path class="cls-7" d="M484.79,398.13l-90.63,27.75-90.63-27.75s6.98-3.84,17.61-8.79c13.58-6.3,33.17-14.38,51.75-18.46,7.39-1.62,14.62-2.62,21.27-2.62s14.01,.92,21.27,2.45c18.97,3.97,38.33,12.02,51.75,18.38,10.68,5.06,17.61,9.05,17.61,9.05Z"/><path class="cls-1" d="M415.58,387.46c0,4-3.24,7.25-7.24,7.25h-28.51c-4,0-7.24-3.47-7.24-7.47h-.22l.38-29.66c0-11.78,9.55-21.34,21.34-21.34,5.89,0,11.22,2.39,15.09,6.26,3.85,3.85,6.24,9.19,6.24,15.08v29.87h.16Z"/><path class="cls-6" d="M467.34,401.74v-84.38h-146.52v84.42c-10.62-2.07-17.66-3.65-17.66-3.65l90.93,27.75,90.91-27.75s-7.05,1.56-17.66,3.61Zm-59-7.03h-28.51c-3.99,0-7.24-3.48-7.24-7.47h.15v-29.66c0-11.78,9.54-21.34,21.34-21.34,5.89,0,11.21,2.39,15.09,6.27s6.24,9.19,6.24,15.08v29.87h.15c0,3.99-3.25,7.25-7.24,7.25Z"/><path class="cls-8" d="M481.54,317.05h-14.19v.31h-146.52v-.31h-14.21c.28-.82,.65-1.64,1.1-2.44,16.37-30.52,41.9-51.29,81.63-52.9v-5.35c0-2.61,2.12-4.74,4.75-4.74,1.31,0,2.49,.52,3.33,1.39,.87,.86,1.41,2.04,1.41,3.34v5.35c39.71,1.63,65.24,22.38,81.61,52.9,.45,.8,.81,1.63,1.1,2.44Z"/><path class="cls-8" d="M485.01,398.13l-27.09,58.24c-18.59,6.72-43.74,13.74-67.41,13.74-20.18,0-42.51-5.99-60.23-12.17l.04-.31c-.15-.03-.3-.06-.45-.08l-26.71-59.42s62.26,13.67,90.37,13.67c29.51,0,91.48-13.67,91.48-13.67Z"/><path class="cls-5" d="M466.46,527.65c-18.89,7.43-48.42,16.95-75.95,16.95-23.66,0-50.33-8.25-68.99-15.39l.63-5.1,2.54-20.61,5.59-45.54c17.72,6.18,40.05,12.17,60.23,12.17,23.66,0,48.82-7.03,67.41-13.74l-.17,.38,3.57,29.07,5.14,41.82Z"/><path class="cls-8" d="M477.38,616.47c-17.09,7.39-52.71,20.87-85.46,20.87-29.51,0-63.7-12.82-81.18-20.3l10.78-87.82c18.66,7.14,45.33,15.39,68.99,15.39,27.53,0,57.06-9.51,75.95-16.95l6.83,55.59,3.23,26.22,.86,7.01Z"/><path class="cls-5" d="M490.31,721.61c-2.94,1.21-6.69,2.7-11.1,4.33-.15,.06-.31,.11-.46,.17,.18-.1,.34-.17,.46-.22l-.14-1.1-1.69-13.83c-2.23,1.33-12.62,7.45-25.35,13.71-1,.51-2.02,1-3.06,1.5-1.31,.62-2.63,1.25-3.98,1.87,.11-.34,.23-.69,.35-1.03,1.53-4.29,5.86-10.44,3.54-15.37-.2-.41-.41-.79-.63-1.14-.11-.18-.24-.35-.37-.51-.13-.17-.25-.32-.39-.48,1.56-3.5,2.92-7.36,1.39-10.67-2.05-4.47-6.38-5.56-11.1-4.99-5.71,.66-11.96,3.78-15.33,6.27-2.42-3.13-3.09-12.59-8.25-13.12-1.35-.14-2.47,.3-3.44,1.11-1.15,.96-2.05,2.43-2.78,4.03-1.11,2.43-1.81,5.16-2.36,6.77-1.73,5.1-4,14.26-7.48,18.44-4,4.83-9.6,2.33-13.63,5.85-2.16,1.88-6.11,6.24-7.26,8.88-1.84,4.23-4.41,3.75-7.03,3.7-1.57-.04-3.16,.06-4.64,1.41-.04,.04-.1,.08-.14,.14-.35,.32-.63,.69-.87,1.07-.07,.11-.14,.22-.21,.35-.01,.01-.03,.04-.04,.07-.06,.13-.13,.25-.18,.39-.2,.44-.35,.89-.48,1.35-.06,.15-.08,.3-.13,.45-.01,.1-.03,.18-.06,.27-5.42-.97-10.81-2.14-16.03-3.43-4.47-1.1-8.82-2.29-13-3.51h0c-15.65-4.58-28.93-9.72-36.56-12.86l12.44-101.03,.42-3.43c16.65,7.14,48.44,19.1,76.92,20.21,1.43,.07,2.85,.1,4.26,.1,26.82,0,55.57-9.04,74.49-16.37,.52-.2,1.01-.39,1.5-.59,3.57-1.41,6.76-2.73,9.47-3.91l12.93,105.15Z"/><path class="cls-8" d="M363.47,741.29c-.83,3.92-.17,8.04-7.45,7-8.25-1.19-7.57-7.6-13.6,2.28-1.11,1.83-2.37,4.27-3.91,6.58-2.7,4.12-6.23,7.78-11.3,6.89-6.38-1.17-7.05-10.59-14.99-11.14-6.24-.44-8.66,5.31-14.42,5.8,.14-1.74-.53-3.68-2.67-6.17,2.43-3.7,4.43-6.52,.35-11.59l2.39-19.43c12.06,4.96,38.23,14.91,65.59,19.8Z"/><path class="cls-8" d="M496.29,770.3c-2.73,2.02-6.03,3.99-8.56,6.13-.72,.6-1.42,1.19-2.11,1.78-2.22,1.88-4.31,3.77-6.17,5.73-3.33,.66-6.67,5.4-10,5.69-.94-1.64-1.53-3.44-1.88-5.31-.01,0-.01-.01-.01-.03h.01c.04-.37,.08-.72,.14-1.07,.21-1.69,.46-3.33,.67-4.88,.53-3.99,2.61-10.79,2.35-16.08-.01-.31-.03-.62-.07-.91-.03-.3-.07-.59-.13-.87-.03-.22-.07-.44-.13-.63-.01-.1-.04-.2-.07-.28-.1-.38-.22-.73-.37-1.07,.96-5.16,1.49-10.71-1.03-13.64-.53,1.05-1.18,2.54-1.93,4.22h0c-1.1,2.42-2.39,5.2-3.84,7.69-3.44,5.86-7.8,9.95-12.44,2.89-3.02-4.58-.56-10-1.56-14.99-.06-.31-.13-.62-.22-.93-.04-.2-.1-.39-.17-.59-.06-.24-.14-.48-.22-.7-.07-.22-.15-.44-.24-.65-.14-.35-.28-.7-.44-1.04-.48-1.04-1-2.04-1.53-3.05,8.4-2.3,15.58-4.79,21.11-6.89,1.98-.76,3.77-1.48,5.3-2.11-.01-.07-.03-.13-.06-.18-.04-.08-.1-.15-.17-.21,2.15-.74,4.19-1.48,6.11-2.19,.03-.01,.06-.03,.08-.03,.15-.06,.31-.11,.46-.17,4.41-1.63,8.16-3.12,11.1-4.33l2.64,21.44h-.01c-.17,.06-.34,.1-.52,.14-1.59,.37-2.96,.69-4.15,1.01-1.98,.51-3.44,.96-4.45,1.36-5.83,2.37,2.71,3.51,10.48,8.54,0,.01,.01,.01,.01,.01l.07,.53h-.01c-.31,.1-.62,.2-.94,.28-.32,.08-.66,.15-1.01,.24-1.49,.34-2.81,.65-3.95,.93-.59,.15-1.14,.3-1.64,.44-.08,.03-.17,.06-.27,.08-.15,.04-.3,.08-.45,.13-.14,.04-.27,.08-.41,.13-1.14,.34-2,.65-2.6,.96-.62,.3-.98,.59-1.14,.87-.01,.04-.04,.1-.04,.14-.04,.13-.04,.25,.03,.39,.03,.08,.07,.15,.13,.24,.13,.17,.32,.34,.59,.52,.21,.14,.46,.3,.76,.45,2.5,1.38,7.66,3.13,12.22,6.37,.07,.06,.17,.11,.24,.17l.41,3.32Z"/><path class="cls-7" d="M415.58,387.46c0,4-3.24,7.25-7.24,7.25h-28.51c-4,0-7.43-3.41-7.43-7.41l43.18,.15Z"/><g><path class="cls-9" d="M295.14,752.52h-.01c-.32-.37-.63-.69-.94-.96l1.31-10.64c4.08,5.07,2.08,7.9-.35,11.59Z"/><path class="cls-9" d="M494.31,754.13c-9.95-6.45-21.18-6.52-1.9-10.93,.18-.04,.37-.08,.53-.14l1.36,11.07Z"/><path class="cls-9" d="M447.49,709.53c-2.29-2.61-5.87-3.23-9.71-2.77-5.71,.65-11.96,3.71-15.33,6.15-2.42-3.09-3.09-12.37-8.25-12.89-5.42-.58-7.38,8.21-8.59,11.69-1.73,5-4,14.01-7.48,18.11-4,4.74-9.6,2.29-13.63,5.73-2.16,1.84-6.11,6.13-7.26,8.71-2.95,6.65-7.74,1.49-11.66,5.02-4.57,4.08,.48,12.28-9.56,10.88-8.25-1.17-7.57-7.45-13.6,2.23-1.11,1.8-2.37,4.2-3.91,6.46-2.7,4.03-6.23,7.64-11.3,6.76-6.38-1.14-7.05-10.4-14.99-10.95-6.65-.45-8.95,5.97-15.58,5.75-1.59-.04-3.02-.44-4.36-1.07,.13-.3,.25-.58,.41-.89,1.85-4.05,4.88-6.6,5.11-9.79,5.76-.49,8.18-6.24,14.42-5.8,7.94,.55,8.61,9.98,14.99,11.14,5.07,.9,8.6-2.77,11.3-6.89,1.53-2.3,2.8-4.75,3.91-6.58,6.03-9.88,5.35-3.47,13.6-2.28,10.03,1.43,4.99-6.93,9.56-11.09,3.92-3.6,8.71,1.66,11.66-5.1,1.15-2.64,5.1-7,7.26-8.88,4.03-3.51,9.63-1.01,13.63-5.85,3.47-4.17,5.75-13.34,7.48-18.44,1.21-3.56,3.16-12.49,8.59-11.92,5.16,.53,5.83,9.99,8.25,13.12,3.37-2.49,9.63-5.61,15.33-6.27,4.72-.58,9.05,.52,11.1,4.99,1.53,3.3,.17,7.17-1.39,10.67Z"/><path class="cls-9" d="M469.98,758.51c-.07-.17-.14-.32-.21-.46-.1-.2-.21-.41-.35-.59-.13-.21-.28-.42-.46-.62-.07,.15-.15,.31-.24,.46-.08,.17-.17,.34-.24,.51h0c-.04,.07-.07,.14-.1,.2-.06,.11-.11,.24-.17,.37-.3,.63-.62,1.33-.96,2.09-.08,.17-.15,.34-.24,.51-.1,.22-.21,.46-.32,.7-.51,1.11-1.07,2.29-1.66,3.46-1.08,2.15-2.29,4.29-3.61,6.03-.46,.62-.94,1.19-1.45,1.69-1.29,1.32-2.67,2.16-4.1,2.18-.42,0-.84-.06-1.28-.21-.11-.03-.21-.07-.31-.11h-.01c-.1-.06-.2-.1-.31-.15-.1-.06-.21-.11-.31-.17h-.01c-.21-.14-.41-.28-.62-.45-.21-.15-.42-.34-.65-.56-.53-.53-1.07-1.19-1.62-2.01-.15-.22-.3-.46-.44-.7h0c-.25-.48-.45-.97-.62-1.46-1.28-3.99,.34-8.42-.51-12.55-.17-.86-.42-1.67-.7-2.44-.2-.51-.41-1-.63-1.48-.24-.49-.48-.98-.72-1.46-.37-.7-.74-1.41-1.12-2.11-.25-.49-.51-.98-.73-1.48-.24-.49-.46-.98-.66-1.5-.21-.52-.39-1.05-.55-1.6-.07-.27-.15-.53-.21-.8-.27-1.07-.45-2.14-.56-3.2h0c-.06-.67-.1-1.33-.11-2h0c1.08-.28,2.14-.56,3.18-.86,.53,1.01,1.05,2.01,1.53,3.05,.15,.34,.3,.69,.44,1.04,.08,.21,.17,.42,.24,.65,.08,.22,.17,.46,.22,.7,.07,.2,.13,.39,.17,.59,.1,.31,.17,.62,.22,.93,1,4.99-1.46,10.41,1.56,14.99,4.64,7.05,8.99,2.96,12.44-2.89,1.45-2.49,2.74-5.27,3.84-7.67h0c.74-1.69,1.39-3.18,1.93-4.23,2.52,2.94,1.98,8.49,1.03,13.64Z"/><path class="cls-9" d="M497.58,780.8c-2.92,2.36-6.9,4.57-9.85,7.01-1.32,1.08-2.61,2.15-3.86,3.25-1.57,1.35-3.06,2.73-4.41,4.15-2.25,.42-4.51,2.7-6.77,4.19-1.07,.73-2.15,1.29-3.23,1.38-2.78-4.76-2.57-10.79-1.88-16.44,.35,1.87,.94,3.67,1.88,5.31,3.33-.3,5.42-5.23,8.39-6.87,3.1-1.72,6.91-3.84,9.89-6.34,2.53-2.14,5.83-4.1,8.56-6.13l1.29,10.5Z"/></g><g><path class="cls-9" d="M316.59,739.55c-.24-.24-.14-1.05,0-1.36,.42-.93,2.16-3.1,3.09-2.68,.92,.42,.71,3.32,0,4.04-.55,.55-2.54,.55-3.09,0Z"/><path class="cls-9" d="M305.45,756.11c-.41-.41-.24-1.81,0-2.35,.73-1.61,3.73-5.36,5.34-4.63,1.59,.72,1.23,5.74,0,6.98-.94,.94-4.39,.94-5.34,0Z"/><path class="cls-9" d="M369.91,737.62c-.34,.51-1.81,.63-2.42,.5-1.81-.42-6.31-2.71-5.9-4.52,.41-1.79,5.65-2.48,7.18-1.47,1.17,.77,1.9,4.33,1.13,5.5Z"/><path class="cls-9" d="M459.99,716.45c-.24-.24-.14-1.05,0-1.36,.42-.93,2.16-3.1,3.09-2.68s.71,3.32,0,4.04c-.55,.55-2.54,.55-3.09,0Z"/><path class="cls-9" d="M441.07,668.98c-.24-.24-.14-1.05,0-1.36,.42-.93,2.16-3.1,3.09-2.68s.71,3.32,0,4.04c-.55,.55-2.54,.55-3.09,0Z"/><path class="cls-9" d="M336.45,738.15c-2-1-3.02-5.75-.66-6.69,3.59-1.42,14.1,2.95,12.91,5.47-.9,1.9-9.95,2.36-12.25,1.21Z"/><path class="cls-9" d="M298.36,740.2c-1.33-1.03-1.49-5.95,0-6.74,1.91-1.01,7.53,2.73,7.16,4.87-.31,1.82-5.69,3-7.16,1.87Z"/><path class="cls-9" d="M359.38,727.9c1.01-1.08,2.72-3.51,3.63-4.69,.41-.53,1.01-2.35,1.65-2.13,2.24,.76,1.51,7.63,0,9.46-1.69,2.04-9.25,4.36-10.43,1.98-.77-1.55,3.97-3.35,5.15-4.62Z"/><path class="cls-9" d="M383.01,718.64c-1.27-.91-.8-4.91,0-6.25,.85-1.43,4.41-4.01,5.84-3.16,.6,.35,0,2.08,0,2.77,0,1.17,.68,3.72,0,4.67-.9,1.25-4.58,2.87-5.84,1.97Z"/><path class="cls-9" d="M328.2,756.48c-1.35-.27-3.81-4.09-4.26-5.65-.48-1.66-.19-5.55,1.21-5.4,.59,.06,1.42,1.88,1.89,2.51,.8,1.05,2.93,3.06,3.18,4.22,.33,1.52-.69,4.59-2.03,4.33Z"/><path class="cls-9" d="M412.38,684.52c-.75-1.54,2.63-5.95,4.26-5.39,1.27,.44,.95,4.43,0,5.39-.75,.75-3.79,.96-4.26,0Z"/><path class="cls-9" d="M346.88,751.45c-2.61,1.76-12.02,.88-11.55-1.21,.37-1.64,7.91-3.78,10.03-3.35,1.67,.34,3.14,3.47,1.52,4.56Z"/><path class="cls-9" d="M407.93,692.15c-2.9-.19-6.46-9.13-4.13-10.86,1.78-1.32,6.57,3.26,7.04,5.43,.32,1.51-1.37,5.53-2.91,5.43Z"/><path class="cls-9" d="M488.99,770.39c-.86-.06-1.92-2.71-1.23-3.23,.53-.39,1.95,.97,2.09,1.61,.1,.45-.41,1.64-.86,1.61Z"/><path class="cls-9" d="M473.01,781.75c-1.51-.1-3.37-4.76-2.15-5.66,.93-.69,3.43,1.7,3.67,2.83,.17,.79-.72,2.88-1.52,2.83Z"/><path class="cls-9" d="M472.77,728.72c.17,1.07-2.39,2.89-3.48,2.94-.45,.01-1.24-.37-1.81-.83,1.98-.76,3.77-1.48,5.3-2.11Z"/><path class="cls-9" d="M378.67,722.91c-1.8-.12-4-5.65-2.56-6.73,1.11-.82,4.07,2.02,4.36,3.36,.2,.93-.85,3.42-1.8,3.36Z"/><path class="cls-9" d="M342.34,718.96c-1.45-.09-3.24-4.57-2.07-5.44,.89-.66,3.29,1.63,3.52,2.72,.16,.75-.69,2.77-1.46,2.72Z"/><path class="cls-9" d="M321.44,719.74c-1.45-.09-3.24-4.57-2.07-5.44,.89-.66,3.29,1.63,3.52,2.72,.16,.75-.69,2.77-1.46,2.72Z"/><path class="cls-9" d="M488.38,732.38c-.86-.06-1.92-2.71-1.23-3.23,.53-.39,1.95,.97,2.09,1.61,.1,.45-.41,1.64-.86,1.61Z"/><path class="cls-9" d="M464.49,745.03c-.86-.06-1.92-2.71-1.23-3.23,.53-.39,1.95,.97,2.09,1.61,.1,.45-.41,1.64-.86,1.61Z"/><path class="cls-9" d="M444.65,692.19c-.86-.06-1.92-2.71-1.23-3.23,.53-.39,1.95,.97,2.09,1.61,.1,.45-.41,1.64-.86,1.61Z"/><path class="cls-9" d="M454.98,677.69c-.86-.06-1.92-2.71-1.23-3.23,.53-.39,1.95,.97,2.09,1.61,.1,.45-.41,1.64-.86,1.61Z"/><path class="cls-9" d="M451.81,723.69s.1,.39,.22,.98c-1,.51-2.02,1-3.06,1.5-.51-2.04-.66-4.33-.38-5.48,.28-1.05,2.22-3.41,3.22-2.96,1.38,.59,0,5.96,0,5.96Z"/><path class="cls-9" d="M443.66,681.4c2.13-1.29,6.17,5.09,6.5,7.56,.15,1.09-.79,3.99-1.88,3.96-1.49-.05-2.22-5.54-2.22-5.54,0,0-3.77-5.14-2.4-5.98Z"/><path class="cls-9" d="M483.26,745.23c-1.32-1.32,0-5.58,0-7.44,0-.73-.71-2.76,0-2.91,2.78-.6,6.22,7.97,4.68,10.36-.63,.98-3.85,.83-4.68,0Z"/><path class="cls-9" d="M473.43,772.29c-.5-.96-.54-3.39,0-4.33,.57-.99,2.83-2.45,3.96-2.28,2.22,.34,6.3,4.37,6.07,6.6-.16,1.53-3.48,3.57-5.01,3.57s-4.31-2.2-5.01-3.57Z"/><path class="cls-9" d="M461.06,756.65c-2.43-1.67-2.08-9.71,0-11.79,.61-.61,2.75-.51,3.44,0,1.97,1.45,3.96,7.14,2.89,9.34-.74,1.53-4.93,3.41-6.33,2.45Z"/></g><path class="cls-4" d="M305.95,398.73c.42,.08,.9,.18,1.41,.3-.51-.1-.98-.2-1.41-.3Z"/><path class="cls-4" d="M320.83,401.77h0c-.32-.04-.65-.11-.96-.18,.31,.06,.63,.11,.96,.18Z"/><path class="cls-4" d="M305.95,398.73c.42,.08,.9,.18,1.41,.3-.51-.1-.98-.2-1.41-.3Z"/><path class="cls-4" d="M320.83,401.77h0c-.32-.04-.65-.11-.96-.18,.31,.06,.63,.11,.96,.18Z"/></g><path class="cls-3" d="M488.93,803.28l-1.95-14.84v-.04l-1.35-10.19-.03-.15-.55-4.19-1.63-13.42-.08-.62-.24-2-1.39-11.42-2.5-20.47v-.06c-.13,.06-.28,.13-.46,.22-.03,0-.06,.01-.08,.03-1.93,.72-3.96,1.45-6.11,2.19,.07,.06,.13,.13,.17,.21,.03,.06,.04,.11,.06,.18-1.53,.63-3.32,1.35-5.3,2.11-5.52,2.09-12.7,4.58-21.11,6.89-1.04,.3-2.09,.58-3.18,.84-.03-1.72,.13-3.45,.42-5.14,.1-.52,.2-1.05,.32-1.57h0c.08-.42,.18-.83,.3-1.24,.07-.32,.17-.65,.25-.97,.11-.35,.21-.69,.32-1.04,.06-.18,.11-.37,.18-.55,1.35-.62,2.67-1.25,3.98-1.87,1.04-.51,2.07-1,3.06-1.5,12.73-6.27,23.12-12.38,25.35-13.71l-10.95-89.75-.03-.25-.27-2.18-.86-7.07-.7-5.72-2.53-20.71-6.53-53.57-.3-2.47-1.46-11.99-3.68-30.18-3.27-26.94-.3-2.37,.17-.37,25.53-55.35h.01s.63-1.38,.63-1.38h0s-11.96,2.04-16.75,3.44v-87.12h14.19c-.28-.82-.65-1.73-1.1-2.53-14.96-28.13-37.59-48.04-71.69-52.5-1.41-.13-8.16-.27-8.16-.27-1.24,.06-2.47,.11-3.68,.21-1.22,.08-2.42,.18-3.6,.31-.9,.1-1.78,.2-2.67,.32-.83,.1-1.64,.21-2.46,.35-.08,0-.17,.01-.25,.03-.8,.13-1.6,.25-2.39,.41-.86,.15-1.71,.31-2.56,.49-1.1,.22-2.19,.48-3.27,.74-1.08,.25-2.15,.53-3.2,.84-1.05,.3-2.09,.6-3.12,.94-.65,.2-1.29,.42-1.93,.66-.69,.21-1.36,.46-2.02,.72-.41,.14-.81,.3-1.21,.46-.7,.27-1.39,.55-2.08,.84-.17,.06-.34,.13-.51,.22-.79,.32-1.57,.67-2.35,1.04-.18,.07-.35,.15-.53,.25-.84,.39-1.69,.8-2.52,1.24t-.03,.03c-.7,.34-1.39,.7-2.08,1.11-.42,.21-.83,.44-1.24,.69-.69,.38-1.36,.77-2.04,1.21-.76,.45-1.52,.93-2.26,1.42-.21,.13-.42,.27-.63,.42-4.55,3.02-8.78,6.48-12.67,10.3-8,7.8-14.7,17.13-20.33,27.6-.35,.62-.63,1.24-.87,1.87-.07,.17-.14,.32-.2,.49h8.56v.08h5.62v72.23c-10.67,4.96-17.66,8.8-17.66,8.8l.04,.08v.03h.01v.03l26.66,59.24c.15,.03,.3,.06,.45,.08v.14s-.04,.15-.04,.15l-5.59,45.51-.03,.21-2.52,20.39v.15s-.63,4.95-.63,4.95l-10.78,87.75-.42,3.43-.03,.2-12.41,100.77-2.39,19.42-1.31,10.64s.03,.03,.04,.04c.3,.24,.59,.55,.9,.89h.01c.04,.07,.08,.11,.14,.17,1.94,2.3,2.61,4.15,2.54,5.79,0,.07,0,.15-.01,.22-.24,3.19-3.26,5.75-5.11,9.79-.11,.22-.21,.45-.31,.66-.03,.07-.07,.15-.1,.22,.03,.01,.07,.04,.14,.07,.04,.01,.08,.04,.14,.06,.44,.21,1.28,.6,2.44,1.14,2.22,1.04,5.58,2.61,9.34,4.45,7.48,3.64,16.51,8.28,21.29,11.61,1.62,1.11,2.74,2.08,3.16,2.81,.17,0,2.02,.28,5.24,.79,.89,.14,1.9,.31,2.99,.49,5.17,.82,12.49,2.01,21.18,3.4,10.3,1.69,22.5,3.67,35.26,5.73,.91,.14,1.83,.3,2.75,.45,16.13,2.6,33.05,5.33,48.01,7.7,10.9,1.71,20.78,3.26,28.57,4.43,.11,.01,.24,.04,.35,.06,3.11,.46,5.86,.87,8.22,1.21,5.51,.79,8.81,1.18,9.02,1.04l-1.48-11.14Zm-169.06-401.81c.31,.06,.63,.11,.96,.18h0c-.32-.04-.65-.11-.96-.18Zm-4.67,.87c-.32-.06-.65-.13-.96-.2,.31,.06,.63,.11,.96,.18h0Z"/><path class="cls-5" d="M455.28,516.52s-19.67,11.24-43.56,18.27c-21.31,6.27-53.4,5.62-53.4,5.62,0,0,15.46,4.22,26.7,4.22,40.77,0,70.85-13.04,70.85-13.04l-.59-15.07Z"/><path class="cls-8" d="M466.52,605.05s-25.82,11.06-49.18,19.67c-26.7,9.84-57.61,8.43-57.61,8.43,0,0,29.43,6.59,50.59,2.81,39.34-7.03,57.61-15.46,57.61-15.46l-1.41-15.46Z"/><polygon class="cls-8" points="481.54 317.05 392.04 316.99 474.95 305.75 481.54 317.05"/></g><path class="cls-2" d="M393.1,335.78l1526.65-103.78V937.4L372.4,387.31l-.46-28.61c0-12.09,9.25-22.11,21.16-22.92Z"/></svg>