<svg width="652" height="867" viewBox="0 0 652 867" fill="none" xmlns="http://www.w3.org/2000/svg">
<path d="M521.876 827.755C503.969 837.031 437.791 866.978 328.091 866.978C225.074 866.978 153.511 836.802 134.16 827.629C131.06 826.163 129.385 822.771 130.076 819.399L154.077 703.571L154.475 703.508C205.492 695.424 265.221 678.629 327.232 654.923C388.658 678.649 448.303 694.628 499.76 701.12L500.785 701.246L525.707 819.649C526.377 822.895 524.828 826.204 521.874 827.754L521.876 827.755Z" fill="white"/>
<path d="M499.363 692.599C451.446 686.441 396.01 671.845 338.92 650.402C350.626 645.774 362.124 641.04 373.119 636.287C409.832 620.456 444.848 603.283 477.121 585.211L499.361 692.599H499.363Z" fill="white"/>
<path d="M411.632 269.246L452.219 204.724C453.832 202.127 452.303 198.735 449.308 198.233L411.632 191.929V122.822L447.507 122.34C451.906 122.298 454.754 117.712 452.868 113.733C441.852 90.7393 406.333 28.439 341.474 21.193V12.1246C341.474 5.44411 336.029 0 329.348 0H326.374C319.713 0 314.248 5.4454 314.248 12.1246V21.193C249.389 28.439 213.87 90.7393 202.853 113.733C200.947 117.712 203.817 122.298 208.214 122.34L244.089 122.822V190.881L206.245 198.127C203.293 198.693 201.847 202.043 203.44 204.578L244.089 269.246L181.22 574.594L182.12 575.139C213.471 593.923 247.232 611.43 282.479 627.2C297.118 633.754 312.175 640.058 327.254 645.942C341.579 640.413 355.883 634.57 369.79 628.581C406.482 612.791 441.603 595.514 474.19 577.254L475.091 576.752L411.634 269.247L411.632 269.246ZM353.6 172.538C353.6 174.987 351.631 176.956 349.202 176.956H306.52C304.091 176.956 302.101 174.987 302.101 172.538V144.057C302.101 129.901 313.683 118.32 327.861 118.32C334.939 118.32 341.369 121.21 346.039 125.88C350.71 130.55 353.599 136.979 353.599 144.056V172.536L353.6 172.538Z" fill="white"/>
<path d="M315.61 650.359C258.456 671.678 203.293 687.049 155.899 694.818L179.041 583.054C210.308 601.713 243.964 619.157 279.064 634.863C291.315 640.35 303.609 645.544 315.61 650.36V650.359Z" fill="white"/>
<path d="M641.312 666.045C630.339 690.568 597.731 703.342 547.761 703.342C533.457 703.342 517.687 702.274 500.598 700.158L499.571 693.917C499.927 693.813 500.303 693.792 500.681 693.834C573.666 703.027 622.84 691.97 635.574 663.49C648.265 635.157 624.034 591.346 569.101 543.307C567.803 542.176 567.677 540.186 568.808 538.888C569.959 537.568 571.949 537.444 573.247 538.595C631.238 589.294 655.406 634.57 641.311 666.045H641.312Z" fill="white"/>
<path d="M544.484 522.288C543.817 522.288 543.146 522.076 542.575 521.641C518.441 503.143 490.973 484.996 460.93 467.703C459.426 466.838 458.909 464.918 459.776 463.413C460.639 461.91 462.562 461.393 464.066 462.259C494.346 479.688 522.048 497.989 546.399 516.655C547.776 517.711 548.037 519.682 546.981 521.06C546.363 521.867 545.43 522.29 544.487 522.29L544.484 522.288Z" fill="white"/>
<path d="M114.967 538.319C114.307 538.319 113.643 538.112 113.077 537.685C35.0319 478.797 -1.83156 421.902 14.4685 385.488C31.9433 346.446 105.439 337.411 211.064 361.324C212.757 361.707 213.818 363.389 213.434 365.081C213.051 366.774 211.365 367.832 209.677 367.451C108.72 344.598 36.1204 352.492 20.2021 388.055C5.1822 421.608 41.3156 475.67 116.86 532.67C118.245 533.715 118.521 535.684 117.476 537.069C116.857 537.888 115.916 538.319 114.967 538.319Z" fill="white"/>
<path d="M180.947 575.662L179.356 581.797C179 581.735 178.664 581.609 178.351 581.421C164.36 573.044 150.831 564.374 138.098 555.663C136.674 554.678 136.318 552.731 137.28 551.287C138.265 549.863 140.234 549.507 141.658 550.469C154.077 558.993 167.313 567.474 180.947 575.662Z" fill="white"/>
<path d="M477.77 583.661C477.477 583.828 477.141 583.954 476.827 583.996L475.34 577.798C590.798 513.046 658.025 445.573 642.611 409.847C640.768 405.596 637.71 401.806 633.521 398.581C632.139 397.533 631.867 395.566 632.935 394.183C633.983 392.801 635.95 392.549 637.333 393.597C642.401 397.47 646.108 402.099 648.391 407.377C665.417 446.873 598.442 516.085 477.77 583.662V583.661Z" fill="white"/>
<path d="M456.299 401.715C454.888 401.715 453.606 400.758 453.252 399.329C452.834 397.645 453.862 395.941 455.546 395.525C467.113 392.66 491.723 387.026 502.013 384.967C503.721 384.617 505.369 385.73 505.709 387.43C506.05 389.132 504.946 390.786 503.246 391.127C493.216 393.134 468.319 398.834 457.057 401.623C456.804 401.686 456.55 401.715 456.299 401.715Z" fill="white"/>
<path d="M28.6875 638.005C28.1296 638.005 27.5666 637.857 27.0564 637.546C25.5744 636.643 25.1053 634.712 26.0076 633.23C48.8099 595.803 106.512 549.077 184.317 505.033C185.826 504.176 187.742 504.708 188.597 506.219C189.452 507.728 188.921 509.645 187.411 510.499C110.509 554.033 53.635 599.957 31.3711 636.498C30.7799 637.47 29.7452 638.006 28.6861 638.006L28.6875 638.005Z" fill="white"/>
<path d="M153.559 696.467L152.024 702.784C130.275 705.348 110.679 706.331 93.6079 705.745C71.5395 704.988 53.679 701.608 40.7246 695.695C39.1437 694.97 38.4458 693.103 39.1797 691.514C39.8931 689.946 41.7695 689.256 43.371 689.982C65.4484 700.085 103.177 702.324 152.449 696.408C152.842 696.359 153.211 696.393 153.559 696.467Z" fill="white"/>
<path d="M615.594 386.334L611.27 387.786C593.899 393.62 580.719 407.224 576.838 425.131L573.198 443.623C572.697 445.939 569.413 445.996 568.832 443.698L564.119 425.131C559.857 408.266 547.228 393.709 530.827 387.907L526.346 386.321C524.256 385.582 524.392 382.581 526.54 382.034L526.578 382.024C545.329 377.244 559.659 361.557 564.12 342.727L568.826 324.672C569.38 322.333 572.727 322.387 573.206 324.743L576.841 342.728C580.857 362.506 595.792 377.282 615.41 382.029C617.596 382.558 617.729 385.618 615.596 386.334H615.594Z" fill="white"/>
<path d="M21.99 689.604C34.1348 689.604 43.9801 679.76 43.9801 667.616C43.9801 655.472 34.1348 645.627 21.99 645.627C9.84526 645.627 0 655.472 0 667.616C0 679.76 9.84526 689.604 21.99 689.604Z" fill="white"/>
</svg>
