<svg width="600" height="600" viewBox="0 0 600 600" fill="none" xmlns="http://www.w3.org/2000/svg">
<path d="M359.39 186.02H249.67C209.44 186.02 176.52 218.94 176.52 259.17V368.89C176.52 409.12 209.44 442.04 249.67 442.04H359.39C399.62 442.04 432.54 409.12 432.54 368.89V259.17C432.54 218.94 399.62 186.02 359.39 186.02ZM304.53 374.99C270.88 374.99 243.57 347.68 243.57 314.03C243.57 280.38 270.88 253.07 304.53 253.07C338.18 253.07 365.49 280.38 365.49 314.03C365.49 347.68 338.18 374.99 304.53 374.99ZM399.62 239.97L398.4 240.4L397.79 240.58C394.62 241.68 391.76 243.38 389.38 245.64C386.45 248.44 384.32 252.1 383.41 256.25L381.89 263.99C381.71 264.97 380.31 265.03 380.06 264.05L378.11 256.25C377.07 252.35 375 248.69 372.14 245.83C369.88 243.57 367.14 241.75 364.15 240.71L363.36 240.41L362.26 240.04C361.35 239.74 361.41 238.46 362.32 238.21C362.69 238.15 362.99 238.09 363.3 237.97C370.68 235.65 376.28 229.31 378.05 221.76L378.23 221.21L380 214.2C380.24 213.22 381.65 213.22 381.83 214.2L383.23 221.15L383.35 221.76C385 229.68 390.79 235.66 398.47 237.91C398.84 238.03 399.2 238.09 399.57 238.21C400.06 238.33 400.3 238.7 400.3 239.12C400.3 239.49 400.06 239.85 399.63 239.97H399.62Z" fill="#05183C"/>
<path d="M460.72 144.101L455.99 168.301C455.34 171.331 451.04 171.411 450.28 168.411L444.09 144.131C440.96 131.821 434.43 120.461 425.53 111.501C418.49 104.411 409.96 98.8205 400.48 95.4805L398.11 94.6405L394.61 93.4105C391.88 92.4505 392.05 88.5205 394.86 87.8005H394.91C395.92 87.5305 396.92 87.2505 397.91 86.9405C420.95 79.8105 438.39 59.9505 443.95 36.3205L444.42 34.5205L450.08 12.6905C450.8 9.63053 455.18 9.69053 455.81 12.7705L460.21 34.3705L460.6 36.2905C465.66 61.0205 483.75 79.7505 507.76 86.7505C508.87 87.0805 509.99 87.3705 511.12 87.6405C512.6 88.0005 513.36 89.2505 513.36 90.5005C513.36 91.6605 512.71 92.8205 511.36 93.2805L507.57 94.5505L505.7 95.1805C495.66 98.5705 486.7 103.931 479.38 110.901C470.14 119.681 463.53 131.011 460.72 144.091V144.101Z" fill="#05183C"/>
<path d="M543.12 215.161L540.19 230.151C539.79 232.031 537.13 232.081 536.65 230.221L532.81 215.181C530.87 207.561 526.83 200.521 521.32 194.981C516.96 190.591 511.68 187.131 505.81 185.061L504.34 184.541L502.18 183.781C500.49 183.181 500.59 180.751 502.33 180.311H502.36C502.99 180.141 503.61 179.971 504.22 179.781C518.49 175.361 529.29 163.071 532.73 148.431L533.02 147.321L536.53 133.801C536.98 131.911 539.69 131.941 540.08 133.851L542.8 147.221L543.04 148.411C546.17 163.721 557.37 175.321 572.24 179.661C572.93 179.861 573.62 180.041 574.32 180.211C575.24 180.431 575.71 181.211 575.71 181.981C575.71 182.701 575.31 183.421 574.47 183.701L572.13 184.491L570.97 184.881C564.76 186.981 559.2 190.301 554.67 194.611C548.95 200.051 544.86 207.071 543.11 215.161H543.12Z" fill="#05183C"/>
<path d="M300 589.56C147.06 589.56 22.6396 465.14 22.6396 312.21C22.6396 159.28 147.06 34.8496 300 34.8496C331.76 34.8496 362.9 40.1696 392.56 50.6696C395.73 51.7996 397.39 55.2796 396.27 58.4496C395.15 61.6196 391.67 63.2896 388.49 62.1596C360.15 52.1296 330.38 47.0396 300.01 47.0396C153.8 47.0396 34.8496 165.99 34.8496 312.2C34.8496 458.41 153.8 577.36 300.01 577.36C446.22 577.36 565.17 458.41 565.17 312.2C565.17 290.2 562.47 268.35 557.16 247.25C556.34 243.99 558.31 240.68 561.58 239.85C564.85 239.03 568.16 241.01 568.98 244.27C574.54 266.34 577.36 289.19 577.36 312.2C577.36 465.13 452.94 589.55 300 589.55V589.56Z" fill="#05183C"/>
</svg>
