<svg width="600" height="600" viewBox="0 0 600 600" fill="none" xmlns="http://www.w3.org/2000/svg">
<path d="M539.01 192.289C538.4 192.779 537.79 193.269 537.24 193.809C537.73 194.359 538.34 194.659 539.01 194.659C539.38 194.659 539.8 194.539 540.11 194.359C539.74 193.629 539.38 192.959 539.01 192.289Z" fill="white"/>
<path d="M360.96 326.761C360.96 360.411 333.65 387.721 300 387.721C266.35 387.721 239.04 360.411 239.04 326.761C239.04 325.721 239.04 324.751 239.1 323.771V323.651C240.75 291.401 267.38 265.801 300 265.801C332.62 265.801 359.25 291.401 360.9 323.651V323.771C360.96 324.751 360.96 325.721 360.96 326.761Z" fill="white"/>
<path d="M388.39 244.47C388.39 245.08 388.33 245.75 388.27 246.3C387.36 255.5 379.55 262.76 370.1 262.76C360.04 262.76 351.81 254.53 351.81 244.47C351.81 234.41 360.04 226.18 370.1 226.18C379.55 226.18 387.35 233.43 388.27 242.64C388.33 243.19 388.39 243.86 388.39 244.47Z" fill="white"/>
<path d="M539.01 192.289C538.4 192.779 537.79 193.269 537.24 193.809C537.73 194.359 538.34 194.659 539.01 194.659C539.38 194.659 539.8 194.539 540.11 194.359C539.74 193.629 539.38 192.959 539.01 192.289Z" fill="white"/>
<path d="M540.11 194.36C539.8 194.54 539.38 194.66 539.01 194.66C538.34 194.66 537.73 194.36 537.24 193.81C537.79 193.26 538.4 192.77 539.01 192.29C539.38 192.96 539.74 193.63 540.11 194.36C540.29 194.3 540.41 194.24 540.54 194.12C544.2 191.19 548.53 188.82 553.46 187.17L556.75 186.01C558.58 185.46 559.8 183.88 559.8 181.99C559.8 180.1 558.52 178.39 556.57 177.91L554.56 177.36C540.24 173.21 529.93 162.18 527.07 147.92L524.08 133.35C523.71 131.4 522.01 130 520 130C517.87 130.12 516.28 131.28 515.85 133.17L512.31 146.76L512.07 147.8C511.83 148.71 511.58 149.63 511.34 150.6C498.6 134.81 484.15 120.49 468.3 107.93C474.15 103.48 480.8 99.9398 488.05 97.4498L493.72 95.5598C495.98 94.8898 497.44 92.8798 497.44 90.5598C497.44 88.0598 495.79 85.9898 493.35 85.3798L490.06 84.4698C466.41 77.5798 449.4 59.3598 444.59 35.8298L439.84 12.2998C439.29 9.79984 437.22 8.08984 434.66 8.08984H434.6C432.1 8.08984 430.03 9.66984 429.42 12.1098L423.26 35.8198C420.27 48.4998 413.75 60.0798 404.49 69.2898C404.25 69.5298 404.06 69.7798 403.94 70.0798C372 56.7298 336.83 49.4198 300.01 49.4198C150.17 49.3998 28.7402 170.83 28.7402 320.66C28.7402 470.49 150.17 591.92 300 591.92C449.83 591.92 571.26 470.49 571.26 320.66C571.26 275.06 560.04 232.09 540.11 194.36ZM428.01 395.7C428.01 424.84 404.18 448.67 375.04 448.67H224.96C195.82 448.67 171.99 424.84 171.99 395.7V245.63C171.99 216.49 195.82 192.66 224.96 192.66H375.04C404.18 192.66 428.01 216.49 428.01 245.63V395.71V395.7ZM464.46 107.8C464.5 107.84 464.54 107.86 464.58 107.86C463.36 108.77 462.2 109.81 461.04 110.91C451.77 119.69 445.19 131.03 442.33 144.13L437.64 168.33C436.97 171.32 432.7 171.44 431.91 168.39L425.69 144.13C422.58 131.82 416.06 120.48 407.16 111.52C400.09 104.45 391.62 98.8398 382.11 95.4898L379.73 94.6398L376.26 93.4198C373.52 92.4398 373.7 88.5398 376.5 87.8098H376.56C377.53 87.5698 378.57 87.2598 379.55 86.9598C388.88 84.0898 397.29 79.0998 404.36 72.5698L404.42 72.6298C405.39 73.6098 406.86 73.6098 407.83 72.6898C417.77 62.8798 424.71 50.4998 427.88 36.9698L434.1 13.2598C434.1 13.1398 434.16 12.8298 434.59 12.8298C435.02 12.7098 435.14 13.1398 435.14 13.2598L439.89 36.7898C445.07 62.0898 463.3 81.6498 488.78 89.0898L492.19 89.9998C492.31 90.0598 492.62 90.1199 492.62 90.5499L492.25 91.0398L486.58 92.9298C478.53 95.6698 471.22 99.5098 464.88 104.45C463.84 105.24 463.66 106.77 464.45 107.8H464.46ZM536.33 194.6C530.6 200.03 526.52 207.1 524.75 215.14L521.82 230.14C521.39 232.03 518.77 232.09 518.28 230.2L514.44 215.2C512.49 207.58 508.47 200.51 502.98 194.96C498.59 190.57 493.29 187.1 487.44 185.02L485.98 184.53L483.79 183.74C482.14 183.19 482.21 180.75 483.97 180.27C484.64 180.15 485.25 179.97 485.86 179.78C497.93 176 507.5 166.61 512.26 154.97C512.26 154.97 512.32 155.03 512.38 155.03C513.6 155.46 515 154.79 515.43 153.51C515.92 151.99 516.34 150.46 516.77 148.88L519.88 136.75L522.38 148.88C525.61 164.91 537.19 177.29 553.29 181.98L553.53 182.04L551.88 182.65C546.45 184.48 541.64 187.1 537.55 190.45C536.51 191.24 536.33 192.77 537.18 193.8C536.88 194.11 536.57 194.35 536.33 194.59V194.6Z" fill="white"/>
</svg>
