<svg width="802" height="1588" viewBox="0 0 802 1588" fill="none" xmlns="http://www.w3.org/2000/svg">
<g clip-path="url(#clip0_388_51)">
<path d="M77.292 1452.46C75.2122 1452.72 72.4861 1453.18 69.1178 1453.82C65.7418 1454.47 61.7196 1455.32 57.0512 1456.35C56.7891 1458.95 56.5952 1461.68 56.4654 1464.53C56.3318 1467.39 56.2714 1470.5 56.2714 1473.87C56.2714 1476.99 56.3318 1480.88 56.4654 1485.55C56.5952 1490.23 56.7891 1495.81 57.0512 1502.3C57.8271 1515.28 58.219 1524.74 58.219 1530.72C58.219 1553.3 54.7132 1570.95 47.7067 1583.67C46.1485 1586.52 43.8143 1587.95 40.7003 1587.95C37.5864 1587.95 34.3362 1586.52 30.9679 1583.67C27.5919 1580.81 25.3836 1577.7 24.3494 1574.32C21.7532 1566.79 20.457 1557.45 20.457 1546.29C20.457 1544.47 20.651 1540.45 21.0428 1534.22C21.4307 1527.99 22.1412 1519.42 23.183 1508.52C23.4374 1505.15 23.6313 1501.9 23.7649 1498.79C23.8947 1495.68 23.9628 1492.7 23.9628 1489.84C23.9628 1481.53 23.4386 1475.17 22.4045 1470.76C21.8804 1467.12 19.2905 1464.4 14.6183 1462.58C8.64602 1459.99 4.88588 1457.91 3.32633 1456.35C3.06812 1456.09 2.93837 1455.05 2.93837 1453.23C2.93837 1451.94 3.06812 1450.25 3.32633 1448.17C3.58455 1446.1 4.23458 1443.64 5.27256 1440.78C8.12832 1440.78 10.5306 1439.61 12.4768 1437.27C14.423 1434.94 16.4309 1433.77 18.5108 1433.77C20.069 1433.77 21.1032 1433.9 21.6247 1434.16C22.9209 1428.19 23.8947 1421.64 24.5447 1414.49C25.1909 1407.36 25.5185 1399.64 25.5185 1391.33C25.5185 1388.74 25.2564 1383.15 24.7387 1374.59C24.2184 1366.02 23.571 1354.34 22.7925 1339.54C22.7925 1338.25 22.7282 1336.89 22.5985 1335.46C22.4649 1334.03 22.4045 1332.53 22.4045 1330.98C17.4702 1329.42 12.604 1326.37 7.80587 1321.83C3.00003 1317.29 0.605469 1312.55 0.605469 1307.62C0.605469 1301.13 5.27384 1297.24 14.6196 1295.94C21.1057 1294.9 30.192 1292.82 41.8706 1289.71C53.5493 1286.59 67.9552 1282.18 85.082 1276.47C114.927 1266.87 139.064 1261.81 157.496 1261.28C162.168 1261.28 166.256 1262.52 169.756 1264.98C173.262 1267.45 175.014 1270.76 175.014 1274.91C175.014 1280.11 173.391 1284.84 170.148 1289.12C166.898 1293.41 162.686 1296.07 157.496 1297.11H155.938C153.603 1297.11 150.938 1296.46 147.957 1295.16C144.969 1293.86 142.441 1293.21 140.365 1293.21C134.393 1293.74 127.967 1295.03 121.094 1297.11C114.216 1299.19 106.624 1301.91 98.3215 1305.28C87.4214 1309.7 78.6627 1313.2 72.043 1315.79C65.4245 1318.39 60.4247 1320.21 57.0564 1321.24C56.5322 1329.55 56.1443 1337.86 55.8848 1346.16C55.6265 1354.47 55.4968 1362.78 55.4968 1371.08C55.4968 1379.39 55.6265 1387.82 55.8848 1396.39C56.143 1404.95 56.5309 1413.39 57.0564 1421.7C58.3487 1421.96 59.5203 1422.15 60.5583 1422.28C61.5924 1422.41 62.6343 1422.48 63.6722 1422.48C68.5988 1422.48 77.9446 1420.53 91.7031 1416.63C96.893 1415.08 101.69 1413.85 106.108 1412.94C110.518 1412.03 114.282 1411.57 117.4 1411.57C117.916 1411.57 118.498 1411.64 119.148 1411.77C119.794 1411.9 120.38 1411.96 120.9 1411.96C126.09 1412.49 128.687 1414.69 128.687 1418.58C127.132 1428.71 120.638 1436.49 109.222 1441.94L77.2971 1452.46L77.292 1452.46Z" fill="white"/>
<path d="M145.664 1545.41C145.664 1534.48 148.743 1521.45 154.915 1506.31C163.324 1485.85 167.946 1470.99 168.789 1461.74C168.789 1459.5 166.962 1456.98 163.324 1454.17C159.394 1451.09 157.436 1448.7 157.436 1447.02C157.436 1445.34 157.995 1443.94 159.119 1442.82C160.236 1441.13 163.18 1439.87 167.947 1439.03C172.71 1437.92 175.37 1436.37 175.938 1434.41C180.984 1420.68 188.969 1394.6 199.903 1356.2C204.665 1339.38 209.079 1324.73 213.144 1312.26C217.204 1299.79 221.059 1289.06 224.705 1280.09C226.388 1276.17 229.891 1274.2 235.216 1274.2C239.137 1274.2 242.639 1275.46 245.727 1277.99C253.574 1284.71 258.615 1294.81 260.865 1308.26C261.703 1313.87 262.544 1319.61 263.386 1325.5C264.227 1331.39 264.921 1337.14 265.487 1342.74C272.491 1375.82 279.636 1405.89 286.928 1432.94C294.216 1459.99 301.644 1484.45 309.214 1506.31C310.893 1511.08 311.734 1515 311.734 1518.08C311.734 1523.69 309.349 1528.6 304.587 1532.8C300.099 1536.72 296.876 1538.69 294.917 1538.69C281.179 1536.16 272.491 1525.09 268.849 1505.47C265.204 1484.17 260.58 1466.37 254.975 1452.07L226.387 1454.59C215.453 1456 206.9 1459.36 200.738 1464.68C199.334 1469.17 197.584 1475.19 195.482 1482.76C193.381 1490.33 191.068 1499.73 188.548 1510.94C183.777 1531.68 179.153 1547.23 174.674 1557.61C173.266 1560.97 170.469 1562.66 166.264 1562.66H163.529C162.544 1562.66 161.493 1562.37 160.376 1561.81C151.125 1559.01 146.219 1554.8 145.66 1549.2V1545.42L145.664 1545.41ZM247.829 1426C247.266 1420.39 246.569 1414.71 245.727 1408.97C244.886 1403.23 243.764 1397.26 242.364 1391.1C240.96 1385.49 239.629 1379.89 238.369 1374.28C237.108 1368.67 235.774 1363.07 234.373 1357.46C225.964 1381 218.673 1404.28 212.514 1427.26C216.994 1426.42 228.765 1426 247.827 1426H247.829Z" fill="white"/>
<path d="M341.163 1497.9C341.722 1489.77 342.489 1480.87 343.474 1471.2C344.455 1461.53 344.947 1451.09 344.947 1439.87V1394.04C344.947 1374.7 345.157 1357.18 345.576 1341.48C345.998 1325.78 347.325 1311.2 349.571 1297.75C352.371 1281.77 366.807 1273.78 392.875 1273.78H398.762C413.896 1274.35 427.068 1281.92 438.28 1296.49C448.647 1309.39 453.837 1323.97 453.837 1340.22C453.837 1353.4 448.931 1366.57 439.122 1379.74C430.43 1391.52 420.203 1401.05 408.43 1408.34C405.91 1409.74 403.943 1411.07 402.543 1412.33C401.139 1413.59 400.441 1415.06 400.441 1416.75C400.441 1418.71 401.073 1420.32 402.333 1421.58C403.594 1422.84 405.762 1424.73 408.849 1427.26L422.304 1438.61L468.975 1482.34C478.501 1491.32 486.77 1499.65 493.778 1507.36C500.782 1515.07 506.247 1522.43 510.176 1529.44C511.018 1530.84 511.437 1532.1 511.437 1533.22C511.437 1539.67 504.711 1544.57 491.256 1547.94C476.397 1536.72 457.897 1519.07 435.758 1494.96C423.146 1481.5 412.351 1470.22 403.384 1461.11C394.414 1452 386.842 1444.78 380.683 1439.45C380.117 1443.1 379.485 1449.69 378.791 1459.22C378.088 1468.75 377.174 1481.23 376.056 1496.64C374.652 1519.91 372.126 1538.41 368.49 1552.14C367.923 1552.14 366.527 1552.77 364.285 1554.03C362.039 1555.3 359.798 1555.93 357.56 1555.93C357.276 1555.93 356.993 1555.86 356.718 1555.72C356.435 1555.57 356.152 1555.51 355.877 1555.51C343.539 1552.42 337.377 1543.87 337.377 1529.86C337.377 1527.61 337.517 1525.02 337.8 1522.08C338.075 1519.13 338.493 1516.13 339.06 1513.04L341.161 1497.9L341.163 1497.9ZM422.306 1327.18C421.464 1321.3 419.009 1315.97 414.949 1311.2C410.884 1306.44 404.368 1304.06 395.402 1304.06C388.673 1304.06 384.468 1306.16 382.789 1310.36C382.222 1314.29 381.738 1318.29 381.315 1322.35C380.897 1326.41 380.687 1330.41 380.687 1334.33C380.687 1337.98 381.106 1347.36 381.947 1362.5C381.947 1365.59 382.013 1368.39 382.157 1370.91C382.297 1373.44 382.366 1375.82 382.366 1378.06C382.366 1380.3 382.297 1382.55 382.157 1384.79C382.013 1387.04 381.947 1388.99 381.947 1390.68C405.207 1373.58 418.379 1356.9 421.466 1340.64C421.744 1338.68 421.954 1336.85 422.098 1335.17C422.238 1333.49 422.307 1331.95 422.307 1330.55V1327.18L422.306 1327.18Z" fill="white"/>
<path d="M640.294 1398.46C639.045 1391.58 636.742 1384.57 633.382 1377.44C629.991 1370.27 625.512 1363.62 619.913 1357.47C614.314 1351.3 607.308 1346.82 598.894 1344C594.415 1342.59 590.542 1341.28 587.343 1340C584.112 1338.75 581.234 1337.57 578.705 1336.42C574.771 1334.75 571.699 1333.22 569.459 1331.81C567.219 1330.4 565.331 1329.28 563.796 1328.45C562.227 1327.62 560.853 1326.92 559.573 1326.34C558.325 1325.8 556.694 1325.51 554.742 1325.51C546.615 1325.51 538.778 1329.28 531.194 1336.87C523.645 1344.42 516.957 1353.66 511.231 1364.61C505.471 1375.55 500.864 1387.1 497.345 1399.29C493.859 1411.48 492.098 1422.2 492.098 1431.45C492.098 1443.22 494.402 1453.53 499.04 1462.36C503.68 1471.19 509.278 1478.71 515.87 1484.85C522.429 1491.03 529.434 1495.67 536.889 1498.74C544.313 1501.84 550.968 1503.38 556.854 1503.38C565.268 1503.38 573.458 1501.68 581.457 1498.32C589.423 1494.96 596.846 1490.26 603.725 1484.25C610.603 1478.2 616.971 1471.06 622.857 1462.78C628.743 1454.52 633.798 1445.5 637.99 1435.67C640.807 1430.08 642.182 1423.2 642.182 1415.07C642.182 1410.88 641.574 1405.34 640.295 1398.46H640.294ZM596.462 1414.81L593.167 1416.38C579.952 1422.71 570.836 1434.81 569.523 1449.4L568.436 1464.44C568.275 1466.33 565.652 1466.68 564.98 1464.92L559.413 1450.65C554.39 1437.69 542.936 1427.35 529.371 1424.34L525.66 1423.54C523.932 1423.16 523.74 1420.76 525.372 1420.12H525.403C539.831 1414.49 549.655 1400.63 551.349 1385.24L553.333 1370.46C553.525 1368.54 556.181 1368.25 556.788 1370.08L561.459 1383.99C566.578 1399.29 579.855 1409.56 595.885 1411.42C596.909 1411.51 597.484 1412.38 597.484 1413.21C597.484 1413.85 597.164 1414.49 596.459 1414.81L596.462 1414.81Z" fill="white"/>
<path d="M676.244 1525.65V1516.4C676.244 1504.35 676.594 1490.54 677.295 1474.98C677.993 1459.42 679.187 1441.97 680.871 1422.63C685.076 1376.1 687.178 1342.32 687.178 1321.3C687.178 1314.01 687.03 1307.07 686.755 1300.48C686.471 1293.9 686.052 1287.38 685.495 1280.93C689.133 1277.29 693.76 1275.46 699.369 1275.46C710.02 1275.46 716.186 1279.39 717.869 1287.24C717.869 1290.04 717.935 1292.99 718.078 1296.07C718.218 1299.15 718.288 1302.52 718.288 1306.16C718.288 1317.09 718.004 1329.49 717.446 1343.37C716.884 1357.25 716.042 1373.01 714.926 1390.68C713.522 1410.02 712.615 1427.26 712.191 1442.39C711.772 1457.53 711.563 1470.71 711.563 1481.92V1493.69C718.847 1490.89 729.074 1485.01 742.254 1476.03C749.258 1471.27 755.216 1467.28 760.122 1464.05C765.024 1460.83 769.016 1458.52 772.103 1457.11C773.503 1457.11 775.954 1456.84 779.46 1456.27C782.962 1455.71 785.557 1455.43 787.241 1455.43C792.846 1455.43 796.91 1457.68 799.431 1462.16C801.114 1465.52 801.956 1468.33 801.956 1470.57C801.956 1473.37 801.115 1475.76 799.431 1477.72L750.243 1512.62C740.71 1519.34 731.809 1525.23 723.543 1530.28C715.274 1535.32 707.494 1539.38 700.21 1542.47C698.527 1543.31 696.847 1543.73 695.164 1543.73C691.235 1543.73 687.598 1541.21 684.235 1536.16L676.244 1525.65V1525.65Z" fill="white"/>
<path d="M0.634308 1132.04C0.634308 1126.59 0.832147 1121.34 1.24066 1116.28C1.64275 1111.24 2.65248 1106.28 4.27112 1101.43C4.46895 1101.03 5.02906 1100.58 5.9373 1100.07C6.84554 1099.57 7.90793 1099.11 9.11806 1098.71C9.72441 1098.51 10.3783 1098.31 11.0887 1098.1C11.7927 1097.9 12.6508 1097.7 13.6631 1097.5C16.8914 1097.9 20.1261 1099.11 23.3609 1101.13C26.5892 1103.16 28.2078 1106.09 28.2078 1109.92C28.2078 1113.16 27.9059 1116.04 27.2996 1118.56C26.6932 1121.09 26.3913 1124.07 26.3913 1127.5C26.3913 1133.36 26.137 1137.91 25.6334 1141.14C25.1272 1144.37 24.8754 1147.4 24.8754 1150.23C24.8754 1159.93 25.1773 1168.87 25.7837 1177.05C26.39 1185.23 26.8936 1191.45 27.2983 1195.69C30.5266 1195.29 34.1171 1192.51 38.0558 1187.36C41.9971 1182.2 45.8831 1175.99 49.7242 1168.72C53.5589 1161.44 57.0955 1153.77 60.3302 1145.68C63.5585 1137.61 66.1868 1130.43 68.2076 1124.17C69.013 1121.54 69.3676 1118.91 69.27 1116.29C69.1634 1113.66 69.4203 1111.29 70.0279 1109.17C70.6317 1107.04 71.996 1105.28 74.1182 1103.86C76.2404 1102.45 79.8233 1101.74 84.8758 1101.74C85.0736 1101.74 85.2779 1101.79 85.4821 1101.89C85.68 1101.99 85.8842 1102.04 86.0885 1102.04C87.7007 1102.04 89.6187 1102.85 91.8449 1104.47C94.0674 1106.09 95.6796 1107.7 96.6957 1109.32C96.6957 1121.24 96.3412 1130.58 95.6333 1137.35C94.9229 1144.12 94.5735 1149.93 94.5735 1154.78C94.5735 1164.48 95.2274 1172.81 96.5441 1179.78C97.8558 1186.75 100.027 1192.36 103.057 1196.6C104.27 1198.02 105.377 1199.38 106.392 1200.69C107.398 1202.01 108.31 1203.57 109.118 1205.39C108.712 1207.41 108.058 1208.98 107.15 1210.09C106.238 1211.2 105.179 1212.01 103.966 1212.51C102.755 1213.02 101.439 1213.37 100.027 1213.57C98.6124 1213.78 97.1942 1214.08 95.7862 1214.48C91.3388 1213.47 87.7546 1211.65 85.0261 1209.03C82.3001 1206.4 80.0751 1203.22 78.3614 1199.48C76.6425 1195.74 75.3784 1191.6 74.573 1187.05C73.7624 1182.51 73.0584 1177.81 72.4507 1172.96L71.2381 1175.38C69.6194 1178.82 67.4496 1183.37 64.7249 1189.02C61.9964 1194.68 58.8156 1200.19 55.1788 1205.54C51.542 1210.9 47.3489 1215.54 42.6022 1219.48C37.8554 1223.42 32.7541 1225.39 27.2996 1225.39C21.4377 1225.39 16.7411 1224.23 13.2096 1221.91C9.67046 1219.58 6.94445 1215.8 5.02649 1210.54C3.10338 1205.29 1.79177 1198.52 1.08779 1190.24C0.377384 1181.95 0.0253906 1171.75 0.0253906 1159.63C0.427483 1156.8 0.631736 1153.97 0.631736 1151.14V1132.04H0.634308Z" fill="white"/>
<path d="M151.24 1173.87C154.066 1171.04 156.339 1167.4 158.059 1162.96C159.772 1158.52 161.439 1154.27 163.057 1150.23L163.664 1148.41C164.876 1145.18 166.694 1141.19 169.118 1136.44C171.542 1131.69 174.371 1127.15 177.602 1122.8C180.834 1118.46 184.369 1114.77 188.208 1111.74C192.042 1108.71 195.985 1107.19 200.028 1107.19C203.46 1108.21 206.035 1109.82 207.755 1112.04C209.469 1114.27 210.785 1116.74 211.694 1119.47C212.606 1122.19 213.41 1125.03 214.12 1127.95C214.824 1130.88 215.786 1133.66 216.997 1136.29C219.621 1142.15 221.589 1148.41 222.906 1155.08C224.218 1161.74 225.33 1168.52 226.241 1175.38C227.149 1182.25 228.209 1189.02 229.422 1195.69C230.632 1202.36 232.452 1208.52 234.876 1214.18C234.468 1217.41 232.704 1219.78 229.573 1221.3C226.439 1222.81 223.664 1223.57 221.24 1223.57C217.603 1223.57 214.77 1222.21 212.756 1219.48C210.735 1216.75 209.167 1213.42 208.059 1209.48C206.947 1205.54 206.136 1201.45 205.633 1197.2C205.127 1192.96 204.47 1189.43 203.665 1186.6C202.65 1183.16 201.844 1179.28 201.24 1174.93C200.634 1170.59 199.924 1166.19 199.118 1161.75C198.308 1157.3 197.345 1153.16 196.239 1149.32C195.127 1145.49 193.558 1142.35 191.543 1139.92C188.104 1145.38 185.332 1150.48 183.209 1155.23C181.087 1159.98 179.164 1164.53 177.45 1168.87C175.731 1173.21 174.065 1177.46 172.452 1181.6C170.831 1185.74 168.815 1189.93 166.391 1194.17C163.156 1200.04 160.223 1204.58 157.601 1207.81C154.973 1211.05 152.55 1213.42 150.328 1214.93C148.103 1216.45 145.983 1217.36 143.965 1217.66C141.944 1217.97 140.026 1218.12 138.206 1218.12C136.185 1218.12 133.707 1217.1 130.784 1215.09C127.852 1213.07 126.39 1210.64 126.39 1207.81C126.39 1195.08 126.437 1183.26 126.54 1172.35C126.64 1161.44 126.69 1149.93 126.69 1137.8C126.69 1134.37 126.586 1130.88 126.388 1127.35C126.184 1123.81 126.084 1120.33 126.084 1116.89C126.084 1114.47 126.54 1112.09 127.448 1109.77C128.357 1107.45 129.92 1105.78 132.145 1104.77C133.358 1104.77 134.572 1104.72 135.782 1104.62C136.994 1104.52 138.102 1104.46 139.117 1104.46C141.739 1104.46 143.813 1105.22 145.328 1106.74C146.842 1108.25 147.95 1110.12 148.66 1112.34C149.368 1114.57 149.82 1116.89 150.025 1119.31C150.222 1121.74 150.326 1123.76 150.326 1125.38C150.326 1127.6 150.578 1129.72 151.084 1131.74C151.588 1133.76 151.842 1135.88 151.842 1138.11C151.842 1145.58 151.738 1151.95 151.54 1157.2C151.336 1162.45 151.239 1167.5 151.239 1172.35V1173.87H151.24Z" fill="white"/>
<path d="M286.694 1209.63C286.694 1211.25 286.285 1212.86 285.481 1214.48C284.673 1216.1 283.158 1218.01 280.936 1220.24C277.5 1220.24 274.319 1219.93 271.392 1219.33C268.46 1218.72 265.938 1217.51 263.817 1215.69C261.695 1213.87 260.028 1211.25 258.816 1207.81C257.606 1204.38 256.999 1199.73 256.999 1193.87C256.999 1190.44 256.645 1187.01 255.937 1183.57C255.226 1180.13 254.877 1176.7 254.877 1173.26C254.877 1162.96 254.271 1153.16 253.061 1143.86C251.848 1134.57 251.24 1124.77 251.24 1114.47C251.24 1110.22 252.954 1106.99 256.393 1104.77C258.411 1104.16 260.332 1103.71 262.152 1103.4C263.968 1103.1 265.987 1102.75 268.213 1102.34C271.039 1103.15 273.161 1104.31 274.576 1105.83C275.988 1107.34 277.304 1108.81 278.514 1110.22C278.31 1112.25 278.16 1114.27 278.062 1116.29C277.956 1118.31 277.908 1120.43 277.908 1122.65C277.908 1130.33 278.31 1138.51 279.121 1147.2C279.926 1155.89 280.834 1164.17 281.849 1172.05C282.855 1179.93 283.817 1187.1 284.726 1193.57C285.638 1200.04 286.288 1204.99 286.696 1208.42V1209.63L286.694 1209.63ZM260.027 1051.24C261.037 1050.23 262.853 1049.72 265.482 1049.72C267.5 1049.72 269.572 1050.08 271.693 1050.78C273.815 1051.49 275.786 1052.5 277.602 1053.82C279.419 1055.13 280.885 1056.6 281.997 1058.21C283.104 1059.83 283.663 1061.54 283.663 1063.36C283.663 1067.2 282.701 1069.78 280.784 1071.09C278.864 1072.41 276.188 1073.06 272.755 1073.06C270.53 1073.06 268.257 1072.71 265.937 1072C263.61 1071.29 261.542 1070.44 259.721 1069.42C257.905 1068.42 256.437 1067.35 255.329 1066.24C254.217 1065.13 253.661 1064.07 253.661 1063.06C253.661 1060.63 253.912 1058.52 254.418 1056.7C254.922 1054.88 256.792 1053.06 260.026 1051.24L260.027 1051.24Z" fill="white"/>
<path d="M330.028 1211.45C327.603 1207.81 325.483 1203.57 323.662 1198.72C321.846 1193.87 320.277 1188.87 318.966 1183.72C317.649 1178.57 316.589 1173.57 315.785 1168.72C314.974 1163.87 314.468 1159.62 314.27 1155.99C313.664 1149.32 312.098 1142.55 309.574 1135.68C307.043 1128.82 305.785 1122.04 305.785 1115.38C305.785 1111.94 307.3 1109.87 310.33 1109.16C313.361 1108.46 316.187 1108.1 318.814 1108.1C319.619 1108.1 320.785 1108.25 322.3 1108.56C323.815 1108.86 325.331 1109.37 326.846 1110.07C328.36 1110.78 329.769 1111.64 331.086 1112.65C332.398 1113.66 333.256 1114.87 333.663 1116.28C333.663 1120.33 334.065 1124.97 334.873 1130.23C335.679 1135.48 336.64 1140.68 337.752 1145.83C338.859 1150.99 339.922 1155.84 340.933 1160.38C341.943 1164.93 342.647 1168.62 343.055 1171.44C346.488 1167.2 349.67 1161.39 352.601 1154.02C355.525 1146.64 358.556 1139.37 361.693 1132.19C364.821 1125.03 368.253 1118.71 371.994 1113.25C375.731 1107.8 380.224 1104.77 385.48 1104.16C389.723 1104.16 393.056 1104.42 395.48 1104.92C397.904 1105.43 399.723 1106.18 400.934 1107.19C402.147 1108.2 402.953 1109.52 403.361 1111.13C403.763 1112.75 404.167 1114.67 404.571 1116.89C401.135 1120.73 398.156 1124.42 395.631 1127.95C393.105 1131.49 390.731 1135.07 388.511 1138.71C386.286 1142.35 384.164 1146.19 382.148 1150.23C380.123 1154.27 377.905 1158.61 375.481 1163.26C375.072 1164.27 374.62 1165.33 374.116 1166.44C373.61 1167.56 373.057 1168.62 372.45 1169.62C369.618 1173.46 367.345 1178.06 365.631 1183.41C363.912 1188.77 361.995 1193.97 359.872 1199.02C357.75 1204.07 355.176 1208.52 352.145 1212.36C349.115 1216.2 344.872 1218.42 339.417 1219.03L330.024 1211.45L330.028 1211.45Z" fill="white"/>
<path d="M407.302 1166.59C407.302 1159.12 408.258 1151.59 410.178 1144.02C412.096 1136.44 414.975 1129.62 418.816 1123.56C422.651 1117.5 427.402 1112.6 433.059 1108.86C438.711 1105.12 445.279 1103.25 452.756 1103.25C458.007 1103.25 462.604 1104.06 466.544 1105.68C470.483 1107.3 473.765 1109.42 476.393 1112.04C479.014 1114.67 480.985 1117.65 482.302 1120.98C483.613 1124.32 484.27 1127.8 484.27 1131.44C484.27 1136.09 483.409 1140.58 481.695 1144.93C479.977 1149.27 477.499 1153.16 474.27 1156.59C471.036 1160.03 467.044 1162.81 462.3 1164.93C457.551 1167.05 452.15 1168.22 446.089 1168.41C443.461 1168.62 441.136 1168.52 439.12 1168.11C437.095 1167.71 434.773 1167.1 432.148 1166.29C431.947 1167.31 431.846 1168.16 431.846 1168.87V1170.54C432.044 1178.01 433.258 1183.87 435.483 1188.11C437.703 1192.36 440.126 1195.54 442.754 1197.66C445.379 1199.78 447.907 1201.14 450.33 1201.75C452.756 1202.36 454.369 1202.66 455.181 1202.66C461.439 1202.66 466.642 1201.25 470.785 1198.42C474.925 1195.59 479.521 1192.46 484.576 1189.02C485.582 1189.43 486.694 1189.88 487.908 1190.39C489.121 1190.89 490.228 1191.85 491.24 1193.27C491.442 1194.48 491.642 1195.44 491.847 1196.14C492.045 1196.85 492.151 1197.91 492.151 1199.33C491.947 1202.16 491.189 1204.53 489.879 1206.45C488.562 1208.37 487.097 1210.04 485.484 1211.45C480.228 1215.9 475.33 1218.77 470.785 1220.09C466.24 1221.4 460.333 1222.06 453.058 1222.06C449.824 1222.06 445.832 1221.35 441.088 1219.93C436.339 1218.52 432.349 1217 429.118 1215.39C424.271 1211.75 420.482 1208.12 417.754 1204.48C415.028 1200.84 412.907 1197.01 411.391 1192.96C409.876 1188.92 408.864 1184.73 408.361 1180.39C407.854 1176.04 407.5 1171.45 407.301 1166.6L407.302 1166.59ZM433.664 1150.23C434.47 1150.43 435.736 1150.58 437.453 1150.68C439.169 1150.79 440.531 1150.84 441.545 1150.84C448.41 1150.84 453.715 1149.12 457.454 1145.68C461.189 1142.25 463.059 1138.11 463.059 1133.26C463.059 1130.43 462.251 1127.8 460.635 1125.38C459.016 1122.95 456.794 1121.74 453.968 1121.74C451.947 1121.74 449.975 1121.94 448.059 1122.35C446.138 1122.75 444.674 1123.76 443.666 1125.38C442.856 1126.39 441.947 1127.4 440.938 1128.41C439.925 1129.42 438.967 1130.83 438.059 1132.65C437.151 1134.47 436.289 1136.74 435.484 1139.47C434.674 1142.2 434.068 1145.79 433.664 1150.23V1150.23Z" fill="white"/>
<path d="M510.028 1212.66C510.43 1211.65 510.682 1209.78 510.786 1207.05C510.886 1204.33 510.936 1200.95 510.936 1196.9C510.936 1193.07 510.886 1188.92 510.786 1184.47C510.682 1180.03 510.582 1175.94 510.484 1172.2C510.378 1168.46 510.28 1165.23 510.18 1162.5C510.076 1159.77 510.029 1158.21 510.029 1157.8V1147.8C510.029 1143.36 509.879 1138.91 509.573 1134.47C509.271 1130.03 509.017 1125.58 508.815 1121.13V1119.92C508.815 1118.1 508.409 1116.34 507.605 1114.62C506.795 1112.9 506.393 1111.03 506.393 1109.01C507.198 1106.39 508.311 1104.37 509.727 1102.95C511.137 1101.54 513.666 1100.83 517.303 1100.83C520.736 1100.83 523.462 1101.48 525.482 1102.8C527.5 1104.11 529.016 1105.73 530.027 1107.65C531.037 1109.57 531.696 1111.74 531.998 1114.16C532.3 1116.59 532.552 1118.91 532.756 1121.13L533.664 1137.2C535.682 1135.58 537.805 1133.21 540.03 1130.07C542.249 1126.94 544.575 1123.56 546.999 1119.92C549.423 1116.28 551.947 1112.75 554.574 1109.31C557.196 1105.88 559.925 1103.05 562.757 1100.83C564.37 1100.02 566.392 1099.61 568.818 1099.61C573.665 1099.61 577.554 1100.52 580.484 1102.34C583.411 1104.16 585.683 1107.09 587.303 1111.13C586.894 1112.95 585.788 1115.02 583.971 1117.34C582.15 1119.67 580.076 1122.09 577.756 1124.62C575.433 1127.15 573.009 1129.77 570.485 1132.5C567.954 1135.22 565.788 1137.91 563.968 1140.53C560.937 1143.76 557.907 1147.7 554.876 1152.35C551.846 1157 549.12 1161.74 546.693 1166.59C544.269 1171.44 542.248 1176.04 540.632 1180.38C539.013 1184.73 538.208 1188.21 538.208 1190.84C538.208 1192.46 538.255 1194.73 538.358 1197.66C538.458 1200.59 538.512 1202.86 538.512 1204.48C538.512 1206.9 538.308 1209.38 537.906 1211.9C537.498 1214.43 536.693 1216.75 535.482 1218.87C534.269 1221 532.649 1222.71 530.631 1224.03C528.61 1225.34 525.982 1226 522.754 1226C518.913 1226 515.832 1224.83 513.512 1222.51C511.186 1220.19 510.026 1217.31 510.026 1213.87V1212.66L510.028 1212.66Z" fill="white"/>
<path d="M639.121 1157.5C643.16 1165.18 646.896 1172.91 650.334 1180.69C653.766 1188.47 655.482 1197.2 655.482 1206.9C655.482 1211.95 654.622 1216.71 652.908 1221.15C651.189 1225.59 648.818 1229.53 645.787 1232.97C642.757 1236.4 639.12 1239.13 634.877 1241.15C630.636 1243.17 626.091 1244.18 621.24 1244.18C617 1244.18 613.105 1242.51 609.575 1239.18C606.038 1235.85 604.067 1232.06 603.665 1227.81C604.471 1226.19 605.227 1225.03 605.938 1224.33C606.642 1223.62 608.21 1222.96 610.634 1222.36C613.059 1224.78 615.485 1226 617.908 1226C621.341 1226 624.371 1224.48 626.999 1221.45C629.621 1218.42 630.938 1214.58 630.938 1209.93C630.938 1208.32 630.834 1207.31 630.636 1206.9C628.411 1197.81 625.581 1189.58 622.149 1182.2C618.712 1174.83 615.33 1167.91 611.999 1161.44C608.666 1154.98 605.787 1148.86 603.363 1143.11C600.937 1137.35 599.727 1131.54 599.727 1125.68C599.727 1120.83 600.129 1115.83 600.937 1110.68C601.742 1105.52 603.159 1100.73 605.18 1096.28C607.198 1091.84 609.876 1088.2 613.211 1085.37C616.544 1082.54 620.834 1081.13 626.09 1081.13C626.694 1081.13 627.25 1081.18 627.756 1081.28C628.256 1081.38 628.816 1081.43 629.422 1081.43C631.44 1081.43 633.157 1082.49 634.575 1084.61C635.987 1086.73 636.999 1088.6 637.605 1090.22C637.605 1091.84 637.047 1093.1 635.939 1094.01C634.827 1094.92 633.764 1095.88 632.755 1096.89C630.33 1100.12 628.562 1103.71 627.452 1107.65C626.339 1111.59 625.785 1115.58 625.785 1119.62V1126.89C625.785 1128.31 626.289 1130.33 627.3 1132.95C628.31 1135.58 629.47 1138.36 630.787 1141.29C632.098 1144.22 633.408 1146.95 634.725 1149.47C636.037 1152 637.099 1153.87 637.906 1155.08L639.119 1157.5H639.121Z" fill="white"/>
<path d="M708.816 1218.72C705.377 1218.72 702.299 1217.76 699.574 1215.84C696.845 1213.93 693.967 1212.06 690.936 1210.24C684.271 1206.4 679.12 1201.35 675.482 1195.08C671.845 1188.82 670.027 1181.14 670.027 1172.05C670.027 1167.61 670.785 1162.3 672.3 1156.14C673.814 1149.98 675.179 1144.27 676.39 1139.01C676.996 1136.79 678.408 1133.71 680.633 1129.77C682.853 1125.83 685.632 1122 688.967 1118.26C692.299 1114.52 696.087 1111.24 700.331 1108.41C704.571 1105.58 708.916 1104.16 713.361 1104.16C715.177 1104.16 716.998 1104.77 718.815 1105.98C721.642 1107.8 724.574 1109.32 727.605 1110.53C730.635 1111.74 733.713 1112.95 736.847 1114.17C739.977 1115.38 743.058 1116.69 746.088 1118.1C749.119 1119.52 751.945 1121.34 754.572 1123.56C756.794 1125.38 758.513 1127.6 759.725 1130.23C760.937 1132.86 762.149 1135.38 763.361 1137.8C764.371 1139.83 764.978 1141.9 765.178 1144.02C765.38 1146.14 765.482 1148.31 765.482 1150.53V1156.29C765.278 1162.56 764.014 1168.37 761.694 1173.72C759.368 1179.07 756.589 1184.28 753.361 1189.33C751.742 1191.95 749.62 1194.99 746.995 1198.42C744.367 1201.86 741.438 1205.09 738.21 1208.12C734.975 1211.15 731.59 1213.72 728.056 1215.85C724.519 1217.97 720.935 1219.03 717.298 1219.03C716.286 1219.03 715.224 1218.98 714.117 1218.88C713.005 1218.77 711.845 1218.73 710.631 1218.73H708.814L708.816 1218.72ZM738.513 1146.29C738.513 1140.43 736.39 1136.19 732.15 1133.56C727.907 1130.94 723.258 1129.62 718.209 1129.62C714.166 1129.62 710.734 1131.19 707.907 1134.32C705.075 1137.45 702.652 1141.29 700.634 1145.83C698.613 1150.38 697.151 1155.23 696.239 1160.38C695.331 1165.53 694.877 1170.03 694.877 1173.87C694.877 1174.68 695.028 1176.29 695.33 1178.71C695.634 1181.14 696.188 1183.67 696.996 1186.29C697.801 1188.92 698.966 1191.24 700.482 1193.26C701.997 1195.28 703.969 1196.29 706.392 1196.29C708.611 1196.29 710.632 1195.94 712.453 1195.23C714.269 1194.53 716.287 1193.67 718.513 1192.66C721.742 1190.64 724.574 1187.91 726.997 1184.47C729.421 1181.04 731.392 1177.3 732.907 1173.26C734.421 1169.22 735.633 1164.98 736.543 1160.53C737.452 1156.09 738.105 1151.84 738.511 1147.8V1146.29L738.513 1146.29Z" fill="white"/>
<path d="M607.149 962.99C586.321 973.783 509.343 1008.62 381.745 1008.62C261.918 1008.62 178.68 973.515 156.17 962.843C152.565 961.138 150.617 957.192 151.419 953.269L179.336 818.518L179.798 818.445C239.14 809.04 308.614 789.501 380.746 761.923C452.193 789.527 521.572 808.115 581.424 815.668L582.617 815.815L611.607 953.563C612.386 957.339 610.583 961.189 607.149 962.992V962.99Z" fill="white"/>
<path d="M580.961 805.751C525.226 798.588 460.745 781.607 394.338 756.659C407.955 751.274 421.328 745.769 434.118 740.238C476.822 721.819 517.551 701.842 555.09 680.816L580.96 805.749L580.961 805.751Z" fill="white"/>
<path d="M478.918 313.229L526.127 238.167C528.003 235.146 526.225 231.199 522.741 230.615L478.918 223.281V142.883L520.647 142.323C525.762 142.274 529.075 136.938 526.884 132.309C514.069 105.558 472.755 33.0783 397.313 24.6488V14.0994C397.313 6.32767 390.979 -0.00634766 383.208 -0.00634766H379.749C372.003 -0.00634766 365.645 6.32767 365.645 14.0994V24.6488C290.201 33.0783 248.887 105.558 236.074 132.309C233.856 136.938 237.194 142.274 242.311 142.323L284.039 142.883V222.062L240.02 230.491C236.586 231.149 234.906 235.047 236.756 237.996L284.039 313.229L210.91 668.466L211.958 669.099C248.425 690.952 287.693 711.32 328.692 729.665C345.719 737.291 363.234 744.624 380.774 751.471C397.436 745.039 414.074 738.241 430.249 731.274C472.929 712.904 513.78 692.805 551.685 671.561L552.732 670.976L478.922 313.231L478.918 313.229ZM411.417 200.721C411.417 203.572 409.126 205.862 406.301 205.862H356.655C353.829 205.862 351.514 203.572 351.514 200.721V167.588C351.514 151.118 364.986 137.646 381.478 137.646C389.711 137.646 397.189 141.008 402.622 146.44C408.056 151.874 411.417 159.353 411.417 167.588V200.721Z" fill="white"/>
<path d="M367.225 756.612C300.747 781.413 236.583 799.296 181.455 808.335L208.373 678.31C244.743 700.018 283.89 720.312 324.717 738.583C338.967 744.966 353.267 751.009 367.225 756.612Z" fill="white"/>
<path d="M746.076 774.859C733.312 803.388 695.383 818.249 637.26 818.249C620.622 818.249 602.279 817.007 582.4 814.546L581.207 807.286C581.621 807.164 582.06 807.14 582.498 807.188C667.393 817.883 724.591 805.02 739.401 771.886C754.163 738.924 725.979 687.956 662.083 632.068C660.572 630.752 660.427 628.438 661.741 626.927C663.081 625.392 665.395 625.247 666.905 626.586C734.358 685.568 762.47 738.241 746.075 774.858L746.076 774.859Z" fill="white"/>
<path d="M633.447 607.614C632.671 607.614 631.89 607.368 631.226 606.86C603.155 585.34 571.204 564.228 536.259 544.11C534.511 543.104 533.908 540.869 534.917 539.12C535.921 537.371 538.158 536.768 539.906 537.777C575.127 558.053 607.348 579.345 635.673 601.06C637.274 602.289 637.577 604.582 636.35 606.184C635.631 607.123 634.545 607.615 633.448 607.615L633.447 607.614Z" fill="white"/>
<path d="M133.844 626.263C133.077 626.263 132.305 626.023 131.646 625.526C40.8661 557.017 -2.01132 490.826 16.9487 448.462C37.2755 403.041 122.763 392.531 245.623 420.35C247.591 420.794 248.826 422.752 248.38 424.721C247.934 426.69 245.973 427.922 244.01 427.478C126.58 400.892 42.134 410.075 23.6185 451.448C6.14741 490.484 48.1769 553.378 136.048 619.691C137.66 620.907 137.98 623.199 136.763 624.809C136.045 625.762 134.95 626.262 133.844 626.262V626.263Z" fill="white"/>
<path d="M210.593 669.708L208.742 676.847C208.328 676.773 207.937 676.627 207.573 676.409C191.3 666.663 175.563 656.576 160.753 646.442C159.097 645.297 158.682 643.031 159.802 641.35C160.947 639.694 163.237 639.279 164.893 640.4C179.339 650.316 194.734 660.183 210.593 669.708Z" fill="white"/>
<path d="M555.848 679.015C555.507 679.21 555.117 679.357 554.753 679.404L553.023 672.193C687.321 596.863 765.517 518.365 747.587 476.802C745.443 471.857 741.887 467.446 737.015 463.695C735.407 462.477 735.09 460.186 736.332 458.578C737.55 456.971 739.841 456.678 741.448 457.896C747.343 462.403 751.654 467.788 754.31 473.927C774.115 519.876 696.211 600.395 555.848 679.014V679.015Z" fill="white"/>
<path d="M530.873 467.342C529.231 467.342 527.741 466.228 527.329 464.566C526.843 462.607 528.039 460.624 529.997 460.14C543.452 456.808 572.078 450.252 584.046 447.857C586.033 447.45 587.95 448.745 588.345 450.724C588.741 452.703 587.458 454.628 585.479 455.024C573.813 457.359 544.854 463.99 531.754 467.234C531.459 467.306 531.163 467.342 530.873 467.342Z" fill="white"/>
<path d="M33.4871 742.238C32.8384 742.238 32.1832 742.067 31.5897 741.703C29.8657 740.653 29.3197 738.405 30.3706 736.682C56.8945 693.141 124.01 638.781 214.512 587.54C216.267 586.543 218.497 587.162 219.491 588.92C220.486 590.676 219.869 592.905 218.112 593.9C128.662 644.546 62.5084 697.974 36.6113 740.484C35.9241 741.614 34.7204 742.238 33.4884 742.238H33.4871Z" fill="white"/>
<path d="M178.734 810.253L176.948 817.602C151.65 820.585 128.857 821.729 109.001 821.046C83.3316 820.165 62.5577 816.234 47.4889 809.353C45.6493 808.511 44.8374 806.337 45.6917 804.489C46.5203 802.665 48.7042 801.862 50.5669 802.706C76.2456 814.459 120.131 817.064 177.443 810.182C177.9 810.124 178.329 810.164 178.734 810.25V810.253Z" fill="white"/>
<path d="M716.159 449.448L711.13 451.137C690.925 457.924 675.593 473.751 671.08 494.584L666.846 516.099C666.263 518.793 662.443 518.859 661.768 516.186L656.285 494.585C651.327 474.965 636.636 458.029 617.561 451.279L612.348 449.434C609.917 448.574 610.075 445.083 612.574 444.446L612.619 444.435C634.429 438.874 651.097 420.624 656.286 398.718L661.759 377.713C662.403 374.992 666.297 375.055 666.853 377.795L671.081 398.718C675.753 421.727 693.126 438.916 715.943 444.44C718.487 445.055 718.641 448.615 716.16 449.448H716.159Z" fill="white"/>
<path d="M25.6976 802.268C39.8242 802.268 51.276 790.815 51.276 776.686C51.276 762.558 39.8242 751.105 25.6976 751.105C11.571 751.105 0.119141 762.558 0.119141 776.686C0.119141 790.815 11.571 802.268 25.6976 802.268Z" fill="white"/>
</g>
<defs>
<clipPath id="clip0_388_51">
<rect width="802" height="1588" fill="white"/>
</clipPath>
</defs>
</svg>
