<svg width="1773" height="879" viewBox="0 0 1773 879" fill="none" xmlns="http://www.w3.org/2000/svg">
<path d="M854.861 650.238C852.226 650.569 848.773 651.146 844.505 651.967C840.227 652.791 835.131 653.864 829.216 655.175C828.884 658.468 828.638 661.925 828.475 665.542C828.307 669.167 828.229 673.117 828.229 677.39C828.229 681.338 828.307 686.275 828.475 692.2C828.638 698.123 828.885 705.205 829.216 713.427C830.2 729.889 830.696 741.892 830.696 749.467C830.696 778.1 826.255 800.477 817.378 816.606C815.403 820.225 812.445 822.037 808.501 822.037C804.556 822.037 800.437 820.225 796.17 816.606C791.893 812.981 789.095 809.032 787.784 804.758C784.494 795.211 782.851 783.36 782.851 769.215C782.851 766.908 783.097 761.809 783.593 753.911C784.084 746.011 784.985 735.15 786.305 721.327C786.627 717.054 786.873 712.933 787.041 708.985C787.204 705.037 787.292 701.257 787.292 697.632C787.292 687.102 786.627 679.042 785.316 673.44C784.652 668.835 781.372 665.379 775.452 663.074C767.884 659.786 763.121 657.149 761.146 655.174C760.818 654.848 760.655 653.53 760.655 651.223C760.655 649.582 760.818 647.444 761.146 644.807C761.474 642.177 762.297 639.053 763.612 635.428C767.23 635.428 770.274 633.946 772.74 630.984C775.207 628.022 777.75 626.54 780.385 626.54C782.36 626.54 783.67 626.711 784.329 627.034C785.972 619.467 787.204 611.161 788.028 602.103C788.847 593.055 789.261 583.265 789.261 572.728C789.261 569.443 788.928 562.361 788.274 551.501C787.614 540.639 786.794 525.829 785.807 507.07C785.807 505.426 785.725 503.697 785.562 501.885C785.393 500.081 785.316 498.182 785.316 496.208C779.064 494.233 772.898 490.369 766.82 484.606C760.732 478.852 757.698 472.843 757.698 466.587C757.698 458.364 763.612 453.428 775.452 451.777C783.67 450.466 795.182 447.829 809.979 443.877C824.776 439.929 843.026 434.336 864.727 427.092C902.539 414.921 933.12 408.502 956.472 407.838C962.391 407.838 967.57 409.405 972.005 412.53C976.446 415.661 978.667 419.858 978.667 425.117C978.667 431.705 976.61 437.705 972.501 443.136C968.383 448.567 963.046 451.946 956.472 453.257H954.496C951.539 453.257 948.162 452.438 944.386 450.789C940.6 449.145 937.397 448.32 934.768 448.32C927.2 448.983 919.061 450.624 910.352 453.257C901.638 455.894 892.019 459.351 881.499 463.623C867.689 469.225 856.591 473.667 848.206 476.953C839.82 480.246 833.486 482.553 829.218 483.863C828.553 494.4 828.062 504.93 827.735 515.459C827.407 525.998 827.244 536.528 827.244 547.057C827.244 557.586 827.407 568.284 827.735 579.146C828.062 590.006 828.553 600.706 829.218 611.235C830.855 611.566 832.34 611.814 833.655 611.975C834.964 612.144 836.284 612.221 837.599 612.221C843.841 612.221 855.681 609.752 873.113 604.815C879.688 602.84 885.766 601.284 891.363 600.126C896.95 598.976 901.72 598.397 905.669 598.397C906.325 598.397 907.061 598.482 907.885 598.643C908.704 598.814 909.446 598.891 910.106 598.891C916.682 599.554 919.97 602.345 919.97 607.282C918 620.118 909.773 629.993 895.309 636.903L854.862 650.233L854.861 650.238Z" fill="white"/>
<path d="M941.486 768.098C941.486 754.236 945.388 737.707 953.206 718.516C963.859 692.575 969.716 673.73 970.783 662.002C970.783 659.162 968.468 655.962 963.859 652.404C958.881 648.499 956.4 645.474 956.4 643.343C956.4 641.211 957.107 639.435 958.532 638.011C959.947 635.879 963.677 634.278 969.716 633.212C975.75 631.796 979.122 629.838 979.839 627.348C986.232 609.938 996.349 576.881 1010.2 528.181C1016.24 506.855 1021.83 488.286 1026.98 472.466C1032.12 456.656 1037.01 443.059 1041.63 431.68C1043.76 426.709 1048.2 424.217 1054.94 424.217C1059.91 424.217 1064.35 425.816 1068.26 429.015C1078.2 437.547 1084.59 450.341 1087.44 467.403C1088.5 474.518 1089.57 481.796 1090.63 489.263C1091.7 496.726 1092.58 504.015 1093.3 511.12C1102.17 553.064 1111.22 591.186 1120.46 625.481C1129.69 659.787 1139.1 690.792 1148.7 718.516C1150.82 724.564 1151.89 729.536 1151.89 733.444C1151.89 740.559 1148.87 746.772 1142.83 752.104C1137.15 757.076 1133.06 759.568 1130.58 759.568C1113.18 756.369 1102.17 742.332 1097.56 717.45C1092.94 690.443 1087.08 667.868 1079.98 649.739L1043.76 652.938C1029.91 654.721 1019.07 658.986 1011.26 665.733C1009.48 671.424 1007.27 679.061 1004.6 688.66C1001.94 698.256 999.011 710.169 995.817 724.38C989.772 750.68 983.915 770.406 978.24 783.56C976.456 787.827 972.912 789.958 967.586 789.958H964.121C962.873 789.958 961.542 789.599 960.127 788.891C948.407 785.335 942.191 780.003 941.483 772.895V768.097L941.486 768.098ZM1070.92 616.683C1070.21 609.576 1069.33 602.379 1068.26 595.09C1067.19 587.811 1065.77 580.254 1064 572.431C1062.22 565.326 1060.54 558.22 1058.94 551.105C1057.34 544 1055.65 536.894 1053.88 529.779C1043.22 559.637 1033.99 589.144 1026.18 618.282C1031.86 617.217 1046.77 616.683 1070.92 616.683Z" fill="white"/>
<path d="M1189.17 707.853C1189.88 697.547 1190.85 686.26 1192.1 673.998C1193.35 661.733 1193.97 648.499 1193.97 634.278V576.164C1193.97 551.639 1194.23 529.43 1194.77 509.521C1195.3 489.619 1196.98 471.133 1199.83 454.074C1203.37 433.813 1221.66 423.683 1254.69 423.683H1262.15C1281.33 424.399 1298.01 433.997 1312.22 452.473C1325.35 468.827 1331.93 487.312 1331.93 507.922C1331.93 524.632 1325.71 541.335 1313.28 558.037C1302.27 572.965 1289.31 585.052 1274.4 594.291C1271.21 596.074 1268.71 597.757 1266.94 599.357C1265.16 600.956 1264.28 602.822 1264.28 604.954C1264.28 607.446 1265.08 609.486 1266.68 611.085C1268.27 612.687 1271.02 615.083 1274.93 618.282L1291.98 632.679L1351.11 688.125C1363.18 699.505 1373.65 710.076 1382.53 719.849C1391.41 729.627 1398.33 738.957 1403.31 747.84C1404.37 749.613 1404.9 751.214 1404.9 752.638C1404.9 760.81 1396.38 767.032 1379.34 771.299C1360.51 757.078 1337.07 734.694 1309.02 704.122C1293.04 687.06 1279.37 672.758 1268.01 661.205C1256.64 649.656 1247.05 640.504 1239.25 633.745C1238.53 638.368 1237.73 646.725 1236.85 658.804C1235.96 670.891 1234.8 686.711 1233.38 706.254C1231.6 735.762 1228.4 759.213 1223.8 776.631C1223.08 776.631 1221.31 777.43 1218.47 779.029C1215.62 780.63 1212.78 781.429 1209.95 781.429C1209.59 781.429 1209.23 781.338 1208.88 781.164C1208.52 780.979 1208.16 780.897 1207.81 780.897C1192.18 776.981 1184.37 766.144 1184.37 748.374C1184.37 745.526 1184.55 742.243 1184.91 738.512C1185.26 734.779 1185.79 730.962 1186.51 727.048L1189.17 707.856L1189.17 707.853ZM1291.98 491.394C1290.91 483.93 1287.8 477.183 1282.66 471.133C1277.51 465.093 1269.25 462.072 1257.89 462.072C1249.36 462.072 1244.04 464.737 1241.91 470.069C1241.19 475.049 1240.58 480.115 1240.04 485.264C1239.51 490.419 1239.25 495.485 1239.25 500.457C1239.25 505.08 1239.78 516.984 1240.84 536.179C1240.84 540.095 1240.93 543.643 1241.11 546.842C1241.29 550.041 1241.37 553.064 1241.37 555.906C1241.37 558.748 1241.28 561.594 1241.11 564.435C1240.93 567.285 1240.84 569.767 1240.84 571.901C1270.31 550.224 1287 529.072 1290.91 508.454C1291.26 505.973 1291.53 503.656 1291.71 501.524C1291.89 499.393 1291.98 497.443 1291.98 495.66V491.395L1291.98 491.394Z" fill="white"/>
<path d="M1568.16 581.768C1566.58 573.045 1563.66 564.16 1559.4 555.112C1555.11 546.024 1549.43 537.585 1542.34 529.796C1535.25 521.965 1526.37 516.286 1515.71 512.715C1510.03 510.929 1505.13 509.266 1501.07 507.644C1496.98 506.062 1493.33 504.56 1490.13 503.1C1485.15 500.991 1481.26 499.043 1478.42 497.258C1475.58 495.472 1473.19 494.053 1471.24 492.998C1469.26 491.943 1467.51 491.051 1465.89 490.32C1464.31 489.63 1462.24 489.265 1459.77 489.265C1449.47 489.265 1439.54 494.052 1429.94 503.668C1420.37 513.242 1411.9 524.968 1404.65 538.843C1397.35 552.718 1391.51 567.365 1387.05 582.823C1382.63 598.28 1380.4 611.871 1380.4 623.597C1380.4 638.527 1383.32 651.59 1389.2 662.788C1395.08 673.986 1402.17 683.52 1410.52 691.31C1418.83 699.141 1427.71 705.023 1437.15 708.919C1446.56 712.854 1454.99 714.801 1462.45 714.801C1473.11 714.801 1483.48 712.652 1493.62 708.391C1503.71 704.132 1513.12 698.167 1521.83 690.54C1530.54 682.871 1538.61 673.824 1546.07 663.317C1553.53 652.849 1559.93 641.408 1565.24 628.953C1568.81 621.853 1570.55 613.13 1570.55 602.825C1570.55 597.51 1569.78 590.491 1568.16 581.769L1568.16 581.768ZM1512.63 602.5L1508.45 604.487C1491.71 612.521 1480.16 627.856 1478.5 646.357L1477.12 665.425C1476.92 667.819 1473.59 668.266 1472.74 666.034L1465.69 647.939C1459.33 631.508 1444.81 618.403 1427.63 614.589L1422.93 613.576C1420.74 613.089 1420.49 610.046 1422.56 609.235H1422.6C1440.88 602.094 1453.33 584.527 1455.48 565.012L1457.99 546.268C1458.23 543.834 1461.6 543.469 1462.37 545.782L1468.28 563.43C1474.77 582.823 1491.59 595.846 1511.9 598.199C1513.2 598.321 1513.93 599.416 1513.93 600.471C1513.93 601.283 1513.52 602.094 1512.63 602.5H1512.63Z" fill="white"/>
<path d="M1613.71 743.039V731.311C1613.71 716.032 1614.15 698.523 1615.04 678.795C1615.92 659.068 1617.44 636.942 1619.57 612.416C1624.9 553.421 1627.56 510.587 1627.56 483.929C1627.56 474.69 1627.37 465.894 1627.03 457.537C1626.67 449.191 1626.14 440.926 1625.43 432.746C1630.04 428.13 1635.9 425.813 1643 425.813C1656.5 425.813 1664.31 430.795 1666.44 440.743C1666.44 444.299 1666.53 448.032 1666.71 451.94C1666.89 455.856 1666.97 460.119 1666.97 464.735C1666.97 478.597 1666.61 494.323 1665.91 511.919C1665.19 529.512 1664.13 549.505 1662.71 571.899C1660.93 596.421 1659.78 618.281 1659.25 637.476C1658.72 656.67 1658.45 673.38 1658.45 687.591V702.521C1667.68 698.971 1680.64 691.507 1697.34 680.128C1706.21 674.088 1713.76 669.022 1719.97 664.933C1726.19 660.851 1731.24 657.919 1735.15 656.136C1736.93 656.136 1740.03 655.788 1744.48 655.068C1748.91 654.361 1752.2 654.003 1754.33 654.003C1761.43 654.003 1766.58 656.851 1769.78 662.535C1771.91 666.799 1772.98 670.355 1772.98 673.198C1772.98 676.753 1771.91 679.779 1769.78 682.259L1707.46 726.513C1695.38 735.042 1684.1 742.508 1673.63 748.904C1663.15 755.303 1653.3 760.449 1644.07 764.365C1641.94 765.433 1639.81 765.967 1637.68 765.967C1632.7 765.967 1628.09 762.767 1623.83 756.369L1613.71 743.04L1613.71 743.039Z" fill="white"/>
<path d="M757.74 243.967C757.74 237.051 757.991 230.392 758.509 223.984C759.019 217.584 760.298 211.304 762.348 205.155C762.598 204.644 763.308 204.068 764.458 203.427C765.61 202.789 766.955 202.213 768.489 201.697C769.257 201.446 770.086 201.186 770.986 200.928C771.878 200.677 772.965 200.417 774.248 200.16C778.339 200.676 782.436 202.213 786.535 204.77C790.626 207.335 792.676 211.052 792.676 215.916C792.676 220.015 792.293 223.668 791.524 226.866C790.755 230.073 790.372 233.849 790.372 238.203C790.372 245.637 790.05 251.401 789.412 255.496C788.771 259.598 788.452 263.441 788.452 267.024C788.452 279.323 788.835 290.657 789.604 301.033C790.372 311.408 791.01 319.286 791.524 324.666C795.615 324.155 800.162 320.631 805.153 314.098C810.147 307.564 815.07 299.688 819.937 290.465C824.797 281.243 829.277 271.509 833.374 261.26C837.465 251.016 840.794 241.92 843.356 233.975C844.375 230.649 844.826 227.316 844.701 223.984C844.566 220.659 844.893 217.643 845.661 214.955C846.426 212.264 848.155 210.024 850.843 208.229C853.532 206.439 858.072 205.538 864.472 205.538C864.723 205.538 864.982 205.604 865.241 205.73C865.491 205.864 865.751 205.923 866.009 205.923C868.053 205.923 870.482 206.949 873.302 208.996C876.118 211.05 878.161 213.098 879.447 215.145C879.447 230.264 878.997 242.111 878.101 250.691C877.201 259.278 876.759 266.639 876.759 272.788C876.759 285.086 877.588 295.653 879.256 304.491C880.917 313.329 883.67 320.439 887.509 325.818C889.046 327.614 890.448 329.344 891.735 331.006C893.01 332.676 894.164 334.657 895.188 336.964C894.674 339.526 893.847 341.514 892.695 342.92C891.54 344.331 890.198 345.357 888.661 345.993C887.127 346.636 885.459 347.086 883.67 347.339C881.878 347.597 880.082 347.982 878.298 348.492C872.662 347.212 868.122 344.907 864.665 341.574C861.212 338.248 858.393 334.213 856.221 329.47C854.042 324.733 852.441 319.479 851.422 313.715C850.395 307.95 849.502 301.995 848.733 295.846L847.196 298.92C845.145 303.28 842.397 309.045 838.943 316.213C835.486 323.388 831.455 330.372 826.848 337.157C822.24 343.948 816.927 349.837 810.913 354.834C804.9 359.83 798.436 362.326 791.525 362.326C784.098 362.326 778.147 360.85 773.674 357.908C769.19 354.96 765.737 350.162 763.308 343.497C760.871 336.838 759.209 328.26 758.317 317.751C757.417 307.249 756.971 294.31 756.971 278.939C757.482 275.354 757.74 271.77 757.74 268.178V243.967Z" fill="white"/>
<path d="M948.552 296.997C952.133 293.413 955.011 288.801 957.19 283.164C959.361 277.531 961.471 272.151 963.522 267.023L964.291 264.717C965.828 260.622 968.13 255.56 971.201 249.539C974.271 243.521 977.856 237.756 981.95 232.245C986.045 226.738 990.525 222.061 995.388 218.217C1000.25 214.375 1005.24 212.453 1010.36 212.453C1014.71 213.738 1017.97 215.785 1020.15 218.602C1022.32 221.424 1023.99 224.559 1025.14 228.017C1026.3 231.475 1027.32 235.067 1028.22 238.777C1029.11 242.493 1030.33 246.018 1031.86 249.344C1035.19 256.778 1037.68 264.716 1039.35 273.17C1041.01 281.623 1042.42 290.21 1043.58 298.916C1044.73 307.63 1046.07 316.209 1047.61 324.663C1049.14 333.118 1051.44 340.935 1054.52 348.104C1054 352.199 1051.76 355.214 1047.8 357.135C1043.83 359.057 1040.31 360.016 1037.24 360.016C1032.63 360.016 1029.04 358.286 1026.49 354.828C1023.93 351.37 1021.94 347.143 1020.54 342.146C1019.13 337.15 1018.1 331.962 1017.46 326.583C1016.82 321.203 1015.99 316.724 1014.97 313.133C1013.68 308.78 1012.66 303.851 1011.9 298.338C1011.13 292.832 1010.23 287.26 1009.21 281.621C1008.18 275.991 1006.97 270.737 1005.56 265.868C1004.15 261.004 1002.17 257.029 999.612 253.955C995.255 260.87 991.743 267.345 989.054 273.36C986.365 279.383 983.928 285.148 981.758 290.653C979.579 296.166 977.469 301.545 975.425 306.794C973.37 312.047 970.817 317.362 967.747 322.741C963.648 330.176 959.934 335.94 956.612 340.035C953.283 344.137 950.211 347.144 947.395 349.065C944.575 350.987 941.892 352.138 939.334 352.523C936.774 352.908 934.343 353.099 932.038 353.099C929.478 353.099 926.339 351.814 922.635 349.257C918.919 346.699 917.067 343.626 917.067 340.035C917.067 323.894 917.128 308.907 917.259 295.073C917.386 281.241 917.45 266.637 917.45 251.266C917.45 246.913 917.319 242.494 917.067 238.01C916.809 233.529 916.682 229.11 916.682 224.751C916.682 221.678 917.259 218.667 918.41 215.72C919.562 212.778 921.541 210.666 924.361 209.38C925.898 209.38 927.435 209.319 928.969 209.188C930.506 209.061 931.908 208.995 933.194 208.995C936.517 208.995 939.145 209.956 941.064 211.877C942.984 213.798 944.386 216.169 945.286 218.986C946.182 221.809 946.756 224.751 947.015 227.824C947.265 230.9 947.398 233.462 947.398 235.509C947.398 238.331 947.716 241.021 948.358 243.579C948.995 246.144 949.318 248.832 949.318 251.648C949.318 261.129 949.187 269.2 948.935 275.857C948.676 282.522 948.552 288.924 948.552 295.071V296.997Z" fill="white"/>
<path d="M1120.17 342.342C1120.17 344.395 1119.65 346.442 1118.63 348.491C1117.61 350.544 1115.69 352.971 1112.87 355.792C1108.52 355.792 1104.49 355.407 1100.78 354.638C1097.06 353.87 1093.87 352.334 1091.18 350.027C1088.49 347.721 1086.38 344.394 1084.84 340.036C1083.31 335.683 1082.54 329.792 1082.54 322.358C1082.54 318.005 1082.09 313.652 1081.2 309.293C1080.3 304.94 1079.85 300.587 1079.85 296.229C1079.85 283.164 1079.09 270.74 1077.55 258.952C1076.02 247.173 1075.25 234.744 1075.25 221.679C1075.25 216.298 1077.42 212.203 1081.77 209.381C1084.33 208.612 1086.76 208.035 1089.07 207.651C1091.37 207.267 1093.93 206.823 1096.75 206.308C1100.33 207.334 1103.02 208.804 1104.81 210.726C1106.6 212.648 1108.27 214.51 1109.8 216.298C1109.54 218.863 1109.35 221.425 1109.23 223.983C1109.09 226.548 1109.03 229.236 1109.03 232.052C1109.03 241.793 1109.54 252.167 1110.57 263.18C1111.59 274.198 1112.74 284.7 1114.03 294.691C1115.3 304.681 1116.52 313.778 1117.67 321.973C1118.83 330.177 1119.65 336.452 1120.17 340.805V342.342H1120.17ZM1086.38 125.992C1087.66 124.715 1089.96 124.07 1093.29 124.07C1095.85 124.07 1098.47 124.521 1101.16 125.416C1103.85 126.316 1106.35 127.596 1108.65 129.258C1110.95 130.928 1112.81 132.784 1114.22 134.831C1115.62 136.884 1116.33 139.058 1116.33 141.362C1116.33 146.234 1115.11 149.499 1112.68 151.162C1110.25 152.83 1106.86 153.659 1102.51 153.659C1099.69 153.659 1096.81 153.214 1093.87 152.313C1090.92 151.418 1088.3 150.332 1086 149.047C1083.69 147.77 1081.83 146.424 1080.43 145.013C1079.02 143.608 1078.32 142.263 1078.32 140.979C1078.32 137.903 1078.64 135.214 1079.28 132.909C1079.91 130.603 1082.28 128.297 1086.38 125.991L1086.38 125.992Z" fill="white"/>
<path d="M1175.07 344.649C1172 340.037 1169.31 334.657 1167 328.508C1164.7 322.359 1162.71 316.02 1161.05 309.486C1159.38 302.955 1158.04 296.614 1157.02 290.465C1155.99 284.316 1155.35 278.937 1155.1 274.325C1154.33 265.872 1152.35 257.292 1149.15 248.579C1145.95 239.872 1144.35 231.286 1144.35 222.831C1144.35 218.478 1146.27 215.855 1150.11 214.955C1153.95 214.059 1157.53 213.609 1160.86 213.609C1161.88 213.609 1163.36 213.801 1165.28 214.186C1167.2 214.57 1169.12 215.212 1171.04 216.107C1172.96 217.008 1174.74 218.095 1176.41 219.374C1178.07 220.659 1179.16 222.196 1179.67 223.984C1179.67 229.112 1180.18 235.002 1181.21 241.662C1182.23 248.327 1183.45 254.921 1184.85 261.452C1186.26 267.985 1187.6 274.135 1188.89 279.899C1190.16 285.663 1191.06 290.341 1191.57 293.925C1195.92 288.545 1199.95 281.184 1203.67 271.828C1207.37 262.48 1211.21 253.256 1215.19 244.159C1219.15 235.07 1223.5 227.06 1228.24 220.142C1232.97 213.226 1238.67 209.382 1245.33 208.613C1250.7 208.613 1254.92 208.937 1257.99 209.574C1261.07 210.217 1263.37 211.178 1264.9 212.455C1266.44 213.74 1267.46 215.405 1267.98 217.452C1268.49 219.505 1269 221.936 1269.51 224.752C1265.16 229.621 1261.38 234.298 1258.18 238.778C1254.98 243.265 1251.98 247.808 1249.16 252.421C1246.34 257.032 1243.66 261.901 1241.1 267.023C1238.54 272.151 1235.73 277.657 1232.66 283.546C1232.14 284.831 1231.56 286.177 1230.93 287.581C1230.29 288.992 1229.59 290.338 1228.82 291.615C1225.23 296.484 1222.35 302.316 1220.18 309.102C1218 315.892 1215.57 322.492 1212.88 328.892C1210.19 335.298 1206.93 340.936 1203.09 345.8C1199.25 350.669 1193.88 353.485 1186.97 354.254L1175.07 344.647L1175.07 344.649Z" fill="white"/>
<path d="M1272.97 287.774C1272.97 278.3 1274.18 268.753 1276.62 259.147C1279.04 249.54 1282.69 240.894 1287.56 233.207C1292.42 225.522 1298.44 219.313 1305.61 214.57C1312.77 209.832 1321.09 207.46 1330.56 207.46C1337.21 207.46 1343.04 208.487 1348.03 210.533C1353.02 212.588 1357.18 215.276 1360.51 218.603C1363.83 221.935 1366.33 225.713 1367.99 229.94C1369.65 234.167 1370.49 238.586 1370.49 243.196C1370.49 249.093 1369.4 254.792 1367.23 260.298C1365.05 265.81 1361.91 270.74 1357.82 275.093C1353.72 279.451 1348.66 282.969 1342.65 285.661C1336.64 288.349 1329.79 289.829 1322.11 290.079C1318.79 290.338 1315.84 290.211 1313.28 289.695C1310.72 289.184 1307.78 288.417 1304.45 287.388C1304.2 288.673 1304.07 289.76 1304.07 290.654V292.769C1304.32 302.249 1305.86 309.678 1308.68 315.056C1311.49 320.436 1314.56 324.471 1317.89 327.16C1321.21 329.851 1324.42 331.579 1327.49 332.348C1330.56 333.117 1332.6 333.501 1333.63 333.501C1341.56 333.501 1348.15 331.713 1353.4 328.121C1358.65 324.537 1364.47 320.568 1370.87 316.208C1372.15 316.726 1373.56 317.301 1375.09 317.938C1376.63 318.58 1378.03 319.799 1379.32 321.589C1379.57 323.126 1379.83 324.343 1380.09 325.238C1380.34 326.139 1380.47 327.484 1380.47 329.274C1380.21 332.863 1379.25 335.87 1377.59 338.303C1375.92 340.742 1374.07 342.855 1372.02 344.645C1365.37 350.282 1359.16 353.927 1353.4 355.595C1347.64 357.259 1340.16 358.094 1330.94 358.094C1326.84 358.094 1321.79 357.194 1315.78 355.403C1309.76 353.607 1304.7 351.687 1300.61 349.639C1294.47 345.027 1289.67 340.416 1286.21 335.805C1282.76 331.194 1280.07 326.33 1278.15 321.203C1276.23 316.08 1274.95 310.766 1274.31 305.255C1273.67 299.748 1273.22 293.918 1272.97 287.769L1272.97 287.774ZM1306.37 267.023C1307.39 267.282 1308.99 267.473 1311.17 267.599C1313.34 267.733 1315.07 267.792 1316.36 267.792C1325.05 267.792 1331.77 265.617 1336.51 261.259C1341.24 256.906 1343.61 251.652 1343.61 245.503C1343.61 241.919 1342.59 238.587 1340.54 235.511C1338.49 232.438 1335.67 230.901 1332.1 230.901C1329.54 230.901 1327.04 231.158 1324.61 231.669C1322.17 232.187 1320.32 233.465 1319.04 235.511C1318.02 236.797 1316.87 238.077 1315.59 239.354C1314.3 240.639 1313.09 242.43 1311.94 244.735C1310.79 247.039 1309.7 249.922 1308.68 253.381C1307.65 256.839 1306.88 261.389 1306.37 267.022L1306.37 267.023Z" fill="white"/>
<path d="M1403.12 346.185C1403.63 344.905 1403.95 342.534 1404.08 339.075C1404.21 335.617 1404.27 331.329 1404.27 326.201C1404.27 321.337 1404.21 316.083 1404.08 310.445C1403.95 304.814 1403.82 299.626 1403.7 294.882C1403.56 290.144 1403.44 286.044 1403.31 282.584C1403.18 279.126 1403.12 277.143 1403.12 276.628V263.948C1403.12 258.314 1402.93 252.676 1402.55 247.038C1402.16 241.407 1401.84 235.769 1401.59 230.129V228.592C1401.59 226.285 1401.07 224.047 1400.05 221.867C1399.02 219.694 1398.51 217.322 1398.51 214.757C1399.53 211.43 1400.94 208.866 1402.74 207.072C1404.53 205.284 1407.73 204.383 1412.34 204.383C1416.69 204.383 1420.14 205.217 1422.7 206.88C1425.26 208.549 1427.18 210.597 1428.46 213.029C1429.74 215.467 1430.58 218.216 1430.96 221.29C1431.34 224.364 1431.66 227.312 1431.92 230.128L1433.07 250.496C1435.63 248.446 1438.31 245.439 1441.13 241.465C1443.95 237.497 1446.89 233.204 1449.96 228.591C1453.03 223.979 1456.23 219.5 1459.56 215.141C1462.88 210.788 1466.34 207.204 1469.93 204.382C1471.97 203.362 1474.53 202.843 1477.61 202.843C1483.75 202.843 1488.68 203.997 1492.39 206.304C1496.1 208.608 1498.98 212.325 1501.03 217.448C1500.51 219.754 1499.11 222.383 1496.8 225.325C1494.5 228.272 1491.87 231.347 1488.93 234.547C1485.99 237.754 1482.92 241.08 1479.72 244.538C1476.51 247.996 1473.77 251.396 1471.46 254.721C1467.62 258.824 1463.78 263.818 1459.94 269.709C1456.1 275.605 1452.65 281.62 1449.58 287.769C1446.51 293.918 1443.94 299.748 1441.9 305.255C1439.85 310.766 1438.83 315.185 1438.83 318.512C1438.83 320.566 1438.89 323.449 1439.02 327.158C1439.15 330.874 1439.21 333.757 1439.21 335.803C1439.21 338.879 1438.96 342.018 1438.45 345.219C1437.93 348.426 1436.91 351.368 1435.38 354.056C1433.84 356.747 1431.79 358.92 1429.23 360.59C1426.67 362.252 1423.34 363.087 1419.25 363.087C1414.38 363.087 1410.48 361.61 1407.54 358.668C1404.59 355.721 1403.12 352.069 1403.12 347.716V346.178L1403.12 346.185Z" fill="white"/>
<path d="M1566.68 276.246C1571.79 285.986 1576.53 295.784 1580.88 305.643C1585.23 315.508 1587.41 326.586 1587.41 338.885C1587.41 345.291 1586.31 351.314 1584.14 356.944C1581.96 362.578 1578.96 367.573 1575.12 371.931C1571.28 376.284 1566.68 379.745 1561.3 382.307C1555.93 384.864 1550.17 386.15 1544.02 386.15C1538.65 386.15 1533.71 384.037 1529.24 379.809C1524.76 375.582 1522.26 370.778 1521.75 365.399C1522.77 363.344 1523.73 361.873 1524.63 360.98C1525.52 360.079 1527.51 359.25 1530.58 358.48C1533.65 361.556 1536.73 363.092 1539.8 363.092C1544.15 363.092 1547.99 361.17 1551.32 357.328C1554.64 353.485 1556.31 348.621 1556.31 342.726C1556.31 340.676 1556.18 339.399 1555.92 338.883C1553.1 327.354 1549.52 316.919 1545.17 307.563C1540.82 298.215 1536.53 289.443 1532.31 281.242C1528.09 273.046 1524.44 265.293 1521.37 257.992C1518.3 250.691 1516.76 243.329 1516.76 235.895C1516.76 229.746 1517.27 223.407 1518.3 216.874C1519.32 210.341 1521.11 204.257 1523.67 198.621C1526.23 192.988 1529.62 188.376 1533.85 184.787C1538.07 181.202 1543.51 179.408 1550.17 179.408C1550.93 179.408 1551.64 179.473 1552.28 179.599C1552.91 179.731 1553.62 179.791 1554.39 179.791C1556.94 179.791 1559.12 181.137 1560.91 183.826C1562.7 186.515 1563.98 188.887 1564.75 190.936C1564.75 192.99 1564.04 194.586 1562.64 195.74C1561.23 196.892 1559.89 198.112 1558.61 199.389C1555.54 203.492 1553.29 208.035 1551.89 213.033C1550.48 218.028 1549.78 223.09 1549.78 228.211V237.434C1549.78 239.229 1550.42 241.794 1551.7 245.118C1552.98 248.45 1554.45 251.976 1556.11 255.686C1557.78 259.403 1559.44 262.862 1561.11 266.062C1562.77 269.269 1564.11 271.635 1565.14 273.172L1566.67 276.246H1566.68Z" fill="white"/>
<path d="M1654.98 353.871C1650.62 353.871 1646.72 352.651 1643.27 350.22C1639.81 347.789 1636.16 345.417 1632.32 343.11C1623.88 338.246 1617.35 331.841 1612.75 323.897C1608.14 315.959 1605.84 306.221 1605.84 294.693C1605.84 289.059 1606.8 282.335 1608.71 274.518C1610.63 266.704 1612.36 259.47 1613.9 252.805C1614.67 249.99 1616.45 246.079 1619.27 241.085C1622.08 236.09 1625.61 231.226 1629.83 226.484C1634.05 221.746 1638.85 217.584 1644.23 213.995C1649.6 210.41 1655.11 208.614 1660.74 208.614C1663.04 208.614 1665.34 209.383 1667.65 210.921C1671.23 213.227 1674.94 215.148 1678.78 216.685C1682.62 218.222 1686.52 219.761 1690.49 221.297C1694.46 222.834 1698.36 224.504 1702.2 226.292C1706.04 228.088 1709.62 230.394 1712.95 233.21C1715.76 235.514 1717.94 238.336 1719.48 241.663C1721.01 244.995 1722.55 248.197 1724.08 251.27C1725.36 253.835 1726.13 256.458 1726.39 259.149C1726.64 261.838 1726.77 264.595 1726.77 267.41V274.711C1726.51 282.656 1724.91 290.022 1721.97 296.807C1719.02 303.598 1715.5 310.198 1711.41 316.597C1709.36 319.929 1706.67 323.773 1703.35 328.126C1700.02 332.485 1696.31 336.58 1692.22 340.424C1688.12 344.267 1683.83 347.534 1679.35 350.223C1674.87 352.914 1670.33 354.258 1665.72 354.258C1664.44 354.258 1663.1 354.19 1661.69 354.065C1660.28 353.934 1658.81 353.874 1657.28 353.874H1654.98L1654.98 353.871ZM1692.6 262.029C1692.6 254.6 1689.91 249.222 1684.54 245.889C1679.16 242.562 1673.27 240.894 1666.88 240.894C1661.76 240.894 1657.41 242.881 1653.83 246.85C1650.24 250.824 1647.17 255.687 1644.61 261.452C1642.05 267.216 1640.2 273.365 1639.04 279.899C1637.89 286.43 1637.32 292.135 1637.32 296.998C1637.32 298.026 1637.51 300.074 1637.89 303.147C1638.28 306.223 1638.98 309.427 1640 312.754C1641.02 316.085 1642.5 319.034 1644.42 321.593C1646.34 324.155 1648.83 325.435 1651.9 325.435C1654.72 325.435 1657.28 324.99 1659.58 324.089C1661.88 323.194 1664.44 322.108 1667.26 320.823C1671.35 318.266 1674.94 314.808 1678.01 310.447C1681.08 306.094 1683.58 301.359 1685.5 296.23C1687.42 291.107 1688.95 285.728 1690.11 280.089C1691.26 274.459 1692.08 269.076 1692.6 263.951V262.029H1692.6Z" fill="white"/>
<path d="M528.588 839.21C510.452 848.616 443.421 878.977 332.311 878.977C227.968 878.977 155.485 848.382 135.885 839.083C132.746 837.597 131.049 834.157 131.75 830.739L156.059 713.309L156.462 713.246C208.136 705.05 268.632 688.023 331.442 663.989C393.657 688.045 454.07 704.243 506.189 710.826L507.228 710.953L532.471 830.995C533.149 834.286 531.58 837.641 528.589 839.212L528.588 839.21Z" fill="white"/>
<path d="M505.785 702.184C457.251 695.942 401.103 681.143 343.278 659.403C355.136 654.71 366.782 649.912 377.918 645.093C415.103 629.043 450.571 611.632 483.258 593.31L505.786 702.184H505.785Z" fill="white"/>
<path d="M416.928 272.971L458.037 207.557C459.67 204.924 458.122 201.486 455.088 200.976L416.928 194.585V124.521L453.265 124.033C457.719 123.99 460.603 119.34 458.695 115.307C447.536 91.9946 411.561 28.8322 345.867 21.4855V12.2929C345.867 5.51996 340.352 0 333.585 0H330.574C323.827 0 318.292 5.51996 318.292 12.2929V21.4855C252.598 28.8322 216.621 91.9946 205.464 115.307C203.533 119.341 206.439 123.99 210.894 124.033L247.23 124.521V193.523L208.899 200.869C205.908 201.443 204.446 204.839 206.057 207.408L247.23 272.971L183.551 582.546L184.464 583.097C216.219 602.141 250.413 619.891 286.113 635.879C300.94 642.524 316.192 648.915 331.464 654.88C345.973 649.275 360.461 643.351 374.547 637.28C411.711 621.272 447.284 603.756 480.291 585.242L481.202 584.732L416.929 272.972L416.928 272.971ZM358.149 174.925C358.149 177.409 356.154 179.405 353.694 179.405H310.463C308.002 179.405 305.987 177.409 305.987 174.925V146.051C305.987 131.698 317.717 119.957 332.079 119.957C339.248 119.957 345.76 122.888 350.49 127.622C355.221 132.356 358.149 138.874 358.149 146.051V174.925Z" fill="white"/>
<path d="M319.668 659.359C261.779 680.972 205.907 696.557 157.903 704.434L181.342 591.122C213.012 610.039 247.101 627.725 282.652 643.648C295.061 649.211 307.512 654.476 319.667 659.359H319.668Z" fill="white"/>
<path d="M649.561 675.262C638.446 700.124 605.418 713.074 554.806 713.074C540.317 713.074 524.345 711.991 507.036 709.847L505.996 703.52C506.357 703.414 506.739 703.393 507.12 703.435C581.045 712.755 630.851 701.546 643.749 672.671C656.604 643.946 632.061 599.529 576.421 550.824C575.106 549.678 574.979 547.661 576.124 546.345C577.291 545.007 579.306 544.88 580.621 546.048C639.358 597.449 663.837 643.351 649.561 675.262Z" fill="white"/>
<path d="M551.486 529.516C550.811 529.516 550.13 529.301 549.552 528.859C525.107 510.106 497.286 491.707 466.856 474.175C465.333 473.298 464.81 471.351 465.687 469.826C466.562 468.301 468.509 467.778 470.032 468.655C500.702 486.325 528.759 504.88 553.424 523.803C554.819 524.874 555.082 526.871 554.014 528.268C553.387 529.086 552.442 529.515 551.487 529.515L551.486 529.516Z" fill="white"/>
<path d="M116.445 545.767C115.776 545.767 115.104 545.558 114.531 545.124C35.4806 485.422 -1.8559 427.738 14.6544 390.821C32.3548 351.239 106.795 342.079 213.779 366.322C215.494 366.709 216.568 368.416 216.18 370.131C215.792 371.848 214.084 372.921 212.374 372.534C110.119 349.364 36.5846 357.368 20.4624 393.422C5.24895 427.44 41.8477 482.25 118.362 540.04C119.766 541.1 120.045 543.097 118.986 544.5C118.36 545.331 117.407 545.767 116.444 545.767H116.445Z" fill="white"/>
<path d="M183.274 583.628L181.662 589.849C181.301 589.784 180.962 589.657 180.644 589.466C166.474 580.974 152.771 572.184 139.875 563.352C138.433 562.354 138.072 560.38 139.047 558.916C140.045 557.472 142.038 557.111 143.48 558.087C156.059 566.728 169.465 575.328 183.274 583.629V583.628Z" fill="white"/>
<path d="M483.915 591.738C483.618 591.908 483.279 592.035 482.96 592.078L481.454 585.794C598.397 520.146 666.489 451.739 650.877 415.519C649.011 411.209 645.913 407.366 641.67 404.097C640.271 403.036 639.995 401.039 641.077 399.638C642.137 398.237 644.132 397.983 645.531 399.044C650.665 402.971 654.419 407.664 656.731 413.014C673.976 453.056 606.14 523.226 483.915 591.74V591.738Z" fill="white"/>
<path d="M462.168 407.274C460.738 407.274 459.44 406.304 459.08 404.855C458.658 403.147 459.699 401.42 461.404 400.997C473.12 398.093 498.047 392.38 508.469 390.292C510.2 389.937 511.868 391.066 512.213 392.789C512.557 394.514 511.44 396.192 509.718 396.537C499.559 398.572 474.341 404.35 462.935 407.178C462.678 407.241 462.419 407.272 462.168 407.272V407.274Z" fill="white"/>
<path d="M29.0556 646.834C28.4914 646.834 27.9207 646.684 27.4041 646.368C25.9029 645.453 25.4274 643.494 26.3424 641.992C49.4384 604.047 107.882 556.675 186.689 512.02C188.217 511.152 190.159 511.69 191.024 513.223C191.89 514.752 191.352 516.696 189.822 517.562C111.931 561.697 54.3262 608.258 31.7752 645.304C31.1763 646.29 30.1288 646.832 29.0556 646.832V646.834Z" fill="white"/>
<path d="M155.533 706.106L153.979 712.511C131.95 715.111 112.102 716.106 94.8115 715.512C72.4597 714.744 54.3699 711.319 41.2488 705.323C39.6473 704.588 38.9405 702.694 39.6833 701.084C40.4056 699.494 42.3065 698.794 43.9285 699.53C66.2892 709.774 104.504 712.041 154.408 706.046C154.807 705.995 155.181 706.03 155.533 706.106Z" fill="white"/>
<path d="M623.513 391.68L619.134 393.152C601.54 399.067 588.189 412.859 584.26 431.014L580.572 449.763C580.065 452.111 576.738 452.167 576.15 449.839L571.375 431.014C567.058 413.915 554.266 399.156 537.655 393.274L533.116 391.666C530.999 390.916 531.137 387.875 533.313 387.32L533.351 387.309C552.343 382.463 566.858 366.558 571.375 347.469L576.141 329.164C576.703 326.793 580.093 326.847 580.578 329.236L584.258 347.469C588.328 367.521 603.454 382.501 623.324 387.314C625.538 387.851 625.673 390.954 623.513 391.679V391.68Z" fill="white"/>
<path d="M22.2734 699.148C34.5746 699.148 44.5467 689.167 44.5467 676.854C44.5467 664.542 34.5746 654.561 22.2734 654.561C9.97212 654.561 0 664.542 0 676.854C0 689.167 9.97212 699.148 22.2734 699.148Z" fill="white"/>
</svg>
