<?xml version="1.0" encoding="UTF-8"?><svg id="Camada_3" xmlns="http://www.w3.org/2000/svg" viewBox="0 0 1920 1080"><defs><style>.cls-1{fill:#61b0ff;}.cls-2{fill:#0a307c;}.cls-3{fill:#05183c;opacity:.2;}.cls-4{fill:#08234c;}.cls-5{fill:#e4dede;}.cls-6{fill:#80c6ff;}.cls-7{fill:#0a42a5;}.cls-8{fill:#28437f;}.cls-9{fill:#06296b;}.cls-10{fill:#1160d3;}.cls-11{fill:#365fba;}.cls-12{fill:#06275b;}.cls-13{fill:#417cea;}.cls-14{fill:#304d9e;}</style></defs><path class="cls-3" d="M478.25,795.18c-.39,.34-.79,.69-1.17,1.03,.79-.49,1.59-.86,2.37-1.01,1.35-1.42,2.84-2.8,4.41-4.15,1.11-.97,2.25-1.91,3.41-2.87-1.8,1.21-3.63,2.43-5.17,3.72-1.32,1.1-2.61,2.18-3.86,3.27Z"/><path class="cls-3" d="M319.87,401.58c.31,.07,.63,.14,.96,.2h0c-.32-.08-.65-.14-.96-.2Zm36.91,358.67c-.24-.01-.49-.04-.76-.08-1.19-.17-2.21-.45-3.08-.76-.44-.17-.83-.34-1.21-.51-.37-.18-.7-.35-1.03-.52-.48-.25-.9-.51-1.29-.72-.27-.14-.52-.25-.76-.35-.66-.25-1.26-.32-1.94-.01-.04,.01-.07,.03-.11,.06-.03,.01-.07,.03-.1,.04-.06,.03-.11,.07-.17,.1h0s-.07,.06-.1,.07c-.06,.04-.11,.08-.17,.13-.01,.01-.03,.03-.04,.03-.07,.06-.14,.13-.21,.18-.11,.1-.22,.2-.35,.32-.25,.27-.53,.58-.84,.96-.03,.06-.08,.11-.14,.18-.07,.1-.15,.2-.24,.31-.04,.06-.08,.11-.13,.18-.07,.08-.14,.18-.21,.28-.04,.07-.1,.14-.14,.21-.17,.24-.34,.49-.52,.77-.03,.03-.06,.06-.07,.1h.01c1.53,.66,3.44,2.26,7.21,2.81,5.21,.74,6.37-1.17,6.9-3.72h0c-.17-.01-.34-.03-.52-.06Zm10.83-12.1c-.35,.1-.69,.24-1.03,.42-.35,.18-.69,.42-1.01,.72-.13,.11-.25,.24-.37,.37-.1,.1-.2,.2-.28,.31-.13,.17-.25,.35-.38,.52-.1,.18-.2,.35-.3,.53-.1,.21-.2,.42-.28,.63,2.82-.03,5.65,.86,7.64-3.65,0-.01,.01-.03,.03-.04-1.32-.03-2.7-.18-4.03,.2Zm25.24-15.27c-.06,.01-.11,.03-.18,.04-.14,.03-.3,.07-.45,.08-.3,.07-.59,.13-.89,.17-.3,.06-.6,.11-.91,.15-.56,.1-1.12,.2-1.69,.32-.46,.08-.94,.21-1.39,.37-.28,.08-.56,.2-.84,.32-.14,.04-.27,.11-.41,.18-.01,0-.03,.01-.04,.03-.03,0-.06,.01-.08,.03,0,.01-.01,.01-.01,.01-.51,.25-.98,.58-1.45,.97-.56,.48-1.22,1.11-1.94,1.84,3.36-.86,7.05-.53,9.95-3.98,.15-.18,.31-.38,.45-.58-.04,0-.07,.01-.11,.03Zm61.73,41.93c-.11-.03-.21-.07-.31-.11h-.01c-.1-.06-.2-.1-.31-.15-.1-.06-.21-.11-.31-.17h-.01c-.21-.14-.41-.28-.62-.45-.21-.15-.42-.34-.65-.56-.53-.53-1.07-1.19-1.62-2.01-.15-.22-.3-.46-.44-.7h0c-.25-.48-.45-.97-.62-1.46-1.28-3.99,.34-8.42-.51-12.55-.17-.86-.42-1.67-.7-2.44-.2-.51-.41-1-.63-1.48-.24-.49-.48-.98-.72-1.46-.37-.7-.74-1.41-1.12-2.11-.25-.49-.51-.98-.73-1.48-.24-.49-.46-.98-.66-1.5-.21-.52-.39-1.05-.55-1.6-.07-.27-.15-.53-.21-.8-.27-1.07-.45-2.14-.56-3.2h0c-.06-.67-.1-1.33-.11-2-.03-1.73,.13-3.46,.42-5.16,.1-.52,.2-1.05,.32-1.57h0c.08-.42,.18-.83,.3-1.24,.07-.32,.17-.65,.25-.97,.11-.35,.21-.7,.32-1.04,.06-.18,.11-.37,.18-.55,.11-.34,.23-.69,.35-1.03,1.53-4.29,5.86-10.44,3.54-15.37-.2-.41-.41-.79-.63-1.14-.11-.18-.24-.35-.37-.51-.13-.17-.25-.32-.39-.48-.06-.07-.13-.14-.2-.21-.15-.17-.31-.32-.48-.46-.17-.15-.35-.31-.55-.44-.15-.13-.32-.24-.49-.34-.18-.13-.37-.22-.56-.32-.18-.1-.38-.2-.58-.28-.22-.08-.44-.17-.66-.25-.18-.07-.38-.13-.58-.18-.22-.06-.44-.11-.66-.15-.01,0-.03,0-.04-.01-.42-.08-.86-.14-1.31-.18-.48-.04-.97-.07-1.46-.07-.7,0-1.42,.04-2.15,.14-1.07,.13-2.16,.34-3.25,.6-4.71,1.17-9.34,3.57-12.08,5.55-2.42-3.11-3.11-12.35-8.25-12.89-.17-.01-.34-.03-.51-.03-.15,0-.31,.01-.45,.03-.32,.03-.62,.1-.91,.2-.13,.04-.25,.08-.38,.14-.13,.06-.27,.13-.39,.2-.97,.53-1.78,1.42-2.47,2.49-.06,.07-.1,.14-.14,.21-.03,.04-.06,.1-.08,.14,3.89,.66,5.13,6.52,6.66,10.43,.41,1.01,.82,1.9,1.31,2.53,.28-.21,.59-.42,.91-.63,3.51-2.35,9.19-4.99,14.42-5.58,2.05-.25,4.03-.18,5.78,.32,1.52,.45,2.87,1.24,3.93,2.47,.55,.6,1.01,1.32,1.39,2.14,2.26,4.83-1.78,10.86-3.4,15.15-.03,.06-.06,.11-.06,.15-.04,.07-.06,.13-.08,.2-.56,1.59-1.05,3.22-1.41,4.86h0c-.34,1.5-.56,2.99-.66,4.5-.22,2.75,0,5.55,.8,8.36,.84,2.96,2.42,5.33,3.64,7.91,.62,1.32,1.17,2.7,1.48,4.26,.45,2.19,.2,4.48,.07,6.73-.03,.22-.03,.45-.04,.66-.13,2.59-.01,5.14,1.53,7.46,.31,.48,.63,.9,.94,1.28,.69,.83,1.38,1.43,2.05,1.81,2.8,1.63,5.42-.25,7.74-3.39-.42,0-.84-.06-1.28-.21Zm22.34,21.5s-.08,.06-.13,.08c-.08,.06-.18,.13-.28,.2-.07,.04-.13,.08-.2,.13-.11,.08-.24,.17-.35,.25-.14,.1-.3,.21-.44,.32-.39,.3-.8,.62-1.21,.91-.27,.2-.53,.39-.79,.59-.3,.21-.58,.41-.86,.59-.66,.45-1.34,.84-2.01,1.1-.28,.1-.55,.18-.81,.22-.14,.03-.27,.04-.41,.06-.21-.38-.42-.76-.6-1.14h0c-.18-.41-.35-.81-.51-1.21-1.59-4.31-1.35-9.34-.77-14.09-.01,0-.01-.01-.01-.03h.01c.04-.37,.08-.72,.14-1.07,.21-1.69,.46-3.33,.67-4.88,.53-3.99,2.61-10.79,2.35-16.08-.01-.31-.03-.62-.07-.91-.03-.3-.07-.59-.13-.87-.03-.22-.07-.44-.13-.63-.01-.1-.04-.2-.07-.28-.1-.38-.22-.73-.37-1.07-.07-.17-.14-.32-.21-.46-.11-.21-.22-.41-.35-.59-.14-.22-.3-.42-.46-.62-.07,.15-.15,.31-.24,.46-.07,.17-.15,.34-.24,.51-.04,.07-.07,.14-.1,.2-.06,.11-.11,.24-.17,.37-.3,.63-.62,1.33-.96,2.09-.07,.17-.15,.34-.24,.51-.1,.22-.21,.46-.32,.7-.51,1.11-1.07,2.29-1.66,3.46,.65,5.44-1.69,12.96-2.26,17.24-.25,1.88-.56,3.91-.82,5.99-.01,.01-.01,.03,0,.04-.46,3.86-.72,7.9,.06,11.59,.35,1.76,.93,3.43,1.83,4.99,.89-.07,1.78-.46,2.66-1.01,.2-.11,.38-.24,.58-.37,2.26-1.5,4.52-3.81,6.77-4.23,1.01-1.07,2.09-2.12,3.23-3.15-.04,.03-.1,.06-.14,.08Zm11.76-38.38l-.22-1.83c-.59,.15-1.14,.3-1.64,.44-.08,.03-.17,.06-.27,.08-.15,.04-.3,.08-.45,.13-.14,.04-.27,.08-.41,.13-1.14,.34-2,.65-2.6,.96-.62,.3-.98,.59-1.14,.87-.01,.04-.04,.1-.04,.14-.04,.13-.04,.25,.03,.39,.03,.08,.07,.15,.13,.24,.13,.17,.32,.34,.59,.52,.22-.06,.45-.11,.67-.17,1.03-.27,2.18-.55,3.46-.83,.69-.15,1.35-.34,1.97-.53l-.07-.53Zm3.26,26.82h0c-.2,.11-.38,.24-.58,.38-.39,.28-.79,.55-1.18,.82-.03,.01-.06,.04-.08,.06h0c-.07,.06-.14,.11-.2,.15-.14,.1-.28,.2-.41,.3-.21,.14-.42,.3-.62,.44h0s-.04,.03-.06,.04c-.38,.3-.74,.58-1.1,.87-.14,.11-.3,.24-.42,.37,1.64-1.11,3.27-2.19,4.65-3.33v-.08Z"/><polygon class="cls-8" points="854.22 1080 878.13 1032.57 896.51 1004.13 896.51 972.37 575.13 933 579.27 998.75 550.4 1036.23 535.77 1064.95 559.71 1080 854.22 1080"/><path class="cls-13" d="M53.68,1008.45s-11.66-20.38-8.27-23.73c3.39-3.36,35.47-16.46,35.47-16.46l83.14-43.8,48.37-32.72,43.72-46.41s-5.83-46.9-6.99-49.32,4.65-35.72,4.65-35.72l36.32,16.8,20.46-3.42s21.34,7.11,24.18,7.11,18.1-3.29,18.3-5.2c.2-1.91,17.45-10.85,17.45-10.85l20.58-20.2,34.72-22.06,31.87,79.76,15.13,9.61,18.43,15.89,22.21,1.66,2.82,31.47v17.29l27.6,34.93,27.12-12.74,24.09,28.39s-10.44,29.47-8.54,39.83c1.63,8.85,26.36,42.67,5.69,36.99-5.73-1.58-17.38-7.05-17.38-7.05l-479.98,39.5-41.16-29.54Z"/><path class="cls-11" d="M567.56,990.53c-7.62-6.5-18.34-12.24-27.36-16.61-6.68-3.24-10.53-4.89-15.82-10.87-6.54-7.39-11.22-15.8-20.32-19.87-22.08-9.88-42.65-9.6-56.97-34.37,11.82,7.55,22.35,8.58,35.77,11.32,12.55,2.56,21.75,11.18,30.45,20.79,10.53,11.63,22.3,15.64,35.26,23.44,10.41,6.26,11.9,16.68,18.97,26.17Z"/><path class="cls-12" d="M905.1,966.33l-1.94,7.25c-4.52,3.58-10.09,6.67-16.05,8.89,.89,5.33-1.69,9.61-11.83,11.69-13.71,2.81-32.32-7.6-45.23-10.85-10.27-2.57-18.21,.67-28.6,.76-8.67,.07-25.57,15.71-34.29,15.78-18.75,.14-20.99-13.74-35.56-5.69-13.63,7.55-31.64,4.74-45.51,0-11.41-3.89-15.41,2.07-26.94-1.73-28.47-9.36-55.76-29.69-68.74-57.26-5.8-12.32-8.73-27.71-23.92-31.08-11.49-2.57-26.99,4.92-37.52-2.4-17.72-12.34-16.17-55.28-14.8-74.38,1.14-15.91,7.26-30.41,23.86-36.23,11.61-4.06,26.61,.08,39.3,.06,23.42-.07,42.93,14.12,63.26,25.5,13.88,7.78,25.32,11.33,34.9,23.85,5.07,6.6,4.83,7.41,12.97,10.99,10,4.4,19.34,8.99,29,14.43,11.97,6.73,23.54,16.95,36.62,21.34,4.92,1.66,10.5,2.29,15.79,3.32,2.59-2.49,5.38-4.62,8.01-6.18,10.55-6.31,23.2-5.87,33.91-11.54,5.33-2.81,10.03-6.37,16.15-7.17,7.69-1,11.21,2.4,16.99,6.72,5.8,4.37,12.2,6.35,18.58,9.65,4.55,2.35,8.12,6.3,13,7.88,3.12,1.01,6.32,.67,9.11,2.75,3.11,2.3,3.06,5.34,4.81,8.39,3.53,6.17,9.47,10.26,12.74,16.81,3.34,6.72,6.25,13.59,6.28,21.15,.01,6.6,.94,22.22-4.36,27.29Z"/><path class="cls-4" d="M590.08,798.04c9.22,4.35,18.16,12.21,26.91,17.71,8.58,5.39,18.25,10.52,25.44,17.73s13.02,15.07,18.28,23.36,11.49,14.29,18.03,21.49c2.36,2.6,6.96,9.1,10.84,9.83,7.47,1.4,7.68,4.86,11.63,9.38,6.2,7.11,12.51,14.59,20.93,18.94,26.54,13.68,41.73,9.89,46.45,10.83-13.78-5.27-46.94-34.14-37.23-31.26,5.22,1.55,28.28,17.25,32.97,19.88,11.49,6.45,38.41,24.18,75.71,27.14,7.91,.63-6-10.07-20.41-12.8-8.52-1.62-22.04-2.43-19.73-8.64,2.71-7.3,43.71,13.18,56.03,4.89,5.14-3.46-46.73-17.63-51.41-21.08-8.89-6.56,18.36-2.07,33.61-4.43,11.71-1.81,25.78-1.58,36.74-6.23-2.87-8.84-19.23-10.6-26.85-12.47-10.53-2.58-16.28-5.97-24.03-13.08-10.55-9.68-22.32-8.74-35.78-11.59-9.7-2.05-18.3-5.89-27.47-9.49-8.18-3.21-10.16-6.99-16.66-12.18-7.24-5.79-16.97-7.25-24.52-13.16-7.5-5.87-12.84-14.43-19.94-20.42-3.94-3.32-8.67-3.62-12.25-7.6-4.6-5.12-3.46-6.25-12.87-9.46-6.12-2.09-12.53-3.16-18.98-3.61-10.25-.72-24.57-6.29-36.34-4.19-12.16,2.16-18.09,13.41-11.13,24.16,5.81,8.97-23.59-23.34-19.4-13.06l1.44,9.43Z"/><path class="cls-7" d="M694.94,802.45c-3.96-1.98-7.07-3.82-9.96-5.48-5.04-2.84-9.47-5.17-16.68-6.94-.91-.22-1.91-.44-2.99-.62h-.03c-5.23-.97-12.14-1.62-18.62-2.15-2.56-.21-5.04-.39-7.33-.56-2.21-.18-4.23-.34-5.93-.49-10.76-.98-10.48,3.74-6.06,10.6,4.19,6.53,12.14,14.98,17.86,22.31,0,.01,.01,.03,.03,.04h.01c4.12,5.24,7.07,9.89,6.7,12.84-8.53-7.11-25.18-15.13-36.51-20.8-5.33-2.66-11.07-6.04-17.06-8.42-.01,0-.04,0-.06-.01-.01,0-.01-.01-.03-.01-6.14-2.44-12.51-3.77-18.9-2.05,3.68,10.95,7.63,18.13,15.65,27.02,8.7,9.67,34.13,25.6,38.4,38.4-14.22-5.68-44.36-26.74-61.17-34.13-5.04-2.22-9.71-6.38-14.19-11.1-8.11-8.49-15.74-18.82-24.41-23.06-1.67-.83-3.37-1.42-5.13-1.73h-.01c-.45-.08-.91-.14-1.38-.18l-3.74,.76-23.31,4.79-10,2.07c-.39-.13-.79-.21-1.18-.27-2.04-.24-3.88,.62-5.69,1.69-3.25,1.91-6.39,4.55-10.43,2.88-.03,0-.07-.01-.1-.03-2.01-.86-4.12-2.21-6.22-3.85-1.5-1.18-3.01-2.53-4.48-3.98-3.82-3.74-7.39-8.14-10.12-12.13,0-.01-.01-.04-.03-.06-1.36-2.02-2.5-3.93-3.33-5.59-.96-1.9-1.77-3.77-2.46-5.62-1.1-2.94-1.9-5.83-2.47-8.74-.1-.48-.2-.97-.28-1.45v-.03c-.6-3.37-.96-6.74-1.22-10.17-.42-5.47-.59-11.09-1.12-17.07-.24-2.67-.56-5.41-1.01-8.23-.03-.18-.06-.38-.08-.56-.01-.04-.01-.07-.01-.11-1.01-6.53-1.6-13.12-1.93-19.76-.06-1.24-.11-2.47-.15-3.71,.73-.08,1.43-.14,2.15-.14,.49,0,.98,.03,1.46,.07,.45,.04,.89,.1,1.31,.18,.01,.01,.03,.01,.04,.01,.22,.04,.44,.1,.66,.15,.2,.06,.39,.11,.58,.18,.22,.08,.44,.17,.66,.25,.2,.08,.39,.18,.58,.28,.2,.1,.38,.2,.56,.32,.17,.1,.34,.21,.49,.34,.2,.13,.38,.28,.55,.44,.17,.14,.32,.3,.48,.46,.07,.07,.14,.14,.2,.21,.14,.15,.27,.31,.39,.48,.13,.15,.25,.32,.37,.51,.22,.35,.44,.73,.63,1.14,2.32,4.93-2.01,11.09-3.54,15.37-.13,.34-.24,.69-.35,1.03-.07,.18-.13,.37-.18,.55-.11,.35-.21,.69-.32,1.04-.08,.32-.18,.65-.25,.97-.11,.41-.21,.82-.3,1.22h0c-.14,.53-.24,1.07-.32,1.59-.3,1.7-.45,3.43-.42,5.16,0,.66,.04,1.32,.11,1.98h0c.1,1.08,.3,2.15,.56,3.22,.06,.27,.14,.53,.21,.8,.15,.55,.34,1.08,.55,1.6,.2,.52,.42,1.01,.66,1.5,.22,.49,.48,.98,.73,1.48,.37,.7,.74,1.41,1.12,2.11,.24,.48,.48,.97,.72,1.46,.22,.48,.44,.97,.63,1.48,.28,.77,.53,1.59,.7,2.44,.84,4.13-.77,8.56,.51,12.55,.15,.49,.35,.97,.62,1.45h0c.13,.25,.27,.48,.42,.72,.55,.83,1.1,1.49,1.63,2.01,.23,.22,.44,.41,.65,.56,.21,.18,.41,.32,.62,.45h.01c.11,.07,.21,.13,.31,.17,.11,.07,.21,.11,.31,.15h.01c.11,.04,.21,.08,.31,.11,.44,.15,.86,.21,1.28,.21,1.43-.01,2.81-.86,4.1-2.18,.49-.49,.98-1.07,1.45-1.69,1.32-1.74,2.53-3.88,3.61-6.03,.59-1.17,1.15-2.35,1.66-3.46,.11-.24,.22-.48,.32-.7,.08-.17,.17-.34,.24-.51,.34-.76,.66-1.46,.96-2.09,.1-.2,.18-.37,.27-.55h0c.08-.18,.17-.35,.24-.52,.08-.15,.17-.31,.24-.46,.17,.2,.32,.39,.46,.62,.13,.18,.24,.38,.35,.59,.07,.14,.14,.3,.21,.46,.14,.34,.27,.69,.37,1.07,.03,.08,.06,.18,.07,.28,.06,.2,.1,.41,.13,.63,.06,.28,.1,.58,.13,.87,.04,.3,.06,.6,.07,.91,.27,5.28-1.81,12.08-2.35,16.08-.21,1.55-.46,3.19-.67,4.88-.06,.35-.1,.7-.15,1.07-.58,4.76-.82,9.79,.79,14.12,.15,.41,.31,.8,.51,1.19h0c.18,.39,.38,.77,.6,1.15h0c.14,0,.27-.01,.41-.06,.27-.04,.55-.11,.81-.22,.96-.34,1.91-.97,2.87-1.69,.27-.18,.52-.38,.79-.59,.41-.3,.81-.62,1.21-.91,.14-.11,.3-.22,.44-.32,.11-.08,.24-.17,.35-.25,.06-.04,.11-.07,.17-.13h.03c.1-.07,.2-.14,.28-.2,.04-.03,.08-.06,.13-.08,.04-.03,.1-.06,.14-.08,.01,0,.01-.01,.01-.01,.3-.18,.6-.35,.9-.49,.07-.04,.14-.07,.21-.11,.08-.03,.17-.07,.25-.1h.01s.06-.03,.08-.03c.03-.03,.04-.03,.07-.04,.07-.03,.14-.06,.21-.07,.01-.01,.03-.01,.04-.01,.15-.06,.32-.1,.49-.13,.03-.01,.06-.03,.08-.03,.34-.37,.7-.72,1.05-1.05,.35-.35,.72-.7,1.08-1.04,1.26-1.18,2.6-2.33,3.98-3.48,.35-.3,.7-.59,1.07-.89,.11-.1,.22-.2,.35-.3,.08-.07,.17-.14,.27-.22,.01,0,.03-.01,.04-.03,.01,0,.01-.01,.03-.01,.14-.11,.28-.24,.42-.35,.37-.31,.76-.6,1.15-.91,.2-.15,.41-.31,.62-.45,.13-.1,.27-.2,.41-.3,.06-.04,.13-.1,.2-.14,.03-.03,.06-.04,.08-.07,.39-.27,.79-.53,1.18-.82,.2-.13,.38-.25,.58-.38h0c.67-.45,1.35-.9,2.01-1.35,.86-.58,1.7-1.15,2.49-1.73,.39-.3,.77-.59,1.14-.89l-1.29-10.5-.41-3.32c-.07-.06-.17-.11-.24-.17-4.57-3.23-9.72-4.99-12.22-6.37-.3-.15-.55-.31-.76-.45-.27-.18-.46-.35-.59-.52-.06-.08-.1-.15-.13-.24-.07-.14-.07-.27-.03-.39,0-.04,.03-.1,.04-.14,.15-.28,.52-.58,1.14-.87,.6-.31,1.46-.62,2.6-.96,.14-.04,.27-.08,.41-.13,.15-.04,.3-.08,.45-.13,.1-.03,.18-.06,.27-.08,.51-.14,1.05-.28,1.64-.44,1.14-.28,2.46-.59,3.95-.93,.35-.08,.69-.15,1.01-.24,.32-.08,.63-.18,.94-.27h0s-.07-.56-.07-.56l-1.36-11.06-2.63-21.44-12.93-105.15-.86-7h0s-3.23-26.23-3.23-26.23c6.28-2.39,12.77-4.33,17.31-10.12,6.1-7.8,12.14-23.83,13.94-33.4,2.77-14.64-6.13-27.75-3.61-41.49,4.58-24.94,37.01-44.11,52.93-18.42,4.2,6.77,4.33,11.38,11.19,16.54,5.44,4.08,12.56,4.82,18.18,8.61,10.86,7.36,12.01,24.42,9.39,37.08-2.15,10.36-10.6,20.68-14.28,30.8-2.85,7.83-5.2,15.64-7.11,23.65-.94,3.82-1.77,7.69-2.5,11.63-.03,.11-.06,.21-.07,.32-3.79,20.12,4.43,12.41,16.43,20.14,7.62,4.92,6.32,22.99,8.53,31.31,6.46,24.27,10.27,52.96,25.62,72.54,7.7,9.86,20.56,23.71,28.44,32.73,.93,1.07,2.23,1.84,3.72,2.43,2.82,1.14,6.35,1.6,9.5,2.11,5.28,.86,9.5,1.81,7.41,6.13l1.29,1.29,10.38,10.38,3.29,3.29,11.68,11.68Z"/><path class="cls-7" d="M338.52,768.87c-1.92,4.37-4,8.39-6.17,11.49-3.97,5.69-8.28,8.31-12.7,4.25-4.62-4.24-12.19-6.69-20.48-9.03h-.01c-2.5-.71-5.08-1.42-7.65-2.16-.27-.07-.54-.16-.8-.23-6.6-1.93-13.16-4.15-18.62-7.44-2.45-1.47-4.67-3.14-6.57-5.12-.71-.73-1.38-1.49-1.99-2.3-4.58-6.05-8.55-12.58-12.67-18.81-6.66-10.04-13.77-19.32-24.64-24.51-3.21-1.54-6.76-2.72-10.71-3.46-7.13-1.32-15.06-.46-23.02,.31-10.28,1.01-20.6,1.85-29.23-2.45l-11.99,1.1c-.23,.14-.47,.3-.71,.46-.14,.09-.28,.18-.43,.27-11.42,7.34-24.48,16.3-38.34,17.57-1.49,.14-2.86,.17-4.11,.1-2.57-.14-4.64-.7-6.29-1.56-1.11-.58-2.03-1.32-2.76-2.18-3.2-3.67-3.23-9.56-1.78-15.65,1.15-4.89,3.27-9.93,5.45-14,7.64-14.27,21.94-18.11,30.19-30.75,6.37-9.74,9.91-24.87,14.69-35.68,5.22-11.81,9.27-24.87,13.36-37.21,4.54-13.7,1.49-26.96,10.46-38.32,8.73-11.07,18.54-13.68,16.17-30.43-2.43-17.27-10.71-30.6-10.84-48.92-.11-16.19,9.08-33.54,27.17-35.9,7.11-.94,26.77,.48,31.82,6.54,4.81,5.78,2.09,20.85,3.36,27.95,1.68,9.46,5.09,18.38,5.22,28.27,.11,8.28-3.93,22.08,.11,29.72,11.66,22.01,34.41-11.98,45.63-17.5,14.74-7.27,28.14-3.54,32.52,10.83l-11.84,96.35-16.13,131.1c.31,.27,.63,.6,.94,.95,6.07,7.03,.44,9.7-2.43,15.97-.14,.3-.27,.58-.4,.88,1.34,.63,2.76,1.02,4.35,1.07,6.63,.23,8.93-6.2,15.58-5.75,7.95,.54,8.62,9.8,14.99,10.94,5.08,.9,8.61-2.72,11.31-6.76Z"/><path class="cls-12" d="M252.64,779.15c-4.38-14.08-5.68-30.32-11.93-43.64-14.07-29.93-43.65-42.7-75.26-40.25-13.72,1.06-21.32,6.77-32.87,12.8-15.28,7.97-22.49,1.39-37.34,1.43-10.7,.03-24.14,7.1-30.57,15.43-9.92,12.86-15.34,22.49-29.37,32.48-11.11,7.91-23.35,14.03-35.29,20.74v206.19c24.26-2.17,51.5-13.32,71.01-15.54,29.64-3.38,49.5-27.84,74.94-40.42,43.14-21.34,105.39-50.44,110.84-106.78,1.38-14.3,.04-29.01-4.14-42.44Z"/><path class="cls-7" d="M152.07,705.79c-4.19,13.45-10.07,19.67-20.9,29.07-10.91,9.47-28.25,18.49-36.33,29.86,11.49,.28,25.81-9.71,36.17-14.59,12.23-5.76,25.03-12.29,36.44-19.04,6.95-4.11,13.37-8.72,19.51-14,7.41-6.38,10.41-9.07,.18-12.75-7.55-2.71-25.68-8.61-32.88-3.63l-2.18,5.08Z"/><path class="cls-10" d="M83.06,820.56c8.21-.36,12.39,7.05,18.43,10.48,5.68,3.23,13.79,2.62,19.28,7.36,6.31,5.45,6.29,12.71,14.59,17.05,6.64,3.47,13.5,3.19,19.99,7.21,6.94,4.31,12.36,10.73,18.48,16.05,2.66,2.31,5.77,4.86,8.82,6.64s8.74,2.27,10.84,5.37c5.71,8.41-6.32,13.15-12.32,14.83-10.92,3.07-17.06,7.7-26.56,13.98-14.81,9.78-28.74,19.16-43.98,27.66-8.99,5.01-15.75,12.13-23.94,18.32-10.91,8.25-23.49,12.51-37.02,14.35-17.87,2.42-27.67-11.14-26.93-28.2,.36-8.26,7.4-10.1,14.53-11.91,9.48-2.4,16.74-2.47,24.23-9.7,6.42-6.19,14.18-13.82,13.58-22.97-.25-3.83-3.66-7.98-3.55-11.48,.17-5.45,5.49-9.82,8.64-13.9,7.72-10.03,11.23-38.01,5.07-50.23l-2.18-10.9Z"/><path class="cls-4" d="M91.41,831.45l-8.72-10.9c-.31,11.75-7.72,26.64-14.26,36-4.01,5.74-10.81,10.77-14.97,16.54-4.15,5.76-5.09,12.82-11.54,17.25-5.85,4.02-10.7,2.92-17.83,3.21-12.19,.49-8.12,2.53-15.75,9.59-2.48,2.29-5.31,4.12-8.36,5.65v39.24c1.01-.41,1.99-.83,2.94-1.23,13.72-5.76,27.68-3.34,41.62-9.97,5.58-2.65,13.73-3.48,18.58-6.18,8.48-4.73,5.7-7.62,8.8-15.12,9.78-23.67,21.27-56.87,19.48-84.09Z"/><path class="cls-14" d="M534.19,1080c-1.58-2.41-3.31-4.78-4.47-7.42-3.59-8.16,.15-10.87,5.68-17.38,5.33-6.28,11.15-11.97,15-18.97,3.76-6.84,6.85-10.26,13.49-14.62,9.22-6.05,22.36-11.5,10.93-23.12-7.31-7.43-17.19-15.39-27.42-19.05-5.86-2.1-11.3-3.86-16.91-6.7-6.88-3.49-9.19-7.87-14.69-12.73-10.26-9.06-35.34-5.61-47.03-7.98-7.19-1.46-17.92-8.2-29.1-3.79-12.58,4.96-22.02,16.34-34.77,22.17-12.12,5.54-34.94,13.54-47.43,5.59-10.35-6.59-11.93-16.59-26.86-14.38-12.96,1.92-21.13,12.96-31.65,19.48-9.38,5.81-21.82,10.3-32.88,10.92-17.28,.96-35.3-3.35-52.44-.6-12.44,2-22.4,9.94-35.63,10-9.35,.05-17.93-2.76-24.82-9.14-6.72-6.22-8.44-14.04-18.72-9.76-5.46,2.27-8.03,4.02-13.8,4.92-5.19,.81-6.35,1.26-10.01,5.6-7.16,8.51-9.57,16.21-22.46,11.12-14.15-5.59-21.65-19.83-34.88-26.02-20.06-9.38-30.75,13.88-45.64,22.55-2.52,1.47-5.08,2.78-7.68,3.99v75.31H534.19Z"/><path class="cls-9" d="M253.92,1080c-.19-1-.36-1.9-.5-2.69-1.7-9.74-5.35-19.03-12.73-25.76l-8.72-7.26c-5.19-5.98-12.62-9.29-17.56-15.24-6.88-8.3-10.28-14.57-22.39-13.12-9.22,1.1-17.49,6.03-27.02,6.6-12.61,.75-12.91-6.85-21.51-12.37-7.21-4.63-18.53-6.93-27.05-5.69-6.56,.95-17.97,.38-23.95,3.1-8.66,3.94-11.28,14.69-19.46,19.34-9.29,5.29-21.37,4.47-31.36,7.9-14.21,4.88-28.03,12.72-38.41,23.46-1.13,1.17-2.2,2.26-3.26,3.32v18.41H253.92Z"/><path class="cls-13" d="M744.08,822.74c-23.28,8.19-50.96-42.07-70.29-45.27-21.5-3.56-5.04,19.64,2.28,26.15,4.57,4.06,12.39,8.74,15.67,13.62,7.59,11.28-2.9,5.85-5.96,15.12,7.71,6.54,20.69-.6,29.68,5.57-1.76,2.31-10.65,4.2-11.67,6.75-2.9,7.32,8.85,6.08,13.3,5.61,8.16-.86,21.79-5.25,25.66,5.15-4.68,2.71-19.12,1.27-20.33,8.97-1.48,9.43,19.58,7.53,24.92,7.26,16.89-.85,35.27-5.83,50.21,4.66-3.38,4.21-17.48,1.25-18.56,8.51-1.19,7.99,10.45,7.3,14.73,7.37,12.83,.22,25.68-5.24,38.32,1.26,13.63,7,22.6,10.38,38.5,12.07,10.5,1.11,34.13-2.58,23.07-19.69-7.21-11.16-31.04-3.71-35.28-19.56-1.37-5.12,4.59-11.54,1.87-17.29-4.12-8.72-12.22-3.35-19.07-7.37-1.99-1.17-2.32-5.63-4.42-7.42-2.24-1.91-6.09-.4-7.73-2.05-4.32-4.35-2.72-14.66-8.53-16.47-6.56-2.04-7.48,9.59-16.5,1.12-5.31-4.99-2.1-12.58-6.64-17.06-5.17-5.11-17.51-4.41-21.51,1.69-5.12,7.83,2.36,15.78,5.33,22.38,11.38,25.29-16.93,1.74-27.29-1.09-2.37-.65-7.49-.81-9.81,0Z"/><path class="cls-13" d="M683.43,801.94c-1.18,.81-5.59-.23-10.91-2.01-9.74-3.3-22.58-9.13-24.33-10.84-.61-.6-1.11-1.21-1.52-1.84-1.48-2.25-1.78-4.72-1.69-7.25,.16-4.3,1.42-8.82,0-12.97-2.32-6.71-9.02-10.95-13.47-16.3-2.08-2.48-.95-4.74-3.7-7.34-2.4-2.26-7.7-.78-10.23-2.82-8.11-6.44-5.97-18.27-10.43-26.83-3.95-7.62-6.76-10.74-9.08-18.71-1.86-6.36-6.27-13.9-7.41-20.43-1.75-10.17,1.98-12.35-2.13-20.57-.85-1.74-3.98-3.39-5.49-7.53-1.39-3.84,1.99-11.27-1.45-14.31-11.65-10.3-26.67,28.78-33.96,2.12-4.62-16.9,10.71-31.1,16.03-46.02,3.93-11.01,10.81-21.01,13.49-32.49,3.24-13.93,.36-12.42-9.36-9.8-3.61,.97-3.56,5.7-8.18,4.03-4.14-1.51-3.64-9.13-4.05-12.45-.78-6.2-3.54-29.42-11.96-15.58-.87,1.41-.8,4.89-1.1,6.53-1.18,6.71-2.83,15.01-10.73,16.02-4.79-7.55-4.05-23.51-4.55-32.6-.44-8.07,4.54-25.88-2.15-31.12-11.42,14.28-10.54,31.11-9.79,47.85,.27,6.02,1.68,15.68-.81,21.35-3.85,8.75-8.42,3.86-14.04,10.14-5.76,6.46,.41,17.84-4.41,24.47-4.32,5.96-13.87,4.31-17.94,11.44-2.99,5.23,.4,10.36-1.56,13.37l-3.23-26.23s10.24,.09,13.7-17.47c4.78-24.28-4.69-51.81-5.53-76.25-.43-12.76-.9-24.71,7.57-34.94,13.23-15.99,8.52,1.27,18.54,7.31,14.51-6.57,17.31-27.97,25.36-40.06,4.91-7.38,18.46-23.78,29.33-22.45,18.71,2.3-25.85,54.61-11.99,70.37,15.35-7.25,22.26-25.43,41.22-29.93,18.82-4.47,11.31,10.98,4.94,21.31-2.86,4.62-8.79,12.03-8.24,17.92,1.02,10.77,4.84,2.65,10.51,6.87,3.66,2.73,3.1,9.64,7.04,11.58,6,2.96,10.61-5.29,16.12-6.06,14.71-2.03,9.76,14.88,3.74,23.16-10.03,13.8-21.17,26.56-30.67,40.68-8.18,12.16-18.51,26.93-23.7,41.18-.5,1.32-.94,2.65-1.32,3.95-.74,2.48-1.14,5.12-1.18,7.68-.21,9.79,4.78,18.24,16.29,11,13.47-8.48,22.22-36.54,29.38-50.04,5.19-9.83,21.3-31.15,34.92-28.58,28.07,5.32-22.46,51.78-29.39,60.22-7.9,9.62-15.62,19.19-20.83,30.4-1.49,3.23-5.66,13.41-3.12,16.34,5.48,6.32,15.02-4.27,20.57-2.94,14.89,3.53-2.8,17.7-6.98,22.48-2.22,2.53-7.74,9.62-6.02,13.13,2.43,4.95,8.89,.26,11.51,7.21,.92,2.43-3.36,6.47-1.88,9,1.92,3.26,4.54,1.41,6.26,3.13,.21,.23,3.19-4.25,5.26,.18,.88,1.89-1.86,6.43-2.6,8.26-1.31,3.27-10.06,7.95-6.52,13.34,3.7,5.59,9.67-1.88,14.18,1.95,3.58,3.04-1.39,13.87,6.42,14.25,7.64,.37,4.31-12.26,12.48-5.75,7.06,5.65-8.73,25.45,2.57,27.04,14.48,2.05,16.3,5.46,17.65,7.34,1.45,1.99,4.79,6.8,8.07,12.3,2.11,3.51,4.17,7.33,5.69,10.85h0c.23,.54,.43,1.02,.63,1.54,.9,2.28,1.52,4.4,1.71,6.2,.24,2.26-.17,4.01-1.55,4.96Z"/><path class="cls-13" d="M324.7,503.5l-2.55,20.61-11.84,96.35c-.84-2.49-1.28-6.33-1.96-10.43-1.31-7.94-.78-21.01-8.44-25.45-9.4-5.49-16.61,3.84-15.36-12.48,.67-8.81,20.13-48.39,6.37-52.66-8.73-2.72-8.95,26.09-12.05,32.01-9.16,17.53-5.19-4.42-11.85-7.77-12.8-6.46-11.39,20.2-14.1,24.45-8.58,13.51-11.22-11.59-14.94-16.23-2.15,7.07-2.19,24.67-11.75,12.73-5.41-6.77-1.74-19.42-2.87-27.37-1.61-11.15-5.63-22.29-7.65-33.51-2.06-11.47-3.06-23.26-9.32-33.3-7.04-11.28-15.33-16.07-20.78,.64-4.38,13.47,1.81,28.48,6.64,40.93,4.07,10.47,8.11,21.37,9.32,32.87,.88,8.35-2.2,21.72-10.67,9.02-6.71,5.79-3.74,16.15-4.75,23.98-7.81-3.39-13.86-15.49-19.3-1.64-2.12,5.38-.74,17.38-1.07,23.39-.53,9.32,.7,11.84-5.93,17.26-4.64,3.8-4.55-5.04-8.31,3.94-1.34,3.2,2.38,9.49,1.29,13.4-2.42,8.75-8.39,8.19-11.21,17.41-2.73,8.92,.5,21.64-5.16,29.46-4.64,6.42-11.82,6.97-16.69,13.9-3.5,4.96-3.78,10.01-4.91,15.09-.13,.57-.27,1.14-.43,1.72-.45,1.74-1.07,3.49-2.01,5.22l-2.18,5.45c-2.16,.53-5.18,1.25-8.63,2.03-.97,.21-1.98,.43-3.02,.64-8.08,1.72-17.67,3.37-24.21,3.04-5.41-.27-8.75-1.88-7.47-5.89,.81-2.52,3.41-5.97,8.46-10.64,3.27-3.02,6.6-5.83,10.04-8.52,.57-.46,1.14-.9,1.71-1.34,2.9-2.22,9.84-5.42,12.03-7.67,6.26-6.46,4.96-17.97,4.54-27.1-.54-11.61,2.55-23.26,15.41-14.32,3.85,2.69,2.11,9.09,8.28,8.83,6.97-.28,5.39-6.17,5.72-10.68,.54-7.67-6.98-17.51,.21-22.22,5.21-3.41,7.16,6.46,11.94-2.82,1.98-3.86-1.41-13.02-3.1-16.53,20.6-7.34-10.8-29.89-10.88-41.81,5.29-1.28,18.12,6.84,22.45,3.47,5.92-4.59-.92-12.73-3.34-16.7-11.14-18.19-26.86-32.31-40.77-48.07-2.63-2.97-11.96-11.65-9.93-16.64,4.48-10.94,25.99,3.03,30.85,5.79,13.63,7.74,23.97,16.62,32.01,29.92,3.46,5.7,5.95,14.69,12.92,16.09,6.94-18.72-15.63-53.39-24.07-69.6-3.87-7.43-30.37-30.03-22.72-37.38,3.9-3.74,8.69,1.12,12.72-.63,2.55-1.11,1-5.29,3.07-6.4,1.04-.54,7.3-.73,7.24-.67,10.47-10.37,1.08-31.12-.9-45.07-1.66-11.84-2.83-27.9,11.75-15.68,6.9,5.78,14.95,31.48,24.99,31.22,14.1-.37,2.73-39.06,.91-47.07-2.18-9.6-8.81-42.92,9.79-27.33,17.82,14.96,15.93,48.12,31.27,66.02,22.19,25.86,16.23-1.79,23.66-15.88,11.96,5.89,7.6,44.23,6.66,55.32-1.14,13.26-16.39,73.59-2.45,79.46,11.48-7.58,9.46-38.15,12.02-50.03,1.89-8.78,3.8-37.45,12.15-42.36,11.41-6.7,20,22.56,20.4,31,.63,13.46-9.42,26.43-6.32,39.82,2.52,10.9,10.91,20.5,22.19,19.6,2.56-.21,4.79-1.05,6.86-2.22Z"/><path class="cls-4" d="M531.68,1080c-.8-5.83-1.23-11.75-.29-17.51,1.2-7.34,6.15-13.9,3.72-21.66-3.82-12.17-13.57-8.32-22.62-6.13-24.12,5.83-45.36-.83-69.23-4.56-7.49-1.17-13.97,.18-21.34,.75-10.62,.81-10.16-5.52-18.21-8.99-3.59-1.55-8.89-.24-12.85-1.12-4.28-.95-7.96-3.74-12.15-4.93-8.5-2.42-17.59-3-26.15-5.21l-9.44-2.89c-1.57-.93-3.9-2.3-5.84-2.21-4.14,.19-11.19,5.43-15.81,6.55-8.74,2.11-17.4,5.54-25.6,9.4-8.99,4.22-17.86,9.15-26.27,14.61-10.68,6.93-17.81,17.9-26.4,27-5.08,5.38-10.43,10.36-12.51,16.9h301.01Z"/><path class="cls-13" d="M232.3,1062.45c1.97,4.44-1.72,7.48-1.42,11.38,.51,6.63,3.85,3.29,8.54,5.69,.35,.18,.66,.33,.95,.48h18.56c.22-.27,.44-.54,.65-.84,6.89-9.64,4.23-21.33,14.02-28.53,4.07-3,5.17-3.51,7.78-8.34,1.49-2.77,4.51-11.84,8.76-10.5,3.69,1.17,1.03,10.61,7.81,8.99,2.39-.57,6.36-8.39,8.13-10.16,3.67-3.66,6.07-4.98,11.04-5.95,8.03-1.57,6.1,.79,9.83-6.54,2.89-5.69,2.49-8.78,10.53-9.31,5.47-.36,9.51,2.44,14.13,4.25,7.63,2.99,30.92,4.07,39.44,3.27-14.48,.03-21.55-2.28-34.3-10.33-12.97-8.19-29.05-14.95-44.85-10.44-12.71,3.63-25.93,14.08-34.94,23.31-4.71,4.82-9.25,9.78-16.02,11.63-5.09,1.39-12.19-3.41-17.25-2.19-9.04,2.18-8.08,7.46-12.8,14.23-4.51,6.46-21.53,7.99-20.41,15.61,.94,6.42,19.01-2.05,21.83,4.3Z"/><path class="cls-13" d="M122.25,906.39c-12.17-7.35-29.42-.39-31.97-16.43-2.13-13.36,7.1-25.62,8.49-38.02,.67-5.98-7.53-39.1-17.67-32.58-7.54,4.85,1.78,34.74,.83,42.63-.62,5.22-1.03,15.23-3.7,19.64-3.06,5.04-13.02,5.33-15.83,10.85-3.55,6.99,4.8,12.14,1.59,18.32-2.85,5.5-13.5,2.71-18.09,6.7,4.24,5.64,28.35,9.92,8.73,13.1-9.51,1.54-21.08-2.86-30.74-2.01-7.35,.64-17.07,5.5-23.89,10.98v33.1c6.28-11.4,25.03-19.56,35.75-25.08,12.86-6.62,25.85-6.2,37.41-14.26,2.86-1.99,4.33-4.9,7.89-5.87,2.44-.66,4.53,2.82,7.04,2.13,7.79-2.14,8.93-7.3,16.09-10.2,7.84-3.18,40.01,.25,18.06-13Z"/><path class="cls-10" d="M292.69,768.48c-.14,.3-.27,.58-.4,.88-.14,.33-.28,.64-.41,.97-.41,.98-.81,1.95-1.18,2.86-.53,1.27-1.01,2.45-1.52,3.49-2.12,4.31-4.54,6-10.19,.33-2.2-2.22-3.84-4.85-5.14-7.41-.67-1.32-1.25-2.63-1.78-3.84-2.28-5.23-3.56-8.79-6.57-5.12-.57,.7-1.22,1.68-1.96,2.97-.18,.33-.37,.64-.55,.95-4.21,7-8.28,9.39-11.04,12.21-.38,.38-.73,.75-1.05,1.17-1.59,1.99-2.56,4.45-2.57,8.85l-1.1,6.54c-4.48-2.5-10.64-2.69-16.25-3.34-5.68-.68-10.81-1.85-13.13-6.44-2.25-4.44,2.12-11.91-.21-16.39-3.51-6.77-10.81-4.54-13.8-11.15-2.16-4.78,2.94-10.48,1.92-14.1-1.85-6.54-6.33-4.18-9.6-8.45-2.75-3.58-1.49-6.36-3.33-9.86-1.84-3.51-3.1-5.87-4.85-7.4-2.12-1.84-4.96-2.45-10.44-2.35-3.41,.06-7.4,2.73-10.77,2.01-2.65-.57-4.08-4.22-7.16-4.94-3.12-.73-6.12-.61-9.08,.06-.11,.01-.23,.04-.34,.07-8.89,2.12-17.24,9.12-26.03,12.82-5.25,2.19-11.76,4.42-16.5,5.05-3.26,.41-5.68,.07-6.29-1.56-.26-.7-.2-1.62,.26-2.82,.75-1.95,2.56-4.64,5.75-8.21,1.65-1.85,3.41-3.4,5.23-4.71h.01c.74-.54,1.48-1.04,2.25-1.51,10.88-6.63,23.73-6.52,33.06-14.79,9.86-8.73-2.42-32.76,6.63-35.89,10.1-3.5,17.68,17.44,25.22,21.42,17.13,9.06,20.38-6.56,27.07-18.28,2.11-3.68,5.12-11.91,9.94-12.53,8.69-1.14,6.13,8.98,14.67,2.79,8.12-5.89,12.99-31.32,28.92-28.21,12.28,2.39,1.69,20.4-2.26,27.1-3.7,6.27-6.66,8.36-4.89,14.68,.64,2.32,6.94,2.77,7.07,6.83,.11,3.84-5.82,4.59-6.54,7.28-2.5,9.27-3.04,5.9,6.79,9.27,4.71,1.62,14,1.08,13.77,9.05-.27,9.96-31.48,9.49-7.44,20.16,4.95,2.2,14.67,1.52,18.29,5.83,6.43,7.61-2.45,10.85-2.29,17.57,.21,9.96,5.78,4.1,11.31,9.18,.31,.27,.63,.6,.94,.95,6.07,7.03,.44,9.7-2.43,15.97Z"/><path class="cls-13" d="M74.05,727.4c-3.87-10.4,14.69-19.24,10.89-26.69-24.07,12.95-37.37,46.27-63.21,57.71-8.75,3.87-12.73-2.8-21.73-.62v50.23c11.17-.61,23.11-2.35,26.06-7.93-4.69-5.32-13.45-4.79-18.59-10.02,8.69-11.29,23.54-.04,33.22-7.63-13.58-17.84,5.6-10.35,19.18-13.1,21.11-4.27-6.65-9.69-.14-19.6,3.69-5.62,12.13-3.53,16.48-7.5,9.11-8.32,.15-8.63-2.16-14.84Z"/><path class="cls-13" d="M641.32,796.39c-3.53,5.12-9.16,3.37-13.98,.41-3.03-1.85-5.75-4.18-7.41-5.58-3.21-2.69-6.63-6.27-10.41-9.05-2.69-1.99-5.56-3.58-8.69-4.15-13.23-2.43-7.67,3.23-11.47,8.72-.27,.38-.6,.78-.97,1.17h-.01c-2.36,2.43-5.04,3.29-7.92,3.31-.47,0-.95-.01-1.45-.06-8.32-.65-18.14-6.96-27.13-1.85-.23,.13-.47,.27-.7,.41-20.81,13.26,19.82,18.45,8.78,29.82-.55,.57-1.18,1.01-1.86,1.35-5.32,2.72-14.25-.36-19.46,.7-6.73,1.34-10.01,6.4-15.35,8.14-.92,.31-1.93,.51-3.02,.58-1.91,.11-4.03-.24-6.24-.8-.2-.04-.41-.09-.61-.14-3.29-.82-6.77-2.01-10.17-2.65-1.56-.3-3.1-.48-4.59-.48-3.03,0-6.05,.27-8.92,.2-4.81-.11-9.22-1.14-12.59-5.89-1.42-1.99-4.14-6.3-4.37-8.72-.13-1.41-.11-2.73,.04-4,.57-4.98,3.14-8.98,6.64-12.65,2.43-2.55,5.31-4.94,8.28-7.38,2.96-2.45,6.93-4.65,9.86-7.01,4.59-3.71,6.64-7.81-1.71-13.81-.07-.06-.16-.11-.23-.17-10.21-7.23-23.4-7.11-3.24-11.64,.7-.16,1.35-.33,1.96-.51,10.16-2.99,8.11-9.1,.47-18.29,6.09-7.28,14.24-2.01,8.56-15.14-2.46-5.69-17.34-20.51-10.91-28.86,9.27-12.09,23.76,31.14,30.39,36.4,4.21-4.59,2.76-11.11,6.49-16.13,11.24,8.34,9.25,42.69,31.79,35.28,11.02-3.63,24.17-30.29,40.02-18.98,16.8,11.99-22.43,17.97-12.9,31.51,2.87,4.1,21.15,1.66,26.44,3.66,7.68,2.89,11.39,7.57,15.8,13.27,.6,.75,1.18,1.52,1.81,2.32,1.37,1.74,4.58,4.18,7,6.98,2.59,2.97,4.3,6.34,1.99,9.7Z"/><path class="cls-7" d="M80.57,796.75c-7.72,2.91-16.59,4.98-23.5,9.25-6.8,4.2-10.77,8.24-19.01,10.06-7.96,1.76-15.8,5.33-23.28,8.5,13.71-.51,22.86,8.04,6.17,17.43-6.62,3.72-13.75,7.19-20.95,10.22v5.49c8.53,.03,17.86-2.41,24.61-5.53,10.92-5.05,17.01-13.66,27.11-20.04,9.09-5.75,14.86-14.13,23.87-19.68,8.02-4.94,23.74-11.23,25.44-21.79-6.28-1.5-14.57,3.87-20.46,6.09Z"/><path class="cls-4" d="M129.55,789.17c9.26-12.91,26.16-16.86,35.06-28.88,3.76-5.08,3.74-12.35,10.26-15.08,6.43-2.7,11.34,.15,10.82,7.07-.51,6.78-8.43,13.77-12.74,18.72-5.92,6.81-12.05,11.72-20.01,15.98-11.61,6.21-23.67,15.64-35.55,20.15,1.84-3.91,4.53-7.25,7.08-10.71,1.31-1.79,3.79-5.46,5.08-7.26Z"/><path class="cls-13" d="M13.33,874.31c4.89-7.46,14.23-11.21,21.09-15.82,4.83-3.25,12.93-12.7,18.93-13.16,2.74,6.27-11.96,19.33-16.72,22.45-5.99,3.94-27.25,12.55-23.3,6.52Z"/><path class="cls-1" d="M502.62,1058.7c.01,2.96-4.05,5.56-4.11,8.86-.19,10.8,11.93,2.96,17.85,6.46,2.67,1.58,2.6,3.71,2.18,5.97h46.12c-2.95-3.22-5.39-6.55-5.14-11.78,.38-8.29,9.06-11.11,11.54-17.38,2.16-5.45-3.02-9.55,1.69-14.75,4.1-4.52,14.84-5.19,20.26-8.14,5.66-3.09,15.83-9.08,11.72-17.07-1.76-3.44-6.76-.91-6.86-4.91,0-.13,0-.27,.01-.43,.03-.36,.98-.84,2.18-1.54,2.06-1.22,4.79-3.12,4.54-6.22-.16-1.92-4-4.4-5.8-5.08-.38-.14-.77-.27-1.15-.36-5.43-1.42-10.74,1.24-14.89-3.09-2.55-2.62-1.58-4.88-4.54-7.18-.13-.11-.26-.2-.38-.3-2.5-1.79-6.79-1.89-9.72-2.87-2.18-.74-5.19-1.56-8.68-2.48h-.01c-9.4-2.48-22.12-5.58-30.64-9.1h-.01c-3.41-1.42-6.13-2.92-7.7-4.47-3.06-3.04-6.91-5.01-8.54-5.69-1.71-.73-2.79-.98-3.34-.87-3.02,.53,9.6,11.71,20.41,16.52,9.13,4.07,22.63,8.85,29.37,16.09,5.05,5.41,6.32,8.76,4.96,10.47-1.28,1.61-4.89,1.76-9.9,.81h-.01c-1.02-.18-2.12-.43-3.26-.71-.11,.37-.23,.71-.36,1.01-1.51,3.68-4.28,2.72-7.37,.61-4.13-2.82-8.79-7.65-11.71-5.97-2.29,1.32-1.12,3.97,1.04,6.84,2.83,3.77,7.41,7.92,8.19,9.96,7.3,19.05-16.89,11.21-20.83,21-.27,.67-.46,1.42-.51,2.28-.18,2.46,2.38,6.96,.84,8.69-2.03,2.32-8.39,1.11-11.01,1.11-7.72,.04-13.66-1.72-10.44,6.91,.97,2.65,3.97,3.02,4,6.79Z"/><path class="cls-1" d="M639.03,1080c-.71-2.5-1.67-4.68-3.32-5.83-4.89-3.42-13.88,2.2-19.92,5.83h23.24Z"/><path class="cls-6" d="M920.4,967.9c-4.54,10.51-26.01,29.06-12.31,36.97-8.8,8.11-2.7,9.99-4.15,18.45-1.43,8.32-11.3,11.82-9.54,20.63,1.46,7.28,11.23,11.07,9.54,18.65-2.64,11.75-20.53,7.84-26.64,15.11,.89,1.11,2.09,1.78,3.4,2.3h-45.72c-.51-9.05-1.84-19.93,2.94-24.01,6.66-5.68,23.55,8.85,26.42-2.21,2.99-11.48-20.04-18.04-15.88-31.11,4.27-13.35,36.52-7.6,37.6-19.73,.53-5.92-10.24-3.41-14.15-3.67-3.08-.21-5.8-.14-8.7-1.48-1.63-.76-4.17-3.33-5.07-3.64-6.1-2.18-9.04,1.18-16.31,3.67-4.23,1.45-15.63,6.58-21.43,5.73-.58-.08-1.1-.22-1.55-.44-2.16-1-2.68-2.14-2.94-3.09-.39-1.48-.13-2.56-4.22-2.12-6.93,.73-14.19,9.23-20.23,12.14-9.84,4.74-17.56,4.45-27.74,2.42-5.55-1.12-10.88-2.77-16.54-3.04-4.89-.24-8.91,1.21-13.32-.87-5.07-2.37-5.21-6.35-12.1-5.52-2.16,.28-4.05,1.01-5.9,1.81-2.11,.91-4.17,1.93-6.56,2.42-1.83,.38-3.63,.52-5.35,.45-9.2-.35-17.02-6.45-23.07-12.96-5.12,4.43-10.34,11.35-17.47,11.78-4.26,.25-14.61-1.98-17.45-5.44-3.2-3.89,.66-10.74-4.55-13.57-5.02-2.74-13.35,3.75-19.36-4.26-2.39-3.19-10.26-6.17-13.8-8-5.21-2.66-9.67-2.07-15.26-2.95-3.18-.51-4.95-1.12-5.94-1.91-2.67-2.11,.32-5.34-2.52-10.33-2.02-3.56-6.24-3.18-8.04-5.69,0-.01-.01-.01-.01-.03-.63-.84-.96-2.01-.84-3.75,.04-.63,.21-1.21,.49-1.84v-.03c1.94-4.31,8.91-8.68,10.2-13.41,.08-.31,.15-.63,.22-.94,.79-3.96,.14-9.2-3.09-11.28-2.29-1.45-7.46-.08-10.31-1.01-2.94-.94-5.63-4.47-8.35-5.03-7.91-1.7-20.09,19.19-29.2,7.36-1.63-2.15-5.89-5.58-7.98-7.26-6.52-5.24-4.64-17.44-10.68-23.56-6.1-6.17-14.98-.08-18.41-8.01-2.14-4.89-1.71-10.02-.27-15.19,1.98-7.21,5.96-14.47,7.71-21.29,1.21-4.65,1.41-9.08-.77-13.12-.28,.06-.55,.11-.82,.21-5.56,1.43-10.68,5.72-15.96,6.89-6.7,1.5-4.93-1.31-6.62-8.59-1.48-6.37-.28-4.89-5.59-7.38-1.83-.86-4.48-.07-6.37-1.41-2.91-2.04-1.63-4.79-3.41-6.48-7.31-6.93-16.22,3.91-21.63-10.03-.21-.55-.41-1.05-.56-1.52-1.97-5.41-1.14-4.89-7.41-5.14-4.88-.2-6.7,1.11-10.92-3.05-1.46-1.46-4.29-4.44-5.82-5.82-7.43-6.63,5.16-41.38-6.35-43.73-8.5-1.76-16.44,33.86-26.22,18.84-3.43-5.26,.62-10.41-7.71-3.75-5.35,4.29-9.64,10.48-13.97,15.72-1.8,2.18-4.61,8.02-7.63,13.04-2.52,4.2-5.19,7.81-7.55,8.18-5.59,.86-8.37-9.18-13.63-11.58-.55-.27-1.14-.44-1.76-.49-.42-.04-.84-.04-1.24,0-6.59,.66-10.86,11.52-18.69,9.09t-.01-.01c-.18-.04-.35-.1-.53-.17-1.08-.41-2.01-1.1-2.84-1.97-4.4-4.67-5.96-14.56-12.41-15.02-1.95,6.34-3.51,19.91-11.13,16.45-1.04-.46-2.18-1.24-3.46-2.39-7.57-6.86-11.31-20.11-17.94-28.02-7.28,1.28-4.93,49.14-1.69,57.06,2.84,6.94,9.43,14.77,8.36,22.89-1.05,8.01-8.89,12-12.75,18.21-3.82,6.21-4.65,11.59-10.81,16.47-4.92,3.88-17.31,13.84-23.55,14.92-11.8,2.04-15.01,20.02-32.71,19.91-28.38-.18-34.15,32.71-68.29,36.98-10.09,1.26-26.42,15.37-32.85,23.1-6.27,7.55-14.19,10.41-22.89,13.42-1.41,.48-2.84,.98-4.3,1.49-1.46,.52-7.64,3.93-15.79,8.66-16.12,9.37-39.86,23.85-49.77,31.14v-81.32c1.1-1.24,2.12-2.68,3.16-4.1h0c1.88-2.53,3.84-4.9,6.48-5.71,3.48-1.04,6.66,.2,9.68,1.73h.03c1.91,.97,3.74,2.05,5.56,2.75,.6,.25,1.19,.44,1.8,.58,3.47,.8,7.11,.86,10.82,.65,7.64-.37,15.56-1.76,22.85,.22,9.09,2.46,17.09,15.33,24.89,3.51,3.04-4.58,2.33-11.35,5.69-15.99,5.55-7.66,10.4-3.63,18.27-2.75,9.67,1.07,7.5-2.8,13.14-7.32,5.42-4.34,12-.65,18.06-1.39,9.23-1.14,20.43-7.48,21.81-16.57,1.77-11.52,.21-20.35,14.7-14.02,7.64,3.33,13.9,3.96,17.51,0h0c1.95-2.12,3.15-5.52,3.4-10.51,.1-2.14-.65-7.17-.14-10.69,.21-1.53,.66-2.78,1.5-3.4,.24-.18,.56-.3,.93-.34,3.4-.51,11.4,4.02,14.56,3.86,1.57-5.58,1.43-9.05,7.11-9.43,2.39-.17,4.24,2.28,7.43,2.09,2.95-.18,6.51-1.62,7.83-4.22,1.11-2.16,3.75-6.37,4.36-8.73,3.05-11.93-9.47-19.77-8.74-30.89,.31-4.64,2.89-8.84,2.99-13.41,.1-4.85-2.74-9.85-4-14.45-.2-.73-.42-1.53-.67-2.35-3.15-10.33-9.61-26.11-5.41-35.35,7.88-17.31,12.14,3.86,21.46,2.89,.06-.46,.08-.97,.11-1.5v-.08c.18-5.19-.6-13.11,3.7-16.4,.17-.13,.34-.27,.53-.38,7.24-4.47,10.3,5.51,12.91,10.54,4.06,7.9,6.91,6.74,14.18,9.82,3.88,1.63,6.87,4.97,10.16,7.55,1.08,.83,2.21,1.59,3.4,2.18,.08,.06,.18,.11,.27,.14,.13,.06,.27,.11,.39,.17,.38,.17,.76,.31,1.15,.42,.38,.13,.77,.22,1.18,.3,.52,.1,1.07,.15,1.63,.17,1.31,.04,2.43-.17,3.47-.53,.31-.11,.6-.22,.9-.37,3.71-1.69,6.25-5.19,11.2-4.85,5.47,.38,7.49,4.88,10.3,8.01,.25,.3,.52,.56,.79,.83,.79,.74,1.66,1.38,2.7,1.77,.38,.14,.77,.27,1.21,.34,.91,.17,1.78,.18,2.6,.06h.01c.42-.04,.82-.13,1.21-.24,.48-.14,.94-.32,1.38-.55h.01c.67-.32,1.29-.73,1.9-1.22,0,0,.01,.01,.01,0,.6-.48,1.17-1.01,1.71-1.6,.35-.39,.7-.8,1.04-1.22,.51-.63,.98-1.31,1.43-1.98,1.52-2.26,2.8-4.67,3.91-6.45,.27-.44,.52-.83,.76-1.19h.01s.04-.07,.06-.1c.18-.28,.35-.53,.52-.77,.13-.17,.24-.32,.35-.48h0c.13-.18,.24-.34,.37-.49h0c.06-.08,.11-.14,.14-.2,.31-.38,.59-.69,.84-.96,.13-.11,.24-.22,.35-.32,.07-.06,.14-.13,.21-.18,.01,0,.03-.01,.04-.03,.08-.07,.18-.13,.27-.18s.18-.11,.27-.15c.04-.03,.07-.04,.11-.06,.67-.31,1.28-.24,1.94,.01,.24,.1,.49,.22,.76,.35,.39,.21,.82,.46,1.29,.72,.31,.17,.66,.35,1.03,.52,.37,.18,.77,.35,1.21,.51,.86,.32,1.87,.6,3.06,.77,.39,.06,.76,.1,1.1,.11,0,.01,.01,0,.01,0,.06,.01,.13,.01,.18,.01,1.29,.08,2.28-.03,3.02-.31,.3-.08,.55-.21,.79-.37,.22-.14,.44-.31,.6-.49,.65-.66,.97-1.56,1.18-2.57,.06-.22,.1-.48,.14-.72,.24-1.35,.39-2.84,.94-4.2,.08-.21,.18-.42,.28-.63,.1-.18,.2-.35,.3-.53,.13-.17,.25-.35,.38-.52,.08-.11,.18-.21,.28-.31,.11-.13,.24-.25,.37-.37,.32-.3,.66-.53,1.01-.72,.34-.18,.67-.32,1.03-.42,1.34-.38,2.71-.22,4.03-.2,1.48,.03,2.88-.13,4.12-1.38,.21-.21,.42-.45,.62-.74,.11-.15,.21-.31,.3-.46,.2-.32,.38-.69,.56-1.08,.79-1.78,2.91-4.36,4.85-6.41l.48-.48c.72-.73,1.38-1.36,1.94-1.84,.46-.39,.94-.72,1.45-.97,0,0,.01,0,.01-.01,.04-.01,.08-.03,.11-.06h.01c.14-.07,.27-.14,.41-.18,.28-.13,.56-.22,.84-.32,.45-.15,.93-.28,1.39-.37,.56-.13,1.12-.22,1.69-.32,.31-.04,.62-.1,.91-.15,.3-.04,.59-.1,.89-.17,.15-.01,.31-.06,.45-.08,.07-.01,.13-.03,.18-.04,.04-.01,.07-.03,.11-.03,1.84-.44,3.63-1.19,5.17-3.02,2.89-3.4,4.95-10.22,6.55-15.29,.17-.52,.32-1.01,.48-1.49,.15-.46,.3-.9,.44-1.32h.01c.07-.22,.15-.45,.23-.7,.15-.49,.32-1.05,.52-1.64,.1-.34,.21-.69,.34-1.04,.1-.27,.18-.55,.28-.83,.06-.17,.13-.32,.18-.49,.17-.45,.34-.89,.53-1.32,.04-.1,.08-.2,.13-.3,.13-.28,.25-.55,.38-.81,.2-.41,.42-.82,.66-1.19,.03-.04,.06-.1,.08-.14,.04-.07,.08-.14,.14-.21,.69-1.07,1.5-1.95,2.47-2.49,.13-.07,.27-.14,.39-.2,.13-.06,.25-.1,.38-.14,.3-.1,.59-.17,.91-.2,.14-.01,.3-.03,.45-.03,.17,0,.34,.01,.51,.03,5.14,.53,5.83,9.78,8.25,12.89h0c2.74-1.98,7.38-4.37,12.08-5.55,1.08-.27,2.18-.48,3.25-.6,.73-.08,1.43-.14,2.15-.14,.49,0,.98,.03,1.46,.07,.45,.04,.89,.1,1.31,.18,.01,.01,.03,.01,.04,.01,.22,.04,.44,.1,.66,.15,.2,.06,.39,.11,.58,.18,.22,.08,.44,.17,.66,.25,.2,.08,.39,.18,.58,.28,.2,.1,.38,.2,.56,.32,.17,.1,.34,.21,.49,.34,.2,.13,.38,.28,.55,.44,.17,.14,.32,.3,.48,.46,.07,.07,.14,.14,.2,.21,.14,.15,.27,.31,.39,.48,.13,.15,.25,.32,.37,.51,.22,.35,.44,.73,.63,1.14,2.32,4.93-2.01,11.09-3.54,15.37-.13,.34-.24,.69-.35,1.03-.07,.18-.13,.37-.18,.55-.11,.35-.21,.69-.32,1.04-.08,.32-.18,.65-.25,.97-.11,.41-.21,.82-.3,1.22h0c-.14,.53-.24,1.07-.32,1.59-.3,1.7-.45,3.43-.42,5.16,0,.66,.04,1.32,.11,1.98h0c.1,1.08,.3,2.15,.56,3.22,.06,.27,.14,.53,.21,.8,.15,.55,.34,1.08,.55,1.6,.2,.52,.42,1.01,.66,1.5,.22,.49,.48,.98,.73,1.48,.37,.7,.74,1.41,1.12,2.11,.24,.48,.48,.97,.72,1.46,.22,.48,.44,.97,.63,1.48,.28,.77,.53,1.59,.7,2.44,.84,4.13-.77,8.56,.51,12.55,.15,.49,.35,.97,.62,1.45h0c.13,.25,.27,.48,.42,.72,.55,.83,1.1,1.49,1.63,2.01,.23,.22,.44,.41,.65,.56,.21,.18,.41,.32,.62,.45h.01c.11,.07,.21,.13,.31,.17,.11,.07,.21,.11,.31,.15h.01c.11,.04,.21,.08,.31,.11,.44,.15,.86,.21,1.28,.21,1.43-.01,2.81-.86,4.1-2.18,.49-.49,.98-1.07,1.45-1.69,1.32-1.74,2.53-3.88,3.61-6.03,.59-1.17,1.15-2.35,1.66-3.46,.11-.24,.22-.48,.32-.7,.08-.17,.17-.34,.24-.51,.34-.76,.66-1.46,.96-2.09,.1-.2,.18-.37,.27-.55h0c.08-.18,.17-.35,.24-.52,.08-.15,.17-.31,.24-.46,.17,.2,.32,.39,.46,.62,.13,.18,.24,.38,.35,.59,.07,.14,.14,.3,.21,.46,.14,.34,.27,.69,.37,1.07,.03,.08,.06,.18,.07,.28,.06,.2,.1,.41,.13,.63,.06,.28,.1,.58,.13,.87,.04,.3,.06,.6,.07,.91,.27,5.28-1.81,12.08-2.35,16.08-.21,1.55-.46,3.19-.67,4.88-.06,.35-.1,.7-.15,1.07-.58,4.76-.82,9.79,.79,14.12,.15,.41,.31,.8,.51,1.19h0c.18,.39,.38,.77,.6,1.15h0c.14,0,.27-.01,.41-.06,.27-.04,.55-.11,.81-.22,.96-.34,1.91-.97,2.87-1.69,.27-.18,.52-.38,.79-.59,.41-.3,.81-.62,1.21-.91,.14-.11,.3-.22,.44-.32,.11-.08,.24-.17,.35-.25,.06-.04,.11-.07,.17-.13h.03c.1-.07,.2-.14,.28-.2,.04-.03,.08-.06,.13-.08,.04-.03,.1-.06,.14-.08,.01,0,.01-.01,.01-.01,.3-.18,.6-.35,.9-.49,.07-.04,.14-.07,.21-.11,.08-.03,.17-.07,.25-.1h.01s.06-.03,.08-.03c.03-.03,.04-.03,.07-.04,.07-.03,.14-.06,.21-.07,.01-.01,.03-.01,.04-.01,.15-.06,.32-.1,.49-.13,.03-.01,.06-.03,.08-.03h.01c1.26-.24,2.53,.08,3.79,1.46,1.42,1.56,.84,4.85-.01,8.3-.79,3.08-1.8,6.27-1.85,8.42-.03,.37-.01,.7,.04,1.01,2.16,12.37,10.96,4.9,18.98,3.53,.58-.1,1.15-.17,1.71-.2,.94-.04,1.87,.01,2.77,.24,2.28,.58,4.34,2.18,6,5.55,2.08-3.12,3.64-6.03,5.41-8.67h0s.01-.03,.01-.04c2.28-3.33,4.92-6.22,9.58-8.64,1.41,7.25-3.2,16-2.63,23.58,.1,1.33,.38,2.64,.86,3.88,1.67,4.26,4.65,3.39,5.72,6.31,1.03,2.77-.65,7.73-1.5,10.41l.72,7.26c1.59,8.87-4.55,16.74-1.62,26.01,4.19,13.18,6.96-.89,14.68,1.63,7.33,2.4-1.48,12.17,8.95,9.57,6.7-1.66,10.81-10.4,18.72-10.57,10.2-.21,3.89,5.45,4.24,11.68,.56,9.74,8.45,7.78,15.53,8.16,13.26,.74,3.98,4.17,5.72,12.34,1.81,8.66,12.74,.83,15.34,9.08,1.1,3.48-.62,7.69-1.21,11.69-.31,2.23-.28,4.41,.79,6.38,3.16,5.85,9.19,3.04,14.18,4.36,.9,.24,1.77,.6,2.57,1.18-.08,.08-.15,.18-.24,.27-4.36,4.97-7.29,7.87-5.24,14.3,1.74,5.42,6.07,8.39,10.58,10.29,5.44,2.28,10.36,2.26,16.13,1.17,3.58-.67,13.11-5.33,16.12-2.14,2.98,3.16-5.1,11.97-.49,14.87,3.41,2.15,11.79-5.38,14.15-7.43,6.38-5.63,20.67-26.49,30.68-21.06-1.38,10.51-13.19,17.3-15.43,26.99-.14,.59-.23,1.14-.25,1.63-.35,4.62,3.53,4.92,8.05,4.9,2.39,0,4.95-.08,7.15,.34,4.37,.83,5.85,2.78,10.51,1.52,3.81-1.04,7.17-4.65,10.69-6.44,2.43-1.24,10-6.48,12.17-6.17,6.15,.9,1.43,3.41,2.53,6.93,.48,1.55,.45,2.7,.41,3.44h0c-.06,1.19-.17,1.36,1.6,.67,.55-.24,1.32-.56,2.33-.97,3.82-1.56,6.37-6.46,9.63-8.78,9.41-6.7,10.62,2.63,19.39,1.66,8.22-.91,15.08-11.9,22.06-21.29,.77-1.04,1.55-2.07,2.33-3.04,5.66-7.17,11.54-12.42,18.41-9.71,6.74,2.67,2.46,7.73,2.25,12.24-.07,1.28,.21,2.53,1.17,3.67,3.09,3.67,8.04,.6,12.82-1.95,3.36-1.78,6.62-3.34,9.11-2.15-.28,1.1-.76,2.12-1.33,3.11-2.14,3.57-5.86,6.56-7.74,10.47-.37,.76-.67,1.57-.87,2.4,1.03,.03,2.5-.41,4.16-1.01,4.03-1.45,9.08-3.75,10.83-1.94,1.29,1.32,.39,3.96-.1,6.63-.42,2.33-.52,4.72,1.48,6.25,2.95,2.29,6.44,.2,9.63-3.02,3.54-3.56,6.73-8.5,8.39-10.38,1.66-1.85,3.23-3.74,4.81-5.65h.01c1.29-1.56,2.57-3.12,3.86-4.67,7.05-8.5,14.28-16.6,24.84-21.36,2.02-.91,4.02-1.8,5.94-2.47,5.89-2.11,11.1-2.36,14.02,4.13,3.29,7.35-.1,15.6-3.09,22.54Z"/><path class="cls-1" d="M720.58,1080c-.06-.84-.21-1.63-.51-2.35-5.42-13.19-19.6,.23-26.86-1.52-4.34-1.04-7.72-8.56-13.06-9.53-5.35-.97-8.85,2.46-13.1,5.45-2.89,2.04-5.54,4.96-8.24,7.95h61.76Z"/><path class="cls-11" d="M206.55,977.34c1.88,2.71-6.25-.95-10.87-5.46-3.17-3.1-3.63-6.09-4.39-10.52-1.33-7.67-.19-30.75,4.62-24.28,2.26,3.04,3.04,15.64,4.1,23.07,.6,4.17,2.43,11.27,6.54,17.2Z"/><path class="cls-11" d="M283.99,972.27c-5.22,.5-14.74-4.52-17.33-8.46-3.09-4.7-12.44-21.33-7.88-60.01,1.16-9.87,9.93-23.87,11.18-25.44,1.56,4.25,.26,11.4-.26,15.83-.99,8.55-1.68,17.06-2.18,25.67-1.89,32.39,11.24,47.69,16.46,52.41Z"/><path class="cls-11" d="M396.27,807.05c-.15,5.1-1.73,32.68-9.71,62.82-2.1,7.91-5.08,18.34-6.21,26.89-.92,6.99-1.85,17.22-2.66,24.26-.73,6.43-1.79,13-2.86,19.37-1.28,7.61-6.03,13.7-7.27,16.41,.4-4.71-4.23-12.22-6.6-12.82-1.06-.27-2.45-.24-3.51,.1-1.65,.54-7.67,3.4-8.65,6.06l4.52-20.25c1.91-9.05,3.96-18.36,5.43-27.47,2.35-14.52,3.37-29.87,7.57-43.2,2.83-8.97,6.28-18.19,8.61-27.78,1.91-7.89,2.21-16.32,3.51-24.31,4.31,4.89,1.57,24.76,.08,33.4,5.63-13.49,9.23-20.41,11.15-25.14,3.43-8.44,4.81-23.88,5.58-28.3,.53,3.29,1.23,12.84,1.02,19.95Z"/><path class="cls-2" d="M208.18,641.5c4.82-15.37,2.04-32.49,2-48.47-.04-14.7,4.17-29.06,3.98-43.66,1.48,9.19,3.29,18.01,3.29,27.39,0,8.07-.71,16-.73,24.1-.03,14.26-2.12,27.53-8.54,40.64Z"/><path class="cls-2" d="M172.13,660.67c.55-5.75,3.51-11.64,4.64-17.34,1.69-8.53,.72-17.12,.72-25.77,0-7.77,.21-23.73-5.46-29.78-1.84,2.73-1.17,10.32-1.44,13.75-.56,7.1,.42,14.72,.73,21.82,.23,5.2,.04,10.5,0,15.7-.06,6.04,1.17,15.83,.81,21.62Z"/><path class="cls-2" d="M251.22,618.44c-2.69-4.55-4.89-14.23-3.11-19.16,1.81-5.01,6.02-8.6,7.85-13.7,1.19-3.32,2.86-6.48,3.89-9.9,1.47-4.91,.83-10.96,3.01-15.4,3.05,9.03,1.03,23.45-3.08,31.93-4.44,9.16-10.72,15.61-8.55,26.23Z"/><path class="cls-2" d="M276.28,684.18c-3.43-6.32-2.7-16.43-.01-22.34,4.23-9.28,6.11-18.51,9.24-28.19,2.19-6.77,3.69-30.67,4.93-36.16,1.6,6.9,3.04,12.95,3.03,19.71-.02,8.81-.19,18.47-2.52,27.01-2.06,7.57-5.84,14.27-9.02,21.45-2.83,6.39-5.66,11.5-5.66,18.52Z"/><path class="cls-2" d="M498.74,680.91c-3.84-12.98-5.62-26.83-2.81-40.23,3.71-17.68,14.5-32.77,20.64-49.58-1.64,8.89-1.79,18.23-4.58,26.89-2.02,6.26-5.77,11.88-7.98,18.07-5.16,14.45-5.26,29.76-5.26,44.86Z"/><path class="cls-2" d="M535,706.76c-2.54,.06-12.5-9.9-9.97-44.88,.78-10.78,1.79-24.84,9.87-33.05,.17,1.34-.68,3.22-1,4.72-1.93,9.05-2.84,18.22-3.64,27.41-.64,7.39-.88,15.08-.49,22.5,.38,7.18,1.25,20.5,5.22,23.29Z"/><path class="cls-2" d="M561.65,732.7c-3.43-4.9-6.13-12.9-6.47-19.05-.24-4.41-.31-8.94,.09-13.36,.17-1.91,.32-4.75,1.11-6.46,0,3.69,1.28,7.61,1.87,11.21,.51,3.1,.97,6.18,1.48,9.27,.93,5.67,1.65,12.62,1.92,18.39Z"/><path class="cls-2" d="M555.47,684.12c-.63-2.25-4.72-12.15-2.48-22.36,.87-3.96,1.39-8.25,2.3-12.15,2.53,10.85,.83,19.51,.18,34.51Z"/><path class="cls-2" d="M581.82,721.95c.26,1.33-2.94-.69-3.5-2-.95-2.24-1.38-4.66-2.1-6.98-2.95-9.63-4.12-19.11-4.12-29.13,0-5.22-.06-10.44,0-15.66,.04-4.1-.04-9.73,1.28-13.6,3.4,11.75,6.04,23.75,6.36,36.1,.26,9.9,.37,22.53,2.08,31.26Z"/><g><path class="cls-5" d="M109.21,449.59c-2.41,3.27-10.78,1.37-13.84-2.15-2.04-2.35-.78-6.28-3.01-9.06-2.3-2.86-5.44-4.67-7.56-7.83-1.34-2.01-3.67-5.95-3.25-8.62,.56-3.56,3.91-3.49,7.08-3.21,7.46,.66,10.85,4.44,11.25,11.78,.21,3.9,.91,6.92,2.51,10.46,1.33,2.93,8.71,6.05,6.82,8.62Z"/><path class="cls-5" d="M122.33,413.21c-.85,.52-2.81-1.41-2.81-2.81s-4.31-7.76-2.81-9.84c.41-.57,2.22-.38,2.81,0,1.45,.94,2.45,4.63,2.81,6.32,.33,1.55,1.34,5.49,0,6.32Z"/><path class="cls-5" d="M239.08,371.97c-1.81-.15-2.81-4.72-3.23-6.49-.6-2.55-1.21-8.16,0-10.49,.62-1.19,4.84-3.41,5.38,0,.54,3.41,2.98,7.83,2.51,10.49-.35,1.97-2.67,6.65-4.66,6.49Z"/><path class="cls-5" d="M276.03,413.21c-.84,1.05-4.22,.68-5.38,0-1.57-.91-3.12-4.57-3.59-6.32-.23-.86-.04-2.68,0-3.57,.18-4.18-2.65-15.76,1.44-16.68,2.95-.66,5.31,7.52,6.1,10.44,.64,2.37-.27,7.37,0,9.81,.18,1.61,2.45,5.06,1.44,6.32Z"/><path class="cls-5" d="M319.06,498.92c-2.98,.48-7.03-7.03-7.03-9.84s-2.98-7.92-1.41-9.84c1.78-2.17,4.76,4.95,5.62,7.03,1.02,2.47,4.29,7.16,4.22,9.84-.02,.79-.63,2.68-1.41,2.81Z"/><path class="cls-5" d="M299.38,483.47c-1.28-.59-1.09-3.13-1.11-4.22-.03-1.87,.74-6.44,2.51-7.03,1.2-.4,3.9,1.58,4.22,2.81,.46,1.77-2.23,5.05-3.36,6.49-.46,.58-1.58,2.25-2.26,1.94Z"/><path class="cls-5" d="M258.1,472.23c-1.57-.81,.54-5.62,.54-7.03s-1.14-4.44,0-4.84c1.05-.37,2.44,2.39,2.81,3.44,.46,1.3,.57,4.27,0,5.53-.46,1.01-2.36,3.41-3.35,2.9Z"/><path class="cls-5" d="M255.89,493c-1.14-1.14-1.14-5.32,0-6.46,.69-.69,3.08-.56,3.88,0,1.01,.71,1.92,3.45,1.67,4.66-.12,.6-1.11,1.55-1.67,1.79-.89,.39-3.19,.69-3.88,0Z"/><path class="cls-5" d="M298.28,415.15c-.54-1.04-.82-3.84,0-4.66s3.8-.57,4.88,0c.73,.38,1.74,1.91,1.85,2.72,.19,1.41-.49,4.96-1.85,5.4-1.42,.46-4.19-2.13-4.88-3.46Z"/><path class="cls-5" d="M222.22,332.63c.35-1.25,3.56-3,4.66-2.31,.66,.41,0,2.31,0,3.09,0,1.16,1.04,4.12,0,4.63-.66,.33-1.83-1.24-2.33-1.77-.73-.79-2.62-2.59-2.33-3.63Z"/><path class="cls-5" d="M470.93,491.41c.35-1.25,3.56-3,4.66-2.31,.66,.41,0,2.31,0,3.09,0,1.16,1.04,4.12,0,4.63-.66,.33-1.83-1.24-2.33-1.77-.73-.79-2.62-2.59-2.33-3.63Z"/><path class="cls-5" d="M161.23,355c-.9-1.22,.5-5,1.79-5.79,.47-.28,1.66,.15,2.15,.39,.86,.41,2.88,1.55,2.87,2.51,0,1.12-2.36,2.51-3.41,2.89-.8,.29-2.9,.69-3.41,0Z"/><path class="cls-5" d="M171.99,368.26c.82-1.19,4.76-1.02,5.78,0,.66,.66,.48,2.92,0,3.71-.54,.89-2.71,2.29-3.67,1.92-1.4-.54-2.96-4.4-2.1-5.63Z"/><path class="cls-5" d="M144.37,418.61c.04,.96-1.41,3.18-2.36,3.03-1.87-.29-4.08-5.84-2.66-7.09,.53-.47,1.95,.89,2.51,1.32,.74,.57,2.47,1.81,2.51,2.74Z"/><path class="cls-5" d="M82.21,441.26c-.74-.24-2.41-1.08-2.51-1.86-.09-.74,1.21-1.98,1.88-2.3,.55-.26,1.99-.43,2.42,0,.74,.74,.74,3.43,0,4.16-.32,.32-1.37,.14-1.79,0Z"/><path class="cls-5" d="M85.8,455.36c-.73-1.28-2.9-4.3-2.06-5.51,.69-1,3.84-.65,4.87,0,1.3,.81,1.57,4.44,2.66,5.51,.91,.89,4.64,.85,4.65,2.12,.01,1.68-4.45,3.25-6.09,2.87s-3.23-3.6-4.03-4.99Z"/><path class="cls-5" d="M116.71,483.47c-2.72,.63-7.51-3.83-9.66-5.62s-8.85-6.2-7.21-8.43c1.86-2.52,8.72,3.51,11.51,4.93,2.12,1.08,7.64,2.58,8.16,4.9,.28,1.24-1.58,3.93-2.81,4.22Z"/><path class="cls-5" d="M77.42,495.87c-.18-.97,1.77-2.61,2.73-2.87,1.26-.34,4.41,.28,5.02,1.44,.56,1.04-.35,4.02-1.44,4.48-1.61,.69-6-1.33-6.31-3.05Z"/><path class="cls-5" d="M87.2,527.03c-.59-.76,.61-3.02,1.41-3.56,1.07-.73,3.96-.44,5.17,0,1.31,.47,4.44,2.17,4.31,3.56-.15,1.54-3.92,3.21-5.44,2.93-1.06-.19-1.82-2.86-2.82-3.25-.62-.24-2.22,.84-2.62,.32Z"/><path class="cls-5" d="M125.14,562.16c.37-.29,.06-1.41,0-1.88-.27-2.12-1.65-6.28-2.81-8.08-1.35-2.1-4.9-5.98-7.22-6.91-1.37-.55-4.91-1.09-5.9,0-.95,1.04-.04,4.31,.48,5.62,1.11,2.78,4.88,7.88,7.49,9.36,1.78,1.01,6.36,3.15,7.97,1.88Z"/><path class="cls-5" d="M137.55,562.16c.09-1.17,3.13-1.85,4.31-1.88,.67-.02,2.3,.3,2.51,.94,.35,1.05-1.28,3.5-2.36,3.75-1.28,.29-4.55-1.5-4.45-2.81Z"/><path class="cls-5" d="M141.85,495.96c-.41-.88,1.63-2.55,2.51-2.96,.41-.19,1.4-.22,1.79,0,.75,.42,2.22,2.21,1.79,2.96-.75,1.33-5.46,1.38-6.1,0Z"/><path class="cls-5" d="M133.42,615.7c-.54-1.92-5.1-5.08-4.13-6.82,.51-.9,3.23-.51,4.13,0,1.74,.98,4.56,4.87,4.13,6.82-.27,1.21-3.04,3.32-4.13,2.74-.6-.32,.18-2.08,0-2.74Z"/><path class="cls-5" d="M111.09,632.42c.02,.81-1.09,2.47-1.88,2.66-1.38,.33-3.81-1.93-5.02-2.66-1.58-.95-5.24-2.52-6.1-4.16-1.15-2.17-2.02-8.43,0-9.82,.69-.48,2.46,.71,3.14,1.21,3.23,2.41,9.78,8.73,9.87,12.77Z"/><path class="cls-5" d="M123.74,647.87c-.87-1.28-4.18-3-4.22-4.54-.02-.82,1.3-2.37,2.11-2.49,1.62-.25,4.95,1.98,5.52,3.52s-.31,6.39-2,6.51c-.82,.06-.94-2.31-1.41-2.99Z"/><path class="cls-5" d="M117.39,626.76c-1.11-.33-3.91-1.37-3.88-2.53,.04-1.74,4.27-3.63,6.01-3.5,1.21,.09,3.28,1.92,3.81,3.02,.33,.68,.53,2.48,0,3.02-1.05,1.05-4.52,.42-5.94,0Z"/><path class="cls-5" d="M66.66,700.71c.67-.73,2.59-2.44,3.44-1.94,.42,.24,.09,1.46,0,1.94-.22,1.14-.76,3.67-1.72,4.33-.76,.51-3.17,.77-3.66,0-.64-1,1.14-3.45,1.94-4.33Z"/><path class="cls-5" d="M20.95,740.92c-.94-1.25,.34-5.33,1.75-6.02,1.23-.6,3.73,1.8,5.07,2.06,.62,.12,2.15-.51,2.51,0,1.11,1.56-.66,6.77-2.51,7.24-1.18,.3-2.45-2.84-3.59-3.28-.75-.29-2.74,.65-3.23,0Z"/><path class="cls-5" d="M13.06,752.39c-.55-.63-.59-2.76,0-3.35,.7-.7,3.25-.7,3.95,0s.73,3.25,0,3.89c-.75,.65-3.29,.21-3.95-.54Z"/><path class="cls-5" d="M42.83,722.91c-.34-.31-.19-1.43,0-1.84,.36-.76,1.74-2.25,2.58-2.16,1.13,.12,3.25,2.52,2.8,3.56-.54,1.24-4.39,1.36-5.38,.45Z"/><path class="cls-5" d="M37.09,744.21c-1.32-.33-.87-4.39,0-5.43,.52-.63,2.74-1.27,3.23-.61,1.01,1.38-1.57,6.46-3.23,6.04Z"/><path class="cls-5" d="M91.6,684.18c-1.14-.63-.19-4.69,1.04-5.1,.7-.23,2.18,1.24,2.2,1.98,.02,1.12-2.25,3.66-3.24,3.12Z"/><path class="cls-5" d="M115.66,589.36c-.87-.37-.67-3.12,0-3.79s3.49-.89,3.86,0c.51,1.25-2.61,4.32-3.86,3.79Z"/><path class="cls-5" d="M566.73,436.2c-.87-.37-.67-3.12,0-3.79,.68-.68,3.49-.89,3.86,0,.51,1.25-2.61,4.32-3.86,3.79Z"/><path class="cls-5" d="M478.2,555.64c-.87-.37-.67-3.12,0-3.79,.68-.68,3.49-.89,3.86,0,.51,1.25-2.61,4.32-3.86,3.79Z"/><path class="cls-5" d="M93.22,570.86c1.61-.15,3.57-4.53,2.7-5.89-.92-1.43-6.01-1.51-6.8,0-.83,1.59,2.32,6.05,4.1,5.89Z"/><path class="cls-5" d="M77.37,542.48c-.62-.35-.62-2.49,0-2.84,.61-.35,2.42,.72,2.42,1.42s-1.81,1.77-2.42,1.42Z"/><path class="cls-5" d="M489.08,431.48c-.62-.35-.62-2.49,0-2.84s2.42,.72,2.42,1.42-1.81,1.77-2.42,1.42Z"/><path class="cls-5" d="M108.85,533.54c-.5-.21-.38-1.77,0-2.15s2.03-.52,2.24,0c.29,.72-1.53,2.46-2.24,2.15Z"/><path class="cls-5" d="M124.31,502.63c-.5-.21-.38-1.77,0-2.15s2.03-.52,2.24,0c.29,.72-1.53,2.46-2.24,2.15Z"/><path class="cls-5" d="M107.44,682.49c-.5-.21-.38-1.77,0-2.15s2.03-.52,2.24,0c.29,.72-1.53,2.46-2.24,2.15Z"/><path class="cls-5" d="M647.03,799.12c-.5-.21-.38-1.77,0-2.15s2.03-.52,2.24,0c.29,.72-1.53,2.46-2.24,2.15Z"/><path class="cls-5" d="M551.48,876.41c-.5-.21-.38-1.77,0-2.15s2.03-.52,2.24,0c.29,.72-1.53,2.46-2.24,2.15Z"/><path class="cls-5" d="M755.23,1007.09c-.5-.21-.38-1.77,0-2.15s2.03-.52,2.24,0c.29,.72-1.53,2.46-2.24,2.15Z"/><path class="cls-5" d="M597.85,783.67c-.5-.21-.38-1.77,0-2.15s2.03-.52,2.24,0c.29,.72-1.53,2.46-2.24,2.15Z"/><path class="cls-5" d="M489.65,832.85c-.5-.21-.38-1.77,0-2.15s2.03-.52,2.24,0c.29,.72-1.53,2.46-2.24,2.15Z"/><path class="cls-5" d="M731.34,1001.47c-.5-.21-.38-1.77,0-2.15,.4-.4,2.03-.52,2.24,0,.29,.72-1.53,2.46-2.24,2.15Z"/><path class="cls-5" d="M659.68,724.65c-.5-.21-.38-1.77,0-2.15s2.03-.52,2.24,0c.29,.72-1.53,2.46-2.24,2.15Z"/><path class="cls-5" d="M280.28,834.25c-.5-.21-.38-1.77,0-2.15s2.03-.52,2.24,0c.29,.72-1.53,2.46-2.24,2.15Z"/><path class="cls-5" d="M243.75,846.9c-.5-.21-.38-1.77,0-2.15s2.03-.52,2.24,0c.29,.72-1.53,2.46-2.24,2.15Z"/><path class="cls-5" d="M596.44,598.18c-.5-.21-.38-1.77,0-2.15s2.03-.52,2.24,0c.29,.72-1.53,2.46-2.24,2.15Z"/><path class="cls-5" d="M575.37,613.64c-.5-.21-.38-1.77,0-2.15s2.03-.52,2.24,0c.29,.72-1.53,2.46-2.24,2.15Z"/><path class="cls-5" d="M617.52,695.14c-.5-.21-.38-1.77,0-2.15s2.03-.52,2.24,0c.29,.72-1.53,2.46-2.24,2.15Z"/><path class="cls-5" d="M377.24,794.91c-.5-.21-.38-1.77,0-2.15s2.03-.52,2.24,0c.29,.72-1.53,2.46-2.24,2.15Z"/><path class="cls-5" d="M243.75,828.63c-.5-.21-.38-1.77,0-2.15s2.03-.52,2.24,0c.29,.72-1.53,2.46-2.24,2.15Z"/><path class="cls-5" d="M635.79,768.21c-.5-.21-.38-1.77,0-2.15s2.03-.52,2.24,0c.29,.72-1.53,2.46-2.24,2.15Z"/><path class="cls-5" d="M748.2,1007.09c-.5-.21-.38-1.77,0-2.15s2.03-.52,2.24,0c.29,.72-1.53,2.46-2.24,2.15Z"/><path class="cls-5" d="M729.94,1018.33c-.5-.21-.38-1.77,0-2.15s2.03-.52,2.24,0c.29,.72-1.53,2.46-2.24,2.15Z"/><path class="cls-5" d="M672.32,976.18c-.5-.21-.38-1.77,0-2.15s2.03-.52,2.24,0c.29,.72-1.53,2.46-2.24,2.15Z"/><path class="cls-5" d="M682.16,964.93c-.5-.21-.38-1.77,0-2.15s2.03-.52,2.24,0c.29,.72-1.53,2.46-2.24,2.15Z"/><path class="cls-5" d="M680.76,981.8c-.5-.21-.38-1.77,0-2.15s2.03-.52,2.24,0c.29,.72-1.53,2.46-2.24,2.15Z"/><path class="cls-5" d="M873.26,957.91c-.5-.21-.38-1.77,0-2.15s2.03-.52,2.24,0c.29,.72-1.53,2.46-2.24,2.15Z"/><path class="cls-5" d="M860.62,976.18c-.5-.21-.38-1.77,0-2.15s2.03-.52,2.24,0c.29,.72-1.53,2.46-2.24,2.15Z"/><path class="cls-5" d="M161.23,510.58c-.67-1.47-2.06-4.45-2.36-6.04-.12-.63-.57-2.28,0-2.57,1.61-.81,4.96,2.7,5.77,4.31,1.21,2.41,2.61,10.12,0,10.76-1.77,.44-2.65-4.8-3.41-6.46Z"/><path class="cls-5" d="M320.46,469.41c-.55-.55-.55-2.57,0-3.12,.33-.33,1.44-.21,1.85,0,.88,.44,2.82,2.24,2.38,3.12-.47,.95-3.49,.75-4.23,0Z"/><path class="cls-5" d="M320.46,457.49c-1.47-.5-4.23-2.42-4.92-3.82-.42-.86-.55-3.03,0-3.82,.7-1.01,3.51-1.29,4.92,0s-2.81,2.95,0,3.53,5.23-1.22,6.16,0c.69,.9-.97,3.49-1.92,4.1-.89,.57-3.23,.34-4.23,0Z"/><path class="cls-5" d="M139.34,394.72c-1.45-.41-1.57-4.27-1.79-5.76-.09-.58-.55-2.15,0-2.33,1.74-.57,4.51,4.1,4.31,5.92-.09,.82-1.71,2.4-2.51,2.17Z"/><path class="cls-5" d="M473.63,475.04c-4-.46-.88-12.18,0-16.11,.72-3.23,2.39-12.71,5.62-11.99,2.58,.57,.63,7.99,0,10.55-.36,1.47-2.28,3.96-2.81,5.38-1.08,2.93,.29,12.52-2.81,12.17Z"/><path class="cls-5" d="M507.8,453.38c-1.39-.99-2.82-4.84-2.24-6.45,.45-1.27,3.54-1.98,4.6-2.81,.39-.31,.95-1.6,1.41-1.41,1.52,.63,0,4.92,0,6.56,0,1.03,.73,3.38,0,4.1-.67,.67-3,.55-3.77,0Z"/><path class="cls-5" d="M516.56,425.88c-1.71-1.71-.83-7.39,0-9.66,.65-1.77,3.1-6.39,4.87-5.74,2.29,.84,.46,7.36-.03,9.75-.31,1.5-1.12,4.8-2.41,5.65-.51,.34-2,.43-2.43,0Z"/><path class="cls-5" d="M525.38,399.92c-.5-1.4,1.41-4.92,2.87-5.2,1.02-.2,3.11,1.57,3.23,2.6,.14,1.22-1.86,3.53-3.05,3.84-.8,.21-2.77-.46-3.05-1.24Z"/><path class="cls-5" d="M577.25,389.35c4.07,13.52,1.79,19.03-1.2,17.19-1.25-.76-.23-5.96-4.06-12.29-1.31-2.17-5.26-7.62-4.14-9.24,3.81-5.52,8.8,2.35,9.4,4.34Z"/><path class="cls-5" d="M609.93,484.87c-1.35-.52-2.21-4.49-1.32-5.62,.84-1.05,4.43-.95,5.38,0,.5,.5,.33,2.19,0,2.81-.57,1.09-2.91,3.25-4.07,2.81Z"/><path class="cls-5" d="M633.1,479.25c-.63,.19-1.97-.8-2.25-1.41-1.54-3.36-.56-12.21,2.25-14.62,1.14-.98,5.07-1.17,6,0,.99,1.24-.91,4.69-1.44,6.19s-2.04,4.21-2.69,5.62c-.48,1.05-.77,3.88-1.88,4.22Z"/><path class="cls-5" d="M639.11,516.68c-.69-1.82,7.22-5.4,8.76-7.92,2.69-4.41,2.14-16.63,6.31-19.67,3.04-2.22,12.94-3.11,15.07,0s-3.82,10.44-5.38,13.8c-1.05,2.24-2.8,7.17-4.75,8.69-4.08,3.16-18.16,9.94-20,5.11Z"/><path class="cls-5" d="M584.54,589.97c-1.17-.26-2.73-2.73-2.72-3.93s1.6-3.5,2.72-3.86c.74-.23,2.36,.49,2.9,1.05,.78,.8,1.8,3.18,1.41,4.22-.44,1.17-3.09,2.79-4.31,2.52Z"/><path class="cls-5" d="M627.99,628.83c-1.24-.34-2.54-3.2-2.51-4.49,.06-2.54,4-6.51,5.38-8.64s3.83-6.87,5.77-8.58c1.77-1.56,6.25-5.12,8.43-4.22,2.05,.85,3.81,6.45,2.81,8.43-.36,.71-2.32,.59-3.02,.97-2.31,1.25-6.38,4.7-8.18,6.62-1.72,1.84-3.95,6.55-5.82,8.25-.61,.56-2.07,1.87-2.87,1.65Z"/><path class="cls-5" d="M613.99,633.64c-1.34-.33-2.85-3.44-2.69-4.81,.18-1.51,2.61-4.39,4.13-4.49,.95-.06,2.53,1.58,2.93,2.45s.47,3.1,0,3.98c-.62,1.15-3.1,3.18-4.37,2.87Z"/><path class="cls-5" d="M581.83,604.58c-.67-.67-.67-3.14,0-3.82,.29-.29,1.26,.11,1.66,0,.32-.09,.85-.83,1.14-.67,.97,.56,.79,3.69,0,4.48-.5,.5-2.31,.5-2.8,0Z"/><path class="cls-5" d="M661.22,593.89c-.77-.39-2.17-1.94-2.02-2.79,.3-1.63,3.91-3.98,5.53-3.64,1.06,.22,2.57,2.58,2.36,3.64-.23,1.19-2.79,2.43-3.95,2.79-.46,.15-1.5,.22-1.93,0Z"/><path class="cls-5" d="M669.24,562.61c-.45-.92,1.59-2.8,2.51-3.26,1.05-.51,3.84-.82,4.66,0,.58,.58,.58,2.68,0,3.26-1.27,1.27-6.38,1.61-7.18,0Z"/><path class="cls-5" d="M645.06,535.46c-.84-1.54,4.05-5,5.62-4.22,.47,.24,.3,1.67,0,2.11-.85,1.23-4.9,3.42-5.62,2.11Z"/><path class="cls-5" d="M663.14,519.91c-.67-.45-1.58-3.74,0-3.23,1.58,.51,4.96-1.06,6.1-.05,.61,.54,.58,2.7,0,3.28-1.08,1.08-4.83,.84-6.1,0Z"/><path class="cls-5" d="M605.71,552.32c-1.66-.69,.46-5.54,1.46-7.03,.69-1.03,3.28-1.87,4.13-2.78,.92-.98,1.34-4.63,2.69-4.66s3.13,3.27,2.96,4.63c-.12,1.01-2.12,2.23-2.96,2.81-1.23,.85-4.26,1.62-5.38,2.6-.99,.87-1.68,4.93-2.9,4.42Z"/><path class="cls-5" d="M622.57,550.92c-1.75-.53-1.16-5.91,0-7.32,.91-1.11,4.51-2.02,5.62-1.11,.54,.45,.37,2.21,0,2.81-.41,.67-2.22,.89-2.81,1.41-.95,.84-1.6,4.58-2.81,4.22Z"/><path class="cls-5" d="M645.06,595.25c-.99-.3-.74-3.42,0-4.16,.5-.5,2.48-.62,2.81,0,.59,1.11-1.61,4.53-2.81,4.16Z"/><path class="cls-5" d="M645.06,555.91c-.99-.3-.74-3.42,0-4.16,.5-.5,2.48-.62,2.81,0,.59,1.11-1.61,4.53-2.81,4.16Z"/><path class="cls-5" d="M676.42,607.81c-.68-.43-.57-2.66,0-3.23,1.21-1.21,6.44-1.66,6.82,0,.41,1.84-5.22,4.24-6.82,3.23Z"/><path class="cls-5" d="M659.2,638.31c-1.51-.12-2.22-4.55-1.49-5.89,.59-1.1,3.88-2.56,4.74-1.64,1.4,1.5-1.2,7.7-3.24,7.53Z"/><path class="cls-5" d="M632.65,654.59c-.67-.51-.67-2.85,0-3.36,1.32-1.02,6.46,.01,6.46,1.68s-5.14,2.7-6.46,1.68Z"/><path class="cls-5" d="M618.36,684.12c-1.66,.08-3.92-3.43-4.37-5.04-.32-1.15,.14-3.72,.84-4.68,.82-1.13,3.73-3.35,4.93-2.64,1.27,.76,0,4.45,0,5.93,0,1.11,.33,3.37,0,4.43-.18,.58-.8,1.97-1.41,2Z"/><path class="cls-5" d="M642.4,700.01c-1.29-.96-2.67-4.78-1.86-6.17,.94-1.62,5.84-.52,7.32-1.68,1.22-.96,2.05-4.19,2.81-5.55,.82-1.46,1.9-5.21,3.5-5.7,1.85-.56,6.34,1.41,7.04,3.21,.47,1.21-1.43,3.62-2.02,4.78-1.1,2.15-3.16,6.71-5.02,8.25-1.59,1.31-5.69,2.5-7.71,2.86-1,.18-3.24,.61-4.06,0Z"/><path class="cls-5" d="M657.7,701.81c.53,.34,.44,2.07,0,2.51-.94,.94-5.03,1.3-5.32,0-.32-1.44,4.08-3.3,5.32-2.51Z"/><path class="cls-5" d="M504.54,817.03c.53,.34,.44,2.07,0,2.51-.94,.94-5.03,1.3-5.32,0-.32-1.44,4.08-3.3,5.32-2.51Z"/><path class="cls-5" d="M632.65,718.96c-1.32,.17-4.18-1.62-4.45-2.92-.43-2.02,2.51-6.26,4.45-6.98,1.66-.62,6.27,.35,6.79,2.05,.33,1.08-2.11,2.65-2.84,3.5-.96,1.11-2.49,4.16-3.95,4.35Z"/><path class="cls-5" d="M685.04,770.77c-.46,.09-1.44-.18-1.81-.46-.73-.56-1.79-2.3-1.79-3.22s1-2.75,1.79-3.22c.39-.23,1.41-.22,1.81,0,1.22,.7,3.15,3.48,2.86,4.86-.18,.86-2,1.87-2.86,2.03Z"/><path class="cls-5" d="M516.42,836.81c-.46,.09-1.44-.18-1.81-.46-.73-.56-1.79-2.3-1.79-3.22s1-2.75,1.79-3.22c.39-.23,1.41-.22,1.81,0,1.22,.7,3.15,3.48,2.86,4.86-.18,.86-2,1.87-2.86,2.03Z"/><path class="cls-5" d="M761.69,815.09c-.99,.99-4.55,.91-5.62,0-1.63-1.38-1.23-6.3-1.41-8.43-.2-2.44-.89-7.5,0-9.78,.94-2.4,4.62-8.52,7.03-7.58,2.1,.82,0,6.76,0,9.01v8.25c0,2.13,1.51,7.01,0,8.52Z"/><path class="cls-5" d="M808.06,809.47c-1.04,.4-3.7-.42-4.22-1.41-.9-1.71,1.84-5.53,2.11-7.44,.39-2.8-.74-8.58,0-11.31,.93-3.41,4.86-9.52,7.16-12.21,1.61-1.88,7.24-5.91,9-4.17,1.72,1.7-2.54,6.87-3.98,8.82-1.36,1.84-4.48,5.37-5.16,7.55-.83,2.7,.71,8.57,0,11.31-.64,2.45-2.56,7.93-4.92,8.85Z"/><path class="cls-5" d="M833.35,822.11c-1.5-.92-1.24-5.78,0-7.03,.54-.54,2.42-.4,3.08,0,.84,.51,1.93,2.54,1.79,3.51-.09,.66-1.26,1.56-1.79,1.96-.69,.52-2.34,2.01-3.08,1.55Z"/><path class="cls-5" d="M850.21,824.92c-1.24-1.02-1.77-4.81-1.23-6.32,.47-1.31,3-3.05,4.31-3.51,1.1-.39,4.1-1.02,4.66,0,1,1.83-4.53,4.94-4.48,7.03,.02,.86,2.37,2.05,1.97,2.81-.6,1.16-4.22,.83-5.23,0Z"/><path class="cls-5" d="M728.08,809.47c-1.05-.7-.61-3.94,0-5.05,.49-.9,2.56-2.71,3.46-2.22,1.27,.7,.8,4.6,0,5.81-.52,.78-2.68,1.98-3.46,1.46Z"/><path class="cls-5" d="M706.88,786.98c-.7-.29-.55-2.51,0-3.02,.52-.48,2.57-.45,2.81,.21,.35,.93-1.89,3.19-2.81,2.81Z"/><path class="cls-5" d="M725.15,761.69c-1.02-.72,.49-4.04,1.49-4.78,.99-.72,4.51-1.16,4.9,0,.63,1.89-4.76,5.93-6.39,4.78Z"/><path class="cls-5" d="M770.78,775.97c-.69-.31-.43-2.41,0-3.03,.87-1.26,4.94-3.48,5.74-2.17,1.01,1.65-3.97,5.99-5.74,5.2Z"/><path class="cls-5" d="M874.85,857.51c1.76,.96,1.71,6.97,0,8-1.83,1.1-6.38-2.22-7.57-4-.56-.84-.55-3.01-.36-4,.16-.85,.69-3.11,1.55-3.08,1.53,.05,.95,5.18,2.41,5.63,1.13,.35,2.93-3.11,3.96-2.55Z"/><path class="cls-5" d="M921.88,931.72c-1.32-1.32-1.21-6.05,0-7.47,.92-1.09,4.42-1.73,5.62-.96,1.83,1.18,3.54,6.71,2.21,8.43-1.2,1.55-6.45,1.38-7.83,0Z"/><path class="cls-5" d="M916.26,994.95c-.78-.46-.25-2.75,0-3.62,.73-2.54,4.2-6.73,5.62-8.97,1.94-3.06,6.42-8.86,7.83-12.2s.3-12.49,3.41-14.56c1.78-1.19,7.05-.23,8.43,1.41,2.72,3.22,1.62,12.97,0,16.86-2.13,5.13-11.33,12.31-15.76,15.67-2.18,1.66-7.17,6.79-9.54,5.41Z"/><path class="cls-5" d="M916.26,1013.22c-.44-.44-.39-2.02,0-2.51,.89-1.15,4.48-2.32,5.62-1.44,.78,.61,.7,3.25,0,3.95-.99,.99-4.63,.99-5.62,0Z"/><path class="cls-5" d="M951.24,943.09c-.4,.49-2.11,.49-2.51,0-.99-1.21-.31-6.14,1.26-6.14s2.25,4.93,1.26,6.14Z"/><path class="cls-5" d="M905.01,910.64c-1.09-.57-.75-3.94,0-4.91,1.77-2.31,10.01-5.65,11.24-3.01,1.46,3.11-8.19,9.51-11.24,7.92Z"/><path class="cls-5" d="M924.85,1043.71c-.76-.76-.62-3.43,0-4.31,.74-1.06,3.59-1.51,4.86-1.74,1.77-.31,6.6-1.7,7.18,0,.8,2.37-5.61,5.24-7.98,6.04-.96,.32-3.34,.72-4.06,0Z"/><path class="cls-5" d="M704.23,1011.39c-.76-.76-.62-3.43,0-4.31,.74-1.06,3.59-1.51,4.86-1.74,1.77-.31,6.6-1.7,7.18,0,.8,2.37-5.61,5.24-7.98,6.04-.96,.32-3.34,.72-4.06,0Z"/><path class="cls-5" d="M906.42,1034.3c-.65-1.22,1.79-4.98,3.11-4.57,1.09,.34,.81,3.77,0,4.57-.55,.55-2.74,.69-3.11,0Z"/><path class="cls-5" d="M906.42,1052.68c-.7-.7-.91-3.55,0-3.95,1.32-.57,4.75,2.6,4.22,3.95-.39,.98-3.47,.75-4.22,0Z"/><path class="cls-5" d="M224.91,442.84c-.7-.7-.91-3.55,0-3.95,1.32-.57,4.75,2.6,4.22,3.95-.39,.98-3.47,.75-4.22,0Z"/><path class="cls-5" d="M106.87,496.23c-.7-.7-.91-3.55,0-3.95,1.32-.57,4.75,2.6,4.22,3.95-.39,.98-3.47,.75-4.22,0Z"/><path class="cls-5" d="M276.9,440.03c-.7-.7-.91-3.55,0-3.95,1.32-.57,4.75,2.6,4.22,3.95-.39,.98-3.47,.75-4.22,0Z"/><path class="cls-5" d="M906.42,1070.62c-.99-.34-1.87-3.01-1.41-3.95,.53-1.06,3.44-1.94,4.51-1.44,.66,.31,1.33,2,1.11,2.69-.38,1.19-3.03,3.1-4.22,2.69Z"/><path class="cls-5" d="M321.87,815.09c-.59,1.8-5.26,3.48-7.03,2.81-2.94-1.12-5.12-8.14-5.62-11.24-.4-2.45-1.03-9.33,1.41-9.84,5.25-1.09,12.92,13.18,11.24,18.27Z"/><path class="cls-5" d="M220.69,914.86c-1.02-1.02-.91-4.65,0-5.77,2.04-2.51,10.73-5.26,12.65-2.66,1.43,1.94-2.59,7.21-4.66,8.43-1.72,1.01-6.57,1.41-7.98,0Z"/><path class="cls-5" d="M233.34,877.87c-1.34,1.16-5.78-1.54-6.32-3.23s1.45-6.23,3.16-6.1c2.46,.19,5.02,7.72,3.16,9.33Z"/><path class="cls-5" d="M181.35,961.23c-1.47,.24-3.65-2.84-4.22-4.22-.84-2.04-2.01-7.91,0-8.82,2.25-1.02,6.93,4.1,7.41,6.52,.35,1.78-1.41,6.22-3.2,6.52Z"/><path class="cls-5" d="M254.42,782.77c-.56,.89-3.47,.75-4.22,0-1.58-1.58-2.18-8.45,0-8.94,2.41-.54,5.54,6.85,4.22,8.94Z"/><path class="cls-5" d="M414.61,723.75c-1.75,.17-5.47-2.47-5.62-4.22-.18-2.04,3.57-6,5.62-5.98,1.71,.02,4.57,3.39,4.57,5.1s-2.87,4.93-4.57,5.1Z"/><path class="cls-5" d="M192.08,1045.54c-1.4-.39-2.32-4.48-1.44-5.62,1.1-1.42,6.5-1.66,7.18,0,.76,1.86-3.81,6.16-5.74,5.62Z"/><path class="cls-5" d="M273.58,501.73c-1.4-.39-2.32-4.48-1.44-5.62,1.1-1.42,6.5-1.66,7.18,0,.76,1.86-3.81,6.16-5.74,5.62Z"/><path class="cls-5" d="M134.98,1027.27c-2.35-.09-5.45-6.43-4.22-8.43,1.22-1.98,8.15-2.02,9.3,0,1.21,2.14-2.62,8.53-5.08,8.43Z"/><path class="cls-5" d="M227.02,791.77c-1.59-.38-3.37-5.16-2.11-6.19,1.18-.97,5.08,1.58,5.27,3.09,.13,1.1-2.09,3.35-3.16,3.09Z"/><path class="cls-5" d="M219.29,767.31c-1.45,0-2.3-4.48-1.41-5.62,.43-.55,2.38-.55,2.81,0,.89,1.14,.04,5.62-1.41,5.62Z"/><path class="cls-5" d="M248.8,732.18c-1.56-.88-.98-5.65,0-7.15,.53-.8,2.58-1.75,3.51-1.53,1.38,.32,3.86,2.94,3.63,4.34-.34,2.06-5.32,5.36-7.15,4.34Z"/><path class="cls-5" d="M231.55,732.18c-.15,1.19-2.83,2.4-4,2.63-1.71,.34-5.88,.14-6.85-1.31-.8-1.2,.05-4.74,1.17-5.65s4.38-.57,5.68,0,4.18,2.87,4,4.34Z"/><path class="cls-5" d="M247.33,698.68c-.08,1.11-1.78,3.16-2.87,3.42-2.09,.49-6.71-1.62-7.89-3.42-.62-.94-.8-3.71,0-4.5,1.42-1.41,6.27-.92,8.01,.06,1.14,.64,2.84,3.14,2.75,4.44Z"/><path class="cls-5" d="M261.44,690.03c-.38,.94-3.05,0-4.07,0-1.27,0-4.17,.9-5.07,0-.49-.49-.4-2.22,0-2.8,.7-.99,3.38-1.92,4.57-1.66,1.56,.34,5.17,2.98,4.57,4.45Z"/><path class="cls-5" d="M235.13,685.57c-.09,.71-1.21,1.81-1.79,2.23-1.37,.97-4.88,3.08-6.32,2.23-1.26-.74-1.72-4.51-.98-5.77,.98-1.67,5.52-3.35,7.3-2.6,.99,.42,1.93,2.85,1.79,3.92Z"/><path class="cls-5" d="M219.29,684.25c-1.55,.26-4.26-3.81-3.53-5.2,.25-.47,1.59,0,2.12,0,.7,0,2.38-.56,2.81,0,.82,1.07-.08,4.97-1.41,5.2Z"/><path class="cls-5" d="M197.46,681.65c.6,1.06-1.4,3.67-2.51,4.19-2.23,1.03-7.61-.28-9.69-1.59-1.33-.84-4.49-3.9-3.59-5.2,1.53-2.2,7.74,2.27,10.4,2.6,1.34,.16,4.72-1.17,5.38,0Z"/><path class="cls-5" d="M174.32,671.76c-.26,1.08-3.16,1.74-4.22,1.41-1.68-.52-5-4.05-4.22-5.62,.47-.94,3.24-.4,4.22,0,1.38,.57,4.56,2.76,4.22,4.22Z"/><path class="cls-5" d="M181.68,705.52c.77,1.63-2.75,5.5-4.54,5.58-1.96,.09-6.26-3.78-5.5-5.58,.48-1.16,3.77,0,5.02,0s4.48-1.13,5.02,0Z"/><path class="cls-5" d="M137.79,692.84c-1.22,.71-4.19-1.59-4.9-2.81-.28-.48-.47-1.93,0-2.23,1.13-.73,4.17,1.1,4.9,2.23,.38,.59,.61,2.46,0,2.81Z"/><path class="cls-5" d="M94.84,711.11c-1.16,.17-3.74-1.62-3.75-2.79-.01-1.82,4.06-3.86,5.78-4.44,1.68-.57,6.66-1.72,7.11,0,.47,1.79-5.06,2.4-6.45,3.62-.85,.74-1.58,3.45-2.7,3.62Z"/><path class="cls-5" d="M148.24,446.93c-1.16,.17-3.74-1.62-3.75-2.79-.01-1.82,4.06-3.86,5.78-4.44s6.66-1.72,7.11,0c.47,1.79-5.06,2.4-6.45,3.62-.85,.74-1.58,3.45-2.7,3.62Z"/><path class="cls-5" d="M236.57,670.36c-.77-.17-1.78-2.1-1.44-2.81,.76-1.56,6.1-2.93,6.82-1.35s-3.72,4.53-5.38,4.16Z"/><path class="cls-5" d="M539.67,868.48c-1.5,.47-4.95-1.39-5.62-2.81-1.3-2.77,1.8-9.01,2.81-11.9,1.09-3.13,3.38-9.56,5.62-11.99,1.92-2.08,7.05-6.15,9.84-5.62,2.21,.42,5.66,4.78,5.62,7.03-.09,4.56-9.34,10.07-11.94,13.81-1.87,2.69-3.19,10.51-6.32,11.48Z"/><path class="cls-5" d="M600.09,896.59c-1.34,1.34-6.29,1.38-7.59,0-1.94-2.04,.95-8.45,.57-11.24-.3-2.2-4.64-7.17-2.81-8.43,2.62-1.8,8.48,5.2,9.84,8.07,1.24,2.62,2.05,9.55,0,11.6Z"/><path class="cls-5" d="M639.25,947.41c-.13,1.46-2.91,3.58-4.33,3.95-2.04,.52-6.33-.95-8.17-1.97-2.4-1.34-7.92-4.97-7.82-7.71,.06-1.66,4.53-2.76,5.06-4.34,1.02-3.07-2.46-9.43-2.81-12.65-.27-2.44-2.36-9.15,0-9.84,3.55-1.03,6.39,9.11,7.92,12.47,1.2,2.64,2,8.54,3.32,11.12,1.28,2.51,7.1,6.16,6.85,8.97Z"/><path class="cls-5" d="M666.13,952.8c-.23,.75-2.06,1.62-2.81,1.41-.98-.28-2.27-2.49-2.11-3.5,.13-.81,1.65-2.29,2.46-2.15,1.21,.2,2.81,3.07,2.46,4.25Z"/><path class="cls-5" d="M742.01,962.63c-1.56,.14-5.26-1.28-5.62-2.81-.4-1.71,2.85-4.54,4.25-5.62,2.91-2.25,10.69-3.37,13.58-5.65,2.03-1.61,3.78-9.63,6.07-8.4,2.65,1.42-2.48,8.79-4.22,11.24-1.46,2.06-5.75,4.92-7.73,6.49-1.55,1.23-4.35,4.57-6.32,4.75Z"/><path class="cls-5" d="M683.24,930.3c-1.45,.74-5.27-1.28-5.86-2.8-.71-1.83,1.09-6.59,2.93-7.29,1.14-.44,3.83,1.06,4.38,2.15,.91,1.8,.35,7.02-1.45,7.94Z"/><path class="cls-5" d="M243.42,418.81c-1.45,.74-5.27-1.28-5.86-2.8-.71-1.83,1.09-6.59,2.93-7.29,1.14-.44,3.83,1.06,4.38,2.15,.91,1.8,.35,7.02-1.45,7.94Z"/><path class="cls-5" d="M645.06,903.61c-1.68-.65-1.91-5.25-1.61-7.03,.12-.76,.85-2.51,1.61-2.63,.99-.15,2.63,1.72,3.05,2.63,.51,1.11,.57,3.82,0,4.9-.43,.82-2.18,2.46-3.05,2.12Z"/><path class="cls-5" d="M250.2,430.07c-1.68-.65-1.91-5.25-1.61-7.03,.12-.76,.85-2.51,1.61-2.63,.99-.15,2.63,1.72,3.05,2.63,.51,1.11,.57,3.82,0,4.9-.43,.82-2.18,2.46-3.05,2.12Z"/><path class="cls-5" d="M639.25,836.17c1.01,1.75-2.28,6.01-4.03,7.03-.63,.36-2.31,.42-2.9,0-2.04-1.46-5.12-7.85-3.23-9.51,1.06-.93,3.7,2.16,5.08,2.48,1.24,.29,4.44-1.1,5.08,0Z"/><path class="cls-5" d="M562.15,1009c.27,1.74-2.46,5.59-4.22,5.62-1.81,.04-3.97-3.91-4.57-5.62-.53-1.48-1.4-5.56,0-6.28,2.4-1.24,8.38,3.61,8.79,6.28Z"/><path class="cls-5" d="M525.62,1046.94c-.55,.29-1.89-.8-2.03-1.41-.24-1.03,1.01-3.97,2.03-3.71,1.24,.32,1.13,4.52,0,5.11Z"/><path class="cls-5" d="M538.26,1065.21c-.61,.93-3.57-.5-4.22-1.41-.49-.67-.78-3.02,0-3.32,1.48-.56,5.09,3.4,4.22,4.72Z"/><path class="cls-5" d="M618.36,1068.02c-1.41,1.41-6.55,1.41-7.95,0-.5-.5-.42-2.25,0-2.81,1.24-1.66,6.29-3.6,7.95-2.36,1.04,.77,.91,4.26,0,5.17Z"/><path class="cls-5" d="M581.82,1049.75c-.96,1.22-4.99,.95-6.22,0-1.1-.85-2.03-4.11-1.44-5.37,.68-1.42,4.33-3.25,5.74-2.56,1.83,.9,3.17,6.32,1.91,7.92Z"/><path class="cls-5" d="M630.49,1034.3c-1.4,.32-4.94,1.19-5.74,0-1.02-1.54,1.33-5.79,2.87-6.82,.97-.65,3.55-.32,4.67,0,1.53,.44,5.48,1.82,5.38,3.41-.12,1.98-5.24,2.97-7.18,3.41Z"/><path class="cls-5" d="M668.94,1056.78c-1.1-.87-.91-4.55,0-5.62,1.38-1.63,6.8-2.79,8.43-1.41,.95,.81,.77,4.01,0,4.99-1.34,1.7-6.73,3.37-8.43,2.03Z"/><path class="cls-5" d="M732.18,1068.02c-.41-.57-.5-2.32,0-2.81,1.52-1.48,6.37-.11,8.46,.22,1.02,.16,3.87,.15,3.95,1.18,.14,1.88-4.95,3.08-6.83,3.2-1.46,.09-4.72-.61-5.58-1.79Z"/><path class="cls-5" d="M803.42,1056.78c-1.04-.27-2.79-2.47-2.51-3.51,.57-2.08,5.95-2.57,7.89-3.51s5.71-5.06,7.53-3.96c1.6,.97,1.32,6.15,0,7.47-.95,.95-4.07-.29-5.38,0-2.03,.45-5.52,4.04-7.53,3.51Z"/><path class="cls-5" d="M802.44,1024.46c.11,.61-.95,1.71-1.52,1.94-1.84,.76-6.27,.18-7.89-.97-2.14-1.52-6.56-7.63-4.63-9.4,1.85-1.69,6.43,3.9,8.58,5.19,1.36,.82,5.18,1.68,5.47,3.24Z"/><path class="cls-5" d="M816.34,1004.52c-.72,0-2.47-.44-2.66-1.14-.28-1.07,1.59-3.25,2.66-3.53,1.42-.37,5.38,.87,5.38,2.33s-3.92,2.33-5.38,2.33Z"/><path class="cls-5" d="M701.26,992.14c-.21,1.48-2.73,4.22-4.22,4.22s-3.57-2.85-4.13-4.22c-.39-.96-.73-3.4,0-4.13,1.08-1.08,4.79-.78,6.1,0,1.01,.6,2.41,2.96,2.24,4.13Z"/><path class="cls-5" d="M716.72,964.04c-.98-.15-2.7-1.82-2.81-2.81-.14-1.3,1.5-4.51,2.81-4.42,1.61,.1,3.27,4.3,2.75,5.83-.25,.73-1.99,1.53-2.75,1.41Z"/><path class="cls-5" d="M601.5,524.22c-.98-.15-2.7-1.82-2.81-2.81-.14-1.3,1.5-4.51,2.81-4.42,1.61,.1,3.27,4.3,2.75,5.83-.25,.73-1.99,1.53-2.75,1.41Z"/><path class="cls-5" d="M716.69,933c-.49,.49-2.4,.58-2.78,0-.95-1.45,1.09-6.69,2.78-6.33,1.55,.33,1.12,5.21,0,6.33Z"/><path class="cls-5" d="M772.21,956.8c-1.39-.16-2.29-4.3-1.44-5.41,.65-.85,3.75-.94,4.31-.01,.79,1.31-1.35,5.6-2.87,5.43Z"/><path class="cls-5" d="M652.08,986.52c-.94,.14-2.96-1.94-2.57-2.81s3.42-.84,3.95,0c.41,.66-.6,2.7-1.38,2.81Z"/><path class="cls-5" d="M784.77,929.83c-1.19-.29-2.07-3.38-1.79-4.58,.41-1.8,3.72-5.78,5.41-5.05,1.48,.64,.67,4.99,0,6.46-.5,1.09-2.45,3.45-3.62,3.17Z"/><path class="cls-5" d="M813.08,966.13c-.63,.92-3.82,.92-4.45,0-.86-1.26,.69-5.71,2.23-5.71s3.09,4.45,2.23,5.71Z"/><path class="cls-5" d="M779.95,976.68c-.84-.59-.84-3.51,0-4.1,1.24-.88,5.73,.53,5.73,2.05s-4.48,2.92-5.73,2.05Z"/><path class="cls-5" d="M564.96,867.08c-1.22,.15-3.2-3.11-2.6-4.19,.48-.86,3.37-.8,3.95,0,.65,.89-.25,4.05-1.35,4.19Z"/><path class="cls-5" d="M555.13,899.4c-1.22,.15-3.2-3.11-2.6-4.19,.48-.86,3.37-.8,3.95,0,.65,.89-.25,4.05-1.35,4.19Z"/><path class="cls-5" d="M611.33,511.57c-1.22,.15-3.2-3.11-2.6-4.19,.48-.86,3.37-.8,3.95,0,.65,.89-.25,4.05-1.35,4.19Z"/><path class="cls-5" d="M875.51,1059.59c-1.25,.98-5.53-1.23-5.71-2.81-.16-1.38,2.99-3.97,4.31-3.51,1.53,.53,2.68,5.32,1.41,6.32Z"/><path class="cls-5" d="M890.96,969.66c-.96,.56-3.89-.34-4.22-1.41-.72-2.36,3.76-8.85,6.01-7.83,2.15,.97,.24,8.05-1.79,9.24Z"/><path class="cls-5" d="M883.07,912.05c-1.45,1.61-5.93,5.63-7.56,4.22-2.01-1.74,1.92-8.05,3.78-9.94,1.41-1.43,6.05-4.41,7.46-2.97,1.65,1.69-2.1,6.94-3.68,8.7Z"/><path class="cls-5" d="M855.8,943.45c-.98-.22-2.83-2.35-2.38-3.25,.95-1.89,7.95-2.11,8.48-.05,.43,1.68-4.41,3.69-6.1,3.3Z"/><path class="cls-5" d="M881.01,936.95c-.97,.97-4.58,1.02-5.5,0-1.12-1.24-.59-5.53,.65-6.65,.9-.82,3.64,.09,4.85,0,.79-.06,2.78-1.17,3.14-.47,.5,.99-2.72,2.14-3.14,3.17-.38,.91,.7,3.25,0,3.95Z"/><path class="cls-5" d="M779.95,843.79c.46,.85-.53,3.2-1.41,3.62-1.33,.63-4.58-.76-5.62-1.81-1.26-1.27-3.61-5.79-2.15-6.83,1.48-1.06,4.21,3.57,5.87,4.32,.77,.35,2.9-.04,3.3,.7Z"/><path class="cls-5" d="M764.32,833.36c-1.4-.17-4.05-2.51-4.04-3.92,.01-1.38,2.66-3.85,4.04-3.76,1.68,.11,4.6,3.54,4.31,5.2-.22,1.22-3.07,2.63-4.31,2.48Z"/><path class="cls-5" d="M756.07,843.09c-.63-.35-.63-2.53,0-2.89s2.35,.75,2.35,1.44-1.75,1.78-2.35,1.44Z"/><path class="cls-5" d="M796.82,827.73c-1.4,.09-4.44-.9-5.23-2.06s-1.12-4.74,0-5.57c1.43-1.06,5.12,1.55,6.82,2.09,1.32,.42,5.13,.34,5.26,1.72,.19,1.95-4.89,3.68-6.84,3.81Z"/><path class="cls-5" d="M819.3,855.84c-.84-.23-2.05-2.34-1.6-3.08,.85-1.4,6.08-1.57,6.53,0,.4,1.4-3.53,3.46-4.93,3.08Z"/><path class="cls-5" d="M838.23,855.84c-1.67-.03-5.05-1.65-5.91-3.08-.69-1.14-1.17-4.69,0-5.35,1.78-1,4.95,4.04,6.98,4.22,1.44,.12,4.19-2.92,5.38-2.11,.67,.46,.43,2.56,0,3.24-.95,1.51-4.66,3.11-6.45,3.08Z"/><path class="cls-5" d="M840.38,867.08c-1.41-.57-4.09-3.47-3.59-4.9,.68-1.92,5.91-1.62,7.89-2.09,1.72-.41,5.2-1.77,6.94-1.44,2.5,.48,8.17,3.1,8.49,5.62,.12,.94-1.65,2.49-2.54,2.81-2.17,.77-6.81-1.43-9.12-1.41-2.05,.02-6.17,2.17-8.07,1.41Z"/><path class="cls-5" d="M503.85,756.2c-1.22,.3-4.13,.89-5.02,0-1.01-1.01-1-4.68,0-5.69,1-1.01,4.33-.44,5.71-.06s4.73,1.5,4.69,2.87c-.04,1.52-3.9,2.5-5.38,2.87Z"/><path class="cls-5" d="M509.23,768.81c-1.29-.39-2.32-3.86-1.79-5.1,.42-1,3.15-1.08,3.95-1.81,1.21-1.11,1.59-5.62,3.23-5.7,1.73-.08,4.24,3.99,3.95,5.7-.13,.76-1.89,1.35-2.51,1.81-1.72,1.26-4.78,5.72-6.82,5.1Z"/><path class="cls-5" d="M528.43,801.04c-1.53-1.27-5.26-3.67-5.62-5.62-.31-1.68,1.15-5.84,2.81-6.21,1.8-.4,4.57,3.28,5.62,4.8,1.78,2.59,6.71,9.93,4.22,11.84-1.69,1.3-5.39-3.46-7.03-4.82Z"/><path class="cls-5" d="M526.1,750.45c-.94-1.63-6.69-1.68-7.53,0-.8,1.59,2.46,5.85,4.25,5.75,1.65-.1,4.12-4.31,3.29-5.75Z"/><path class="cls-5" d="M560.9,753.32c-1.28-.24-3.26-3.01-2.96-4.28,.38-1.62,4.22-2.79,5.83-3.2,2-.51,7.65-1.97,8.25,0,.98,3.2-7.83,8.1-11.12,7.48Z"/><path class="cls-5" d="M583.23,737.8c-.99-.12-2.89-1.82-2.81-2.81,.07-.87,2.09-1.57,2.81-2.06,1.37-.94,4.05-4.11,5.62-3.56,1.05,.37,1.85,3.17,1.46,4.22-.71,1.94-5.04,4.47-7.09,4.22Z"/><path class="cls-5" d="M575.96,776.06c-1.32-.15-4.16-2.23-3.95-3.54,.17-1.06,3.02-1.18,3.95-1.74,1.22-.74,3.08-3.92,4.45-3.54,1.36,.37,2.49,3.95,2,5.28-.64,1.73-4.63,3.75-6.46,3.54Z"/><path class="cls-5" d="M617.11,759.05c-1.52,.06-2.99-4.47-2.12-5.72,.53-.76,3.14-.74,3.7,0,.9,1.18-.1,5.66-1.58,5.72Z"/><path class="cls-5" d="M614.99,773.21c-.94-.64-2.01-3.72-1.1-4.41,1.48-1.12,6.8,1.89,6.44,3.71-.26,1.32-4.23,1.45-5.34,.69Z"/><path class="cls-5" d="M534.05,747.64c-1.26-.15-3.41-3.1-2.81-4.22,.87-1.63,6.74-1.73,7.41,0,.57,1.45-3.05,4.4-4.6,4.22Z"/><path class="cls-5" d="M518.56,736.16c-1.03,1.13-4.74-1.28-5.56-2.57-.96-1.5-1.72-6.66,0-7.12,2.7-.72,7.45,7.63,5.56,9.69Z"/><path class="cls-5" d="M660.13,776.06c-2.51,1.07-8.74-3.03-9.33-5.7-.43-1.95,2.43-6.54,4.42-6.66,2.33-.14,5.51,4.82,6.07,7.08,.33,1.31,.08,4.75-1.16,5.28Z"/><path class="cls-5" d="M45.45,758.76c-.79-1.02,1.57-4.02,2.82-4.31,1.01-.23,3.64,1.13,3.53,2.15-.19,1.67-5.32,3.48-6.35,2.15Z"/><path class="cls-5" d="M48.63,776.34c-1.34-1.43,1.56-6.06,3.17-7.18,1.79-1.23,6.58,.05,8.7-.45,2.6-.61,7.86-6.05,9.81-4.22,1.53,1.44-1.22,6.59-2.86,7.89-2.38,1.89-9.1,.72-12.05,1.44-1.75,.42-5.53,3.82-6.76,2.51Z"/><path class="cls-5" d="M74.56,756.07c-.44-.55-.5-2.32,0-2.82,.86-.86,4.32-1.09,4.87,0,.47,.92-1.47,2.99-2.44,3.36-.58,.22-2.05-.05-2.44-.54Z"/><path class="cls-5" d="M174.32,907.83c-1.08-.25-2.05-3.31-1.41-4.22,.39-.54,2,0,2.66,0,.72,0,2.59-.66,2.87,0,.57,1.36-2.69,4.55-4.13,4.22Z"/><path class="cls-5" d="M144.81,896.59c-.72-1.16-.95-4.47,0-5.44,1.47-1.51,7.8-2.19,8.43-.18,.38,1.21-3.62,1.69-4.22,2.81-.58,1.08,1.04,4.26,0,4.9-1,.62-3.6-1.09-4.22-2.09Z"/><path class="cls-5" d="M180.84,882.54c-1.41-.98-2.35-4.74-2.39-6.46-.05-1.98,.8-6.37,2.39-7.53,1.04-.76,4.23-.91,5.14,0,.82,.82,.17,3.51,0,4.66s-1.59,3.45-1.44,4.66c.17,1.36,3.54,3.47,2.87,4.66-.8,1.44-5.23,.94-6.58,0Z"/><path class="cls-5" d="M163.08,878.32c-.36-1.22,2.99-2.94,4.25-2.78,.93,.12,2.89,1.92,2.51,2.78-.69,1.54-6.27,1.62-6.76,0Z"/><path class="cls-5" d="M196.81,871.3c-2.19-.71-4.55-7.68-2.57-8.85,1.86-1.1,6.23,3.95,6.1,6.1-.07,1.12-2.46,3.09-3.53,2.75Z"/><path class="cls-5" d="M172.92,859.22c-.86-2.35,5.47-6.56,7.92-6.1,1.58,.3,4.08,4.11,3.32,5.53-1.32,2.48-10.27,3.21-11.24,.57Z"/><path class="cls-5" d="M286.74,774.34c-1.43-1.02-1.38-5.94,0-7.03,1.14-.89,4.73,.26,5.62,1.41,.57,.72,.53,2.93,0,3.68-.86,1.21-4.41,2.81-5.62,1.94Z"/><path class="cls-5" d="M271.28,822.11c-.9,.55-3.61,.87-4.22,0-1.72-2.48,1.2-11.14,4.22-11.33,1.59-.1,2.96,4.07,2.96,5.67s-1.59,4.84-2.96,5.67Z"/><path class="cls-5" d="M220.53,816.45c.81,1.4,5.67,1.4,6.48,0s-1.61-5.67-3.24-5.67-4.06,4.25-3.24,5.67Z"/><path class="cls-5" d="M437.84,771.65c-.71,.71-3.41,.02-3.95-.83-1.15-1.81-.17-8.34,1.97-8.32,2.34,.02,3.62,7.49,1.97,9.15Z"/><path class="cls-5" d="M433.89,726.47c-1.25-.42-.93-4.34,0-5.27,.7-.7,3.5-.88,3.95,0,.74,1.47-2.39,5.79-3.95,5.27Z"/><path class="cls-5" d="M326.62,782.77c-1.76-.06-3.8-4.93-2.87-6.43,.85-1.37,5.6-1.65,6.46-.28,1.01,1.61-1.69,6.78-3.59,6.71Z"/><path class="cls-5" d="M270.65,785.58c-.5-.5-.63-2.5,0-2.81,1.02-.5,3.96,1.73,3.59,2.81-.29,.85-2.95,.63-3.59,0Z"/><path class="cls-5" d="M84.81,721.2c-1.03-.41-.78-3.64,0-4.42,.74-.74,3.76-.96,4.17,0,.6,1.39-2.76,4.98-4.17,4.42Z"/></g><path class="cls-5" d="M479.21,725.88c-.13,.06-.28,.13-.46,.22-.03,0-.06,.01-.08,.03-1.93,.72-3.96,1.45-6.11,2.19,.07,.06,.13,.13,.17,.21,.03,.06,.04,.11,.06,.18-1.53,.63-3.32,1.35-5.3,2.11-5.52,2.09-12.7,4.58-21.11,6.89-1.04,.3-2.09,.58-3.18,.84-.03-1.73,.13-3.44,.42-5.14,.1-.52,.2-1.05,.32-1.57h0c.08-.42,.18-.83,.3-1.24,.07-.32,.17-.65,.25-.97,.11-.35,.21-.69,.32-1.04,.06-.18,.11-.37,.18-.55,1.35-.62,2.67-1.25,3.98-1.87,1.04-.51,2.07-1,3.06-1.5,12.73-6.27,23.12-12.38,25.35-13.71l1.69,13.83,.14,1.1Z"/><path class="cls-5" d="M472.55,728.33c2.15-.74,4.19-1.48,6.11-2.19-1.11,.52-3.11,1.43-5.89,2.59-.01-.07-.03-.13-.06-.18-.04-.08-.1-.15-.17-.21Z"/><path class="cls-5" d="M479.67,725.66s-.15,.08-.46,.22l-.14-1.1-1.69-13.83c.3-.17,.45-.27,.45-.27l1.84,14.97Z"/></svg>