<svg width="600" height="600" viewBox="0 0 600 600" fill="none" xmlns="http://www.w3.org/2000/svg">
<path d="M571.29 184C570.74 183.88 570.13 183.76 569.4 183.45C554.83 179.12 544.35 167.66 541.42 152.85L538.37 137.67C538 135.72 536.3 134.26 534.29 134.2H534.17C532.16 134.2 530.45 135.54 529.96 137.49C529.96 137.49 526.99 148.95 526.06 152.79C525.29 155.95 522.89 159.98 520.57 163.52C508.8 146.21 481.19 116.28 481.62 115.91C489.24 109.57 498.2 104.82 508.32 101.71L514.54 99.82C516.86 99.03 518.38 97.08 518.38 94.76C518.38 92.26 516.61 90.13 513.99 89.52C512.83 89.34 511.61 89.03 510.45 88.73C484.42 81.78 465.77 63.62 460.47 40.09L455.29 16.56C454.74 14.06 452.61 12.35 449.93 12.29C447.31 12.11 444.99 13.87 444.32 16.31L437.61 39.96C434.32 52.7 427.19 64.28 417.07 73.43C380.74 55.33 339.84 45.21 296.56 45.21C146.72 45.2 25.2998 166.63 25.2998 316.47C25.2998 466.31 146.73 587.73 296.56 587.73C446.39 587.73 567.82 466.3 567.82 316.47C567.82 278.98 560.2 243.32 546.48 210.83C548.13 208.15 550.14 205.59 552.58 203.21C556.91 198.94 562.33 195.65 568.18 193.64L571.9 192.42C573.61 191.75 574.7 190.1 574.7 188.34C574.7 186.27 573.42 184.56 571.29 184.01V184ZM311.12 439.72C284.18 440.94 258.94 434.23 237.48 421.74C233.03 419.18 227.6 419.12 223.03 421.37L171.58 446.61C166.21 449.23 160.55 443.62 163.05 438.2L187.86 385.11C189.93 380.6 189.81 375.42 187.43 371.09C174.14 347.62 167.74 319.7 170.91 290.2C177.62 227.47 228.58 177 291.36 170.85C371.82 162.99 439.61 225.89 439.79 304.71C439.91 374.32 380.6 436.62 311.11 439.73L311.12 439.72ZM475.95 115.18C466.68 123.96 460.1 135.3 457.3 148.34L452.55 172.54C451.88 175.59 447.61 175.65 446.82 172.66L440.66 148.4C437.49 136.09 430.97 124.69 422.07 115.73C415.06 108.66 406.53 103.05 397.02 99.76L394.64 98.91L391.17 97.69C388.43 96.71 388.61 92.81 391.41 92.08H391.47C392.45 91.77 393.48 91.53 394.46 91.23C403.42 88.49 414.65 82.05 420.06 77.15C427.87 70.07 438.71 54.84 442.19 41.25L448.96 17.6C449.08 17.11 449.63 17.05 449.81 17.05C449.93 17.05 450.48 17.11 450.6 17.54L455.42 39.12L455.79 41.13C461.52 66.43 481.45 85.93 509.25 93.37C510.53 93.67 511.81 93.98 513.03 94.22C513.46 94.34 513.64 94.65 513.64 94.77C513.64 95.01 513.4 95.2 513.09 95.26L506.93 97.15C496.2 100.44 486.69 105.5 478.58 112.27C477.85 112.88 476.39 114.83 475.96 115.2L475.95 115.18ZM566.59 188.94C560.01 191.2 553.97 194.91 549.1 199.67C546.36 202.41 543.98 205.34 542.15 208.51C541.54 209.49 540.26 216.62 539.65 219.42L536.72 234.42C536.35 236.31 533.67 236.31 533.18 234.48L529.34 219.42C527.45 211.8 523.37 204.79 517.88 199.24C513.49 194.85 508.25 191.38 502.34 189.3L500.88 188.75L498.75 188.02C497.04 187.41 497.17 184.97 498.87 184.55H498.93C499.54 184.37 500.15 184.18 500.76 184C507.77 181.87 516.98 175.85 521.06 171.5C524.5 167.83 529.72 158.82 530.87 153.94L534.04 141.32L536.54 153.82C539.83 170.46 551.6 183.32 567.87 188.14C568.05 188.2 568.24 188.26 568.48 188.38L566.59 188.93V188.94Z" fill="#EE4A00"/>
<path d="M379.76 347.251C380.49 357.061 374.94 367.491 364.89 375.171C359.83 378.951 353.49 380.471 346.66 380.471C335.99 380.471 324.35 376.751 315.27 372.241C290.52 359.801 272.66 347.251 244.13 312.871C233.83 300.371 227.92 285.991 226.94 271.241C225.66 251.121 243.64 234.911 251.02 231.861C268.27 224.551 274.55 238.931 279.61 250.511L281.07 253.861C284.61 261.541 289.18 271.601 286.62 280.011C285.52 283.731 282.96 285.921 280.71 287.871C278.21 290.001 276.87 291.281 276.87 293.661C276.87 302.501 284.61 311.031 290.89 317.921L292.84 320.111C297.11 324.861 317.77 337.121 328.44 337.121C329.84 337.121 331.49 334.501 333.07 331.941C335.32 328.341 337.82 324.261 342.33 322.861C351.29 319.991 358.36 323.771 365.19 327.431L366.04 327.921C374.27 332.371 379.15 339.261 379.76 347.241V347.251Z" fill="#EE4A00"/>
</svg>
