<svg width="580" height="350" viewBox="0 0 580 350" fill="none" xmlns="http://www.w3.org/2000/svg">
<path d="M254.301 292.13L231.191 334.71H323.641L299.311 292.13H254.301Z" fill="#06296B"/>
<path d="M409.4 269.02V278.45C409.4 289.53 400.41 298.22 389.33 298.22H165.5C154.41 298.22 145.43 289.53 145.43 278.45V269.02H409.4Z" fill="#05183C"/>
<path d="M389.33 300.65H165.5C152.88 300.65 142.99 290.9 142.99 278.45V269.02C142.99 267.68 144.08 266.59 145.42 266.59H409.4C410.74 266.59 411.83 267.68 411.83 269.02V278.45C411.83 290.69 401.73 300.65 389.32 300.65H389.33ZM147.86 271.45V278.44C147.86 288.16 155.61 295.78 165.5 295.78H389.34C399.23 295.78 406.98 288.17 406.98 278.44V271.45H147.86Z" fill="white"/>
<path d="M352.251 333.49H202.581C200.913 333.49 199.561 334.842 199.561 336.51V346.28C199.561 347.948 200.913 349.3 202.581 349.3H352.251C353.918 349.3 355.271 347.948 355.271 346.28V336.51C355.271 334.842 353.918 333.49 352.251 333.49Z" fill="#1A3C7D"/>
<path d="M290.09 335.67H289.47C287.87 335.67 286.27 335.67 284.69 335.65C282.33 335.64 279.96 335.61 277.6 335.57C216.2 334.56 158.75 326.32 111.47 311.74C109.05 311 106.65 310.23 104.29 309.45C97.6605 307.25 91.3405 304.96 85.5105 302.64C78.2605 299.76 71.3205 296.67 64.9005 293.45C28.2105 275.02 8.89047 252.81 9.00047 229.22C9.16047 195 50.5205 163.9 122.48 143.9C123.11 143.72 123.76 143.55 124.41 143.38C125 143.21 125.65 143.04 126.3 142.87C134.59 140.64 143.28 138.57 152.1 136.72C159.03 135.26 166.35 133.87 173.86 132.6C180.5 131.48 187.17 130.46 193.7 129.58C194.06 129.53 194.43 129.47 194.8 129.43C197.93 129 201.24 128.58 204.52 128.2C206.54 127.96 208.59 127.72 210.64 127.5C216.92 126.81 223.3 126.2 229.59 125.69C230.27 125.64 230.94 125.58 231.62 125.53L234.3 125.33C235.39 125.24 236.51 125.16 237.62 125.09C242.81 124.72 248.25 124.4 253.78 124.14C254.45 124.1 255.14 124.07 255.84 124.04L257.97 123.95C260.51 123.84 263.07 123.75 265.64 123.67L269.83 123.55C276.69 123.38 283.61 123.31 290.46 123.29C308.48 123.3 326.58 123.96 344.24 125.25C354.45 125.99 364.6 126.96 374.41 128.12C392.06 130.19 409.25 132.94 425.51 136.29L427.64 136.73C428.26 136.86 428.88 136.99 429.5 137.13C436.02 138.52 442.51 140.05 448.78 141.66C449.3 141.79 449.83 141.93 450.36 142.07L452.73 142.69C528.02 162.74 571.1 194.46 570.94 229.72C570.94 230.2 570.94 230.71 570.91 231.21C570.65 237.72 568.87 244.21 565.62 250.49C553.98 273.1 523.9 293.17 478.62 308.53C476.29 309.32 473.91 310.1 471.5 310.87C420.99 326.87 356.6 335.68 290.11 335.68L290.09 335.67ZM258.1 131.23L256.14 131.32C255.46 131.35 254.8 131.38 254.14 131.41C248.64 131.67 243.26 131.99 238.11 132.36C237.01 132.43 235.92 132.51 234.85 132.6L232.21 132.8C231.53 132.86 230.84 132.91 230.16 132.97C223.96 133.47 217.65 134.08 211.43 134.76C209.4 134.98 207.38 135.21 205.38 135.45C202.14 135.83 198.88 136.24 195.68 136.68C195.3 136.72 195.03 136.76 194.76 136.8C188.23 137.68 181.64 138.68 175.08 139.79C167.67 141.05 160.44 142.42 153.61 143.86C144.92 145.69 136.36 147.73 128.19 149.92C127.56 150.09 126.95 150.25 126.34 150.42C125.67 150.6 125.06 150.76 124.45 150.93C56.8605 169.72 16.4405 199 16.3005 229.26C16.2005 249.89 34.1405 269.83 68.1705 286.93C74.4105 290.06 81.1505 293.06 88.2105 295.87C93.9105 298.14 100.09 300.38 106.58 302.53C108.89 303.29 111.24 304.04 113.62 304.77C160.25 319.15 217 327.28 277.72 328.27C280.05 328.31 282.4 328.33 284.75 328.35C286.33 328.37 287.91 328.37 289.48 328.37H290.1C355.86 328.37 419.47 319.69 469.27 303.91C471.64 303.16 473.96 302.4 476.25 301.62C519.08 287.09 548.51 267.74 559.11 247.14C561.86 241.81 563.37 236.35 563.59 230.9C563.61 230.5 563.61 230.11 563.61 229.71C563.76 198.47 521.59 168.58 450.82 149.74L448.47 149.12C447.96 148.99 447.46 148.85 446.95 148.73C440.76 147.14 434.37 145.64 427.92 144.26C427.3 144.12 426.7 144 426.11 143.87L424 143.43C407.96 140.12 390.98 137.4 373.53 135.36C363.82 134.21 353.78 133.25 343.68 132.52C326.19 131.24 308.27 130.59 290.43 130.58C283.69 130.58 276.79 130.66 269.98 130.84L265.86 130.96C263.29 131.04 260.73 131.13 258.19 131.24H258.1V131.23Z" fill="white"/>
<path d="M63.35 313.29L61.42 324.56C61.15 325.97 59.16 326.06 58.77 324.67L55.64 313.47C54.06 307.8 50.9 302.59 46.68 298.54C43.34 295.33 39.32 292.83 34.89 291.38L33.78 291.02L32.15 290.49C30.87 290.07 30.91 288.25 32.2 287.89H32.22C32.69 287.75 33.15 287.61 33.6 287.46C44.21 283.9 52.08 274.51 54.41 263.49L54.61 262.65L57 252.47C57.3 251.04 59.33 251.03 59.66 252.45L61.93 262.42L62.13 263.31C64.74 274.73 73.33 283.22 84.54 286.2C85.06 286.34 85.58 286.46 86.11 286.58C86.8 286.73 87.17 287.3 87.18 287.88C87.19 288.42 86.9 288.96 86.28 289.19L84.54 289.82L83.68 290.13C79.06 291.81 74.96 294.39 71.64 297.7C67.45 301.87 64.51 307.2 63.34 313.29H63.35Z" fill="white"/>
<path d="M60.0702 326.44C59.1002 326.44 58.2902 325.82 58.0202 324.88L54.8902 313.68C53.3502 308.16 50.3202 303.12 46.1402 299.1C42.8102 295.9 38.8402 293.49 34.6402 292.12L31.9002 291.23C30.9902 290.93 30.4102 290.12 30.4302 289.16C30.4502 288.2 31.0602 287.41 31.9802 287.15C32.4602 287.02 32.9102 286.88 33.3502 286.73C43.5502 283.31 51.3302 274.34 53.6502 263.33L56.2402 252.29C56.4502 251.3 57.2802 250.62 58.3002 250.62H58.3202C59.3402 250.62 60.1702 251.28 60.3902 252.28L62.8602 263.14C65.3802 274.14 73.5502 282.49 84.7202 285.46C85.2302 285.6 85.7402 285.72 86.2502 285.83C87.2302 286.04 87.9002 286.86 87.9302 287.87C87.9502 288.8 87.4002 289.6 86.5302 289.92L83.9302 290.86C79.4002 292.51 75.4402 295 72.1702 298.25C67.9902 302.42 65.1902 307.67 64.0902 313.44L62.1602 324.71C61.9702 325.72 61.1602 326.41 60.1502 326.45C60.1202 326.45 60.0902 326.45 60.0502 326.45L60.0702 326.44ZM58.3302 252.15C58.1802 252.1 57.8402 252.18 57.7502 252.62L55.1602 263.66C52.7302 275.19 44.5602 284.59 33.8502 288.18C33.3802 288.34 32.9102 288.48 32.4302 288.62C32.0202 288.74 31.9802 289.08 31.9802 289.18C31.9802 289.28 32.0002 289.63 32.3902 289.75L35.1302 290.64C39.5402 292.08 43.7202 294.62 47.2202 297.98C51.6002 302.19 54.7702 307.47 56.3902 313.26L59.5202 324.45C59.6402 324.87 60.0002 324.9 60.1202 324.88C60.2302 324.88 60.5902 324.83 60.6802 324.4L62.6102 313.13C63.7702 307.06 66.7202 301.52 71.1202 297.14C74.5502 293.72 78.6902 291.11 83.4402 289.39L86.0402 288.45C86.4002 288.32 86.4302 288.01 86.4302 287.88C86.4302 287.77 86.3902 287.4 85.9602 287.31C85.4202 287.19 84.8802 287.07 84.3502 286.92C72.6202 283.79 64.0302 275.02 61.3902 263.45L58.9202 252.59C58.8202 252.17 58.4602 252.13 58.3502 252.13L58.3302 252.15Z" fill="#E4DEDE"/>
<path d="M477.952 320.01C486.015 320.01 492.552 313.473 492.552 305.41C492.552 297.346 486.015 290.81 477.952 290.81C469.888 290.81 463.352 297.346 463.352 305.41C463.352 313.473 469.888 320.01 477.952 320.01Z" fill="white"/>
<path d="M477.951 321.23C469.301 321.23 462.221 314.23 462.141 305.56C462.061 296.84 469.081 289.68 477.801 289.6C477.851 289.6 477.901 289.6 477.951 289.6C486.601 289.6 493.681 296.6 493.761 305.26C493.841 313.98 486.821 321.14 478.101 321.22C478.051 321.22 478.001 321.22 477.951 321.22V321.23ZM477.951 292.03C477.951 292.03 477.861 292.03 477.821 292.03C470.441 292.1 464.501 298.16 464.571 305.54C464.641 312.88 470.631 318.8 477.951 318.8C477.991 318.8 478.031 318.8 478.081 318.8C485.461 318.73 491.411 312.67 491.341 305.29C491.271 297.95 485.281 292.03 477.961 292.03H477.951Z" fill="#E4DEDE"/>
<path d="M409.4 141.89V269.01H145.42V141.89C145.42 130.81 154.4 121.82 165.49 121.82H389.32C400.4 121.82 409.39 130.81 409.39 141.89H409.4Z" fill="#1A3C7D"/>
<path d="M409.4 271.45H145.42C144.08 271.45 142.99 270.36 142.99 269.02V141.89C142.99 129.48 153.09 119.38 165.5 119.38H389.34C401.75 119.38 411.85 129.48 411.85 141.89V269.01C411.85 270.35 410.76 271.44 409.42 271.44L409.4 271.45ZM147.85 266.58H406.97V141.89C406.97 132.16 399.06 124.25 389.33 124.25H165.5C155.77 124.25 147.86 132.16 147.86 141.89V266.58H147.85Z" fill="white"/>
<path d="M169.91 177.221V243.221C169.91 245.131 171.46 246.681 173.37 246.681H277.14C279.05 246.681 280.6 245.131 280.6 243.221V180.691C280.6 178.781 279.05 177.231 277.14 177.231H169.9L169.91 177.221Z" fill="#FF9460"/>
<path d="M277.15 249.11H173.38C170.13 249.11 167.48 246.47 167.48 243.21V177.21C167.48 175.87 168.57 174.78 169.91 174.78H277.15C280.4 174.78 283.05 177.43 283.05 180.68V243.21C283.05 246.46 280.4 249.11 277.15 249.11ZM172.35 179.65V243.21C172.35 243.78 172.81 244.24 173.38 244.24H277.15C277.72 244.24 278.18 243.78 278.18 243.21V180.68C278.18 180.11 277.72 179.65 277.15 179.65H172.35Z" fill="white"/>
<path d="M174.36 159.09H201.68C203.8 159.09 205.72 160.36 206.55 162.32L212.86 177.22H169.91L170.91 162.32C171.03 160.5 172.54 159.09 174.37 159.09H174.36Z" fill="#FF6D2A"/>
<path d="M212.861 179.65H169.911C169.241 179.65 168.591 179.37 168.131 178.88C167.671 178.39 167.431 177.73 167.481 177.06L168.481 162.16C168.691 159.08 171.271 156.66 174.361 156.66H201.681C204.791 156.66 207.581 158.51 208.791 161.37L215.101 176.27C215.421 177.02 215.341 177.88 214.891 178.56C214.441 179.24 213.681 179.65 212.861 179.65ZM172.511 174.78H209.191L204.311 163.26C203.861 162.2 202.831 161.52 201.681 161.52H174.361C173.821 161.52 173.371 161.94 173.331 162.48L172.501 174.78H172.511Z" fill="white"/>
<path d="M298.789 168.91C297.369 168.91 295.969 168.2 295.169 166.9L257.289 107.29L224.419 128.11C222.479 129.33 219.929 128.81 218.639 126.92L176.059 64.88C174.729 62.94 175.219 60.29 177.159 58.96C179.099 57.63 181.749 58.12 183.079 60.06L223.339 118.72L256.369 97.8C257.329 97.19 258.489 96.99 259.599 97.25C260.709 97.5 261.669 98.19 262.259 99.15L302.399 162.41C303.639 164.41 303.029 167.03 301.029 168.27C300.329 168.7 299.559 168.91 298.789 168.91Z" fill="#FF6D2A"/>
<path d="M175.54 72.7801L176.59 78.8801C176.74 79.6401 177.81 79.6901 178.02 78.9401L179.71 72.8901C180.57 69.8201 182.27 67.0101 184.56 64.8101C186.37 63.0701 188.54 61.7201 190.94 60.9401L191.54 60.7401L192.42 60.4501C193.11 60.2201 193.09 59.2401 192.39 59.0401H192.38C192.13 58.9701 191.88 58.8901 191.63 58.8101C185.89 56.8901 181.63 51.8001 180.38 45.8501L180.27 45.4001L178.98 39.8901C178.82 39.1201 177.72 39.1101 177.54 39.8801L176.31 45.2701L176.2 45.7501C174.79 51.9201 170.14 56.5201 164.08 58.1301C163.8 58.2101 163.52 58.2701 163.23 58.3301C162.86 58.4101 162.66 58.7201 162.65 59.0301C162.65 59.3201 162.8 59.6201 163.13 59.7401L164.07 60.0801L164.53 60.2501C167.03 61.1601 169.25 62.5601 171.04 64.3501C173.31 66.6101 174.9 69.4901 175.53 72.7801H175.54Z" fill="white"/>
<path d="M177.31 80.0902C177.31 80.0902 177.269 80.0902 177.249 80.0902C176.609 80.0602 176.109 79.6202 175.989 79.0002L174.939 72.9002C174.349 69.8202 172.86 67.0202 170.62 64.7902C168.87 63.0502 166.759 61.7202 164.329 60.8302L162.92 60.3202C162.37 60.1202 162.02 59.6102 162.03 59.0302C162.04 58.4002 162.47 57.8802 163.09 57.7502C163.36 57.6902 163.639 57.6302 163.909 57.5502C169.879 55.9602 174.249 51.5002 175.599 45.6202L176.939 39.7502C177.079 39.1202 177.609 38.7002 178.249 38.7002H178.26C178.91 38.7002 179.43 39.1302 179.56 39.7702L180.959 45.7202C182.209 51.6202 186.359 56.4202 191.819 58.2502C192.059 58.3302 192.299 58.4002 192.539 58.4702C193.129 58.6402 193.52 59.1402 193.53 59.7402C193.54 60.3402 193.169 60.8602 192.599 61.0402L191.12 61.5202C188.88 62.2502 186.76 63.5402 184.98 65.2502C182.74 67.4002 181.119 70.1002 180.299 73.0502L178.599 79.1102C178.429 79.7002 177.92 80.0902 177.31 80.0902ZM178.249 39.9102C178.149 39.9102 178.129 39.9802 178.129 40.0102L176.79 45.8802C175.34 52.2102 170.65 57.0102 164.23 58.7202C163.94 58.8002 163.649 58.8702 163.359 58.9302C163.329 58.9302 163.26 58.9502 163.26 59.0502C163.26 59.1402 163.32 59.1602 163.34 59.1702L164.749 59.6802C167.339 60.6202 169.61 62.0502 171.48 63.9202C173.89 66.3202 175.499 69.3502 176.139 72.6702L177.189 78.7802C177.189 78.8002 177.21 78.8702 177.31 78.8702C177.41 78.8802 177.429 78.8102 177.439 78.7802L179.139 72.7302C180.019 69.5702 181.749 66.6802 184.149 64.3802C186.059 62.5402 188.35 61.1602 190.76 60.3702L192.239 59.8902C192.239 59.8902 192.329 59.8602 192.329 59.7702C192.329 59.6702 192.259 59.6602 192.239 59.6502C191.969 59.5702 191.7 59.4902 191.45 59.4102C185.59 57.4502 181.129 52.3102 179.799 45.9902L178.399 40.0402C178.399 40.0402 178.329 39.9502 178.269 39.9302L178.249 39.9102Z" fill="#E4DEDE"/>
<path d="M298.68 174.73C303.209 174.73 306.88 171.059 306.88 166.53C306.88 162.001 303.209 158.33 298.68 158.33C294.152 158.33 290.48 162.001 290.48 166.53C290.48 171.059 294.152 174.73 298.68 174.73Z" fill="white"/>
<path d="M258.639 109.6C263.168 109.6 266.839 105.929 266.839 101.4C266.839 96.8715 263.168 93.2002 258.639 93.2002C254.111 93.2002 250.439 96.8715 250.439 101.4C250.439 105.929 254.111 109.6 258.639 109.6Z" fill="white"/>
<path d="M222.29 129.76C226.819 129.76 230.49 126.089 230.49 121.56C230.49 117.032 226.819 113.36 222.29 113.36C217.761 113.36 214.09 117.032 214.09 121.56C214.09 126.089 217.761 129.76 222.29 129.76Z" fill="white"/>
<path d="M446.66 118.621V218.971C446.66 221.371 444.73 223.321 442.36 223.321H349.32C346.94 223.321 345.02 221.371 345.02 218.971V92.2807C345.02 89.8807 346.95 87.9307 349.32 87.9307H416.35L446.66 118.621Z" fill="#EE4A00"/>
<path d="M442.36 225.75H349.32C345.61 225.75 342.59 222.71 342.59 218.96V92.2802C342.59 88.5402 345.61 85.4902 349.32 85.4902H416.35C417 85.4902 417.62 85.7502 418.08 86.2102L448.39 116.9C448.84 117.36 449.09 117.97 449.09 118.61V218.95C449.09 222.69 446.07 225.74 442.36 225.74V225.75ZM349.32 90.3602C348.29 90.3602 347.45 91.2202 347.45 92.2802V218.96C347.45 220.02 348.29 220.88 349.32 220.88H442.36C443.39 220.88 444.23 220.02 444.23 218.96V119.62L415.33 90.3702H349.32V90.3602Z" fill="white"/>
<path d="M416.35 114.26V87.9297L446.66 118.62H420.65C418.27 118.62 416.35 116.67 416.35 114.27V114.26Z" fill="#EE4A00"/>
<path d="M446.66 121.05H420.65C416.94 121.05 413.92 118.01 413.92 114.26V87.9301C413.92 86.9401 414.52 86.0501 415.43 85.6801C416.34 85.3101 417.39 85.5201 418.09 86.2201L448.4 116.91C449.09 117.61 449.29 118.65 448.91 119.56C448.53 120.47 447.65 121.06 446.66 121.06V121.05ZM418.78 93.8501V114.26C418.78 115.32 419.62 116.18 420.65 116.18H440.84L418.78 93.8501Z" fill="white"/>
<path d="M422.22 141.981V242.331C422.22 244.731 420.29 246.681 417.92 246.681H324.88C322.5 246.681 320.58 244.731 320.58 242.331V115.651C320.58 113.251 322.51 111.301 324.88 111.301H391.91L422.22 141.991V141.981Z" fill="#FF6D2A"/>
<path d="M417.92 249.11H324.88C321.17 249.11 318.15 246.07 318.15 242.32V115.65C318.15 111.91 321.17 108.86 324.88 108.86H391.91C392.56 108.86 393.18 109.12 393.64 109.58L423.95 140.27C424.4 140.73 424.65 141.34 424.65 141.98V242.32C424.65 246.06 421.63 249.11 417.92 249.11ZM324.88 113.72C323.85 113.72 323.01 114.58 323.01 115.64V242.32C323.01 243.38 323.85 244.24 324.88 244.24H417.92C418.95 244.24 419.79 243.38 419.79 242.32V142.98L390.89 113.73H324.88V113.72Z" fill="white"/>
<path d="M391.91 137.63V111.3L422.22 141.99H396.21C393.83 141.99 391.91 140.04 391.91 137.64V137.63Z" fill="#EE4A00"/>
<path d="M422.22 144.42H396.21C392.5 144.42 389.48 141.38 389.48 137.63V111.3C389.48 110.31 390.08 109.42 390.99 109.05C391.9 108.68 392.95 108.89 393.65 109.59L423.96 140.28C424.65 140.98 424.85 142.02 424.47 142.93C424.09 143.84 423.21 144.43 422.22 144.43V144.42ZM394.34 117.22V137.63C394.34 138.69 395.18 139.55 396.21 139.55H416.4L394.34 117.22Z" fill="white"/>
<path d="M405.34 168.02H337.45C336.11 168.02 335.02 166.93 335.02 165.59C335.02 164.25 336.11 163.16 337.45 163.16H405.34C406.68 163.16 407.77 164.25 407.77 165.59C407.77 166.93 406.68 168.02 405.34 168.02Z" fill="white"/>
<path d="M405.34 183.14H337.45C336.11 183.14 335.02 182.05 335.02 180.71C335.02 179.37 336.11 178.28 337.45 178.28H405.34C406.68 178.28 407.77 179.37 407.77 180.71C407.77 182.05 406.68 183.14 405.34 183.14Z" fill="white"/>
<path d="M405.34 198.26H337.45C336.11 198.26 335.02 197.17 335.02 195.83C335.02 194.49 336.11 193.4 337.45 193.4H405.34C406.68 193.4 407.77 194.49 407.77 195.83C407.77 197.17 406.68 198.26 405.34 198.26Z" fill="white"/>
<path d="M405.34 213.381H337.45C336.11 213.381 335.02 212.291 335.02 210.951C335.02 209.611 336.11 208.521 337.45 208.521H405.34C406.68 208.521 407.77 209.611 407.77 210.951C407.77 212.291 406.68 213.381 405.34 213.381Z" fill="white"/>
</svg>
