<svg width="580" height="350" viewBox="0 0 580 350" fill="none" xmlns="http://www.w3.org/2000/svg">
<path d="M266.931 290.81L243.811 333.4H336.291L311.951 290.81H266.931Z" fill="#06296B"/>
<path d="M290.201 333.03H289.571C287.971 333.03 286.371 333.03 284.781 333.01C282.421 333 280.041 332.97 277.691 332.93C216.261 331.92 158.801 323.68 111.511 309.09C109.091 308.35 106.691 307.58 104.331 306.8C97.6706 304.6 91.3606 302.31 85.5406 299.99C78.3006 297.12 71.3606 294.02 64.9206 290.79C28.2206 272.36 8.88056 250.15 9.00056 226.55C9.16056 192.32 50.5306 161.21 122.521 141.2C123.151 141.02 123.801 140.85 124.451 140.67C125.041 140.5 125.681 140.33 126.341 140.16C134.641 137.93 143.321 135.86 152.151 134.01C159.071 132.55 166.391 131.16 173.921 129.88C180.571 128.75 187.241 127.74 193.761 126.86C194.091 126.81 194.481 126.75 194.861 126.71C197.991 126.28 201.301 125.86 204.581 125.48C206.601 125.24 208.651 125 210.701 124.78C216.991 124.09 223.371 123.48 229.661 122.97C230.351 122.92 231.021 122.86 231.701 122.8L234.361 122.6C235.451 122.51 236.571 122.43 237.681 122.36C242.871 121.99 248.311 121.67 253.841 121.41C254.511 121.37 255.201 121.34 255.901 121.31L258.031 121.22C260.571 121.11 263.131 121.02 265.701 120.94L269.891 120.82C276.761 120.65 283.671 120.56 290.531 120.56C308.561 120.57 326.661 121.23 344.331 122.52C354.531 123.26 364.681 124.23 374.511 125.39C392.171 127.46 409.361 130.21 425.621 133.57L427.601 133.99C428.271 134.13 428.931 134.27 429.601 134.42C436.131 135.82 442.621 137.34 448.891 138.95C449.371 139.07 449.861 139.2 450.361 139.33L452.841 139.98C528.151 160.04 571.251 191.77 571.081 227.04C571.081 227.52 571.081 228.03 571.051 228.53C570.781 235.04 569.011 241.53 565.761 247.81C554.121 270.43 524.021 290.51 478.731 305.88C476.401 306.67 474.021 307.45 471.601 308.22C421.081 324.23 356.671 333.03 290.171 333.03H290.201ZM258.181 128.52L256.221 128.61C255.541 128.64 254.881 128.67 254.221 128.7C248.721 128.96 243.341 129.28 238.181 129.65C237.081 129.72 235.991 129.8 234.921 129.89L232.281 130.09C231.621 130.15 230.921 130.2 230.231 130.26C224.031 130.76 217.721 131.37 211.491 132.05C209.461 132.27 207.441 132.5 205.441 132.74C202.191 133.12 198.931 133.53 195.741 133.97C195.351 134.01 195.071 134.06 194.791 134.1C188.301 134.98 181.711 135.98 175.141 137.09C167.711 138.35 160.481 139.72 153.661 141.16C144.961 142.99 136.411 145.03 128.231 147.22C127.601 147.39 126.991 147.55 126.381 147.72C125.711 147.9 125.101 148.06 124.491 148.23C56.8706 167.03 16.4406 196.32 16.3006 226.58C16.2006 247.22 34.1406 267.16 68.1906 284.27C74.4406 287.4 81.1806 290.41 88.2406 293.21C93.9206 295.48 100.101 297.72 106.611 299.87C108.911 300.63 111.271 301.38 113.651 302.11C160.301 316.5 217.061 324.63 277.801 325.62C280.131 325.66 282.481 325.68 284.841 325.7C286.421 325.72 288.001 325.72 289.571 325.72H290.201C355.971 325.72 419.591 317.04 469.421 301.25C471.791 300.5 474.121 299.73 476.411 298.96C519.261 284.42 548.691 265.07 559.301 244.46C562.051 239.13 563.561 233.67 563.781 228.22C563.801 227.82 563.801 227.42 563.801 227.03C563.951 195.78 521.771 165.88 450.981 147.03L448.521 146.38C448.051 146.26 447.581 146.13 447.111 146.01C440.921 144.42 434.521 142.92 428.071 141.54C427.411 141.39 426.761 141.26 426.121 141.12L424.141 140.71C408.101 137.4 391.111 134.68 373.661 132.64C363.931 131.49 353.891 130.53 343.801 129.8C326.301 128.52 308.381 127.87 290.531 127.86C283.791 127.86 276.881 127.94 270.071 128.12L265.951 128.24C263.371 128.32 260.821 128.41 258.281 128.52H258.191H258.181Z" fill="white"/>
<path d="M539.171 204.769L537.241 216.049C536.971 217.459 534.981 217.549 534.591 216.159L531.461 204.959C529.881 199.279 526.721 194.079 522.501 190.019C519.161 186.809 515.141 184.309 510.711 182.859L509.601 182.499L507.961 181.969C506.681 181.549 506.721 179.729 508.011 179.359H508.031C508.501 179.219 508.961 179.079 509.411 178.929C520.021 175.369 527.901 165.969 530.231 154.949L530.431 154.109L532.821 143.919C533.121 142.489 535.151 142.469 535.481 143.899L537.751 153.869L537.951 154.759C540.561 166.179 549.161 174.669 560.371 177.659C560.891 177.799 561.411 177.919 561.941 178.039C562.631 178.189 563.001 178.759 563.011 179.339C563.021 179.879 562.731 180.429 562.111 180.649L560.371 181.279L559.511 181.589C554.891 183.269 550.791 185.859 547.471 189.169C543.281 193.349 540.341 198.669 539.171 204.769Z" fill="white"/>
<path d="M535.891 217.919C534.921 217.919 534.11 217.299 533.84 216.359L530.71 205.159C529.17 199.639 526.14 194.589 521.96 190.569C518.63 187.369 514.66 184.949 510.46 183.589L507.721 182.689C506.811 182.389 506.231 181.579 506.251 180.619C506.271 179.659 506.88 178.869 507.8 178.609C508.28 178.479 508.73 178.339 509.17 178.189C519.37 174.769 527.15 165.799 529.48 154.779L532.071 143.739C532.281 142.749 533.111 142.069 534.131 142.069H534.15C535.17 142.069 536 142.729 536.22 143.729L538.691 154.589C541.211 165.589 549.38 173.939 560.56 176.919C561.07 177.059 561.58 177.179 562.09 177.289C563.07 177.499 563.75 178.319 563.77 179.329C563.79 180.259 563.24 181.069 562.37 181.379L559.77 182.319C555.23 183.969 551.281 186.459 548.011 189.719C543.831 193.889 541.03 199.139 539.92 204.909L537.99 216.179C537.8 217.189 536.99 217.879 535.98 217.919C535.95 217.919 535.911 217.919 535.881 217.919H535.891ZM534.15 143.599C534.02 143.589 533.671 143.629 533.571 144.069L530.98 155.109C528.55 166.639 520.37 176.049 509.66 179.639C509.19 179.799 508.72 179.949 508.24 180.079C507.83 180.199 507.79 180.539 507.79 180.639C507.79 180.739 507.81 181.089 508.2 181.209L510.95 182.109C515.36 183.549 519.54 186.089 523.04 189.449C527.43 193.659 530.6 198.949 532.21 204.739L535.34 215.939C535.46 216.359 535.831 216.389 535.941 216.369C536.051 216.369 536.41 216.319 536.49 215.889L538.42 204.609C539.58 198.529 542.53 192.999 546.93 188.609C550.36 185.189 554.5 182.579 559.25 180.859L561.85 179.919C562.21 179.789 562.24 179.479 562.24 179.359C562.24 179.279 562.21 178.879 561.78 178.789C561.24 178.669 560.7 178.549 560.17 178.399C548.43 175.269 539.841 166.499 537.201 154.929L534.73 144.069C534.63 143.649 534.27 143.609 534.16 143.609L534.15 143.599Z" fill="#E4DEDE"/>
<path d="M106.27 317.899C114.333 317.899 120.87 311.363 120.87 303.299C120.87 295.236 114.333 288.699 106.27 288.699C98.2066 288.699 91.6699 295.236 91.6699 303.299C91.6699 311.363 98.2066 317.899 106.27 317.899Z" fill="white"/>
<path d="M106.27 319.12C97.6199 319.12 90.5399 312.12 90.4499 303.45C90.4099 299.22 92.0199 295.24 94.9799 292.22C97.9399 289.2 101.9 287.52 106.12 287.48C114.8 287.44 122.01 294.43 122.09 303.15C122.17 311.87 115.14 319.04 106.42 319.12C106.37 319.12 106.32 319.12 106.27 319.12ZM106.27 289.91C106.27 289.91 106.19 289.91 106.14 289.91C102.56 289.94 99.2199 291.37 96.7099 293.92C94.2099 296.47 92.8399 299.85 92.8799 303.42C92.9499 310.76 98.9399 316.68 106.26 316.68C106.3 316.68 106.35 316.68 106.39 316.68C113.77 316.61 119.72 310.55 119.65 303.17C119.58 295.83 113.59 289.91 106.26 289.91H106.27Z" fill="#E4DEDE"/>
<path d="M422.08 133.22V267.68H158.02V133.22C158.02 122.13 167 113.14 178.1 113.14H402.01C413.1 113.14 422.09 122.13 422.09 133.22H422.08Z" fill="#1A3C7D"/>
<path d="M422.08 270.12H158.02C156.68 270.12 155.59 269.03 155.59 267.69V133.22C155.59 120.81 165.69 110.71 178.1 110.71H402.01C414.42 110.71 424.52 120.81 424.52 133.22V267.69C424.52 269.03 423.43 270.12 422.09 270.12H422.08ZM160.45 265.25H419.65V133.22C419.65 123.49 411.73 115.57 402 115.57H178.1C168.37 115.57 160.45 123.49 160.45 133.22V265.25Z" fill="white"/>
<path d="M422.08 267.68V277.11C422.08 288.2 413.09 296.88 402 296.88H178.1C167 296.88 158.02 288.19 158.02 277.11V267.68H422.08Z" fill="#05183C"/>
<path d="M402 299.32H178.1C165.48 299.32 155.59 289.56 155.59 277.11V267.68C155.59 266.34 156.68 265.25 158.02 265.25H422.08C423.42 265.25 424.51 266.34 424.51 267.68V277.11C424.51 289.36 414.41 299.32 402 299.32ZM160.45 270.11V277.11C160.45 286.83 168.2 294.45 178.1 294.45H402.01C411.9 294.45 419.66 286.83 419.66 277.11V270.11H160.45Z" fill="white"/>
<path d="M364.91 332.18H215.19C213.522 332.18 212.17 333.532 212.17 335.2V344.98C212.17 346.648 213.522 348 215.19 348H364.91C366.578 348 367.93 346.648 367.93 344.98V335.2C367.93 333.532 366.578 332.18 364.91 332.18Z" fill="#1A3C7D"/>
<path d="M393.491 28.9797V261.9C393.491 264.89 391.061 267.32 388.071 267.32H192.031C189.041 267.32 186.611 264.89 186.611 261.9V29.2797C186.611 25.6597 189.551 22.7197 193.171 22.7197H387.221C390.681 22.7197 393.491 25.5297 393.491 28.9897V28.9797Z" fill="#FF9460"/>
<path d="M388.072 269.75H192.032C187.702 269.75 184.182 266.23 184.182 261.9V29.28C184.182 24.32 188.212 20.29 193.172 20.29H387.222C392.022 20.29 395.922 24.19 395.922 28.99V261.9C395.922 266.23 392.402 269.75 388.072 269.75ZM193.172 25.15C190.902 25.15 189.042 27 189.042 29.28V261.9C189.042 263.55 190.382 264.89 192.032 264.89H388.072C389.722 264.89 391.062 263.55 391.062 261.9V28.98C391.062 26.87 389.342 25.15 387.232 25.15H193.172Z" fill="white"/>
<path d="M203.863 42.8199C206.331 42.8199 208.333 40.8186 208.333 38.3499C208.333 35.8812 206.331 33.8799 203.863 33.8799C201.394 33.8799 199.393 35.8812 199.393 38.3499C199.393 40.8186 201.394 42.8199 203.863 42.8199Z" fill="#FF6D2A"/>
<path d="M217.902 42.8199C220.37 42.8199 222.372 40.8186 222.372 38.3499C222.372 35.8812 220.37 33.8799 217.902 33.8799C215.433 33.8799 213.432 35.8812 213.432 38.3499C213.432 40.8186 215.433 42.8199 217.902 42.8199Z" fill="#FF6D2A"/>
<path d="M231.933 42.8199C234.402 42.8199 236.403 40.8186 236.403 38.3499C236.403 35.8812 234.402 33.8799 231.933 33.8799C229.464 33.8799 227.463 35.8812 227.463 38.3499C227.463 40.8186 229.464 42.8199 231.933 42.8199Z" fill="#FF6D2A"/>
<path d="M246.452 42.8199C248.921 42.8199 250.922 40.8186 250.922 38.3499C250.922 35.8812 248.921 33.8799 246.452 33.8799C243.984 33.8799 241.982 35.8812 241.982 38.3499C241.982 40.8186 243.984 42.8199 246.452 42.8199Z" fill="#FF6D2A"/>
<path d="M360.271 42.8199C362.739 42.8199 364.741 40.8186 364.741 38.3499C364.741 35.8812 362.739 33.8799 360.271 33.8799C357.802 33.8799 355.801 35.8812 355.801 38.3499C355.801 40.8186 357.802 42.8199 360.271 42.8199Z" fill="#FF6D2A"/>
<path d="M374.31 42.8199C376.779 42.8199 378.78 40.8186 378.78 38.3499C378.78 35.8812 376.779 33.8799 374.31 33.8799C371.841 33.8799 369.84 35.8812 369.84 38.3499C369.84 40.8186 371.841 42.8199 374.31 42.8199Z" fill="#FF6D2A"/>
<path d="M342.782 22.7197H337.912V54.3597H342.782V22.7197Z" fill="white"/>
<path d="M392.672 52.7803H186.992V57.6503H392.672V52.7803Z" fill="white"/>
<path d="M253.732 159.585L221.442 159.45C218.151 159.436 215.471 162.093 215.457 165.385L215.347 191.695C215.333 194.986 217.991 197.666 221.282 197.679L253.572 197.815C256.864 197.828 259.543 195.171 259.557 191.88L259.667 165.57C259.681 162.278 257.024 159.599 253.732 159.585Z" fill="#EE4A00"/>
<path d="M364.753 164.57L267.293 164.16C266.283 164.16 265.473 163.34 265.473 162.33C265.473 161.32 266.293 160.51 267.303 160.51L364.763 160.92C365.773 160.92 366.583 161.74 366.583 162.75C366.583 163.76 365.763 164.57 364.753 164.57Z" fill="#FF6D2A"/>
<path d="M364.712 172.4L267.252 171.99C266.242 171.99 265.432 171.17 265.432 170.16C265.432 169.15 266.252 168.34 267.262 168.34L364.722 168.75C365.732 168.75 366.542 169.57 366.542 170.58C366.542 171.59 365.722 172.4 364.712 172.4Z" fill="#FF6D2A"/>
<path d="M364.682 180.23L267.222 179.82C266.212 179.82 265.402 179 265.402 177.99C265.402 176.98 266.222 176.17 267.232 176.17L364.692 176.58C365.702 176.58 366.512 177.4 366.512 178.41C366.512 179.42 365.692 180.23 364.682 180.23Z" fill="#FF6D2A"/>
<path d="M364.651 188.06L267.191 187.65C266.181 187.65 265.371 186.83 265.371 185.82C265.371 184.81 266.191 184 267.201 184L364.661 184.41C365.671 184.41 366.481 185.23 366.481 186.24C366.481 187.25 365.661 188.06 364.651 188.06Z" fill="#FF6D2A"/>
<path d="M364.612 196.76L267.152 196.35C266.142 196.35 265.332 195.53 265.332 194.52C265.332 193.51 266.152 192.7 267.162 192.7L364.622 193.11C365.632 193.11 366.442 193.93 366.442 194.94C366.442 195.95 365.622 196.76 364.612 196.76Z" fill="#FF6D2A"/>
<path d="M326.364 246.195L358.653 246.331C361.945 246.344 364.624 243.687 364.638 240.396L364.748 214.086C364.762 210.794 362.105 208.115 358.813 208.101L326.524 207.966C323.232 207.952 320.553 210.609 320.539 213.901L320.429 240.21C320.415 243.502 323.072 246.181 326.364 246.195Z" fill="#EE4A00"/>
<path d="M312.811 245.271L215.351 244.861C214.341 244.861 213.531 244.041 213.531 243.031C213.531 242.021 214.351 241.211 215.361 241.211L312.821 241.621C313.831 241.621 314.641 242.441 314.641 243.451C314.641 244.461 313.821 245.271 312.821 245.271H312.811Z" fill="#FF6D2A"/>
<path d="M312.85 237.441L215.39 237.031C214.38 237.031 213.57 236.211 213.57 235.201C213.57 234.191 214.39 233.381 215.4 233.381L312.86 233.791C313.87 233.791 314.68 234.611 314.68 235.621C314.68 236.631 313.86 237.441 312.86 237.441H312.85Z" fill="#FF6D2A"/>
<path d="M312.882 229.611L215.422 229.201C214.412 229.201 213.602 228.381 213.602 227.371C213.602 226.361 214.422 225.551 215.432 225.551L312.892 225.961C313.902 225.961 314.712 226.781 314.712 227.791C314.712 228.801 313.892 229.611 312.882 229.611Z" fill="#FF6D2A"/>
<path d="M312.911 221.781L215.451 221.371C214.441 221.371 213.631 220.551 213.631 219.541C213.631 218.531 214.451 217.721 215.461 217.721L312.921 218.131C313.931 218.131 314.741 218.951 314.741 219.961C314.741 220.971 313.921 221.781 312.911 221.781Z" fill="#FF6D2A"/>
<path d="M312.952 213.081L215.492 212.671C214.482 212.671 213.672 211.85 213.672 210.84C213.672 209.83 214.492 209.021 215.502 209.021L312.962 209.43C313.972 209.43 314.782 210.25 314.782 211.26C314.782 212.27 313.962 213.081 312.962 213.081H312.952Z" fill="#FF6D2A"/>
<path d="M359.245 89.5483L223.597 88.98C220.305 88.9663 217.626 91.6234 217.612 94.915L217.417 141.375C217.403 144.666 220.061 147.346 223.352 147.36L359.001 147.928C362.293 147.942 364.972 145.284 364.986 141.993L365.18 95.5332C365.194 92.2416 362.537 89.562 359.245 89.5483Z" fill="#EE4A00"/>
<path d="M267.212 124.371C267.212 126.011 266.522 127.331 265.152 128.331C263.782 129.331 261.632 129.831 258.712 129.831H245.792C245.152 129.831 244.682 129.681 244.382 129.381C244.082 129.081 243.922 128.681 243.922 128.171C243.922 127.371 244.282 126.781 244.992 126.401L245.512 126.121C245.762 125.991 245.962 125.831 246.122 125.641C246.282 125.451 246.362 125.141 246.362 124.721V112.171C246.362 111.751 246.282 111.441 246.122 111.251C245.962 111.061 245.762 110.901 245.512 110.771L244.992 110.491C244.272 110.111 243.922 109.521 243.922 108.721C243.922 108.211 244.072 107.811 244.382 107.511C244.692 107.211 245.152 107.061 245.792 107.061H255.872C257.932 107.061 259.712 107.341 261.212 107.901C262.712 108.461 263.872 109.251 264.692 110.261C265.512 111.271 265.922 112.481 265.922 113.871C265.922 114.941 265.602 115.901 264.972 116.741C264.342 117.581 263.402 118.241 262.172 118.721C260.932 119.201 259.422 119.441 257.642 119.441L258.222 118.641C260.022 118.641 261.592 118.881 262.942 119.351C264.292 119.831 265.342 120.491 266.092 121.351C266.842 122.211 267.222 123.201 267.222 124.341L267.212 124.371ZM256.132 120.861H251.212V118.261H255.042C255.892 118.261 256.592 118.121 257.152 117.831C257.712 117.541 258.142 117.111 258.432 116.521C258.722 115.941 258.862 115.201 258.862 114.311C258.862 113.421 258.692 112.691 258.362 112.071C258.032 111.451 257.542 110.981 256.882 110.661C256.222 110.341 255.402 110.171 254.422 110.171H253.902V124.131C253.902 125.011 254.122 125.671 254.572 126.101C255.012 126.541 255.652 126.761 256.472 126.761H257.042C257.612 126.761 258.112 126.661 258.522 126.451C258.932 126.241 259.252 125.941 259.472 125.541C259.692 125.141 259.802 124.651 259.802 124.061C259.802 123.071 259.472 122.291 258.812 121.721C258.152 121.151 257.262 120.861 256.132 120.861Z" fill="white"/>
<path d="M280.422 110.511L279.902 110.791C279.662 110.921 279.462 111.081 279.302 111.271C279.142 111.461 279.062 111.771 279.062 112.191V124.931C279.062 125.481 279.182 125.871 279.432 126.091C279.682 126.311 280.032 126.421 280.492 126.421H281.852C282.402 126.421 282.893 126.351 283.312 126.221C283.732 126.081 284.113 125.851 284.443 125.521C284.773 125.191 285.072 124.741 285.342 124.181L286.052 122.691C286.312 122.151 286.623 121.791 286.973 121.621C287.323 121.451 287.742 121.411 288.212 121.521C288.702 121.631 289.062 121.891 289.292 122.291C289.522 122.701 289.562 123.201 289.402 123.791L288.212 128.011C287.972 128.841 287.682 129.451 287.332 129.841C286.982 130.221 286.452 130.421 285.742 130.421C285.372 130.421 285.022 130.371 284.682 130.271C284.342 130.171 283.982 130.081 283.572 129.981C283.172 129.881 282.682 129.831 282.092 129.831H270.932C270.292 129.831 269.822 129.681 269.522 129.381C269.222 129.081 269.062 128.681 269.062 128.171C269.062 127.371 269.422 126.781 270.132 126.401L270.652 126.121C270.902 125.991 271.102 125.831 271.262 125.641C271.422 125.451 271.503 125.141 271.503 124.721V112.171C271.503 111.751 271.422 111.441 271.262 111.251C271.102 111.061 270.902 110.901 270.652 110.771L270.132 110.491C269.412 110.111 269.062 109.521 269.062 108.721C269.062 108.211 269.212 107.811 269.522 107.511C269.832 107.211 270.292 107.061 270.932 107.061H279.612C280.252 107.061 280.722 107.211 281.022 107.511C281.322 107.811 281.482 108.211 281.482 108.721C281.482 109.521 281.122 110.111 280.412 110.491L280.422 110.511Z" fill="white"/>
<path d="M303.032 106.431C304.882 106.431 306.552 106.721 308.042 107.321C309.532 107.911 310.802 108.741 311.852 109.801C312.902 110.861 313.712 112.111 314.272 113.551C314.832 114.991 315.112 116.561 315.112 118.261C315.112 119.961 314.832 121.671 314.272 123.161C313.712 124.651 312.912 125.941 311.862 127.041C310.812 128.131 309.542 128.981 308.052 129.581C306.562 130.181 304.882 130.481 303.022 130.481C301.162 130.481 299.432 130.191 297.932 129.601C296.432 129.011 295.162 128.181 294.122 127.101C293.072 126.021 292.282 124.731 291.732 123.241C291.182 121.751 290.912 120.101 290.912 118.291C290.912 116.661 291.182 115.141 291.722 113.711C292.262 112.281 293.052 111.021 294.092 109.931C295.132 108.841 296.402 107.981 297.902 107.361C299.402 106.741 301.102 106.431 303.012 106.431H303.032ZM307.372 122.681C307.372 121.381 307.252 120.101 307.022 118.841C306.792 117.581 306.472 116.401 306.062 115.301C305.652 114.201 305.192 113.221 304.672 112.381C304.152 111.541 303.602 110.881 303.012 110.401C302.432 109.921 301.852 109.681 301.272 109.681C300.692 109.681 300.222 109.851 299.852 110.191C299.482 110.531 299.202 111.041 299.022 111.721C298.842 112.401 298.752 113.231 298.752 114.231C298.752 115.561 298.872 116.861 299.122 118.131C299.362 119.401 299.702 120.581 300.122 121.671C300.542 122.761 301.022 123.721 301.542 124.551C302.072 125.371 302.612 126.021 303.182 126.481C303.752 126.941 304.302 127.181 304.832 127.181C305.362 127.181 305.822 127.031 306.202 126.731C306.582 126.431 306.872 125.951 307.072 125.291C307.272 124.631 307.372 123.761 307.372 122.671V122.681Z" fill="white"/>
<path d="M338.913 128.73C338.913 129.33 338.773 129.77 338.503 130.06C338.223 130.35 337.803 130.49 337.223 130.49C336.873 130.49 336.573 130.41 336.313 130.25C336.053 130.09 335.813 129.9 335.603 129.7C335.393 129.5 335.183 129.31 334.973 129.15C334.763 128.99 334.543 128.91 334.293 128.91C334.043 128.91 333.733 128.99 333.383 129.15C333.033 129.31 332.633 129.49 332.163 129.7C331.693 129.91 331.153 130.1 330.533 130.25C329.913 130.4 329.203 130.49 328.403 130.49C326.613 130.49 325.023 130.21 323.613 129.65C322.213 129.09 321.023 128.28 320.043 127.23C319.063 126.18 318.323 124.92 317.813 123.44C317.303 121.97 317.053 120.31 317.053 118.48C317.053 116.78 317.363 115.2 317.973 113.74C318.583 112.28 319.443 111.01 320.533 109.91C321.623 108.81 322.903 107.96 324.353 107.36C325.803 106.75 327.373 106.45 329.053 106.45C330.163 106.45 331.053 106.53 331.753 106.69C332.443 106.85 333.013 107.01 333.463 107.18C333.903 107.34 334.303 107.42 334.653 107.42C334.953 107.42 335.223 107.34 335.443 107.19C335.663 107.04 335.883 106.89 336.093 106.73C336.303 106.58 336.543 106.5 336.803 106.5C337.263 106.5 337.573 106.62 337.753 106.87C337.933 107.12 338.103 107.53 338.263 108.1L339.753 113.27C339.893 113.76 339.823 114.17 339.553 114.51C339.273 114.85 338.893 115.06 338.393 115.14C337.983 115.21 337.593 115.16 337.233 114.99C336.873 114.83 336.563 114.49 336.293 113.97C335.733 112.83 335.113 111.94 334.443 111.3C333.773 110.66 333.073 110.21 332.343 109.96C331.613 109.71 330.883 109.58 330.133 109.58C329.003 109.58 328.033 109.89 327.203 110.52C326.373 111.15 325.743 112.05 325.293 113.23C324.843 114.41 324.623 115.84 324.623 117.5C324.623 119.4 324.903 121.01 325.463 122.35C326.023 123.69 326.773 124.71 327.693 125.43C328.613 126.15 329.613 126.5 330.683 126.5C330.973 126.5 331.223 126.47 331.423 126.42C331.623 126.37 331.783 126.29 331.903 126.18C332.023 126.08 332.113 125.94 332.163 125.78C332.213 125.62 332.243 125.43 332.243 125.23V122.65C332.243 122.34 332.173 122.11 332.033 121.98C331.893 121.85 331.683 121.72 331.403 121.59L330.883 121.35C330.473 121.16 330.133 120.94 329.873 120.69C329.613 120.44 329.483 120.11 329.483 119.69C329.483 119.2 329.633 118.82 329.943 118.54C330.253 118.26 330.713 118.12 331.353 118.12H339.233C339.883 118.12 340.353 118.26 340.653 118.54C340.953 118.82 341.103 119.2 341.103 119.68C341.103 120.07 341.013 120.39 340.833 120.64C340.653 120.89 340.393 121.1 340.043 121.27L339.753 121.42C339.523 121.53 339.323 121.67 339.163 121.83C338.993 122 338.913 122.27 338.913 122.65V128.71V128.73Z" fill="white"/>
</svg>
