<svg width="580" height="350" viewBox="0 0 580 350" fill="none" xmlns="http://www.w3.org/2000/svg">
<path d="M267.101 291.77L243.971 334.39H336.511L312.161 291.77H267.101Z" fill="#06296B"/>
<path d="M290.37 333.61H289.75C288.15 333.61 286.55 333.61 284.96 333.59C282.6 333.58 280.22 333.55 277.87 333.51C216.41 332.5 158.91 324.25 111.58 309.66C109.15 308.91 106.75 308.15 104.39 307.37C97.7505 305.17 91.4305 302.88 85.5905 300.55C78.3305 297.67 71.3805 294.57 64.9505 291.34C28.2305 272.91 8.89047 250.68 9.00047 227.06C9.16047 192.81 50.5605 161.68 122.59 141.65C123.22 141.47 123.87 141.3 124.52 141.12C125.11 140.95 125.76 140.78 126.41 140.61C134.71 138.38 143.4 136.31 152.23 134.45C159.15 132.99 166.48 131.6 174.01 130.32C180.66 129.19 187.34 128.18 193.86 127.3C194.19 127.25 194.57 127.19 194.95 127.15C198.09 126.72 201.4 126.3 204.68 125.91C206.71 125.67 208.75 125.43 210.81 125.21C217.11 124.52 223.49 123.91 229.78 123.4C230.46 123.35 231.14 123.29 231.81 123.24L234.48 123.04C235.58 122.95 236.7 122.87 237.82 122.8C243.04 122.43 248.49 122.11 253.99 121.85C254.66 121.81 255.35 121.78 256.05 121.75L258.18 121.66C260.73 121.55 263.28 121.46 265.86 121.38L270.05 121.26C276.94 121.09 283.9 121 290.7 121C308.74 121.01 326.85 121.67 344.54 122.96C354.74 123.71 364.91 124.67 374.74 125.84C392.41 127.91 409.62 130.66 425.89 134.02L427.87 134.44C428.54 134.58 429.21 134.72 429.88 134.87C436.41 136.27 442.91 137.79 449.18 139.4C449.67 139.52 450.17 139.65 450.67 139.79L453.14 140.44C528.5 160.51 571.63 192.26 571.46 227.56C571.46 228.04 571.46 228.55 571.43 229.05C571.16 235.57 569.381 242.06 566.141 248.35C554.491 270.98 524.38 291.07 479.05 306.45C476.71 307.24 474.34 308.03 471.92 308.79C421.37 324.81 356.91 333.62 290.36 333.62L290.37 333.61ZM258.34 128.97L256.38 129.06C255.7 129.09 255.04 129.12 254.38 129.15C248.9 129.41 243.51 129.73 238.33 130.1C237.23 130.17 236.14 130.25 235.06 130.34L232.42 130.54C231.74 130.6 231.05 130.65 230.37 130.71C224.17 131.21 217.85 131.82 211.62 132.5C209.59 132.72 207.57 132.95 205.56 133.2C202.31 133.58 199.05 133.99 195.85 134.43C195.47 134.47 195.18 134.52 194.9 134.56C188.41 135.44 181.81 136.44 175.24 137.55C167.81 138.81 160.57 140.18 153.75 141.62C145.05 143.45 136.49 145.49 128.3 147.69C127.67 147.86 127.06 148.02 126.45 148.19C125.78 148.37 125.17 148.53 124.56 148.7C56.9105 167.5 16.4505 196.81 16.3105 227.1C16.2105 247.75 34.1605 267.71 68.2305 284.83C74.4705 287.96 81.2205 290.97 88.2905 293.78C94.0005 296.06 100.18 298.3 106.67 300.45C108.98 301.21 111.33 301.96 113.72 302.69C160.41 317.09 217.2 325.22 277.98 326.22C280.31 326.26 282.67 326.28 285.02 326.3C286.6 326.32 288.18 326.32 289.76 326.32H290.38C356.2 326.32 419.87 317.63 469.73 301.83C472.1 301.08 474.43 300.31 476.72 299.53C519.6 284.98 549.05 265.62 559.66 245C562.41 239.67 563.92 234.2 564.15 228.75C564.17 228.35 564.17 227.95 564.17 227.55C564.32 196.28 522.11 166.36 451.27 147.5L448.83 146.86C448.35 146.73 447.88 146.61 447.4 146.49C441.21 144.9 434.81 143.4 428.35 142.02C427.69 141.87 427.04 141.74 426.39 141.6L424.41 141.19C408.36 137.88 391.36 135.16 373.9 133.11C364.17 131.96 354.11 131 344.02 130.26C326.51 128.98 308.58 128.33 290.71 128.32C283.96 128.32 277.08 128.4 270.24 128.58L266.11 128.7C263.53 128.78 260.98 128.87 258.43 128.98H258.34V128.97Z" fill="white"/>
<path d="M539.531 205.269L537.591 216.559C537.321 217.979 535.331 218.059 534.941 216.669L531.801 205.459C530.221 199.779 527.061 194.569 522.831 190.509C519.481 187.289 515.471 184.789 511.031 183.339L509.921 182.979L508.281 182.449C507.001 182.029 507.041 180.209 508.331 179.839H508.351C508.821 179.699 509.281 179.559 509.731 179.409C520.351 175.849 528.231 166.439 530.561 155.409L530.761 154.569L533.151 144.379C533.451 142.949 535.491 142.929 535.811 144.359L538.081 154.339L538.281 155.229C540.891 166.659 549.491 175.159 560.721 178.149C561.241 178.289 561.761 178.409 562.291 178.529C562.981 178.679 563.351 179.249 563.361 179.829C563.371 180.369 563.081 180.919 562.461 181.139L560.721 181.769L559.861 182.079C555.241 183.759 551.131 186.349 547.811 189.659C543.621 193.839 540.671 199.169 539.501 205.269H539.531Z" fill="white"/>
<path d="M536.251 218.43C535.281 218.43 534.471 217.81 534.201 216.87L531.061 205.66C529.521 200.13 526.491 195.09 522.301 191.06C518.971 187.86 514.991 185.44 510.791 184.07L508.041 183.17C507.131 182.87 506.551 182.06 506.571 181.1C506.591 180.14 507.201 179.35 508.131 179.09C508.611 178.96 509.061 178.82 509.501 178.67C519.711 175.25 527.501 166.27 529.821 155.25L532.421 144.2C532.631 143.21 533.461 142.53 534.491 142.52H534.511C535.531 142.52 536.361 143.18 536.591 144.18L539.061 155.05C541.581 166.06 549.761 174.41 560.941 177.39C561.451 177.53 561.961 177.65 562.481 177.76C563.461 177.97 564.141 178.79 564.161 179.8C564.181 180.73 563.631 181.54 562.761 181.85L560.161 182.79C555.621 184.44 551.661 186.93 548.391 190.19C544.201 194.36 541.401 199.62 540.301 205.39L538.371 216.67C538.181 217.68 537.371 218.37 536.361 218.42C536.331 218.42 536.291 218.42 536.261 218.42L536.251 218.43ZM534.511 144.07C534.381 144.03 534.021 144.1 533.931 144.54L531.331 155.59C528.891 167.13 520.721 176.55 509.991 180.14C509.531 180.3 509.051 180.44 508.571 180.58C508.151 180.69 508.121 181.04 508.121 181.14C508.121 181.24 508.141 181.59 508.531 181.71L511.281 182.61C515.701 184.05 519.881 186.59 523.381 189.95C527.771 194.17 530.941 199.45 532.561 205.25L535.701 216.46C535.821 216.88 536.191 216.91 536.301 216.89C536.411 216.89 536.771 216.84 536.861 216.41L538.801 205.12C539.961 199.04 542.911 193.5 547.321 189.11C550.751 185.69 554.901 183.08 559.651 181.35L562.261 180.41C562.621 180.28 562.651 179.97 562.651 179.84C562.651 179.76 562.621 179.37 562.191 179.27C561.651 179.15 561.111 179.03 560.581 178.88C548.841 175.75 540.241 166.97 537.591 155.39L535.121 144.52C535.021 144.1 534.661 144.06 534.551 144.06L534.511 144.07Z" fill="#E4DEDE"/>
<path d="M106.34 318.47C114.409 318.47 120.95 311.929 120.95 303.86C120.95 295.791 114.409 289.25 106.34 289.25C98.2716 289.25 91.7305 295.791 91.7305 303.86C91.7305 311.929 98.2716 318.47 106.34 318.47Z" fill="white"/>
<path d="M106.34 319.69C102.17 319.69 98.2403 318.08 95.2603 315.16C92.2403 312.2 90.5603 308.24 90.5203 304.01C90.4803 299.78 92.0903 295.79 95.0503 292.77C98.0103 289.75 101.97 288.07 106.2 288.03C110.43 288.03 114.42 289.6 117.44 292.56C120.46 295.52 122.14 299.48 122.18 303.71C122.26 312.44 115.23 319.61 106.5 319.69C106.45 319.69 106.4 319.69 106.35 319.69H106.34ZM106.34 290.46C106.34 290.46 106.25 290.46 106.21 290.46C102.63 290.49 99.2803 291.92 96.7803 294.47C94.2803 297.02 92.9103 300.4 92.9503 303.98C92.9803 307.56 94.4103 310.91 96.9603 313.41C99.4803 315.89 102.81 317.24 106.34 317.25C106.38 317.25 106.43 317.25 106.47 317.25C113.86 317.18 119.81 311.12 119.74 303.73C119.71 300.15 118.28 296.8 115.73 294.3C113.21 291.82 109.88 290.46 106.35 290.46H106.34Z" fill="#E4DEDE"/>
<path d="M422.359 134.08V268.63H158.119V134.08C158.119 122.99 167.109 113.99 178.209 113.99H402.269C413.359 113.99 422.359 122.99 422.359 134.08Z" fill="#1A3C7D"/>
<path d="M422.36 271.07H158.12C156.78 271.07 155.68 269.98 155.68 268.63V134.08C155.68 121.66 165.79 111.55 178.21 111.55H402.27C414.69 111.55 424.8 121.66 424.8 134.08V268.63C424.8 269.97 423.71 271.07 422.36 271.07ZM160.55 266.2H419.93V134.08C419.93 124.34 412.01 116.42 402.27 116.42H178.21C168.47 116.42 160.55 124.34 160.55 134.08V266.2Z" fill="white"/>
<path d="M422.359 268.631V278.071C422.359 289.161 413.359 297.861 402.269 297.861H178.209C167.099 297.861 158.119 289.171 158.119 278.071V268.631H422.359Z" fill="#05183C"/>
<path d="M402.27 300.29H178.21C165.58 300.29 155.68 290.53 155.68 278.07V268.63C155.68 267.29 156.77 266.19 158.12 266.19H422.36C423.7 266.19 424.8 267.28 424.8 268.63V278.07C424.8 290.32 414.69 300.29 402.27 300.29ZM160.56 271.07V278.07C160.56 287.8 168.32 295.42 178.22 295.42H402.28C412.18 295.42 419.94 287.8 419.94 278.07V271.07H160.55H160.56Z" fill="white"/>
<path d="M365.161 333.17H215.331C213.663 333.17 212.311 334.522 212.311 336.19V345.98C212.311 347.648 213.663 349 215.331 349H365.161C366.828 349 368.181 347.648 368.181 345.98V336.19C368.181 334.522 366.828 333.17 365.161 333.17Z" fill="#1A3C7D"/>
<path d="M224.078 48.72L357.427 49.2786C368.007 49.3229 376.561 57.9488 376.517 68.5287L375.684 267.327L203.985 266.608L204.818 67.8195C204.862 57.2396 213.488 48.6856 224.068 48.7299L224.078 48.72Z" fill="#FF9460"/>
<path d="M378.101 269.78L201.541 269.04L202.371 71.9899C202.401 65.1299 205.121 58.6699 210.021 53.8099C214.921 48.9499 221.371 46.2399 228.261 46.3099L353.261 46.8399C367.481 46.8999 378.991 58.5099 378.941 72.7299L378.111 269.78H378.101ZM206.431 264.19L373.251 264.89L374.061 72.7099C374.111 61.1799 364.771 51.7599 353.231 51.7099L228.231 51.1799H228.141C222.611 51.1799 217.391 53.3399 213.441 57.2599C209.461 61.2099 207.261 66.4399 207.231 71.9999L206.421 264.18L206.431 264.19Z" fill="white"/>
<path d="M234.031 76.8997C237.395 76.8997 240.121 74.1731 240.121 70.8097C240.121 67.4463 237.395 64.7197 234.031 64.7197C230.668 64.7197 227.941 67.4463 227.941 70.8097C227.941 74.1731 230.668 76.8997 234.031 76.8997Z" fill="#FF6D2A"/>
<path d="M253.172 76.8997C256.535 76.8997 259.262 74.1731 259.262 70.8097C259.262 67.4463 256.535 64.7197 253.172 64.7197C249.809 64.7197 247.082 67.4463 247.082 70.8097C247.082 74.1731 249.809 76.8997 253.172 76.8997Z" fill="#FF6D2A"/>
<path d="M272.301 76.8997C275.664 76.8997 278.391 74.1731 278.391 70.8097C278.391 67.4463 275.664 64.7197 272.301 64.7197C268.938 64.7197 266.211 67.4463 266.211 70.8097C266.211 74.1731 268.938 76.8997 272.301 76.8997Z" fill="#FF6D2A"/>
<path d="M349.102 76.8997C352.465 76.8997 355.192 74.1731 355.192 70.8097C355.192 67.4463 352.465 64.7197 349.102 64.7197C345.738 64.7197 343.012 67.4463 343.012 70.8097C343.012 74.1731 345.738 76.8997 349.102 76.8997Z" fill="#FF6D2A"/>
<path d="M205.382 88.5949L205.361 93.4648L375.19 94.1762L375.21 89.3062L205.382 88.5949Z" fill="white"/>
<path d="M286.237 140.311L228.747 140.07C225.455 140.056 222.776 142.713 222.762 146.005L222.572 191.314C222.559 194.606 225.216 197.286 228.507 197.299L285.997 197.54C289.288 197.554 291.968 194.897 291.982 191.605L292.172 146.296C292.185 143.004 289.528 140.324 286.237 140.311Z" fill="#EE4A00"/>
<path d="M352.827 228.269L228.368 227.748C225.077 227.734 222.397 230.391 222.383 233.683L222.357 240.033C222.343 243.324 225 246.004 228.292 246.017L352.751 246.539C356.042 246.553 358.722 243.895 358.735 240.604L358.762 234.254C358.776 230.962 356.119 228.283 352.827 228.269Z" fill="#EE4A00"/>
<path d="M222.879 116.301L222.863 119.951L358.022 120.517L358.037 116.867L222.879 116.301Z" fill="#FF6D2A"/>
<path d="M222.828 127.267L222.812 130.917L357.981 131.483L357.997 127.833L222.828 127.267Z" fill="#FF6D2A"/>
<path d="M305.381 138.567L305.365 142.217L357.925 142.437L357.94 138.787L305.381 138.567Z" fill="#FF6D2A"/>
<path d="M305.341 149.533L305.326 153.183L357.886 153.403L357.901 149.753L305.341 149.533Z" fill="#FF6D2A"/>
<path d="M305.291 160.498L305.275 164.148L357.835 164.369L357.85 160.719L305.291 160.498Z" fill="#FF6D2A"/>
<path d="M305.25 171.445L305.234 175.095L357.794 175.315L357.809 171.665L305.25 171.445Z" fill="#FF6D2A"/>
<path d="M305.199 183.625L305.184 187.275L357.743 187.496L357.758 183.846L305.199 183.625Z" fill="#FF6D2A"/>
<path d="M305.16 194.591L305.145 198.241L357.704 198.461L357.719 194.811L305.16 194.591Z" fill="#FF6D2A"/>
<path d="M234.991 180.36C233.561 180.36 232.171 179.65 231.361 178.34L211.711 146.68L192.211 159C190.271 160.22 187.721 159.7 186.421 157.81L143.801 95.7103C142.471 93.7703 142.961 91.1203 144.901 89.7803C146.841 88.4503 149.491 88.9403 150.831 90.8803L191.131 149.6L210.801 137.18C211.761 136.57 212.921 136.37 214.031 136.63C215.141 136.88 216.101 137.57 216.701 138.54L238.621 173.85C239.861 175.85 239.251 178.48 237.251 179.72C236.551 180.15 235.771 180.36 235.011 180.36H234.991Z" fill="#FF6D2A"/>
<path d="M143.279 103.61L144.329 109.71C144.479 110.48 145.549 110.52 145.759 109.77L147.459 103.71C148.319 100.64 150.019 97.8202 152.309 95.6302C154.119 93.8902 156.289 92.5402 158.689 91.7502L159.289 91.5502L160.169 91.2602C160.859 91.0302 160.839 90.0502 160.139 89.8502H160.129C159.879 89.7802 159.629 89.7002 159.379 89.6202C153.639 87.6902 149.369 82.6102 148.109 76.6402L147.999 76.1902L146.709 70.6802C146.549 69.9102 145.449 69.9002 145.269 70.6702L144.039 76.0702L143.929 76.5502C142.519 82.7302 137.859 87.3302 131.799 88.9402C131.519 89.0202 131.239 89.0802 130.949 89.1402C130.579 89.2202 130.379 89.5302 130.369 89.8402C130.369 90.1302 130.519 90.4302 130.859 90.5502L131.799 90.8902L132.259 91.0602C134.759 91.9702 136.979 93.3702 138.779 95.1602C141.049 97.4202 142.639 100.3 143.269 103.6L143.279 103.61Z" fill="white"/>
<path d="M145.05 110.93C145.05 110.93 145.01 110.93 144.99 110.93C144.35 110.9 143.84 110.46 143.72 109.84L142.67 103.73C142.08 100.65 140.58 97.8402 138.35 95.6102C136.6 93.8602 134.48 92.5302 132.06 91.6502L130.65 91.1402C130.1 90.9402 129.75 90.4302 129.76 89.8502C129.78 89.2102 130.2 88.7002 130.82 88.5602C131.1 88.5002 131.37 88.4302 131.64 88.3602C137.62 86.7702 141.99 82.3002 143.34 76.4202L144.68 70.5402C144.82 69.9102 145.35 69.4902 145.99 69.4902H146C146.65 69.4902 147.17 69.9202 147.31 70.5602L148.71 76.5102C149.96 82.4202 154.12 87.2202 159.58 89.0502C159.82 89.1302 160.06 89.2102 160.3 89.2702C160.89 89.4302 161.28 89.9402 161.29 90.5402C161.3 91.1402 160.93 91.6602 160.36 91.8502L158.87 92.3302C156.63 93.0602 154.5 94.3602 152.72 96.0702C150.48 98.2202 148.86 100.92 148.03 103.88L146.33 109.94C146.16 110.54 145.65 110.92 145.04 110.92L145.05 110.93ZM145.99 70.7102C145.89 70.7102 145.87 70.7802 145.87 70.8102L144.53 76.6902C143.08 83.0202 138.38 87.8302 131.96 89.5402C131.67 89.6202 131.38 89.6902 131.08 89.7502C131.06 89.7502 130.98 89.7702 130.98 89.8702C130.98 89.9602 131.04 89.9802 131.06 89.9902L132.47 90.5002C135.06 91.4402 137.33 92.8702 139.21 94.7402C141.62 97.1402 143.23 100.17 143.87 103.5L144.92 109.61C144.92 109.63 144.94 109.7 145.04 109.7C145.16 109.7 145.16 109.64 145.17 109.6L146.87 103.54C147.75 100.38 149.49 97.4802 151.88 95.1802C153.79 93.3402 156.08 91.9502 158.5 91.1602L159.99 90.6702C159.99 90.6702 160.08 90.6402 160.08 90.5502C160.08 90.4602 160.01 90.4402 159.99 90.4302C159.71 90.3502 159.45 90.2702 159.2 90.1902C153.34 88.2302 148.87 83.0802 147.53 76.7602L146.13 70.8102C146.13 70.8102 146.11 70.7002 146 70.7002L145.99 70.7102Z" fill="#E4DEDE"/>
<path d="M234.88 186.18C239.414 186.18 243.09 182.504 243.09 177.97C243.09 173.436 239.414 169.76 234.88 169.76C230.346 169.76 226.67 173.436 226.67 177.97C226.67 182.504 230.346 186.18 234.88 186.18Z" fill="white"/>
<path d="M213.069 148.99C217.604 148.99 221.279 145.315 221.279 140.78C221.279 136.246 217.604 132.57 213.069 132.57C208.535 132.57 204.859 136.246 204.859 140.78C204.859 145.315 208.535 148.99 213.069 148.99Z" fill="white"/>
<path d="M190.069 160.65C194.604 160.65 198.279 156.975 198.279 152.44C198.279 147.906 194.604 144.23 190.069 144.23C185.535 144.23 181.859 147.906 181.859 152.44C181.859 156.975 185.535 160.65 190.069 160.65Z" fill="white"/>
</svg>
