<svg width="580" height="350" viewBox="0 0 580 350" fill="none" xmlns="http://www.w3.org/2000/svg">
<path d="M267.89 291.95L245.84 332.56H334.01L310.81 291.95H267.89Z" fill="#06296B"/>
<path d="M415.811 141.71V269.91H164.051V141.71C164.051 131.14 172.611 122.57 183.191 122.57H396.661C407.231 122.57 415.801 131.14 415.801 141.71H415.811Z" fill="#1A3C7D"/>
<path d="M415.81 272.23H164.06C162.78 272.23 161.74 271.19 161.74 269.91V141.71C161.74 129.88 171.37 120.25 183.2 120.25H396.67C408.5 120.25 418.13 129.88 418.13 141.71V269.91C418.13 271.19 417.09 272.23 415.81 272.23ZM166.38 267.59H413.49V141.71C413.49 132.43 405.94 124.89 396.67 124.89H183.2C173.92 124.89 166.38 132.44 166.38 141.71V267.59Z" fill="white"/>
<path d="M415.811 269.91V278.9C415.811 289.47 407.241 297.75 396.671 297.75H183.201C172.621 297.75 164.061 289.47 164.061 278.9V269.91H415.811Z" fill="#05183C"/>
<path d="M396.66 300.07H183.2C171.16 300.07 161.74 290.77 161.74 278.9V269.91C161.74 268.63 162.78 267.59 164.06 267.59H415.81C417.09 267.59 418.13 268.63 418.13 269.91V278.9C418.13 290.58 408.5 300.07 396.67 300.07H396.66ZM166.37 272.23V278.9C166.37 288.17 173.76 295.43 183.19 295.43H396.66C406.09 295.43 413.48 288.17 413.48 278.9V272.23H166.37Z" fill="white"/>
<path d="M361.16 331.4H218.7C217.032 331.4 215.68 332.753 215.68 334.42V343.46C215.68 345.128 217.032 346.48 218.7 346.48H361.16C362.828 346.48 364.18 345.128 364.18 343.46V334.42C364.18 332.753 362.828 331.4 361.16 331.4Z" fill="#1A3C7D"/>
<path d="M290.07 333.49H289.47C287.94 333.49 286.42 333.49 284.91 333.47C282.66 333.46 280.4 333.43 278.15 333.4C219.59 332.44 164.81 324.58 119.72 310.68C117.41 309.97 115.12 309.24 112.87 308.5C106.52 306.4 100.5 304.22 94.9605 302C88.0505 299.26 81.4405 296.31 75.3005 293.23C40.3205 275.66 21.8905 254.48 22.0005 231.98C22.1505 199.35 61.5905 169.69 130.22 150.61C130.82 150.44 131.44 150.27 132.06 150.11C132.62 149.95 133.24 149.79 133.86 149.62C141.77 147.5 150.05 145.52 158.46 143.75C165.05 142.36 172.04 141.03 179.21 139.82C185.55 138.75 191.91 137.78 198.13 136.94C198.45 136.89 198.81 136.84 199.18 136.8C202.17 136.39 205.321 135.99 208.451 135.62C210.381 135.39 212.33 135.16 214.29 134.95C220.29 134.29 226.37 133.71 232.37 133.23C232.96 133.19 233.54 133.14 234.12 133.09L236.85 132.88C237.89 132.8 238.95 132.72 240.02 132.65C244.97 132.3 250.16 131.99 255.43 131.74C256.07 131.71 256.721 131.68 257.391 131.65L259.421 131.56C261.841 131.46 264.28 131.37 266.73 131.29L270.721 131.17C277.271 131 283.86 130.93 290.4 130.92C307.59 130.93 324.85 131.56 341.69 132.79C351.41 133.5 361.09 134.42 370.47 135.53C387.3 137.5 403.7 140.13 419.2 143.32L421.09 143.72C421.72 143.85 422.36 143.99 423 144.13C429.22 145.46 435.41 146.91 441.39 148.45C441.85 148.56 442.32 148.69 442.79 148.81L445.16 149.43C516.96 168.55 558.051 198.8 557.891 232.43C557.891 232.89 557.89 233.37 557.86 233.85C557.61 240.06 555.91 246.25 552.82 252.23C541.72 273.79 513.03 292.94 469.85 307.59C467.63 308.35 465.36 309.09 463.06 309.82C414.89 325.08 353.49 333.47 290.09 333.47L290.07 333.49ZM259.55 138.52L257.68 138.6C257.04 138.63 256.4 138.66 255.77 138.69C250.53 138.94 245.39 139.24 240.48 139.59C239.43 139.66 238.4 139.73 237.37 139.82L234.68 140.02C234.08 140.07 233.49 140.12 232.9 140.16C226.99 140.64 220.971 141.21 215.031 141.86C213.091 142.07 211.17 142.29 209.26 142.52C206.17 142.88 203.06 143.28 200.01 143.69C199.64 143.73 199.37 143.77 199.1 143.81C192.91 144.64 186.63 145.6 180.37 146.66C173.29 147.86 166.401 149.17 159.891 150.54C151.601 152.28 143.44 154.23 135.65 156.32C135.05 156.48 134.47 156.63 133.89 156.8C133.25 156.97 132.67 157.13 132.09 157.29C67.6405 175.21 29.0905 203.13 28.9605 231.99C28.8605 251.66 45.9705 270.68 78.4305 286.99C84.3805 289.98 90.8105 292.84 97.5405 295.51C102.96 297.67 108.85 299.81 115.06 301.86C117.26 302.58 119.5 303.3 121.78 304C166.26 317.72 220.37 325.47 278.28 326.42C280.5 326.45 282.74 326.48 284.99 326.49C286.5 326.51 288 326.51 289.5 326.51H290.1C352.8 326.51 413.46 318.23 460.96 303.18C463.22 302.46 465.44 301.74 467.62 300.99C508.47 287.13 536.531 268.68 546.641 249.03C549.261 243.95 550.7 238.74 550.91 233.55C550.93 233.17 550.93 232.79 550.93 232.41C551.07 202.62 510.86 174.11 443.37 156.14L441.02 155.52C440.57 155.4 440.13 155.29 439.68 155.17C433.78 153.66 427.68 152.23 421.53 150.91C420.9 150.77 420.28 150.64 419.67 150.51L417.79 150.12C402.5 146.96 386.3 144.37 369.66 142.42C360.39 141.32 350.81 140.41 341.19 139.71C324.51 138.49 307.42 137.87 290.4 137.86C283.97 137.86 277.39 137.94 270.89 138.1L266.96 138.22C264.5 138.3 262.071 138.38 259.641 138.49H259.561L259.55 138.52Z" fill="white"/>
<path d="M474.07 324.91L472.23 335.66C471.97 337.01 470.07 337.09 469.7 335.77L466.71 325.09C465.2 319.68 462.19 314.72 458.17 310.85C454.98 307.79 451.15 305.4 446.93 304.02L445.87 303.67L444.31 303.16C443.09 302.76 443.13 301.02 444.36 300.68H444.38C444.82 300.55 445.27 300.41 445.7 300.27C455.82 296.88 463.33 287.92 465.55 277.41L465.74 276.61L468.02 266.9C468.31 265.54 470.24 265.52 470.55 266.88L472.72 276.39L472.91 277.24C475.4 288.13 483.59 296.23 494.29 299.07C494.78 299.2 495.28 299.32 495.79 299.43C496.45 299.57 496.8 300.12 496.81 300.67C496.82 301.18 496.55 301.7 495.95 301.92L494.29 302.52L493.47 302.82C489.07 304.42 485.15 306.89 481.99 310.04C477.99 314.02 475.19 319.1 474.08 324.91H474.07Z" fill="white"/>
<path d="M470.94 337.45C470.02 337.45 469.24 336.86 468.99 335.96L466 325.28C464.53 320.02 461.65 315.21 457.66 311.37C454.49 308.32 450.7 306.02 446.7 304.71L444.08 303.86C443.21 303.58 442.66 302.8 442.68 301.89C442.7 300.97 443.28 300.22 444.16 299.97C444.62 299.84 445.04 299.71 445.47 299.57C455.2 296.31 462.62 287.76 464.83 277.25L467.3 266.72C467.5 265.78 468.29 265.13 469.27 265.12C470.21 265.12 471.05 265.75 471.27 266.7L473.63 277.06C476.03 287.55 483.82 295.51 494.48 298.35C494.96 298.48 495.45 298.6 495.94 298.7C496.88 298.9 497.52 299.68 497.54 300.64C497.56 301.53 497.04 302.29 496.2 302.6L493.72 303.5C489.4 305.07 485.62 307.44 482.51 310.55C478.52 314.53 475.86 319.53 474.8 325.03L472.96 335.78C472.78 336.74 472.01 337.4 471.05 337.44C471.02 337.44 470.99 337.44 470.96 337.44L470.94 337.45ZM469.28 266.6C469.22 266.6 468.82 266.63 468.73 267.05L466.26 277.58C463.94 288.58 456.15 297.54 445.93 300.97C445.49 301.12 445.03 301.26 444.57 301.39C444.18 301.5 444.14 301.83 444.14 301.93C444.14 302.03 444.16 302.36 444.53 302.48L447.15 303.33C451.36 304.71 455.35 307.13 458.68 310.33C462.86 314.35 465.88 319.39 467.42 324.9L470.41 335.58C470.52 335.98 470.88 336.01 470.98 335.99C471.08 335.99 471.43 335.94 471.51 335.53L473.35 324.78C474.46 318.99 477.27 313.71 481.47 309.53C484.74 306.27 488.69 303.78 493.22 302.14L495.7 301.24C496.04 301.12 496.07 300.82 496.07 300.7C496.07 300.62 496.04 300.25 495.63 300.16C495.11 300.05 494.6 299.93 494.1 299.79C482.91 296.81 474.72 288.44 472.2 277.41L469.84 267.05C469.75 266.65 469.4 266.61 469.29 266.61L469.28 266.6Z" fill="#E4DEDE"/>
<path d="M64.3106 195.92C71.9984 195.92 78.2306 189.688 78.2306 182C78.2306 174.312 71.9984 168.08 64.3106 168.08C56.6228 168.08 50.3906 174.312 50.3906 182C50.3906 189.688 56.6228 195.92 64.3106 195.92Z" fill="white"/>
<path d="M64.3112 197.09C56.0612 197.09 49.3112 190.42 49.2312 182.15C49.1512 173.83 55.8512 167 64.1712 166.93C64.2212 166.93 64.2712 166.93 64.3112 166.93C72.5612 166.93 79.3112 173.6 79.3912 181.87C79.4712 190.19 72.7712 197.02 64.4512 197.09C64.4012 197.09 64.3512 197.09 64.3112 197.09ZM64.3112 169.25C64.3112 169.25 64.2312 169.25 64.1912 169.25C57.1512 169.32 51.4812 175.09 51.5512 182.13C51.6212 189.13 57.3312 194.77 64.3112 194.77C64.3512 194.77 64.3912 194.77 64.4312 194.77C71.4712 194.7 77.1412 188.93 77.0712 181.89C77.0012 174.89 71.2912 169.25 64.3112 169.25Z" fill="#E4DEDE"/>
<path d="M310 11.55L340.53 219.96C340.83 221.99 339.43 223.87 337.4 224.16L144.98 252.34C142.95 252.64 141.07 251.24 140.78 249.21L110.28 41.0801C109.81 37.8501 112.26 34.83 115.76 34.32L303.13 6.87005C306.47 6.38005 309.55 8.47005 310 11.55Z" fill="#FF9460"/>
<path d="M145.19 254.62C141.97 255.03 138.99 252.77 138.52 249.55L108.03 41.41C107.71 39.21 108.32 37.02 109.76 35.24C111.16 33.52 113.17 32.39 115.43 32.05L302.8 4.61996C304.95 4.28996 307.16 4.78996 308.93 5.98996C310.76 7.23996 311.94 9.09996 312.25 11.22L342.78 219.63C343.01 221.21 342.61 222.79 341.66 224.07C340.71 225.35 339.31 226.19 337.73 226.42L145.32 254.6C145.32 254.6 145.24 254.61 145.2 254.62H145.19ZM303.55 9.11996C303.55 9.11996 303.49 9.11996 303.46 9.12996L116.09 36.57C114.96 36.73 113.97 37.28 113.3 38.11C112.67 38.89 112.4 39.82 112.54 40.74L143.03 248.87C143.08 249.25 143.28 249.58 143.59 249.81C143.9 250.04 144.27 250.2 144.65 250.08L337.07 221.9C337.45 221.85 337.78 221.65 338.01 221.34C338.24 221.03 338.33 220.66 338.28 220.28L307.74 11.88C307.62 11.03 307.13 10.28 306.36 9.75996C305.56 9.21996 304.56 8.98996 303.55 9.11996Z" fill="white"/>
<path d="M128.1 52.2893C130.508 52.2893 132.46 50.3373 132.46 47.9293C132.46 45.5214 130.508 43.5693 128.1 43.5693C125.692 43.5693 123.74 45.5214 123.74 47.9293C123.74 50.3373 125.692 52.2893 128.1 52.2893Z" fill="#FF6D2A"/>
<path d="M141.661 50.3098C144.069 50.3098 146.021 48.3578 146.021 45.9498C146.021 43.5419 144.069 41.5898 141.661 41.5898C139.253 41.5898 137.301 43.5419 137.301 45.9498C137.301 48.3578 139.253 50.3098 141.661 50.3098Z" fill="#FF6D2A"/>
<path d="M155.21 48.3196C157.618 48.3196 159.57 46.3676 159.57 43.9596C159.57 41.5516 157.618 39.5996 155.21 39.5996C152.802 39.5996 150.85 41.5516 150.85 43.9596C150.85 46.3676 152.802 48.3196 155.21 48.3196Z" fill="#FF6D2A"/>
<path d="M169.219 46.2698C171.627 46.2698 173.579 44.3178 173.579 41.9098C173.579 39.5018 171.627 37.5498 169.219 37.5498C166.811 37.5498 164.859 39.5018 164.859 41.9098C164.859 44.3178 166.811 46.2698 169.219 46.2698Z" fill="#FF6D2A"/>
<path d="M279.13 30.1702C281.538 30.1702 283.49 28.2182 283.49 25.8102C283.49 23.4022 281.538 21.4502 279.13 21.4502C276.722 21.4502 274.77 23.4022 274.77 25.8102C274.77 28.2182 276.722 30.1702 279.13 30.1702Z" fill="#FF6D2A"/>
<path d="M292.69 28.18C295.098 28.18 297.05 26.2279 297.05 23.82C297.05 21.412 295.098 19.46 292.69 19.46C290.282 19.46 288.33 21.412 288.33 23.82C288.33 26.2279 290.282 28.18 292.69 28.18Z" fill="#FF6D2A"/>
<path d="M260.03 13.2025L255.33 13.8906L259.804 44.4448L264.504 43.7567L260.03 13.2025Z" fill="white"/>
<path d="M312.463 35.1723L113.855 64.2168L114.543 68.9168L313.15 39.8723L312.463 35.1723Z" fill="white"/>
<path d="M191.037 141.483L160.127 145.876C156.868 146.339 154.602 149.357 155.065 152.616L158.637 177.743C159.1 181.002 162.118 183.268 165.376 182.805L196.286 178.411C199.545 177.948 201.811 174.931 201.348 171.672L197.776 146.544C197.313 143.286 194.295 141.019 191.037 141.483Z" fill="#EE4A00"/>
<path d="M204.879 143.96C203.919 144.08 203.029 143.41 202.889 142.44C202.749 141.47 203.429 140.56 204.399 140.43L298.569 127.04H298.599C299.559 126.91 300.449 127.59 300.589 128.55C300.729 129.52 300.049 130.43 299.079 130.56L204.909 143.95H204.879V143.96Z" fill="#FF6D2A"/>
<path d="M205.959 151.531C204.999 151.651 204.109 150.981 203.969 150.011C203.829 149.041 204.509 148.131 205.479 148.001L299.639 134.611C300.569 134.491 301.519 135.151 301.649 136.121C301.779 137.091 301.109 138.001 300.139 138.131L205.979 151.521H205.949L205.959 151.531Z" fill="#FF6D2A"/>
<path d="M207.04 159.09C206.08 159.21 205.19 158.54 205.05 157.57C204.91 156.6 205.59 155.69 206.56 155.56L300.73 142.17C301.66 142.01 302.61 142.71 302.74 143.68C302.87 144.65 302.2 145.56 301.23 145.69L207.06 159.08H207.03L207.04 159.09Z" fill="#FF6D2A"/>
<path d="M208.11 166.661C207.15 166.781 206.26 166.111 206.12 165.141C205.98 164.171 206.66 163.261 207.63 163.131L301.8 149.741H301.83C302.79 149.611 303.68 150.291 303.82 151.251C303.96 152.221 303.28 153.131 302.31 153.261L208.14 166.651H208.11V166.661Z" fill="#FF6D2A"/>
<path d="M209.309 175.07C208.349 175.19 207.459 174.52 207.319 173.55C207.179 172.58 207.859 171.67 208.829 171.54L302.999 158.15C303.929 158.05 304.879 158.69 305.009 159.66C305.139 160.63 304.469 161.54 303.499 161.67L209.329 175.06H209.299L209.309 175.07Z" fill="#FF6D2A"/>
<path d="M273.721 214.771L304.631 210.378C307.889 209.915 310.156 206.897 309.693 203.638L306.121 178.511C305.658 175.252 302.64 172.986 299.381 173.449L268.472 177.843C265.213 178.306 262.947 181.323 263.41 184.582L266.982 209.709C267.445 212.968 270.462 215.235 273.721 214.771Z" fill="#EE4A00"/>
<path d="M166.151 229.23C165.191 229.35 164.301 228.68 164.161 227.71C164.021 226.74 164.701 225.83 165.671 225.7L259.841 212.31C260.831 212.2 261.721 212.85 261.851 213.82C261.981 214.79 261.311 215.7 260.341 215.83L166.171 229.22H166.141L166.151 229.23Z" fill="#FF6D2A"/>
<path d="M165.081 221.66C164.121 221.78 163.231 221.11 163.091 220.14C162.951 219.17 163.631 218.26 164.601 218.13L258.761 204.74H258.791C259.751 204.61 260.641 205.29 260.781 206.25C260.921 207.22 260.241 208.13 259.271 208.26L165.111 221.65H165.081V221.66Z" fill="#FF6D2A"/>
<path d="M164 214.1C163.04 214.22 162.15 213.55 162.01 212.58C161.87 211.61 162.55 210.7 163.52 210.57L257.69 197.18C258.67 197.02 259.57 197.72 259.7 198.69C259.84 199.66 259.16 200.57 258.19 200.7L164.02 214.09H163.99L164 214.1Z" fill="#FF6D2A"/>
<path d="M162.92 206.53C161.96 206.65 161.07 205.98 160.93 205.01C160.79 204.04 161.47 203.13 162.44 203L256.6 189.61C257.58 189.49 258.48 190.15 258.61 191.12C258.74 192.09 258.07 193 257.1 193.13L162.94 206.52H162.91L162.92 206.53Z" fill="#FF6D2A"/>
<path d="M161.731 198.12C160.771 198.24 159.881 197.57 159.741 196.6C159.601 195.63 160.281 194.72 161.251 194.59L255.421 181.2C256.411 181.11 257.301 181.74 257.431 182.71C257.561 183.68 256.891 184.59 255.921 184.72L161.751 198.11H161.721L161.731 198.12Z" fill="#FF6D2A"/>
<path d="M282.014 60.4611L151.239 79.0499C147.98 79.5132 145.713 82.5305 146.177 85.7894L152.518 130.401C152.981 133.66 155.998 135.926 159.257 135.463L290.033 116.874C293.292 116.411 295.558 113.393 295.095 110.135L288.753 65.5231C288.29 62.2642 285.273 59.9979 282.014 60.4611Z" fill="#EE4A00"/>
<path d="M470.04 117.93L440.74 246.28C440.11 249.06 437.34 250.79 434.57 250.16L247.8 207.52C245.02 206.89 243.29 204.12 243.92 201.35L273.19 73.1701C273.65 71.1401 276.82 70.1401 280.27 70.9201L464.88 113.07C468.17 113.82 470.48 116 470.04 117.93Z" fill="#FF9460"/>
<path d="M434.661 252.03C434.491 252 434.321 251.97 434.161 251.93L247.391 209.29C245.571 208.87 244.031 207.78 243.041 206.2C242.051 204.62 241.731 202.75 242.151 200.94L271.421 72.76C271.791 71.15 273.121 69.87 275.061 69.25C276.701 68.73 278.691 68.69 280.681 69.14L465.291 111.29C469.631 112.28 472.501 115.38 471.821 118.33L442.521 246.68C442.101 248.5 441.011 250.04 439.431 251.03C438.001 251.93 436.331 252.27 434.671 252.02L434.661 252.03ZM279.221 72.57C278.101 72.4 277.011 72.45 276.161 72.72C275.511 72.93 275.041 73.26 274.971 73.57L245.701 201.75C245.501 202.62 245.651 203.51 246.131 204.26C246.601 205.01 247.341 205.54 248.211 205.74L434.981 248.38C435.851 248.59 436.741 248.43 437.491 247.95C438.241 247.48 438.771 246.74 438.971 245.87L468.271 117.52C468.411 116.93 467.031 115.42 464.481 114.84L279.871 72.69C279.661 72.64 279.441 72.6 279.231 72.57H279.221Z" fill="white"/>
<path d="M429.721 124.67C432.129 124.67 434.081 122.718 434.081 120.31C434.081 117.902 432.129 115.95 429.721 115.95C427.313 115.95 425.361 117.902 425.361 120.31C425.361 122.718 427.313 124.67 429.721 124.67Z" fill="#FF6D2A"/>
<path d="M445.971 128.37C448.379 128.37 450.331 126.418 450.331 124.01C450.331 121.602 448.379 119.65 445.971 119.65C443.563 119.65 441.611 121.602 441.611 124.01C441.611 126.418 443.563 128.37 445.971 128.37Z" fill="#FF6D2A"/>
<path d="M267.844 98.1641L266.787 102.795L462.472 147.469L463.53 142.838L267.844 98.1641Z" fill="white"/>
<path d="M309.038 156.256L289.549 151.721C286.343 150.975 283.139 152.969 282.393 156.175L279.127 170.21C278.381 173.416 280.375 176.62 283.581 177.366L303.071 181.901C306.277 182.647 309.48 180.653 310.226 177.447L313.492 163.412C314.238 160.206 312.244 157.002 309.038 156.256Z" fill="#EE4A00"/>
<path d="M304.361 189.68C304.361 189.68 304.301 189.67 304.271 189.66L279.281 183.84C278.641 183.69 278.241 183.05 278.391 182.41C278.541 181.77 279.171 181.36 279.821 181.52L304.811 187.34C305.451 187.49 305.851 188.13 305.701 188.77C305.561 189.38 304.971 189.77 304.361 189.67V189.68Z" fill="#FF6D2A"/>
<path d="M303.072 195.19C303.072 195.19 303.012 195.18 302.982 195.17L277.992 189.36C277.352 189.21 276.952 188.57 277.102 187.93C277.252 187.29 277.862 186.9 278.532 187.04L303.522 192.85C304.162 193 304.562 193.64 304.412 194.28C304.272 194.89 303.682 195.28 303.072 195.18V195.19Z" fill="#FF6D2A"/>
<path d="M301.791 200.7C301.791 200.7 301.731 200.69 301.701 200.68L276.711 194.86C276.071 194.71 275.671 194.07 275.821 193.43C275.971 192.79 276.591 192.39 277.251 192.54L302.241 198.36C302.881 198.51 303.281 199.15 303.131 199.79C302.991 200.4 302.401 200.79 301.791 200.69V200.7Z" fill="#FF6D2A"/>
<path d="M300.511 206.21C300.511 206.21 300.451 206.2 300.421 206.19L275.431 200.38C274.791 200.23 274.391 199.59 274.541 198.95C274.691 198.31 275.301 197.9 275.971 198.06L300.961 203.87C301.601 204.02 302.001 204.66 301.851 205.3C301.711 205.91 301.121 206.3 300.511 206.2V206.21Z" fill="#FF6D2A"/>
<path d="M346.597 164.826L327.108 160.29C323.902 159.544 320.698 161.538 319.952 164.744L316.686 178.779C315.94 181.985 317.934 185.189 321.14 185.935L340.629 190.47C343.835 191.216 347.039 189.222 347.785 186.016L351.051 171.981C351.797 168.775 349.803 165.572 346.597 164.826Z" fill="#EE4A00"/>
<path d="M341.921 198.26C341.921 198.26 341.861 198.25 341.831 198.24L316.841 192.43C316.201 192.28 315.801 191.64 315.951 191C316.101 190.36 316.711 189.95 317.381 190.11L342.371 195.92C343.011 196.07 343.411 196.71 343.261 197.35C343.121 197.96 342.531 198.35 341.921 198.25V198.26Z" fill="#FF6D2A"/>
<path d="M340.642 203.769C340.642 203.769 340.582 203.759 340.552 203.749L315.562 197.929C314.922 197.779 314.522 197.139 314.672 196.499C314.822 195.859 315.442 195.469 316.102 195.609L341.092 201.429C341.732 201.579 342.132 202.219 341.982 202.859C341.842 203.469 341.252 203.859 340.642 203.759V203.769Z" fill="#FF6D2A"/>
<path d="M339.351 209.269C339.351 209.269 339.291 209.259 339.261 209.249L314.271 203.439C313.631 203.289 313.231 202.649 313.381 202.009C313.531 201.369 314.141 200.969 314.811 201.119L339.801 206.929C340.441 207.079 340.841 207.719 340.691 208.359C340.551 208.969 339.961 209.359 339.351 209.259V209.269Z" fill="#FF6D2A"/>
<path d="M338.072 214.78C338.072 214.78 338.012 214.77 337.982 214.76L312.992 208.94C312.352 208.79 311.952 208.15 312.102 207.51C312.252 206.87 312.872 206.46 313.532 206.62L338.522 212.44C339.162 212.59 339.562 213.23 339.412 213.87C339.272 214.48 338.682 214.87 338.072 214.77V214.78Z" fill="#FF6D2A"/>
<path d="M384.22 173.421L364.731 168.886C361.525 168.14 358.321 170.134 357.575 173.34L354.309 187.375C353.563 190.581 355.557 193.785 358.763 194.531L378.252 199.066C381.458 199.812 384.662 197.818 385.408 194.612L388.674 180.577C389.42 177.371 387.426 174.167 384.22 173.421Z" fill="#EE4A00"/>
<path d="M379.55 206.85C379.55 206.85 379.49 206.84 379.46 206.83L354.47 201.01C353.83 200.86 353.43 200.22 353.58 199.58C353.73 198.94 354.36 198.53 355.01 198.69L380 204.51C380.64 204.66 381.04 205.3 380.89 205.94C380.75 206.55 380.16 206.94 379.55 206.84V206.85Z" fill="#FF6D2A"/>
<path d="M378.271 212.36C378.271 212.36 378.211 212.35 378.181 212.34L353.191 206.52C352.551 206.37 352.151 205.73 352.301 205.09C352.451 204.45 353.061 204.06 353.731 204.2L378.721 210.02C379.361 210.17 379.761 210.81 379.611 211.45C379.471 212.06 378.881 212.45 378.271 212.35V212.36Z" fill="#FF6D2A"/>
<path d="M376.99 217.87C376.99 217.87 376.93 217.86 376.9 217.85L351.91 212.04C351.27 211.89 350.87 211.25 351.02 210.61C351.17 209.97 351.79 209.57 352.45 209.72L377.44 215.53C378.08 215.68 378.48 216.32 378.33 216.96C378.19 217.57 377.6 217.96 376.99 217.86V217.87Z" fill="#FF6D2A"/>
<path d="M375.701 223.369C375.701 223.369 375.641 223.359 375.611 223.349L350.621 217.529C349.981 217.379 349.581 216.739 349.731 216.099C349.881 215.459 350.491 215.049 351.161 215.209L376.151 221.029C376.791 221.179 377.191 221.819 377.041 222.459C376.901 223.069 376.311 223.459 375.701 223.359V223.369Z" fill="#FF6D2A"/>
<path d="M421.279 181.878L401.789 177.343C398.583 176.597 395.38 178.591 394.634 181.797L391.367 195.832C390.621 199.038 392.616 202.242 395.822 202.988L415.311 207.523C418.517 208.269 421.72 206.275 422.467 203.069L425.733 189.034C426.479 185.828 424.484 182.624 421.279 181.878Z" fill="#EE4A00"/>
<path d="M416.601 215.31C416.601 215.31 416.541 215.3 416.511 215.29L391.521 209.47C390.881 209.32 390.481 208.68 390.631 208.04C390.781 207.4 391.401 207.01 392.061 207.15L417.051 212.97C417.691 213.12 418.091 213.76 417.941 214.4C417.801 215.01 417.211 215.4 416.601 215.3V215.31Z" fill="#FF6D2A"/>
<path d="M415.322 220.819C415.322 220.819 415.262 220.809 415.232 220.799L390.242 214.989C389.602 214.839 389.202 214.199 389.352 213.559C389.502 212.919 390.132 212.519 390.782 212.669L415.772 218.479C416.412 218.629 416.812 219.269 416.662 219.909C416.522 220.519 415.932 220.909 415.322 220.809V220.819Z" fill="#FF6D2A"/>
<path d="M414.031 226.32C414.031 226.32 413.971 226.31 413.941 226.3L388.951 220.48C388.311 220.33 387.911 219.69 388.061 219.05C388.211 218.41 388.831 218 389.491 218.16L414.481 223.98C415.121 224.13 415.521 224.77 415.371 225.41C415.231 226.02 414.641 226.41 414.031 226.31V226.32Z" fill="#FF6D2A"/>
<path d="M412.752 231.83C412.752 231.83 412.692 231.82 412.662 231.81L387.672 226C387.032 225.85 386.632 225.21 386.782 224.57C386.932 223.93 387.552 223.54 388.212 223.68L413.201 229.49C413.841 229.64 414.242 230.28 414.092 230.92C413.952 231.53 413.362 231.92 412.752 231.82V231.83Z" fill="#FF6D2A"/>
<path d="M444.069 152.844L281.746 115.071C278.54 114.325 275.337 116.319 274.591 119.525L271.397 133.248C270.651 136.454 272.645 139.658 275.851 140.404L438.174 178.177C441.38 178.923 444.584 176.929 445.33 173.723L448.523 160C449.269 156.794 447.275 153.59 444.069 152.844Z" fill="#FF6D2A"/>
<path d="M358.13 142.16L346.4 150.85L370.33 156.31L364.37 146.83L360.93 147.67L358.13 142.16Z" fill="#EE4A00"/>
<path d="M366.79 145.7C368.105 145.7 369.17 144.635 369.17 143.32C369.17 142.006 368.105 140.94 366.79 140.94C365.476 140.94 364.41 142.006 364.41 143.32C364.41 144.635 365.476 145.7 366.79 145.7Z" fill="#EE4A00"/>
<path d="M352.061 98C374.854 98 393.331 79.5228 393.331 56.73C393.331 33.9372 374.854 15.46 352.061 15.46C329.268 15.46 310.791 33.9372 310.791 56.73C310.791 79.5228 329.268 98 352.061 98Z" fill="#1A3C7D"/>
<path d="M352.071 100.32C348.871 100.32 345.621 99.9595 342.361 99.2195C318.931 93.8695 304.221 70.4595 309.571 47.0195C314.921 23.5895 338.341 8.87953 361.771 14.2295C385.201 19.5795 399.911 42.9995 394.561 66.4295C389.951 86.6095 371.951 100.32 352.071 100.32ZM352.071 17.7795C334.311 17.7795 318.221 30.0295 314.101 48.0595C309.321 68.9995 322.461 89.9195 343.401 94.6995C364.341 99.4795 385.261 86.3395 390.041 65.3995C394.821 44.4595 381.681 23.5395 360.741 18.7595C357.841 18.0995 354.931 17.7795 352.071 17.7795Z" fill="white"/>
<path d="M345.501 99.8799C344.451 99.7199 343.391 99.5199 342.351 99.2799C318.891 93.9199 304.161 70.4799 309.521 47.0199C314.881 23.5599 338.331 8.83986 361.781 14.1899C385.241 19.5499 399.971 42.9899 394.611 66.4499C392.011 77.8199 385.151 87.4899 375.281 93.6899C366.321 99.3199 355.861 101.47 345.501 99.8799ZM357.941 18.2799C337.991 15.2199 318.711 28.0899 314.151 48.0699C309.381 68.9799 322.501 89.8699 343.411 94.6399C353.551 96.9599 363.961 95.1799 372.761 89.6599C381.561 84.1299 387.671 75.5099 389.991 65.3899C394.761 44.4799 381.641 23.5899 360.731 18.8199C359.801 18.6099 358.881 18.4299 357.951 18.2899L357.941 18.2799Z" fill="white"/>
<path d="M376.651 69.9303L372.141 66.7003C373.051 65.0003 373.741 63.1403 374.191 61.1803C374.551 59.5803 374.741 57.9903 374.751 56.4103L379.941 55.5103C381.881 55.1703 383.181 53.3303 382.841 51.3903C382.501 49.4503 380.661 48.1503 378.721 48.4903L373.701 49.3703C372.631 45.9603 370.731 42.8303 368.221 40.2903L371.071 36.3103C372.221 34.7103 371.851 32.4803 370.241 31.3303C368.641 30.1803 366.411 30.5503 365.261 32.1603L362.451 36.0703C360.831 35.2403 359.071 34.5903 357.211 34.1703C355.351 33.7403 353.491 33.5603 351.661 33.6103L350.831 28.8603C350.491 26.9203 348.631 25.6203 346.711 25.9603C344.771 26.3003 343.471 28.1403 343.811 30.0803L344.651 34.9003C341.281 36.1003 338.221 38.1003 335.771 40.7103L331.621 37.7403C330.021 36.5903 327.791 36.9603 326.641 38.5703C325.491 40.1703 325.861 42.4003 327.471 43.5503L331.751 46.6103C331.081 48.0403 330.551 49.5503 330.191 51.1503C329.741 53.1203 329.561 55.0903 329.641 57.0203L324.171 57.9803C322.231 58.3203 320.931 60.1603 321.271 62.1003C321.521 63.5603 322.641 64.6503 323.991 64.9603C324.441 65.0603 324.911 65.0903 325.391 65.0003L331.031 64.0203C332.201 67.1603 334.071 70.0203 336.481 72.3803L333.041 77.1903C331.891 78.7903 332.261 81.0203 333.871 82.1703C334.271 82.4603 334.701 82.6403 335.151 82.7403C336.501 83.0503 337.981 82.5503 338.841 81.3403L342.331 76.4703C343.831 77.2003 345.451 77.7803 347.161 78.1703C348.861 78.5603 350.571 78.7403 352.241 78.7303L353.271 84.6303C353.521 86.0903 354.641 87.1803 355.991 87.4903C356.441 87.5903 356.911 87.6203 357.391 87.5303C359.331 87.1903 360.631 85.3503 360.291 83.4103L359.281 77.5903C362.471 76.5203 365.401 74.7503 367.821 72.4303L372.481 75.7603C372.881 76.0503 373.311 76.2303 373.761 76.3303C375.111 76.6403 376.591 76.1403 377.451 74.9303C378.601 73.3303 378.231 71.1003 376.621 69.9503L376.651 69.9303ZM358.061 70.4203C355.881 71.3203 353.471 71.7203 351.021 71.5403C350.271 71.4803 349.511 71.3703 348.761 71.1903C348.011 71.0103 347.281 70.7903 346.571 70.5203C344.281 69.6203 342.281 68.2103 340.711 66.4503C339.711 65.3303 338.881 64.0803 338.251 62.7303C337.231 60.5803 336.701 58.2003 336.751 55.7503C336.791 54.7403 336.911 53.7203 337.141 52.7003C337.291 52.0603 337.471 51.4303 337.701 50.8303C338.531 48.5103 339.911 46.4903 341.631 44.8703C342.881 43.7103 344.331 42.7503 345.891 42.0403C348.051 41.0703 350.451 40.6003 352.891 40.7203C353.801 40.7603 354.711 40.8803 355.621 41.0903C356.531 41.3003 357.411 41.5803 358.241 41.9403C360.501 42.8903 362.451 44.3603 363.971 46.1703C365.071 47.4803 365.961 48.9803 366.581 50.5703C367.431 52.7703 367.791 55.1903 367.531 57.6503C367.481 58.3003 367.371 58.9403 367.221 59.5803C366.991 60.6003 366.661 61.5703 366.251 62.5003C365.231 64.7303 363.721 66.6503 361.871 68.1403C360.721 69.0803 359.421 69.8503 358.041 70.4203H358.061Z" fill="white"/>
<path d="M352.061 62.67C355.342 62.67 358.001 60.0106 358.001 56.73C358.001 53.4495 355.342 50.79 352.061 50.79C348.781 50.79 346.121 53.4495 346.121 56.73C346.121 60.0106 348.781 62.67 352.061 62.67Z" fill="white"/>
</svg>
