<svg width="580" height="350" viewBox="0 0 580 350" fill="none" xmlns="http://www.w3.org/2000/svg">
<path d="M258.891 291.93L236.221 333.68H326.901L303.031 291.93H258.891Z" fill="#06296B"/>
<path d="M411.011 269.26V278.51C411.011 289.38 402.191 297.9 391.321 297.9H171.801C160.921 297.9 152.111 289.38 152.111 278.51V269.26H411.011Z" fill="#05183C"/>
<path d="M391.32 300.28H171.8C159.42 300.28 149.73 290.72 149.73 278.51V269.26C149.73 267.94 150.8 266.87 152.12 266.87H411.01C412.33 266.87 413.4 267.94 413.4 269.26V278.51C413.4 290.52 403.5 300.28 391.33 300.28H391.32ZM154.5 271.65V278.51C154.5 288.04 162.1 295.51 171.8 295.51H391.32C401.02 295.51 408.62 288.04 408.62 278.51V271.65H154.5Z" fill="white"/>
<path d="M354.891 332.49H208.221C206.553 332.49 205.201 333.842 205.201 335.51V344.98C205.201 346.648 206.553 348 208.221 348H354.891C356.559 348 357.911 346.648 357.911 344.98V335.51C357.911 333.842 356.559 332.49 354.891 332.49Z" fill="#1A3C7D"/>
<path d="M285.68 334.87H284.71C283.26 334.87 281.82 334.87 280.38 334.85C278.07 334.84 275.74 334.81 273.43 334.77C213.21 333.78 156.87 325.7 110.5 311.4C108.12 310.67 105.77 309.92 103.46 309.16C96.9305 307 90.7405 304.75 85.0405 302.48C77.9405 299.66 71.1405 296.63 64.8205 293.46C28.8405 275.39 9.89048 253.61 10.0005 230.47C10.1505 196.91 50.7205 166.41 121.29 146.79C121.91 146.62 122.54 146.45 123.18 146.28C123.76 146.12 124.39 145.95 125.03 145.78C133.17 143.6 141.69 141.57 150.34 139.75C157.11 138.32 164.29 136.96 171.68 135.71C178.2 134.61 184.74 133.61 191.13 132.75C191.45 132.7 191.83 132.65 192.2 132.61C195.28 132.19 198.52 131.78 201.74 131.4C203.73 131.16 205.73 130.93 207.74 130.71C213.91 130.03 220.16 129.44 226.33 128.94C227.01 128.89 227.67 128.83 228.33 128.78L230.93 128.59C232.01 128.5 233.1 128.43 234.2 128.35C239.32 127.99 244.65 127.67 250.05 127.42C250.7 127.38 251.38 127.35 252.07 127.33L254.16 127.24C256.65 127.13 259.16 127.04 261.68 126.96L265.79 126.84C272.46 126.67 279.18 126.59 285.77 126.59H286.03C303.71 126.6 321.45 127.25 338.78 128.51C348.77 129.24 358.73 130.19 368.37 131.33C385.68 133.36 402.54 136.06 418.48 139.35L420.43 139.76C421.08 139.9 421.74 140.03 422.4 140.18C428.8 141.55 435.17 143.04 441.31 144.62C441.81 144.75 442.32 144.88 442.84 145.02L445.19 145.64C519.02 165.3 561.28 196.42 561.12 231C561.12 231.47 561.121 231.97 561.091 232.46C560.831 238.84 559.09 245.21 555.91 251.37C544.5 273.54 514.99 293.23 470.59 308.3C468.3 309.08 465.97 309.84 463.6 310.6C414.07 326.29 350.91 334.93 285.71 334.93L285.68 334.87ZM254.3 134.37L252.48 134.45C251.71 134.48 251.06 134.51 250.41 134.55C245.05 134.81 239.76 135.12 234.69 135.48C233.61 135.55 232.54 135.63 231.49 135.71L228.9 135.9C228.25 135.95 227.56 136.01 226.89 136.06C220.81 136.55 214.63 137.14 208.52 137.81C206.53 138.03 204.55 138.26 202.58 138.49C199.4 138.86 196.2 139.27 193.07 139.7C192.69 139.74 192.41 139.79 192.13 139.83C185.77 140.69 179.3 141.67 172.87 142.76C165.58 144 158.49 145.34 151.81 146.75C143.29 148.54 134.9 150.54 126.88 152.69C126.27 152.85 125.67 153.02 125.07 153.18C124.41 153.35 123.82 153.52 123.22 153.68C56.9405 172.11 17.2905 200.83 17.1605 230.5C17.0605 250.73 34.6505 270.29 68.0305 287.06C74.1605 290.13 80.7705 293.08 87.6805 295.82C93.2505 298.04 99.3105 300.24 105.69 302.35C107.95 303.09 110.26 303.83 112.6 304.55C158.34 318.65 213.98 326.62 273.53 327.6C275.81 327.63 278.12 327.66 280.43 327.68C281.86 327.7 283.29 327.7 284.72 327.7H285.08C285.28 327.7 285.48 327.7 285.68 327.7C350.16 327.7 412.55 319.18 461.4 303.71C463.72 302.97 466 302.22 468.25 301.46C510.26 287.21 539.12 268.23 549.51 248.03C552.21 242.8 553.69 237.45 553.91 232.11C553.93 231.72 553.93 231.33 553.93 230.94C554.07 200.3 512.72 170.99 443.32 152.51L440.99 151.9C440.5 151.77 440.01 151.64 439.52 151.52C433.46 149.97 427.18 148.49 420.86 147.14C420.21 147 419.58 146.86 418.94 146.73L417 146.33C401.27 143.08 384.62 140.42 367.51 138.41C357.97 137.28 348.12 136.34 338.23 135.62C321.08 134.37 303.5 133.73 286 133.72C279.41 133.73 272.64 133.8 265.94 133.97L261.9 134.09C259.38 134.17 256.87 134.26 254.38 134.37H254.29H254.3Z" fill="white"/>
<path d="M546.491 228.199L544.591 239.259C544.331 240.649 542.371 240.729 541.991 239.369L538.921 228.389C537.371 222.829 534.271 217.719 530.131 213.749C526.851 210.599 522.921 208.149 518.571 206.729L517.481 206.369L515.881 205.849C514.631 205.439 514.661 203.649 515.931 203.299H515.951C516.411 203.169 516.861 203.029 517.311 202.879C527.721 199.389 535.441 190.179 537.721 179.369L537.911 178.549L540.251 168.559C540.551 167.159 542.541 167.139 542.851 168.539L545.081 178.319L545.281 179.189C547.841 190.389 556.271 198.709 567.261 201.639C567.771 201.779 568.281 201.899 568.801 202.009C569.481 202.159 569.841 202.719 569.851 203.289C569.861 203.819 569.581 204.349 568.971 204.569L567.261 205.189L566.421 205.499C561.891 207.149 557.871 209.679 554.621 212.929C550.511 217.019 547.631 222.249 546.481 228.219L546.491 228.199Z" fill="white"/>
<path d="M543.281 241.099C542.331 241.099 541.531 240.499 541.271 239.569L538.201 228.589C536.691 223.169 533.721 218.229 529.621 214.289C526.361 211.149 522.461 208.779 518.351 207.439L515.661 206.559C514.771 206.269 514.201 205.469 514.221 204.529C514.241 203.589 514.841 202.809 515.741 202.559C516.211 202.429 516.651 202.289 517.081 202.149C527.081 198.799 534.711 189.999 536.991 179.199L539.531 168.369C539.731 167.399 540.551 166.739 541.551 166.729H541.571C542.571 166.729 543.381 167.379 543.611 168.359L546.031 179.009C548.501 189.799 556.511 197.979 567.471 200.899C567.971 201.029 568.471 201.149 568.971 201.259C569.931 201.469 570.591 202.269 570.621 203.259C570.641 204.169 570.101 204.959 569.241 205.269L566.691 206.199C562.241 207.809 558.371 210.259 555.161 213.449C551.061 217.539 548.321 222.689 547.231 228.339L545.341 239.389C545.151 240.379 544.361 241.059 543.371 241.099C543.341 241.099 543.311 241.099 543.271 241.099H543.281ZM541.571 168.239C541.461 168.239 541.101 168.279 541.011 168.699L538.471 179.529C536.081 190.839 528.071 200.059 517.571 203.579C517.111 203.729 516.641 203.879 516.181 204.009C515.771 204.119 515.741 204.459 515.741 204.559C515.741 204.659 515.761 204.999 516.141 205.119L518.831 205.999C523.161 207.409 527.261 209.899 530.681 213.189C534.981 217.319 538.091 222.499 539.671 228.179L542.741 239.159C542.861 239.569 543.221 239.599 543.321 239.579C543.431 239.579 543.781 239.529 543.861 239.109L545.761 228.049C546.901 222.089 549.791 216.669 554.111 212.359C557.471 209.009 561.541 206.449 566.191 204.759L568.741 203.829C569.091 203.699 569.121 203.399 569.121 203.269C569.121 203.159 569.081 202.799 568.661 202.709C568.131 202.599 567.611 202.469 567.091 202.329C555.581 199.259 547.161 190.659 544.571 179.319L542.151 168.669C542.061 168.259 541.701 168.219 541.591 168.219L541.571 168.239Z" fill="#E4DEDE"/>
<path d="M34.9821 283.031C42.8908 283.031 49.3021 276.619 49.3021 268.711C49.3021 260.802 42.8908 254.391 34.9821 254.391C27.0734 254.391 20.6621 260.802 20.6621 268.711C20.6621 276.619 27.0734 283.031 34.9821 283.031Z" fill="white"/>
<path d="M34.9814 284.22C26.5014 284.22 19.5514 277.36 19.4714 268.86C19.3914 260.31 26.2814 253.29 34.8314 253.2C34.8814 253.2 34.9314 253.2 34.9814 253.2C43.4614 253.2 50.4114 260.06 50.4914 268.56C50.5714 277.11 43.6814 284.14 35.1314 284.22C35.0814 284.22 35.0314 284.22 34.9814 284.22ZM34.9814 255.59C34.9814 255.59 34.9014 255.59 34.8514 255.59C27.6114 255.66 21.7814 261.6 21.8514 268.84C21.9214 276.03 27.7914 281.84 34.9714 281.84C35.0114 281.84 35.0514 281.84 35.1014 281.84C42.3414 281.77 48.1714 275.83 48.1014 268.59C48.0314 261.4 42.1614 255.59 34.9814 255.59Z" fill="#E4DEDE"/>
<path d="M411.452 53.3795V269.399H152.082V53.6595C152.082 50.3795 155.762 47.7295 160.302 47.7295H403.592C407.922 47.7295 411.452 50.2595 411.452 53.3795Z" fill="#FF6D2A"/>
<path d="M413.841 271.79H149.691V53.6596C149.691 48.9996 154.351 45.3496 160.301 45.3496H403.591C409.331 45.3496 413.831 48.8796 413.831 53.3896V271.79H413.841ZM154.471 267.02H409.071V53.3796C409.071 51.8396 406.821 50.1196 403.601 50.1196H160.301C156.861 50.1196 154.461 51.9896 154.461 53.6596V267.02H154.471Z" fill="white"/>
<path d="M352.892 68.6291C355.311 68.6291 357.272 66.6681 357.272 64.2491C357.272 61.8301 355.311 59.8691 352.892 59.8691C350.473 59.8691 348.512 61.8301 348.512 64.2491C348.512 66.6681 350.473 68.6291 352.892 68.6291Z" fill="#EE4A00"/>
<path d="M366.651 68.6291C369.07 68.6291 371.031 66.6681 371.031 64.2491C371.031 61.8301 369.07 59.8691 366.651 59.8691C364.232 59.8691 362.271 61.8301 362.271 64.2491C362.271 66.6681 364.232 68.6291 366.651 68.6291Z" fill="#EE4A00"/>
<path d="M380.411 68.6291C382.83 68.6291 384.791 66.6681 384.791 64.2491C384.791 61.8301 382.83 59.8691 380.411 59.8691C377.992 59.8691 376.031 61.8301 376.031 64.2491C376.031 66.6681 377.992 68.6291 380.411 68.6291Z" fill="#EE4A00"/>
<path d="M394.642 68.6291C397.061 68.6291 399.022 66.6681 399.022 64.2491C399.022 61.8301 397.061 59.8691 394.642 59.8691C392.223 59.8691 390.262 61.8301 390.262 64.2491C390.262 66.6681 392.223 68.6291 394.642 68.6291Z" fill="#EE4A00"/>
<path d="M411.452 77.3193H152.082V81.8593H411.452V77.3193Z" fill="white"/>
<path d="M163.131 337.96C185.548 337.96 203.721 319.788 203.721 297.37C203.721 274.953 185.548 256.78 163.131 256.78C140.714 256.78 122.541 274.953 122.541 297.37C122.541 319.788 140.714 337.96 163.131 337.96Z" fill="#EE4A00"/>
<path d="M163.101 339.75C140.931 339.75 122.231 322.44 120.831 300.01C120.131 288.71 123.861 277.82 131.351 269.33C138.841 260.84 149.191 255.78 160.481 255.08C171.781 254.38 182.671 258.11 191.161 265.6C199.651 273.09 204.711 283.44 205.411 294.73C206.871 318.05 189.081 338.21 165.761 339.67C164.871 339.73 163.981 339.75 163.091 339.75H163.101ZM163.151 258.57C162.341 258.57 161.531 258.59 160.711 258.65C150.371 259.3 140.891 263.93 134.041 271.7C127.181 279.47 123.761 289.45 124.411 299.79C125.741 321.14 144.181 337.44 165.551 336.1C186.901 334.77 203.191 316.31 201.851 294.96C200.571 274.43 183.451 258.58 163.151 258.58V258.57Z" fill="white"/>
<path d="M157.512 324.241L159.312 319.081C161.172 319.471 163.112 319.601 165.092 319.481C166.702 319.381 168.252 319.111 169.742 318.691L172.032 323.331C172.892 325.071 174.992 325.781 176.732 324.921C178.472 324.061 179.182 321.961 178.322 320.221L176.102 315.721C179.022 313.761 181.442 311.101 183.142 308.021L187.692 309.601C189.522 310.231 191.522 309.271 192.152 307.441C192.782 305.611 191.822 303.611 189.992 302.981L185.522 301.421C185.852 299.661 185.972 297.821 185.862 295.951C185.742 294.071 185.402 292.271 184.842 290.561L189.092 288.461C190.832 287.601 191.542 285.491 190.682 283.761C189.822 282.021 187.722 281.311 185.982 282.171L181.672 284.301C179.602 281.461 176.862 279.121 173.722 277.541L175.372 272.801C176.002 270.971 175.042 268.971 173.212 268.341C171.382 267.711 169.382 268.671 168.752 270.501L167.052 275.391C165.512 275.161 163.942 275.081 162.332 275.181C160.352 275.301 158.442 275.681 156.642 276.301L154.222 271.411C153.362 269.671 151.262 268.961 149.522 269.821C148.212 270.461 147.492 271.821 147.582 273.181C147.612 273.631 147.722 274.081 147.932 274.521L150.422 279.571C147.782 281.551 145.602 284.111 144.052 287.041L138.562 285.141C136.732 284.511 134.732 285.471 134.102 287.301C133.942 287.751 133.892 288.211 133.922 288.671C134.012 290.031 134.892 291.291 136.272 291.771L141.832 293.701C141.562 295.321 141.462 297.011 141.572 298.721C141.682 300.431 141.982 302.101 142.452 303.671L137.172 306.281C135.862 306.921 135.142 308.281 135.232 309.641C135.262 310.091 135.372 310.541 135.582 310.981C136.442 312.721 138.542 313.431 140.282 312.571L145.492 310.001C147.392 312.711 149.872 314.981 152.742 316.621L150.902 321.941C150.742 322.391 150.692 322.851 150.722 323.311C150.812 324.671 151.692 325.931 153.072 326.411C154.902 327.041 156.902 326.081 157.532 324.251L157.512 324.241ZM151.872 306.841C150.412 305.041 149.362 302.881 148.852 300.511C148.702 299.781 148.592 299.041 148.552 298.281C148.512 297.521 148.512 296.771 148.572 296.031C148.782 293.621 149.552 291.351 150.782 289.371C151.562 288.121 152.502 286.981 153.602 286.011C155.342 284.451 157.442 283.291 159.772 282.651C160.742 282.401 161.732 282.231 162.762 282.171C163.402 282.131 164.042 282.121 164.682 282.171C167.102 282.311 169.392 283.051 171.402 284.221C172.852 285.081 174.162 286.181 175.252 287.461C176.762 289.231 177.882 291.361 178.452 293.701C178.672 294.561 178.812 295.461 178.862 296.381C178.912 297.301 178.892 298.201 178.782 299.091C178.512 301.481 177.672 303.741 176.382 305.681C175.452 307.081 174.292 308.341 172.962 309.371C171.122 310.781 168.932 311.801 166.552 312.241C165.932 312.371 165.292 312.451 164.652 312.491C163.622 312.551 162.622 312.511 161.622 312.391C159.232 312.051 157.002 311.161 155.082 309.831C153.872 309.001 152.792 308.001 151.862 306.851L151.872 306.841Z" fill="white"/>
<path d="M163.133 303.21C166.358 303.21 168.973 300.596 168.973 297.37C168.973 294.145 166.358 291.53 163.133 291.53C159.908 291.53 157.293 294.145 157.293 297.37C157.293 300.596 159.908 303.21 163.133 303.21Z" fill="white"/>
<path d="M180.59 227.97C224.353 227.97 259.83 192.493 259.83 148.73C259.83 104.967 224.353 69.4902 180.59 69.4902C136.827 69.4902 101.35 104.967 101.35 148.73C101.35 192.493 136.827 227.97 180.59 227.97Z" fill="#1A3C7D"/>
<path d="M180.49 229.76C170.62 229.76 160.6 227.95 150.87 224.11C130.73 216.17 114.9 200.87 106.27 181.02C97.6404 161.17 97.2704 139.15 105.2 119.02C113.14 98.8898 128.44 83.0498 148.29 74.4198C168.14 65.7898 190.16 65.4198 210.29 73.3498C230.42 81.2898 246.26 96.5898 254.89 116.44C263.52 136.29 263.89 158.31 255.96 178.44C243.41 210.28 212.8 229.76 180.48 229.76H180.49ZM180.57 71.2398C170.09 71.2398 159.62 73.3998 149.72 77.6998C130.75 85.9398 116.12 101.08 108.54 120.33C100.95 139.57 101.32 160.62 109.56 179.6C117.8 198.57 132.94 213.2 152.19 220.78C191.92 236.44 236.98 216.86 252.64 177.13C260.23 157.88 259.86 136.84 251.62 117.86C243.38 98.8898 228.24 84.2598 208.99 76.6798C199.79 73.0498 190.17 71.2398 180.57 71.2398Z" fill="white"/>
<path d="M223.45 180.9L215.82 173.46C218.04 170.49 219.89 167.17 221.31 163.57C222.46 160.64 223.27 157.67 223.76 154.68L233.87 154.47C237.65 154.39 240.65 151.26 240.57 147.48C240.49 143.7 237.36 140.7 233.58 140.78L223.79 140.99C222.74 134.2 220.05 127.73 216.01 122.17L222.56 115.44C225.2 112.73 225.14 108.39 222.43 105.76C219.72 103.12 215.38 103.18 212.75 105.89L206.29 112.51C203.45 110.46 200.31 108.73 196.89 107.38C193.47 106.03 190 105.15 186.52 104.71L186.32 95.4598C186.24 91.6798 183.09 88.6698 179.33 88.7598C175.55 88.8398 172.55 91.9698 172.63 95.7498L172.83 105.14C166.09 106.45 159.7 109.35 154.3 113.6L147.29 106.77C144.58 104.13 140.24 104.19 137.61 106.9C134.97 109.61 135.03 113.95 137.74 116.58L144.99 123.63C143.31 126.15 141.87 128.87 140.72 131.8C139.3 135.41 138.39 139.09 137.99 142.78L127.33 143.02C123.55 143.1 120.55 146.23 120.63 150.01C120.69 152.85 122.49 155.25 124.97 156.23C125.8 156.56 126.68 156.73 127.62 156.71L138.62 156.48C139.93 162.78 142.65 168.76 146.55 173.92L138.64 182.05C136 184.76 136.06 189.1 138.77 191.73C139.44 192.39 140.21 192.86 141.04 193.19C143.52 194.17 146.47 193.64 148.45 191.6L156.47 183.37C159.11 185.19 162.02 186.76 165.14 187.99C168.26 189.22 171.46 190.06 174.63 190.53L174.88 202.02C174.94 204.86 176.74 207.26 179.22 208.24C180.05 208.57 180.93 208.74 181.87 208.72C185.65 208.64 188.65 205.51 188.57 201.73L188.33 190.39C194.7 189.27 200.76 186.76 206.03 183.05L213.91 190.72C214.58 191.38 215.35 191.85 216.18 192.18C218.66 193.16 221.61 192.63 223.59 190.59C226.23 187.88 226.17 183.54 223.46 180.91L223.45 180.9ZM188.02 176.47C183.62 177.56 178.94 177.62 174.33 176.56C172.92 176.22 171.52 175.8 170.14 175.25C168.76 174.7 167.45 174.07 166.18 173.35C162.09 170.98 158.71 167.74 156.24 163.94C154.67 161.53 153.44 158.92 152.64 156.17C151.32 151.8 151.01 147.12 151.81 142.48C152.17 140.56 152.7 138.66 153.44 136.8C153.9 135.63 154.42 134.49 155.04 133.41C157.29 129.25 160.49 125.8 164.22 123.23C166.93 121.38 169.96 119.98 173.13 119.09C177.51 117.87 182.2 117.66 186.8 118.6C188.51 118.93 190.2 119.43 191.88 120.09C193.56 120.75 195.13 121.54 196.6 122.47C200.61 124.93 203.89 128.28 206.26 132.16C207.97 134.97 209.23 138.06 209.95 141.26C210.92 145.69 210.91 150.39 209.72 154.97C209.44 156.18 209.04 157.37 208.58 158.54C207.84 160.41 206.93 162.16 205.89 163.8C203.31 167.73 199.89 170.94 195.94 173.24C193.48 174.7 190.8 175.77 188 176.46L188.02 176.47Z" fill="white"/>
<path d="M180.591 160.13C186.887 160.13 191.991 155.026 191.991 148.73C191.991 142.434 186.887 137.33 180.591 137.33C174.295 137.33 169.191 142.434 169.191 148.73C169.191 155.026 174.295 160.13 180.591 160.13Z" fill="white"/>
<path d="M229.681 300.9C258.201 300.9 281.321 277.78 281.321 249.26C281.321 220.74 258.201 197.62 229.681 197.62C201.161 197.62 178.041 220.74 178.041 249.26C178.041 277.78 201.161 300.9 229.681 300.9Z" fill="#06296B"/>
<path d="M229.601 302.69C216.921 302.69 204.781 298.23 195.031 289.92C172.611 270.81 169.921 237.02 189.031 214.6C198.291 203.74 211.221 197.13 225.451 196C239.681 194.87 253.491 199.34 264.351 208.6C275.211 217.86 281.821 230.79 282.951 245.02C284.081 259.25 279.611 273.06 270.351 283.92C261.091 294.78 248.161 301.39 233.931 302.52C232.481 302.64 231.041 302.69 229.601 302.69ZM229.771 199.41C228.431 199.41 227.081 199.46 225.731 199.57C212.461 200.63 200.391 206.79 191.751 216.92C173.921 237.84 176.431 269.36 197.351 287.19C218.271 305.02 249.791 302.51 267.621 281.59C276.261 271.46 280.431 258.57 279.371 245.29C278.311 232.02 272.151 219.95 262.021 211.31C252.921 203.55 241.591 199.39 229.761 199.39L229.771 199.41Z" fill="white"/>
<path d="M249.3 278.15L246.17 271.95C248.17 270.59 250.01 268.94 251.65 267.01C252.98 265.45 254.1 263.79 255.04 262.05L261.31 264.06C263.66 264.81 266.17 263.51 266.92 261.17C267.67 258.82 266.37 256.31 264.03 255.56L257.95 253.62C258.74 249.21 258.45 244.65 257.14 240.37L262.6 237.61C264.8 236.5 265.68 233.81 264.57 231.61C263.46 229.41 260.77 228.53 258.57 229.64L253.19 232.36C251.87 230.49 250.3 228.76 248.48 227.21C246.66 225.66 244.7 224.38 242.65 223.37L244.48 217.63C245.23 215.28 243.92 212.76 241.59 212.02C239.24 211.27 236.73 212.57 235.98 214.91L234.12 220.74C229.69 220.12 225.14 220.56 220.91 222.03L218.03 216.34C216.92 214.14 214.23 213.26 212.03 214.37C209.83 215.48 208.95 218.17 210.06 220.37L213.04 226.25C211.47 227.45 210.01 228.82 208.68 230.38C207.04 232.3 205.7 234.38 204.67 236.57L198.05 234.46C195.7 233.71 193.19 235.01 192.44 237.35C191.87 239.11 192.48 240.97 193.8 242.1C194.24 242.48 194.75 242.77 195.33 242.96L202.16 245.15C201.64 249.31 202.05 253.57 203.36 257.58L196.76 260.92C194.56 262.03 193.68 264.72 194.79 266.92C195.07 267.47 195.44 267.92 195.88 268.3C197.2 269.43 199.13 269.73 200.79 268.89L207.48 265.51C208.72 267.19 210.19 268.77 211.85 270.19C213.51 271.61 215.3 272.8 217.16 273.76L214.88 280.9C214.31 282.66 214.92 284.52 216.24 285.65C216.68 286.03 217.19 286.32 217.77 286.51C220.12 287.26 222.63 285.96 223.38 283.62L225.63 276.58C229.79 277.24 234.06 276.97 238.09 275.8L241.33 282.19C241.61 282.74 241.98 283.19 242.42 283.57C243.74 284.7 245.67 285 247.33 284.16C249.53 283.05 250.41 280.36 249.3 278.16V278.15ZM228.39 267.93C225.45 267.67 222.55 266.72 219.93 265.09C219.13 264.58 218.36 264.02 217.62 263.4C216.88 262.78 216.21 262.1 215.58 261.39C213.56 259.06 212.16 256.35 211.44 253.49C210.98 251.67 210.78 249.8 210.86 247.94C210.97 244.97 211.77 242.02 213.24 239.33C213.87 238.23 214.6 237.17 215.44 236.17C215.97 235.55 216.53 234.95 217.15 234.42C219.42 232.33 222.12 230.88 224.96 230.09C227.02 229.53 229.19 229.3 231.33 229.42C234.29 229.6 237.22 230.46 239.86 232.01C240.84 232.57 241.78 233.24 242.67 234C243.56 234.76 244.37 235.58 245.08 236.46C247.03 238.82 248.34 241.59 248.99 244.48C249.45 246.57 249.57 248.74 249.34 250.87C249 253.81 248 256.7 246.3 259.27C245.87 259.96 245.37 260.61 244.84 261.23C243.99 262.23 243.06 263.11 242.07 263.91C239.65 265.79 236.86 267.04 233.94 267.62C232.11 268 230.24 268.09 228.37 267.93H228.39Z" fill="white"/>
<path d="M229.68 256.69C233.783 256.69 237.11 253.364 237.11 249.26C237.11 245.157 233.783 241.83 229.68 241.83C225.577 241.83 222.25 245.157 222.25 249.26C222.25 253.364 225.577 256.69 229.68 256.69Z" fill="white"/>
<path d="M472.981 319.66C468.471 322.94 462.101 321.94 458.811 317.43L419.271 262.23C415.991 257.72 416.991 251.35 421.501 248.06C426.011 244.78 432.381 245.78 435.671 250.29L475.211 305.49C478.491 310 477.491 316.37 472.981 319.66Z" fill="#05183C"/>
<path d="M467.051 323.38C466.421 323.38 465.791 323.33 465.151 323.23C461.991 322.73 459.231 321.04 457.361 318.48L417.821 263.27C415.961 260.71 415.201 257.56 415.701 254.41C416.201 251.25 417.881 248.49 420.451 246.62C423.021 244.75 426.171 243.99 429.321 244.49C432.481 244.99 435.241 246.67 437.111 249.24L476.651 304.45C478.511 307.01 479.271 310.16 478.771 313.31C478.271 316.47 476.591 319.23 474.021 321.1C471.971 322.59 469.541 323.38 467.041 323.38H467.051ZM427.441 247.92C425.691 247.92 423.991 248.47 422.561 249.51C418.841 252.22 418.011 257.45 420.721 261.18L460.261 316.39C462.961 320.1 468.201 320.93 471.921 318.22C475.641 315.51 476.471 310.28 473.761 306.55L434.221 251.34C432.921 249.56 430.981 248.38 428.771 248.03C428.331 247.96 427.881 247.93 427.441 247.93V247.92Z" fill="white"/>
<path d="M444.282 262.48L426.712 275.27C425.172 276.39 423.012 276.05 421.892 274.51L411.992 260.9L435.142 244.05L445.042 257.66C446.162 259.2 445.822 261.36 444.282 262.48Z" fill="#06296B"/>
<path d="M424.692 277.71C423.072 277.71 421.472 276.96 420.452 275.56L409.492 260.5L435.542 241.55L446.502 256.61C447.322 257.74 447.662 259.13 447.442 260.51C447.222 261.89 446.482 263.11 445.352 263.93L427.782 276.72C426.852 277.4 425.772 277.72 424.702 277.72L424.692 277.71ZM414.492 261.29L423.342 273.45C423.882 274.19 424.922 274.36 425.662 273.82L443.232 261.03C443.592 260.77 443.822 260.38 443.892 259.95C443.962 259.51 443.852 259.07 443.592 258.71L434.742 246.55L414.482 261.29H414.492Z" fill="white"/>
<path d="M441.781 173.53C422.201 146.63 384.521 140.69 357.621 160.26C330.701 179.84 324.771 217.53 344.351 244.43C360.831 267.07 390.131 274.87 415.041 265.09C416.661 264.47 418.261 263.76 419.831 262.97C422.831 261.48 425.731 259.72 428.531 257.69C431.331 255.66 433.881 253.43 436.231 251.04C437.001 250.25 437.751 249.44 438.461 248.61C456.591 227.91 458.671 196.73 441.791 173.53H441.781ZM359.971 233.07C346.671 214.8 350.711 189.21 368.981 175.9C387.271 162.6 412.871 166.63 426.161 184.9C439.471 203.18 435.431 228.78 417.151 242.09C398.881 255.39 373.281 251.35 359.971 233.07Z" fill="#06296B" stroke="white" stroke-width="3.58" stroke-miterlimit="10"/>
<path d="M417.163 242.081C415.303 243.431 413.373 244.601 411.393 245.601V172.371C417.073 175.211 422.183 179.411 426.163 184.901C439.473 203.181 435.443 228.781 417.163 242.081Z" fill="#E4DEDE"/>
<path d="M409.002 249.481V168.511L412.452 170.241C418.622 173.321 424.022 177.911 428.082 183.501C434.892 192.851 437.652 204.301 435.862 215.731C434.062 227.161 427.922 237.201 418.562 244.011C416.652 245.401 414.592 246.651 412.462 247.731L409.002 249.481ZM413.772 176.451V241.491C414.452 241.061 415.112 240.611 415.762 240.141C424.082 234.081 429.552 225.151 431.152 214.981C432.752 204.811 430.292 194.621 424.232 186.301C421.352 182.331 417.842 179.031 413.772 176.451Z" fill="white"/>
<path d="M411.392 172.371V245.601C393.802 254.421 371.942 249.481 359.972 233.061C346.682 214.791 350.712 189.201 368.992 175.891C381.792 166.581 398.162 165.771 411.392 172.371Z" fill="#FF9460"/>
<path d="M393.041 252.351C379.581 252.351 366.471 246.041 358.041 234.471C344.001 215.171 348.281 188.031 367.581 173.971C380.721 164.421 397.911 162.991 412.451 170.241L413.771 170.901V247.081L412.451 247.741C406.231 250.861 399.591 252.361 393.031 252.361L393.041 252.351ZM393.061 170.421C385.061 170.421 377.131 172.921 370.391 177.821C353.211 190.331 349.401 214.481 361.901 231.661C372.771 246.581 392.381 251.681 409.001 244.101V173.881C403.901 171.571 398.471 170.431 393.061 170.431V170.421Z" fill="white"/>
<path d="M369.451 230.63C369.081 230.63 368.711 230.45 368.491 230.13C362.061 220.86 359.841 210.08 362.421 200.54C364.741 191.96 370.681 185.06 379.141 181.11C379.731 180.84 380.421 181.09 380.691 181.68C380.961 182.26 380.711 182.96 380.121 183.23C372.291 186.88 366.801 193.25 364.671 201.15C362.281 210.02 364.371 220.09 370.411 228.8C370.781 229.33 370.651 230.06 370.121 230.43C369.921 230.57 369.681 230.64 369.451 230.64V230.63Z" fill="white"/>
</svg>
