<svg width="600" height="530" viewBox="0 0 600 530" fill="none" xmlns="http://www.w3.org/2000/svg">
<g clip-path="url(#clip0_482_2)">
<path d="M277.62 293.961C277.62 293.961 277.61 293.991 277.61 294.001H277.6L277.62 293.961Z" fill="#05183C"/>
<path d="M279.5 292.091C279.44 292.111 279.39 292.131 279.33 292.161C279.35 292.161 279.38 292.131 279.41 292.121C279.44 292.111 279.47 292.091 279.5 292.091Z" fill="#05183C"/>
<path d="M283.06 292.591C283.06 292.591 283.02 292.571 283 292.551C283.02 292.561 283.04 292.581 283.06 292.591Z" fill="#05183C"/>
<path d="M284.14 294.121H284.13C284.13 294.121 284.11 294.031 284.09 293.991C284.11 294.031 284.13 294.081 284.14 294.121Z" fill="#05183C"/>
<path d="M280.92 291.561L280.91 291.571L266.62 285.791V285.781L280.92 291.561Z" fill="#05183C"/>
<path d="M357.68 263.68L355.64 264.42L355.2 263.44L357.68 263.68Z" fill="#05183C"/>
<path d="M418.62 241.551L418.63 241.491L418.75 241.501L418.62 241.551Z" fill="#05183C"/>
<path d="M421.63 210.601L418.63 241.481L336.02 233.451L299.52 229.891L284.42 228.431L285 230.491L285.59 232.561L372 240.961L410.05 244.661L366.41 260.511H366.4L353.31 259.241L354.26 261.341L355.2 263.441L310.61 259.101L293.41 284.561L270 282.281C268.34 282.121 266.86 283.331 266.7 285.001L266.62 285.781L242.18 275.901H242.17L240.67 275.291L240.27 275.121L239.17 274.671H239.15L236.13 273.451L205.02 260.851H205.01L200.48 259.021L187.03 253.571H187.02L182.5 251.741L170.85 247.021H170.84L168.09 245.911L136.9 233.281H136.89L134.54 232.331L132.2 231.381L117.32 225.361L129.18 220.711L131.05 219.971L132.93 219.241L159.42 208.851L230.09 181.121H230.1L232.18 180.311L234.27 179.481L237.88 178.071L254.64 171.491H254.65L256.73 170.681L258.82 169.851H258.83L263.23 168.131L265.09 167.391L266.97 166.661L281.43 160.991L284.89 159.631C287.45 158.631 290.26 158.631 292.81 159.631L317.1 169.241L326.44 172.931H326.45L336.67 176.981H336.68L369.57 190.011H369.58L400.71 202.321L421.64 210.601H421.63Z" fill="#05183C"/>
<path d="M460.98 226.171L447.26 231.151L448.24 221.131L460.98 226.171Z" fill="#05183C"/>
<path d="M277.6 294C277.6 294 277.59 294.02 277.59 294.03C277.59 294.03 277.6 294.01 277.61 294C277.61 293.99 277.61 293.98 277.62 293.96L277.6 294ZM279.41 292.12C279.41 292.12 279.35 292.15 279.33 292.16C279.39 292.13 279.44 292.11 279.5 292.09C279.47 292.09 279.44 292.11 279.41 292.12ZM200.5 259.01L187.04 253.57L200.49 259.02L205.02 260.85L200.51 259.01H200.5ZM242.19 275.89L240.27 275.12L240.67 275.29L242.17 275.9H242.18L266.62 285.78L242.19 275.89ZM239.16 274.67L240.27 275.12L239.17 274.67H239.16ZM205.02 260.85L236.13 273.45L239.15 274.67H239.16L236.15 273.44L205.02 260.85ZM266.62 285.78L280.91 291.57H280.92L266.62 285.78ZM283 292.55C283 292.55 283.04 292.58 283.06 292.6C283.06 292.6 283.02 292.56 283 292.55ZM284.09 293.99C284.09 293.99 284.12 294.08 284.13 294.12H284.14C284.14 294.12 284.11 294.03 284.09 293.99Z" fill="white"/>
<path d="M277.31 312.221L276.86 522.641C276.81 522.621 276.75 522.601 276.7 522.581L120.54 460.121C116.46 458.481 113.8 454.591 113.75 450.191L112.24 308.161L240.79 359.931C242.64 360.671 244.54 361.031 246.41 361.031C246.8 361.031 247.19 361.011 247.58 360.981C248.2 360.931 248.81 360.851 249.41 360.711C250.5 360.491 251.57 360.141 252.57 359.671C252.81 359.561 253.05 359.451 253.28 359.321C253.45 359.231 253.61 359.141 253.77 359.051C253.99 358.921 254.21 358.791 254.42 358.651C256.79 357.111 258.75 354.871 259.97 352.071L277.31 312.221Z" fill="#1A3C7D"/>
<path d="M283 292.551C283 292.551 283.04 292.581 283.06 292.601C283.06 292.601 283.02 292.561 283 292.551ZM279.41 292.121C279.41 292.121 279.35 292.151 279.33 292.161C279.39 292.131 279.44 292.111 279.5 292.091C279.47 292.091 279.44 292.111 279.41 292.121ZM277.6 294.001C277.6 294.001 277.59 294.021 277.59 294.031C277.59 294.031 277.6 294.011 277.61 294.001C277.61 293.991 277.61 293.981 277.62 293.961L277.6 294.001Z" fill="white"/>
<path d="M467.83 451.601C467.84 456.221 464.91 460.331 460.55 461.841L284.25 522.761C284.12 522.801 283.99 522.851 283.86 522.891L284.32 309.781L306.64 353.421C306.97 354.061 307.33 354.661 307.74 355.231C308.34 356.091 309.02 356.861 309.77 357.561C312.52 360.101 316.14 361.521 319.88 361.521C321.59 361.521 323.33 361.221 325.02 360.591L467.52 307.881L467.83 451.601Z" fill="#06296B"/>
<path d="M284.09 293.991C284.09 293.991 284.12 294.081 284.13 294.121H284.14C284.14 294.121 284.11 294.031 284.09 293.991ZM283 292.551C283 292.551 283.04 292.581 283.06 292.601C283.06 292.601 283.02 292.561 283 292.551ZM279.41 292.121C279.41 292.121 279.35 292.151 279.33 292.161C279.39 292.131 279.44 292.111 279.5 292.091C279.47 292.091 279.44 292.111 279.41 292.121Z" fill="white"/>
<path d="M418.76 241.5H418.75L418.62 241.55L414.41 243.08L418.43 243.47L420.42 243.66L420.61 241.68L418.76 241.5ZM168.08 245.91C168.09 246.01 168.1 246.12 168.13 246.23C168.32 246.89 168.92 247.32 169.58 247.32C169.71 247.32 169.85 247.3 169.99 247.26L170.83 247.02L168.08 245.91ZM362.05 262.1L357.69 263.68L373.85 265.26H373.89L373.91 265.24H373.92L378.22 263.67L362.05 262.1ZM422.61 241.87L422.79 240.04L420.7 240.8L418.76 241.5H418.75L418.62 241.55L414.41 243.08L418.43 243.47L420.42 243.66L422.41 243.86L430.59 244.65H430.61L432.34 244.02L434.95 243.07L422.61 241.87ZM447 213.11L445.07 212.35L426.21 204.89L424.27 204.12L422.34 203.36L399.6 194.36L394.17 192.21L372.84 183.77L362.28 179.59H362.25L352.05 175.54H352.02L337.83 169.92L327.59 165.87L317.83 162.01L295.37 153.12C291.17 151.47 286.54 151.46 282.32 153.11L282.21 153.15L265.05 159.89L263.17 160.62L261.3 161.35L259.58 162.03L257.48 162.85L255.4 163.67H255.39L235.95 171.3L235.02 171.66L232.93 172.48L230.85 173.3L213.26 180.2L205.52 183.24L183.28 191.96L156.04 202.64L131 212.47L129.13 213.2L127.26 213.93L129.17 220.71L131.04 219.97L132.92 219.24L159.41 208.85L230.08 181.12H230.09L232.17 180.31L234.26 179.48L234.85 179.25L237.87 178.07L254.63 171.49H254.64L256.72 170.68L258.81 169.85H258.82L263.22 168.13L265.08 167.39L266.96 166.66L281.42 160.99L284.88 159.63C287.44 158.63 290.25 158.63 292.8 159.63L317.09 169.24L326.43 172.93H326.44L336.66 176.98H336.67L343.14 179.55L369.56 190.01H369.57L400.7 202.32L421.63 210.6L423.56 211.37L425.5 212.13L444.37 219.6L446.3 220.36L448.24 221.13L448.94 213.88L447 213.11ZM414.41 243.08L418.43 243.47L418.62 241.55L414.41 243.08Z" fill="white"/>
<path d="M284.14 294.121H284.13C284.13 294.121 284.11 294.031 284.09 293.991C284.11 294.031 284.13 294.081 284.14 294.121ZM283.06 292.591C283.06 292.591 283.02 292.571 283 292.551C283.02 292.561 283.04 292.581 283.06 292.591ZM279.41 292.121C279.41 292.121 279.47 292.091 279.5 292.091C279.44 292.111 279.39 292.131 279.33 292.161C279.35 292.161 279.38 292.131 279.41 292.121ZM277.6 294.001L277.62 293.961C277.62 293.961 277.61 293.991 277.61 294.001C277.6 294.011 277.59 294.021 277.59 294.031C277.59 294.031 277.6 294.011 277.6 294.001ZM276.86 522.641C276.81 522.621 276.75 522.601 276.7 522.581L120.54 460.121C116.46 458.481 113.8 454.591 113.75 450.191L113.6 436.231L112.24 308.161L240.79 359.931C242.64 360.671 244.54 361.031 246.41 361.031C246.8 361.031 247.19 361.011 247.58 360.981C248.2 360.931 248.81 360.851 249.41 360.711C250.5 360.491 251.57 360.141 252.57 359.671C252.81 359.561 253.05 359.451 253.28 359.321C253.45 359.231 253.61 359.141 253.77 359.051C253.99 358.921 254.21 358.791 254.42 358.651C256.79 357.111 258.75 354.871 259.97 352.071L277.31 312.221L276.97 470.851L276.86 522.641ZM467.83 451.601C467.84 456.221 464.91 460.331 460.55 461.841L284.25 522.761C284.12 522.801 283.99 522.851 283.86 522.891L283.97 470.991L284.32 309.781L306.64 353.421C306.97 354.061 307.33 354.661 307.74 355.231C308.34 356.091 309.02 356.861 309.77 357.561C312.52 360.101 316.14 361.521 319.88 361.521C321.59 361.521 323.33 361.221 325.02 360.591L467.52 307.881L467.8 436.371L467.83 451.601ZM505.73 274.551L473.88 224.561L473.8 224.431C473.64 224.181 473.45 223.961 473.24 223.761C473.19 223.701 473.13 223.651 473.07 223.611C472.92 223.481 472.76 223.371 472.6 223.281C472.53 223.241 472.46 223.201 472.38 223.171C472.29 223.121 472.19 223.081 472.09 223.041L448.94 213.881L448.24 221.131L460.98 226.171L447.26 231.151L445.18 231.911H445.17L443.1 232.661L422.79 240.041L422.61 241.871L434.95 243.071L442.34 240.391L443.09 240.111L443.44 239.981L444.41 239.631L446.5 238.881L469.4 230.561L499.82 278.311C501.1 280.321 501.4 282.781 500.64 285.041C499.88 287.311 498.15 289.091 495.91 289.921L469.82 299.571L322.58 354.031C318.86 355.411 314.68 353.781 312.87 350.241L285.76 297.251L314.93 286.651L373.84 265.261L357.68 263.681H357.67L355.63 264.421L298.75 285.081L280.91 291.561H280.9L266.61 285.791L242.17 275.901H242.16L240.66 275.291L240.26 275.121L239.16 274.671H239.14L236.12 273.451L205.01 260.851H205L200.47 259.021L187.02 253.571H187.01L182.49 251.741L170.84 247.021H170.83L169.99 247.261C169.85 247.301 169.71 247.321 169.58 247.321C168.92 247.321 168.32 246.891 168.13 246.231C168.1 246.121 168.09 246.011 168.08 245.911L136.89 233.281H136.88L134.53 232.331L132.19 231.381L117.31 225.361L129.17 220.711L127.26 213.931L106.57 222.051L106.51 222.081C106.33 222.161 106.15 222.251 105.97 222.361C105.86 222.431 105.76 222.501 105.67 222.581C105.53 222.691 105.4 222.801 105.29 222.931C105.17 223.061 105.07 223.191 104.97 223.331C104.91 223.401 104.87 223.471 104.83 223.551C104.82 223.561 104.81 223.581 104.8 223.591L75.66 275.311C73.56 279.041 73.17 283.491 74.58 287.521C75.99 291.561 79.08 294.791 83.05 296.401L105.2 305.321L106.56 432.951L106.75 450.271C106.82 457.501 111.22 463.921 117.94 466.621L274.09 529.081C276.03 529.851 278.09 530.281 280.22 530.341H280.35C280.49 530.341 280.63 530.351 280.77 530.351C282.73 530.351 284.66 530.021 286.53 529.381L462.83 468.461C470.01 465.971 474.83 459.201 474.83 451.601V451.581L474.79 433.071L474.52 305.301L498.35 296.481H498.36C502.59 294.911 505.85 291.551 507.28 287.271C508.72 282.991 508.16 278.361 505.73 274.551ZM276.21 297.211L253.55 349.281C251.87 353.151 247.33 355.011 243.41 353.431L109.91 299.661L85.67 289.901C83.57 289.061 81.94 287.341 81.19 285.211C80.44 283.071 80.65 280.721 81.76 278.751L109.39 229.711L134.6 239.911L134.79 239.991L135.09 240.111L136.94 240.861H136.95L137.24 240.981L138.35 241.431L138.88 241.641L138.92 241.661L139.03 241.701L139.26 241.801H139.3L171.63 254.891L176.04 256.671L178.59 257.711L180.38 258.431L181.88 259.041H181.9L183.02 259.501L189.49 262.121L194.01 263.951H194.02L212.77 271.541L224.58 276.321L225.14 276.551H225.15L228.17 277.771H228.18L231.2 278.991L266.15 293.131L276.2 297.201L276.21 297.211Z" fill="white"/>
<path d="M276.21 297.211L253.55 349.281C251.87 353.151 247.33 355.011 243.41 353.431L109.91 299.661L85.6702 289.901C83.5702 289.061 81.9402 287.341 81.1902 285.211C80.4402 283.071 80.6502 280.721 81.7602 278.751L109.39 229.711L134.6 239.911L134.79 239.991L135.09 240.111L136.94 240.861H136.95L137.24 240.981L138.35 241.431L138.88 241.641L138.92 241.661L139.03 241.701L139.26 241.801H139.3L171.63 254.891L176.03 256.681L178.59 257.711L180.38 258.431L181.88 259.041H181.9L183.02 259.501L189.49 262.121L194.01 263.951H194.02L212.77 271.541L224.58 276.321L225.14 276.551H225.15L228.17 277.771H228.18L231.19 279.001L266.15 293.141L276.2 297.211H276.21Z" fill="#1A3C7D"/>
<path d="M178.59 257.711L176.03 256.681L171.63 254.891L176.04 256.671L178.59 257.711Z" fill="#1A3C7D"/>
<path d="M266.16 293.131V293.141L231.2 279.001L228.19 277.771L231.21 278.991L266.16 293.131Z" fill="#1A3C7D"/>
<path d="M276.21 297.201V297.211L266.16 293.141L276.21 297.201Z" fill="#1A3C7D"/>
<path d="M277.61 294.001C277.61 294.001 277.59 294.021 277.59 294.031C277.59 294.031 277.6 294.011 277.6 294.001H277.61Z" fill="#1A3C7D"/>
<path d="M277.6 294.001C277.6 294.001 277.59 294.021 277.59 294.031C277.59 294.031 277.6 294.011 277.61 294.001C277.61 293.991 277.61 293.981 277.62 293.961L277.6 294.001ZM279.41 292.121C279.41 292.121 279.35 292.151 279.33 292.161C279.39 292.131 279.44 292.111 279.5 292.091C279.47 292.091 279.44 292.111 279.41 292.121ZM284.09 293.991C284.09 293.991 284.12 294.081 284.13 294.121H284.14C284.14 294.121 284.11 294.031 284.09 293.991ZM176.04 256.671L171.63 254.891L176.03 256.681L178.59 257.711L176.04 256.671ZM231.21 278.991L228.19 277.771L231.2 279.001L266.16 293.141L231.21 278.991Z" fill="white"/>
<path d="M500.65 285.041C499.89 287.311 498.16 289.091 495.92 289.921L469.83 299.571L322.59 354.031C318.87 355.411 314.69 353.781 312.88 350.241L285.77 297.251L314.94 286.651L373.85 265.261H373.89L373.9 265.251H373.91L378.22 263.671L382.58 262.091H382.59L426.23 246.241L430.58 244.661H430.61L432.34 244.021L434.95 243.071L442.34 240.391L443.09 240.111L443.44 239.981L444.41 239.641L446.5 238.881L469.4 230.561L499.82 278.311C501.1 280.321 501.4 282.781 500.64 285.041H500.65Z" fill="#06296B"/>
<path d="M314.94 286.65L285.77 297.25V297.24L314.94 286.65Z" fill="#06296B"/>
<path d="M373.92 265.23H373.93L373.9 265.25L373.86 265.26L373.92 265.23Z" fill="#06296B"/>
<path d="M432.34 244.021L430.61 244.651L430.59 244.661V244.651L432.34 244.021Z" fill="#06296B"/>
<path d="M284.09 293.99C284.09 293.99 284.12 294.08 284.13 294.12H284.14C284.14 294.12 284.11 294.03 284.09 293.99ZM283 292.55C283 292.55 283.04 292.58 283.06 292.6C283.06 292.6 283.02 292.56 283 292.55ZM277.6 294C277.6 294 277.59 294.02 277.59 294.03C277.59 294.03 277.6 294.01 277.61 294H277.6Z" fill="white"/>
<path d="M449.82 204.86C449.18 204.61 448.53 204.36 447.88 204.11C447.23 203.86 446.59 203.61 445.94 203.37C439.8 201.06 433.48 198.88 426.99 196.84C426.34 196.63 425.69 196.43 425.04 196.23C424.39 196.03 423.74 195.83 423.09 195.63C407.24 190.82 390.43 186.83 372.84 183.77C363.16 182.07 353.25 180.66 343.14 179.55C326.01 177.67 308.3 176.63 290.17 176.54C283.33 176.51 276.55 176.61 269.83 176.83C269.14 176.85 268.46 176.88 267.77 176.9C267.09 176.93 266.4 176.96 265.72 176.99C263.16 177.1 260.62 177.22 258.09 177.37H258.08C257.4 177.41 256.73 177.45 256.06 177.49C255.38 177.53 254.71 177.57 254.04 177.62C248.68 177.97 243.37 178.4 238.11 178.92C237.02 179.02 235.93 179.13 234.85 179.25C234.66 179.27 234.47 179.29 234.28 179.31C233.6 179.38 232.92 179.45 232.25 179.52C231.57 179.6 230.89 179.68 230.22 179.75C223.91 180.47 217.69 181.31 211.55 182.26C209.53 182.57 207.52 182.9 205.52 183.24C202.27 183.78 199.05 184.36 195.86 184.98C195.53 185.03 195.2 185.1 194.87 185.17C188.24 186.44 181.73 187.86 175.35 189.4C168.04 191.17 160.89 193.1 153.94 195.2C145.17 197.84 136.7 200.74 128.57 203.87C127.94 204.11 127.32 204.35 126.7 204.6C126.07 204.84 125.45 205.08 124.83 205.33C58.2998 231.88 15.1698 274.34 14.9298 322.39C14.7598 355.13 34.5298 385.48 68.0998 410.11C74.3398 414.68 81.0498 419.06 88.1998 423.21C94.0298 426.61 100.16 429.85 106.56 432.95C108.87 434.06 111.22 435.16 113.6 436.23C158.24 456.39 214.91 469.13 276.97 470.85C279.29 470.91 281.63 470.96 283.97 470.99C285.53 471.02 287.1 471.03 288.67 471.04C357.04 471.39 419.63 458.3 467.8 436.37C470.17 435.29 472.5 434.19 474.79 433.07C517.43 412.27 547.7 384.28 559.01 352.61C561.97 344.35 563.63 335.83 563.89 327.13C563.91 326.49 563.92 325.84 563.92 325.19C564.17 275.84 519.14 231.93 449.82 204.86Z" stroke="white" stroke-width="6.77" stroke-miterlimit="10"/>
<path d="M546.84 355.15L538.5 359.5C537.44 360.03 536.4 358.77 537.11 357.82L542.87 350.2C545.79 346.34 547.63 341.69 548.18 336.91C548.62 333.12 548.25 329.25 546.99 325.63L546.67 324.72L546.2 323.39C545.84 322.35 547.05 321.46 547.93 322.13H547.95C548.27 322.38 548.59 322.61 548.92 322.84C556.53 328.01 566.6 328.48 574.96 324.52L575.61 324.23L583.46 320.72C584.54 320.21 585.57 321.53 584.8 322.45L579.41 328.9L578.93 329.47C572.76 336.86 571.49 346.71 575.11 355.53C575.28 355.94 575.46 356.34 575.64 356.74C575.89 357.27 575.69 357.79 575.32 358.09C574.97 358.37 574.47 358.45 574.02 358.16L572.74 357.33L572.11 356.92C568.71 354.73 564.98 353.34 561.16 352.82C556.34 352.16 551.4 352.88 546.83 355.16L546.84 355.15Z" fill="white" stroke="#E4DEDE" stroke-width="1.27" stroke-miterlimit="10"/>
<path d="M77.9399 428.971C84.5674 428.971 89.9399 423.598 89.9399 416.971C89.9399 410.343 84.5674 404.971 77.9399 404.971C71.3125 404.971 65.9399 410.343 65.9399 416.971C65.9399 423.598 71.3125 428.971 77.9399 428.971Z" fill="white" stroke="#E4DEDE" stroke-width="2" stroke-miterlimit="10"/>
<path d="M355.64 264.42L298.76 285.08L293.41 284.56L310.61 259.1L355.2 263.44L355.64 264.42Z" fill="#EE4A00"/>
<path d="M355.2 263.44L310.61 259.1L311.89 257.22L313.16 255.33L315.07 252.51L351.9 256.09L353.31 259.24L354.26 261.34L355.2 263.44Z" fill="#EE4A00"/>
<path d="M418.62 241.55L418.63 241.49L418.75 241.5H418.76L420.7 240.8L420.61 241.68L420.42 243.66V243.67L418.43 243.48L414.41 243.08L418.62 241.55Z" fill="#FF9460"/>
<path d="M432.72 117.27L424.27 204.12L423.56 211.37L421.63 210.6L418.63 241.48V241.49L336.02 233.45L299.52 229.89L284.42 228.43L285 230.49L282.86 230.28L281.89 230.19L280.73 230.07H280.72L275.3 229.54L253.21 227.39L251.22 227.2L251.41 225.21L256.72 170.68L257.48 162.85L258.57 151.69V151.68L259.1 146.23V146.22L259.11 146.08L259.63 140.74L263.52 100.8L265.52 100.99L288.82 103.26L311.39 105.46L317.56 106.06L321.44 106.44L327.31 107.01L331.96 107.46L338.13 108.06L348.84 109.1L354.31 109.64L359.26 110.12L366.66 110.84L370.35 111.2L376.12 111.76L384.39 112.57L387.66 112.88L409.51 115.01L430.73 117.08H430.74L432.72 117.27Z" fill="#FF9460"/>
<path d="M420.7 240.8L418.76 241.5H418.63L418.62 241.55L414.41 243.08H414.38L410.05 244.66L372 240.96L410.05 244.67L418.24 245.46L422.22 245.85L422.41 243.86L422.61 241.87L422.79 240.04L420.7 240.8ZM432.91 115.28L430.93 115.08L409.71 113.02L387.28 110.84L382.57 110.38C382.57 110.38 382.57 110.37 382.56 110.38L377.95 109.93L371.94 109.34L365.55 108.72L357.86 107.97H357.85L355.23 107.72L350.37 107.24H350.36L339.69 106.2H339.68L330.83 105.34L326.62 104.93L319.47 104.24L317.78 104.07L310.27 103.34L289.04 101.28L265.73 99.0101L263.74 98.8101L261.75 98.6201L261.56 100.61L261.36 102.6L258.17 135.45V135.47L257.63 140.92L257.1 146.39L255.42 163.67L254.66 171.49L253.56 182.84L249.79 221.63L249.48 224.8L249.46 225.02L249.26 227.01L249.07 229L253.05 229.39L281.34 232.14L283.47 232.35L285.62 232.56L285.03 230.49L284.45 228.43L282.31 228.22L280.21 228.01H280.17L253.44 225.41L254.88 210.63L256.77 191.22L258.84 169.85H258.85L259.61 162.03L260.1 156.98L260.63 151.53L261.16 146.05L265.35 102.98L288.64 105.25L311.23 107.45L317.4 108.05L321.4 108.43L327.07 108.99H327.08L331.8 109.45L337.97 110.05L347.97 111.02L354.1 111.62L360.02 112.19L367.19 112.89L369.41 113.11L375.38 113.69L409.34 116.99L430.57 119.06L422.37 203.36L421.66 210.6L423.59 211.37L425.53 212.13L426.24 204.89L434.55 119.45L434.75 117.46L434.94 115.47L432.94 115.28H432.91Z" fill="white"/>
<path d="M263.52 100.8L251.22 227.2L227.83 224.92L238.53 114.94C239.41 105.87 247.47 99.23 256.55 100.12L263.52 100.8Z" fill="#EE4A00"/>
<path d="M253.02 229.39L225.65 226.73L236.55 114.76C237.54 104.61 246.61 97.1603 256.75 98.1403L265.71 99.0103L253.02 229.39ZM230.02 223.13L249.43 225.02L261.34 102.6L256.36 102.12C248.39 101.34 241.3 107.19 240.52 115.15L230.01 223.14L230.02 223.13Z" fill="white"/>
<path d="M444.37 219.6L443.1 232.66L422.79 240.04L425.5 212.13L444.37 219.6Z" fill="#EE4A00"/>
<path d="M454.51 135.961L447 213.111L446.3 220.361L444.37 219.601L425.5 212.131L423.56 211.37L424.27 204.12L432.72 117.271L434.71 117.461H434.72L439.69 117.941C448.76 118.831 455.4 126.901 454.51 135.961Z" fill="#EE4A00"/>
<path d="M422.61 241.87L422.79 240.04L420.7 240.8L418.76 241.5H418.75L418.62 241.55L418.43 243.47L420.42 243.66L422.41 243.86L430.59 244.65H430.61L432.34 244.02L434.95 243.07L422.61 241.87ZM422.61 241.87L422.79 240.04L420.7 240.8L418.76 241.5H418.63L418.62 241.55L418.43 243.47L418.24 245.46L422.22 245.85L426.23 246.24L430.58 244.66H430.61L432.34 244.02L434.95 243.07L422.61 241.87ZM422.61 241.87L422.79 240.04L420.7 240.8L418.76 241.5H418.75L418.62 241.55L418.43 243.47L420.42 243.66L422.41 243.86L430.59 244.65H430.61L432.34 244.02L434.95 243.07L422.61 241.87ZM439.88 115.95L434.91 115.47L432.91 115.27L430.93 115.08L430.74 117.08H430.73L430.54 119.06L422.34 203.36L421.63 210.6L423.56 211.37L425.5 212.13L426.21 204.89L434.52 119.45L439.5 119.93C447.45 120.71 453.3 127.81 452.52 135.77L445.07 212.35L444.37 219.6L446.3 220.36L448.24 221.13L448.94 213.88L456.5 136.16C457.49 126 450.04 116.94 439.88 115.95Z" fill="white"/>
<path d="M448.24 221.13L447.26 231.15L445.18 231.91H445.17L443.1 232.66L444.37 219.6L446.3 220.36L448.24 221.13Z" fill="white"/>
<path d="M430.59 244.65V244.66H430.58L426.23 246.24L382.59 262.09H382.58L378.24 263.67H378.22L362.05 262.1L366.4 260.51H366.41L410.05 244.67V244.66L414.38 243.08H414.41L418.43 243.47L420.42 243.66V243.67L422.41 243.86L430.59 244.65Z" fill="white"/>
<path d="M410.05 244.671L366.41 260.511H366.4L353.31 259.241L354.26 261.341L311.89 257.221L289.17 255.011L287.12 254.811L285.07 254.611L241.95 250.411H241.93C239.93 250.221 238.06 249.691 236.35 248.881H236.34C233.1 247.351 230.49 244.841 228.85 241.751C228.38 240.861 227.99 239.931 227.7 238.951C227.1 236.971 226.87 234.841 227.08 232.641L227.23 231.081L227.54 227.871L227.64 226.911L227.83 224.931L235.37 225.661L243.58 226.461H243.59L249.23 227.011L251.22 227.201L253.21 227.401L275.3 229.541L280.72 230.071L281.88 230.191L282.85 230.281L284.99 230.491L285.58 232.561L371.99 240.961L410.04 244.661L410.05 244.671Z" fill="#FF6D2A"/>
<path d="M414.41 243.08H414.38L410.05 244.66L418.24 245.46L418.43 243.48L418.62 241.55L414.41 243.08ZM422.41 243.86L420.42 243.67L420.61 241.68L418.76 241.5H418.75L418.62 241.55L414.41 243.08H414.38L410.05 244.66L418.24 245.46L422.22 245.85L426.23 246.24L430.58 244.66H430.59L422.41 243.86ZM285 230.49L282.86 230.28L281.89 230.19L280.73 230.07L275.31 229.54L253.22 227.39L253.03 229.39L281.32 232.14L283.45 232.35L285.6 232.56L285.01 230.49H285ZM247.24 248.92H247.23L241.95 250.41L285.07 254.61C285.14 254.45 285.2 254.29 285.25 254.13C285.31 253.98 285.36 253.83 285.41 253.67C285.51 253.34 285.59 253 285.67 252.66L247.24 248.92ZM354.26 261.34L353.31 259.24L313.16 255.33L289.67 253.04L287.66 252.85L285.67 252.66L247.24 248.92H247.23L242.12 248.42C241.25 248.34 240.4 248.18 239.59 247.96C235.75 246.93 232.64 244.46 230.81 241.2C230.31 240.32 229.91 239.39 229.62 238.41C229.08 236.66 228.88 234.78 229.07 232.84L229.3 230.5L229.61 227.29L229.63 227.11L230.09 227.15H230.1L238.3 227.95H238.32L249.04 229L253.02 229.39L281.31 232.14L283.44 232.35L285.59 232.56L285 230.49L284.42 228.43L299.52 229.89L284.42 228.42L282.27 228.21L280.18 228.01H280.14L253.41 225.4L251.41 225.21L249.43 225.02H249.42L248.88 224.97H248.87L240.66 224.17H240.65L230.02 223.13L228.02 222.93L226.04 222.74L225.65 226.72L225.48 228.46L225.17 231.67L225.09 232.45C224.85 234.91 225.1 237.3 225.76 239.5C226.04 240.48 226.41 241.41 226.86 242.31C228.34 245.32 230.65 247.87 233.55 249.67H233.56C234.85 250.47 236.26 251.12 237.77 251.59C239.03 251.99 240.36 252.27 241.74 252.4L284.12 256.52L286.29 256.73L288.43 256.94L310.61 259.1L355.2 263.44L354.26 261.34ZM422.41 243.86L420.42 243.67L418.43 243.47L418.62 241.55L414.41 243.08H414.38L410.05 244.66L418.24 245.46L422.22 245.85L426.23 246.24L430.58 244.66H430.59L422.41 243.86ZM366.4 260.51L362.05 262.1L357.69 263.68L373.85 265.26H373.89L373.91 265.24L378.22 263.67L382.58 262.09L366.41 260.51H366.4ZM285.67 252.66L247.24 248.92H247.23L241.95 250.41L285.07 254.61L287.12 254.81C287.21 254.58 287.29 254.34 287.35 254.09C287.48 253.69 287.58 253.27 287.66 252.85L285.67 252.66ZM285 230.49L282.86 230.28L281.89 230.19L280.73 230.07L275.31 229.54L253.22 227.39L253.03 229.39L281.32 232.14L283.45 232.35L285.6 232.56L285.01 230.49H285Z" fill="white"/>
<path d="M366.4 260.51L362.05 262.1L357.69 263.68H357.68L355.2 263.44L354.26 261.34L353.31 259.24L366.4 260.51Z" fill="white"/>
<path d="M418.62 241.55L418.63 241.49L418.75 241.5H418.76L420.7 240.8L420.61 241.68L420.42 243.66V243.67L418.43 243.48L414.41 243.08L418.62 241.55Z" fill="#FF9460"/>
<path d="M439.39 48.7296L432.91 115.27L432.72 117.27L424.27 204.12L423.56 211.37L421.63 210.6L418.63 241.48L336.02 233.45L299.52 229.89L284.42 228.43L285 230.49L282.86 230.28L281.89 230.19L280.73 230.07L275.31 229.54L253.22 227.39L251.23 227.2L251.42 225.21L256.73 170.68L257.49 162.85L258.58 151.69L259.11 146.23L259.12 146.08L259.65 140.74L263.53 100.8L263.73 98.8095L270.18 32.5095C270.46 29.5495 273.1 27.3795 276.06 27.6695L394.44 39.1895L396.43 39.3796L434.77 43.1096C437.6 43.3896 439.68 45.8996 439.4 48.7296H439.39Z" fill="#FF9460"/>
<path d="M258.81 169.85L256.74 191.22L258.82 169.85H258.81ZM420.7 240.8L418.76 241.5H418.63L418.62 241.55L414.41 243.08H414.38L410.05 244.66L372 240.96L410.05 244.67L418.24 245.46L422.22 245.85L422.41 243.86L422.61 241.87L422.79 240.04L420.7 240.8ZM439.78 43.6899C438.57 42.2199 436.85 41.3099 434.96 41.1199L276.25 25.6799C274.28 25.4899 272.36 26.0699 270.84 27.3299C269.31 28.5799 268.37 30.3499 268.18 32.3199L261.73 98.6099L261.53 100.61L261.34 102.6L258.14 135.45V135.47L257.61 140.94L257.08 146.4L255.4 163.67H255.39L254.63 171.49L253.53 182.84L249.75 221.64L249.45 224.8L249.44 224.81L249.42 225.02L249.04 229L253.02 229.39L281.31 232.14L283.44 232.35L285.59 232.56L285 230.49L284.42 228.43L282.28 228.22L280.18 228.01H280.14L253.41 225.41L254.85 210.63L256.74 191.22L258.82 169.85L259.58 162.03L260.07 156.98L260.6 151.53L261.13 146.05L265.32 102.98L265.52 100.99L265.71 99.0099L269.9 55.9099L270.1 53.9199L270.29 51.9199L272.16 32.7099C272.24 31.7999 272.68 30.9899 273.38 30.4199C274.07 29.8399 274.96 29.5699 275.86 29.6599L394.24 41.1799L398.22 41.5599L434.57 45.0999C435.41 45.1899 436.16 45.5899 436.7 46.2399C437.23 46.8899 437.48 47.6999 437.4 48.5399L435.51 67.9999L435.31 69.9899L435.12 71.9899L430.93 115.08L430.73 117.08L430.54 119.06L422.34 203.36L421.63 210.6L423.56 211.37L425.5 212.13L426.21 204.89L434.52 119.45L434.71 117.46L434.91 115.47L441.38 48.9199C441.57 47.0199 441 45.1699 439.78 43.6899Z" fill="white"/>
<path d="M425.5 212.13L422.79 240.04L420.7 240.8L418.76 241.5H418.75L418.63 241.49V241.48L421.63 210.6L423.56 211.37L425.5 212.13Z" fill="white"/>
<path d="M418.63 241.49L418.62 241.55L414.41 243.08H414.38L410.05 244.66L372 240.96L285.59 232.56L285 230.49L284.42 228.43L299.52 229.89L336.02 233.45L418.63 241.49Z" fill="#EE4A00"/>
<path d="M283.54 44.9797C285.567 44.9797 287.21 43.3365 287.21 41.3097C287.21 39.2828 285.567 37.6396 283.54 37.6396C281.513 37.6396 279.87 39.2828 279.87 41.3097C279.87 43.3365 281.513 44.9797 283.54 44.9797Z" fill="#FF6D2A"/>
<path d="M295.029 46.0998C297.056 46.0998 298.699 44.4567 298.699 42.4298C298.699 40.4029 297.056 38.7598 295.029 38.7598C293.003 38.7598 291.359 40.4029 291.359 42.4298C291.359 44.4567 293.003 46.0998 295.029 46.0998Z" fill="#FF6D2A"/>
<path d="M306.51 47.2199C308.537 47.2199 310.18 45.5768 310.18 43.5499C310.18 41.523 308.537 39.8799 306.51 39.8799C304.483 39.8799 302.84 41.523 302.84 43.5499C302.84 45.5768 304.483 47.2199 306.51 47.2199Z" fill="#FF6D2A"/>
<path d="M318.379 48.3693C320.406 48.3693 322.049 46.7262 322.049 44.6993C322.049 42.6724 320.406 41.0293 318.379 41.0293C316.353 41.0293 314.709 42.6724 314.709 44.6993C314.709 46.7262 316.353 48.3693 318.379 48.3693Z" fill="#FF6D2A"/>
<path d="M411.48 57.4298C413.507 57.4298 415.15 55.7867 415.15 53.7598C415.15 51.733 413.507 50.0898 411.48 50.0898C409.453 50.0898 407.81 51.733 407.81 53.7598C407.81 55.7867 409.453 57.4298 411.48 57.4298Z" fill="#FF6D2A"/>
<path d="M422.96 58.55C424.987 58.55 426.63 56.9068 426.63 54.88C426.63 52.8531 424.987 51.21 422.96 51.21C420.933 51.21 419.29 52.8531 419.29 54.88C419.29 56.9068 420.933 58.55 422.96 58.55Z" fill="#FF6D2A"/>
<path d="M394.416 39.1887L391.896 65.0664L395.878 65.454L398.397 39.5763L394.416 39.1887Z" fill="white"/>
<path d="M268.611 51.7727L268.224 55.7539L436.448 72.1299L436.836 68.1487L268.611 51.7727Z" fill="white"/>
<path d="M313.626 144.345L289.341 141.879C286.066 141.546 283.142 143.931 282.809 147.206L280.84 166.596C280.507 169.871 282.892 172.795 286.167 173.128L310.452 175.595C313.727 175.927 316.651 173.542 316.984 170.267L318.953 150.877C319.286 147.602 316.901 144.678 313.626 144.345Z" fill="#EE4A00"/>
<path d="M405.24 157.35C405.19 157.35 405.14 157.35 405.09 157.35L325.41 149.26C324.59 149.18 323.99 148.44 324.07 147.62C324.15 146.8 324.89 146.2 325.71 146.28L405.39 154.37C406.21 154.45 406.81 155.19 406.73 156.01C406.65 156.78 406 157.36 405.24 157.36V157.35Z" fill="#FF6D2A"/>
<path d="M404.59 163.759C404.54 163.759 404.49 163.759 404.44 163.759L324.76 155.669C323.94 155.589 323.34 154.849 323.42 154.029C323.5 153.209 324.24 152.599 325.06 152.689L404.74 160.779C405.56 160.859 406.16 161.599 406.08 162.419C406 163.189 405.35 163.769 404.59 163.769V163.759Z" fill="#FF6D2A"/>
<path d="M403.94 170.159C403.89 170.159 403.84 170.159 403.79 170.159L324.11 162.069C323.29 161.989 322.69 161.249 322.77 160.429C322.85 159.609 323.6 159.009 324.41 159.089L404.09 167.179C404.91 167.259 405.51 167.999 405.43 168.819C405.35 169.589 404.7 170.169 403.94 170.169V170.159Z" fill="#FF6D2A"/>
<path d="M403.29 176.559C403.24 176.559 403.19 176.559 403.14 176.559L323.46 168.469C322.64 168.389 322.04 167.649 322.12 166.829C322.2 166.009 322.94 165.399 323.76 165.489L403.44 173.579C404.26 173.659 404.86 174.399 404.78 175.219C404.7 175.989 404.05 176.569 403.29 176.569V176.559Z" fill="#FF6D2A"/>
<path d="M402.57 183.67C402.52 183.67 402.47 183.67 402.42 183.67L322.74 175.58C321.92 175.5 321.32 174.76 321.4 173.94C321.48 173.12 322.23 172.51 323.04 172.6L402.72 180.69C403.54 180.77 404.14 181.51 404.06 182.33C403.98 183.1 403.33 183.68 402.57 183.68V183.67Z" fill="#FF6D2A"/>
<path d="M368.269 221.145L392.554 223.612C395.829 223.944 398.753 221.559 399.086 218.284L401.055 198.894C401.388 195.619 399.003 192.695 395.728 192.362L371.443 189.896C368.168 189.563 365.244 191.948 364.911 195.223L362.942 214.613C362.609 217.888 364.994 220.812 368.269 221.145Z" fill="#EE4A00"/>
<path d="M356.34 219.23C356.29 219.23 356.24 219.23 356.19 219.23L276.51 211.14C275.69 211.06 275.09 210.32 275.17 209.5C275.25 208.68 275.99 208.08 276.81 208.16L356.49 216.25C357.31 216.33 357.91 217.07 357.83 217.89C357.75 218.66 357.1 219.24 356.34 219.24V219.23Z" fill="#FF6D2A"/>
<path d="M356.99 212.82C356.94 212.82 356.89 212.82 356.84 212.82L277.16 204.73C276.34 204.65 275.74 203.91 275.82 203.09C275.9 202.27 276.65 201.66 277.46 201.75L357.14 209.84C357.96 209.92 358.56 210.66 358.48 211.48C358.4 212.25 357.75 212.83 356.99 212.83V212.82Z" fill="#FF6D2A"/>
<path d="M357.64 206.42C357.59 206.42 357.54 206.42 357.49 206.42L277.81 198.33C276.99 198.25 276.39 197.51 276.47 196.69C276.55 195.87 277.28 195.27 278.11 195.35L357.79 203.44C358.61 203.52 359.21 204.26 359.13 205.08C359.05 205.85 358.4 206.43 357.64 206.43V206.42Z" fill="#FF6D2A"/>
<path d="M358.29 200.02C358.24 200.02 358.19 200.02 358.14 200.02L278.46 191.93C277.64 191.85 277.04 191.11 277.12 190.29C277.2 189.47 277.94 188.86 278.76 188.95L358.44 197.04C359.26 197.12 359.86 197.86 359.78 198.68C359.7 199.45 359.05 200.03 358.29 200.03V200.02Z" fill="#FF6D2A"/>
<path d="M359.01 192.91C358.96 192.91 358.91 192.91 358.86 192.91L279.18 184.82C278.36 184.74 277.76 184 277.84 183.18C277.92 182.36 278.65 181.76 279.48 181.84L359.16 189.93C359.98 190.01 360.58 190.75 360.5 191.57C360.42 192.34 359.77 192.92 359.01 192.92V192.91Z" fill="#FF6D2A"/>
<path d="M405.497 95.4594L296.706 84.4089C293.432 84.0763 290.507 86.4614 290.175 89.7361L286.53 125.612C286.198 128.886 288.583 131.811 291.858 132.143L400.648 143.194C403.923 143.526 406.847 141.141 407.18 137.867L410.824 101.991C411.156 98.7165 408.771 95.7921 405.497 95.4594Z" fill="#EE4A00"/>
<path d="M327.52 116.61C327.39 117.95 326.72 118.97 325.52 119.68C324.32 120.39 322.52 120.63 320.14 120.4L309.57 119.37C309.05 119.32 308.67 119.16 308.45 118.89C308.23 118.62 308.13 118.28 308.17 117.86C308.23 117.2 308.57 116.75 309.19 116.5L309.64 116.32C309.85 116.23 310.03 116.12 310.18 115.98C310.32 115.84 310.41 115.59 310.45 115.25L311.45 104.99C311.48 104.64 311.45 104.39 311.33 104.22C311.22 104.05 311.06 103.91 310.87 103.78L310.47 103.51C309.92 103.14 309.67 102.63 309.73 101.98C309.77 101.56 309.93 101.25 310.2 101.03C310.47 100.81 310.87 100.73 311.39 100.78L319.63 101.58C321.31 101.74 322.75 102.11 323.93 102.69C325.11 103.27 326 104 326.59 104.9C327.18 105.8 327.42 106.81 327.31 107.95C327.22 108.83 326.89 109.58 326.3 110.22C325.71 110.86 324.9 111.32 323.85 111.62C322.8 111.92 321.55 111.99 320.08 111.85L320.62 111.25C322.09 111.39 323.36 111.71 324.42 112.21C325.49 112.71 326.29 113.34 326.84 114.1C327.39 114.86 327.62 115.71 327.53 116.64L327.52 116.61ZM318.73 112.86L314.7 112.47L314.91 110.34L318.05 110.65C318.74 110.72 319.33 110.65 319.81 110.47C320.29 110.28 320.68 109.96 320.96 109.5C321.24 109.04 321.42 108.45 321.49 107.73C321.56 107.01 321.49 106.39 321.26 105.86C321.03 105.33 320.67 104.9 320.16 104.59C319.65 104.27 318.99 104.07 318.18 104L317.75 103.96L316.64 115.38C316.57 116.1 316.7 116.65 317.03 117.05C317.36 117.45 317.86 117.67 318.53 117.74L319 117.79C319.47 117.84 319.88 117.79 320.23 117.65C320.58 117.51 320.87 117.29 321.08 116.98C321.29 116.67 321.42 116.27 321.47 115.8C321.55 114.99 321.34 114.33 320.84 113.81C320.34 113.29 319.64 112.98 318.72 112.89L318.73 112.86Z" fill="white"/>
<path d="M339.43 106.33L338.98 106.52C338.78 106.61 338.6 106.72 338.45 106.86C338.3 107 338.21 107.25 338.18 107.59L337.17 118.01C337.13 118.46 337.2 118.79 337.38 118.99C337.57 119.19 337.85 119.31 338.22 119.35L339.34 119.46C339.79 119.5 340.2 119.49 340.55 119.41C340.91 119.33 341.23 119.169 341.53 118.929C341.83 118.689 342.11 118.34 342.37 117.91L343.07 116.74C343.33 116.32 343.61 116.05 343.91 115.94C344.21 115.83 344.55 115.83 344.93 115.96C345.32 116.09 345.59 116.329 345.75 116.679C345.91 117.029 345.9 117.44 345.72 117.92L344.41 121.28C344.15 121.94 343.86 122.42 343.55 122.71C343.24 123 342.79 123.11 342.2 123.05C341.9 123.02 341.61 122.95 341.35 122.85C341.08 122.74 340.79 122.63 340.47 122.52C340.15 122.41 339.75 122.33 339.27 122.28L330.14 121.39C329.62 121.34 329.24 121.18 329.02 120.91C328.8 120.64 328.7 120.3 328.74 119.88C328.8 119.22 329.14 118.77 329.76 118.52L330.21 118.34C330.42 118.25 330.6 118.14 330.75 118C330.89 117.86 330.98 117.61 331.02 117.27L332.02 107.01C332.05 106.66 332.02 106.41 331.9 106.24C331.79 106.07 331.63 105.93 331.44 105.8L331.04 105.53C330.49 105.16 330.24 104.65 330.3 104C330.34 103.58 330.5 103.27 330.77 103.05C331.04 102.83 331.44 102.75 331.96 102.8L339.06 103.49C339.58 103.54 339.96 103.7 340.18 103.97C340.4 104.24 340.5 104.58 340.46 105C340.4 105.66 340.06 106.11 339.44 106.36L339.43 106.33Z" fill="white"/>
<path d="M358.24 104.79C359.76 104.94 361.1 105.31 362.27 105.91C363.44 106.51 364.42 107.29 365.19 108.24C365.96 109.19 366.53 110.28 366.87 111.5C367.22 112.72 367.32 114.03 367.19 115.42C367.06 116.81 366.69 118.19 366.12 119.36C365.54 120.53 364.78 121.53 363.84 122.34C362.89 123.15 361.79 123.74 360.52 124.12C359.25 124.49 357.86 124.61 356.33 124.46C354.8 124.31 353.42 123.94 352.24 123.34C351.06 122.74 350.09 121.96 349.32 120.99C348.55 120.02 348 118.91 347.67 117.64C347.34 116.38 347.25 115.01 347.39 113.53C347.52 112.2 347.86 110.97 348.42 109.85C348.98 108.72 349.72 107.76 350.66 106.95C351.6 106.14 352.7 105.54 353.98 105.15C355.26 104.76 356.67 104.64 358.23 104.79H358.24ZM360.5 118.43C360.6 117.37 360.61 116.31 360.52 115.26C360.43 114.21 360.26 113.22 360.02 112.29C359.78 111.36 359.47 110.52 359.11 109.79C358.75 109.06 358.35 108.48 357.91 108.04C357.47 107.6 357.01 107.36 356.55 107.31C356.09 107.26 355.68 107.37 355.35 107.62C355.02 107.87 354.75 108.26 354.55 108.8C354.35 109.34 354.21 110.02 354.13 110.83C354.02 111.92 354.02 112.99 354.12 114.05C354.22 115.11 354.4 116.1 354.66 117.03C354.92 117.96 355.23 118.78 355.59 119.5C355.95 120.22 356.35 120.79 356.78 121.21C357.21 121.63 357.64 121.87 358.07 121.91C358.5 121.95 358.89 121.87 359.22 121.65C359.55 121.43 359.83 121.07 360.05 120.54C360.27 120.02 360.42 119.31 360.5 118.42V118.43Z" fill="white"/>
<path d="M385.82 125.88C385.77 126.37 385.62 126.72 385.38 126.93C385.13 127.14 384.77 127.23 384.3 127.18C384.02 127.15 383.77 127.06 383.57 126.91C383.37 126.76 383.19 126.59 383.04 126.4C382.89 126.21 382.73 126.05 382.57 125.9C382.41 125.75 382.23 125.67 382.03 125.65C381.83 125.63 381.56 125.67 381.27 125.77C380.98 125.87 380.63 125.99 380.23 126.13C379.83 126.27 379.37 126.37 378.86 126.45C378.35 126.53 377.76 126.54 377.1 126.47C375.64 126.33 374.36 125.97 373.25 125.4C372.15 124.83 371.24 124.07 370.52 123.14C369.81 122.2 369.3 121.11 369 119.87C368.7 118.62 368.62 117.25 368.77 115.76C368.91 114.37 369.28 113.1 369.9 111.96C370.52 110.82 371.32 109.84 372.3 109.03C373.28 108.22 374.39 107.63 375.63 107.25C376.87 106.87 378.17 106.75 379.54 106.88C380.44 106.97 381.17 107.11 381.73 107.29C382.28 107.48 382.74 107.66 383.09 107.82C383.44 107.99 383.76 108.09 384.04 108.11C384.29 108.13 384.51 108.09 384.7 107.99C384.89 107.88 385.08 107.78 385.27 107.67C385.46 107.56 385.65 107.52 385.87 107.54C386.24 107.58 386.49 107.7 386.62 107.92C386.75 108.14 386.85 108.49 386.94 108.97L387.75 113.32C387.83 113.73 387.74 114.06 387.49 114.31C387.24 114.56 386.9 114.7 386.49 114.74C386.15 114.76 385.84 114.69 385.55 114.53C385.27 114.37 385.04 114.06 384.87 113.62C384.5 112.64 384.07 111.87 383.57 111.29C383.07 110.71 382.54 110.29 381.96 110.03C381.38 109.77 380.79 109.6 380.18 109.54C379.26 109.45 378.44 109.63 377.71 110.08C376.98 110.53 376.39 111.22 375.93 112.15C375.47 113.08 375.17 114.23 375.04 115.59C374.89 117.14 374.99 118.49 375.35 119.62C375.71 120.75 376.23 121.66 376.93 122.32C377.63 122.98 378.41 123.35 379.29 123.44C379.53 123.46 379.73 123.46 379.9 123.44C380.07 123.41 380.21 123.36 380.31 123.28C380.42 123.21 380.5 123.1 380.55 122.98C380.61 122.85 380.64 122.7 380.66 122.53L380.87 120.42C380.89 120.16 380.86 119.98 380.75 119.86C380.65 119.74 380.48 119.62 380.26 119.49L379.85 119.25C379.53 119.06 379.27 118.85 379.08 118.63C378.89 118.41 378.81 118.13 378.84 117.78C378.88 117.38 379.03 117.08 379.3 116.87C379.57 116.66 379.97 116.59 380.49 116.64L386.94 117.27C387.47 117.32 387.85 117.48 388.07 117.73C388.29 117.98 388.38 118.31 388.34 118.7C388.31 119.02 388.21 119.27 388.04 119.46C387.87 119.65 387.64 119.8 387.34 119.92L387.09 120.02C386.9 120.09 386.72 120.19 386.57 120.31C386.42 120.43 386.33 120.65 386.3 120.96L385.82 125.92V125.88Z" fill="white"/>
<path d="M298.76 285.08L280.92 291.56L266.62 285.78L266.7 285C266.86 283.33 268.34 282.12 270 282.28L293.41 284.56L298.76 285.08Z" fill="#FF6D2A"/>
<path d="M178.59 257.71L176.03 256.68L171.63 254.89L176.04 256.67L178.59 257.71Z" fill="#FF6D2A"/>
<path d="M287.66 252.849C287.58 253.269 287.48 253.689 287.35 254.089C287.28 254.339 287.21 254.579 287.12 254.809C286.89 255.469 286.61 256.119 286.29 256.729C284.54 260.059 281.49 262.699 277.61 263.799L239.17 274.669H239.15L236.13 273.449L205.02 260.849H205.01L200.48 259.019L187.03 253.569H187.02L182.5 251.739L170.85 247.019H170.84L170 247.259C169.86 247.299 169.72 247.319 169.59 247.319C168.93 247.319 168.33 246.889 168.14 246.229C168.11 246.119 168.1 246.009 168.09 245.909L136.9 233.279H136.89L134.54 232.329L131.05 219.969L129.14 213.199L111.97 152.459L106.88 134.459C105.2 128.519 107.61 122.339 112.42 118.979H112.43C113.69 118.089 115.11 117.409 116.66 116.969L227.29 85.7095C234.78 83.5895 242.65 87.9895 244.77 95.4895L246.13 100.299L246.69 102.269L247.25 104.259L257.61 140.919L257.62 140.939L259.11 146.219L260.61 151.519L263.18 160.619L265.09 167.389L276.61 208.139L277.48 211.229L282.28 228.209H282.29L282.87 230.279L283.45 232.349L287.4 246.309C288.02 248.509 288.08 250.739 287.67 252.849H287.66Z" fill="#FF6D2A"/>
<path d="M228.19 277.77L231.2 279L228.18 277.77H228.19ZM289.32 245.77L285.59 232.56L285 230.49L284.42 228.43L279.62 211.45L278.74 208.34L277.73 204.78L276.89 201.79L269.83 176.83L266.96 166.66L265.05 159.89L261.13 146.05L259.64 140.74H259.63L258.14 135.48V135.45L249.05 103.29L248.5 101.36L247.96 99.4297L246.69 94.9397C245.52 90.7997 242.79 87.3597 239.01 85.2397C235.23 83.1297 230.87 82.6097 226.73 83.7797L116.11 115.05C114.18 115.6 112.43 116.47 110.91 117.6C105.65 121.48 103.07 128.35 104.95 135L109.16 149.89L124.83 205.33L127.26 213.93L129.17 220.71L132.19 231.38L134.53 232.33L136.88 233.28L132.92 219.24L131 212.47L128.57 203.87L114.77 155.03L108.8 133.92C107.92 130.8 108.31 127.52 109.9 124.67C110.89 122.9 112.28 121.43 113.93 120.37C114.94 119.73 116.03 119.23 117.2 118.9L227.82 87.6297C228.92 87.3197 230.03 87.1697 231.12 87.1697C236.43 87.1697 241.33 90.6797 242.84 96.0297L244.36 101.4L244.93 103.44L245.53 105.53L257.07 146.39H257.08V146.41L258.57 151.68L260.07 156.97L261.3 161.35L263.22 168.13L265.72 176.99L280.14 228L280.72 230.07L281.3 232.14L285.46 246.86C286.01 248.82 286.05 250.8 285.66 252.66C285.58 253 285.5 253.34 285.4 253.67C285.35 253.83 285.3 253.98 285.24 254.13C285.19 254.29 285.13 254.45 285.06 254.61C284.81 255.27 284.49 255.91 284.11 256.52C282.57 259.04 280.12 261.01 277.06 261.88L236.14 273.44H236.12L239.14 274.67H239.16L240.26 275.12L240.66 275.29L242.16 275.9H242.18L278.14 265.73C282.86 264.39 286.5 261.08 288.42 256.94C288.71 256.32 288.96 255.67 289.16 255.01C289.37 254.37 289.53 253.71 289.66 253.04C290.09 250.7 290 248.22 289.31 245.77H289.32Z" fill="white"/>
<path d="M142.47 133.22C141.6 133.22 140.8 132.64 140.55 131.76C140.25 130.7 140.87 129.59 141.93 129.29L211.47 109.64C212.53 109.34 213.64 109.96 213.94 111.02C214.24 112.08 213.62 113.19 212.56 113.49L143.02 133.14C142.84 133.19 142.65 133.22 142.48 133.22H142.47Z" fill="white"/>
<path d="M163.75 226.709C163.1 226.709 162.49 226.279 162.31 225.619C162.08 224.819 162.55 223.989 163.35 223.769L243.64 201.079C244.44 200.859 245.27 201.319 245.49 202.119C245.72 202.919 245.25 203.749 244.45 203.969L164.16 226.659C164.02 226.699 163.89 226.719 163.75 226.719V226.709Z" fill="#EE4A00"/>
<path d="M166.66 237.019C166.01 237.019 165.4 236.589 165.22 235.929C164.99 235.129 165.46 234.299 166.26 234.079L246.55 211.389C247.35 211.169 248.18 211.629 248.4 212.429C248.63 213.229 248.16 214.059 247.36 214.279L167.07 236.969C166.93 237.009 166.8 237.029 166.66 237.029V237.019Z" fill="#EE4A00"/>
<path d="M250.28 224.569L249.45 224.799L249.44 224.809L248.88 224.969H248.87L243.59 226.459H243.58L238.32 227.949H238.3L229.3 230.499L227.23 231.079L225.17 231.669L170.84 247.019H170.83L169.99 247.259C169.85 247.299 169.71 247.319 169.58 247.319C168.92 247.319 168.32 246.889 168.13 246.229C168.1 246.119 168.09 246.009 168.08 245.909C168.04 245.209 168.48 244.569 169.17 244.369L225.48 228.459L227.54 227.869L229.61 227.289L230.09 227.149H230.1L235.37 225.659L240.65 224.169H240.66L249.46 221.679C249.56 221.649 249.66 221.639 249.75 221.639C249.76 221.629 249.76 221.639 249.76 221.639C250.46 221.579 251.12 222.019 251.31 222.719C251.54 223.509 251.07 224.339 250.28 224.569Z" fill="#EE4A00"/>
<path d="M176.04 256.67L176.03 256.68L171.63 254.89L176.04 256.67Z" fill="#EE4A00"/>
<path d="M253.19 234.87L230.81 241.2L228.85 241.75L226.86 242.31L187.03 253.57H187.02L182.5 251.74L225.76 239.5L227.7 238.95L229.62 238.41L252.37 231.98C253.18 231.76 254 232.22 254.23 233.02C254.45 233.82 253.99 234.65 253.19 234.87Z" fill="#EE4A00"/>
<path d="M256.43 246.319L247.24 248.919H247.23L241.95 250.409L237.77 251.589L205.02 260.849H205.01L200.48 259.019H200.49V259.009L233.54 249.669H233.55L236.33 248.879H236.34L239.58 247.959L255.6 243.429C256.4 243.209 257.23 243.669 257.45 244.469C257.68 245.269 257.21 246.099 256.42 246.319H256.43Z" fill="#EE4A00"/>
<path d="M218.068 129.969L147.338 149.957C144.17 150.852 142.328 154.146 143.223 157.314L156.818 205.42C157.713 208.587 161.006 210.429 164.174 209.534L234.904 189.546C238.072 188.651 239.914 185.358 239.019 182.19L225.424 134.084C224.529 130.916 221.236 129.074 218.068 129.969Z" fill="#EE4A00"/>
<path d="M218.62 166.739C218.44 166.539 218.26 166.339 218.07 166.149C214.17 162.099 209.21 159.299 203.85 157.929C198.64 156.599 193.05 156.609 187.69 158.149C176.71 161.299 168.29 170.389 166.11 181.399C166.08 181.549 166.05 181.699 166.02 181.849L165.94 182.309L166.25 182.659C173.92 191.079 186.07 194.459 197.2 191.259C208.33 188.059 216.82 178.759 218.86 167.549L218.95 167.089L218.63 166.739H218.62ZM201.12 171.839L200.6 172.189L200.34 172.339C198.99 173.249 197.88 174.399 197.05 175.759C196.05 177.419 195.51 179.389 195.61 181.439L195.87 185.229C195.91 185.689 195.26 185.909 195.02 185.469L193.13 182.089C192.16 180.419 190.74 178.969 189.05 177.999C187.73 177.239 186.22 176.709 184.7 176.629L184.29 176.579L183.74 176.549C183.28 176.529 183.13 175.919 183.53 175.689C183.7 175.619 183.83 175.549 183.95 175.459C187.1 173.449 188.92 169.799 188.79 166.069L188.81 165.799L188.75 162.309C188.75 161.829 189.4 161.649 189.6 162.079L191.13 165.129L191.26 165.389C193.01 168.879 196.45 170.929 200.3 171.019C200.51 171.029 200.68 171.019 200.86 171.019C201.09 171.019 201.25 171.149 201.31 171.339C201.36 171.509 201.29 171.719 201.11 171.829L201.12 171.839Z" fill="white"/>
<path d="M167.67 183.499C167.47 183.499 167.26 183.449 167.07 183.349L155.4 176.979C154.8 176.649 154.57 175.889 154.9 175.289C155.23 174.679 155.99 174.459 156.59 174.789L168.26 181.159C168.86 181.489 169.09 182.249 168.76 182.849C168.53 183.269 168.11 183.499 167.66 183.499H167.67Z" fill="white"/>
<path d="M173.48 167.399C173.17 167.399 172.85 167.279 172.61 167.049L163.93 158.609C163.44 158.129 163.43 157.339 163.91 156.849C164.39 156.359 165.18 156.349 165.67 156.829L174.35 165.269C174.84 165.749 174.85 166.539 174.37 167.029C174.12 167.279 173.8 167.409 173.48 167.409V167.399Z" fill="white"/>
<path d="M217.54 168.309C217.33 168.309 217.12 168.259 216.93 168.149C216.33 167.809 216.12 167.049 216.45 166.449L222.96 154.859C223.3 154.259 224.06 154.049 224.66 154.379C225.26 154.719 225.47 155.479 225.14 156.079L218.63 167.669C218.4 168.079 217.98 168.309 217.54 168.309Z" fill="white"/>
<path d="M203.75 159.569C203.65 159.569 203.55 159.559 203.45 159.529C202.78 159.369 202.37 158.689 202.53 158.019L205.41 146.259C205.57 145.589 206.25 145.179 206.92 145.339C207.59 145.499 208 146.179 207.84 146.849L204.96 158.609C204.82 159.179 204.31 159.559 203.75 159.559V159.569Z" fill="white"/>
<path d="M187.71 159.379C187.17 159.379 186.67 159.019 186.51 158.479L183.07 146.489C182.88 145.829 183.26 145.139 183.92 144.949C184.58 144.759 185.27 145.139 185.46 145.799L188.9 157.789C189.09 158.449 188.71 159.139 188.05 159.329C187.93 159.359 187.82 159.379 187.7 159.379H187.71Z" fill="white"/>
<path d="M80.2497 89.5196L63.3597 107.96L52.6397 98.1396C50.8197 96.4696 50.6997 93.6496 52.3597 91.8296L63.2097 79.9796C64.8797 78.1596 67.6997 78.0396 69.5197 79.6996L80.2397 89.5196H80.2497Z" fill="#FF6D2A"/>
<path d="M63.37 109.46C63.01 109.46 62.64 109.33 62.36 109.07L51.64 99.25C50.46 98.17 49.78 96.7 49.71 95.11C49.64 93.52 50.2 91.99 51.27 90.82L62.12 78.97C63.2 77.79 64.67 77.11 66.26 77.04C67.86 76.97 69.38 77.53 70.55 78.6L81.27 88.42C81.56 88.69 81.74 89.06 81.76 89.46C81.78 89.86 81.64 90.25 81.37 90.54L64.48 108.98C64.18 109.3 63.78 109.47 63.37 109.47V109.46ZM66.52 80.04C66.52 80.04 66.43 80.04 66.39 80.04C65.6 80.07 64.87 80.42 64.33 81L53.48 92.85C52.94 93.43 52.67 94.19 52.7 94.98C52.74 95.77 53.08 96.5 53.66 97.04L63.27 105.84L78.13 89.62L68.52 80.82C67.97 80.32 67.26 80.04 66.52 80.04Z" fill="white"/>
<path d="M85.4188 94.2643L68.5322 112.699L127.524 166.736L144.41 148.301L85.4188 94.2643Z" fill="#EE4A00"/>
<path d="M127.53 168.22C127.16 168.22 126.79 168.08 126.52 167.83L67.5197 113.8C67.2297 113.53 67.0497 113.16 67.0297 112.76C67.0097 112.36 67.1497 111.97 67.4197 111.68L84.3097 93.24C84.8697 92.63 85.8197 92.59 86.4297 93.15L145.42 147.18C146.03 147.74 146.07 148.69 145.51 149.3L128.63 167.74C128.36 168.03 127.99 168.21 127.59 168.23C127.57 168.23 127.55 168.23 127.52 168.23L127.53 168.22ZM70.6497 112.59L127.43 164.6L142.29 148.38L85.5097 96.37L70.6497 112.59Z" fill="white"/>
<path d="M152.89 167.161L146.64 173.981L129 168.071L145.89 149.641L152.89 167.161Z" fill="white"/>
<path d="M146.64 174.98C146.53 174.98 146.43 174.96 146.32 174.93L128.68 169.02C128.36 168.91 128.11 168.65 128.03 168.32C127.95 167.99 128.03 167.64 128.26 167.39L145.15 148.95C145.38 148.7 145.73 148.58 146.07 148.64C146.41 148.7 146.69 148.93 146.82 149.25L153.82 166.77C153.96 167.13 153.89 167.53 153.63 167.82L147.38 174.64C147.19 174.85 146.92 174.96 146.64 174.96V174.98ZM130.77 167.61L146.34 172.82L151.72 166.94L145.54 151.48L130.77 167.61Z" fill="white"/>
<path d="M153.89 176.409L146.65 173.979L152.9 167.159L155.8 174.399C156.28 175.609 155.13 176.829 153.9 176.419L153.89 176.409Z" fill="#FF9460"/>
<path d="M154.38 177.49C154.11 177.49 153.83 177.45 153.56 177.36L146.32 174.93C146 174.82 145.75 174.56 145.67 174.23C145.59 173.9 145.67 173.55 145.9 173.3L152.15 166.48C152.38 166.23 152.73 166.11 153.07 166.17C153.41 166.23 153.69 166.46 153.82 166.78L156.72 174.02C157.09 174.95 156.89 175.97 156.21 176.69C155.72 177.21 155.06 177.48 154.38 177.48V177.49ZM154.2 175.46C154.49 175.56 154.68 175.4 154.75 175.32C154.82 175.25 154.97 175.04 154.86 174.76L152.55 169L148.42 173.51L154.2 175.45V175.46Z" fill="#FF9460"/>
</g>
<defs>
<clipPath id="clip0_482_2">
<rect width="600" height="530" fill="white"/>
</clipPath>
</defs>
</svg>
