<svg width="600" height="510" viewBox="0 0 600 510" fill="none" xmlns="http://www.w3.org/2000/svg">
<g clip-path="url(#clip0_482_2)">
<path d="M277.62 273.961C277.62 273.961 277.61 273.991 277.61 274.001H277.6L277.62 273.961Z" fill="#05183C"/>
<path d="M279.5 272.091C279.44 272.111 279.39 272.131 279.33 272.161C279.35 272.161 279.38 272.131 279.41 272.121C279.44 272.111 279.47 272.091 279.5 272.091Z" fill="#05183C"/>
<path d="M283.06 272.591C283.06 272.591 283.02 272.571 283 272.551C283.02 272.561 283.04 272.581 283.06 272.591Z" fill="#05183C"/>
<path d="M284.14 274.121H284.13C284.13 274.121 284.11 274.031 284.09 273.991C284.11 274.031 284.13 274.081 284.14 274.121Z" fill="#05183C"/>
<path d="M280.92 271.561L280.91 271.571L266.62 265.791V265.781L280.92 271.561Z" fill="#05183C"/>
<path d="M357.68 243.68L355.64 244.42L355.2 243.44L357.68 243.68Z" fill="#05183C"/>
<path d="M418.62 221.551L418.63 221.491L418.75 221.501L418.62 221.551Z" fill="#05183C"/>
<path d="M421.63 190.601L418.63 221.481L336.02 213.451L299.52 209.891L284.42 208.431L285 210.491L285.59 212.561L372 220.961L410.05 224.661L366.41 240.511H366.4L353.31 239.241L354.26 241.341L355.2 243.441L310.61 239.101L293.41 264.561L270 262.281C268.34 262.121 266.86 263.331 266.7 265.001L266.62 265.781L242.18 255.901H242.17L240.67 255.291L240.27 255.121L239.17 254.671H239.15L236.13 253.451L205.02 240.851H205.01L200.48 239.021L187.03 233.571H187.02L182.5 231.741L170.85 227.021H170.84L168.09 225.911L136.9 213.281H136.89L134.54 212.331L132.2 211.381L117.32 205.361L129.18 200.711L131.05 199.971L132.93 199.241L159.42 188.851L230.09 161.121H230.1L232.18 160.311L234.27 159.481L237.88 158.071L254.64 151.491H254.65L256.73 150.681L258.82 149.851H258.83L263.23 148.131L265.09 147.391L266.97 146.661L281.43 140.991L284.89 139.631C287.45 138.631 290.26 138.631 292.81 139.631L317.1 149.241L326.44 152.931H326.45L336.67 156.981H336.68L369.57 170.011H369.58L400.71 182.321L421.64 190.601H421.63Z" fill="#05183C"/>
<path d="M460.98 206.171L447.26 211.151L448.24 201.131L460.98 206.171Z" fill="#05183C"/>
<path d="M277.6 274C277.6 274 277.59 274.02 277.59 274.03C277.59 274.03 277.6 274.01 277.61 274C277.61 273.99 277.61 273.98 277.62 273.96L277.6 274ZM279.41 272.12C279.41 272.12 279.35 272.15 279.33 272.16C279.39 272.13 279.44 272.11 279.5 272.09C279.47 272.09 279.44 272.11 279.41 272.12ZM200.5 239.01L187.04 233.57L200.49 239.02L205.02 240.85L200.51 239.01H200.5ZM242.19 255.89L240.27 255.12L240.67 255.29L242.17 255.9H242.18L266.62 265.78L242.19 255.89ZM239.16 254.67L240.27 255.12L239.17 254.67H239.16ZM205.02 240.85L236.13 253.45L239.15 254.67H239.16L236.15 253.44L205.02 240.85ZM266.62 265.78L280.91 271.57H280.92L266.62 265.78ZM283 272.55C283 272.55 283.04 272.58 283.06 272.6C283.06 272.6 283.02 272.56 283 272.55ZM284.09 273.99C284.09 273.99 284.12 274.08 284.13 274.12H284.14C284.14 274.12 284.11 274.03 284.09 273.99Z" fill="white"/>
<path d="M277.31 292.221L276.86 502.641C276.81 502.621 276.75 502.601 276.7 502.581L120.54 440.121C116.46 438.481 113.8 434.591 113.75 430.191L112.24 288.161L240.79 339.931C242.64 340.671 244.54 341.031 246.41 341.031C246.8 341.031 247.19 341.011 247.58 340.981C248.2 340.931 248.81 340.851 249.41 340.711C250.5 340.491 251.57 340.141 252.57 339.671C252.81 339.561 253.05 339.451 253.28 339.321C253.45 339.231 253.61 339.141 253.77 339.051C253.99 338.921 254.21 338.791 254.42 338.651C256.79 337.111 258.75 334.871 259.97 332.071L277.31 292.221Z" fill="#1A3C7D"/>
<path d="M283 272.551C283 272.551 283.04 272.581 283.06 272.601C283.06 272.601 283.02 272.561 283 272.551ZM279.41 272.121C279.41 272.121 279.35 272.151 279.33 272.161C279.39 272.131 279.44 272.111 279.5 272.091C279.47 272.091 279.44 272.111 279.41 272.121ZM277.6 274.001C277.6 274.001 277.59 274.021 277.59 274.031C277.59 274.031 277.6 274.011 277.61 274.001C277.61 273.991 277.61 273.981 277.62 273.961L277.6 274.001Z" fill="white"/>
<path d="M467.83 431.601C467.84 436.221 464.91 440.331 460.55 441.841L284.25 502.761C284.12 502.801 283.99 502.851 283.86 502.891L284.32 289.781L306.64 333.421C306.97 334.061 307.33 334.661 307.74 335.231C308.34 336.091 309.02 336.861 309.77 337.561C312.52 340.101 316.14 341.521 319.88 341.521C321.59 341.521 323.33 341.221 325.02 340.591L467.52 287.881L467.83 431.601Z" fill="#06296B"/>
<path d="M284.09 273.991C284.09 273.991 284.12 274.081 284.13 274.121H284.14C284.14 274.121 284.11 274.031 284.09 273.991ZM283 272.551C283 272.551 283.04 272.581 283.06 272.601C283.06 272.601 283.02 272.561 283 272.551ZM279.41 272.121C279.41 272.121 279.35 272.151 279.33 272.161C279.39 272.131 279.44 272.111 279.5 272.091C279.47 272.091 279.44 272.111 279.41 272.121Z" fill="white"/>
<path d="M418.76 221.5H418.75L418.62 221.55L414.41 223.08L418.43 223.47L420.42 223.66L420.61 221.68L418.76 221.5ZM168.08 225.91C168.09 226.01 168.1 226.12 168.13 226.23C168.32 226.89 168.92 227.32 169.58 227.32C169.71 227.32 169.85 227.3 169.99 227.26L170.83 227.02L168.08 225.91ZM362.05 242.1L357.69 243.68L373.85 245.26H373.89L373.91 245.24H373.92L378.22 243.67L362.05 242.1ZM422.61 221.87L422.79 220.04L420.7 220.8L418.76 221.5H418.75L418.62 221.55L414.41 223.08L418.43 223.47L420.42 223.66L422.41 223.86L430.59 224.65H430.61L432.34 224.02L434.95 223.07L422.61 221.87ZM447 193.11L445.07 192.35L426.21 184.89L424.27 184.12L422.34 183.36L399.6 174.36L394.17 172.21L372.84 163.77L362.28 159.59H362.25L352.05 155.54H352.02L337.83 149.92L327.59 145.87L317.83 142.01L295.37 133.12C291.17 131.47 286.54 131.46 282.32 133.11L282.21 133.15L265.05 139.89L263.17 140.62L261.3 141.35L259.58 142.03L257.48 142.85L255.4 143.67H255.39L235.95 151.3L235.02 151.66L232.93 152.48L230.85 153.3L213.26 160.2L205.52 163.24L183.28 171.96L156.04 182.64L131 192.47L129.13 193.2L127.26 193.93L129.17 200.71L131.04 199.97L132.92 199.24L159.41 188.85L230.08 161.12H230.09L232.17 160.31L234.26 159.48L234.85 159.25L237.87 158.07L254.63 151.49H254.64L256.72 150.68L258.81 149.85H258.82L263.22 148.13L265.08 147.39L266.96 146.66L281.42 140.99L284.88 139.63C287.44 138.63 290.25 138.63 292.8 139.63L317.09 149.24L326.43 152.93H326.44L336.66 156.98H336.67L343.14 159.55L369.56 170.01H369.57L400.7 182.32L421.63 190.6L423.56 191.37L425.5 192.13L444.37 199.6L446.3 200.36L448.24 201.13L448.94 193.88L447 193.11ZM414.41 223.08L418.43 223.47L418.62 221.55L414.41 223.08Z" fill="white"/>
<path d="M284.14 274.121H284.13C284.13 274.121 284.11 274.031 284.09 273.991C284.11 274.031 284.13 274.081 284.14 274.121ZM283.06 272.591C283.06 272.591 283.02 272.571 283 272.551C283.02 272.561 283.04 272.581 283.06 272.591ZM279.41 272.121C279.41 272.121 279.47 272.091 279.5 272.091C279.44 272.111 279.39 272.131 279.33 272.161C279.35 272.161 279.38 272.131 279.41 272.121ZM277.6 274.001L277.62 273.961C277.62 273.961 277.61 273.991 277.61 274.001C277.6 274.011 277.59 274.021 277.59 274.031C277.59 274.031 277.6 274.011 277.6 274.001ZM276.86 502.641C276.81 502.621 276.75 502.601 276.7 502.581L120.54 440.121C116.46 438.481 113.8 434.591 113.75 430.191L113.6 416.231L112.24 288.161L240.79 339.931C242.64 340.671 244.54 341.031 246.41 341.031C246.8 341.031 247.19 341.011 247.58 340.981C248.2 340.931 248.81 340.851 249.41 340.711C250.5 340.491 251.57 340.141 252.57 339.671C252.81 339.561 253.05 339.451 253.28 339.321C253.45 339.231 253.61 339.141 253.77 339.051C253.99 338.921 254.21 338.791 254.42 338.651C256.79 337.111 258.75 334.871 259.97 332.071L277.31 292.221L276.97 450.851L276.86 502.641ZM467.83 431.601C467.84 436.221 464.91 440.331 460.55 441.841L284.25 502.761C284.12 502.801 283.99 502.851 283.86 502.891L283.97 450.991L284.32 289.781L306.64 333.421C306.97 334.061 307.33 334.661 307.74 335.231C308.34 336.091 309.02 336.861 309.77 337.561C312.52 340.101 316.14 341.521 319.88 341.521C321.59 341.521 323.33 341.221 325.02 340.591L467.52 287.881L467.8 416.371L467.83 431.601ZM505.73 254.551L473.88 204.561L473.8 204.431C473.64 204.181 473.45 203.961 473.24 203.761C473.19 203.701 473.13 203.651 473.07 203.611C472.92 203.481 472.76 203.371 472.6 203.281C472.53 203.241 472.46 203.201 472.38 203.171C472.29 203.121 472.19 203.081 472.09 203.041L448.94 193.881L448.24 201.131L460.98 206.171L447.26 211.151L445.18 211.911H445.17L443.1 212.661L422.79 220.041L422.61 221.871L434.95 223.071L442.34 220.391L443.09 220.111L443.44 219.981L444.41 219.631L446.5 218.881L469.4 210.561L499.82 258.311C501.1 260.321 501.4 262.781 500.64 265.041C499.88 267.311 498.15 269.091 495.91 269.921L469.82 279.571L322.58 334.031C318.86 335.411 314.68 333.781 312.87 330.241L285.76 277.251L314.93 266.651L373.84 245.261L357.68 243.681H357.67L355.63 244.421L298.75 265.081L280.91 271.561H280.9L266.61 265.791L242.17 255.901H242.16L240.66 255.291L240.26 255.121L239.16 254.671H239.14L236.12 253.451L205.01 240.851H205L200.47 239.021L187.02 233.571H187.01L182.49 231.741L170.84 227.021H170.83L169.99 227.261C169.85 227.301 169.71 227.321 169.58 227.321C168.92 227.321 168.32 226.891 168.13 226.231C168.1 226.121 168.09 226.011 168.08 225.911L136.89 213.281H136.88L134.53 212.331L132.19 211.381L117.31 205.361L129.17 200.711L127.26 193.931L106.57 202.051L106.51 202.081C106.33 202.161 106.15 202.251 105.97 202.361C105.86 202.431 105.76 202.501 105.67 202.581C105.53 202.691 105.4 202.801 105.29 202.931C105.17 203.061 105.07 203.191 104.97 203.331C104.91 203.401 104.87 203.471 104.83 203.551C104.82 203.561 104.81 203.581 104.8 203.591L75.66 255.311C73.56 259.041 73.17 263.491 74.58 267.521C75.99 271.561 79.08 274.791 83.05 276.401L105.2 285.321L106.56 412.951L106.75 430.271C106.82 437.501 111.22 443.921 117.94 446.621L274.09 509.081C276.03 509.851 278.09 510.281 280.22 510.341H280.35C280.49 510.341 280.63 510.351 280.77 510.351C282.73 510.351 284.66 510.021 286.53 509.381L462.83 448.461C470.01 445.971 474.83 439.201 474.83 431.601V431.581L474.79 413.071L474.52 285.301L498.35 276.481H498.36C502.59 274.911 505.85 271.551 507.28 267.271C508.72 262.991 508.16 258.361 505.73 254.551ZM276.21 277.211L253.55 329.281C251.87 333.151 247.33 335.011 243.41 333.431L109.91 279.661L85.67 269.901C83.57 269.061 81.94 267.341 81.19 265.211C80.44 263.071 80.65 260.721 81.76 258.751L109.39 209.711L134.6 219.911L134.79 219.991L135.09 220.111L136.94 220.861H136.95L137.24 220.981L138.35 221.431L138.88 221.641L138.92 221.661L139.03 221.701L139.26 221.801H139.3L171.63 234.891L176.04 236.671L178.59 237.711L180.38 238.431L181.88 239.041H181.9L183.02 239.501L189.49 242.121L194.01 243.951H194.02L212.77 251.541L224.58 256.321L225.14 256.551H225.15L228.17 257.771H228.18L231.2 258.991L266.15 273.131L276.2 277.201L276.21 277.211Z" fill="white"/>
<path d="M276.21 277.211L253.55 329.281C251.87 333.151 247.33 335.011 243.41 333.431L109.91 279.661L85.6702 269.901C83.5702 269.061 81.9402 267.341 81.1902 265.211C80.4402 263.071 80.6502 260.721 81.7602 258.751L109.39 209.711L134.6 219.911L134.79 219.991L135.09 220.111L136.94 220.861H136.95L137.24 220.981L138.35 221.431L138.88 221.641L138.92 221.661L139.03 221.701L139.26 221.801H139.3L171.63 234.891L176.03 236.681L178.59 237.711L180.38 238.431L181.88 239.041H181.9L183.02 239.501L189.49 242.121L194.01 243.951H194.02L212.77 251.541L224.58 256.321L225.14 256.551H225.15L228.17 257.771H228.18L231.19 259.001L266.15 273.141L276.2 277.211H276.21Z" fill="#1A3C7D"/>
<path d="M178.59 237.711L176.03 236.681L171.63 234.891L176.04 236.671L178.59 237.711Z" fill="#1A3C7D"/>
<path d="M266.16 273.131V273.141L231.2 259.001L228.19 257.771L231.21 258.991L266.16 273.131Z" fill="#1A3C7D"/>
<path d="M276.21 277.201V277.211L266.16 273.141L276.21 277.201Z" fill="#1A3C7D"/>
<path d="M277.61 274.001C277.61 274.001 277.59 274.021 277.59 274.031C277.59 274.031 277.6 274.011 277.6 274.001H277.61Z" fill="#1A3C7D"/>
<path d="M277.6 274.001C277.6 274.001 277.59 274.021 277.59 274.031C277.59 274.031 277.6 274.011 277.61 274.001C277.61 273.991 277.61 273.981 277.62 273.961L277.6 274.001ZM279.41 272.121C279.41 272.121 279.35 272.151 279.33 272.161C279.39 272.131 279.44 272.111 279.5 272.091C279.47 272.091 279.44 272.111 279.41 272.121ZM284.09 273.991C284.09 273.991 284.12 274.081 284.13 274.121H284.14C284.14 274.121 284.11 274.031 284.09 273.991ZM176.04 236.671L171.63 234.891L176.03 236.681L178.59 237.711L176.04 236.671ZM231.21 258.991L228.19 257.771L231.2 259.001L266.16 273.141L231.21 258.991Z" fill="white"/>
<path d="M500.65 265.041C499.89 267.311 498.16 269.091 495.92 269.921L469.83 279.571L322.59 334.031C318.87 335.411 314.69 333.781 312.88 330.241L285.77 277.251L314.94 266.651L373.85 245.261H373.89L373.9 245.251H373.91L378.22 243.671L382.58 242.091H382.59L426.23 226.241L430.58 224.661H430.61L432.34 224.021L434.95 223.071L442.34 220.391L443.09 220.111L443.44 219.981L444.41 219.641L446.5 218.881L469.4 210.561L499.82 258.311C501.1 260.321 501.4 262.781 500.64 265.041H500.65Z" fill="#06296B"/>
<path d="M314.94 266.65L285.77 277.25V277.24L314.94 266.65Z" fill="#06296B"/>
<path d="M373.92 245.23H373.93L373.9 245.25L373.86 245.26L373.92 245.23Z" fill="#06296B"/>
<path d="M432.34 224.021L430.61 224.651L430.59 224.661V224.651L432.34 224.021Z" fill="#06296B"/>
<path d="M284.09 273.99C284.09 273.99 284.12 274.08 284.13 274.12H284.14C284.14 274.12 284.11 274.03 284.09 273.99ZM283 272.55C283 272.55 283.04 272.58 283.06 272.6C283.06 272.6 283.02 272.56 283 272.55ZM277.6 274C277.6 274 277.59 274.02 277.59 274.03C277.59 274.03 277.6 274.01 277.61 274H277.6Z" fill="white"/>
<path d="M449.82 184.86C449.18 184.61 448.53 184.36 447.88 184.11C447.23 183.86 446.59 183.61 445.94 183.37C439.8 181.06 433.48 178.88 426.99 176.84C426.34 176.63 425.69 176.43 425.04 176.23C424.39 176.03 423.74 175.83 423.09 175.63C407.24 170.82 390.43 166.83 372.84 163.77C363.16 162.07 353.25 160.66 343.14 159.55C326.01 157.67 308.3 156.63 290.17 156.54C283.33 156.51 276.55 156.61 269.83 156.83C269.14 156.85 268.46 156.88 267.77 156.9C267.09 156.93 266.4 156.96 265.72 156.99C263.16 157.1 260.62 157.22 258.09 157.37H258.08C257.4 157.41 256.73 157.45 256.06 157.49C255.38 157.53 254.71 157.57 254.04 157.62C248.68 157.97 243.37 158.4 238.11 158.92C237.02 159.02 235.93 159.13 234.85 159.25C234.66 159.27 234.47 159.29 234.28 159.31C233.6 159.38 232.92 159.45 232.25 159.52C231.57 159.6 230.89 159.68 230.22 159.75C223.91 160.47 217.69 161.31 211.55 162.26C209.53 162.57 207.52 162.9 205.52 163.24C202.27 163.78 199.05 164.36 195.86 164.98C195.53 165.03 195.2 165.1 194.87 165.17C188.24 166.44 181.73 167.86 175.35 169.4C168.04 171.17 160.89 173.1 153.94 175.2C145.17 177.84 136.7 180.74 128.57 183.87C127.94 184.11 127.32 184.35 126.7 184.6C126.07 184.84 125.45 185.08 124.83 185.33C58.2998 211.88 15.1698 254.34 14.9298 302.39C14.7598 335.13 34.5298 365.48 68.0998 390.11C74.3398 394.68 81.0498 399.06 88.1998 403.21C94.0298 406.61 100.16 409.85 106.56 412.95C108.87 414.06 111.22 415.16 113.6 416.23C158.24 436.39 214.91 449.13 276.97 450.85C279.29 450.91 281.63 450.96 283.97 450.99C285.53 451.02 287.1 451.03 288.67 451.04C357.04 451.39 419.63 438.3 467.8 416.37C470.17 415.29 472.5 414.19 474.79 413.07C517.43 392.27 547.7 364.28 559.01 332.61C561.97 324.35 563.63 315.83 563.89 307.13C563.91 306.49 563.92 305.84 563.92 305.19C564.17 255.84 519.14 211.93 449.82 184.86Z" stroke="white" stroke-width="6.77" stroke-miterlimit="10"/>
<path d="M546.84 335.15L538.5 339.5C537.44 340.03 536.4 338.77 537.11 337.82L542.87 330.2C545.79 326.34 547.63 321.69 548.18 316.91C548.62 313.12 548.25 309.25 546.99 305.63L546.67 304.72L546.2 303.39C545.84 302.35 547.05 301.46 547.93 302.13H547.95C548.27 302.38 548.59 302.61 548.92 302.84C556.53 308.01 566.6 308.48 574.96 304.52L575.61 304.23L583.46 300.72C584.54 300.21 585.57 301.53 584.8 302.45L579.41 308.9L578.93 309.47C572.76 316.86 571.49 326.71 575.11 335.53C575.28 335.94 575.46 336.34 575.64 336.74C575.89 337.27 575.69 337.79 575.32 338.09C574.97 338.37 574.47 338.45 574.02 338.16L572.74 337.33L572.11 336.92C568.71 334.73 564.98 333.34 561.16 332.82C556.34 332.16 551.4 332.88 546.83 335.16L546.84 335.15Z" fill="white" stroke="#E4DEDE" stroke-width="1.27" stroke-miterlimit="10"/>
<path d="M77.9399 408.971C84.5674 408.971 89.9399 403.598 89.9399 396.971C89.9399 390.343 84.5674 384.971 77.9399 384.971C71.3125 384.971 65.9399 390.343 65.9399 396.971C65.9399 403.598 71.3125 408.971 77.9399 408.971Z" fill="white" stroke="#E4DEDE" stroke-width="2" stroke-miterlimit="10"/>
<path d="M355.64 244.42L298.76 265.08L293.41 264.56L310.61 239.1L355.2 243.44L355.64 244.42Z" fill="#EE4A00"/>
<path d="M355.2 243.44L310.61 239.1L311.89 237.22L313.16 235.33L315.07 232.51L351.9 236.09L353.31 239.24L354.26 241.34L355.2 243.44Z" fill="#EE4A00"/>
<path d="M418.62 221.55L418.63 221.49L418.75 221.5H418.76L420.7 220.8L420.61 221.68L420.42 223.66V223.67L418.43 223.48L414.41 223.08L418.62 221.55Z" fill="#FF9460"/>
<path d="M432.72 97.2698L424.27 184.12L423.56 191.37L421.63 190.6L418.63 221.48V221.49L336.02 213.45L299.52 209.89L284.42 208.43L285 210.49L282.86 210.28L281.89 210.19L280.73 210.07H280.72L275.3 209.54L253.21 207.39L251.22 207.2L251.41 205.21L256.72 150.68L257.48 142.85L258.57 131.69V131.68L259.1 126.23V126.22L259.11 126.08L259.63 120.74L263.52 80.7998L265.52 80.9898L288.82 83.2598L311.39 85.4598L317.56 86.0598L321.44 86.4398L327.31 87.0098L331.96 87.4598L338.13 88.0598L348.84 89.0998L354.31 89.6398L359.26 90.1198L366.66 90.8398L370.35 91.1998L376.12 91.7598L384.39 92.5698L387.66 92.8798L409.51 95.0098L430.73 97.0798H430.74L432.72 97.2698Z" fill="#FF9460"/>
<path d="M420.7 220.8L418.76 221.5H418.63L418.62 221.55L414.41 223.08H414.38L410.05 224.66L372 220.96L410.05 224.67L418.24 225.46L422.22 225.85L422.41 223.86L422.61 221.87L422.79 220.04L420.7 220.8ZM432.91 95.2801L430.93 95.0801L409.71 93.0201L387.28 90.8401L382.57 90.3801C382.57 90.3801 382.57 90.3701 382.56 90.3801L377.95 89.9301L371.94 89.3401L365.55 88.7201L357.86 87.9701H357.85L355.23 87.7201L350.37 87.2401H350.36L339.69 86.2001H339.68L330.83 85.3401L326.62 84.9301L319.47 84.2401L317.78 84.0701L310.27 83.3401L289.04 81.2801L265.73 79.0101L263.74 78.8101L261.75 78.6201L261.56 80.6101L261.36 82.6001L258.17 115.45V115.47L257.63 120.92L257.1 126.39L255.42 143.67L254.66 151.49L253.56 162.84L249.79 201.63L249.48 204.8L249.46 205.02L249.26 207.01L249.07 209L253.05 209.39L281.34 212.14L283.47 212.35L285.62 212.56L285.03 210.49L284.45 208.43L282.31 208.22L280.21 208.01H280.17L253.44 205.41L254.88 190.63L256.77 171.22L258.84 149.85H258.85L259.61 142.03L260.1 136.98L260.63 131.53L261.16 126.05L265.35 82.9801L288.64 85.2501L311.23 87.4501L317.4 88.0501L321.4 88.4301L327.07 88.9901H327.08L331.8 89.4501L337.97 90.0501L347.97 91.0201L354.1 91.6201L360.02 92.1901L367.19 92.8901L369.41 93.1101L375.38 93.6901L409.34 96.9901L430.57 99.0601L422.37 183.36L421.66 190.6L423.59 191.37L425.53 192.13L426.24 184.89L434.55 99.4501L434.75 97.4601L434.94 95.4701L432.94 95.2801H432.91Z" fill="white"/>
<path d="M263.52 80.8L251.22 207.2L227.83 204.92L238.53 94.94C239.41 85.87 247.47 79.23 256.55 80.12L263.52 80.8Z" fill="#EE4A00"/>
<path d="M253.02 209.39L225.65 206.73L236.55 94.7603C237.54 84.6103 246.61 77.1603 256.75 78.1403L265.71 79.0103L253.02 209.39ZM230.02 203.13L249.43 205.02L261.34 82.6003L256.36 82.1203C248.39 81.3403 241.3 87.1903 240.52 95.1503L230.01 203.14L230.02 203.13Z" fill="white"/>
<path d="M444.37 199.6L443.1 212.66L422.79 220.04L425.5 192.13L444.37 199.6Z" fill="#EE4A00"/>
<path d="M454.51 115.961L447 193.111L446.3 200.361L444.37 199.601L425.5 192.131L423.56 191.37L424.27 184.12L432.72 97.2705L434.71 97.4605H434.72L439.69 97.9405C448.76 98.8305 455.4 106.901 454.51 115.961Z" fill="#EE4A00"/>
<path d="M422.61 221.87L422.79 220.04L420.7 220.8L418.76 221.5H418.75L418.62 221.55L418.43 223.47L420.42 223.66L422.41 223.86L430.59 224.65H430.61L432.34 224.02L434.95 223.07L422.61 221.87ZM422.61 221.87L422.79 220.04L420.7 220.8L418.76 221.5H418.63L418.62 221.55L418.43 223.47L418.24 225.46L422.22 225.85L426.23 226.24L430.58 224.66H430.61L432.34 224.02L434.95 223.07L422.61 221.87ZM422.61 221.87L422.79 220.04L420.7 220.8L418.76 221.5H418.75L418.62 221.55L418.43 223.47L420.42 223.66L422.41 223.86L430.59 224.65H430.61L432.34 224.02L434.95 223.07L422.61 221.87ZM439.88 95.9501L434.91 95.4701L432.91 95.2701L430.93 95.0801L430.74 97.0801H430.73L430.54 99.0601L422.34 183.36L421.63 190.6L423.56 191.37L425.5 192.13L426.21 184.89L434.52 99.4501L439.5 99.9301C447.45 100.71 453.3 107.81 452.52 115.77L445.07 192.35L444.37 199.6L446.3 200.36L448.24 201.13L448.94 193.88L456.5 116.16C457.49 106 450.04 96.9401 439.88 95.9501Z" fill="white"/>
<path d="M448.24 201.13L447.26 211.15L445.18 211.91H445.17L443.1 212.66L444.37 199.6L446.3 200.36L448.24 201.13Z" fill="white"/>
<path d="M430.59 224.65V224.66H430.58L426.23 226.24L382.59 242.09H382.58L378.24 243.67H378.22L362.05 242.1L366.4 240.51H366.41L410.05 224.67V224.66L414.38 223.08H414.41L418.43 223.47L420.42 223.66V223.67L422.41 223.86L430.59 224.65Z" fill="white"/>
<path d="M410.05 224.671L366.41 240.511H366.4L353.31 239.241L354.26 241.341L311.89 237.221L289.17 235.011L287.12 234.811L285.07 234.611L241.95 230.411H241.93C239.93 230.221 238.06 229.691 236.35 228.881H236.34C233.1 227.351 230.49 224.841 228.85 221.751C228.38 220.861 227.99 219.931 227.7 218.951C227.1 216.971 226.87 214.841 227.08 212.641L227.23 211.081L227.54 207.871L227.64 206.911L227.83 204.931L235.37 205.661L243.58 206.461H243.59L249.23 207.011L251.22 207.201L253.21 207.401L275.3 209.541L280.72 210.071L281.88 210.191L282.85 210.281L284.99 210.491L285.58 212.561L371.99 220.961L410.04 224.661L410.05 224.671Z" fill="#FF6D2A"/>
<path d="M414.41 223.08H414.38L410.05 224.66L418.24 225.46L418.43 223.48L418.62 221.55L414.41 223.08ZM422.41 223.86L420.42 223.67L420.61 221.68L418.76 221.5H418.75L418.62 221.55L414.41 223.08H414.38L410.05 224.66L418.24 225.46L422.22 225.85L426.23 226.24L430.58 224.66H430.59L422.41 223.86ZM285 210.49L282.86 210.28L281.89 210.19L280.73 210.07L275.31 209.54L253.22 207.39L253.03 209.39L281.32 212.14L283.45 212.35L285.6 212.56L285.01 210.49H285ZM247.24 228.92H247.23L241.95 230.41L285.07 234.61C285.14 234.45 285.2 234.29 285.25 234.13C285.31 233.98 285.36 233.83 285.41 233.67C285.51 233.34 285.59 233 285.67 232.66L247.24 228.92ZM354.26 241.34L353.31 239.24L313.16 235.33L289.67 233.04L287.66 232.85L285.67 232.66L247.24 228.92H247.23L242.12 228.42C241.25 228.34 240.4 228.18 239.59 227.96C235.75 226.93 232.64 224.46 230.81 221.2C230.31 220.32 229.91 219.39 229.62 218.41C229.08 216.66 228.88 214.78 229.07 212.84L229.3 210.5L229.61 207.29L229.63 207.11L230.09 207.15H230.1L238.3 207.95H238.32L249.04 209L253.02 209.39L281.31 212.14L283.44 212.35L285.59 212.56L285 210.49L284.42 208.43L299.52 209.89L284.42 208.42L282.27 208.21L280.18 208.01H280.14L253.41 205.4L251.41 205.21L249.43 205.02H249.42L248.88 204.97H248.87L240.66 204.17H240.65L230.02 203.13L228.02 202.93L226.04 202.74L225.65 206.72L225.48 208.46L225.17 211.67L225.09 212.45C224.85 214.91 225.1 217.3 225.76 219.5C226.04 220.48 226.41 221.41 226.86 222.31C228.34 225.32 230.65 227.87 233.55 229.67H233.56C234.85 230.47 236.26 231.12 237.77 231.59C239.03 231.99 240.36 232.27 241.74 232.4L284.12 236.52L286.29 236.73L288.43 236.94L310.61 239.1L355.2 243.44L354.26 241.34ZM422.41 223.86L420.42 223.67L418.43 223.47L418.62 221.55L414.41 223.08H414.38L410.05 224.66L418.24 225.46L422.22 225.85L426.23 226.24L430.58 224.66H430.59L422.41 223.86ZM366.4 240.51L362.05 242.1L357.69 243.68L373.85 245.26H373.89L373.91 245.24L378.22 243.67L382.58 242.09L366.41 240.51H366.4ZM285.67 232.66L247.24 228.92H247.23L241.95 230.41L285.07 234.61L287.12 234.81C287.21 234.58 287.29 234.34 287.35 234.09C287.48 233.69 287.58 233.27 287.66 232.85L285.67 232.66ZM285 210.49L282.86 210.28L281.89 210.19L280.73 210.07L275.31 209.54L253.22 207.39L253.03 209.39L281.32 212.14L283.45 212.35L285.6 212.56L285.01 210.49H285Z" fill="white"/>
<path d="M366.4 240.51L362.05 242.1L357.69 243.68H357.68L355.2 243.44L354.26 241.34L353.31 239.24L366.4 240.51Z" fill="white"/>
<path d="M418.62 221.55L418.63 221.49L418.75 221.5H418.76L420.7 220.8L420.61 221.68L420.42 223.66V223.67L418.43 223.48L414.41 223.08L418.62 221.55Z" fill="#FF9460"/>
<path d="M439.39 28.7296L432.91 95.2696L432.72 97.2696L424.27 184.12L423.56 191.37L421.63 190.6L418.63 221.48L336.02 213.45L299.52 209.89L284.42 208.43L285 210.49L282.86 210.28L281.89 210.19L280.73 210.07L275.31 209.54L253.22 207.39L251.23 207.2L251.42 205.21L256.73 150.68L257.49 142.85L258.58 131.69L259.11 126.23L259.12 126.08L259.65 120.74L263.53 80.7996L263.73 78.8095L270.18 12.5095C270.46 9.54955 273.1 7.37955 276.06 7.66955L394.44 19.1895L396.43 19.3796L434.77 23.1096C437.6 23.3896 439.68 25.8996 439.4 28.7296H439.39Z" fill="#FF9460"/>
<path d="M258.81 149.85L256.74 171.22L258.82 149.85H258.81ZM420.7 220.8L418.76 221.5H418.63L418.62 221.55L414.41 223.08H414.38L410.05 224.66L372 220.96L410.05 224.67L418.24 225.46L422.22 225.85L422.41 223.86L422.61 221.87L422.79 220.04L420.7 220.8ZM439.78 23.6899C438.57 22.2199 436.85 21.3099 434.96 21.1199L276.25 5.67986C274.28 5.48986 272.36 6.06987 270.84 7.32987C269.31 8.57987 268.37 10.3499 268.18 12.3199L261.73 78.6099L261.53 80.6099L261.34 82.5999L258.14 115.45V115.47L257.61 120.94L257.08 126.4L255.4 143.67H255.39L254.63 151.49L253.53 162.84L249.75 201.64L249.45 204.8L249.44 204.81L249.42 205.02L249.04 209L253.02 209.39L281.31 212.14L283.44 212.35L285.59 212.56L285 210.49L284.42 208.43L282.28 208.22L280.18 208.01H280.14L253.41 205.41L254.85 190.63L256.74 171.22L258.82 149.85L259.58 142.03L260.07 136.98L260.6 131.53L261.13 126.05L265.32 82.9799L265.52 80.9899L265.71 79.0099L269.9 35.9099L270.1 33.9199L270.29 31.9199L272.16 12.7099C272.24 11.7999 272.68 10.9899 273.38 10.4199C274.07 9.83986 274.96 9.56986 275.86 9.65986L394.24 21.1799L398.22 21.5599L434.57 25.0999C435.41 25.1899 436.16 25.5899 436.7 26.2399C437.23 26.8899 437.48 27.6999 437.4 28.5399L435.51 47.9999L435.31 49.9899L435.12 51.9899L430.93 95.0799L430.73 97.0799L430.54 99.0599L422.34 183.36L421.63 190.6L423.56 191.37L425.5 192.13L426.21 184.89L434.52 99.4499L434.71 97.4599L434.91 95.4699L441.38 28.9199C441.57 27.0199 441 25.1699 439.78 23.6899Z" fill="white"/>
<path d="M425.5 192.13L422.79 220.04L420.7 220.8L418.76 221.5H418.75L418.63 221.49V221.48L421.63 190.6L423.56 191.37L425.5 192.13Z" fill="white"/>
<path d="M418.63 221.49L418.62 221.55L414.41 223.08H414.38L410.05 224.66L372 220.96L285.59 212.56L285 210.49L284.42 208.43L299.52 209.89L336.02 213.45L418.63 221.49Z" fill="#EE4A00"/>
<path d="M283.54 24.9797C285.567 24.9797 287.21 23.3365 287.21 21.3097C287.21 19.2828 285.567 17.6396 283.54 17.6396C281.513 17.6396 279.87 19.2828 279.87 21.3097C279.87 23.3365 281.513 24.9797 283.54 24.9797Z" fill="#FF6D2A"/>
<path d="M295.029 26.0998C297.056 26.0998 298.699 24.4567 298.699 22.4298C298.699 20.4029 297.056 18.7598 295.029 18.7598C293.003 18.7598 291.359 20.4029 291.359 22.4298C291.359 24.4567 293.003 26.0998 295.029 26.0998Z" fill="#FF6D2A"/>
<path d="M306.51 27.2199C308.537 27.2199 310.18 25.5768 310.18 23.5499C310.18 21.523 308.537 19.8799 306.51 19.8799C304.483 19.8799 302.84 21.523 302.84 23.5499C302.84 25.5768 304.483 27.2199 306.51 27.2199Z" fill="#FF6D2A"/>
<path d="M318.379 28.3693C320.406 28.3693 322.049 26.7262 322.049 24.6993C322.049 22.6724 320.406 21.0293 318.379 21.0293C316.353 21.0293 314.709 22.6724 314.709 24.6993C314.709 26.7262 316.353 28.3693 318.379 28.3693Z" fill="#FF6D2A"/>
<path d="M411.48 37.4298C413.507 37.4298 415.15 35.7867 415.15 33.7598C415.15 31.733 413.507 30.0898 411.48 30.0898C409.453 30.0898 407.81 31.733 407.81 33.7598C407.81 35.7867 409.453 37.4298 411.48 37.4298Z" fill="#FF6D2A"/>
<path d="M422.96 38.55C424.987 38.55 426.63 36.9068 426.63 34.88C426.63 32.8531 424.987 31.21 422.96 31.21C420.933 31.21 419.29 32.8531 419.29 34.88C419.29 36.9068 420.933 38.55 422.96 38.55Z" fill="#FF6D2A"/>
<path d="M394.416 19.1887L391.896 45.0664L395.878 45.454L398.397 19.5763L394.416 19.1887Z" fill="white"/>
<path d="M268.611 31.7727L268.224 35.7539L436.448 52.1299L436.836 48.1487L268.611 31.7727Z" fill="white"/>
<path d="M313.626 124.345L289.341 121.879C286.066 121.546 283.142 123.931 282.809 127.206L280.84 146.596C280.507 149.871 282.892 152.795 286.167 153.128L310.452 155.595C313.727 155.927 316.651 153.542 316.984 150.267L318.953 130.877C319.286 127.602 316.901 124.678 313.626 124.345Z" fill="#EE4A00"/>
<path d="M405.24 137.35C405.19 137.35 405.14 137.35 405.09 137.35L325.41 129.26C324.59 129.18 323.99 128.44 324.07 127.62C324.15 126.8 324.89 126.2 325.71 126.28L405.39 134.37C406.21 134.45 406.81 135.19 406.73 136.01C406.65 136.78 406 137.36 405.24 137.36V137.35Z" fill="#FF6D2A"/>
<path d="M404.59 143.759C404.54 143.759 404.49 143.759 404.44 143.759L324.76 135.669C323.94 135.589 323.34 134.849 323.42 134.029C323.5 133.209 324.24 132.599 325.06 132.689L404.74 140.779C405.56 140.859 406.16 141.599 406.08 142.419C406 143.189 405.35 143.769 404.59 143.769V143.759Z" fill="#FF6D2A"/>
<path d="M403.94 150.159C403.89 150.159 403.84 150.159 403.79 150.159L324.11 142.069C323.29 141.989 322.69 141.249 322.77 140.429C322.85 139.609 323.6 139.009 324.41 139.089L404.09 147.179C404.91 147.259 405.51 147.999 405.43 148.819C405.35 149.589 404.7 150.169 403.94 150.169V150.159Z" fill="#FF6D2A"/>
<path d="M403.29 156.559C403.24 156.559 403.19 156.559 403.14 156.559L323.46 148.469C322.64 148.389 322.04 147.649 322.12 146.829C322.2 146.009 322.94 145.399 323.76 145.489L403.44 153.579C404.26 153.659 404.86 154.399 404.78 155.219C404.7 155.989 404.05 156.569 403.29 156.569V156.559Z" fill="#FF6D2A"/>
<path d="M402.57 163.67C402.52 163.67 402.47 163.67 402.42 163.67L322.74 155.58C321.92 155.5 321.32 154.76 321.4 153.94C321.48 153.12 322.23 152.51 323.04 152.6L402.72 160.69C403.54 160.77 404.14 161.51 404.06 162.33C403.98 163.1 403.33 163.68 402.57 163.68V163.67Z" fill="#FF6D2A"/>
<path d="M368.269 201.145L392.554 203.612C395.829 203.944 398.753 201.559 399.086 198.284L401.055 178.894C401.388 175.619 399.003 172.695 395.728 172.362L371.443 169.896C368.168 169.563 365.244 171.948 364.911 175.223L362.942 194.613C362.609 197.888 364.994 200.812 368.269 201.145Z" fill="#EE4A00"/>
<path d="M356.34 199.23C356.29 199.23 356.24 199.23 356.19 199.23L276.51 191.14C275.69 191.06 275.09 190.32 275.17 189.5C275.25 188.68 275.99 188.08 276.81 188.16L356.49 196.25C357.31 196.33 357.91 197.07 357.83 197.89C357.75 198.66 357.1 199.24 356.34 199.24V199.23Z" fill="#FF6D2A"/>
<path d="M356.99 192.82C356.94 192.82 356.89 192.82 356.84 192.82L277.16 184.73C276.34 184.65 275.74 183.91 275.82 183.09C275.9 182.27 276.65 181.66 277.46 181.75L357.14 189.84C357.96 189.92 358.56 190.66 358.48 191.48C358.4 192.25 357.75 192.83 356.99 192.83V192.82Z" fill="#FF6D2A"/>
<path d="M357.64 186.42C357.59 186.42 357.54 186.42 357.49 186.42L277.81 178.33C276.99 178.25 276.39 177.51 276.47 176.69C276.55 175.87 277.28 175.27 278.11 175.35L357.79 183.44C358.61 183.52 359.21 184.26 359.13 185.08C359.05 185.85 358.4 186.43 357.64 186.43V186.42Z" fill="#FF6D2A"/>
<path d="M358.29 180.02C358.24 180.02 358.19 180.02 358.14 180.02L278.46 171.93C277.64 171.85 277.04 171.11 277.12 170.29C277.2 169.47 277.94 168.86 278.76 168.95L358.44 177.04C359.26 177.12 359.86 177.86 359.78 178.68C359.7 179.45 359.05 180.03 358.29 180.03V180.02Z" fill="#FF6D2A"/>
<path d="M359.01 172.91C358.96 172.91 358.91 172.91 358.86 172.91L279.18 164.82C278.36 164.74 277.76 164 277.84 163.18C277.92 162.36 278.65 161.76 279.48 161.84L359.16 169.93C359.98 170.01 360.58 170.75 360.5 171.57C360.42 172.34 359.77 172.92 359.01 172.92V172.91Z" fill="#FF6D2A"/>
<path d="M405.497 75.4594L296.706 64.4089C293.432 64.0763 290.507 66.4614 290.175 69.7361L286.53 105.612C286.198 108.886 288.583 111.811 291.858 112.143L400.648 123.194C403.923 123.526 406.847 121.141 407.18 117.867L410.824 81.9912C411.156 78.7165 408.771 75.7921 405.497 75.4594Z" fill="#EE4A00"/>
<path d="M327.52 96.61C327.39 97.95 326.72 98.97 325.52 99.68C324.32 100.39 322.52 100.63 320.14 100.4L309.57 99.37C309.05 99.32 308.67 99.16 308.45 98.89C308.23 98.62 308.13 98.28 308.17 97.86C308.23 97.2 308.57 96.75 309.19 96.5L309.64 96.32C309.85 96.23 310.03 96.12 310.18 95.98C310.32 95.84 310.41 95.59 310.45 95.25L311.45 84.99C311.48 84.64 311.45 84.39 311.33 84.22C311.22 84.05 311.06 83.91 310.87 83.78L310.47 83.51C309.92 83.14 309.67 82.63 309.73 81.98C309.77 81.56 309.93 81.25 310.2 81.03C310.47 80.81 310.87 80.73 311.39 80.78L319.63 81.58C321.31 81.74 322.75 82.11 323.93 82.69C325.11 83.27 326 84 326.59 84.9C327.18 85.8 327.42 86.81 327.31 87.95C327.22 88.83 326.89 89.58 326.3 90.22C325.71 90.86 324.9 91.32 323.85 91.62C322.8 91.92 321.55 91.99 320.08 91.85L320.62 91.25C322.09 91.39 323.36 91.71 324.42 92.21C325.49 92.71 326.29 93.34 326.84 94.1C327.39 94.86 327.62 95.71 327.53 96.64L327.52 96.61ZM318.73 92.86L314.7 92.47L314.91 90.34L318.05 90.65C318.74 90.72 319.33 90.65 319.81 90.47C320.29 90.28 320.68 89.96 320.96 89.5C321.24 89.04 321.42 88.45 321.49 87.73C321.56 87.01 321.49 86.39 321.26 85.86C321.03 85.33 320.67 84.9 320.16 84.59C319.65 84.27 318.99 84.07 318.18 84L317.75 83.96L316.64 95.38C316.57 96.1 316.7 96.65 317.03 97.05C317.36 97.45 317.86 97.67 318.53 97.74L319 97.79C319.47 97.84 319.88 97.79 320.23 97.65C320.58 97.51 320.87 97.29 321.08 96.98C321.29 96.67 321.42 96.27 321.47 95.8C321.55 94.99 321.34 94.33 320.84 93.81C320.34 93.29 319.64 92.98 318.72 92.89L318.73 92.86Z" fill="white"/>
<path d="M339.43 86.3295L338.98 86.5195C338.78 86.6095 338.6 86.7195 338.45 86.8595C338.3 86.9995 338.21 87.2495 338.18 87.5895L337.17 98.0095C337.13 98.4595 337.2 98.7895 337.38 98.9895C337.57 99.1895 337.85 99.3095 338.22 99.3495L339.34 99.4595C339.79 99.4995 340.2 99.4895 340.55 99.4095C340.91 99.3295 341.23 99.1695 341.53 98.9295C341.83 98.6895 342.11 98.3395 342.37 97.9095L343.07 96.7395C343.33 96.3195 343.61 96.0495 343.91 95.9395C344.21 95.8295 344.55 95.8295 344.93 95.9595C345.32 96.0895 345.59 96.3295 345.75 96.6795C345.91 97.0295 345.9 97.4395 345.72 97.9195L344.41 101.28C344.15 101.94 343.86 102.42 343.55 102.71C343.24 103 342.79 103.11 342.2 103.05C341.9 103.02 341.61 102.95 341.35 102.85C341.08 102.74 340.79 102.63 340.47 102.52C340.15 102.41 339.75 102.33 339.27 102.28L330.14 101.39C329.62 101.34 329.24 101.18 329.02 100.91C328.8 100.64 328.7 100.3 328.74 99.8795C328.8 99.2195 329.14 98.7695 329.76 98.5195L330.21 98.3395C330.42 98.2495 330.6 98.1395 330.75 97.9995C330.89 97.8595 330.98 97.6095 331.02 97.2695L332.02 87.0095C332.05 86.6595 332.02 86.4095 331.9 86.2395C331.79 86.0695 331.63 85.9295 331.44 85.7995L331.04 85.5295C330.49 85.1595 330.24 84.6495 330.3 83.9995C330.34 83.5795 330.5 83.2695 330.77 83.0495C331.04 82.8295 331.44 82.7495 331.96 82.7995L339.06 83.4895C339.58 83.5395 339.96 83.6995 340.18 83.9695C340.4 84.2395 340.5 84.5795 340.46 84.9995C340.4 85.6595 340.06 86.1095 339.44 86.3595L339.43 86.3295Z" fill="white"/>
<path d="M358.24 84.79C359.76 84.94 361.1 85.31 362.27 85.91C363.44 86.51 364.42 87.29 365.19 88.24C365.96 89.19 366.53 90.28 366.87 91.5C367.22 92.72 367.32 94.03 367.19 95.42C367.06 96.81 366.69 98.19 366.12 99.36C365.54 100.53 364.78 101.53 363.84 102.34C362.89 103.15 361.79 103.74 360.52 104.12C359.25 104.49 357.86 104.61 356.33 104.46C354.8 104.31 353.42 103.94 352.24 103.34C351.06 102.74 350.09 101.96 349.32 100.99C348.55 100.02 348 98.91 347.67 97.64C347.34 96.38 347.25 95.01 347.39 93.53C347.52 92.2 347.86 90.97 348.42 89.85C348.98 88.72 349.72 87.76 350.66 86.95C351.6 86.14 352.7 85.54 353.98 85.15C355.26 84.76 356.67 84.64 358.23 84.79H358.24ZM360.5 98.43C360.6 97.37 360.61 96.31 360.52 95.26C360.43 94.21 360.26 93.22 360.02 92.29C359.78 91.36 359.47 90.52 359.11 89.79C358.75 89.06 358.35 88.48 357.91 88.04C357.47 87.6 357.01 87.36 356.55 87.31C356.09 87.26 355.68 87.37 355.35 87.62C355.02 87.87 354.75 88.26 354.55 88.8C354.35 89.34 354.21 90.02 354.13 90.83C354.02 91.92 354.02 92.99 354.12 94.05C354.22 95.11 354.4 96.1 354.66 97.03C354.92 97.96 355.23 98.78 355.59 99.5C355.95 100.22 356.35 100.79 356.78 101.21C357.21 101.63 357.64 101.87 358.07 101.91C358.5 101.95 358.89 101.87 359.22 101.65C359.55 101.43 359.83 101.07 360.05 100.54C360.27 100.02 360.42 99.31 360.5 98.42V98.43Z" fill="white"/>
<path d="M385.82 105.88C385.77 106.37 385.62 106.72 385.38 106.93C385.13 107.14 384.77 107.23 384.3 107.18C384.02 107.15 383.77 107.06 383.57 106.91C383.37 106.76 383.19 106.59 383.04 106.4C382.89 106.21 382.73 106.05 382.57 105.9C382.41 105.75 382.23 105.67 382.03 105.65C381.83 105.63 381.56 105.67 381.27 105.77C380.98 105.87 380.63 105.99 380.23 106.13C379.83 106.27 379.37 106.37 378.86 106.45C378.35 106.53 377.76 106.54 377.1 106.47C375.64 106.33 374.36 105.97 373.25 105.4C372.15 104.83 371.24 104.07 370.52 103.14C369.81 102.2 369.3 101.11 369 99.8696C368.7 98.6196 368.62 97.2496 368.77 95.7596C368.91 94.3696 369.28 93.0996 369.9 91.9596C370.52 90.8196 371.32 89.8396 372.3 89.0296C373.28 88.2196 374.39 87.6296 375.63 87.2496C376.87 86.8696 378.17 86.7496 379.54 86.8796C380.44 86.9696 381.17 87.1096 381.73 87.2896C382.28 87.4796 382.74 87.6596 383.09 87.8196C383.44 87.9896 383.76 88.0896 384.04 88.1096C384.29 88.1296 384.51 88.0896 384.7 87.9896C384.89 87.8796 385.08 87.7796 385.27 87.6696C385.46 87.5596 385.65 87.5196 385.87 87.5396C386.24 87.5796 386.49 87.6996 386.62 87.9196C386.75 88.1396 386.85 88.4896 386.94 88.9696L387.75 93.3196C387.83 93.7296 387.74 94.0596 387.49 94.3096C387.24 94.5596 386.9 94.6996 386.49 94.7396C386.15 94.7596 385.84 94.6896 385.55 94.5296C385.27 94.3696 385.04 94.0596 384.87 93.6196C384.5 92.6396 384.07 91.8696 383.57 91.2896C383.07 90.7096 382.54 90.2896 381.96 90.0296C381.38 89.7696 380.79 89.5996 380.18 89.5396C379.26 89.4496 378.44 89.6296 377.71 90.0796C376.98 90.5296 376.39 91.2196 375.93 92.1496C375.47 93.0796 375.17 94.2296 375.04 95.5896C374.89 97.1396 374.99 98.4896 375.35 99.6196C375.71 100.75 376.23 101.66 376.93 102.32C377.63 102.98 378.41 103.35 379.29 103.44C379.53 103.46 379.73 103.46 379.9 103.44C380.07 103.41 380.21 103.36 380.31 103.28C380.42 103.21 380.5 103.1 380.55 102.98C380.61 102.85 380.64 102.7 380.66 102.53L380.87 100.42C380.89 100.16 380.86 99.9796 380.75 99.8596C380.65 99.7396 380.48 99.6196 380.26 99.4896L379.85 99.2496C379.53 99.0596 379.27 98.8496 379.08 98.6296C378.89 98.4096 378.81 98.1296 378.84 97.7796C378.88 97.3796 379.03 97.0796 379.3 96.8696C379.57 96.6596 379.97 96.5896 380.49 96.6396L386.94 97.2696C387.47 97.3196 387.85 97.4796 388.07 97.7296C388.29 97.9796 388.38 98.3096 388.34 98.6996C388.31 99.0196 388.21 99.2696 388.04 99.4596C387.87 99.6496 387.64 99.7996 387.34 99.9196L387.09 100.02C386.9 100.09 386.72 100.19 386.57 100.31C386.42 100.43 386.33 100.65 386.3 100.96L385.82 105.92V105.88Z" fill="white"/>
<path d="M298.76 265.08L280.92 271.56L266.62 265.78L266.7 265C266.86 263.33 268.34 262.12 270 262.28L293.41 264.56L298.76 265.08Z" fill="#FF6D2A"/>
<path d="M178.59 237.71L176.03 236.68L171.63 234.89L176.04 236.67L178.59 237.71Z" fill="#FF6D2A"/>
<path d="M287.66 232.849C287.58 233.269 287.48 233.689 287.35 234.089C287.28 234.339 287.21 234.579 287.12 234.809C286.89 235.469 286.61 236.119 286.29 236.729C284.54 240.059 281.49 242.699 277.61 243.799L239.17 254.669H239.15L236.13 253.449L205.02 240.849H205.01L200.48 239.019L187.03 233.569H187.02L182.5 231.739L170.85 227.019H170.84L170 227.259C169.86 227.299 169.72 227.319 169.59 227.319C168.93 227.319 168.33 226.889 168.14 226.229C168.11 226.119 168.1 226.009 168.09 225.909L136.9 213.279H136.89L134.54 212.329L131.05 199.969L129.14 193.199L111.97 132.459L106.88 114.459C105.2 108.519 107.61 102.339 112.42 98.9795H112.43C113.69 98.0895 115.11 97.4095 116.66 96.9695L227.29 65.7095C234.78 63.5895 242.65 67.9895 244.77 75.4895L246.13 80.2995L246.69 82.2695L247.25 84.2595L257.61 120.919L257.62 120.939L259.11 126.219L260.61 131.519L263.18 140.619L265.09 147.389L276.61 188.139L277.48 191.229L282.28 208.209H282.29L282.87 210.279L283.45 212.349L287.4 226.309C288.02 228.509 288.08 230.739 287.67 232.849H287.66Z" fill="#FF6D2A"/>
<path d="M228.19 257.77L231.2 259L228.18 257.77H228.19ZM289.32 225.77L285.59 212.56L285 210.49L284.42 208.43L279.62 191.45L278.74 188.34L277.73 184.78L276.89 181.79L269.83 156.83L266.96 146.66L265.05 139.89L261.13 126.05L259.64 120.74H259.63L258.14 115.48V115.45L249.05 83.2897L248.5 81.3597L247.96 79.4297L246.69 74.9397C245.52 70.7997 242.79 67.3597 239.01 65.2397C235.23 63.1297 230.87 62.6097 226.73 63.7797L116.11 95.0497C114.18 95.5997 112.43 96.4697 110.91 97.5997C105.65 101.48 103.07 108.35 104.95 115L109.16 129.89L124.83 185.33L127.26 193.93L129.17 200.71L132.19 211.38L134.53 212.33L136.88 213.28L132.92 199.24L131 192.47L128.57 183.87L114.77 135.03L108.8 113.92C107.92 110.8 108.31 107.52 109.9 104.67C110.89 102.9 112.28 101.43 113.93 100.37C114.94 99.7297 116.03 99.2297 117.2 98.8997L227.82 67.6297C228.92 67.3197 230.03 67.1697 231.12 67.1697C236.43 67.1697 241.33 70.6797 242.84 76.0297L244.36 81.3997L244.93 83.4397L245.53 85.5297L257.07 126.39H257.08V126.41L258.57 131.68L260.07 136.97L261.3 141.35L263.22 148.13L265.72 156.99L280.14 208L280.72 210.07L281.3 212.14L285.46 226.86C286.01 228.82 286.05 230.8 285.66 232.66C285.58 233 285.5 233.34 285.4 233.67C285.35 233.83 285.3 233.98 285.24 234.13C285.19 234.29 285.13 234.45 285.06 234.61C284.81 235.27 284.49 235.91 284.11 236.52C282.57 239.04 280.12 241.01 277.06 241.88L236.14 253.44H236.12L239.14 254.67H239.16L240.26 255.12L240.66 255.29L242.16 255.9H242.18L278.14 245.73C282.86 244.39 286.5 241.08 288.42 236.94C288.71 236.32 288.96 235.67 289.16 235.01C289.37 234.37 289.53 233.71 289.66 233.04C290.09 230.7 290 228.22 289.31 225.77H289.32Z" fill="white"/>
<path d="M142.47 113.22C141.6 113.22 140.8 112.64 140.55 111.76C140.25 110.7 140.87 109.59 141.93 109.29L211.47 89.64C212.53 89.34 213.64 89.9601 213.94 91.0201C214.24 92.0801 213.62 93.1901 212.56 93.4901L143.02 113.14C142.84 113.19 142.65 113.22 142.48 113.22H142.47Z" fill="white"/>
<path d="M163.75 206.709C163.1 206.709 162.49 206.279 162.31 205.619C162.08 204.819 162.55 203.989 163.35 203.769L243.64 181.079C244.44 180.859 245.27 181.319 245.49 182.119C245.72 182.919 245.25 183.749 244.45 183.969L164.16 206.659C164.02 206.699 163.89 206.719 163.75 206.719V206.709Z" fill="#EE4A00"/>
<path d="M166.66 217.019C166.01 217.019 165.4 216.589 165.22 215.929C164.99 215.129 165.46 214.299 166.26 214.079L246.55 191.389C247.35 191.169 248.18 191.629 248.4 192.429C248.63 193.229 248.16 194.059 247.36 194.279L167.07 216.969C166.93 217.009 166.8 217.029 166.66 217.029V217.019Z" fill="#EE4A00"/>
<path d="M250.28 204.569L249.45 204.799L249.44 204.809L248.88 204.969H248.87L243.59 206.459H243.58L238.32 207.949H238.3L229.3 210.499L227.23 211.079L225.17 211.669L170.84 227.019H170.83L169.99 227.259C169.85 227.299 169.71 227.319 169.58 227.319C168.92 227.319 168.32 226.889 168.13 226.229C168.1 226.119 168.09 226.009 168.08 225.909C168.04 225.209 168.48 224.569 169.17 224.369L225.48 208.459L227.54 207.869L229.61 207.289L230.09 207.149H230.1L235.37 205.659L240.65 204.169H240.66L249.46 201.679C249.56 201.649 249.66 201.639 249.75 201.639C249.76 201.629 249.76 201.639 249.76 201.639C250.46 201.579 251.12 202.019 251.31 202.719C251.54 203.509 251.07 204.339 250.28 204.569Z" fill="#EE4A00"/>
<path d="M176.04 236.67L176.03 236.68L171.63 234.89L176.04 236.67Z" fill="#EE4A00"/>
<path d="M253.19 214.87L230.81 221.2L228.85 221.75L226.86 222.31L187.03 233.57H187.02L182.5 231.74L225.76 219.5L227.7 218.95L229.62 218.41L252.37 211.98C253.18 211.76 254 212.22 254.23 213.02C254.45 213.82 253.99 214.65 253.19 214.87Z" fill="#EE4A00"/>
<path d="M256.43 226.319L247.24 228.919H247.23L241.95 230.409L237.77 231.589L205.02 240.849H205.01L200.48 239.019H200.49V239.009L233.54 229.669H233.55L236.33 228.879H236.34L239.58 227.959L255.6 223.429C256.4 223.209 257.23 223.669 257.45 224.469C257.68 225.269 257.21 226.099 256.42 226.319H256.43Z" fill="#EE4A00"/>
<path d="M218.068 109.969L147.338 129.957C144.17 130.852 142.328 134.146 143.223 137.314L156.818 185.42C157.713 188.587 161.006 190.429 164.174 189.534L234.904 169.546C238.072 168.651 239.914 165.358 239.019 162.19L225.424 114.084C224.529 110.916 221.236 109.074 218.068 109.969Z" fill="#EE4A00"/>
<path d="M218.62 146.739C218.44 146.539 218.26 146.339 218.07 146.149C214.17 142.099 209.21 139.299 203.85 137.929C198.64 136.599 193.05 136.609 187.69 138.149C176.71 141.299 168.29 150.389 166.11 161.399C166.08 161.549 166.05 161.699 166.02 161.849L165.94 162.309L166.25 162.659C173.92 171.079 186.07 174.459 197.2 171.259C208.33 168.059 216.82 158.759 218.86 147.549L218.95 147.089L218.63 146.739H218.62ZM201.12 151.839L200.6 152.189L200.34 152.339C198.99 153.249 197.88 154.399 197.05 155.759C196.05 157.419 195.51 159.389 195.61 161.439L195.87 165.229C195.91 165.689 195.26 165.909 195.02 165.469L193.13 162.089C192.16 160.419 190.74 158.969 189.05 157.999C187.73 157.239 186.22 156.709 184.7 156.629L184.29 156.579L183.74 156.549C183.28 156.529 183.13 155.919 183.53 155.689C183.7 155.619 183.83 155.549 183.95 155.459C187.1 153.449 188.92 149.799 188.79 146.069L188.81 145.799L188.75 142.309C188.75 141.829 189.4 141.649 189.6 142.079L191.13 145.129L191.26 145.389C193.01 148.879 196.45 150.929 200.3 151.019C200.51 151.029 200.68 151.019 200.86 151.019C201.09 151.019 201.25 151.149 201.31 151.339C201.36 151.509 201.29 151.719 201.11 151.829L201.12 151.839Z" fill="white"/>
<path d="M167.67 163.499C167.47 163.499 167.26 163.449 167.07 163.349L155.4 156.979C154.8 156.649 154.57 155.889 154.9 155.289C155.23 154.679 155.99 154.459 156.59 154.789L168.26 161.159C168.86 161.489 169.09 162.249 168.76 162.849C168.53 163.269 168.11 163.499 167.66 163.499H167.67Z" fill="white"/>
<path d="M173.48 147.399C173.17 147.399 172.85 147.279 172.61 147.049L163.93 138.609C163.44 138.129 163.43 137.339 163.91 136.849C164.39 136.359 165.18 136.349 165.67 136.829L174.35 145.269C174.84 145.749 174.85 146.539 174.37 147.029C174.12 147.279 173.8 147.409 173.48 147.409V147.399Z" fill="white"/>
<path d="M217.54 148.309C217.33 148.309 217.12 148.259 216.93 148.149C216.33 147.809 216.12 147.049 216.45 146.449L222.96 134.859C223.3 134.259 224.06 134.049 224.66 134.379C225.26 134.719 225.47 135.479 225.14 136.079L218.63 147.669C218.4 148.079 217.98 148.309 217.54 148.309Z" fill="white"/>
<path d="M203.75 139.569C203.65 139.569 203.55 139.559 203.45 139.529C202.78 139.369 202.37 138.689 202.53 138.019L205.41 126.259C205.57 125.589 206.25 125.179 206.92 125.339C207.59 125.499 208 126.179 207.84 126.849L204.96 138.609C204.82 139.179 204.31 139.559 203.75 139.559V139.569Z" fill="white"/>
<path d="M187.71 139.379C187.17 139.379 186.67 139.019 186.51 138.479L183.07 126.489C182.88 125.829 183.26 125.139 183.92 124.949C184.58 124.759 185.27 125.139 185.46 125.799L188.9 137.789C189.09 138.449 188.71 139.139 188.05 139.329C187.93 139.359 187.82 139.379 187.7 139.379H187.71Z" fill="white"/>
<path d="M80.2497 69.5196L63.3597 87.9596L52.6397 78.1396C50.8197 76.4696 50.6997 73.6496 52.3597 71.8296L63.2097 59.9796C64.8797 58.1596 67.6997 58.0396 69.5197 59.6996L80.2397 69.5196H80.2497Z" fill="#FF6D2A"/>
<path d="M63.37 89.46C63.01 89.46 62.64 89.33 62.36 89.07L51.64 79.25C50.46 78.17 49.78 76.7 49.71 75.11C49.64 73.52 50.2 71.99 51.27 70.82L62.12 58.97C63.2 57.79 64.67 57.11 66.26 57.04C67.86 56.97 69.38 57.53 70.55 58.6L81.27 68.42C81.56 68.69 81.74 69.06 81.76 69.46C81.78 69.86 81.64 70.25 81.37 70.54L64.48 88.98C64.18 89.3 63.78 89.47 63.37 89.47V89.46ZM66.52 60.04C66.52 60.04 66.43 60.04 66.39 60.04C65.6 60.07 64.87 60.42 64.33 61L53.48 72.85C52.94 73.43 52.67 74.19 52.7 74.98C52.74 75.77 53.08 76.5 53.66 77.04L63.27 85.84L78.13 69.62L68.52 60.82C67.97 60.32 67.26 60.04 66.52 60.04Z" fill="white"/>
<path d="M85.4188 74.2643L68.5322 92.6992L127.524 146.736L144.41 128.301L85.4188 74.2643Z" fill="#EE4A00"/>
<path d="M127.53 148.22C127.16 148.22 126.79 148.08 126.52 147.83L67.5197 93.8C67.2297 93.53 67.0497 93.16 67.0297 92.76C67.0097 92.36 67.1497 91.97 67.4197 91.68L84.3097 73.24C84.8697 72.63 85.8197 72.59 86.4297 73.15L145.42 127.18C146.03 127.74 146.07 128.69 145.51 129.3L128.63 147.74C128.36 148.03 127.99 148.21 127.59 148.23C127.57 148.23 127.55 148.23 127.52 148.23L127.53 148.22ZM70.6497 92.59L127.43 144.6L142.29 128.38L85.5097 76.37L70.6497 92.59Z" fill="white"/>
<path d="M152.89 147.161L146.64 153.981L129 148.071L145.89 129.641L152.89 147.161Z" fill="white"/>
<path d="M146.64 154.98C146.53 154.98 146.43 154.96 146.32 154.93L128.68 149.02C128.36 148.91 128.11 148.65 128.03 148.32C127.95 147.99 128.03 147.64 128.26 147.39L145.15 128.95C145.38 128.7 145.73 128.58 146.07 128.64C146.41 128.7 146.69 128.93 146.82 129.25L153.82 146.77C153.96 147.13 153.89 147.53 153.63 147.82L147.38 154.64C147.19 154.85 146.92 154.96 146.64 154.96V154.98ZM130.77 147.61L146.34 152.82L151.72 146.94L145.54 131.48L130.77 147.61Z" fill="white"/>
<path d="M153.89 156.409L146.65 153.979L152.9 147.159L155.8 154.399C156.28 155.609 155.13 156.829 153.9 156.419L153.89 156.409Z" fill="#FF9460"/>
<path d="M154.38 157.49C154.11 157.49 153.83 157.45 153.56 157.36L146.32 154.93C146 154.82 145.75 154.56 145.67 154.23C145.59 153.9 145.67 153.55 145.9 153.3L152.15 146.48C152.38 146.23 152.73 146.11 153.07 146.17C153.41 146.23 153.69 146.46 153.82 146.78L156.72 154.02C157.09 154.95 156.89 155.97 156.21 156.69C155.72 157.21 155.06 157.48 154.38 157.48V157.49ZM154.2 155.46C154.49 155.56 154.68 155.4 154.75 155.32C154.82 155.25 154.97 155.04 154.86 154.76L152.55 149L148.42 153.51L154.2 155.45V155.46Z" fill="#FF9460"/>
</g>
<defs>
<clipPath id="clip0_482_2">
<rect width="600" height="510" fill="white"/>
</clipPath>
</defs>
</svg>
