<?xml version="1.0" encoding="UTF-8"?><svg id="_ícones_serviços" xmlns="http://www.w3.org/2000/svg" viewBox="0 0 600 600"><defs><style>.cls-1,.cls-2,.cls-3{fill:#fff;}.cls-4{fill:#05183c;}.cls-5{fill:#ff9460;}.cls-6{stroke:#fff;stroke-width:6.77px;}.cls-6,.cls-7{fill:none;}.cls-6,.cls-2,.cls-3{stroke-miterlimit:10;}.cls-8{fill:#1a3c7d;}.cls-9{fill:#ee4a00;}.cls-10{fill:#06296b;}.cls-11{fill:#ff6d2a;}.cls-2{stroke-width:2px;}.cls-2,.cls-3{stroke:#e4dede;}.cls-3{stroke-width:1.27px;}</style></defs><g><g><path class="cls-4" d="M277.62,315.96s-.01,.03-.01,.04h-.01l.02-.04Z"/><path class="cls-4" d="M279.5,314.09c-.06,.02-.11,.04-.17,.07,.02,0,.05-.03,.08-.04s.06-.03,.09-.03Z"/><path class="cls-4" d="M283.06,314.59h0s-.04-.02-.06-.04c.02,.01,.04,.03,.06,.04Z"/><path class="cls-4" d="M284.14,316.12h-.01s-.02-.09-.04-.13c.02,.04,.04,.09,.05,.13Z"/><polygon class="cls-4" points="280.92 313.56 280.91 313.57 266.62 307.79 266.62 307.78 280.92 313.56"/><polygon class="cls-4" points="357.68 285.68 355.64 286.42 355.2 285.44 357.68 285.68"/><polygon class="cls-4" points="418.62 263.55 418.63 263.49 418.75 263.5 418.62 263.55"/><path class="cls-4" d="M421.63,232.6l-3,30.88h0s-82.61-8.03-82.61-8.03l-36.5-3.56-15.1-1.46,.58,2.06,.59,2.07,86.41,8.4,38.05,3.7h0s-43.64,15.85-43.64,15.85h-.01l-13.09-1.27,.95,2.1,.94,2.1-44.59-4.34-17.2,25.46-23.41-2.28c-1.66-.16-3.14,1.05-3.3,2.72l-.08,.78-24.44-9.88h-.01l-1.5-.61-.4-.17-1.1-.45h-.02l-3.02-1.22-31.11-12.6h-.01l-4.53-1.83-13.45-5.45h-.01l-4.52-1.83h0l-11.65-4.72h-.01l-2.75-1.11h0s-31.19-12.63-31.19-12.63h-.01l-2.35-.95-2.34-.95-14.88-6.02,11.86-4.65,1.87-.74,1.88-.73,26.49-10.39,70.67-27.73h.01l2.08-.81,2.09-.83,3.61-1.41,16.76-6.58h.01l2.08-.81,2.09-.83h.01l4.4-1.72,1.86-.74,1.88-.73,14.46-5.67,3.46-1.36c2.56-1,5.37-1,7.92,0l24.29,9.61,9.34,3.69h.01s10.22,4.05,10.22,4.05h.01s32.89,13.03,32.89,13.03h.01l31.13,12.31,20.93,8.28Z"/><polygon class="cls-4" points="460.98 248.17 447.26 253.15 448.24 243.13 460.98 248.17"/><path class="cls-1" d="M277.6,316s-.01,.02-.01,.03c0,0,.01-.02,.02-.03,0-.01,0-.02,.01-.04l-.02,.04Zm1.81-1.88s-.06,.03-.08,.04c.06-.03,.11-.05,.17-.07-.03,0-.06,.02-.09,.03Zm-111.33-46.22h0s2.75,1.12,2.75,1.12l-2.75-1.12Zm32.42,13.11h0l-13.46-5.44,13.45,5.45,4.53,1.83-4.51-1.84Zm41.69,16.88l-1.92-.77,.4,.17,1.5,.61h.01l24.44,9.88-24.43-9.89Zm-3.03-1.22l1.11,.45-1.1-.45h-.01Zm-34.14-13.82l31.11,12.6,3.02,1.22h.01l-3.01-1.23-31.13-12.59Zm61.6,24.93h0s14.29,5.79,14.29,5.79h.01s-14.3-5.79-14.3-5.79Zm16.38,6.77s.04,.03,.06,.05h0s-.04-.04-.06-.05Zm1.09,1.44s.03,.09,.04,.13h.01s-.03-.09-.05-.13Z"/></g><g><path class="cls-8" d="M277.31,334.22l-.45,210.42c-.05-.02-.11-.04-.16-.06l-156.16-62.46c-4.08-1.64-6.74-5.53-6.79-9.93l-1.51-142.03h0s128.55,51.77,128.55,51.77c1.85,.74,3.75,1.1,5.62,1.1,.39,0,.78-.02,1.17-.05,.62-.05,1.23-.13,1.83-.27,1.09-.22,2.16-.57,3.16-1.04,.24-.11,.48-.22,.71-.35,.17-.09,.33-.18,.49-.27,.22-.13,.44-.26,.65-.4,2.37-1.54,4.33-3.78,5.55-6.58l17.34-39.85Z"/><path class="cls-1" d="M283,314.55s.04,.03,.06,.05h0s-.04-.04-.06-.05Zm-3.59-.43s-.06,.03-.08,.04c.06-.03,.11-.05,.17-.07-.03,0-.06,.02-.09,.03Zm-1.81,1.88s-.01,.02-.01,.03c0,0,.01-.02,.02-.03,0-.01,0-.02,.01-.04l-.02,.04Z"/></g><g><path class="cls-10" d="M467.83,473.6c.01,4.62-2.92,8.73-7.28,10.24l-176.3,60.92c-.13,.04-.26,.09-.39,.13l.46-213.11,22.32,43.64c.33,.64,.69,1.24,1.1,1.81,.6,.86,1.28,1.63,2.03,2.33,2.75,2.54,6.37,3.96,10.11,3.96,1.71,0,3.45-.3,5.14-.93l142.5-52.71,.31,143.72Z"/><path class="cls-1" d="M284.09,315.99s.03,.09,.04,.13h.01s-.03-.09-.05-.13Zm-1.09-1.44s.04,.03,.06,.05h0s-.04-.04-.06-.05Zm-3.59-.43s-.06,.03-.08,.04c.06-.03,.11-.05,.17-.07-.03,0-.06,.02-.09,.03Z"/><path class="cls-1" d="M418.76,263.5h-.01l-.13,.05-4.21,1.53,4.02,.39,1.99,.19,.19-1.98-1.85-.18Zm-250.68,4.41c.01,.1,.02,.21,.05,.32,.19,.66,.79,1.09,1.45,1.09,.13,0,.27-.02,.41-.06l.84-.24-2.75-1.11Zm193.97,16.19l-4.36,1.58,16.16,1.58h.04s.02-.02,.02-.02h.01s4.3-1.57,4.3-1.57l-16.17-1.57Zm60.56-20.23l.18-1.83-2.09,.76-1.94,.7h-.01l-.13,.05-4.21,1.53,4.02,.39,1.99,.19h0s1.99,.2,1.99,.2l8.18,.79h.02l1.73-.63,2.61-.95-12.34-1.2Zm24.39-28.76l-1.93-.76-18.86-7.46-1.94-.77-1.93-.76-22.74-9-5.43-2.15-21.33-8.44-10.56-4.18h-.03s-10.2-4.05-10.2-4.05h-.03s-14.19-5.62-14.19-5.62l-10.24-4.05-9.76-3.86-22.46-8.89c-4.2-1.65-8.83-1.66-13.05-.01l-.11,.04-17.16,6.74-1.88,.73-1.87,.73-1.72,.68-2.1,.82-2.08,.82h-.01l-19.44,7.63-.93,.36-2.09,.82-2.08,.82-17.59,6.9-7.74,3.04-22.24,8.72-27.24,10.68-25.04,9.83-1.87,.73-1.87,.73,1.91,6.78,1.87-.74,1.88-.73,26.49-10.39,70.67-27.73h.01l2.08-.81,2.09-.83,.59-.23,3.02-1.18,16.76-6.58h.01l2.08-.81,2.09-.83h.01l4.4-1.72,1.86-.74,1.88-.73,14.46-5.67,3.46-1.36c2.56-1,5.37-1,7.92,0l24.29,9.61,9.34,3.69h.01s10.22,4.05,10.22,4.05h.01s6.47,2.57,6.47,2.57l26.42,10.46h.01l31.13,12.31,20.93,8.28,1.93,.77,1.94,.76,18.87,7.47,1.93,.76,1.94,.77,.7-7.25-1.94-.77Zm-32.59,29.97l4.02,.39,.19-1.92-4.21,1.53Z"/><path class="cls-1" d="M284.14,316.12h-.01s-.02-.09-.04-.13c.02,.04,.04,.09,.05,.13Zm-1.08-1.53h0s-.04-.02-.06-.04c.02,.01,.04,.03,.06,.04Zm-3.65-.47s.06-.03,.09-.03c-.06,.02-.11,.04-.17,.07,.02,0,.05-.03,.08-.04Zm-1.81,1.88l.02-.04s-.01,.03-.01,.04c-.01,.01-.02,.02-.02,.03,0,0,.01-.02,.01-.03Zm-.74,228.64c-.05-.02-.11-.04-.16-.06l-156.16-62.46c-4.08-1.64-6.74-5.53-6.79-9.93l-.15-13.96-1.36-128.07h0s128.55,51.77,128.55,51.77c1.85,.74,3.75,1.1,5.62,1.1,.39,0,.78-.02,1.17-.05,.62-.05,1.23-.13,1.83-.27,1.09-.22,2.16-.57,3.16-1.04,.24-.11,.48-.22,.71-.35,.17-.09,.33-.18,.49-.27,.22-.13,.44-.26,.65-.4,2.37-1.54,4.33-3.78,5.55-6.58l17.34-39.85-.34,158.63-.11,51.79Zm190.97-71.04c.01,4.62-2.92,8.73-7.28,10.24l-176.3,60.92c-.13,.04-.26,.09-.39,.13l.11-51.9,.35-161.21,22.32,43.64c.33,.64,.69,1.24,1.1,1.81,.6,.86,1.28,1.63,2.03,2.33,2.75,2.54,6.37,3.96,10.11,3.96,1.71,0,3.45-.3,5.14-.93l142.5-52.71,.28,128.49,.03,15.23Zm37.9-177.05l-31.85-49.99-.08-.13c-.16-.25-.35-.47-.56-.67-.05-.06-.11-.11-.17-.15-.15-.13-.31-.24-.47-.33-.07-.04-.14-.08-.22-.11-.09-.05-.19-.09-.29-.13l-23.15-9.16-.7,7.25,12.74,5.04-13.72,4.98-2.08,.76h-.01l-2.07,.75-20.31,7.38-.18,1.83,12.34,1.2h0l7.39-2.68,.75-.28,.35-.13,.97-.35,2.09-.75h0s22.9-8.32,22.9-8.32l30.42,47.75c1.28,2.01,1.58,4.47,.82,6.73-.76,2.27-2.49,4.05-4.73,4.88l-26.09,9.65-147.24,54.46c-3.72,1.38-7.9-.25-9.71-3.79l-27.11-52.99h0s29.17-10.6,29.17-10.6l58.91-21.39-16.16-1.58h-.01l-2.04,.74-56.88,20.66-17.84,6.48h-.01s-14.29-5.77-14.29-5.77h0s-24.44-9.89-24.44-9.89h-.01l-1.5-.61-.4-.17-1.1-.45h-.02l-3.02-1.22-31.11-12.6h-.01l-4.53-1.83-13.45-5.45h-.01l-4.52-1.83h0l-11.65-4.72h-.01l-.84,.24c-.14,.04-.28,.06-.41,.06-.66,0-1.26-.43-1.45-1.09-.03-.11-.04-.22-.05-.32h0s-31.19-12.63-31.19-12.63h-.01l-2.35-.95-2.34-.95-14.88-6.02,11.86-4.65-1.91-6.78-20.69,8.12-.06,.03c-.18,.08-.36,.17-.54,.28-.11,.07-.21,.14-.3,.22-.14,.11-.27,.22-.38,.35-.12,.13-.22,.26-.32,.4-.06,.07-.1,.14-.14,.22-.01,.01-.02,.03-.03,.04l-29.14,51.72c-2.1,3.73-2.49,8.18-1.08,12.21,1.41,4.04,4.5,7.27,8.47,8.88l22.15,8.92,1.36,127.63,.19,17.32c.07,7.23,4.47,13.65,11.19,16.35l156.15,62.46c1.94,.77,4,1.2,6.13,1.26h.13c.14,0,.28,.01,.42,.01,1.96,0,3.89-.33,5.76-.97l176.3-60.92c7.18-2.49,12-9.26,12-16.86v-.02l-.04-18.51-.27-127.77,23.83-8.82h.01c4.23-1.57,7.49-4.93,8.92-9.21,1.44-4.28,.88-8.91-1.55-12.72Zm-229.52,22.66l-22.66,52.07c-1.68,3.87-6.22,5.73-10.14,4.15l-133.5-53.77-24.24-9.76c-2.1-.84-3.73-2.56-4.48-4.69-.75-2.14-.54-4.49,.57-6.46l27.63-49.04,25.21,10.2,.19,.08,.3,.12,1.85,.75h.01l.29,.12,1.11,.45,.53,.21,.04,.02,.11,.04,.23,.1h.04s32.33,13.09,32.33,13.09l4.41,1.78,2.55,1.04,1.79,.72,1.5,.61h.02s1.12,.46,1.12,.46l6.47,2.62h0l4.52,1.83h.01l18.75,7.59,11.81,4.78,.56,.23h.01l3.02,1.22h.01l3.02,1.22,34.95,14.14h0s10.05,4.07,10.05,4.07h0Z"/></g><g><path class="cls-8" d="M276.21,319.21l-22.66,52.07c-1.68,3.87-6.22,5.73-10.14,4.15l-133.5-53.77-24.24-9.76c-2.1-.84-3.73-2.56-4.48-4.69-.75-2.14-.54-4.49,.57-6.46l27.63-49.04,25.21,10.2,.19,.08,.3,.12,1.85,.75h.01l.29,.12,1.11,.45,.53,.21,.04,.02,.11,.04,.23,.1h.04s32.33,13.09,32.33,13.09l4.4,1.79,2.56,1.03,1.79,.72,1.5,.61h.02s1.12,.46,1.12,.46l6.47,2.62h0l4.52,1.83h.01l18.75,7.59,11.81,4.78,.56,.23h.01l3.02,1.22h.01l3.01,1.23,34.96,14.14,10.05,4.07Z"/><polygon class="cls-8" points="178.59 279.71 176.03 278.68 171.63 276.89 176.04 278.67 178.59 279.71"/><polygon class="cls-8" points="266.16 315.13 266.16 315.14 231.2 301 228.19 299.77 231.21 300.99 266.16 315.13"/><polygon class="cls-8" points="276.21 319.2 276.21 319.21 266.16 315.14 276.21 319.2"/><path class="cls-8" d="M277.61,316s-.02,.02-.02,.03c0,0,.01-.02,.01-.03h.01Z"/><path class="cls-1" d="M112.24,330.15h0s128.55,51.78,128.55,51.78l-128.55-51.78Zm153.92-15.01l10.05,4.07h0s-10.05-4.07-10.05-4.07Zm11.44,.86s-.01,.02-.01,.03c0,0,.01-.02,.02-.03,0-.01,0-.02,.01-.04l-.02,.04Zm1.81-1.88s-.06,.03-.08,.04c.06-.03,.11-.05,.17-.07-.03,0-.06,.02-.09,.03Zm4.68,1.87s.03,.09,.04,.13h.01s-.03-.09-.05-.13Zm-108.05-37.32l-4.41-1.78,4.4,1.79,2.56,1.03-2.55-1.04Zm55.17,22.32l-3.02-1.22,3.01,1.23,34.96,14.14h0s-34.95-14.15-34.95-14.15Z"/></g><g><path class="cls-10" d="M500.65,307.04c-.76,2.27-2.49,4.05-4.73,4.88l-26.09,9.65-147.24,54.46c-3.72,1.38-7.9-.25-9.71-3.79l-27.11-52.99,29.17-10.6,58.91-21.39h.04s.01-.01,.01-.01h.01s4.31-1.58,4.31-1.58l4.36-1.58h.01l43.64-15.85,4.35-1.58h.03s1.73-.64,1.73-.64l2.61-.95h0l7.39-2.68,.75-.28,.35-.13,.97-.34h0s2.09-.76,2.09-.76h0s22.9-8.32,22.9-8.32l30.42,47.75c1.28,2.01,1.58,4.47,.82,6.73Z"/><polygon class="cls-10" points="314.94 308.65 285.77 319.25 285.77 319.24 314.94 308.65"/><polygon class="cls-10" points="373.92 287.23 373.93 287.23 373.9 287.25 373.86 287.26 373.92 287.23"/><polygon class="cls-10" points="432.34 266.02 430.61 266.65 430.59 266.66 430.59 266.65 432.34 266.02"/><path class="cls-1" d="M285.77,319.24h0s29.17-10.59,29.17-10.59l-29.17,10.59Zm88.12-31.99h.02s-.02,0-.02,0Zm56.7-20.6h0s.02,0,.02,0h-.02Zm-144.82,52.59h0s29.17-10.59,29.17-10.59l-29.17,10.59Zm88.12-31.99h.02s-.02,0-.02,0Zm56.7-20.6h0s.02,0,.02,0h-.02Zm-146.5,49.34s.03,.09,.04,.13h.01s-.03-.09-.05-.13Zm-1.09-1.44s.04,.03,.06,.05h0s-.04-.04-.06-.05Zm-5.4,1.45s-.01,.02-.01,.03c0,0,.01-.02,.02-.03h-.01Z"/></g></g><g><path class="cls-6" d="M449.82,226.86c-.64-.25-1.29-.5-1.94-.75-.65-.25-1.29-.5-1.94-.74-6.14-2.31-12.46-4.49-18.95-6.53-.65-.21-1.3-.41-1.95-.61-.65-.2-1.3-.4-1.95-.6-15.85-4.81-32.66-8.8-50.25-11.86-9.68-1.7-19.59-3.11-29.7-4.22-17.13-1.88-34.84-2.92-52.97-3.01-6.84-.03-13.62,.07-20.34,.29-.69,.02-1.37,.05-2.06,.07-.68,.03-1.37,.06-2.05,.09-2.56,.11-5.1,.23-7.63,.38h-.01c-.68,.04-1.35,.08-2.02,.12-.68,.04-1.35,.08-2.02,.13-5.36,.35-10.67,.78-15.93,1.3-1.09,.1-2.18,.21-3.26,.33-.19,.02-.38,.04-.57,.06-.68,.07-1.36,.14-2.03,.21-.68,.08-1.36,.16-2.03,.23-6.31,.72-12.53,1.56-18.67,2.51-2.02,.31-4.03,.64-6.03,.98-3.25,.54-6.47,1.12-9.66,1.74-.33,.05-.66,.12-.99,.19-6.63,1.27-13.14,2.69-19.52,4.23-7.31,1.77-14.46,3.7-21.41,5.8-8.77,2.64-17.24,5.54-25.37,8.67-.63,.24-1.25,.48-1.87,.73-.63,.24-1.25,.48-1.87,.73C58.3,253.88,15.17,296.34,14.93,344.39c-.17,32.74,19.6,63.09,53.17,87.72,6.24,4.57,12.95,8.95,20.1,13.1,5.83,3.4,11.96,6.64,18.36,9.74,2.31,1.11,4.66,2.21,7.04,3.28,44.64,20.16,101.31,32.9,163.37,34.62,2.32,.06,4.66,.11,7,.14,1.56,.03,3.13,.04,4.7,.05,68.37,.35,130.96-12.74,179.13-34.67,2.37-1.08,4.7-2.18,6.99-3.3,42.64-20.8,72.91-48.79,84.22-80.46,2.96-8.26,4.62-16.78,4.88-25.48,.02-.64,.03-1.29,.03-1.94,.25-49.35-44.78-93.26-114.1-120.33Z"/><path class="cls-3" d="M546.84,377.15l-8.34,4.35c-1.06,.53-2.1-.73-1.39-1.68l5.76-7.62c2.92-3.86,4.76-8.51,5.31-13.29,.44-3.79,.07-7.66-1.19-11.28l-.32-.91-.47-1.33c-.36-1.04,.85-1.93,1.73-1.26h.02c.32,.25,.64,.48,.97,.71,7.61,5.17,17.68,5.64,26.04,1.68l.65-.29,7.85-3.51c1.08-.51,2.11,.81,1.34,1.73l-5.39,6.45-.48,.57c-6.17,7.39-7.44,17.24-3.82,26.06,.17,.41,.35,.81,.53,1.21,.25,.53,.05,1.05-.32,1.35-.35,.28-.85,.36-1.3,.07l-1.28-.83-.63-.41c-3.4-2.19-7.13-3.58-10.95-4.1-4.82-.66-9.76,.06-14.33,2.34Z"/><circle class="cls-2" cx="77.94" cy="438.97" r="12"/></g><g><g><polygon class="cls-9" points="355.64 286.42 298.76 307.08 293.41 306.56 310.61 281.1 355.2 285.44 355.64 286.42"/><polygon class="cls-9" points="355.2 285.44 310.61 281.1 311.89 279.22 313.16 277.33 315.07 274.51 351.9 278.09 353.31 281.24 354.26 283.34 355.2 285.44"/><g><g><polygon class="cls-5" points="418.62 263.55 418.63 263.49 418.75 263.5 418.76 263.5 420.7 262.8 420.61 263.68 420.42 265.66 420.42 265.67 418.43 265.48 414.41 265.08 418.62 263.55"/><polygon class="cls-5" points="432.72 139.27 424.27 226.12 423.56 233.37 421.63 232.6 418.63 263.48 418.63 263.49 336.02 255.45 299.52 251.89 284.42 250.43 285 252.49 282.86 252.28 281.89 252.19 280.73 252.07 280.72 252.07 275.3 251.54 253.21 249.39 251.22 249.2 251.41 247.21 256.72 192.68 257.48 184.85 258.57 173.69 258.57 173.68 259.1 168.23 259.1 168.22 259.11 168.08 259.63 162.74 263.52 122.8 265.52 122.99 288.82 125.26 311.39 127.46 317.56 128.06 321.44 128.44 327.31 129.01 331.96 129.46 338.13 130.06 348.84 131.1 354.31 131.64 359.26 132.12 366.66 132.84 370.35 133.2 376.12 133.76 384.39 134.57 387.66 134.88 409.51 137.01 430.73 139.08 430.74 139.08 432.72 139.27"/><path class="cls-1" d="M336.02,255.45l82.61,8.04h0s-82.61-8.04-82.61-8.04Zm84.68,7.35l-1.94,.7h-.13s-.01,.05-.01,.05l-4.21,1.53h-.03l-4.33,1.58-38.05-3.7,38.05,3.71,8.19,.79,3.98,.39,.19-1.99,.2-1.99,.18-1.83-2.09,.76Zm12.21-125.52h0s-1.98-.2-1.98-.2l-21.22-2.06-22.43-2.18-4.71-.46s0-.01-.01,0l-4.61-.45-6.01-.59-6.39-.62-7.69-.75h-.01l-2.62-.25h0l-4.86-.48h-.01l-10.67-1.04h-.01l-8.85-.86-4.21-.41-7.15-.69h0l-1.69-.17-7.51-.73-21.23-2.06-23.31-2.27-1.99-.2-1.99-.19h0l-.19,1.99-.2,1.99-3.19,32.85v.02l-.54,5.45h0s-.53,5.47-.53,5.47l-1.68,17.28-.76,7.82-1.1,11.35-3.77,38.79h0s-.31,3.17-.31,3.17h0s-.02,.22-.02,.22l-.2,1.99-.19,1.99,3.98,.39,28.29,2.75,2.13,.21,2.15,.21-.59-2.07-.58-2.06-2.14-.21-2.1-.21h-.04l-26.73-2.6h0s1.44-14.78,1.44-14.78l1.89-19.41,2.07-21.37h.01l.76-7.82,.49-5.05h0s.53-5.45,.53-5.45h0s.53-5.48,.53-5.48h0s4.19-43.07,4.19-43.07l23.29,2.27,22.59,2.2,6.17,.6,4,.38,5.67,.56h.01l4.72,.46,6.17,.6,10,.97,6.13,.6,5.92,.57,7.17,.7,2.22,.22,5.97,.58,33.96,3.3,21.23,2.07-8.2,84.3-.71,7.24,1.93,.77,1.94,.76,.71-7.24,8.31-85.44,.2-1.99,.19-1.99-2-.19Z"/></g><g><path class="cls-9" d="M263.52,122.8l-12.3,126.4-23.39-2.28,10.7-109.98c.88-9.07,8.94-15.71,18.02-14.82l6.97,.68Z"/><path class="cls-1" d="M253.02,251.39l-27.37-2.66,10.9-111.97c.99-10.15,10.06-17.6,20.2-16.62l8.96,.87-12.69,130.38Zm-23-6.26l19.41,1.89,11.91-122.42-4.98-.48c-7.97-.78-15.06,5.07-15.84,13.03l-10.51,107.99Z"/></g><g><polygon class="cls-9" points="444.37 241.6 443.1 254.66 422.79 262.04 425.5 234.13 444.37 241.6"/><path class="cls-9" d="M454.51,157.96l-7.51,77.15-.7,7.25-1.93-.76-18.87-7.47-1.94-.76,.71-7.25,8.45-86.85,1.99,.19h.01l4.97,.48c9.07,.89,15.71,8.96,14.82,18.02Z"/><path class="cls-1" d="M422.61,263.87l.18-1.83-2.09,.76-1.94,.7h-.01l-.13,.05-.19,1.92,1.99,.19h0s1.99,.2,1.99,.2l8.18,.79h.02l1.73-.63,2.61-.95-12.34-1.2Zm0,0l.18-1.83-2.09,.76-1.94,.7h-.13s-.01,.05-.01,.05l-.19,1.92h0s-.19,1.99-.19,1.99l3.98,.39,4.01,.39,4.35-1.58h.03s1.73-.64,1.73-.64l2.61-.95-12.34-1.2Zm0,0l.18-1.83-2.09,.76-1.94,.7h-.01l-.13,.05-.19,1.92,1.99,.19h0s1.99,.2,1.99,.2l8.18,.79h.02l1.73-.63,2.61-.95-12.34-1.2Zm17.27-125.92l-4.97-.48-2-.2-1.98-.19-.19,2h-.01l-.19,1.98-8.2,84.3-.71,7.24,1.93,.77,1.94,.76,.71-7.24,8.31-85.44,4.98,.48c7.95,.78,13.8,7.88,13.02,15.84l-7.45,76.58-.7,7.25,1.93,.76,1.94,.77,.7-7.25,7.56-77.72c.99-10.16-6.46-19.22-16.62-20.21Z"/><polygon class="cls-1" points="448.24 243.13 447.26 253.15 445.18 253.91 445.17 253.91 443.1 254.66 444.37 241.6 446.3 242.36 448.24 243.13"/></g><g><polygon class="cls-1" points="430.59 266.65 430.59 266.66 430.58 266.66 426.23 268.24 382.59 284.09 382.58 284.09 378.24 285.67 378.22 285.67 362.05 284.1 366.4 282.51 366.41 282.51 410.05 266.67 410.05 266.66 414.38 265.08 414.41 265.08 418.43 265.47 420.42 265.66 420.42 265.67 422.41 265.86 430.59 266.65"/><path class="cls-11" d="M410.05,266.67l-43.64,15.84h-.01l-13.09-1.27,.95,2.1-42.37-4.12-22.72-2.21-2.05-.2-2.05-.2-43.12-4.2h-.02c-2-.19-3.87-.72-5.58-1.53h-.01c-3.24-1.53-5.85-4.04-7.49-7.13-.47-.89-.86-1.82-1.15-2.8-.6-1.98-.83-4.11-.62-6.31l.15-1.56,.31-3.21,.1-.96,.19-1.98,7.54,.73,8.21,.8h.01l5.64,.55,1.99,.19,1.99,.2,22.09,2.14,5.42,.53h0s1.16,.12,1.16,.12l.97,.09,2.14,.21,.59,2.07,86.41,8.4,38.05,3.7h0Z"/><path class="cls-1" d="M414.41,265.08h-.03l-4.33,1.58,8.19,.8,.19-1.98h0s.19-1.93,.19-1.93l-4.21,1.53Zm8,.78l-1.99-.19h0s.19-1.99,.19-1.99l-1.85-.18h-.01l-.13,.05-4.21,1.53h-.03l-4.33,1.58,8.19,.8,3.98,.39,4.01,.39,4.35-1.58h.01s-8.18-.8-8.18-.8Zm-137.41-13.37l-2.14-.21-.97-.09-1.16-.12h0l-5.42-.53-22.09-2.15h0s-.19,2-.19,2l28.29,2.75,2.13,.21,2.15,.21-.59-2.07Zm-37.76,18.43h-.01l-5.28,1.49,43.12,4.2c.07-.16,.13-.32,.18-.48,.06-.15,.11-.3,.16-.46,.1-.33,.18-.67,.26-1.01l-38.43-3.74Zm107.02,12.42l-.95-2.1-40.15-3.91-23.49-2.29-2.01-.19-1.99-.19-38.43-3.74h-.01l-5.11-.5c-.87-.08-1.72-.24-2.53-.46-3.84-1.03-6.95-3.5-8.78-6.76-.5-.88-.9-1.81-1.19-2.79-.54-1.75-.74-3.63-.55-5.57l.23-2.34,.31-3.21,.02-.18,.46,.04h.01l8.2,.8h.02l10.72,1.05,3.98,.39,28.29,2.75,2.13,.21,2.15,.21-.59-2.07-.58-2.06,15.1,1.46-15.1-1.47-2.15-.21-2.09-.2h-.04s-26.73-2.61-26.73-2.61l-2-.19-1.98-.19h-.01l-.54-.05h-.01l-8.21-.8h-.01l-10.63-1.04-2-.2-1.98-.19-.39,3.98-.17,1.74-.31,3.21-.08,.78c-.24,2.46,.01,4.85,.67,7.05,.28,.98,.65,1.91,1.1,2.81,1.48,3.01,3.79,5.56,6.69,7.36h.01c1.29,.8,2.7,1.45,4.21,1.92,1.26,.4,2.59,.68,3.97,.81l42.38,4.12,2.17,.21,2.14,.21,22.18,2.16,44.59,4.34-.94-2.1Zm68.15-17.48l-1.99-.19h0s-1.99-.2-1.99-.2l.19-1.92-4.21,1.53h-.03l-4.33,1.58,8.19,.8,3.98,.39,4.01,.39,4.35-1.58h.01s-8.18-.8-8.18-.8Zm-56.01,16.65l-4.35,1.59-4.36,1.58,16.16,1.58h.04s.02-.02,.02-.02l4.31-1.57,4.36-1.58-16.17-1.58h-.01Zm-80.73-7.85l-38.43-3.74h-.01l-5.28,1.49,43.12,4.2,2.05,.2c.09-.23,.17-.47,.23-.72,.13-.4,.23-.82,.31-1.24l-1.99-.19Zm-.67-22.17l-2.14-.21-.97-.09-1.16-.12h0l-5.42-.53-22.09-2.15h0s-.19,2-.19,2l28.29,2.75,2.13,.21,2.15,.21-.59-2.07Z"/><polygon class="cls-1" points="366.4 282.51 362.05 284.1 357.69 285.68 357.68 285.68 355.2 285.44 354.26 283.34 353.31 281.24 366.4 282.51"/></g><g><polygon class="cls-5" points="418.62 263.55 418.63 263.49 418.75 263.5 418.76 263.5 420.7 262.8 420.61 263.68 420.42 265.66 420.42 265.67 418.43 265.48 414.41 265.08 418.62 263.55"/><path class="cls-5" d="M439.39,70.73l-6.48,66.54h0s-.19,2-.19,2l-8.45,86.85-.71,7.25-1.93-.77-3,30.88h0s-82.61-8.03-82.61-8.03l-36.5-3.56-15.1-1.46,.58,2.06-2.14-.21-.97-.09-1.16-.12h0l-5.42-.53-22.09-2.15-1.99-.19,.19-1.99,5.31-54.53,.76-7.83,1.09-11.16h0s.53-5.46,.53-5.46h0s.01-.15,.01-.15l.53-5.34,3.88-39.94,.2-1.99,6.45-66.3c.28-2.96,2.92-5.13,5.88-4.84l118.38,11.52,1.99,.19,38.34,3.73c2.83,.28,4.91,2.79,4.63,5.62Z"/><path class="cls-1" d="M258.81,191.85l-2.07,21.37,2.08-21.37h-.01Zm77.21,63.6l82.61,8.04h0s-82.61-8.04-82.61-8.04Zm84.68,7.35l-1.94,.7h-.13s-.01,.05-.01,.05l-4.21,1.53h-.03l-4.33,1.58-38.05-3.7,38.05,3.71,8.19,.79,3.98,.39,.19-1.99,.2-1.99,.18-1.83-2.09,.76Zm19.08-197.11c-1.21-1.47-2.93-2.38-4.82-2.57l-158.71-15.44c-1.97-.19-3.89,.39-5.41,1.65-1.53,1.25-2.47,3.02-2.66,4.99l-6.45,66.29h0s-.2,2-.2,2l-.19,1.99-3.2,32.85v.02l-.53,5.47h0s-.53,5.46-.53,5.46h0s-1.68,17.27-1.68,17.27h-.01l-.76,7.82-1.1,11.35-3.78,38.8-.3,3.16h0s-.01,.01-.01,.01l-.02,.21-.38,3.98,3.98,.39,28.29,2.75,2.13,.21,2.15,.21-.59-2.07-.58-2.06-2.14-.21-2.1-.21h-.04l-26.73-2.6h0s1.44-14.78,1.44-14.78l1.89-19.41,2.08-21.37,.76-7.82,.49-5.05h0s.53-5.45,.53-5.45h0s.53-5.48,.53-5.48h0s4.19-43.07,4.19-43.07l.2-1.99,.19-1.98h0s4.19-43.1,4.19-43.1l.2-1.99,.19-2,1.87-19.21c.08-.91,.52-1.72,1.22-2.29,.69-.58,1.58-.85,2.48-.76l118.38,11.52,3.98,.38,36.35,3.54c.84,.09,1.59,.49,2.13,1.14,.53,.65,.78,1.46,.7,2.3l-1.89,19.46-.2,1.99-.19,2-4.19,43.09-.2,2-.19,1.98-8.2,84.3-.71,7.24,1.93,.77,1.94,.76,.71-7.24,8.31-85.44,.19-1.99,.2-1.99,6.47-66.55c.19-1.9-.38-3.75-1.6-5.23Z"/><polygon class="cls-1" points="425.5 234.13 422.79 262.04 420.7 262.8 418.76 263.5 418.75 263.5 418.63 263.49 418.63 263.48 421.63 232.6 423.56 233.37 425.5 234.13"/><polygon class="cls-9" points="418.63 263.49 418.62 263.55 414.41 265.08 414.38 265.08 410.05 266.66 372 262.96 285.59 254.56 285 252.49 284.42 250.43 299.52 251.89 336.02 255.45 418.63 263.49"/></g><g><circle class="cls-11" cx="283.54" cy="63.31" r="3.67"/><circle class="cls-11" cx="295.03" cy="64.43" r="3.67"/><circle class="cls-11" cx="306.51" cy="65.55" r="3.67"/><circle class="cls-11" cx="318.38" cy="66.7" r="3.67"/></g><g><circle class="cls-11" cx="411.48" cy="75.76" r="3.67"/><circle class="cls-11" cx="422.96" cy="76.88" r="3.67"/></g><g><line class="cls-7" x1="396.42" y1="61.39" x2="393.9" y2="87.26"/><rect class="cls-1" x="382.16" y="72.33" width="26" height="4" transform="translate(282.88 460.42) rotate(-84.44)"/></g><g><line class="cls-7" x1="268.41" y1="75.76" x2="436.63" y2="92.13"/><rect class="cls-1" x="350.52" y="-.57" width="4" height="169.02" transform="translate(234.83 426.68) rotate(-84.44)"/></g></g><g><rect class="cls-9" x="281.74" y="165.02" width="36.33" height="31.41" rx="5.96" ry="5.96" transform="translate(19.79 -29.37) rotate(5.8)"/><g><path class="cls-11" d="M405.24,179.35c-.05,0-.1,0-.15,0l-79.68-8.09c-.82-.08-1.42-.82-1.34-1.64,.08-.82,.82-1.42,1.64-1.34l79.68,8.09c.82,.08,1.42,.82,1.34,1.64-.08,.77-.73,1.35-1.49,1.35Z"/><path class="cls-11" d="M404.59,185.76c-.05,0-.1,0-.15,0l-79.68-8.09c-.82-.08-1.42-.82-1.34-1.64,.08-.82,.82-1.43,1.64-1.34l79.68,8.09c.82,.08,1.42,.82,1.34,1.64-.08,.77-.73,1.35-1.49,1.35Z"/><path class="cls-11" d="M403.94,192.16c-.05,0-.1,0-.15,0l-79.68-8.09c-.82-.08-1.42-.82-1.34-1.64,.08-.82,.83-1.42,1.64-1.34l79.68,8.09c.82,.08,1.42,.82,1.34,1.64-.08,.77-.73,1.35-1.49,1.35Z"/><path class="cls-11" d="M403.29,198.56c-.05,0-.1,0-.15,0l-79.68-8.09c-.82-.08-1.42-.82-1.34-1.64s.82-1.43,1.64-1.34l79.68,8.09c.82,.08,1.42,.82,1.34,1.64-.08,.77-.73,1.35-1.49,1.35Z"/><path class="cls-11" d="M402.57,205.67c-.05,0-.1,0-.15,0l-79.68-8.09c-.82-.08-1.42-.82-1.34-1.64,.08-.82,.83-1.43,1.64-1.34l79.68,8.09c.82,.08,1.42,.82,1.34,1.64-.08,.77-.73,1.35-1.49,1.35Z"/></g></g><g><rect class="cls-9" x="363.83" y="213.06" width="36.33" height="31.41" rx="5.96" ry="5.96" transform="translate(738.92 494.95) rotate(-174.2)"/><g><path class="cls-11" d="M356.34,241.23c-.05,0-.1,0-.15,0l-79.68-8.09c-.82-.08-1.42-.82-1.34-1.64,.08-.82,.82-1.42,1.64-1.34l79.68,8.09c.82,.08,1.42,.82,1.34,1.64-.08,.77-.73,1.35-1.49,1.35Z"/><path class="cls-11" d="M356.99,234.82c-.05,0-.1,0-.15,0l-79.68-8.09c-.82-.08-1.42-.82-1.34-1.64s.83-1.43,1.64-1.34l79.68,8.09c.82,.08,1.42,.82,1.34,1.64-.08,.77-.73,1.35-1.49,1.35Z"/><path class="cls-11" d="M357.64,228.42c-.05,0-.1,0-.15,0l-79.68-8.09c-.82-.08-1.42-.82-1.34-1.64,.08-.82,.81-1.42,1.64-1.34l79.68,8.09c.82,.08,1.42,.82,1.34,1.64-.08,.77-.73,1.35-1.49,1.35Z"/><path class="cls-11" d="M358.29,222.02c-.05,0-.1,0-.15,0l-79.68-8.09c-.82-.08-1.42-.82-1.34-1.64s.82-1.43,1.64-1.34l79.68,8.09c.82,.08,1.42,.82,1.34,1.64-.08,.77-.73,1.35-1.49,1.35Z"/><path class="cls-11" d="M359.01,214.91c-.05,0-.1,0-.15,0l-79.68-8.09c-.82-.08-1.42-.82-1.34-1.64,.08-.82,.81-1.42,1.64-1.34l79.68,8.09c.82,.08,1.42,.82,1.34,1.64-.08,.77-.73,1.35-1.49,1.35Z"/></g></g><g><rect class="cls-9" x="288.05" y="111.8" width="121.27" height="47.98" rx="5.96" ry="5.96" transform="translate(15.5 -34.53) rotate(5.8)"/><g><path class="cls-1" d="M327.52,138.61c-.13,1.34-.8,2.36-2,3.07s-3,.95-5.38,.72l-10.57-1.03c-.52-.05-.9-.21-1.12-.48s-.32-.61-.28-1.03c.06-.66,.4-1.11,1.02-1.36l.45-.18c.21-.09,.39-.2,.54-.34,.14-.14,.23-.39,.27-.73l1-10.26c.03-.35,0-.6-.12-.77-.11-.17-.27-.31-.46-.44l-.4-.27c-.55-.37-.8-.88-.74-1.53,.04-.42,.2-.73,.47-.95s.67-.3,1.19-.25l8.24,.8c1.68,.16,3.12,.53,4.3,1.11,1.18,.58,2.07,1.31,2.66,2.21s.83,1.91,.72,3.05c-.09,.88-.42,1.63-1.01,2.27-.59,.64-1.4,1.1-2.45,1.4-1.05,.3-2.3,.37-3.77,.23l.54-.6c1.47,.14,2.74,.46,3.8,.96,1.07,.5,1.87,1.13,2.42,1.89,.55,.76,.78,1.61,.69,2.54Zm-8.79-3.75l-4.03-.39,.21-2.13,3.14,.31c.69,.07,1.28,0,1.76-.18,.48-.19,.87-.51,1.15-.97,.28-.46,.46-1.05,.53-1.77s0-1.34-.23-1.87-.59-.96-1.1-1.27c-.51-.32-1.17-.52-1.98-.59l-.43-.04-1.11,11.42c-.07,.72,.06,1.27,.39,1.67,.33,.4,.83,.62,1.5,.69l.47,.05c.47,.05,.88,0,1.23-.14,.35-.14,.64-.36,.85-.67,.21-.31,.34-.71,.39-1.18,.08-.81-.13-1.47-.63-1.99s-1.2-.83-2.12-.92Z"/><path class="cls-1" d="M339.43,128.33l-.45,.19c-.2,.09-.38,.2-.53,.34-.15,.14-.24,.39-.27,.73l-1.01,10.42c-.04,.45,.03,.78,.21,.98,.19,.2,.47,.32,.84,.36l1.12,.11c.45,.04,.86,.03,1.21-.05,.36-.08,.68-.24,.98-.48s.58-.59,.84-1.02l.7-1.17c.26-.42,.54-.69,.84-.8s.64-.11,1.02,.02c.39,.13,.66,.37,.82,.72,.16,.35,.15,.76-.03,1.24l-1.31,3.36c-.26,.66-.55,1.14-.86,1.43-.31,.29-.76,.4-1.35,.34-.3-.03-.59-.1-.85-.2-.27-.11-.56-.22-.88-.33-.32-.11-.72-.19-1.2-.24l-9.13-.89c-.52-.05-.9-.21-1.12-.48s-.32-.61-.28-1.03c.06-.66,.4-1.11,1.02-1.36l.45-.18c.21-.09,.39-.2,.54-.34,.14-.14,.23-.39,.27-.73l1-10.26c.03-.35,0-.6-.12-.77-.11-.17-.27-.31-.46-.44l-.4-.27c-.55-.37-.8-.88-.74-1.53,.04-.42,.2-.73,.47-.95s.67-.3,1.19-.25l7.1,.69c.52,.05,.9,.21,1.12,.48,.22,.27,.32,.61,.28,1.03-.06,.66-.4,1.11-1.02,1.36Z"/><path class="cls-1" d="M358.24,126.79c1.52,.15,2.86,.52,4.03,1.12,1.17,.6,2.15,1.38,2.92,2.33,.77,.95,1.34,2.04,1.68,3.26,.35,1.22,.45,2.53,.32,3.92s-.5,2.77-1.07,3.94c-.58,1.17-1.34,2.17-2.28,2.98-.95,.81-2.05,1.4-3.32,1.78-1.27,.37-2.66,.49-4.19,.34s-2.91-.52-4.09-1.12c-1.18-.6-2.15-1.38-2.92-2.35-.77-.97-1.32-2.08-1.65-3.35-.33-1.26-.42-2.63-.28-4.11,.13-1.33,.47-2.56,1.03-3.68,.56-1.13,1.3-2.09,2.24-2.9,.94-.81,2.04-1.41,3.32-1.8s2.69-.51,4.25-.36Zm2.26,13.64c.1-1.06,.11-2.12,.02-3.17-.09-1.05-.26-2.04-.5-2.97s-.55-1.77-.91-2.5c-.36-.73-.76-1.31-1.2-1.75-.44-.44-.9-.68-1.36-.73s-.87,.06-1.2,.31c-.33,.25-.6,.64-.8,1.18s-.34,1.22-.42,2.03c-.11,1.09-.11,2.16-.01,3.22,.1,1.06,.28,2.05,.54,2.98,.26,.93,.57,1.75,.93,2.47,.36,.72,.76,1.29,1.19,1.71s.86,.66,1.29,.7,.82-.04,1.15-.26,.61-.58,.83-1.11c.22-.52,.37-1.23,.45-2.12Z"/><path class="cls-1" d="M385.82,147.88c-.05,.49-.2,.84-.44,1.05-.25,.21-.61,.3-1.08,.25-.28-.03-.53-.12-.73-.27s-.38-.32-.53-.51-.31-.35-.47-.5c-.16-.15-.34-.23-.54-.25s-.47,.02-.76,.12-.64,.22-1.04,.36c-.4,.14-.86,.24-1.37,.32s-1.1,.09-1.76,.02c-1.46-.14-2.74-.5-3.85-1.07-1.1-.57-2.01-1.33-2.73-2.26-.71-.94-1.22-2.03-1.52-3.27-.3-1.25-.38-2.62-.23-4.11,.14-1.39,.51-2.66,1.13-3.8,.62-1.14,1.42-2.12,2.4-2.93s2.09-1.4,3.33-1.78c1.24-.38,2.54-.5,3.91-.37,.9,.09,1.63,.23,2.19,.41,.55,.19,1.01,.37,1.36,.53,.35,.17,.67,.27,.95,.29,.25,.02,.47-.02,.66-.12,.19-.11,.38-.21,.57-.32,.19-.11,.38-.15,.6-.13,.37,.04,.62,.16,.75,.38,.13,.22,.23,.57,.32,1.05l.81,4.35c.08,.41-.01,.74-.26,.99-.25,.25-.59,.39-1,.43-.34,.02-.65-.05-.94-.21-.28-.16-.51-.47-.68-.91-.37-.98-.8-1.75-1.3-2.33-.5-.58-1.03-1-1.61-1.26s-1.17-.43-1.78-.49c-.92-.09-1.74,.09-2.47,.54s-1.32,1.14-1.78,2.07c-.46,.93-.76,2.08-.89,3.44-.15,1.55-.05,2.9,.31,4.03s.88,2.04,1.58,2.7c.7,.66,1.48,1.03,2.36,1.12,.24,.02,.44,.02,.61,0,.17-.03,.31-.08,.41-.16,.11-.07,.19-.18,.24-.3,.06-.13,.09-.28,.11-.45l.21-2.11c.02-.26-.01-.44-.12-.56-.1-.12-.27-.24-.49-.37l-.41-.24c-.32-.19-.58-.4-.77-.62s-.27-.5-.24-.85c.04-.4,.19-.7,.46-.91s.67-.28,1.19-.23l6.45,.63c.53,.05,.91,.21,1.13,.46s.31,.58,.27,.97c-.03,.32-.13,.57-.3,.76-.17,.19-.4,.34-.7,.46l-.25,.1c-.19,.07-.37,.17-.52,.29-.15,.12-.24,.34-.27,.65l-.48,4.96Z"/></g></g><path class="cls-11" d="M298.76,307.08l-17.84,6.48-14.3-5.78,.08-.78c.16-1.67,1.64-2.88,3.3-2.72l23.41,2.28,5.35,.52Z"/></g><g><g><g><polygon class="cls-11" points="178.59 279.71 176.03 278.68 171.63 276.89 176.04 278.67 178.59 279.71"/><path class="cls-11" d="M287.66,274.85c-.08,.42-.18,.84-.31,1.24-.07,.25-.14,.49-.23,.72-.23,.66-.51,1.31-.83,1.92-1.75,3.33-4.8,5.97-8.68,7.07l-38.44,10.87h-.02l-3.02-1.22-31.11-12.6h-.01l-4.53-1.83-13.45-5.45h-.01l-4.52-1.83h0l-11.65-4.72h-.01l-.84,.24c-.14,.04-.28,.06-.41,.06-.66,0-1.26-.43-1.45-1.09-.03-.11-.04-.22-.05-.32h0s-31.19-12.63-31.19-12.63h-.01l-2.35-.95-3.49-12.36-1.91-6.77-17.17-60.74-5.09-18c-1.68-5.94,.73-12.12,5.54-15.48h.01c1.26-.89,2.68-1.57,4.23-2.01l110.63-31.26c7.49-2.12,15.36,2.28,17.48,9.78l1.36,4.81,.56,1.97,.56,1.99,10.36,36.66h0s.01,.02,.01,.02h0s1.49,5.28,1.49,5.28h0s1.5,5.3,1.5,5.3h0s2.57,9.1,2.57,9.1l1.91,6.77,11.52,40.75,.87,3.09,4.8,16.98h.01s.58,2.07,.58,2.07l.58,2.07,3.95,13.96c.62,2.2,.68,4.43,.27,6.54Z"/><path class="cls-1" d="M228.19,299.77l3.01,1.23h0s-3.02-1.23-3.02-1.23Zm61.13-32l-3.73-13.21-.59-2.07-.58-2.06h0s-4.8-16.98-4.8-16.98l-.88-3.11-1.01-3.56-.84-2.99-7.06-24.96-2.87-10.17-1.91-6.77-3.92-13.84h0s-1.49-5.31-1.49-5.31h-.01l-1.49-5.26v-.03l-9.09-32.16-.55-1.93-.54-1.93-1.27-4.49c-1.17-4.14-3.9-7.58-7.68-9.7-3.78-2.11-8.14-2.63-12.28-1.46l-110.62,31.27c-1.93,.55-3.68,1.42-5.2,2.55-5.26,3.88-7.84,10.75-5.96,17.4l4.21,14.89h0s15.67,55.44,15.67,55.44l2.43,8.6,1.91,6.78,3.02,10.67,2.34,.95,2.35,.95-3.96-14.04-1.92-6.77-2.43-8.6-13.8-48.84-5.97-21.11c-.88-3.12-.49-6.4,1.1-9.25,.99-1.77,2.38-3.24,4.03-4.3,1.01-.64,2.1-1.14,3.27-1.47l110.62-31.27c1.1-.31,2.21-.46,3.3-.46,5.31,0,10.21,3.51,11.72,8.86l1.52,5.37,.57,2.04,.6,2.09h0s11.54,40.86,11.54,40.86h.01v.02l1.49,5.27h0s1.5,5.29,1.5,5.29h0s1.23,4.38,1.23,4.38l1.92,6.78,2.5,8.86,14.42,51.01h0s.58,2.07,.58,2.07h0s.58,2.07,.58,2.07l4.16,14.72c.55,1.96,.59,3.94,.2,5.8-.08,.34-.16,.68-.26,1.01-.05,.16-.1,.31-.16,.46-.05,.16-.11,.32-.18,.48-.25,.66-.57,1.3-.95,1.91-1.54,2.52-3.99,4.49-7.05,5.36l-40.92,11.56h-.02s3.02,1.23,3.02,1.23h.02l1.1,.45,.4,.17,1.5,.61h.02s35.96-10.17,35.96-10.17c4.72-1.34,8.36-4.65,10.28-8.79,.29-.62,.54-1.27,.74-1.93,.21-.64,.37-1.3,.5-1.97,.43-2.34,.34-4.82-.35-7.27Z"/></g><path class="cls-1" d="M142.47,155.22c-.87,0-1.67-.58-1.92-1.46-.3-1.06,.32-2.17,1.38-2.47l69.54-19.65c1.06-.3,2.17,.32,2.47,1.38,.3,1.06-.32,2.17-1.38,2.47l-69.54,19.65c-.18,.05-.37,.08-.54,.08Z"/><g><g><path class="cls-9" d="M163.75,248.71c-.65,0-1.26-.43-1.44-1.09-.23-.8,.24-1.63,1.04-1.85l80.29-22.69c.8-.22,1.63,.24,1.85,1.04,.23,.8-.24,1.63-1.04,1.85l-80.29,22.69c-.14,.04-.27,.06-.41,.06Z"/><path class="cls-9" d="M166.66,259.02c-.65,0-1.26-.43-1.44-1.09-.23-.8,.24-1.63,1.04-1.85l80.29-22.69c.8-.22,1.63,.24,1.85,1.04,.23,.8-.24,1.63-1.04,1.85l-80.29,22.69c-.14,.04-.27,.06-.41,.06Z"/><path class="cls-9" d="M250.28,246.57l-.83,.23h0s-.01,.01-.01,.01l-.56,.16h-.01l-5.28,1.49h-.01l-5.26,1.49h-.02l-9,2.55-2.07,.58-2.06,.59-54.33,15.35h-.01l-.84,.24c-.14,.04-.28,.06-.41,.06-.66,0-1.26-.43-1.45-1.09-.03-.11-.04-.22-.05-.32h0c-.04-.7,.4-1.34,1.09-1.54l56.31-15.91,2.06-.59,2.07-.58,.48-.14h.01l5.27-1.49,5.28-1.49h.01l8.8-2.49c.1-.03,.2-.04,.29-.04,.01-.01,.01,0,.01,0h0c.7-.06,1.36,.38,1.55,1.08,.23,.79-.24,1.62-1.03,1.85Z"/><polygon class="cls-9" points="176.04 278.67 176.03 278.68 171.63 276.89 176.04 278.67"/><path class="cls-9" d="M253.19,256.87l-22.38,6.33-1.96,.55-1.99,.56-39.83,11.26h-.01l-4.52-1.83,43.26-12.24,1.94-.55,1.92-.54,22.75-6.43c.81-.22,1.63,.24,1.86,1.04,.22,.8-.24,1.63-1.04,1.85Z"/><path class="cls-9" d="M256.43,268.32l-9.19,2.6h-.01l-5.28,1.49-4.18,1.18-32.75,9.26h-.01l-4.53-1.83h.01s0-.01,0-.01l33.05-9.34h.01l2.78-.79h.01l3.24-.92,16.02-4.53c.8-.22,1.63,.24,1.85,1.04,.23,.8-.24,1.63-1.03,1.85Z"/></g><rect class="cls-9" x="148.42" y="160.79" width="85.42" height="61.91" rx="5.96" ry="5.96" transform="translate(-44.95 59.21) rotate(-15.78)"/></g></g><g><path class="cls-1" d="M218.62,188.74c-.18-.2-.36-.4-.55-.59-3.9-4.05-8.86-6.85-14.22-8.22-5.21-1.33-10.8-1.32-16.16,.22-10.98,3.15-19.4,12.24-21.58,23.25-.03,.15-.06,.3-.09,.45l-.08,.46,.31,.35c7.67,8.42,19.82,11.8,30.95,8.6,11.13-3.2,19.62-12.5,21.66-23.71l.09-.46-.32-.35Zm-17.5,5.1l-.52,.35-.26,.15c-1.35,.91-2.46,2.06-3.29,3.42-1,1.66-1.54,3.63-1.44,5.68l.26,3.79c.04,.46-.61,.68-.85,.24l-1.89-3.38c-.97-1.67-2.39-3.12-4.08-4.09-1.32-.76-2.83-1.29-4.35-1.37l-.41-.05-.55-.03c-.46-.02-.61-.63-.21-.86,.17-.07,.3-.14,.42-.23,3.15-2.01,4.97-5.66,4.84-9.39l.02-.27-.06-3.49c0-.48,.65-.66,.85-.23l1.53,3.05,.13,.26c1.75,3.49,5.19,5.54,9.04,5.63,.21,.01,.38,0,.56,0,.23,0,.39,.13,.45,.32,.05,.17-.02,.38-.2,.49Z"/><path class="cls-1" d="M167.67,205.5c-.2,0-.41-.05-.6-.15l-11.67-6.37c-.6-.33-.83-1.09-.5-1.69,.33-.61,1.09-.83,1.69-.5l11.67,6.37c.6,.33,.83,1.09,.5,1.69-.23,.42-.65,.65-1.1,.65Z"/><path class="cls-1" d="M173.48,189.4c-.31,0-.63-.12-.87-.35l-8.68-8.44c-.49-.48-.5-1.27-.02-1.76,.48-.49,1.27-.5,1.76-.02l8.68,8.44c.49,.48,.5,1.27,.02,1.76-.25,.25-.57,.38-.89,.38Z"/><path class="cls-1" d="M217.54,190.31c-.21,0-.42-.05-.61-.16-.6-.34-.81-1.1-.48-1.7l6.51-11.59c.34-.6,1.1-.81,1.7-.48,.6,.34,.81,1.1,.48,1.7l-6.51,11.59c-.23,.41-.65,.64-1.09,.64Z"/><path class="cls-1" d="M203.75,181.57c-.1,0-.2-.01-.3-.04-.67-.16-1.08-.84-.92-1.51l2.88-11.76c.16-.67,.84-1.08,1.51-.92,.67,.16,1.08,.84,.92,1.51l-2.88,11.76c-.14,.57-.65,.95-1.21,.95Z"/><path class="cls-1" d="M187.71,181.38c-.54,0-1.04-.36-1.2-.9l-3.44-11.99c-.19-.66,.19-1.35,.85-1.54,.66-.19,1.35,.19,1.54,.85l3.44,11.99c.19,.66-.19,1.35-.85,1.54-.12,.03-.23,.05-.35,.05Z"/></g></g><g><g><path class="cls-11" d="M80.25,111.52l-16.89,18.44-10.72-9.82c-1.82-1.67-1.94-4.49-.28-6.31l10.85-11.85c1.67-1.82,4.49-1.94,6.31-.28l10.72,9.82Z"/><path class="cls-1" d="M63.37,131.46c-.36,0-.73-.13-1.01-.39l-10.72-9.82c-1.18-1.08-1.86-2.55-1.93-4.14-.07-1.59,.49-3.12,1.56-4.29l10.85-11.85c1.08-1.18,2.55-1.86,4.14-1.93,1.6-.07,3.12,.49,4.29,1.56l10.72,9.82c.29,.27,.47,.64,.49,1.04,.02,.4-.12,.79-.39,1.08l-16.89,18.44c-.3,.32-.7,.49-1.11,.49Zm3.15-29.42s-.09,0-.13,0c-.79,.03-1.52,.38-2.06,.96l-10.85,11.85c-.54,.58-.81,1.34-.78,2.13,.04,.79,.38,1.52,.96,2.06l9.61,8.8,14.86-16.22-9.61-8.8c-.55-.5-1.26-.78-2-.78Z"/></g><g><rect class="cls-9" x="93.97" y="112.49" width="25" height="80" transform="translate(-77.89 128.01) rotate(-47.51)"/><path class="cls-1" d="M127.53,190.22c-.37,0-.74-.14-1.01-.39l-59-54.03c-.29-.27-.47-.64-.49-1.04-.02-.4,.12-.79,.39-1.08l16.89-18.44c.56-.61,1.51-.65,2.12-.09l58.99,54.03c.61,.56,.65,1.51,.09,2.12l-16.88,18.44c-.27,.29-.64,.47-1.04,.49-.02,0-.04,0-.07,0Zm-56.88-55.63l56.78,52.01,14.86-16.22-56.78-52.01-14.86,16.22Z"/></g><g><polygon class="cls-1" points="152.89 189.16 146.64 195.98 129 190.07 145.89 171.64 152.89 189.16"/><path class="cls-1" d="M146.64,196.98c-.11,0-.21-.02-.32-.05l-17.64-5.91c-.32-.11-.57-.37-.65-.7-.08-.33,0-.68,.23-.93l16.89-18.44c.23-.25,.58-.37,.92-.31,.34,.06,.62,.29,.75,.61l7,17.52c.14,.36,.07,.76-.19,1.05l-6.25,6.82c-.19,.21-.46,.32-.74,.32Zm-15.87-7.37l15.57,5.21,5.38-5.88-6.18-15.46-14.77,16.13Z"/></g><g><path class="cls-5" d="M153.89,198.41l-7.24-2.43,6.25-6.82,2.9,7.24c.48,1.21-.67,2.43-1.9,2.02Z"/><path class="cls-5" d="M154.38,199.49c-.27,0-.55-.04-.82-.13h0l-7.24-2.43c-.32-.11-.57-.37-.65-.7-.08-.33,0-.68,.23-.93l6.25-6.82c.23-.25,.58-.37,.92-.31,.34,.06,.62,.29,.75,.61l2.9,7.24c.37,.93,.17,1.95-.51,2.67-.49,.52-1.15,.79-1.83,.79Zm-.18-2.03c.29,.1,.48-.06,.55-.14,.07-.07,.22-.28,.11-.56l-2.31-5.76-4.13,4.51,5.78,1.94Z"/></g></g></g></svg>