<?xml version="1.0" encoding="UTF-8"?><svg id="_ícones_serviços" xmlns="http://www.w3.org/2000/svg" viewBox="0 0 600 600"><defs><style>.cls-1,.cls-2,.cls-3{fill:#fff;}.cls-4{fill:#05183c;}.cls-5{fill:#ff9460;}.cls-6{stroke:#fff;stroke-width:6.77px;}.cls-6,.cls-7{fill:none;}.cls-6,.cls-2,.cls-3{stroke-miterlimit:10;}.cls-8{fill:#1a3c7d;}.cls-9{fill:#ee4a00;}.cls-10{fill:#e84b0f;}.cls-11{fill:#06296b;}.cls-12{fill:#ff6d2a;}.cls-2{stroke-width:2px;}.cls-2,.cls-3{stroke:#e4dede;}.cls-3{stroke-width:1.27px;}</style></defs><g><g><path class="cls-4" d="M478.36,247.62l-4.96,1.8-5.27,1.91-1.45,.53-1.44,.52-36.48,13.25-16.5,5.99-76.76,27.88-1.88,.68-1.75,.64-38.53,13.99h-.01s.87,.37,.87,.37l.15,.06,.09,.03,.14,.05s.03,.01,.05,.02c.03,.01,.05,.02,.07,.03,.14,.06,.27,.13,.39,.2,.02,.02,.04,.03,.06,.04,.06,.04,.11,.07,.16,.11,.04,.03,.08,.06,.11,.08,.02,.01,.04,.03,.06,.04h0s.04,.04,.06,.06c.04,.04,.08,.07,.12,.11,.05,.04,.09,.08,.13,.13l.06,.06s.04,.04,.05,.07c.03,.02,.05,.04,.07,.07,.04,.05,.08,.1,.11,.15,.04,.04,.08,.1,.11,.15,.06,.09,.12,.18,.17,.28,.03,.06,.06,.12,.09,.18l.14,.26h-.03s-.01,.01-.01,.01l-3.28,1.19-3.24-1.31h-.01l.02-.04s.01-.03,.02-.05c.03-.08,.07-.15,.11-.22,.03-.07,.07-.14,.12-.21,.02-.04,.04-.08,.07-.11,.03-.06,.07-.11,.11-.16,.03-.05,.07-.09,.1-.13,.09-.1,.18-.2,.28-.3,.05-.05,.11-.1,.17-.15,.03-.03,.06-.05,.09-.07,.08-.07,.17-.13,.26-.19,.03-.02,.06-.04,.1-.06,.08-.05,.17-.1,.26-.14,.01-.01,.02-.01,.02-.01,.06-.03,.12-.06,.18-.08l.15-.06,.09-.03,1.15-.42-15.41-6.24-21.51-8.71h0l-1.81-.73-48.44-19.6-3.58-1.45h-.01l-3.14-1.28-.45-.18-6.67,1.07h-.01l-35.88-14.52h0l-3.58-1.45h-.01s-3.57-1.46-3.57-1.46h-.02l-28.94-11.71,4.73-1.86h.01l18.01-7.06h.02s5.08-2.03,5.08-2.03h.06l5.15-2.02,25.39-9.96,3.3-1.3h.01l3.29-1.3h.02l4.33-1.72h.06l4.14-1.62h0l22.25-8.73,1.31-.52,1.91-.74,1.06-.42h0l.83-.33,.58-.23,4.47-1.76h.02l4.28-1.68,19.35-7.59,21.9-8.59,5.28-2.07,18.89-7.41c.65-.26,1.32-.46,2-.61h.04c2.8-.66,5.74-.45,8.45,.62l6.04,2.39,.64,.25,.95,.38,1.21,.48,.37,.15,1.8,.7,8.16,3.23,1.49,.59,1.5,.6,15.89,6.29,45.81,18.12,25.38,10.04,7.8,3.1h.02l19.67,7.77,.93,.37,.93,.37,9.68,3.83h.01l2.04,.81,1.01,.4,1.02,.41h.01l2.02,.8h0l3.03,1.2h.01l.05,.03,1.59,.62,.27,.11,1.31,.52,.25,.1,1.57,.62,9.38,3.71Z"/><path class="cls-1" d="M155.93,259.2h-.03s3.58,1.46,3.58,1.46l-3.55-1.46Zm43.05,17.43l-35.89-14.52h-.02l-3.57-1.45h-.02l-3.08,.49-3.6,.57h.01s3.58,1.46,3.58,1.46h0l35.88,14.52h.01l6.67-1.07,.45,.18h0s-.43-.18-.43-.18Zm55.62,22.5l-48.45-19.6-3.57-1.45h-.01l-3.16-1.27,3.14,1.28h.01l3.58,1.45,48.44,19.6,1.81,.73-1.79-.74Zm-28.28-92.17h-.02l-4.47,1.76-.58,.23-.83,.33h0l-1.06,.42-1.91,.74v.62s.07,2.77,.07,2.77v.35s.74-.29,.74-.29l1.17-.46,1.91-.75,2.83-1.11,4.28-1.68,5.9-2.31-8.02-.62Zm28.28,92.17l-48.45-19.6-3.57-1.45h-.01l-3.16-1.27,3.14,1.28h.01l3.58,1.45,48.44,19.6,1.81,.73-1.79-.74Zm0,0l-48.45-19.6-3.57-1.45h-.01l-3.16-1.27,3.14,1.28h.01l3.58,1.45,48.44,19.6,1.81,.73-1.79-.74Zm23.33,9.44l-21.53-8.7,21.51,8.71,15.41,6.24h.02s-15.41-6.25-15.41-6.25Zm194.01-67.25l-1.57-.62-1.56-.62-2.12-.84-1.58-.63-1.59-.62-4.62-1.83-3.05-1.21-2.03-.8-1.02-.41-1.01-.4h-.01l-2.04-.81-3.17-1.25-1.86-.74-13.8-5.47h-.02l-7.82-3.09-25.38-10.04-53.6-21.21-15.16-6-1.49-.59-1.5-.59-9.07-3.59-1.62-.64-.54-.22-1.04-.41-1.12-.44-.47-.19-4.28-1.69c-4.21-1.65-8.84-1.66-13.06-.01l-5.11,2h-.04l-12.15,4.79-5.3,2.07-26.15,10.26-13.22,5.19-4.29,1.68-5.91,2.32-1.39,.54-1.91,.75-.98,.39-.92,.36-15.44,6.07h-.03l-4.29,1.68-1.86,.73-15.93,6.28h-.07l-2.51,.98-3.31,1.3-3.3,1.3h0l-27.38,10.74-5.16,2.02h-.07l-5.09,2.02h-.02s-13.91,5.47-13.91,5.47c-.02,.01-.04,.02-.06,.03-.32,.13-.63,.32-.91,.56-.11,.08-.22,.18-.31,.29-.12,.12-.22,.26-.32,.4-.06,.07-.1,.14-.14,.22-.3,.51-.48,1.11-.48,1.74-.01,1.28,.69,2.45,1.79,3.06,.13,.08,.26,.14,.4,.2l2.85,1.16,20.71,8.38h.02l3.57,1.45h.02l3.58,1.45h.02l35.87,14.52,6.68-1.06h.01l6.67-1.07,.45,.18h0s-.43-.18-.43-.18l-35.89-14.52h-.02l-3.57-1.45h-.02l-3.55-1.46h-.03l-26.17-10.59,23.39-9.17h.06s5.02-2.02,5.02-2.02h.07s5.16-2.03,5.16-2.03l23.39-9.17h.02l6.6-2.6,20.52-8.05,3.56-1.39,.73-.29,1.17-.46,1.91-.75,2.83-1.11,4.28-1.68,5.9-2.31,2.01-.79,9.39-3.69,3.33-1.32h.04l8.84-3.47h.01l13.59-5.33,5.29-2.07,20.46-8.03c2.03-.8,4.23-.96,6.33-.48,.54,.12,1.07,.28,1.59,.49l7.8,3.09,.82,.32,.77,.3,1.38,.55h.01l.19,.08,1.97,.78,7.25,2.87,1.5,.59,1.49,.59,16.63,6.58,38.02,15.04,25.39,10.04,7.8,3.1h.02l13.12,5.19,6.66,2.63,5.73,2.27,.93,.37,.93,.36,16.19,6.41h.01l2.04,.81,1.01,.4,1.02,.4,.56,.22,1.56,.62h.03s1.58,.64,1.58,.64l5.77,2.28,4.96-1.8,3.72-1.35c.81-.29,1.67-.27,2.43,.02l-12.57-4.97Zm-175.35,76.04l-.14-.26c-.03-.06-.06-.12-.09-.18-.05-.1-.11-.19-.17-.28-.03-.05-.07-.11-.11-.15-.03-.05-.07-.1-.11-.15-.02-.03-.04-.05-.07-.07,0-.03-.03-.05-.05-.07l-.06-.06s-.08-.09-.13-.13c-.04-.04-.08-.07-.12-.11-.02-.02-.04-.03-.06-.05h0s-.04-.04-.06-.05c-.03-.02-.07-.05-.11-.08-.05-.04-.1-.07-.16-.11-.02-.01-.04-.02-.06-.04-.12-.07-.25-.14-.39-.2-.02-.01-.04-.02-.07-.03-.02-.01-.03-.01-.05-.02l-.14-.05-.09-.03-.15-.06-.87-.36h.01s-15.41-6.25-15.41-6.25l-21.53-8.7,21.51,8.71,15.41,6.24-1.15,.42-.09,.03-.15,.06c-.06,.02-.12,.05-.18,.08,0,0-.01,0-.02,.01-.09,.04-.18,.09-.26,.14-.04,.02-.07,.04-.1,.06-.09,.06-.18,.12-.26,.19-.03,.02-.06,.04-.09,.07-.06,.05-.12,.1-.17,.15-.1,.1-.19,.2-.28,.3-.03,.04-.07,.08-.1,.13-.04,.05-.08,.1-.11,.16-.03,.03-.05,.07-.07,.11-.05,.07-.09,.14-.12,.21-.04,.07-.08,.14-.11,.22-.01,.02-.02,.04-.02,.05l-.02,.04h0s-.01,.02-.01,.03c-.01,.02-.02,.04-.02,.06l-1.36,3.11,1.13,.46,.98,.4,1.13,.46h0l.08,.03c.42,.18,.85,.26,1.3,.26h.01c.4,0,.81-.07,1.19-.21l.42-.15,1-.37,.88-.32,1.43-.51h0s-1.6-3.14-1.6-3.14Zm-41.99-18.23l-48.45-19.6-3.57-1.45h-.01l-3.16-1.27,3.14,1.28h.01l3.58,1.45,48.44,19.6,1.81,.73-1.79-.74Zm-28.28-92.17h-.02l-4.47,1.76-.58,.23-.83,.33h0l-1.06,.42-1.91,.74v.62s.07,2.77,.07,2.77v.35s.74-.29,.74-.29l1.17-.46,1.91-.75,2.83-1.11,4.28-1.68,5.9-2.31-8.02-.62Zm-70.39,52.24h-.03s3.58,1.46,3.58,1.46l-3.55-1.46Zm43.05,17.43l-35.89-14.52h-.02l-3.57-1.45h-.02l-3.08,.49-3.6,.57h.01s3.58,1.46,3.58,1.46h0l35.88,14.52h.01l6.67-1.07,.45,.18h0s-.43-.18-.43-.18Zm55.62,22.5l-48.45-19.6-3.57-1.45h-.01l-3.16-1.27,3.14,1.28h.01l3.58,1.45,48.44,19.6,1.81,.73-1.79-.74Z"/></g><g><path class="cls-8" d="M293.27,318.56l-.5,231.53c-1.68-.04-3.36-.37-4.95-1.01l-156.16-62.46c-5.38-2.16-8.93-7.34-8.99-13.14l-1.57-147.29,133.42,53.74c5.7,2.3,12.21-.36,14.66-6.01l24.09-55.36Z"/><path class="cls-1" d="M296.75,318.22c0-.09-.02-.18-.03-.27-.02-.1-.04-.19-.07-.29-.02-.09-.05-.19-.09-.28h0s-.01-.01-.01-.01c-.01-.04-.02-.09-.04-.13-.02-.05-.04-.1-.06-.14-.03-.06-.06-.12-.09-.18-.05-.1-.11-.19-.17-.28-.03-.05-.07-.11-.11-.15-.03-.05-.07-.1-.11-.15-.02-.03-.04-.05-.07-.07,0-.03-.03-.05-.05-.07l-.06-.06s-.08-.09-.13-.13c-.04-.04-.08-.07-.12-.11-.02-.02-.04-.03-.06-.05h0s-.04-.04-.06-.05c-.03-.02-.07-.05-.11-.08-.05-.04-.1-.07-.16-.11-.02-.01-.04-.02-.06-.04-.12-.07-.25-.14-.39-.2-.02-.01-.04-.02-.07-.03-.02-.01-.03-.01-.05-.02l-.14-.05-.09-.03-.15-.06c-.07-.02-.14-.04-.21-.05-.05-.01-.09-.02-.14-.02-.28-.05-.57-.06-.86-.04-.08,.01-.15,.02-.22,.03-.02,0-.05,0-.07,.01-.08,.01-.17,.03-.25,.05-.09,.02-.19,.05-.28,.08l-.09,.03-.15,.06c-.06,.02-.12,.05-.18,.08,0,0-.01,0-.02,.01-.09,.04-.18,.09-.26,.14-.04,.02-.07,.04-.1,.06-.09,.06-.18,.12-.26,.19-.03,.02-.06,.04-.09,.07-.06,.05-.12,.1-.17,.15-.1,.1-.19,.2-.28,.3-.03,.04-.07,.08-.1,.13-.04,.05-.08,.1-.11,.16-.03,.03-.05,.07-.07,.11-.05,.07-.09,.14-.12,.21-.04,.07-.08,.14-.11,.22-.01,.02-.02,.04-.02,.05l-.02,.04h0s-.01,.02-.01,.03c-.01,.02-.02,.04-.02,.06l-1.36,3.11h0s-22.66,52.08-22.66,52.08c-1.68,3.87-6.23,5.73-10.14,4.15l-133.5-53.77c-1.07-.39-2.26-.25-3.2,.39-.58,.39-1.02,.95-1.27,1.58-.18,.43-.26,.88-.26,1.35l.02,2.34,1.55,144.95c.07,7.23,4.47,13.65,11.19,16.35l156.15,62.46c1.94,.77,4,1.2,6.13,1.26h.13c.91,0,1.79-.36,2.44-.99,.68-.66,1.06-1.56,1.06-2.5v-3.96s.47-213.11,.47-213.11l.02-7.65v-6.81s.01-.01,.01-.02c0-.11-.01-.22-.02-.33Zm-172.09,13.19v-.02l128.55,51.79c1.85,.74,3.75,1.1,5.62,1.1,.39,0,.78-.02,1.17-.05,.62-.05,1.23-.13,1.83-.27,1.09-.22,2.16-.57,3.16-1.04,.24-.11,.48-.22,.71-.35,.17-.09,.33-.18,.49-.27,.22-.13,.44-.26,.65-.4,2.37-1.54,4.33-3.78,5.55-6.58l17.34-39.85-.45,210.42c-.05-.02-.11-.04-.16-.06l-156.16-62.46c-4.08-1.64-6.74-5.53-6.79-9.93l-1.51-142.03Z"/></g><g><path class="cls-11" d="M483.75,474.84c.01,6.11-3.86,11.56-9.64,13.56l-176.3,60.92c-1.63,.56-3.34,.82-5.04,.77l.5-231.53,28.91,56.52c2.62,5.12,8.66,7.48,14.05,5.48l147.2-54.45,.32,148.73Z"/><path class="cls-1" d="M486.94,328.55v-2.45c-.01-.42-.08-.82-.23-1.2-.24-.67-.68-1.25-1.28-1.66-.85-.6-1.92-.78-2.91-.51l-147.51,54.55c-3.72,1.38-7.9-.25-9.71-3.79l-27.11-52.99h0s-1.6-3.14-1.6-3.14l-.14-.26c-.03-.06-.06-.12-.09-.18-.05-.1-.11-.19-.17-.28-.03-.05-.07-.11-.11-.15-.03-.05-.07-.1-.11-.15-.02-.03-.04-.05-.07-.07,0-.03-.03-.05-.05-.07l-.06-.06s-.08-.09-.13-.13c-.04-.04-.08-.07-.12-.11-.02-.02-.04-.03-.06-.05h0s-.04-.04-.06-.05c-.03-.02-.07-.05-.11-.08-.05-.04-.1-.07-.16-.11-.02-.01-.04-.02-.06-.04-.12-.07-.25-.14-.39-.2-.02-.01-.04-.02-.07-.03-.02-.01-.03-.01-.05-.02l-.14-.05-.09-.03-.15-.06c-.11-.03-.23-.05-.35-.07-.28-.05-.57-.06-.86-.04-.08,.01-.15,.02-.22,.03-.02,0-.05,0-.07,.01-.08,.01-.17,.03-.25,.05-.09,.02-.19,.05-.28,.08l-.09,.03-.15,.06c-.06,.02-.12,.05-.18,.08,0,0-.01,0-.02,.01-.09,.04-.18,.09-.26,.14-.04,.02-.07,.04-.1,.06-.09,.06-.18,.12-.26,.19-.03,.02-.06,.04-.09,.07-.06,.05-.12,.1-.17,.15-.1,.1-.19,.2-.28,.3-.03,.04-.07,.08-.1,.13-.04,.05-.08,.1-.11,.16-.03,.03-.05,.07-.07,.11-.05,.07-.09,.14-.12,.21-.04,.07-.08,.14-.11,.22-.01,.02-.02,.04-.02,.05-.01,.02-.01,.03-.01,.04h-.01s-.01,.02-.01,.03c-.01,.02-.02,.04-.02,.06-.03,.08-.06,.17-.08,.25-.03,.1-.06,.21-.08,.31,0,.02,0,.04-.01,.06-.03,.19-.05,.39-.05,.59h0s-.01,2.36-.01,2.36v5.72s-.01,.02-.01,.02l-.02,8.8v.02l-.45,210.42v3.68s-.01,.51-.01,.51c0,1.89,1.48,3.43,3.37,3.51h.13c.14,0,.27,.01,.42,.01,1.96,0,3.89-.33,5.76-.97l176.3-60.92c7.18-2.49,12-9.26,12-16.86v-.02l-.31-146.28Zm-190.66,217.59l.46-213.11,22.32,43.64c.33,.64,.69,1.24,1.1,1.81,.6,.86,1.28,1.63,2.03,2.33,2.75,2.54,6.37,3.96,10.11,3.96,1.71,0,3.45-.3,5.14-.93l142.5-52.71,.31,143.72c.01,4.62-2.92,8.73-7.28,10.24l-176.3,60.92c-.13,.05-.26,.09-.39,.13Z"/></g><g><path class="cls-8" d="M197.08,283.41h0s44.13,17.86,44.13,17.86l-44.13-17.86Zm45.95,18.59h-.02l21.53,8.71-21.51-8.71Zm47,15.25h-.01s-.01,.02-.01,.03c-.01,.02-.02,.04-.02,.06l-1.36,3.11-24.08-9.74,24.08,9.75-22.66,52.07c-1.68,3.87-6.23,5.73-10.14,4.15l-133.5-53.77-24.24-9.76c-2.1-.84-3.73-2.56-4.48-4.69-.75-2.14-.54-4.49,.57-6.46l14.32-25.42v.07c.79,4.87,3.42,9.11,7.42,11.95,3.14,2.23,6.86,3.39,10.7,3.39,1.01,0,2.02-.08,3.04-.24l63.11-10.08-3.57-1.45h-.01l-3.59-1.46,6.68-1.06-35.88-14.52h0l-3.58-1.45h-.01s-3.57-1.46-3.57-1.46h-.02l-28.94-11.71-1.71,3.04-7.79,13.81-.61,1.1-.96,1.71-1.55,2.74-.04,.07-16.48,29.25c-3.37,5.98-.71,13.55,5.65,16.12l21.08,8.48,3.24,1.31,133.42,53.74c5.7,2.3,12.21-.36,14.66-6.01l20.57-47.27v-.02l1.71-3.92,.16-.35,.26-.59,1.39-3.21-3.24-1.31Zm-47-15.25h-.02l21.53,8.71-21.51-8.71Zm-45.95-18.59h0s44.13,17.86,44.13,17.86l-44.13-17.86Zm0,0h0s44.13,17.86,44.13,17.86l-44.13-17.86Z"/><path class="cls-1" d="M197.08,283.41h0s44.13,17.86,44.13,17.86l-44.13-17.86Zm-4.8-5.71l-35.88-14.52h0l-3.58-1.45-3.39,.54-1.57,.25-1.72,.27,3.56,1.46h.01l35.89,14.52,3.6,1.45-3.59-1.46,6.68-1.06Zm4.8,5.71h0s44.13,17.86,44.13,17.86l-44.13-17.86Zm45.95,18.59h-.02l21.53,8.71-21.51-8.71Zm-45.95-18.59h0s44.13,17.86,44.13,17.86l-44.13-17.86Zm45.95,18.59h-.02l21.53,8.71-21.51-8.71Zm-45.95-18.59h0s44.13,17.86,44.13,17.86l-44.13-17.86Zm45.95,18.59h-.02l21.53,8.71-21.51-8.71Zm53.72,16.22c0-.09-.02-.18-.03-.27-.02-.1-.04-.19-.07-.29-.02-.09-.05-.19-.09-.28h0c-.01-.05-.03-.1-.05-.14-.02-.05-.04-.1-.06-.14-.03-.06-.06-.12-.09-.18-.05-.1-.11-.19-.17-.28-.03-.05-.07-.11-.11-.15-.03-.05-.07-.1-.11-.15-.02-.03-.04-.05-.07-.07,0-.03-.03-.05-.05-.07l-.06-.06s-.08-.09-.13-.13c-.04-.04-.08-.07-.12-.11-.02-.02-.04-.03-.06-.05s-.04-.03-.06-.05c-.03-.02-.07-.05-.11-.08-.05-.04-.1-.07-.16-.11-.02-.01-.04-.02-.06-.04-.12-.07-.25-.14-.39-.2-.02-.01-.04-.02-.07-.03-.02-.01-.03-.01-.05-.02l-.14-.05-.09-.03-.15-.06-.87-.36h-.01l-1.15,.42-.09,.03-.15,.06c-.06,.02-.12,.05-.18,.08,0,0-.01,0-.02,.01-.09,.04-.18,.09-.26,.14-.04,.02-.07,.04-.1,.06-.09,.06-.18,.12-.26,.19-.03,.02-.06,.04-.09,.07-.06,.05-.12,.1-.17,.15-.1,.1-.19,.2-.28,.3-.03,.04-.07,.08-.1,.13-.04,.05-.08,.1-.11,.16-.03,.03-.05,.07-.07,.11-.05,.07-.09,.14-.12,.21-.04,.07-.08,.14-.11,.22-.01,.02-.02,.04-.02,.05l-.02,.04h0s-.01,.02-.01,.03c-.01,.02-.02,.04-.02,.06l-1.36,3.11-24.08-9.74,24.08,9.75-22.66,52.07c-1.68,3.87-6.23,5.73-10.14,4.15l-133.5-53.77-24.24-9.76c-2.1-.84-3.73-2.56-4.48-4.69-.75-2.14-.54-4.49,.57-6.46l14.32-25.42,1.58-2.8,1.57-2.79,.41-.73,1.26-2.23,1.25-2.22,7.24-12.85,20.71,8.38h.02l3.57,1.45h.02l3.56,1.46h.01l35.89,14.52,3.6,1.45-3.59-1.46,6.68-1.06h.01l6.67-1.07-35.87-14.52h-.02l-3.57-1.45h-.02l-3.58-1.45h0s-26.17-10.6-26.17-10.6l-4.72-1.91h-.01l-3.42-1.38c-.87-.36-1.82-.34-2.65,0-.32,.13-.63,.32-.91,.56-.11,.08-.22,.18-.31,.29-.12,.12-.22,.26-.32,.4-.06,.07-.1,.14-.14,.22-.01,.01-.02,.03-.03,.04l-7.33,13.02-1.58,2.8-1.58,2.8-18.65,33.1c-2.1,3.73-2.49,8.17-1.08,12.21,1.41,4.04,4.5,7.27,8.47,8.88l22.15,8.92,7.04,2.84,128.55,51.77c1.85,.74,3.75,1.1,5.62,1.1,.39,0,.78-.02,1.17-.05,.62-.05,1.23-.13,1.83-.27,1.09-.22,2.16-.57,3.16-1.04,.24-.11,.48-.22,.71-.35,.17-.09,.33-.18,.49-.27,.22-.13,.44-.26,.65-.4,2.37-1.54,4.33-3.78,5.55-6.58l17.34-39.85v-.02l3.52-8.07,.28-.63,1.8-4.16,.55-1.26,.6-1.37c.2-.45,.29-.91,.29-1.39v-.02c0-.11-.01-.22-.02-.33Zm-53.72-16.22h-.02l21.53,8.71-21.51-8.71Zm-45.95-18.58l44.13,17.85-44.13-17.86h0Zm45.95,18.59h-.02l21.53,8.71-21.51-8.71Zm-45.95-18.59h0s44.13,17.86,44.13,17.86l-44.13-17.86Zm45.95,18.59h-.02l21.53,8.71-21.51-8.71Zm-45.95-18.59h0s44.13,17.86,44.13,17.86l-44.13-17.86Zm45.95,18.59h-.02l21.53,8.71-21.51-8.71Zm-45.95-18.59h0s44.13,17.86,44.13,17.86l-44.13-17.86Zm92.94,33.84h0s.01,0,.01,0h-.01Zm-25.47-6.54l24.08,9.75h0s-24.08-9.75-24.08-9.75Zm-21.52-8.71h-.02l21.53,8.71-21.51-8.71Zm-45.95-18.59h0s44.13,17.86,44.13,17.86l-44.13-17.86Zm-4.8-5.71l-35.88-14.52h0l-3.58-1.45-3.39,.54-1.57,.25-1.72,.27,3.56,1.46h.01l35.89,14.52,3.6,1.45-3.59-1.46,6.68-1.06Z"/><path class="cls-1" d="M293.32,314.82l-1.15,.42-.09,.03-.15,.06c-.06,.02-.12,.05-.18,.08,0,0-.01,0-.02,.01-.09,.04-.18,.09-.26,.14-.04,.02-.07,.04-.1,.06-.09,.06-.18,.12-.26,.19-.03,.02-.06,.04-.09,.07-.06,.05-.12,.1-.17,.15-.1,.1-.19,.2-.28,.3-.03,.04-.07,.08-.1,.13-.04,.05-.08,.1-.11,.16-.03,.03-.05,.07-.07,.11-.05,.07-.09,.14-.12,.21-.04,.07-.08,.14-.11,.22-.01,.02-.02,.04-.02,.05l-.02,.04h0s-.01,.02-.01,.03c-.01,.02-.02,.04-.02,.06l-1.36,3.11-24.08-9.74h-.01l-21.51-8.71h-.02l-1.79-.73h-.01l-44.13-17.86-4.3-1.74h-.01l-3.57-1.45h-.01l-3.59-1.46,6.68-1.06h.01l6.67-1.07,.45,.18,3.14,1.28h.01l3.58,1.45,48.44,19.6,1.81,.73h0l21.51,8.71,15.41,6.24Z"/><path class="cls-8" d="M288.63,320.46l-22.66,52.07c-1.68,3.87-6.23,5.73-10.14,4.15l-133.5-53.77-24.24-9.76c-2.1-.84-3.73-2.56-4.48-4.69-.75-2.14-.54-4.49,.57-6.46l14.32-25.42v.07c.79,4.87,3.42,9.11,7.42,11.95,3.14,2.23,6.86,3.39,10.7,3.39,1.01,0,2.02-.08,3.04-.24l63.11-10.08h.01l4.3,1.74h0s44.13,17.86,44.13,17.86h.01l1.79,.73,21.53,8.71h.01l24.08,9.75Z"/></g><g><path class="cls-11" d="M513.07,308.29c-.76,2.27-2.48,4.04-4.72,4.88l-25.83,9.56-147.51,54.55c-3.72,1.38-7.9-.25-9.71-3.79l-27.11-52.99,47.31-17.18,6.19-2.25,6.16-2.24h.03s108.21-39.3,108.21-39.3l1.44-.53,1.45-.52h0s12.85-4.67,12.85-4.67l30.42,47.75c1.28,2.01,1.58,4.47,.82,6.73Z"/><path class="cls-11" d="M509.56,316.45l-22.85,8.45-3.28,1.21-147.2,54.45c-5.39,2-11.43-.36-14.05-5.48l-25.42-49.7-1.43-2.79-.45-.89-1.61-3.14,3.28-1.19h.04s1.6,3.12,1.6,3.12l47.28-17.17,6.19-2.25h.03l-6.19,2.25-47.31,17.18,27.11,52.99c1.81,3.54,5.99,5.17,9.71,3.79l147.51-54.55,25.83-9.56c2.24-.84,3.96-2.61,4.72-4.88,.76-2.26,.46-4.72-.82-6.73l-30.42-47.75,2.63-.96c.25-.09,.47-.2,.68-.35h0l30.05,47.18c3.89,6.11,1.15,14.25-5.64,16.77Z"/><path class="cls-1" d="M351.66,301.07l-6.19,2.25-47.28,17.17h0s47.31-17.17,47.31-17.17l6.19-2.25h-.03Zm166.49-3.27l-31.85-49.99c.31,.54,.48,1.16,.47,1.8-.02,1.19-.64,2.27-1.62,2.89h0c-.21,.15-.43,.26-.68,.35l-2.63,.96,30.42,47.75c1.28,2.01,1.58,4.47,.82,6.73-.76,2.27-2.48,4.04-4.72,4.88l-25.83,9.56-147.51,54.55c-3.72,1.38-7.9-.25-9.71-3.79l-27.11-52.99,47.31-17.18,6.19-2.25h-.03l-6.19,2.25-47.28,17.17-1.6-3.13-.14-.26c-.03-.06-.06-.12-.09-.18-.05-.1-.11-.19-.17-.28-.03-.05-.07-.11-.11-.15-.03-.05-.07-.1-.11-.15-.02-.03-.04-.05-.07-.07,0-.03-.03-.05-.05-.07l-.06-.06s-.08-.09-.13-.13c-.04-.04-.08-.07-.12-.11-.02-.02-.04-.03-.06-.05h0s-.04-.04-.06-.05c-.03-.02-.07-.05-.11-.08-.05-.04-.1-.07-.16-.11-.02-.01-.04-.02-.06-.04-.12-.07-.25-.14-.39-.2-.02-.01-.04-.02-.07-.03-.02-.01-.03-.01-.05-.02l-.14-.05-.09-.03-.15-.06-.87-.36h-.01l-1.15,.42-.09,.03-.15,.06c-.06,.02-.12,.05-.18,.08,0,0-.01,0-.02,.01-.09,.04-.18,.09-.26,.14-.04,.02-.07,.04-.1,.06-.09,.06-.18,.12-.26,.19-.03,.02-.06,.04-.09,.07-.06,.05-.12,.1-.17,.15-.1,.1-.19,.2-.28,.3-.03,.04-.07,.08-.1,.13-.04,.05-.08,.1-.11,.16-.03,.03-.05,.07-.07,.11-.05,.07-.09,.14-.12,.21-.04,.07-.08,.14-.11,.22-.01,.02-.02,.04-.02,.05-.01,.02-.01,.03-.01,.04h-.01s-.01,.02-.01,.03c-.01,.02-.02,.04-.02,.06-.03,.08-.06,.17-.08,.25-.03,.1-.06,.21-.08,.31,0,.02,0,.04-.01,.06-.03,.19-.05,.39-.05,.59h0c0,.56,.13,1.1,.38,1.6l.59,1.16,.72,1.4,1.79,3.51v.07l.28,.46,3.21,6.28,22.32,43.64c.33,.64,.69,1.24,1.1,1.81,.6,.86,1.28,1.63,2.03,2.33,2.75,2.54,6.37,3.96,10.11,3.96,1.71,0,3.45-.3,5.14-.93l142.5-52.71,3.5-1.29,3.5-1.29,23.83-8.82h.01c4.23-1.57,7.49-4.93,8.92-9.21,1.44-4.28,.88-8.91-1.55-12.72Zm-166.49,3.27l-6.19,2.25-47.28,17.17h0s47.31-17.17,47.31-17.17l6.19-2.25h-.03Zm0,0l-6.19,2.25-47.28,17.17h0s47.31-17.17,47.31-17.17l6.19-2.25h-.03Z"/></g></g><g><path class="cls-6" d="M456.53,207.49c-.64-.26-1.28-.52-1.93-.78-.65-.26-1.28-.52-1.93-.77-6.1-2.41-12.38-4.7-18.84-6.84-.65-.22-1.29-.43-1.94-.64-.65-.21-1.29-.42-1.94-.63-15.77-5.07-32.51-9.34-50.05-12.69-9.65-1.86-19.54-3.44-29.63-4.71-17.1-2.16-34.79-3.5-52.91-3.89-6.84-.14-13.62-.16-20.34-.05-.69,0-1.37,.03-2.06,.04-.68,.02-1.37,.04-2.05,.06-2.56,.07-5.1,.15-7.64,.25h-.01c-.68,.03-1.35,.06-2.02,.09-.68,.03-1.35,.06-2.02,.1-5.36,.26-10.68,.6-15.95,1.03-1.09,.08-2.18,.17-3.27,.28-.19,.02-.38,.03-.57,.05-.68,.06-1.36,.12-2.03,.18-.68,.07-1.36,.14-2.03,.2-6.32,.61-12.55,1.35-18.71,2.2-2.02,.28-4.04,.57-6.05,.88-3.26,.49-6.49,1.01-9.69,1.58-.33,.04-.66,.11-.99,.17-6.65,1.16-13.18,2.47-19.59,3.9-7.34,1.65-14.52,3.46-21.5,5.44-8.81,2.49-17.33,5.25-25.51,8.25-.63,.23-1.26,.46-1.88,.7-.63,.23-1.26,.46-1.88,.7-66.96,25.44-110.79,67.18-111.83,115.22-.71,32.73,18.55,63.41,51.7,88.59,6.16,4.67,12.8,9.16,19.88,13.43,5.77,3.5,11.85,6.84,18.2,10.04,2.29,1.15,4.62,2.29,6.98,3.4,44.3,20.9,100.75,34.58,162.77,37.33,2.32,.1,4.66,.19,7,.26,1.56,.06,3.13,.09,4.7,.13,68.35,1.49,131.15-10.56,179.68-31.69,2.39-1.04,4.74-2.1,7.04-3.18,42.98-20.09,73.71-47.57,85.55-79.05,3.1-8.21,4.9-16.7,5.3-25.4,.03-.64,.05-1.29,.06-1.94,1.07-49.34-43.22-93.99-112.08-122.21Z"/><path class="cls-3" d="M71.42,424.97l-1.78,9.23c-.25,1.16-1.88,1.19-2.18,.05l-2.39-9.25c-1.21-4.69-3.71-9.02-7.12-12.42-2.69-2.7-5.95-4.82-9.57-6.08l-.91-.32-1.33-.47c-1.04-.36-.98-1.86,.09-2.14h.02c.38-.1,.77-.21,1.14-.33,8.78-2.75,15.41-10.34,17.5-19.36l.18-.69,2.13-8.33c.27-1.17,1.94-1.15,2.18,.03l1.7,8.23,.15,.73c1.96,9.43,8.88,16.55,18.04,19.19,.42,.12,.85,.23,1.28,.34,.57,.13,.86,.61,.86,1.09,0,.44-.25,.89-.76,1.06l-1.44,.49-.71,.24c-3.82,1.3-7.24,3.36-10.02,6.03-3.51,3.36-6.02,7.69-7.08,12.68Z"/><circle class="cls-2" cx="568.27" cy="338.56" r="12"/></g><g><g><g><polygon class="cls-9" points="241.21 301.27 197.08 283.42 197.08 283.41 241.21 301.27"/><polygon class="cls-9" points="262.45 298.9 256.4 299.87 256.39 299.87 254.58 299.14 206.14 279.54 202.56 278.09 202.55 278.09 199.41 276.81 199.41 276.8 199.5 276.54 200.64 273.32 237.18 267.49 239.35 270.18 240.79 271.98 242.23 273.77 261.72 298 262.45 298.9"/><g><path class="cls-9" d="M304.2,113.31l19.35,121.15-214.28,34.23-19.35-121.15c-1.6-9.99,4.4-19.25,13.4-20.69l181.7-29.02c9-1.44,17.59,5.5,19.18,15.49Z"/><path class="cls-1" d="M107.61,270.97l-19.67-123.12c-.85-5.32,.22-10.63,3.02-14.95,2.84-4.39,7.12-7.24,12.04-8.03l181.7-29.02c10.08-1.62,19.71,6.08,21.47,17.15l19.67,123.12-218.23,34.86ZM287.38,99.63c-.68,0-1.36,.05-2.05,.16l-181.7,29.02c-3.79,.61-7.1,2.83-9.31,6.25-2.26,3.49-3.12,7.81-2.43,12.15l19.03,119.17,210.33-33.59-19.03-119.17c-1.3-8.11-7.73-13.99-14.85-13.99Z"/></g><g><path class="cls-12" d="M311.04,260.76l-70.25,11.22-38.21,6.1h-.02s-.01,.01-.01,.01l-3.14-1.28-.45-.18-6.67,1.07h-.01l-6.68,1.06,3.59,1.46-59.85,9.56c-9,1.43-17.42-4.45-18.85-13.45l-.41-2.55-.5-3.12-.32-1.98h.01l4.05-.65,32.79-5.24h.02l1.72-.27,4.95-.8,3.6-.57,3.08-.49h.02l157.01-25.09,7-1.11h.04s.31,1.97,.31,1.97l.91,5.68c1.44,8.99-4.73,17.21-13.73,18.65Z"/><path class="cls-1" d="M326.75,241.79l-.91-5.68-.63-3.94h0s-1.91,.3-1.91,.3h-.06s-.01,.01-.01,.01l-1.97,.31-6.85,1.09h-.03l-6.6,1.06h-.03l-151.82,24.26h-.03s-6.67,1.07-6.67,1.07h-.02l-6.67,1.07h-.02l-27.95,4.47-3.64,.58-.77,.12-1.21,.19-1.97,.32h-.01l.64,4.01,.89,5.55v.07c.79,4.87,3.42,9.11,7.42,11.95,3.14,2.23,6.86,3.39,10.7,3.39,1.01,0,2.02-.08,3.04-.24l63.11-10.08-3.57-1.45h-.01l-3.59-1.46h-.01s-56.56,9.04-56.56,9.04c-3.85,.62-7.68-.26-10.8-2.46-3.11-2.21-5.16-5.52-5.77-9.32l-.81-5.03-.1-.65,.51-.08,37.63-6.01h.02s.02-.01,.02-.01l6.66-1.06h0l6.67-1.07h.02l158.8-25.37,.91,5.68c1.26,7.89-4.05,15.08-12.07,16.36l-71.38,11.4-39.85,6.36-.52,.09h-.02l.45,.18,3.14,1.28h.01l3.58,1.45h0s36.08-5.77,36.08-5.77l69.13-11.04c10.07-1.61,16.97-11,15.39-20.94Z"/></g><polygon class="cls-12" points="264.54 310.71 243.01 302 243.03 302 264.54 310.71"/><path class="cls-12" d="M287.03,307.12l-9.1,1.45h-.02s-21.51-8.7-21.51-8.7h0l-1.81-.73h.02s7.12-1.14,7.12-1.14l23.26-3.72c1.65-.26,3.2,.86,3.46,2.51l1.1,6.87c.26,1.65-.86,3.2-2.51,3.46Z"/></g><g><g><path class="cls-5" d="M185.29,51.58l52.05,169.56c.51,1.65-.42,3.39-2.07,3.9l-156.55,48.06c-1.65,.51-3.39-.42-3.9-2.07L22.84,101.69c-.81-2.63,.85-5.46,3.7-6.33L178.98,48.57c2.71-.83,5.55,.51,6.31,3.02Z"/><path class="cls-1" d="M79.19,274.96c-2.63,.75-5.4-.74-6.2-3.37L21.01,102.26c-.55-1.79-.32-3.69,.65-5.35,.94-1.61,2.47-2.81,4.31-3.38L178.41,46.73c1.75-.55,3.65-.42,5.28,.36,1.68,.8,2.9,2.2,3.44,3.93l52.05,169.56c.4,1.29,.27,2.65-.37,3.84-.63,1.19-1.69,2.06-2.97,2.46l-156.55,48.05s-.07,.02-.1,.03ZM179.61,50.38s-.05,.01-.07,.02L27.1,97.2c-.92,.28-1.67,.86-2.12,1.64-.42,.73-.53,1.54-.3,2.29l51.98,169.34c.09,.31,.3,.56,.59,.71,.28,.15,.62,.23,.92,.09l156.55-48.06c.31-.09,.56-.3,.71-.58,.15-.28,.18-.61,.09-.92L183.45,52.15c-.21-.69-.71-1.26-1.42-1.59-.74-.35-1.59-.41-2.42-.18Z"/></g><g><circle class="cls-12" cx="38.55" cy="105.12" r="3.67"/><circle class="cls-12" cx="49.57" cy="101.73" r="3.67"/><circle class="cls-12" cx="60.6" cy="98.35" r="3.67"/><circle class="cls-12" cx="72" cy="94.85" r="3.67"/></g><g><circle class="cls-12" cx="161.42" cy="67.4" r="3.67"/><circle class="cls-12" cx="172.45" cy="64.01" r="3.67"/></g><g><line class="cls-7" x1="142" y1="59.92" x2="149.63" y2="84.77"/><rect class="cls-1" x="143.81" y="59.35" width="4" height="26" transform="translate(-14.81 45.98) rotate(-17.07)"/></g><g><line class="cls-7" x1="29.36" y1="122.43" x2="190.94" y2="72.83"/><rect class="cls-1" x="25.64" y="95.63" width="169.02" height="4" transform="translate(-23.79 36.59) rotate(-17.05)"/></g><g><rect class="cls-9" x="76.69" y="178.07" width="36.33" height="31.41" rx="5.96" ry="5.96" transform="translate(-52.02 35.75) rotate(-16.82)"/><g><path class="cls-12" d="M114.73,175.23c-.79,.22-1.61-.22-1.85-1.01-.24-.79,.21-1.63,1-1.87l76.66-23.18h.02c.79-.23,1.61,.22,1.85,1,.24,.79-.21,1.63-1,1.87l-76.66,23.18h-.02Z"/><path class="cls-12" d="M116.59,181.39c-.79,.22-1.61-.22-1.85-1.01-.24-.79,.21-1.63,1-1.87l76.66-23.18c.76-.22,1.63,.21,1.87,1s-.21,1.63-1,1.87l-76.66,23.18h-.02Z"/><path class="cls-12" d="M118.46,187.55c-.79,.22-1.61-.22-1.85-1.01-.24-.79,.21-1.63,1-1.87l76.66-23.18c.76-.25,1.63,.21,1.87,1s-.21,1.63-1,1.87l-76.66,23.18h-.02Z"/><path class="cls-12" d="M120.32,193.71c-.79,.22-1.61-.22-1.85-1.01-.24-.79,.21-1.63,1-1.87l76.66-23.18h.02c.79-.23,1.61,.22,1.85,1,.24,.79-.21,1.63-1,1.87l-76.66,23.18h-.02Z"/><path class="cls-12" d="M122.39,200.55c-.79,.22-1.61-.22-1.85-1.01-.24-.79,.21-1.63,1-1.87l76.66-23.18c.76-.2,1.63,.21,1.87,1s-.21,1.63-1,1.87l-76.66,23.18h-.02Z"/></g></g><g><rect class="cls-9" x="170.94" y="190.83" width="36.33" height="31.41" rx="5.96" ry="5.96" transform="translate(429.9 349.5) rotate(163.18)"/><g><path class="cls-12" d="M93.39,251.15c-.79,.22-1.61-.22-1.85-1.01-.24-.79,.21-1.63,1-1.87l76.66-23.18c.81-.22,1.63,.21,1.87,1s-.21,1.63-1,1.87l-76.66,23.18h-.02Z"/><path class="cls-12" d="M91.53,244.99c-.79,.22-1.61-.22-1.85-1.01-.24-.79,.21-1.63,1-1.87l76.66-23.18h.02c.79-.23,1.61,.22,1.85,1,.24,.79-.21,1.63-1,1.87l-76.66,23.18h-.02Z"/><path class="cls-12" d="M89.67,238.83c-.79,.22-1.61-.22-1.85-1.01-.24-.79,.21-1.63,1-1.87l76.66-23.18c.79-.26,1.63,.21,1.87,1s-.21,1.63-1,1.87l-76.66,23.18h-.02Z"/><path class="cls-12" d="M87.81,232.67c-.79,.22-1.61-.22-1.85-1.01-.24-.79,.21-1.63,1-1.87l76.66-23.18c.8-.23,1.63,.21,1.87,1s-.21,1.63-1,1.87l-76.66,23.18h-.02Z"/><path class="cls-12" d="M85.74,225.83c-.79,.22-1.61-.22-1.85-1.01-.24-.79,.21-1.63,1-1.87l76.66-23.18c.81-.21,1.63,.21,1.87,1s-.21,1.63-1,1.87l-76.66,23.18h-.02Z"/></g></g><rect class="cls-12" x="61.32" y="110.92" width="121.27" height="47.98" rx="5.96" ry="5.96" transform="translate(-33.83 41.07) rotate(-16.82)"/></g><g><g><g><path class="cls-5" d="M332.1,119.66l-7.98,110.57c-.17,2.39-2.25,4.19-4.64,4.02l-160.9-11.62c-2.39-.17-4.19-2.25-4.02-4.64l7.97-110.43c.13-1.75,2.63-2.99,5.6-2.77l159.05,11.48c2.83,.2,5.04,1.72,4.92,3.39Z"/><path class="cls-1" d="M319.79,235.8c-.14,0-.29,0-.43-.02l-160.9-11.62c-1.57-.11-2.99-.83-4.02-2.02s-1.53-2.7-1.42-4.27l7.97-110.43c.1-1.39,1.04-2.62,2.58-3.39,1.3-.64,2.95-.93,4.66-.81l159.05,11.48c3.74,.27,6.52,2.48,6.34,5.03l-7.98,110.57c-.11,1.57-.83,2.99-2.02,4.02-1.08,.93-2.42,1.43-3.83,1.43ZM167.47,106.31c-.95,0-1.85,.18-2.53,.52-.52,.26-.87,.59-.88,.86l-7.97,110.43c-.05,.75,.19,1.47,.68,2.04,.49,.57,1.17,.91,1.92,.96l160.9,11.62c.75,.06,1.47-.19,2.04-.68,.57-.49,.91-1.17,.96-1.92l7.98-110.57c.04-.51-1.3-1.59-3.5-1.75l-159.05-11.48c-.18-.01-.37-.02-.55-.02Z"/></g><circle class="cls-12" cx="298.84" cy="126.8" r="3.67"/><g><line class="cls-7" x1="161.14" y1="131.06" x2="329.72" y2="143.23"/><rect class="cls-1" x="243.43" y="52.64" width="4" height="169.02" transform="translate(90.96 372.07) rotate(-85.87)"/></g></g><g><g><g><rect class="cls-9" x="180.29" y="171.48" width="26.88" height="22.17" rx="5.96" ry="5.96" transform="translate(14.47 -14.23) rotate(4.37)"/><g><path class="cls-12" d="M203.37,200.56s-.05,0-.08,0l-21.54-1.65c-.55-.04-.96-.52-.92-1.07,.04-.55,.52-.97,1.07-.92l21.54,1.65c.55,.04,.96,.52,.92,1.07-.04,.52-.48,.92-1,.92Z"/><path class="cls-12" d="M203,205.31s-.05,0-.08,0l-21.54-1.65c-.55-.04-.96-.52-.92-1.07s.5-.96,1.07-.92l21.54,1.65c.55,.04,.96,.52,.92,1.07-.04,.52-.48,.92-1,.92Z"/><path class="cls-12" d="M202.64,210.06s-.05,0-.08,0l-21.54-1.65c-.55-.04-.96-.52-.92-1.07,.04-.55,.51-.97,1.07-.92l21.54,1.65c.55,.04,.96,.52,.92,1.07-.04,.52-.48,.92-1,.92Z"/><path class="cls-12" d="M202.28,214.81s-.05,0-.08,0l-21.54-1.65c-.55-.04-.96-.52-.92-1.07s.5-.97,1.07-.92l21.54,1.65c.55,.04,.96,.52,.92,1.07-.04,.52-.48,.92-1,.92Z"/></g></g><g><rect class="cls-9" x="212.65" y="173.82" width="26.88" height="22.17" rx="5.96" ry="5.96" transform="translate(14.75 -16.69) rotate(4.37)"/><g><path class="cls-12" d="M235.73,202.9s-.05,0-.08,0l-21.54-1.65c-.55-.04-.96-.52-.92-1.07,.04-.55,.5-.97,1.07-.92l21.54,1.65c.55,.04,.96,.52,.92,1.07-.04,.52-.48,.92-1,.92Z"/><path class="cls-12" d="M235.37,207.65s-.05,0-.08,0l-21.54-1.65c-.55-.04-.96-.52-.92-1.07,.04-.55,.51-.96,1.07-.92l21.54,1.65c.55,.04,.96,.52,.92,1.07-.04,.52-.48,.92-1,.92Z"/><path class="cls-12" d="M235,212.4s-.05,0-.08,0l-21.54-1.65c-.55-.04-.96-.52-.92-1.07,.04-.55,.5-.96,1.07-.92l21.54,1.65c.55,.04,.96,.52,.92,1.07-.04,.52-.48,.92-1,.92Z"/><path class="cls-12" d="M234.64,217.15s-.05,0-.08,0l-21.54-1.65c-.55-.04-.96-.52-.92-1.07,.04-.55,.51-.97,1.07-.92l21.54,1.65c.55,.04,.96,.52,.92,1.07-.04,.52-.48,.92-1,.92Z"/></g></g><g><rect class="cls-9" x="245.07" y="176.16" width="26.88" height="22.17" rx="5.96" ry="5.96" transform="translate(15.02 -19.15) rotate(4.37)"/><g><path class="cls-12" d="M268.15,205.24s-.05,0-.08,0l-21.54-1.65c-.55-.04-.96-.52-.92-1.07,.04-.55,.52-.97,1.07-.92l21.54,1.65c.55,.04,.96,.52,.92,1.07-.04,.52-.48,.92-1,.92Z"/><path class="cls-12" d="M267.78,209.99s-.05,0-.08,0l-21.54-1.65c-.55-.04-.96-.52-.92-1.07s.5-.96,1.07-.92l21.54,1.65c.55,.04,.96,.52,.92,1.07-.04,.52-.48,.92-1,.92Z"/><path class="cls-12" d="M267.42,214.74s-.05,0-.08,0l-21.54-1.65c-.55-.04-.96-.52-.92-1.07,.04-.55,.51-.97,1.07-.92l21.54,1.65c.55,.04,.96,.52,.92,1.07-.04,.52-.48,.92-1,.92Z"/><path class="cls-12" d="M267.06,219.49s-.05,0-.08,0l-21.54-1.65c-.55-.04-.96-.52-.92-1.07s.5-.97,1.07-.92l21.54,1.65c.55,.04,.96,.52,.92,1.07-.04,.52-.48,.92-1,.92Z"/></g></g><g><rect class="cls-9" x="276.99" y="178.46" width="26.88" height="22.17" rx="5.96" ry="5.96" transform="translate(15.29 -21.58) rotate(4.37)"/><g><path class="cls-12" d="M300.06,207.55s-.05,0-.08,0l-21.54-1.65c-.55-.04-.96-.52-.92-1.07,.04-.55,.51-.96,1.07-.92l21.54,1.65c.55,.04,.96,.52,.92,1.07-.04,.52-.48,.92-1,.92Z"/><path class="cls-12" d="M299.7,212.29s-.05,0-.08,0l-21.54-1.65c-.55-.04-.96-.52-.92-1.07,.04-.55,.52-.96,1.07-.92l21.54,1.65c.55,.04,.96,.52,.92,1.07-.04,.52-.48,.92-1,.92Z"/><path class="cls-12" d="M299.34,217.04s-.05,0-.08,0l-21.54-1.65c-.55-.04-.96-.52-.92-1.07s.5-.97,1.07-.92l21.54,1.65c.55,.04,.96,.52,.92,1.07-.04,.52-.48,.92-1,.92Z"/><path class="cls-12" d="M298.97,221.79s-.05,0-.08,0l-21.54-1.65c-.55-.04-.96-.52-.92-1.07,.04-.55,.51-.96,1.07-.92l21.54,1.65c.55,.04,.96,.52,.92,1.07-.04,.52-.48,.92-1,.92Z"/></g></g></g><g><rect class="cls-12" x="168.94" y="146.68" width="150.38" height="21.9" rx="5.96" ry="5.96" transform="translate(12.72 -18.14) rotate(4.37)"/><g><polygon class="cls-9" points="242.05 154.14 233.4 162.87 254.01 164.36 247.84 157.23 245.08 158.37 242.05 154.14"/><circle class="cls-9" cx="249.41" cy="154" r="2"/></g></g></g></g><g><g><circle class="cls-12" cx="226.08" cy="83.81" r="34.75"/><path class="cls-1" d="M226.13,120.56c-.9,0-1.8-.03-2.7-.1-20.21-1.46-35.47-19.09-34.01-39.3,1.46-20.21,19.09-35.46,39.3-34.01,20.21,1.46,35.47,19.09,34.01,39.3l-2-.14,2,.14c-.71,9.79-5.18,18.72-12.61,25.14-6.74,5.83-15.17,8.96-23.99,8.96Zm-.08-69.5c-17,0-31.4,13.18-32.64,30.39-1.3,18.01,12.29,33.72,30.31,35.02,8.74,.64,17.17-2.17,23.79-7.9,6.62-5.72,10.6-13.68,11.23-22.41,1.3-18.01-12.29-33.72-30.31-35.02-.8-.06-1.59-.09-2.38-.09Z"/></g><g><path class="cls-10" d="M248.23,91.65l-4.17-2.12c.54-1.53,.88-3.16,1-4.86,.1-1.38,.05-2.72-.14-4.04l4.2-1.41c1.57-.53,2.42-2.23,1.89-3.8-.53-1.57-2.23-2.42-3.8-1.89l-4.07,1.37c-1.33-2.7-3.3-5.06-5.72-6.86l1.86-3.68c.75-1.48,.16-3.29-1.32-4.04-1.48-.75-3.29-.16-4.04,1.32l-1.84,3.62c-1.46-.49-3-.8-4.61-.91-1.61-.12-3.18-.03-4.69,.24l-1.3-3.84c-.53-1.57-2.24-2.42-3.8-1.89-1.57,.53-2.42,2.23-1.89,3.8l1.31,3.9c-2.65,1.43-4.94,3.48-6.65,5.97l-3.83-1.94c-1.48-.75-3.29-.16-4.04,1.32-.75,1.48-.16,3.29,1.32,4.04l3.96,2c-.37,1.28-.62,2.6-.72,3.98-.12,1.7-.02,3.36,.29,4.95l-4.43,1.49c-1.57,.53-2.42,2.23-1.89,3.8,.4,1.18,1.46,1.95,2.63,2.03,.39,.03,.78-.01,1.17-.15l4.57-1.53c1.38,2.47,3.3,4.61,5.6,6.26l-2.25,4.44c-.75,1.48-.16,3.29,1.32,4.04,.37,.19,.75,.28,1.14,.31,1.17,.08,2.33-.52,2.9-1.64l2.28-4.5c1.34,.42,2.77,.69,4.23,.8,1.47,.11,2.91,.04,4.3-.18l1.61,4.78c.4,1.18,1.46,1.95,2.63,2.03,.39,.03,.78-.01,1.17-.15,1.57-.53,2.42-2.23,1.89-3.8l-1.58-4.72c2.52-1.3,4.73-3.15,6.44-5.39l4.3,2.18c.37,.19,.75,.28,1.14,.31,1.17,.08,2.33-.52,2.9-1.64,.75-1.48,.16-3.29-1.32-4.04Zm-15.41,2.79c-1.7,1.03-3.65,1.67-5.72,1.83-.63,.04-1.28,.05-1.93,0s-1.28-.14-1.9-.28c-2.02-.46-3.86-1.37-5.39-2.64-.97-.8-1.83-1.74-2.53-2.78-1.12-1.66-1.87-3.57-2.14-5.62-.1-.85-.13-1.71-.06-2.59,.04-.55,.11-1.1,.23-1.63,.4-2.04,1.28-3.9,2.51-5.46,.89-1.13,1.98-2.11,3.19-2.9,1.67-1.08,3.61-1.78,5.66-2,.76-.09,1.53-.1,2.32-.04,.79,.06,1.55,.18,2.29,.38,2,.51,3.81,1.48,5.31,2.79,1.08,.95,2.02,2.08,2.74,3.33,.99,1.73,1.6,3.69,1.7,5.77,.04,.54,.03,1.1,0,1.64-.06,.88-.22,1.73-.44,2.56-.56,1.98-1.58,3.78-2.93,5.25-.84,.93-1.82,1.73-2.9,2.39Z"/><circle class="cls-10" cx="226.08" cy="83.81" r="5"/></g></g></g><g><g><g><g><path class="cls-12" d="M466.68,251.86l-1.44,.52-36.48,13.25-16.5,5.99-76.76,27.88-1.88,.68c-3.6-2.19-6.2-5.94-6.73-10.42l-4.01-33.68-.34-2.88-.43-3.59-1.51-12.66-.14-1.19-.09-.8-.09-.73-.15-1.26-.03-.25-3.37-28.29h0s-2.12-17.83-2.12-17.83l-.47-3.95-.47-3.96-.58-4.87-2.27-19.06v-.09s-.37-2.96-.37-2.96l-.94-7.93-.24-2.03-.24-2.01-.67-5.62c-.21-1.8-.08-3.56,.36-5.22,1.43-5.48,6.1-9.82,12.04-10.52l5.34-.64h.02l4.31-.51h.01l2.11-.25,72.05-8.58,2.92-.35,27.39-3.26c1.43-.17,2.84-.12,4.2,.13,.37,.07,.74,.15,1.1,.25,.36,.09,.72,.21,1.07,.33,3.12,1.11,5.79,3.29,7.49,6.15,.21,.34,.4,.7,.58,1.07,.18,.38,.35,.77,.5,1.18,.11,.28,.21,.57,.29,.86,.14,.45,.26,.91,.34,1.38,.07,.34,.13,.69,.17,1.04l.06,.49h0s1.06,8.92,1.06,8.92l.14,1.21,.15,1.22,3.18,26.67,.35,2.99,1.48,12.42,.38,3.21,.12,.97h0s.61,5.13,.61,5.13l3.85,32.37,.22,1.8,.21,1.81,2.65,22.22,.47,3.95,.03,.31h0s.22,1.8,.22,1.8l.21,1.81v.03s.64,5.35,.64,5.35Z"/><path class="cls-1" d="M450.48,116.14l1.19-1.52c-.13-.43-.27-.86-.43-1.28-.1-.27-.21-.54-.32-.8-.17-.38-.35-.74-.56-1.11l-1.01,1.29c-.18-.37-.37-.73-.58-1.07l-1,1.28c.2,.37,.38,.75,.53,1.14,.18,.41,.32,.83,.44,1.26,.1,.3,.17,.6,.24,.91h0c.07,.38,.14,.75,.18,1.12l.05,.41,.19,1.58,1.31-1.67h0s-.06-.5-.06-.5c-.04-.35-.1-.7-.17-1.04Zm-117.35,181.88c-2.66-2.1-4.35-5.1-4.75-8.44l-4.2-35.3h0s-.41-3.46-.41-3.46h0s-.8-6.66-.8-6.66v-.11s-.31-2.47-.31-2.47v-.13s-.57-4.74-.57-4.74l-.16-1.32-.08-.67-.11-.92-.13-1.07-.07-.61h0s-4.8-40.29-4.8-40.29v-.05s-.02-.1-.02-.1l-.53-4.45-.47-3.95-.47-3.96-.68-5.76-2.59-21.73-.95-7.94-1.52-.11,.94,7.93,.36,2.96v.09s2.28,19.06,2.28,19.06c-.25,.02-.5,.02-.76,0l-.49-.04-.27-.02,.51,4.3,.47,3.96,.64,.25,.65,4.03,.77,.3,2.12,17.82h0s4.46,27.94,4.46,27.94l.07,.43-1.13,.18,.15,1.26,.09,.73-1.49,.24,.07,.55,.17,1.43,1.78,14.92,.34,2.9,.31,2.55,3.85,32.38c.49,4.14,2.58,7.85,5.88,10.45,.19,.15,.39,.3,.59,.44l1.75-.64,1.88-.68c-.83-.4-1.63-.9-2.37-1.48Zm18.53,3.05l-6.19,2.25h.03l6.19-2.25h-.03Zm115.97-53.93l-.22-1.85h0s-.21-1.81-.21-1.81l-.04-.29-.18-1.51-.29-2.44-2.86-24.05-.21-1.8h0s-.22-1.81-.22-1.81l-3.57-29.97-.6-5.03-.45-3.83-.05-.35h0s-1.64-13.79-1.64-13.79l-.35-2.99-3.27-27.43-.14-1.22-.15-1.21-1.04-8.75c-.04-.33-.09-.66-.15-.98-.09-.48-.2-.95-.32-1.41-.13-.43-.27-.86-.43-1.28-.1-.27-.21-.54-.32-.8-.17-.38-.35-.74-.56-1.11h0c-.18-.36-.38-.71-.61-1.04-.92-1.44-2.1-2.73-3.49-3.83-1.38-1.1-2.91-1.93-4.53-2.5-.35-.12-.71-.23-1.07-.33-.36-.1-.73-.19-1.1-.25-1.58-.31-3.2-.37-4.83-.18l-27.18,3.24-2.92,.34-73.86,8.8-4.51,.53h-.04l-5.64,.68c-.61,.07-1.2,.18-1.79,.32h-.02c-3.41,.81-6.42,2.74-8.64,5.56-.76,.96-1.39,1.99-1.9,3.07h0c-.66,1.42-1.11,2.9-1.32,4.44h0c-.18,1.33-.2,2.67-.04,4.02l.63,5.33,.24,2.01,.25,2.03,.94,7.92,1.86,15.62v.02l.78,6.53,.51,4.3,.47,3.96,.47,3.96,5.56,46.67,.07,.56,.11,.99,.12,.99h0s.07,.56,.07,.56l.17,1.43,1.78,14.92,.34,2.9,.31,2.55,3.85,32.38c.49,4.14,2.58,7.85,5.88,10.45,.19,.15,.39,.3,.59,.44l1.75-.64,1.88-.68c-.83-.4-1.63-.9-2.37-1.48-2.66-2.1-4.35-5.1-4.75-8.44l-4.2-35.3h0s-.41-3.46-.41-3.46h0s-.8-6.66-.8-6.66v-.11s-.31-2.47-.31-2.47v-.13s-.57-4.74-.57-4.74l-.16-1.32-.08-.67-.11-.92-.13-1.07-.07-.61h0s-4.8-40.29-4.8-40.29v-.05s-.02-.1-.02-.1l-.53-4.45-.47-3.95-.47-3.96-.68-5.76-2.59-21.73-.95-7.94-.23-1.96v-.07s-.25-2.01-.25-2.01l-.7-5.91c-.82-6.93,4.15-13.25,11.09-14.07l9.07-1.08,1.81-.22h.01l1.58-.19h0l71.2-8.47,2.91-.35,27.55-3.28c.51-.06,1.01-.09,1.51-.09,.7,0,1.39,.06,2.07,.17,.37,.06,.74,.14,1.1,.23,.36,.1,.71,.21,1.07,.33,1.28,.46,2.47,1.13,3.58,2,1.41,1.11,2.54,2.47,3.36,4.01,.2,.37,.38,.75,.53,1.14,.18,.41,.32,.83,.44,1.26,.1,.3,.17,.6,.24,.91h0c.07,.38,.14,.75,.18,1.12l.05,.41,.19,1.58h0s.96,8.07,.96,8.07l.14,1.21,.15,1.22,3.08,25.86,.35,3,1.32,11.09,.5,4.18,4.76,40,.22,1.8,.21,1.81,2.43,20.4,.47,3.95v.04s.01,.01,.01,.01l.31,2.62,.15,1.27,.12,.96,.66,5.54,1.44-.52,1.45-.53-.5-4.19Z"/><path class="cls-1" d="M486.77,249.61c-.02,1.19-.64,2.27-1.62,2.89h0c-.21,.15-.43,.26-.68,.35l-2.63,.96-12.85,4.66h0s-1.45,.53-1.45,.53l-1.44,.53-108.21,39.29h-.03s-6.16,2.25-6.16,2.25h-.03l-6.19,2.25-47.28,17.17-1.6-3.13-.14-.26c-.03-.06-.06-.12-.09-.18-.05-.1-.11-.19-.17-.28-.03-.05-.07-.11-.11-.15-.03-.05-.07-.1-.11-.15-.02-.03-.04-.05-.07-.07,0-.03-.03-.05-.05-.07l-.06-.06s-.08-.09-.13-.13c-.04-.04-.08-.07-.12-.11-.02-.02-.04-.03-.06-.05h0s-.04-.04-.06-.05c-.03-.02-.07-.05-.11-.08-.05-.04-.1-.07-.16-.11-.02-.01-.04-.02-.06-.04-.12-.07-.25-.14-.39-.2-.02-.01-.04-.02-.07-.03-.02-.01-.03-.01-.05-.02l-.14-.05-.09-.03-.15-.06-.87-.36h.01s38.53-14,38.53-14l1.75-.64,1.88-.68,76.76-27.88,16.5-5.99,36.48-13.25,1.44-.52,1.45-.53,5.27-1.91,4.96-1.8,3.72-1.35c.81-.29,1.67-.27,2.43,.02,.1,.04,.2,.08,.29,.13,.08,.03,.15,.07,.22,.11,.08,.05,.16,.1,.24,.15,.08,.06,.15,.12,.23,.18,.06,.04,.12,.09,.17,.15,.21,.2,.4,.42,.56,.67l.08,.13c.31,.54,.48,1.16,.47,1.8Z"/></g><path class="cls-1" d="M344.04,138.49c-1,0-1.86-.75-1.98-1.76-.13-1.1,.65-2.09,1.75-2.22l71.75-8.54c1.09-.12,2.09,.65,2.22,1.75,.13,1.1-.65,2.09-1.75,2.22l-71.75,8.54c-.08,0-.16,.01-.24,.01Z"/><g><g><path class="cls-9" d="M350.36,234.65c-1,0-1.86-.75-1.98-1.76-.13-1.1,.65-2.09,1.75-2.22l82.85-9.86c1.09-.12,2.09,.65,2.22,1.75,.13,1.1-.65,2.09-1.75,2.22l-82.85,9.86c-.08,0-.16,.01-.24,.01Z"/><path class="cls-9" d="M351.63,245.28c-1,0-1.86-.75-1.98-1.76-.13-1.1,.65-2.09,1.75-2.22l82.85-9.86c1.09-.12,2.09,.65,2.22,1.75,.13,1.1-.65,2.09-1.75,2.22l-82.85,9.86c-.08,0-.16,.01-.24,.01Z"/><path class="cls-9" d="M352.89,255.91c-1,0-1.86-.75-1.98-1.76-.13-1.1,.65-2.09,1.75-2.22l82.85-9.86c1.09-.12,2.09,.65,2.22,1.75,.13,1.1-.65,2.09-1.75,2.22l-82.85,9.86c-.08,0-.16,.01-.24,.01Z"/><path class="cls-9" d="M354.16,266.55c-1,0-1.86-.75-1.98-1.76-.13-1.1,.65-2.09,1.75-2.22l82.85-9.86c1.09-.12,2.09,.65,2.22,1.75,.13,1.1-.65,2.09-1.75,2.22l-82.85,9.86c-.08,0-.16,.01-.24,.01Z"/><path class="cls-9" d="M428.76,265.63l-16.5,5.99-56.46,6.73c-.08,0-.16,.01-.24,.01-1,0-1.86-.75-1.98-1.76-.13-1.1,.65-2.1,1.75-2.23l73.43-8.74Z"/></g><rect class="cls-9" x="343.37" y="151.19" width="85.42" height="61.91" rx="5.96" ry="5.96" transform="translate(-18.82 46.92) rotate(-6.79)"/></g></g><g><path class="cls-1" d="M413.7,183.47c-.15-.22-.3-.45-.46-.67-3.22-4.61-7.69-8.15-12.76-10.35-4.94-2.13-10.46-2.99-15.99-2.31-11.33,1.4-21.08,9.06-24.95,19.59-.05,.15-.11,.29-.16,.43l-.15,.44,.25,.39c6.26,9.52,17.73,14.75,29.22,13.33,11.49-1.42,21.33-9.28,25.1-20.03l.16-.44-.26-.39Zm-18.08,2.3l-.57,.27-.28,.11c-1.48,.69-2.76,1.65-3.79,2.86-1.25,1.48-2.09,3.34-2.31,5.39l-.33,3.78c-.03,.46-.71,.58-.88,.11l-1.34-3.63c-.69-1.8-1.88-3.45-3.39-4.68-1.19-.96-2.59-1.71-4.08-2.04l-.4-.11-.54-.11c-.45-.09-.51-.72-.07-.88,.18-.04,.32-.09,.45-.16,3.43-1.49,5.8-4.82,6.25-8.52l.06-.26,.48-3.45c.07-.48,.75-.55,.88-.09l1.04,3.25,.09,.28c1.18,3.72,4.26,6.28,8.05,6.98,.21,.05,.37,.06,.56,.09,.22,.04,.37,.19,.39,.39,.02,.18-.08,.37-.27,.45Z"/><path class="cls-1" d="M360.96,192.07c-.27,0-.53-.08-.76-.26l-10.53-8.12c-.55-.42-.65-1.2-.23-1.75,.42-.54,1.21-.65,1.75-.23l10.53,8.12c.55,.42,.65,1.2,.23,1.75-.25,.32-.62,.49-.99,.49Z"/><path class="cls-1" d="M369.2,177.08c-.38,0-.75-.17-1-.5l-7.25-9.69c-.41-.55-.3-1.33,.25-1.75s1.33-.3,1.75,.25l7.25,9.69c.41,.55,.3,1.33-.25,1.75-.22,.17-.49,.25-.75,.25Z"/><path class="cls-1" d="M412.59,184.87c-.27,0-.54-.09-.77-.27-.54-.43-.63-1.21-.21-1.75l8.24-10.43c.43-.54,1.21-.63,1.75-.21,.54,.43,.63,1.21,.21,1.75l-8.24,10.43c-.25,.31-.61,.47-.98,.47Z"/><path class="cls-1" d="M400.33,174.08c-.16,0-.32-.03-.48-.1-.64-.27-.93-1-.67-1.63l4.68-11.17c.27-.63,1-.94,1.63-.67,.64,.27,.93,1,.67,1.63l-4.68,11.17c-.2,.48-.66,.77-1.15,.77Z"/><path class="cls-1" d="M384.52,171.38c-.62,0-1.16-.46-1.24-1.1l-1.53-12.38c-.08-.68,.4-1.31,1.09-1.39,.67-.08,1.31,.4,1.39,1.09l1.53,12.38c.08,.68-.4,1.31-1.09,1.39-.05,0-.1,0-.15,0Z"/></g></g><g><g><path class="cls-12" d="M543.22,202.57l-7.22-23.93,13.91-4.2c2.36-.71,4.86,.62,5.57,2.99l4.64,15.38c.71,2.36-.62,4.86-2.99,5.57l-13.91,4.2Z"/><path class="cls-1" d="M542.6,203.94c-.38-.17-.69-.5-.82-.93l-7.22-23.93c-.11-.38-.07-.79,.11-1.14,.19-.35,.51-.61,.89-.73l13.91-4.2c3.15-.95,6.49,.84,7.44,3.99l4.64,15.38c.95,3.15-.84,6.49-3.99,7.44l-13.91,4.2c-.36,.11-.73,.07-1.05-.07Zm-4.73-24.3l6.36,21.06,12.48-3.77c1.57-.47,2.46-2.13,1.98-3.7l-4.64-15.38c-.47-1.56-2.13-2.46-3.7-1.98l-12.48,3.76Z"/></g><rect class="cls-9" x="454.61" y="191.68" width="80" height="25" transform="translate(-37.9 151.59) rotate(-16.79)"/><g><path class="cls-1" d="M437.85,216.83l2.3,7.63,16.45,2.59-6.32-20.94-12.43,10.72Z"/><path class="cls-1" d="M537.95,204.16l-7.22-23.93c-.12-.39-.38-.71-.73-.89-.35-.19-.76-.23-1.14-.12l-76.59,23.11c-.55,.17-1.88,1.04-2.14,1.26l-14.09,12.15c-.3,.26-.42,.67-.3,1.04l2.67,8.86c.08,.28,.29,.5,.54,.62,.09,.04,.17,.06,.26,.08l18.64,2.93c.34,.05,2.16-.02,2.51-.13l76.59-23.11c.79-.24,1.24-1.08,1-1.87Zm-77.02,21.67l-6.36-21.06,73.72-22.24,6.35,21.06-73.71,22.24Z"/></g><g><path class="cls-9" d="M430.91,221.48l5.79-4.98,2.67,8.86-7.7-1.21c-1.29-.2-1.75-1.82-.76-2.67Z"/><path class="cls-9" d="M430.85,224.94c-.66-.3-1.17-.88-1.37-1.61-.27-.96,.03-1.96,.78-2.61h0s6.95-5.99,6.95-5.99l3.58,11.85-9.27-1.45c-.24-.04-.46-.1-.66-.2Zm.71-2.7h0c-.23,.2-.19,.45-.16,.54,.03,.1,.13,.33,.42,.38l6.13,.96-1.77-5.86-4.62,3.98Z"/></g></g><g><rect class="cls-1" x="422.12" y="100.36" width="2.99" height="95.36" transform="translate(35.46 373.2) rotate(-49.38)"/><path class="cls-1" d="M416.91,81.89c-13.69,21.92-10.45,49.13,7.7,64.7,17.97,15.42,45.19,14.61,64.73-1.91l1.93,2.28c-20.66,17.47-49.51,18.27-68.6,1.89-9.36-8.03-15.31-19.42-16.76-32.07-1.43-12.48,1.58-25.44,8.47-36.48l2.54,1.58Z"/><g><path class="cls-12" d="M486.25,94.13l14.3-16.67c.71-.82,.61-2.07-.21-2.77l-15.75-13.51c-.82-.71-2.07-.61-2.77,.21l-14.3,16.67,18.73,16.07Z"/><path class="cls-1" d="M485.32,60.33l15.75,13.51c1.29,1.11,1.44,3.06,.33,4.36l-15.03,17.53-20.44-17.53,15.03-17.53c1.11-1.29,3.06-1.44,4.36-.33Zm.81,32.22l13.57-15.82c.3-.35,.26-.89-.09-1.19l-15.75-13.51c-.35-.3-.89-.26-1.19,.09l-13.57,15.82,17.03,14.61Z"/></g><g><path class="cls-9" d="M444.88,100.26l19.1-18.44,18.73,16.07-14.86,21.8c-1.1,1.61-2.57,2.93-4.3,3.84l-30.71,16.18c-.17,.09-.34-.12-.22-.27l21.7-25.3c1.73,.72,3.81,.28,5.1-1.23,1.29-1.5,1.41-3.63,.44-5.23-.24-.4-.55-.78-.92-1.1-.42-.36-.89-.63-1.39-.81-1.7-.62-3.69-.17-4.94,1.29s-1.4,3.49-.52,5.08l-21.71,25.31c-.13,.15-.37,0-.3-.18l11.88-32.52c.62-1.7,1.62-3.24,2.92-4.49Z"/><path class="cls-1" d="M463.93,80.3l20.27,17.39-15.43,22.63c-1.2,1.76-2.82,3.21-4.7,4.2l-30.71,16.18c-.55,.29-1.23,.15-1.62-.34-.39-.49-.38-1.18,.03-1.65l22.23-25.92,.75,.31c1.34,.55,2.88,.18,3.82-.92,.95-1.11,1.08-2.68,.33-3.92-.4-.68-1.04-1.19-1.72-1.42-1.33-.48-2.81-.1-3.72,.96-.91,1.06-1.06,2.59-.39,3.81l.38,.68-22.22,25.9c-.41,.48-1.1,.59-1.64,.28-.55-.32-.78-.97-.57-1.56l11.88-32.52c.67-1.85,1.78-3.55,3.2-4.91l19.83-19.15Zm17.29,17.78l-17.2-14.75-18.36,17.73c-1.17,1.13-2.09,2.54-2.65,4.07l-10.09,27.62,17.85-20.81c-.71-1.89-.35-4.06,.99-5.62,1.51-1.76,3.99-2.41,6.18-1.61,1.15,.4,2.23,1.27,2.89,2.38,1.25,2.06,1.03,4.69-.55,6.54-1.4,1.63-3.56,2.3-5.59,1.8l-17.99,20.97,26.33-13.87c1.56-.82,2.9-2.02,3.9-3.48l14.29-20.96Z"/></g><circle class="cls-9" cx="459.81" cy="179.08" r="5.24"/><circle class="cls-9" cx="387.43" cy="116.99" r="5.24"/><rect class="cls-9" x="418.24" y="142.68" width="10.47" height="10.47" transform="translate(648.61 535.89) rotate(-139.38)"/><rect class="cls-5" x="482.73" y="141.01" width="10.47" height="10.47" transform="translate(763.14 574.95) rotate(-139.38)"/><rect class="cls-5" x="410.35" y="78.93" width="10.47" height="10.47" transform="translate(676.24 418.61) rotate(-139.38)"/></g></g></g></svg>