<svg width="600" height="510" viewBox="0 0 600 510" fill="none" xmlns="http://www.w3.org/2000/svg">
<path d="M478.36 203.621L473.4 205.421L468.13 207.331L466.68 207.861L465.24 208.381L428.76 221.631L412.26 227.621L335.5 255.501L333.62 256.181L331.87 256.821L293.34 270.811H293.33L294.2 271.181L294.35 271.241L294.44 271.271L294.58 271.321C294.58 271.321 294.61 271.331 294.63 271.341C294.66 271.351 294.68 271.361 294.7 271.371C294.84 271.431 294.97 271.501 295.09 271.571C295.11 271.591 295.13 271.601 295.15 271.611C295.21 271.651 295.26 271.681 295.31 271.721C295.35 271.751 295.39 271.781 295.42 271.801C295.44 271.811 295.46 271.831 295.48 271.841C295.48 271.841 295.52 271.881 295.54 271.901C295.58 271.941 295.62 271.971 295.66 272.011C295.71 272.051 295.75 272.091 295.79 272.141L295.85 272.201C295.85 272.201 295.89 272.241 295.9 272.271C295.93 272.291 295.95 272.311 295.97 272.341C296.01 272.391 296.05 272.441 296.08 272.491C296.12 272.531 296.16 272.591 296.19 272.641C296.25 272.731 296.31 272.821 296.36 272.921C296.39 272.981 296.42 273.041 296.45 273.101L296.59 273.361H296.56L296.55 273.371L293.27 274.561L290.03 273.251H290.02L290.04 273.211C290.04 273.211 290.05 273.181 290.06 273.161C290.09 273.081 290.13 273.011 290.17 272.941C290.2 272.871 290.24 272.801 290.29 272.731C290.31 272.691 290.33 272.651 290.36 272.621C290.39 272.561 290.43 272.511 290.47 272.461C290.5 272.411 290.54 272.371 290.57 272.331C290.66 272.231 290.75 272.131 290.85 272.031C290.9 271.981 290.96 271.931 291.02 271.881C291.05 271.851 291.08 271.831 291.11 271.811C291.19 271.741 291.28 271.681 291.37 271.621C291.4 271.601 291.43 271.581 291.47 271.561C291.55 271.511 291.64 271.461 291.73 271.421C291.74 271.411 291.75 271.411 291.75 271.411C291.81 271.381 291.87 271.351 291.93 271.331L292.08 271.271L292.17 271.241L293.32 270.821L277.91 264.581L256.4 255.871L254.59 255.141L206.15 235.541L202.57 234.091H202.56L199.42 232.811L198.97 232.631L192.3 233.701H192.29L156.41 219.181L152.83 217.731H152.82L149.25 216.271H149.23L120.29 204.561L125.02 202.701H125.03L143.04 195.641H143.06L148.14 193.611H148.2L153.35 191.591L178.74 181.631L182.04 180.331H182.05L185.34 179.031H185.36L189.69 177.311H189.75L193.89 175.691L216.14 166.961L217.45 166.441L219.36 165.701L220.42 165.281L221.25 164.951L221.83 164.721L226.3 162.961H226.32L230.6 161.281L249.95 153.691L271.85 145.101L277.13 143.031L296.02 135.621C296.67 135.361 297.34 135.161 298.02 135.011H298.06C300.86 134.351 303.8 134.561 306.51 135.631L312.55 138.021L313.19 138.271L314.14 138.651L315.35 139.131L315.72 139.281L317.52 139.981L325.68 143.211L327.17 143.801L328.67 144.401L344.56 150.691L390.37 168.811L415.75 178.851L423.55 181.951H423.57L443.24 189.721L444.17 190.091L445.1 190.461L454.78 194.291H454.79L456.83 195.101L457.84 195.501L458.86 195.911H458.87L460.89 196.711L463.92 197.911H463.93L463.98 197.941L465.57 198.561L465.84 198.671L467.15 199.191L467.4 199.291L468.97 199.911L478.35 203.621H478.36Z" fill="#05183C"/>
<path d="M155.93 215.2H155.9L159.48 216.66L155.93 215.2ZM198.98 232.63L163.09 218.11H163.07L159.5 216.66H159.48L156.4 217.15L152.8 217.72H152.81L156.39 219.18L192.27 233.7H192.28L198.95 232.63L199.4 232.81L198.97 232.63H198.98ZM254.6 255.13L206.15 235.53L202.58 234.08H202.57L199.41 232.81L202.55 234.09H202.56L206.14 235.54L254.58 255.14L256.39 255.87L254.6 255.13ZM226.32 162.96H226.3L221.83 164.72L221.25 164.95L220.42 165.28L219.36 165.7L217.45 166.44V167.06L217.52 169.83V170.18L218.26 169.89L219.43 169.43L221.34 168.68L224.17 167.57L228.45 165.89L234.35 163.58L226.33 162.96H226.32ZM254.6 255.13L206.15 235.53L202.58 234.08H202.57L199.41 232.81L202.55 234.09H202.56L206.14 235.54L254.58 255.14L256.39 255.87L254.6 255.13ZM254.6 255.13L206.15 235.53L202.58 234.08H202.57L199.41 232.81L202.55 234.09H202.56L206.14 235.54L254.58 255.14L256.39 255.87L254.6 255.13ZM277.93 264.57L256.4 255.87L277.91 264.58L293.32 270.82H293.34L277.93 264.57ZM471.94 197.32L470.37 196.7L468.81 196.08L466.69 195.24L465.11 194.61L463.52 193.99L458.9 192.16L455.85 190.95L453.82 190.15L452.8 189.74L451.79 189.34H451.78L449.74 188.53L446.57 187.28L444.71 186.54L430.91 181.07H430.89L423.07 177.98L397.69 167.94L344.09 146.73L328.93 140.73L327.44 140.14L325.94 139.55L316.87 135.96L315.25 135.32L314.71 135.1L313.67 134.69L312.55 134.25L312.08 134.06L307.8 132.37C303.59 130.72 298.96 130.71 294.74 132.36L289.63 134.36H289.59L277.44 139.15L272.14 141.22L245.99 151.48L232.77 156.67L228.48 158.35L222.57 160.67L221.18 161.21L219.27 161.96L218.29 162.35L217.37 162.71L201.93 168.78H201.9L197.61 170.46L195.75 171.19L179.82 177.47H179.75L177.24 178.45L173.93 179.75L170.63 181.05L143.25 191.79L138.09 193.81H138.02L132.93 195.83H132.91L119 201.3C118.98 201.31 118.96 201.32 118.94 201.33C118.62 201.46 118.31 201.65 118.03 201.89C117.92 201.97 117.81 202.07 117.72 202.18C117.6 202.3 117.5 202.44 117.4 202.58C117.34 202.65 117.3 202.72 117.26 202.8C116.96 203.31 116.78 203.91 116.78 204.54C116.77 205.82 117.47 206.99 118.57 207.6C118.7 207.68 118.83 207.74 118.97 207.8L121.82 208.96L142.53 217.34H142.55L146.12 218.79H146.14L149.72 220.24H149.74L185.61 234.76L192.29 233.7H192.3L198.97 232.63L199.42 232.81L198.99 232.63L163.1 218.11H163.08L159.51 216.66H159.49L155.94 215.2H155.91L129.74 204.61L153.13 195.44H153.19L158.21 193.42H158.28L163.44 191.39L186.83 182.22H186.85L193.45 179.62L213.97 171.57L217.53 170.18L218.26 169.89L219.43 169.43L221.34 168.68L224.17 167.57L228.45 165.89L234.35 163.58L236.36 162.79L245.75 159.1L249.08 157.78H249.12L257.96 154.31H257.97L271.56 148.98L276.85 146.91L297.31 138.88C299.34 138.08 301.54 137.92 303.64 138.4C304.18 138.52 304.71 138.68 305.23 138.89L313.03 141.98L313.85 142.3L314.62 142.6L316 143.15H316.01L316.2 143.23L318.17 144.01L325.42 146.88L326.92 147.47L328.41 148.06L345.04 154.64L383.06 169.68L408.45 179.72L416.25 182.82H416.27L429.39 188.01L436.05 190.64L441.78 192.91L442.71 193.28L443.64 193.64L459.83 200.05H459.84L461.88 200.86L462.89 201.26L463.91 201.66L464.47 201.88L466.03 202.5H466.06L467.64 203.14L473.41 205.42L478.37 203.62L482.09 202.27C482.9 201.98 483.76 202 484.52 202.29L471.95 197.32H471.94ZM296.59 273.36L296.45 273.1C296.42 273.04 296.39 272.98 296.36 272.92C296.31 272.82 296.25 272.73 296.19 272.64C296.16 272.59 296.12 272.53 296.08 272.49C296.05 272.44 296.01 272.39 295.97 272.34C295.95 272.31 295.93 272.29 295.9 272.27C295.9 272.24 295.87 272.22 295.85 272.2L295.79 272.14C295.79 272.14 295.71 272.05 295.66 272.01C295.62 271.97 295.58 271.94 295.54 271.9C295.52 271.88 295.5 271.87 295.48 271.85C295.48 271.85 295.44 271.81 295.42 271.8C295.39 271.78 295.35 271.75 295.31 271.72C295.26 271.68 295.21 271.65 295.15 271.61C295.13 271.6 295.11 271.59 295.09 271.57C294.97 271.5 294.84 271.43 294.7 271.37C294.68 271.36 294.66 271.35 294.63 271.34C294.61 271.33 294.6 271.33 294.58 271.32L294.44 271.27L294.35 271.24L294.2 271.18L293.33 270.82H293.34L277.93 264.57L256.4 255.87L277.91 264.58L293.32 270.82L292.17 271.24L292.08 271.27L291.93 271.33C291.87 271.35 291.81 271.38 291.75 271.41C291.75 271.41 291.74 271.41 291.73 271.42C291.64 271.46 291.55 271.51 291.47 271.56C291.43 271.58 291.4 271.6 291.37 271.62C291.28 271.68 291.19 271.74 291.11 271.81C291.08 271.83 291.05 271.85 291.02 271.88C290.96 271.93 290.9 271.98 290.85 272.03C290.75 272.13 290.66 272.23 290.57 272.33C290.54 272.37 290.5 272.41 290.47 272.46C290.43 272.51 290.39 272.56 290.36 272.62C290.33 272.65 290.31 272.69 290.29 272.73C290.24 272.8 290.2 272.87 290.17 272.94C290.13 273.01 290.09 273.08 290.06 273.16C290.05 273.18 290.04 273.2 290.04 273.21L290.02 273.25C290.02 273.25 290.01 273.27 290.01 273.28C290 273.3 289.99 273.32 289.99 273.34L288.63 276.45L289.76 276.91L290.74 277.31L291.87 277.77L291.95 277.8C292.37 277.98 292.8 278.06 293.25 278.06H293.26C293.66 278.06 294.07 277.99 294.45 277.85L294.87 277.7L295.87 277.33L296.75 277.01L298.18 276.5L296.58 273.36H296.59ZM254.6 255.13L206.15 235.53L202.58 234.08H202.57L199.41 232.81L202.55 234.09H202.56L206.14 235.54L254.58 255.14L256.39 255.87L254.6 255.13ZM226.32 162.96H226.3L221.83 164.72L221.25 164.95L220.42 165.28L219.36 165.7L217.45 166.44V167.06L217.52 169.83V170.18L218.26 169.89L219.43 169.43L221.34 168.68L224.17 167.57L228.45 165.89L234.35 163.58L226.33 162.96H226.32ZM155.93 215.2H155.9L159.48 216.66L155.93 215.2ZM198.98 232.63L163.09 218.11H163.07L159.5 216.66H159.48L156.4 217.15L152.8 217.72H152.81L156.39 219.18L192.27 233.7H192.28L198.95 232.63L199.4 232.81L198.97 232.63H198.98ZM254.6 255.13L206.15 235.53L202.58 234.08H202.57L199.41 232.81L202.55 234.09H202.56L206.14 235.54L254.58 255.14L256.39 255.87L254.6 255.13Z" fill="white"/>
<path d="M293.27 274.561L292.77 506.091C291.09 506.051 289.41 505.721 287.82 505.081L131.66 442.621C126.28 440.461 122.73 435.281 122.67 429.481L121.1 282.191L254.52 335.931C260.22 338.231 266.73 335.571 269.18 329.921L293.27 274.561Z" fill="#1A3C7D"/>
<path d="M296.75 274.22C296.75 274.13 296.73 274.04 296.72 273.95C296.7 273.85 296.68 273.76 296.65 273.66C296.63 273.57 296.6 273.47 296.56 273.38L296.55 273.37C296.54 273.33 296.53 273.28 296.51 273.24C296.49 273.19 296.47 273.14 296.45 273.1C296.42 273.04 296.39 272.98 296.36 272.92C296.31 272.82 296.25 272.73 296.19 272.64C296.16 272.59 296.12 272.53 296.08 272.49C296.05 272.44 296.01 272.39 295.97 272.34C295.95 272.31 295.93 272.29 295.9 272.27C295.9 272.24 295.87 272.22 295.85 272.2L295.79 272.14C295.79 272.14 295.71 272.05 295.66 272.01C295.62 271.97 295.58 271.94 295.54 271.9C295.52 271.88 295.5 271.87 295.48 271.85C295.48 271.85 295.44 271.81 295.42 271.8C295.39 271.78 295.35 271.75 295.31 271.72C295.26 271.68 295.21 271.65 295.15 271.61C295.13 271.6 295.11 271.59 295.09 271.57C294.97 271.5 294.84 271.43 294.7 271.37C294.68 271.36 294.66 271.35 294.63 271.34C294.61 271.33 294.6 271.33 294.58 271.32L294.44 271.27L294.35 271.24L294.2 271.18C294.13 271.16 294.06 271.14 293.99 271.13C293.94 271.12 293.9 271.11 293.85 271.11C293.57 271.06 293.28 271.05 292.99 271.07C292.91 271.08 292.84 271.09 292.77 271.1C292.75 271.1 292.72 271.1 292.7 271.11C292.62 271.12 292.53 271.14 292.45 271.16C292.36 271.18 292.26 271.21 292.17 271.24L292.08 271.27L291.93 271.33C291.87 271.35 291.81 271.38 291.75 271.41C291.75 271.41 291.74 271.41 291.73 271.42C291.64 271.46 291.55 271.51 291.47 271.56C291.43 271.58 291.4 271.6 291.37 271.62C291.28 271.68 291.19 271.74 291.11 271.81C291.08 271.83 291.05 271.85 291.02 271.88C290.96 271.93 290.9 271.98 290.85 272.03C290.75 272.13 290.66 272.23 290.57 272.33C290.54 272.37 290.5 272.41 290.47 272.46C290.43 272.51 290.39 272.56 290.36 272.62C290.33 272.65 290.31 272.69 290.29 272.73C290.24 272.8 290.2 272.87 290.17 272.94C290.13 273.01 290.09 273.08 290.06 273.16C290.05 273.18 290.04 273.2 290.04 273.21L290.02 273.25C290.02 273.25 290.01 273.27 290.01 273.28C290 273.3 289.99 273.32 289.99 273.34L288.63 276.45L265.97 328.53C264.29 332.4 259.74 334.26 255.83 332.68L122.33 278.91C121.26 278.52 120.07 278.66 119.13 279.3C118.55 279.69 118.11 280.25 117.86 280.88C117.68 281.31 117.6 281.76 117.6 282.23L117.62 284.57L119.17 429.52C119.24 436.75 123.64 443.17 130.36 445.87L286.51 508.33C288.45 509.1 290.51 509.53 292.64 509.59H292.77C293.68 509.59 294.56 509.23 295.21 508.6C295.89 507.94 296.27 507.04 296.27 506.1V502.14L296.74 289.03L296.76 281.38V274.57C296.76 274.57 296.77 274.56 296.77 274.55C296.77 274.44 296.76 274.33 296.75 274.22ZM124.66 287.41V287.39L253.21 339.18C255.06 339.92 256.96 340.28 258.83 340.28C259.22 340.28 259.61 340.26 260 340.23C260.62 340.18 261.23 340.1 261.83 339.96C262.92 339.74 263.99 339.39 264.99 338.92C265.23 338.81 265.47 338.7 265.7 338.57C265.87 338.48 266.03 338.39 266.19 338.3C266.41 338.17 266.63 338.04 266.84 337.9C269.21 336.36 271.17 334.12 272.39 331.32L289.73 291.47L289.28 501.89C289.23 501.87 289.17 501.85 289.12 501.83L132.96 439.37C128.88 437.73 126.22 433.84 126.17 429.44L124.66 287.41Z" fill="white"/>
<path d="M483.75 430.841C483.76 436.951 479.89 442.401 474.11 444.401L297.81 505.321C296.18 505.881 294.47 506.141 292.77 506.091L293.27 274.561L322.18 331.081C324.8 336.201 330.84 338.561 336.23 336.561L483.43 282.111L483.75 430.841Z" fill="#06296B"/>
<path d="M486.94 284.55V282.1C486.93 281.68 486.86 281.28 486.71 280.9C486.47 280.23 486.03 279.65 485.43 279.24C484.58 278.64 483.51 278.46 482.52 278.73L335.01 333.28C331.29 334.66 327.11 333.03 325.3 329.49L298.19 276.5L296.59 273.36L296.45 273.1C296.42 273.04 296.39 272.98 296.36 272.92C296.31 272.82 296.25 272.73 296.19 272.64C296.16 272.59 296.12 272.53 296.08 272.49C296.05 272.44 296.01 272.39 295.97 272.34C295.95 272.31 295.93 272.29 295.9 272.27C295.9 272.24 295.87 272.22 295.85 272.2L295.79 272.14C295.79 272.14 295.71 272.05 295.66 272.01C295.62 271.97 295.58 271.94 295.54 271.9C295.52 271.88 295.5 271.87 295.48 271.85C295.48 271.85 295.44 271.81 295.42 271.8C295.39 271.78 295.35 271.75 295.31 271.72C295.26 271.68 295.21 271.65 295.15 271.61C295.13 271.6 295.11 271.59 295.09 271.57C294.97 271.5 294.84 271.43 294.7 271.37C294.68 271.36 294.66 271.35 294.63 271.34C294.61 271.33 294.6 271.33 294.58 271.32L294.44 271.27L294.35 271.24L294.2 271.18C294.09 271.15 293.97 271.13 293.85 271.11C293.57 271.06 293.28 271.05 292.99 271.07C292.91 271.08 292.84 271.09 292.77 271.1C292.75 271.1 292.72 271.1 292.7 271.11C292.62 271.12 292.53 271.14 292.45 271.16C292.36 271.18 292.26 271.21 292.17 271.24L292.08 271.27L291.93 271.33C291.87 271.35 291.81 271.38 291.75 271.41C291.75 271.41 291.74 271.41 291.73 271.42C291.64 271.46 291.55 271.51 291.47 271.56C291.43 271.58 291.4 271.6 291.37 271.62C291.28 271.68 291.19 271.74 291.11 271.81C291.08 271.83 291.05 271.85 291.02 271.88C290.96 271.93 290.9 271.98 290.85 272.03C290.75 272.13 290.66 272.23 290.57 272.33C290.54 272.37 290.5 272.41 290.47 272.46C290.43 272.51 290.39 272.56 290.36 272.62C290.33 272.65 290.31 272.69 290.29 272.73C290.24 272.8 290.2 272.87 290.17 272.94C290.13 273.01 290.09 273.08 290.06 273.16C290.05 273.18 290.04 273.2 290.04 273.21C290.03 273.23 290.03 273.24 290.03 273.25H290.02C290.02 273.25 290.01 273.27 290.01 273.28C290 273.3 289.99 273.32 289.99 273.34C289.96 273.42 289.93 273.51 289.91 273.59C289.88 273.69 289.85 273.8 289.83 273.9C289.83 273.92 289.83 273.94 289.82 273.96C289.79 274.15 289.77 274.35 289.77 274.55L289.76 276.91V282.63L289.75 282.65L289.73 291.45V291.47L289.28 501.89V505.57L289.27 506.08C289.27 507.97 290.75 509.51 292.64 509.59H292.77C292.91 509.59 293.04 509.6 293.19 509.6C295.15 509.6 297.08 509.27 298.95 508.63L475.25 447.71C482.43 445.22 487.25 438.45 487.25 430.85V430.83L486.94 284.55ZM296.28 502.14L296.74 289.03L319.06 332.67C319.39 333.31 319.75 333.91 320.16 334.48C320.76 335.34 321.44 336.11 322.19 336.81C324.94 339.35 328.56 340.77 332.3 340.77C334.01 340.77 335.75 340.47 337.44 339.84L479.94 287.13L480.25 430.85C480.26 435.47 477.33 439.58 472.97 441.09L296.67 502.01C296.54 502.06 296.41 502.1 296.28 502.14Z" fill="white"/>
<path d="M243.03 258.001H243.01L264.54 266.711L243.03 258.001ZM290.03 273.251H290.02C290.02 273.251 290.01 273.271 290.01 273.281C290 273.301 289.99 273.321 289.99 273.341L288.63 276.451L264.55 266.711L288.63 276.461L265.97 328.531C264.29 332.401 259.74 334.261 255.83 332.681L122.33 278.911L98.0899 269.151C95.9899 268.311 94.3599 266.591 93.6099 264.461C92.8599 262.321 93.0699 259.971 94.1799 258.001L108.5 232.581V232.651C109.29 237.521 111.92 241.761 115.92 244.601C119.06 246.831 122.78 247.991 126.62 247.991C127.63 247.991 128.64 247.911 129.66 247.751L192.77 237.671L189.2 236.221H189.19L185.6 234.761L192.28 233.701L156.4 219.181L152.82 217.731H152.81L149.24 216.271H149.22L120.28 204.561L118.57 207.601L110.78 221.411L110.17 222.511L109.21 224.221L107.66 226.961L107.62 227.031L91.1399 256.281C87.7699 262.261 90.4299 269.831 96.7899 272.401L117.87 280.881L121.11 282.191L254.53 335.931C260.23 338.231 266.74 335.571 269.19 329.921L289.76 282.651V282.631L291.47 278.711L291.63 278.361L291.89 277.771L293.28 274.561L290.04 273.251H290.03ZM243.03 258.001H243.01L264.54 266.711L243.03 258.001Z" fill="#1A3C7D"/>
<path d="M192.28 233.7L156.4 219.18L152.82 217.73L149.43 218.27L147.86 218.52L146.14 218.79L149.7 220.25H149.71L185.6 234.77L189.2 236.22L185.61 234.76L192.29 233.7H192.28ZM243.03 258H243.01L264.54 266.71L243.03 258ZM243.03 258H243.01L264.54 266.71L243.03 258ZM243.03 258H243.01L264.54 266.71L243.03 258ZM296.75 274.22C296.75 274.13 296.73 274.04 296.72 273.95C296.7 273.85 296.68 273.76 296.65 273.66C296.63 273.57 296.6 273.47 296.56 273.38C296.55 273.33 296.53 273.28 296.51 273.24C296.49 273.19 296.47 273.14 296.45 273.1C296.42 273.04 296.39 272.98 296.36 272.92C296.31 272.82 296.25 272.73 296.19 272.64C296.16 272.59 296.12 272.53 296.08 272.49C296.05 272.44 296.01 272.39 295.97 272.34C295.95 272.31 295.93 272.29 295.9 272.27C295.9 272.24 295.87 272.22 295.85 272.2L295.79 272.14C295.79 272.14 295.71 272.05 295.66 272.01C295.62 271.97 295.58 271.94 295.54 271.9C295.52 271.88 295.5 271.87 295.48 271.85C295.46 271.83 295.44 271.82 295.42 271.8C295.39 271.78 295.35 271.75 295.31 271.72C295.26 271.68 295.21 271.65 295.15 271.61C295.13 271.6 295.11 271.59 295.09 271.57C294.97 271.5 294.84 271.43 294.7 271.37C294.68 271.36 294.66 271.35 294.63 271.34C294.61 271.33 294.6 271.33 294.58 271.32L294.44 271.27L294.35 271.24L294.2 271.18L293.33 270.82H293.32L292.17 271.24L292.08 271.27L291.93 271.33C291.87 271.35 291.81 271.38 291.75 271.41C291.75 271.41 291.74 271.41 291.73 271.42C291.64 271.46 291.55 271.51 291.47 271.56C291.43 271.58 291.4 271.6 291.37 271.62C291.28 271.68 291.19 271.74 291.11 271.81C291.08 271.83 291.05 271.85 291.02 271.88C290.96 271.93 290.9 271.98 290.85 272.03C290.75 272.13 290.66 272.23 290.57 272.33C290.54 272.37 290.5 272.41 290.47 272.46C290.43 272.51 290.39 272.56 290.36 272.62C290.33 272.65 290.31 272.69 290.29 272.73C290.24 272.8 290.2 272.87 290.17 272.94C290.13 273.01 290.09 273.08 290.06 273.16C290.05 273.18 290.04 273.2 290.04 273.21L290.02 273.25C290.02 273.25 290.01 273.27 290.01 273.28C290 273.3 289.99 273.32 289.99 273.34L288.63 276.45L264.55 266.71L288.63 276.46L265.97 328.53C264.29 332.4 259.74 334.26 255.83 332.68L122.33 278.91L98.0899 269.15C95.9899 268.31 94.3599 266.59 93.6099 264.46C92.8599 262.32 93.0699 259.97 94.1799 258L108.5 232.58L110.08 229.78L111.65 226.99L112.06 226.26L113.32 224.03L114.57 221.81L121.81 208.96L142.52 217.34H142.54L146.11 218.79H146.13L149.69 220.25H149.7L185.59 234.77L189.19 236.22L185.6 234.76L192.28 233.7H192.29L198.96 232.63L163.09 218.11H163.07L159.5 216.66H159.48L155.9 215.21L129.73 204.61L125.01 202.7H125L121.58 201.32C120.71 200.96 119.76 200.98 118.93 201.32C118.61 201.45 118.3 201.64 118.02 201.88C117.91 201.96 117.8 202.06 117.71 202.17C117.59 202.29 117.49 202.43 117.39 202.57C117.33 202.64 117.29 202.71 117.25 202.79C117.24 202.8 117.23 202.82 117.22 202.83L109.89 215.85L108.31 218.65L106.73 221.45L88.0799 254.55C85.9799 258.28 85.5899 262.72 86.9999 266.76C88.4099 270.8 91.4999 274.03 95.4699 275.64L117.62 284.56L124.66 287.4L253.21 339.17C255.06 339.91 256.96 340.27 258.83 340.27C259.22 340.27 259.61 340.25 260 340.22C260.62 340.17 261.23 340.09 261.83 339.95C262.92 339.73 263.99 339.38 264.99 338.91C265.23 338.8 265.47 338.69 265.7 338.56C265.87 338.47 266.03 338.38 266.19 338.29C266.41 338.16 266.63 338.03 266.84 337.89C269.21 336.35 271.17 334.11 272.39 331.31L289.73 291.46V291.44L293.25 283.37L293.53 282.74L295.33 278.58L295.88 277.32L296.48 275.95C296.68 275.5 296.77 275.04 296.77 274.56V274.54C296.77 274.43 296.76 274.32 296.75 274.21V274.22ZM243.03 258H243.01L264.54 266.71L243.03 258ZM197.08 239.42L241.21 257.27L197.08 239.41V239.42ZM243.03 258.01H243.01L264.54 266.72L243.03 258.01ZM243.03 258.01H243.01L264.54 266.72L243.03 258.01ZM243.03 258.01H243.01L264.54 266.72L243.03 258.01ZM243.03 258.01H243.01L264.54 266.72L243.03 258.01ZM192.28 233.71L156.4 219.19L152.82 217.74L149.43 218.28L147.86 218.53L146.14 218.8L149.7 220.26H149.71L185.6 234.78L189.2 236.23L185.61 234.77L192.29 233.71H192.28Z" fill="white"/>
<path d="M293.32 270.82L292.17 271.24L292.08 271.27L291.93 271.33C291.87 271.35 291.81 271.38 291.75 271.41C291.75 271.41 291.74 271.41 291.73 271.42C291.64 271.46 291.55 271.51 291.47 271.56C291.43 271.58 291.4 271.6 291.37 271.62C291.28 271.68 291.19 271.74 291.11 271.81C291.08 271.83 291.05 271.85 291.02 271.88C290.96 271.93 290.9 271.98 290.85 272.03C290.75 272.13 290.66 272.23 290.57 272.33C290.54 272.37 290.5 272.41 290.47 272.46C290.43 272.51 290.39 272.56 290.36 272.62C290.33 272.65 290.31 272.69 290.29 272.73C290.24 272.8 290.2 272.87 290.17 272.94C290.13 273.01 290.09 273.08 290.06 273.16C290.05 273.18 290.04 273.2 290.04 273.21L290.02 273.25C290.02 273.25 290.01 273.27 290.01 273.28C290 273.3 289.99 273.32 289.99 273.34L288.63 276.45L264.55 266.71H264.54L243.03 258H243.01L241.22 257.27H241.21L197.08 239.41L192.78 237.67H192.77L189.2 236.22H189.19L185.6 234.76L192.28 233.7H192.29L198.96 232.63L199.41 232.81L202.55 234.09H202.56L206.14 235.54L254.58 255.14L256.39 255.87L277.9 264.58L293.31 270.82H293.32Z" fill="white"/>
<path d="M288.63 276.46L265.97 328.53C264.29 332.4 259.74 334.26 255.83 332.68L122.33 278.91L98.0901 269.15C95.9901 268.31 94.3601 266.59 93.6101 264.46C92.8601 262.32 93.0701 259.97 94.1801 258L108.5 232.58V232.65C109.29 237.52 111.92 241.76 115.92 244.6C119.06 246.83 122.78 247.99 126.62 247.99C127.63 247.99 128.64 247.91 129.66 247.75L192.77 237.67H192.78L197.08 239.41L241.21 257.27H241.22L243.01 258L264.54 266.71H264.55L288.63 276.46Z" fill="#1A3C7D"/>
<path d="M513.07 264.291C512.31 266.561 510.59 268.331 508.35 269.171L482.52 278.731L335.01 333.281C331.29 334.661 327.11 333.031 325.3 329.491L298.19 276.501L345.5 259.321L351.69 257.071L357.85 254.831H357.88L466.09 215.531L467.53 215.001L468.98 214.481L481.83 209.811L512.25 257.561C513.53 259.571 513.83 262.031 513.07 264.291Z" fill="#06296B"/>
<path d="M509.56 272.451L486.71 280.901L483.43 282.111L336.23 336.561C330.84 338.561 324.8 336.201 322.18 331.081L296.76 281.381L295.33 278.591L294.88 277.701L293.27 274.561L296.55 273.371H296.59L298.19 276.491L345.47 259.321L351.66 257.071H351.69L345.5 259.321L298.19 276.501L325.3 329.491C327.11 333.031 331.29 334.661 335.01 333.281L482.52 278.731L508.35 269.171C510.59 268.331 512.31 266.561 513.07 264.291C513.83 262.031 513.53 259.571 512.25 257.561L481.83 209.811L484.46 208.851C484.71 208.761 484.93 208.651 485.14 208.501L515.19 255.681C519.08 261.791 516.34 269.931 509.55 272.451H509.56Z" fill="#06296B"/>
<path d="M351.66 257.071L345.47 259.321L298.19 276.491L345.5 259.321L351.69 257.071H351.66ZM518.15 253.801L486.3 203.811C486.61 204.351 486.78 204.971 486.77 205.611C486.75 206.801 486.13 207.881 485.15 208.501C484.94 208.651 484.72 208.761 484.47 208.851L481.84 209.811L512.26 257.561C513.54 259.571 513.84 262.031 513.08 264.291C512.32 266.561 510.6 268.331 508.36 269.171L482.53 278.731L335.02 333.281C331.3 334.661 327.12 333.031 325.31 329.491L298.2 276.501L345.51 259.321L351.7 257.071H351.67L345.48 259.321L298.2 276.491L296.6 273.361L296.46 273.101C296.43 273.041 296.4 272.981 296.37 272.921C296.32 272.821 296.26 272.731 296.2 272.641C296.17 272.591 296.13 272.531 296.09 272.491C296.06 272.441 296.02 272.391 295.98 272.341C295.96 272.311 295.94 272.291 295.91 272.271C295.91 272.241 295.88 272.221 295.86 272.201L295.8 272.141C295.8 272.141 295.72 272.051 295.67 272.011C295.63 271.971 295.59 271.941 295.55 271.901C295.53 271.881 295.51 271.871 295.49 271.851C295.49 271.851 295.45 271.811 295.43 271.801C295.4 271.781 295.36 271.751 295.32 271.721C295.27 271.681 295.22 271.651 295.16 271.611C295.14 271.601 295.12 271.591 295.1 271.571C294.98 271.501 294.85 271.431 294.71 271.371C294.69 271.361 294.67 271.351 294.64 271.341C294.62 271.331 294.61 271.331 294.59 271.321L294.45 271.271L294.36 271.241L294.21 271.181L293.34 270.821H293.33L292.18 271.241L292.09 271.271L291.94 271.331C291.88 271.351 291.82 271.381 291.76 271.411C291.76 271.411 291.75 271.411 291.74 271.421C291.65 271.461 291.56 271.511 291.48 271.561C291.44 271.581 291.41 271.601 291.38 271.621C291.29 271.681 291.2 271.741 291.12 271.811C291.09 271.831 291.06 271.851 291.03 271.881C290.97 271.931 290.91 271.981 290.86 272.031C290.76 272.131 290.67 272.231 290.58 272.331C290.55 272.371 290.51 272.411 290.48 272.461C290.44 272.511 290.4 272.561 290.37 272.621C290.34 272.651 290.32 272.691 290.3 272.731C290.25 272.801 290.21 272.871 290.18 272.941C290.14 273.011 290.1 273.081 290.07 273.161C290.06 273.181 290.05 273.201 290.05 273.211C290.04 273.231 290.04 273.241 290.04 273.251H290.03C290.03 273.251 290.02 273.271 290.02 273.281C290.01 273.301 290 273.321 290 273.341C289.97 273.421 289.94 273.511 289.92 273.591C289.89 273.691 289.86 273.801 289.84 273.901C289.84 273.921 289.84 273.941 289.83 273.961C289.8 274.151 289.78 274.351 289.78 274.551C289.78 275.111 289.91 275.651 290.16 276.151L290.75 277.311L291.47 278.711L293.26 282.221V282.291L293.54 282.751L296.75 289.031L319.07 332.671C319.4 333.311 319.76 333.911 320.17 334.481C320.77 335.341 321.45 336.111 322.2 336.811C324.95 339.351 328.57 340.771 332.31 340.771C334.02 340.771 335.76 340.471 337.45 339.841L479.95 287.131L483.45 285.841L486.95 284.551L510.78 275.731H510.79C515.02 274.161 518.28 270.801 519.71 266.521C521.15 262.241 520.59 257.611 518.16 253.801H518.15ZM351.66 257.071L345.47 259.321L298.19 276.491L345.5 259.321L351.69 257.071H351.66ZM351.66 257.071L345.47 259.321L298.19 276.491L345.5 259.321L351.69 257.071H351.66Z" fill="white"/>
<path d="M456.53 163.49C455.89 163.23 455.25 162.97 454.6 162.71C453.95 162.45 453.32 162.19 452.67 161.94C446.57 159.53 440.29 157.24 433.83 155.1C433.18 154.88 432.54 154.67 431.89 154.46C431.24 154.25 430.6 154.04 429.95 153.83C414.18 148.76 397.44 144.49 379.9 141.14C370.25 139.28 360.36 137.7 350.27 136.43C333.17 134.27 315.48 132.93 297.36 132.54C290.52 132.4 283.74 132.38 277.02 132.49C276.33 132.49 275.65 132.52 274.96 132.53C274.28 132.55 273.59 132.57 272.91 132.59C270.35 132.66 267.81 132.74 265.27 132.84H265.26C264.58 132.87 263.91 132.9 263.24 132.93C262.56 132.96 261.89 132.99 261.22 133.03C255.86 133.29 250.54 133.63 245.27 134.06C244.18 134.14 243.09 134.23 242 134.34C241.81 134.36 241.62 134.37 241.43 134.39C240.75 134.45 240.07 134.51 239.4 134.57C238.72 134.64 238.04 134.71 237.37 134.77C231.05 135.38 224.82 136.12 218.66 136.97C216.64 137.25 214.62 137.54 212.61 137.85C209.35 138.34 206.12 138.86 202.92 139.43C202.59 139.47 202.26 139.54 201.93 139.6C195.28 140.76 188.75 142.07 182.34 143.5C175 145.15 167.82 146.96 160.84 148.94C152.03 151.43 143.51 154.19 135.33 157.19C134.7 157.42 134.07 157.65 133.45 157.89C132.82 158.12 132.19 158.35 131.57 158.59C64.6097 184.03 20.7797 225.77 19.7397 273.81C19.0297 306.54 38.2897 337.22 71.4397 362.4C77.5997 367.07 84.2397 371.56 91.3197 375.83C97.0897 379.33 103.17 382.67 109.52 385.87C111.81 387.02 114.14 388.16 116.5 389.27C160.8 410.17 217.25 423.85 279.27 426.6C281.59 426.7 283.93 426.79 286.27 426.86C287.83 426.92 289.4 426.95 290.97 426.99C359.32 428.48 422.12 416.43 470.65 395.3C473.04 394.26 475.39 393.2 477.69 392.12C520.67 372.03 551.4 344.55 563.24 313.07C566.34 304.86 568.14 296.37 568.54 287.67C568.57 287.03 568.59 286.38 568.6 285.73C569.67 236.39 525.38 191.74 456.52 163.52L456.53 163.49Z" stroke="white" stroke-width="6.77" stroke-miterlimit="10"/>
<path d="M71.4198 380.97L69.6398 390.2C69.3898 391.36 67.7598 391.39 67.4598 390.25L65.0698 381C63.8598 376.31 61.3598 371.98 57.9498 368.58C55.2598 365.88 51.9998 363.76 48.3798 362.5L47.4698 362.18L46.1398 361.71C45.0998 361.35 45.1598 359.85 46.2298 359.57H46.2498C46.6298 359.47 47.0198 359.36 47.3898 359.24C56.1698 356.49 62.7998 348.9 64.8898 339.88L65.0698 339.19L67.1998 330.859C67.4698 329.689 69.1398 329.71 69.3798 330.89L71.0798 339.12L71.2298 339.85C73.1898 349.28 80.1098 356.4 89.2698 359.04C89.6898 359.16 90.1198 359.27 90.5498 359.38C91.1198 359.51 91.4098 359.99 91.4098 360.47C91.4098 360.91 91.1598 361.36 90.6498 361.53L89.2098 362.02L88.4998 362.26C84.6798 363.56 81.2598 365.62 78.4798 368.29C74.9698 371.65 72.4598 375.98 71.3998 380.97H71.4198Z" fill="white" stroke="#E4DEDE" stroke-width="1.27" stroke-miterlimit="10"/>
<path d="M568.27 306.56C574.897 306.56 580.27 301.187 580.27 294.56C580.27 287.932 574.897 282.56 568.27 282.56C561.642 282.56 556.27 287.932 556.27 294.56C556.27 301.187 561.642 306.56 568.27 306.56Z" fill="white" stroke="#E4DEDE" stroke-width="2" stroke-miterlimit="10"/>
<path d="M241.211 257.27L197.081 239.42V239.41L241.211 257.27Z" fill="#EE4A00"/>
<path d="M262.451 254.9L256.401 255.87H256.391L254.581 255.14L206.141 235.54L202.561 234.09H202.551L199.411 232.81V232.8L199.501 232.54L200.641 229.32L237.181 223.49L239.351 226.18L240.791 227.98L242.231 229.77L261.721 254L262.451 254.9Z" fill="#EE4A00"/>
<path d="M304.2 69.3097L323.55 190.46L109.27 224.69L89.9204 103.54C88.3204 93.5497 94.3204 84.2897 103.32 82.8497L285.02 53.8297C294.02 52.3897 302.61 59.3297 304.2 69.3197V69.3097Z" fill="#EE4A00"/>
<path d="M107.611 226.97L87.9406 103.85C87.0906 98.53 88.1606 93.22 90.9606 88.9C93.8006 84.51 98.0806 81.66 103.001 80.87L284.701 51.85C294.781 50.23 304.411 57.93 306.171 69L325.841 192.12L107.611 226.98V226.97ZM287.381 55.63C286.701 55.63 286.021 55.68 285.331 55.79L103.631 84.81C99.8406 85.42 96.5306 87.64 94.3206 91.06C92.0606 94.55 91.2006 98.87 91.8906 103.21L110.921 222.38L321.251 188.79L302.221 69.62C300.921 61.51 294.491 55.63 287.371 55.63H287.381Z" fill="white"/>
<path d="M311.041 216.76L240.791 227.98L202.581 234.08H202.561L202.551 234.09L199.411 232.81L198.961 232.63L192.291 233.7H192.281L185.601 234.76L189.191 236.22L129.341 245.78C120.341 247.21 111.921 241.33 110.491 232.33L110.081 229.78L109.581 226.66L109.261 224.68H109.271L113.321 224.03L146.111 218.79H146.131L147.851 218.52L152.801 217.72L156.401 217.15L159.481 216.66H159.501L316.511 191.57L323.511 190.46H323.551L323.861 192.43L324.771 198.11C326.211 207.1 320.041 215.32 311.041 216.76Z" fill="#FF6D2A"/>
<path d="M326.751 197.79L325.841 192.11L325.211 188.17L323.301 188.47H323.241L323.231 188.48L321.261 188.79L314.411 189.88H314.381L307.781 190.94H307.751L155.931 215.2H155.901L149.231 216.27H149.211L142.541 217.34H142.521L114.571 221.81L110.931 222.39L110.161 222.51L108.951 222.7L106.981 223.02H106.971L107.611 227.03L108.501 232.58V232.65C109.291 237.52 111.921 241.76 115.921 244.6C119.061 246.83 122.781 247.99 126.621 247.99C127.631 247.99 128.641 247.91 129.661 247.75L192.771 237.67L189.201 236.22H189.191L185.601 234.76H185.591L129.031 243.8C125.181 244.42 121.351 243.54 118.231 241.34C115.121 239.13 113.071 235.82 112.461 232.02L111.651 226.99L111.551 226.34L112.061 226.26L149.691 220.25H149.711L149.731 220.24L156.391 219.18L163.061 218.11H163.081L321.881 192.74L322.791 198.42C324.051 206.31 318.741 213.5 310.721 214.78L239.341 226.18L199.491 232.54L198.971 232.63H198.951L199.401 232.81L202.541 234.09H202.551L206.131 235.54L242.211 229.77L311.341 218.73C321.411 217.12 328.311 207.73 326.731 197.79H326.751Z" fill="white"/>
<path d="M264.541 266.71L243.011 258H243.031L264.541 266.71Z" fill="#FF6D2A"/>
<path d="M287.031 263.12L277.931 264.57H277.911L256.401 255.87L254.591 255.14H254.611L261.731 254L284.991 250.28C286.641 250.02 288.191 251.14 288.451 252.79L289.551 259.66C289.811 261.31 288.691 262.86 287.041 263.12H287.031Z" fill="#FF6D2A"/>
<path d="M185.29 7.57982L237.34 177.14C237.85 178.79 236.92 180.53 235.27 181.04L78.72 229.1C77.07 229.61 75.33 228.68 74.82 227.03L22.84 57.6898C22.03 55.0598 23.69 52.2298 26.54 51.3598L178.98 4.56982C181.69 3.73982 184.53 5.07982 185.29 7.58982V7.57982Z" fill="#FF9460"/>
<path d="M79.1904 230.96C76.5604 231.71 73.7904 230.22 72.9904 227.59L21.0104 58.2602C20.4604 56.4702 20.6904 54.5702 21.6604 52.9102C22.6004 51.3002 24.1304 50.1002 25.9704 49.5302L178.41 2.73018C180.16 2.18018 182.06 2.31018 183.69 3.09018C185.37 3.89018 186.59 5.29018 187.13 7.02018L239.18 176.58C239.58 177.87 239.45 179.23 238.81 180.42C238.18 181.61 237.12 182.48 235.84 182.88L79.2904 230.93C79.2904 230.93 79.2204 230.95 79.1904 230.96ZM179.61 6.38018C179.61 6.38018 179.56 6.39018 179.54 6.40018L27.1004 53.2002C26.1804 53.4802 25.4304 54.0602 24.9804 54.8402C24.5604 55.5702 24.4504 56.3802 24.6804 57.1302L76.6604 226.47C76.7504 226.78 76.9604 227.03 77.2504 227.18C77.5304 227.33 77.8704 227.41 78.1704 227.27L234.72 179.21C235.03 179.12 235.28 178.91 235.43 178.63C235.58 178.35 235.61 178.02 235.52 177.71L183.45 8.15018C183.24 7.46018 182.74 6.89018 182.03 6.56018C181.29 6.21018 180.44 6.15018 179.61 6.38018Z" fill="white"/>
<path d="M38.5509 64.7902C40.5777 64.7902 42.2209 63.1471 42.2209 61.1202C42.2209 59.0933 40.5777 57.4502 38.5509 57.4502C36.524 57.4502 34.8809 59.0933 34.8809 61.1202C34.8809 63.1471 36.524 64.7902 38.5509 64.7902Z" fill="#FF6D2A"/>
<path d="M49.5704 61.4006C51.5973 61.4006 53.2404 59.7574 53.2404 57.7306C53.2404 55.7037 51.5973 54.0605 49.5704 54.0605C47.5435 54.0605 45.9004 55.7037 45.9004 57.7306C45.9004 59.7574 47.5435 61.4006 49.5704 61.4006Z" fill="#FF6D2A"/>
<path d="M60.6007 58.0207C62.6275 58.0207 64.2707 56.3775 64.2707 54.3507C64.2707 52.3238 62.6275 50.6807 60.6007 50.6807C58.5738 50.6807 56.9307 52.3238 56.9307 54.3507C56.9307 56.3775 58.5738 58.0207 60.6007 58.0207Z" fill="#FF6D2A"/>
<path d="M72.0011 54.5207C74.0279 54.5207 75.6711 52.8775 75.6711 50.8507C75.6711 48.8238 74.0279 47.1807 72.0011 47.1807C69.9742 47.1807 68.3311 48.8238 68.3311 50.8507C68.3311 52.8775 69.9742 54.5207 72.0011 54.5207Z" fill="#FF6D2A"/>
<path d="M161.42 27.0695C163.447 27.0695 165.09 25.4264 165.09 23.3995C165.09 21.3726 163.447 19.7295 161.42 19.7295C159.394 19.7295 157.75 21.3726 157.75 23.3995C157.75 25.4264 159.394 27.0695 161.42 27.0695Z" fill="#FF6D2A"/>
<path d="M172.45 23.6798C174.477 23.6798 176.12 22.0367 176.12 20.0098C176.12 17.983 174.477 16.3398 172.45 16.3398C170.423 16.3398 168.78 17.983 168.78 20.0098C168.78 22.0367 170.423 23.6798 172.45 23.6798Z" fill="#FF6D2A"/>
<path d="M143.911 15.3268L140.087 16.501L147.719 41.3556L151.543 40.1814L143.911 15.3268Z" fill="white"/>
<path d="M190.354 26.9413L28.7627 76.499L29.9355 80.3232L191.527 30.7655L190.354 26.9413Z" fill="white"/>
<path d="M101.988 131.223L78.622 138.286C75.4712 139.239 73.6891 142.565 74.6416 145.716L80.2814 164.372C81.2338 167.523 84.5602 169.305 87.711 168.352L111.077 161.289C114.227 160.336 116.01 157.01 115.057 153.859L109.417 135.203C108.465 132.052 105.139 130.27 101.988 131.223Z" fill="#EE4A00"/>
<path d="M114.731 131.231C113.941 131.451 113.121 131.011 112.881 130.221C112.641 129.431 113.091 128.591 113.881 128.351L190.54 105.171H190.561C191.351 104.941 192.171 105.391 192.411 106.171C192.651 106.961 192.201 107.801 191.411 108.041L114.751 131.221H114.731V131.231Z" fill="#FF6D2A"/>
<path d="M116.59 137.391C115.8 137.611 114.98 137.171 114.74 136.381C114.5 135.591 114.95 134.751 115.74 134.511L192.4 111.331C193.16 111.111 194.03 111.541 194.27 112.331C194.51 113.121 194.06 113.961 193.27 114.201L116.61 137.381H116.59V137.391Z" fill="#FF6D2A"/>
<path d="M118.46 143.55C117.67 143.77 116.85 143.33 116.61 142.54C116.37 141.75 116.82 140.91 117.61 140.67L194.27 117.49C195.03 117.24 195.9 117.7 196.14 118.49C196.38 119.28 195.93 120.12 195.14 120.36L118.48 143.54H118.46V143.55Z" fill="#FF6D2A"/>
<path d="M120.32 149.711C119.53 149.931 118.71 149.491 118.47 148.701C118.23 147.911 118.68 147.071 119.47 146.831L196.13 123.651H196.15C196.94 123.421 197.76 123.871 198 124.651C198.24 125.441 197.79 126.281 197 126.521L120.34 149.701H120.32V149.711Z" fill="#FF6D2A"/>
<path d="M122.391 156.551C121.601 156.771 120.781 156.331 120.541 155.541C120.301 154.751 120.751 153.911 121.541 153.671L198.201 130.491C198.961 130.291 199.831 130.701 200.071 131.491C200.311 132.281 199.861 133.121 199.071 133.361L122.411 156.541H122.391V156.551Z" fill="#FF6D2A"/>
<path d="M181.983 181.087L205.349 174.023C208.499 173.071 210.282 169.745 209.329 166.594L203.689 147.938C202.737 144.787 199.411 143.005 196.26 143.957L172.894 151.021C169.743 151.973 167.961 155.299 168.914 158.45L174.553 177.106C175.506 180.257 178.832 182.039 181.983 181.087Z" fill="#EE4A00"/>
<path d="M93.3902 207.151C92.6002 207.371 91.7802 206.931 91.5402 206.141C91.3002 205.351 91.7502 204.511 92.5402 204.271L169.2 181.091C170.01 180.871 170.83 181.301 171.07 182.091C171.31 182.881 170.86 183.721 170.07 183.961L93.4102 207.141H93.3902V207.151Z" fill="#FF6D2A"/>
<path d="M91.5303 200.99C90.7403 201.21 89.9203 200.77 89.6803 199.98C89.4403 199.19 89.8903 198.35 90.6803 198.11L167.34 174.93H167.36C168.15 174.7 168.97 175.15 169.21 175.93C169.45 176.72 169 177.56 168.21 177.8L91.5503 200.98H91.5303V200.99Z" fill="#FF6D2A"/>
<path d="M89.6704 194.83C88.8804 195.05 88.0604 194.61 87.8204 193.82C87.5804 193.03 88.0304 192.19 88.8204 191.95L165.48 168.77C166.27 168.51 167.11 168.98 167.35 169.77C167.59 170.56 167.14 171.4 166.35 171.64L89.6904 194.82H89.6704V194.83Z" fill="#FF6D2A"/>
<path d="M87.8101 188.671C87.0201 188.891 86.2001 188.451 85.9601 187.661C85.7201 186.871 86.1701 186.031 86.9601 185.791L163.62 162.611C164.42 162.381 165.25 162.821 165.49 163.611C165.73 164.401 165.28 165.241 164.49 165.481L87.8301 188.661H87.8101V188.671Z" fill="#FF6D2A"/>
<path d="M85.7403 181.831C84.9503 182.051 84.1303 181.611 83.8903 180.821C83.6503 180.031 84.1003 179.191 84.8903 178.951L161.55 155.771C162.36 155.561 163.18 155.981 163.42 156.771C163.66 157.561 163.21 158.401 162.42 158.641L85.7603 181.821H85.7403V181.831Z" fill="#FF6D2A"/>
<path d="M167.341 52.1342L62.6689 83.7764C59.5181 84.7288 57.736 88.0552 58.6885 91.206L69.123 125.723C70.0755 128.874 73.4019 130.656 76.5527 129.704L181.225 98.0615C184.375 97.109 186.157 93.7827 185.205 90.6319L174.77 56.1146C173.818 52.9638 170.492 51.1817 167.341 52.1342Z" fill="#FF6D2A"/>
<path d="M332.1 75.6599L324.12 186.23C323.95 188.62 321.87 190.42 319.48 190.25L158.58 178.63C156.19 178.46 154.39 176.38 154.56 173.99L162.53 63.5599C162.66 61.8099 165.16 60.5699 168.13 60.7899L327.18 72.2699C330.01 72.4699 332.22 73.9899 332.1 75.6599Z" fill="#FF9460"/>
<path d="M319.79 191.8C319.65 191.8 319.5 191.8 319.36 191.78L158.46 180.16C156.89 180.05 155.47 179.33 154.44 178.14C153.41 176.95 152.91 175.44 153.02 173.87L160.99 63.4404C161.09 62.0504 162.03 60.8204 163.57 60.0504C164.87 59.4104 166.52 59.1204 168.23 59.2404L327.28 70.7204C331.02 70.9904 333.8 73.2004 333.62 75.7504L325.64 186.32C325.53 187.89 324.81 189.31 323.62 190.34C322.54 191.27 321.2 191.77 319.79 191.77V191.8ZM167.47 62.3104C166.52 62.3104 165.62 62.4904 164.94 62.8304C164.42 63.0904 164.07 63.4204 164.06 63.6904L156.09 174.12C156.04 174.87 156.28 175.59 156.77 176.16C157.26 176.73 157.94 177.07 158.69 177.12L319.59 188.74C320.34 188.8 321.06 188.55 321.63 188.06C322.2 187.57 322.54 186.89 322.59 186.14L330.57 75.5704C330.61 75.0604 329.27 73.9804 327.07 73.8204L168.02 62.3404C167.84 62.3304 167.65 62.3204 167.47 62.3204V62.3104Z" fill="white"/>
<path d="M298.84 86.4709C300.867 86.4709 302.51 84.8278 302.51 82.8009C302.51 80.774 300.867 79.1309 298.84 79.1309C296.814 79.1309 295.17 80.774 295.17 82.8009C295.17 84.8278 296.814 86.4709 298.84 86.4709Z" fill="#FF6D2A"/>
<path d="M161.283 85.0739L160.995 89.0635L329.576 101.236L329.864 97.2466L161.283 85.0739Z" fill="white"/>
<path d="M202.029 128.083L187.113 126.943C183.831 126.693 180.967 129.15 180.716 132.432L179.935 142.652C179.684 145.934 182.141 148.798 185.423 149.049L200.34 150.189C203.622 150.44 206.486 147.982 206.737 144.7L207.518 134.48C207.768 131.198 205.311 128.334 202.029 128.083Z" fill="#EE4A00"/>
<path d="M203.37 156.56C203.37 156.56 203.32 156.56 203.29 156.56L181.75 154.91C181.2 154.87 180.79 154.39 180.83 153.84C180.87 153.29 181.35 152.87 181.9 152.92L203.44 154.57C203.99 154.61 204.4 155.09 204.36 155.64C204.32 156.16 203.88 156.56 203.36 156.56H203.37Z" fill="#FF6D2A"/>
<path d="M203 161.31C203 161.31 202.95 161.31 202.92 161.31L181.38 159.66C180.83 159.62 180.42 159.14 180.46 158.59C180.5 158.04 180.96 157.63 181.53 157.67L203.07 159.32C203.62 159.36 204.03 159.84 203.99 160.39C203.95 160.91 203.51 161.31 202.99 161.31H203Z" fill="#FF6D2A"/>
<path d="M202.64 166.06C202.64 166.06 202.59 166.06 202.56 166.06L181.02 164.41C180.47 164.37 180.06 163.89 180.1 163.34C180.14 162.79 180.61 162.37 181.17 162.42L202.71 164.07C203.26 164.11 203.67 164.59 203.63 165.14C203.59 165.66 203.15 166.06 202.63 166.06H202.64Z" fill="#FF6D2A"/>
<path d="M202.28 170.81C202.28 170.81 202.23 170.81 202.2 170.81L180.66 169.16C180.11 169.12 179.7 168.64 179.74 168.09C179.78 167.54 180.24 167.12 180.81 167.17L202.35 168.82C202.9 168.86 203.31 169.34 203.27 169.89C203.23 170.41 202.79 170.81 202.27 170.81H202.28Z" fill="#FF6D2A"/>
<path d="M234.397 130.422L219.48 129.282C216.198 129.031 213.334 131.489 213.083 134.771L212.302 144.991C212.052 148.273 214.509 151.137 217.791 151.388L232.708 152.528C235.99 152.779 238.853 150.321 239.104 147.039L239.885 136.819C240.136 133.537 237.679 130.673 234.397 130.422Z" fill="#EE4A00"/>
<path d="M235.73 158.9C235.73 158.9 235.68 158.9 235.65 158.9L214.11 157.25C213.56 157.21 213.15 156.73 213.19 156.18C213.23 155.63 213.69 155.21 214.26 155.26L235.8 156.91C236.35 156.95 236.76 157.43 236.72 157.98C236.68 158.5 236.24 158.9 235.72 158.9H235.73Z" fill="#FF6D2A"/>
<path d="M235.37 163.65C235.37 163.65 235.32 163.65 235.29 163.65L213.75 162C213.2 161.96 212.79 161.48 212.83 160.93C212.87 160.38 213.34 159.97 213.9 160.01L235.44 161.66C235.99 161.7 236.4 162.18 236.36 162.73C236.32 163.25 235.88 163.65 235.36 163.65H235.37Z" fill="#FF6D2A"/>
<path d="M235 168.4C235 168.4 234.95 168.4 234.92 168.4L213.38 166.75C212.83 166.71 212.42 166.23 212.46 165.68C212.5 165.13 212.96 164.72 213.53 164.76L235.07 166.41C235.62 166.45 236.03 166.93 235.99 167.48C235.95 168 235.51 168.4 234.99 168.4H235Z" fill="#FF6D2A"/>
<path d="M234.64 173.15C234.64 173.15 234.59 173.15 234.56 173.15L213.02 171.5C212.47 171.46 212.06 170.98 212.1 170.43C212.14 169.88 212.61 169.46 213.17 169.51L234.71 171.16C235.26 171.2 235.67 171.68 235.63 172.23C235.59 172.75 235.15 173.15 234.63 173.15H234.64Z" fill="#FF6D2A"/>
<path d="M266.814 132.766L251.898 131.626C248.616 131.375 245.752 133.832 245.501 137.115L244.72 147.335C244.469 150.617 246.926 153.481 250.208 153.732L265.125 154.871C268.407 155.122 271.271 152.665 271.522 149.383L272.303 139.163C272.554 135.881 270.096 133.017 266.814 132.766Z" fill="#EE4A00"/>
<path d="M268.15 161.241C268.15 161.241 268.1 161.241 268.07 161.241L246.53 159.591C245.98 159.551 245.57 159.071 245.61 158.521C245.65 157.971 246.13 157.551 246.68 157.601L268.22 159.251C268.77 159.291 269.18 159.771 269.14 160.321C269.1 160.841 268.66 161.241 268.14 161.241H268.15Z" fill="#FF6D2A"/>
<path d="M267.78 165.99C267.78 165.99 267.73 165.99 267.7 165.99L246.16 164.34C245.61 164.3 245.2 163.82 245.24 163.27C245.28 162.72 245.74 162.31 246.31 162.35L267.85 164C268.4 164.04 268.81 164.52 268.77 165.07C268.73 165.59 268.29 165.99 267.77 165.99H267.78Z" fill="#FF6D2A"/>
<path d="M267.42 170.741C267.42 170.741 267.37 170.741 267.34 170.741L245.8 169.091C245.25 169.051 244.84 168.571 244.88 168.021C244.92 167.471 245.39 167.051 245.95 167.101L267.49 168.751C268.04 168.791 268.45 169.271 268.41 169.821C268.37 170.341 267.93 170.741 267.41 170.741H267.42Z" fill="#FF6D2A"/>
<path d="M267.06 175.491C267.06 175.491 267.01 175.491 266.98 175.491L245.44 173.841C244.89 173.801 244.48 173.321 244.52 172.771C244.56 172.221 245.02 171.801 245.59 171.851L267.13 173.501C267.68 173.541 268.09 174.021 268.05 174.571C268.01 175.091 267.57 175.491 267.05 175.491H267.06Z" fill="#FF6D2A"/>
<path d="M298.736 135.061L283.82 133.921C280.538 133.67 277.674 136.127 277.423 139.409L276.642 149.63C276.391 152.912 278.848 155.776 282.13 156.026L297.047 157.166C300.329 157.417 303.193 154.96 303.444 151.678L304.225 141.458C304.475 138.176 302.018 135.312 298.736 135.061Z" fill="#EE4A00"/>
<path d="M300.06 163.55C300.06 163.55 300.01 163.55 299.98 163.55L278.44 161.9C277.89 161.86 277.48 161.38 277.52 160.83C277.56 160.28 278.03 159.87 278.59 159.91L300.13 161.56C300.68 161.6 301.09 162.08 301.05 162.63C301.01 163.15 300.57 163.55 300.05 163.55H300.06Z" fill="#FF6D2A"/>
<path d="M299.7 168.29C299.7 168.29 299.65 168.29 299.62 168.29L278.08 166.64C277.53 166.6 277.12 166.12 277.16 165.57C277.2 165.02 277.68 164.61 278.23 164.65L299.77 166.3C300.32 166.34 300.73 166.82 300.69 167.37C300.65 167.89 300.21 168.29 299.69 168.29H299.7Z" fill="#FF6D2A"/>
<path d="M299.34 173.04C299.34 173.04 299.29 173.04 299.26 173.04L277.72 171.39C277.17 171.35 276.76 170.87 276.8 170.32C276.84 169.77 277.3 169.35 277.87 169.4L299.41 171.05C299.96 171.09 300.37 171.57 300.33 172.12C300.29 172.64 299.85 173.04 299.33 173.04H299.34Z" fill="#FF6D2A"/>
<path d="M298.97 177.79C298.97 177.79 298.92 177.79 298.89 177.79L277.35 176.14C276.8 176.1 276.39 175.62 276.43 175.07C276.47 174.52 276.94 174.11 277.5 174.15L299.04 175.8C299.59 175.84 300 176.32 299.96 176.87C299.92 177.39 299.48 177.79 298.96 177.79H298.97Z" fill="#FF6D2A"/>
<path d="M313.993 107.991L175.935 97.4405C172.653 97.1897 169.789 99.647 169.539 102.929L168.778 112.88C168.527 116.162 170.985 119.026 174.267 119.277L312.324 129.827C315.606 130.078 318.47 127.621 318.721 124.338L319.481 114.388C319.732 111.105 317.275 108.242 313.993 107.991Z" fill="#FF6D2A"/>
<path d="M242.05 110.14L233.4 118.87L254.01 120.36L247.84 113.23L245.08 114.37L242.05 110.14Z" fill="#EE4A00"/>
<path d="M249.41 112C250.515 112 251.41 111.105 251.41 110C251.41 108.895 250.515 108 249.41 108C248.306 108 247.41 108.895 247.41 110C247.41 111.105 248.306 112 249.41 112Z" fill="#EE4A00"/>
<path d="M226.081 74.5605C245.272 74.5605 260.831 59.0024 260.831 39.8105C260.831 20.6186 245.272 5.06055 226.081 5.06055C206.889 5.06055 191.331 20.6186 191.331 39.8105C191.331 59.0024 206.889 74.5605 226.081 74.5605Z" fill="#FF6D2A"/>
<path d="M226.13 76.5601C225.23 76.5601 224.33 76.5301 223.43 76.4601C203.22 75.0001 187.96 57.3701 189.42 37.1601C190.88 16.9501 208.51 1.70009 228.72 3.15009C248.93 4.61009 264.19 22.2401 262.73 42.4501C262.02 52.2401 257.55 61.1701 250.12 67.5901C243.38 73.4201 234.95 76.5501 226.13 76.5501V76.5601ZM226.05 7.06009C209.05 7.06009 194.65 20.2401 193.41 37.4501C192.11 55.4601 205.7 71.1701 223.72 72.4701C232.46 73.1101 240.89 70.3001 247.51 64.5701C254.13 58.8501 258.11 50.8901 258.74 42.1601C260.04 24.1501 246.45 8.44009 228.43 7.14009C227.63 7.08009 226.84 7.05009 226.05 7.05009V7.06009Z" fill="white"/>
<path d="M248.23 47.6498L244.06 45.5298C244.6 43.9998 244.94 42.3698 245.06 40.6698C245.16 39.2898 245.11 37.9498 244.92 36.6298L249.12 35.2198C250.69 34.6898 251.54 32.9898 251.01 31.4198C250.48 29.8498 248.78 28.9998 247.21 29.5298L243.14 30.8998C241.81 28.1998 239.84 25.8398 237.42 24.0398L239.28 20.3598C240.03 18.8798 239.44 17.0698 237.96 16.3198C236.48 15.5698 234.67 16.1598 233.92 17.6398L232.08 21.2598C230.62 20.7698 229.08 20.4598 227.47 20.3498C225.86 20.2298 224.29 20.3198 222.78 20.5898L221.48 16.7498C220.95 15.1798 219.24 14.3298 217.68 14.8598C216.11 15.3898 215.26 17.0898 215.79 18.6598L217.1 22.5598C214.45 23.9898 212.16 26.0398 210.45 28.5298L206.62 26.5898C205.14 25.8398 203.33 26.4298 202.58 27.9098C201.83 29.3898 202.42 31.1998 203.9 31.9498L207.86 33.9498C207.49 35.2298 207.24 36.5498 207.14 37.9298C207.02 39.6298 207.12 41.2898 207.43 42.8798L203 44.3698C201.43 44.8998 200.58 46.5998 201.11 48.1698C201.51 49.3498 202.57 50.1198 203.74 50.1998C204.13 50.2298 204.52 50.1898 204.91 50.0498L209.48 48.5198C210.86 50.9898 212.78 53.1298 215.08 54.7798L212.83 59.2198C212.08 60.6998 212.67 62.5098 214.15 63.2598C214.52 63.4498 214.9 63.5398 215.29 63.5698C216.46 63.6498 217.62 63.0498 218.19 61.9298L220.47 57.4298C221.81 57.8498 223.24 58.1198 224.7 58.2298C226.17 58.3398 227.61 58.2698 229 58.0498L230.61 62.8298C231.01 64.0098 232.07 64.7798 233.24 64.8598C233.63 64.8898 234.02 64.8498 234.41 64.7098C235.98 64.1798 236.83 62.4798 236.3 60.9098L234.72 56.1898C237.24 54.8898 239.45 53.0398 241.16 50.7998L245.46 52.9798C245.83 53.1698 246.21 53.2598 246.6 53.2898C247.77 53.3698 248.93 52.7698 249.5 51.6498C250.25 50.1698 249.66 48.3598 248.18 47.6098L248.23 47.6498ZM232.82 50.4398C231.12 51.4698 229.17 52.1098 227.1 52.2698C226.47 52.3098 225.82 52.3198 225.17 52.2698C224.52 52.2198 223.89 52.1298 223.27 51.9898C221.25 51.5298 219.41 50.6198 217.88 49.3498C216.91 48.5498 216.05 47.6098 215.35 46.5698C214.23 44.9098 213.48 42.9998 213.21 40.9498C213.11 40.0998 213.08 39.2398 213.15 38.3598C213.19 37.8098 213.26 37.2598 213.38 36.7298C213.78 34.6898 214.66 32.8298 215.89 31.2698C216.78 30.1398 217.87 29.1598 219.08 28.3698C220.75 27.2898 222.69 26.5898 224.74 26.3698C225.5 26.2798 226.27 26.2698 227.06 26.3298C227.85 26.3898 228.61 26.5098 229.35 26.7098C231.35 27.2198 233.16 28.1898 234.66 29.4998C235.74 30.4498 236.68 31.5798 237.4 32.8298C238.39 34.5598 239 36.5198 239.1 38.5998C239.14 39.1398 239.13 39.6998 239.1 40.2398C239.04 41.1198 238.88 41.9698 238.66 42.7998C238.1 44.7798 237.08 46.5798 235.73 48.0498C234.89 48.9798 233.91 49.7798 232.83 50.4398H232.82Z" fill="#E84B0F"/>
<path d="M226.08 44.8096C228.842 44.8096 231.08 42.571 231.08 39.8096C231.08 37.0481 228.842 34.8096 226.08 34.8096C223.319 34.8096 221.08 37.0481 221.08 39.8096C221.08 42.571 223.319 44.8096 226.08 44.8096Z" fill="#E84B0F"/>
<path d="M466.68 207.861L465.24 208.381L428.76 221.631L412.26 227.621L335.5 255.501L333.62 256.181C330.02 253.991 327.42 250.241 326.89 245.761L322.88 212.081L322.54 209.201L322.11 205.611L320.6 192.951L320.46 191.761L320.37 190.961L320.28 190.231L320.13 188.971L320.1 188.721L316.73 160.431L314.61 142.601L314.14 138.651L313.67 134.691L313.09 129.821L310.82 110.761V110.671L310.45 107.711L309.51 99.7811L309.27 97.7511L309.03 95.7411L308.36 90.1211C308.15 88.3211 308.28 86.5611 308.72 84.9011C310.15 79.4211 314.82 75.0811 320.76 74.3811L326.1 73.7411H326.12L330.43 73.2311H330.44L332.55 72.9811L404.6 64.4011L407.52 64.0511L434.91 60.7911C436.34 60.6211 437.75 60.6711 439.11 60.9211C439.48 60.9911 439.85 61.0711 440.21 61.1711C440.57 61.2611 440.93 61.3811 441.28 61.5011C444.4 62.6111 447.07 64.7911 448.77 67.6511C448.98 67.9911 449.17 68.3511 449.35 68.7211C449.53 69.1011 449.7 69.4911 449.85 69.9011C449.96 70.1811 450.06 70.4711 450.14 70.7611C450.28 71.2111 450.4 71.6711 450.48 72.1411C450.55 72.4811 450.61 72.8311 450.65 73.1811L450.71 73.6711L451.77 82.5911L451.91 83.8011L452.06 85.0211L455.24 111.691L455.59 114.681L457.07 127.101L457.45 130.311L457.57 131.281L458.18 136.411L462.03 168.781L462.25 170.581L462.46 172.391L465.11 194.611L465.58 198.561L465.61 198.871L465.83 200.671L466.04 202.481V202.511L466.68 207.861Z" fill="#FF6D2A"/>
<path d="M450.48 72.1407L451.67 70.6207C451.54 70.1907 451.4 69.7607 451.24 69.3407C451.14 69.0707 451.03 68.8007 450.92 68.5407C450.75 68.1607 450.57 67.8007 450.36 67.4307L449.35 68.7207C449.17 68.3507 448.98 67.9907 448.77 67.6507L447.77 68.9307C447.97 69.3007 448.15 69.6807 448.3 70.0707C448.48 70.4807 448.62 70.9007 448.74 71.3307C448.84 71.6307 448.91 71.9307 448.98 72.2407C449.05 72.6207 449.12 72.9907 449.16 73.3607L449.21 73.7707L449.4 75.3507L450.71 73.6807L450.65 73.1807C450.61 72.8307 450.55 72.4807 450.48 72.1407ZM333.13 254.021C330.47 251.921 328.78 248.921 328.38 245.581L324.18 210.281L323.77 206.821L322.97 200.161V200.051L322.66 197.581V197.451L322.09 192.711L321.93 191.391L321.85 190.721L321.74 189.801L321.61 188.731L321.54 188.121L316.74 147.831V147.781L316.72 147.681L316.19 143.231L315.72 139.281L315.25 135.321L314.57 129.561L311.98 107.831L311.03 99.8907L309.51 99.7807L310.45 107.711L310.81 110.671V110.761L313.09 129.821C312.84 129.841 312.59 129.841 312.33 129.821L311.84 129.781L311.57 129.761L312.08 134.061L312.55 138.021L313.19 138.271L313.84 142.301L314.61 142.601L316.73 160.421L321.19 188.361L321.26 188.791L320.13 188.971L320.28 190.231L320.37 190.961L318.88 191.201L318.95 191.751L319.12 193.181L320.9 208.101L321.24 211.001L321.55 213.551L325.4 245.931C325.89 250.071 327.98 253.781 331.28 256.381C331.47 256.531 331.67 256.681 331.87 256.821L333.62 256.181L335.5 255.501C334.67 255.101 333.87 254.601 333.13 254.021ZM351.66 257.071L345.47 259.321H345.5L351.69 257.071H351.66ZM467.63 203.141L467.41 201.291L467.2 199.481L467.16 199.191L466.98 197.681L466.69 195.241L463.83 171.191L463.62 169.391L463.4 167.581L459.83 137.611L459.23 132.581L458.78 128.751L458.73 128.401L457.09 114.611L456.74 111.621L453.47 84.1907L453.33 82.9707L453.18 81.7607L452.14 73.0107C452.1 72.6807 452.05 72.3507 451.99 72.0307C451.9 71.5507 451.79 71.0807 451.67 70.6207C451.54 70.1907 451.4 69.7607 451.24 69.3407C451.14 69.0707 451.03 68.8007 450.92 68.5407C450.75 68.1607 450.57 67.8007 450.36 67.4307C450.18 67.0707 449.98 66.7207 449.75 66.3907C448.83 64.9507 447.65 63.6607 446.26 62.5607C444.88 61.4607 443.35 60.6307 441.73 60.0607C441.38 59.9407 441.02 59.8307 440.66 59.7307C440.3 59.6307 439.93 59.5407 439.56 59.4807C437.98 59.1707 436.36 59.1107 434.73 59.3007L407.55 62.5407L404.63 62.8807L330.77 71.6807L326.26 72.2107H326.22L320.58 72.8907C319.97 72.9607 319.38 73.0707 318.79 73.2107H318.77C315.36 74.0207 312.35 75.9507 310.13 78.7707C309.37 79.7307 308.74 80.7607 308.23 81.8407C307.57 83.2607 307.12 84.7407 306.91 86.2807C306.73 87.6107 306.71 88.9507 306.87 90.3007L307.5 95.6307L307.74 97.6407L307.99 99.6707L308.93 107.591L310.79 123.211V123.231L311.57 129.761L312.08 134.061L312.55 138.021L313.02 141.981L318.58 188.651L318.65 189.211L318.76 190.201L318.88 191.191L318.95 191.751L319.12 193.181L320.9 208.101L321.24 211.001L321.55 213.551L325.4 245.931C325.89 250.071 327.98 253.781 331.28 256.381C331.47 256.531 331.67 256.681 331.87 256.821L333.62 256.181L335.5 255.501C334.67 255.101 333.87 254.601 333.13 254.021C330.47 251.921 328.78 248.921 328.38 245.581L324.18 210.281L323.77 206.821L322.97 200.161V200.051L322.66 197.581V197.451L322.09 192.711L321.93 191.391L321.85 190.721L321.74 189.801L321.61 188.731L321.54 188.121L316.74 147.831V147.781L316.72 147.681L316.19 143.231L315.72 139.281L315.25 135.321L314.57 129.561L311.98 107.831L311.03 99.8907L310.8 97.9307V97.8607L310.55 95.8507L309.85 89.9407C309.03 83.0107 314 76.6907 320.94 75.8707L330.01 74.7907L331.82 74.5707H331.83L333.41 74.3807L404.61 65.9107L407.52 65.5607L435.07 62.2807C435.58 62.2207 436.08 62.1907 436.58 62.1907C437.28 62.1907 437.97 62.2507 438.65 62.3607C439.02 62.4207 439.39 62.5007 439.75 62.5907C440.11 62.6907 440.46 62.8007 440.82 62.9207C442.1 63.3807 443.29 64.0507 444.4 64.9207C445.81 66.0307 446.94 67.3907 447.76 68.9307C447.96 69.3007 448.14 69.6807 448.29 70.0707C448.47 70.4807 448.61 70.9007 448.73 71.3307C448.83 71.6307 448.9 71.9307 448.97 72.2407C449.04 72.6207 449.11 72.9907 449.15 73.3607L449.2 73.7707L449.39 75.3507L450.35 83.4207L450.49 84.6307L450.64 85.8507L453.72 111.711L454.07 114.711L455.39 125.801L455.89 129.981L460.65 169.981L460.87 171.781L461.08 173.591L463.51 193.991L463.98 197.941V197.981L463.99 197.991L464.3 200.611L464.45 201.881L464.57 202.841L465.23 208.381L466.67 207.861L468.12 207.331L467.62 203.141H467.63Z" fill="white"/>
<path d="M486.77 205.61C486.75 206.8 486.13 207.88 485.15 208.5C484.94 208.65 484.72 208.76 484.47 208.85L481.84 209.81L468.99 214.47L467.54 215L466.1 215.53L357.89 254.82H357.86L351.7 257.07H351.67L345.48 259.32L298.2 276.49L296.6 273.36L296.46 273.1C296.43 273.04 296.4 272.98 296.37 272.92C296.32 272.82 296.26 272.73 296.2 272.64C296.17 272.59 296.13 272.53 296.09 272.49C296.06 272.44 296.02 272.39 295.98 272.34C295.96 272.31 295.94 272.29 295.91 272.27C295.91 272.24 295.88 272.22 295.86 272.2L295.8 272.14C295.8 272.14 295.72 272.05 295.67 272.01C295.63 271.97 295.59 271.94 295.55 271.9C295.53 271.88 295.51 271.87 295.49 271.85C295.49 271.85 295.45 271.81 295.43 271.8C295.4 271.78 295.36 271.75 295.32 271.72C295.27 271.68 295.22 271.65 295.16 271.61C295.14 271.6 295.12 271.59 295.1 271.57C294.98 271.5 294.85 271.43 294.71 271.37C294.69 271.36 294.67 271.35 294.64 271.34C294.62 271.33 294.61 271.33 294.59 271.32L294.45 271.27L294.36 271.24L294.21 271.18L293.34 270.82H293.35L331.88 256.82L333.63 256.18L335.51 255.5L412.27 227.62L428.77 221.63L465.25 208.38L466.69 207.86L468.14 207.33L473.41 205.42L478.37 203.62L482.09 202.27C482.9 201.98 483.76 202 484.52 202.29C484.62 202.33 484.72 202.37 484.81 202.42C484.89 202.45 484.96 202.49 485.03 202.53C485.11 202.58 485.19 202.63 485.27 202.68C485.35 202.74 485.42 202.8 485.5 202.86C485.56 202.9 485.62 202.95 485.67 203.01C485.88 203.21 486.07 203.43 486.23 203.68L486.31 203.81C486.62 204.35 486.79 204.97 486.78 205.61H486.77Z" fill="white"/>
<path d="M344.041 94.4903C343.041 94.4903 342.181 93.7403 342.061 92.7303C341.931 91.6303 342.711 90.6403 343.811 90.5103L415.561 81.9703C416.651 81.8503 417.651 82.6203 417.781 83.7203C417.911 84.8203 417.131 85.8103 416.031 85.9403L344.281 94.4803C344.201 94.4803 344.121 94.4903 344.041 94.4903Z" fill="white"/>
<path d="M350.36 190.651C349.36 190.651 348.5 189.901 348.38 188.891C348.25 187.791 349.03 186.801 350.13 186.671L432.98 176.811C434.07 176.691 435.07 177.461 435.2 178.561C435.33 179.661 434.55 180.651 433.45 180.781L350.6 190.641C350.52 190.641 350.44 190.651 350.36 190.651Z" fill="#EE4A00"/>
<path d="M351.63 201.281C350.63 201.281 349.77 200.531 349.65 199.521C349.52 198.421 350.3 197.431 351.4 197.301L434.25 187.441C435.34 187.321 436.34 188.091 436.47 189.191C436.6 190.291 435.82 191.281 434.72 191.411L351.87 201.271C351.79 201.271 351.71 201.281 351.63 201.281Z" fill="#EE4A00"/>
<path d="M352.89 211.911C351.89 211.911 351.03 211.161 350.91 210.151C350.78 209.051 351.56 208.061 352.66 207.931L435.51 198.071C436.6 197.951 437.6 198.721 437.73 199.821C437.86 200.921 437.08 201.911 435.98 202.041L353.13 211.901C353.05 211.901 352.97 211.911 352.89 211.911Z" fill="#EE4A00"/>
<path d="M354.16 222.552C353.16 222.552 352.3 221.802 352.18 220.792C352.05 219.692 352.83 218.702 353.93 218.572L436.78 208.712C437.87 208.592 438.87 209.362 439 210.462C439.13 211.562 438.35 212.552 437.25 212.682L354.4 222.542C354.32 222.542 354.24 222.552 354.16 222.552Z" fill="#EE4A00"/>
<path d="M428.761 221.631L412.261 227.621L355.801 234.351C355.721 234.351 355.641 234.361 355.561 234.361C354.561 234.361 353.701 233.611 353.581 232.601C353.451 231.501 354.231 230.501 355.331 230.371L428.761 221.631Z" fill="#EE4A00"/>
<path d="M418.92 103.059L345.935 111.749C342.667 112.139 340.333 115.104 340.722 118.372L346.632 168.012C347.021 171.28 349.986 173.614 353.255 173.225L426.239 164.535C429.508 164.146 431.842 161.181 431.453 157.912L425.543 108.273C425.153 105.004 422.188 102.67 418.92 103.059Z" fill="#EE4A00"/>
<path d="M413.7 139.47C413.55 139.25 413.4 139.02 413.24 138.8C410.02 134.19 405.55 130.65 400.48 128.45C395.54 126.32 390.02 125.46 384.49 126.14C373.16 127.54 363.41 135.2 359.54 145.73C359.49 145.88 359.43 146.02 359.38 146.16L359.23 146.6L359.48 146.99C365.74 156.51 377.21 161.74 388.7 160.32C400.19 158.9 410.03 151.04 413.8 140.29L413.96 139.85L413.7 139.46V139.47ZM395.62 141.77L395.05 142.04L394.77 142.15C393.29 142.84 392.01 143.8 390.98 145.01C389.73 146.49 388.89 148.35 388.67 150.4L388.34 154.18C388.31 154.64 387.63 154.76 387.46 154.29L386.12 150.66C385.43 148.86 384.24 147.21 382.73 145.98C381.54 145.02 380.14 144.27 378.65 143.94L378.25 143.83L377.71 143.72C377.26 143.63 377.2 143 377.64 142.84C377.82 142.8 377.96 142.75 378.09 142.68C381.52 141.19 383.89 137.86 384.34 134.16L384.4 133.9L384.88 130.45C384.95 129.97 385.63 129.9 385.76 130.36L386.8 133.61L386.89 133.89C388.07 137.61 391.15 140.17 394.94 140.87C395.15 140.92 395.31 140.93 395.5 140.96C395.72 141 395.87 141.15 395.89 141.35C395.91 141.53 395.81 141.72 395.62 141.8V141.77Z" fill="white"/>
<path d="M360.96 148.07C360.69 148.07 360.43 147.99 360.2 147.81L349.67 139.69C349.12 139.27 349.02 138.49 349.44 137.94C349.86 137.4 350.65 137.29 351.19 137.71L361.72 145.83C362.27 146.25 362.37 147.03 361.95 147.58C361.7 147.9 361.33 148.07 360.96 148.07Z" fill="white"/>
<path d="M369.2 133.081C368.82 133.081 368.45 132.911 368.2 132.581L360.95 122.891C360.54 122.341 360.65 121.561 361.2 121.141C361.75 120.721 362.53 120.841 362.95 121.391L370.2 131.081C370.61 131.631 370.5 132.411 369.95 132.831C369.73 133.001 369.46 133.081 369.2 133.081Z" fill="white"/>
<path d="M412.59 140.871C412.32 140.871 412.05 140.781 411.82 140.601C411.28 140.171 411.19 139.391 411.61 138.851L419.85 128.421C420.28 127.881 421.06 127.791 421.6 128.211C422.14 128.641 422.23 129.421 421.81 129.961L413.57 140.391C413.32 140.701 412.96 140.861 412.59 140.861V140.871Z" fill="white"/>
<path d="M400.33 130.081C400.17 130.081 400.01 130.051 399.85 129.981C399.21 129.711 398.92 128.981 399.18 128.351L403.86 117.181C404.13 116.551 404.86 116.241 405.49 116.511C406.13 116.781 406.42 117.511 406.16 118.141L401.48 129.311C401.28 129.791 400.82 130.081 400.33 130.081Z" fill="white"/>
<path d="M384.52 127.381C383.9 127.381 383.36 126.921 383.28 126.281L381.75 113.901C381.67 113.221 382.15 112.591 382.84 112.511C383.51 112.431 384.15 112.911 384.23 113.601L385.76 125.981C385.84 126.661 385.36 127.291 384.67 127.371C384.62 127.371 384.57 127.371 384.52 127.371V127.381Z" fill="white"/>
<path d="M543.22 158.571L536 134.641L549.91 130.441C552.27 129.731 554.77 131.061 555.48 133.431L560.12 148.811C560.83 151.171 559.5 153.671 557.13 154.381L543.22 158.581V158.571Z" fill="#FF6D2A"/>
<path d="M542.6 159.941C542.22 159.771 541.911 159.441 541.781 159.011L534.561 135.081C534.451 134.701 534.491 134.291 534.671 133.941C534.861 133.591 535.181 133.331 535.561 133.211L549.47 129.011C552.62 128.061 555.96 129.851 556.91 133.001L561.551 148.381C562.501 151.531 560.711 154.871 557.561 155.821L543.651 160.021C543.291 160.131 542.92 160.091 542.6 159.951V159.941ZM537.871 135.641L544.231 156.701L556.711 152.931C558.281 152.461 559.171 150.801 558.691 149.231L554.051 133.851C553.581 132.291 551.92 131.391 550.35 131.871L537.871 135.631V135.641Z" fill="white"/>
<path d="M529.289 136.669L452.7 159.778L459.921 183.713L536.511 160.603L529.289 136.669Z" fill="#EE4A00"/>
<path d="M437.851 172.83L440.151 180.46L456.601 183.05L450.281 162.11L437.851 172.83Z" fill="white"/>
<path d="M537.95 160.161L530.73 136.231C530.61 135.841 530.35 135.521 530 135.341C529.65 135.151 529.24 135.111 528.86 135.221L452.27 158.331C451.72 158.501 450.39 159.371 450.13 159.591L436.04 171.741C435.74 172.001 435.62 172.411 435.74 172.781L438.41 181.641C438.49 181.921 438.7 182.141 438.95 182.261C439.04 182.301 439.12 182.321 439.21 182.341L457.85 185.271C458.19 185.321 460.01 185.251 460.36 185.141L536.95 162.031C537.74 161.791 538.19 160.951 537.95 160.161ZM460.93 181.831L454.57 160.771L528.29 138.531L534.64 159.591L460.93 181.831Z" fill="white"/>
<path d="M430.91 177.48L436.7 172.5L439.37 181.36L431.67 180.15C430.38 179.95 429.92 178.33 430.91 177.48Z" fill="#EE4A00"/>
<path d="M430.85 180.94C430.19 180.64 429.68 180.06 429.48 179.33C429.21 178.37 429.51 177.37 430.26 176.72L437.21 170.73L440.79 182.58L431.52 181.13C431.28 181.09 431.06 181.03 430.86 180.93L430.85 180.94ZM431.56 178.24C431.33 178.44 431.37 178.69 431.4 178.78C431.43 178.88 431.53 179.11 431.82 179.16L437.95 180.12L436.18 174.26L431.56 178.24Z" fill="#EE4A00"/>
<path d="M388.401 71.8613L386.455 74.1309L458.837 136.214L460.784 133.944L388.401 71.8613Z" fill="white"/>
<path d="M416.91 37.8908C403.22 59.8108 406.46 87.0208 424.61 102.591C442.58 118.011 469.8 117.201 489.34 100.681L491.27 102.961C470.61 120.431 441.76 121.231 422.67 104.851C413.31 96.8208 407.36 85.4308 405.91 72.7808C404.48 60.3008 407.49 47.3408 414.38 36.3008L416.92 37.8808L416.91 37.8908Z" fill="white"/>
<path d="M486.251 50.1307L500.551 33.4607C501.261 32.6407 501.161 31.3907 500.341 30.6907L484.591 17.1807C483.771 16.4707 482.521 16.5707 481.821 17.3907L467.521 34.0607L486.251 50.1307Z" fill="#FF6D2A"/>
<path d="M485.321 16.3307L501.071 29.8407C502.361 30.9507 502.511 32.9007 501.401 34.2007L486.371 51.7307L465.931 34.2007L480.961 16.6707C482.071 15.3807 484.021 15.2307 485.321 16.3407V16.3307ZM486.131 48.5507L499.701 32.7307C500.001 32.3807 499.961 31.8407 499.611 31.5407L483.861 18.0307C483.511 17.7307 482.971 17.7707 482.671 18.1207L469.101 33.9407L486.131 48.5507Z" fill="white"/>
<path d="M444.88 56.2603L463.98 37.8203L482.71 53.8903L467.85 75.6903C466.75 77.3003 465.28 78.6203 463.55 79.5303L432.84 95.7103C432.67 95.8003 432.5 95.5903 432.62 95.4403L454.32 70.1403C456.05 70.8603 458.13 70.4203 459.42 68.9103C460.71 67.4103 460.83 65.2803 459.86 63.6803C459.62 63.2803 459.31 62.9003 458.94 62.5803C458.52 62.2203 458.05 61.9503 457.55 61.7703C455.85 61.1503 453.86 61.6003 452.61 63.0603C451.36 64.5203 451.21 66.5503 452.09 68.1403L430.38 93.4503C430.25 93.6003 430.01 93.4503 430.08 93.2703L441.96 60.7503C442.58 59.0503 443.58 57.5103 444.88 56.2603Z" fill="#EE4A00"/>
<path d="M463.93 36.3008L484.2 53.6908L468.77 76.3208C467.57 78.0808 465.95 79.5308 464.07 80.5208L433.36 96.7008C432.81 96.9908 432.13 96.8508 431.74 96.3608C431.35 95.8708 431.36 95.1808 431.77 94.7108L454 68.7908L454.75 69.1008C456.09 69.6508 457.63 69.2808 458.57 68.1808C459.52 67.0708 459.65 65.5008 458.9 64.2608C458.5 63.5808 457.86 63.0708 457.18 62.8408C455.85 62.3608 454.37 62.7408 453.46 63.8008C452.55 64.8608 452.4 66.3908 453.07 67.6108L453.45 68.2908L431.23 94.1908C430.82 94.6708 430.13 94.7808 429.59 94.4708C429.04 94.1508 428.81 93.5008 429.02 92.9108L440.9 60.3908C441.57 58.5408 442.68 56.8408 444.1 55.4808L463.93 36.3308V36.3008ZM481.22 54.0808L464.02 39.3308L445.66 57.0608C444.49 58.1908 443.57 59.6008 443.01 61.1308L432.92 88.7508L450.77 67.9408C450.06 66.0508 450.42 63.8808 451.76 62.3208C453.27 60.5608 455.75 59.9108 457.94 60.7108C459.09 61.1108 460.17 61.9808 460.83 63.0908C462.08 65.1508 461.86 67.7808 460.28 69.6308C458.88 71.2608 456.72 71.9308 454.69 71.4308L436.7 92.4008L463.03 78.5308C464.59 77.7108 465.93 76.5108 466.93 75.0508L481.22 54.0908V54.0808Z" fill="white"/>
<path d="M459.81 140.321C462.704 140.321 465.05 137.975 465.05 135.081C465.05 132.187 462.704 129.841 459.81 129.841C456.916 129.841 454.57 132.187 454.57 135.081C454.57 137.975 456.916 140.321 459.81 140.321Z" fill="#EE4A00"/>
<path d="M387.43 78.231C390.324 78.231 392.67 75.8849 392.67 72.991C392.67 70.097 390.324 67.751 387.43 67.751C384.536 67.751 382.19 70.097 382.19 72.991C382.19 75.8849 384.536 78.231 387.43 78.231Z" fill="#EE4A00"/>
<path d="M416.091 104.483L424.038 111.3L430.854 103.353L422.907 96.5362L416.091 104.483Z" fill="#EE4A00"/>
<path d="M480.583 102.825L488.53 109.642L495.347 101.694L487.399 94.878L480.583 102.825Z" fill="#FF9460"/>
<path d="M408.206 40.7285L416.153 47.5449L422.97 39.5977L415.023 32.7813L408.206 40.7285Z" fill="#FF9460"/>
</svg>
