<svg width="600" height="530" viewBox="0 0 600 530" fill="none" xmlns="http://www.w3.org/2000/svg">
<path d="M478.36 223.621L473.4 225.421L468.13 227.331L466.68 227.861L465.24 228.381L428.76 241.631L412.26 247.621L335.5 275.501L333.62 276.181L331.87 276.821L293.34 290.811H293.33L294.2 291.181L294.35 291.241L294.44 291.271L294.58 291.321C294.58 291.321 294.61 291.331 294.63 291.341C294.66 291.351 294.68 291.361 294.7 291.371C294.84 291.431 294.97 291.501 295.09 291.571C295.11 291.591 295.13 291.601 295.15 291.611C295.21 291.651 295.26 291.681 295.31 291.721C295.35 291.751 295.39 291.781 295.42 291.801C295.44 291.811 295.46 291.831 295.48 291.841C295.48 291.841 295.52 291.881 295.54 291.901C295.58 291.941 295.62 291.971 295.66 292.011C295.71 292.051 295.75 292.091 295.79 292.141L295.85 292.201C295.85 292.201 295.89 292.241 295.9 292.271C295.93 292.291 295.95 292.311 295.97 292.341C296.01 292.391 296.05 292.441 296.08 292.491C296.12 292.531 296.16 292.591 296.19 292.641C296.25 292.731 296.31 292.821 296.36 292.921C296.39 292.981 296.42 293.041 296.45 293.101L296.59 293.361H296.56L296.55 293.371L293.27 294.561L290.03 293.251H290.02L290.04 293.211C290.04 293.211 290.05 293.181 290.06 293.161C290.09 293.081 290.13 293.011 290.17 292.941C290.2 292.871 290.24 292.801 290.29 292.731C290.31 292.691 290.33 292.651 290.36 292.621C290.39 292.561 290.43 292.511 290.47 292.461C290.5 292.411 290.54 292.371 290.57 292.331C290.66 292.231 290.75 292.131 290.85 292.031C290.9 291.981 290.96 291.931 291.02 291.881C291.05 291.851 291.08 291.831 291.11 291.811C291.19 291.741 291.28 291.681 291.37 291.621C291.4 291.601 291.43 291.581 291.47 291.561C291.55 291.511 291.64 291.461 291.73 291.421C291.74 291.411 291.75 291.411 291.75 291.411C291.81 291.381 291.87 291.351 291.93 291.331L292.08 291.271L292.17 291.241L293.32 290.821L277.91 284.581L256.4 275.871L254.59 275.141L206.15 255.541L202.57 254.091H202.56L199.42 252.811L198.97 252.631L192.3 253.701H192.29L156.41 239.181L152.83 237.731H152.82L149.25 236.271H149.23L120.29 224.561L125.02 222.701H125.03L143.04 215.641H143.06L148.14 213.611H148.2L153.35 211.591L178.74 201.631L182.04 200.331H182.05L185.34 199.031H185.36L189.69 197.311H189.75L193.89 195.691L216.14 186.961L217.45 186.441L219.36 185.701L220.42 185.281L221.25 184.951L221.83 184.721L226.3 182.961H226.32L230.6 181.281L249.95 173.691L271.85 165.101L277.13 163.031L296.02 155.621C296.67 155.361 297.34 155.161 298.02 155.011H298.06C300.86 154.351 303.8 154.561 306.51 155.631L312.55 158.021L313.19 158.271L314.14 158.651L315.35 159.131L315.72 159.281L317.52 159.981L325.68 163.211L327.17 163.801L328.67 164.401L344.56 170.691L390.37 188.811L415.75 198.851L423.55 201.951H423.57L443.24 209.721L444.17 210.091L445.1 210.461L454.78 214.291H454.79L456.83 215.101L457.84 215.501L458.86 215.911H458.87L460.89 216.711L463.92 217.911H463.93L463.98 217.941L465.57 218.561L465.84 218.671L467.15 219.191L467.4 219.291L468.97 219.911L478.35 223.621H478.36Z" fill="#05183C"/>
<path d="M155.93 235.2H155.9L159.48 236.66L155.93 235.2ZM198.98 252.63L163.09 238.11H163.07L159.5 236.66H159.48L156.4 237.15L152.8 237.72H152.81L156.39 239.18L192.27 253.7H192.28L198.95 252.63L199.4 252.81L198.97 252.63H198.98ZM254.6 275.13L206.15 255.53L202.58 254.08H202.57L199.41 252.81L202.55 254.09H202.56L206.14 255.54L254.58 275.14L256.39 275.87L254.6 275.13ZM226.32 182.96H226.3L221.83 184.72L221.25 184.95L220.42 185.28L219.36 185.7L217.45 186.44V187.06L217.52 189.83V190.18L218.26 189.89L219.43 189.43L221.34 188.68L224.17 187.57L228.45 185.89L234.35 183.58L226.33 182.96H226.32ZM254.6 275.13L206.15 255.53L202.58 254.08H202.57L199.41 252.81L202.55 254.09H202.56L206.14 255.54L254.58 275.14L256.39 275.87L254.6 275.13ZM254.6 275.13L206.15 255.53L202.58 254.08H202.57L199.41 252.81L202.55 254.09H202.56L206.14 255.54L254.58 275.14L256.39 275.87L254.6 275.13ZM277.93 284.57L256.4 275.87L277.91 284.58L293.32 290.82H293.34L277.93 284.57ZM471.94 217.32L470.37 216.7L468.81 216.08L466.69 215.24L465.11 214.61L463.52 213.99L458.9 212.16L455.85 210.95L453.82 210.15L452.8 209.74L451.79 209.34H451.78L449.74 208.53L446.57 207.28L444.71 206.54L430.91 201.07H430.89L423.07 197.98L397.69 187.94L344.09 166.73L328.93 160.73L327.44 160.14L325.94 159.55L316.87 155.96L315.25 155.32L314.71 155.1L313.67 154.69L312.55 154.25L312.08 154.06L307.8 152.37C303.59 150.72 298.96 150.71 294.74 152.36L289.63 154.36H289.59L277.44 159.15L272.14 161.22L245.99 171.48L232.77 176.67L228.48 178.35L222.57 180.67L221.18 181.21L219.27 181.96L218.29 182.35L217.37 182.71L201.93 188.78H201.9L197.61 190.46L195.75 191.19L179.82 197.47H179.75L177.24 198.45L173.93 199.75L170.63 201.05L143.25 211.79L138.09 213.81H138.02L132.93 215.83H132.91L119 221.3C118.98 221.31 118.96 221.32 118.94 221.33C118.62 221.46 118.31 221.65 118.03 221.89C117.92 221.97 117.81 222.07 117.72 222.18C117.6 222.3 117.5 222.44 117.4 222.58C117.34 222.65 117.3 222.72 117.26 222.8C116.96 223.31 116.78 223.91 116.78 224.54C116.77 225.82 117.47 226.99 118.57 227.6C118.7 227.68 118.83 227.74 118.97 227.8L121.82 228.96L142.53 237.34H142.55L146.12 238.79H146.14L149.72 240.24H149.74L185.61 254.76L192.29 253.7H192.3L198.97 252.63L199.42 252.81L198.99 252.63L163.1 238.11H163.08L159.51 236.66H159.49L155.94 235.2H155.91L129.74 224.61L153.13 215.44H153.19L158.21 213.42H158.28L163.44 211.39L186.83 202.22H186.85L193.45 199.62L213.97 191.57L217.53 190.18L218.26 189.89L219.43 189.43L221.34 188.68L224.17 187.57L228.45 185.89L234.35 183.58L236.36 182.79L245.75 179.1L249.08 177.78H249.12L257.96 174.31H257.97L271.56 168.98L276.85 166.91L297.31 158.88C299.34 158.08 301.54 157.92 303.64 158.4C304.18 158.52 304.71 158.68 305.23 158.89L313.03 161.98L313.85 162.3L314.62 162.6L316 163.15H316.01L316.2 163.23L318.17 164.01L325.42 166.88L326.92 167.47L328.41 168.06L345.04 174.64L383.06 189.68L408.45 199.72L416.25 202.82H416.27L429.39 208.01L436.05 210.64L441.78 212.91L442.71 213.28L443.64 213.64L459.83 220.05H459.84L461.88 220.86L462.89 221.26L463.91 221.66L464.47 221.88L466.03 222.5H466.06L467.64 223.14L473.41 225.42L478.37 223.62L482.09 222.27C482.9 221.98 483.76 222 484.52 222.29L471.95 217.32H471.94ZM296.59 293.36L296.45 293.1C296.42 293.04 296.39 292.98 296.36 292.92C296.31 292.82 296.25 292.73 296.19 292.64C296.16 292.59 296.12 292.53 296.08 292.49C296.05 292.44 296.01 292.39 295.97 292.34C295.95 292.31 295.93 292.29 295.9 292.27C295.9 292.24 295.87 292.22 295.85 292.2L295.79 292.14C295.79 292.14 295.71 292.05 295.66 292.01C295.62 291.97 295.58 291.94 295.54 291.9C295.52 291.88 295.5 291.87 295.48 291.85C295.48 291.85 295.44 291.81 295.42 291.8C295.39 291.78 295.35 291.75 295.31 291.72C295.26 291.68 295.21 291.65 295.15 291.61C295.13 291.6 295.11 291.59 295.09 291.57C294.97 291.5 294.84 291.43 294.7 291.37C294.68 291.36 294.66 291.35 294.63 291.34C294.61 291.33 294.6 291.33 294.58 291.32L294.44 291.27L294.35 291.24L294.2 291.18L293.33 290.82H293.34L277.93 284.57L256.4 275.87L277.91 284.58L293.32 290.82L292.17 291.24L292.08 291.27L291.93 291.33C291.87 291.35 291.81 291.38 291.75 291.41C291.75 291.41 291.74 291.41 291.73 291.42C291.64 291.46 291.55 291.51 291.47 291.56C291.43 291.58 291.4 291.6 291.37 291.62C291.28 291.68 291.19 291.74 291.11 291.81C291.08 291.83 291.05 291.85 291.02 291.88C290.96 291.93 290.9 291.98 290.85 292.03C290.75 292.13 290.66 292.23 290.57 292.33C290.54 292.37 290.5 292.41 290.47 292.46C290.43 292.51 290.39 292.56 290.36 292.62C290.33 292.65 290.31 292.69 290.29 292.73C290.24 292.8 290.2 292.87 290.17 292.94C290.13 293.01 290.09 293.08 290.06 293.16C290.05 293.18 290.04 293.2 290.04 293.21L290.02 293.25C290.02 293.25 290.01 293.27 290.01 293.28C290 293.3 289.99 293.32 289.99 293.34L288.63 296.45L289.76 296.91L290.74 297.31L291.87 297.77L291.95 297.8C292.37 297.98 292.8 298.06 293.25 298.06H293.26C293.66 298.06 294.07 297.99 294.45 297.85L294.87 297.7L295.87 297.33L296.75 297.01L298.18 296.5L296.58 293.36H296.59ZM254.6 275.13L206.15 255.53L202.58 254.08H202.57L199.41 252.81L202.55 254.09H202.56L206.14 255.54L254.58 275.14L256.39 275.87L254.6 275.13ZM226.32 182.96H226.3L221.83 184.72L221.25 184.95L220.42 185.28L219.36 185.7L217.45 186.44V187.06L217.52 189.83V190.18L218.26 189.89L219.43 189.43L221.34 188.68L224.17 187.57L228.45 185.89L234.35 183.58L226.33 182.96H226.32ZM155.93 235.2H155.9L159.48 236.66L155.93 235.2ZM198.98 252.63L163.09 238.11H163.07L159.5 236.66H159.48L156.4 237.15L152.8 237.72H152.81L156.39 239.18L192.27 253.7H192.28L198.95 252.63L199.4 252.81L198.97 252.63H198.98ZM254.6 275.13L206.15 255.53L202.58 254.08H202.57L199.41 252.81L202.55 254.09H202.56L206.14 255.54L254.58 275.14L256.39 275.87L254.6 275.13Z" fill="white"/>
<path d="M293.27 294.561L292.77 526.091C291.09 526.051 289.41 525.721 287.82 525.081L131.66 462.621C126.28 460.461 122.73 455.281 122.67 449.481L121.1 302.191L254.52 355.931C260.22 358.231 266.73 355.571 269.18 349.921L293.27 294.561Z" fill="#1A3C7D"/>
<path d="M296.75 294.22C296.75 294.13 296.73 294.04 296.72 293.95C296.7 293.85 296.68 293.76 296.65 293.66C296.63 293.57 296.6 293.47 296.56 293.38L296.55 293.37C296.54 293.33 296.53 293.28 296.51 293.24C296.49 293.19 296.47 293.14 296.45 293.1C296.42 293.04 296.39 292.98 296.36 292.92C296.31 292.82 296.25 292.73 296.19 292.64C296.16 292.59 296.12 292.53 296.08 292.49C296.05 292.44 296.01 292.39 295.97 292.34C295.95 292.31 295.93 292.29 295.9 292.27C295.9 292.24 295.87 292.22 295.85 292.2L295.79 292.14C295.79 292.14 295.71 292.05 295.66 292.01C295.62 291.97 295.58 291.94 295.54 291.9C295.52 291.88 295.5 291.87 295.48 291.85C295.48 291.85 295.44 291.81 295.42 291.8C295.39 291.78 295.35 291.75 295.31 291.72C295.26 291.68 295.21 291.65 295.15 291.61C295.13 291.6 295.11 291.59 295.09 291.57C294.97 291.5 294.84 291.43 294.7 291.37C294.68 291.36 294.66 291.35 294.63 291.34C294.61 291.33 294.6 291.33 294.58 291.32L294.44 291.27L294.35 291.24L294.2 291.18C294.13 291.16 294.06 291.14 293.99 291.13C293.94 291.12 293.9 291.11 293.85 291.11C293.57 291.06 293.28 291.05 292.99 291.07C292.91 291.08 292.84 291.09 292.77 291.1C292.75 291.1 292.72 291.1 292.7 291.11C292.62 291.12 292.53 291.14 292.45 291.16C292.36 291.18 292.26 291.21 292.17 291.24L292.08 291.27L291.93 291.33C291.87 291.35 291.81 291.38 291.75 291.41C291.75 291.41 291.74 291.41 291.73 291.42C291.64 291.46 291.55 291.51 291.47 291.56C291.43 291.58 291.4 291.6 291.37 291.62C291.28 291.68 291.19 291.74 291.11 291.81C291.08 291.83 291.05 291.85 291.02 291.88C290.96 291.93 290.9 291.98 290.85 292.03C290.75 292.13 290.66 292.23 290.57 292.33C290.54 292.37 290.5 292.41 290.47 292.46C290.43 292.51 290.39 292.56 290.36 292.62C290.33 292.65 290.31 292.69 290.29 292.73C290.24 292.8 290.2 292.87 290.17 292.94C290.13 293.01 290.09 293.08 290.06 293.16C290.05 293.18 290.04 293.2 290.04 293.21L290.02 293.25C290.02 293.25 290.01 293.27 290.01 293.28C290 293.3 289.99 293.32 289.99 293.34L288.63 296.45L265.97 348.53C264.29 352.4 259.74 354.26 255.83 352.68L122.33 298.91C121.26 298.52 120.07 298.66 119.13 299.3C118.55 299.69 118.11 300.25 117.86 300.88C117.68 301.31 117.6 301.76 117.6 302.23L117.62 304.57L119.17 449.52C119.24 456.75 123.64 463.17 130.36 465.87L286.51 528.33C288.45 529.1 290.51 529.53 292.64 529.59H292.77C293.68 529.59 294.56 529.23 295.21 528.6C295.89 527.94 296.27 527.04 296.27 526.1V522.14L296.74 309.03L296.76 301.38V294.57C296.76 294.57 296.77 294.56 296.77 294.55C296.77 294.44 296.76 294.33 296.75 294.22ZM124.66 307.41V307.39L253.21 359.18C255.06 359.92 256.96 360.28 258.83 360.28C259.22 360.28 259.61 360.26 260 360.23C260.62 360.18 261.23 360.1 261.83 359.96C262.92 359.74 263.99 359.39 264.99 358.92C265.23 358.81 265.47 358.7 265.7 358.57C265.87 358.48 266.03 358.39 266.19 358.3C266.41 358.17 266.63 358.04 266.84 357.9C269.21 356.36 271.17 354.12 272.39 351.32L289.73 311.47L289.28 521.89C289.23 521.87 289.17 521.85 289.12 521.83L132.96 459.37C128.88 457.73 126.22 453.84 126.17 449.44L124.66 307.41Z" fill="white"/>
<path d="M483.75 450.841C483.76 456.951 479.89 462.401 474.11 464.401L297.81 525.321C296.18 525.881 294.47 526.141 292.77 526.091L293.27 294.561L322.18 351.081C324.8 356.201 330.84 358.561 336.23 356.561L483.43 302.111L483.75 450.841Z" fill="#06296B"/>
<path d="M486.94 304.55V302.1C486.93 301.68 486.86 301.28 486.71 300.9C486.47 300.23 486.03 299.65 485.43 299.24C484.58 298.64 483.51 298.46 482.52 298.73L335.01 353.28C331.29 354.66 327.11 353.03 325.3 349.49L298.19 296.5L296.59 293.36L296.45 293.1C296.42 293.04 296.39 292.98 296.36 292.92C296.31 292.82 296.25 292.73 296.19 292.64C296.16 292.59 296.12 292.53 296.08 292.49C296.05 292.44 296.01 292.39 295.97 292.34C295.95 292.31 295.93 292.29 295.9 292.27C295.9 292.24 295.87 292.22 295.85 292.2L295.79 292.14C295.79 292.14 295.71 292.05 295.66 292.01C295.62 291.97 295.58 291.94 295.54 291.9C295.52 291.88 295.5 291.87 295.48 291.85C295.48 291.85 295.44 291.81 295.42 291.8C295.39 291.78 295.35 291.75 295.31 291.72C295.26 291.68 295.21 291.65 295.15 291.61C295.13 291.6 295.11 291.59 295.09 291.57C294.97 291.5 294.84 291.43 294.7 291.37C294.68 291.36 294.66 291.35 294.63 291.34C294.61 291.33 294.6 291.33 294.58 291.32L294.44 291.27L294.35 291.24L294.2 291.18C294.09 291.15 293.97 291.13 293.85 291.11C293.57 291.06 293.28 291.05 292.99 291.07C292.91 291.08 292.84 291.09 292.77 291.1C292.75 291.1 292.72 291.1 292.7 291.11C292.62 291.12 292.53 291.14 292.45 291.16C292.36 291.18 292.26 291.21 292.17 291.24L292.08 291.27L291.93 291.33C291.87 291.35 291.81 291.38 291.75 291.41C291.75 291.41 291.74 291.41 291.73 291.42C291.64 291.46 291.55 291.51 291.47 291.56C291.43 291.58 291.4 291.6 291.37 291.62C291.28 291.68 291.19 291.74 291.11 291.81C291.08 291.83 291.05 291.85 291.02 291.88C290.96 291.93 290.9 291.98 290.85 292.03C290.75 292.13 290.66 292.23 290.57 292.33C290.54 292.37 290.5 292.41 290.47 292.46C290.43 292.51 290.39 292.56 290.36 292.62C290.33 292.65 290.31 292.69 290.29 292.73C290.24 292.8 290.2 292.87 290.17 292.94C290.13 293.01 290.09 293.08 290.06 293.16C290.05 293.18 290.04 293.2 290.04 293.21C290.03 293.23 290.03 293.24 290.03 293.25H290.02C290.02 293.25 290.01 293.27 290.01 293.28C290 293.3 289.99 293.32 289.99 293.34C289.96 293.42 289.93 293.51 289.91 293.59C289.88 293.69 289.85 293.8 289.83 293.9C289.83 293.92 289.83 293.94 289.82 293.96C289.79 294.15 289.77 294.35 289.77 294.55L289.76 296.91V302.63L289.75 302.65L289.73 311.45V311.47L289.28 521.89V525.57L289.27 526.08C289.27 527.97 290.75 529.51 292.64 529.59H292.77C292.91 529.59 293.04 529.6 293.19 529.6C295.15 529.6 297.08 529.27 298.95 528.63L475.25 467.71C482.43 465.22 487.25 458.45 487.25 450.85V450.83L486.94 304.55ZM296.28 522.14L296.74 309.03L319.06 352.67C319.39 353.31 319.75 353.91 320.16 354.48C320.76 355.34 321.44 356.11 322.19 356.81C324.94 359.35 328.56 360.77 332.3 360.77C334.01 360.77 335.75 360.47 337.44 359.84L479.94 307.13L480.25 450.85C480.26 455.47 477.33 459.58 472.97 461.09L296.67 522.01C296.54 522.06 296.41 522.1 296.28 522.14Z" fill="white"/>
<path d="M243.03 278.001H243.01L264.54 286.711L243.03 278.001ZM290.03 293.251H290.02C290.02 293.251 290.01 293.271 290.01 293.281C290 293.301 289.99 293.321 289.99 293.341L288.63 296.451L264.55 286.711L288.63 296.461L265.97 348.531C264.29 352.401 259.74 354.261 255.83 352.681L122.33 298.911L98.0899 289.151C95.9899 288.311 94.3599 286.591 93.6099 284.461C92.8599 282.321 93.0699 279.971 94.1799 278.001L108.5 252.581V252.651C109.29 257.521 111.92 261.761 115.92 264.601C119.06 266.831 122.78 267.991 126.62 267.991C127.63 267.991 128.64 267.911 129.66 267.751L192.77 257.671L189.2 256.221H189.19L185.6 254.761L192.28 253.701L156.4 239.181L152.82 237.731H152.81L149.24 236.271H149.22L120.28 224.561L118.57 227.601L110.78 241.411L110.17 242.511L109.21 244.221L107.66 246.961L107.62 247.031L91.1399 276.281C87.7699 282.261 90.4299 289.831 96.7899 292.401L117.87 300.881L121.11 302.191L254.53 355.931C260.23 358.231 266.74 355.571 269.19 349.921L289.76 302.651V302.631L291.47 298.711L291.63 298.361L291.89 297.771L293.28 294.561L290.04 293.251H290.03ZM243.03 278.001H243.01L264.54 286.711L243.03 278.001Z" fill="#1A3C7D"/>
<path d="M192.28 253.7L156.4 239.18L152.82 237.73L149.43 238.27L147.86 238.52L146.14 238.79L149.7 240.25H149.71L185.6 254.77L189.2 256.22L185.61 254.76L192.29 253.7H192.28ZM243.03 278H243.01L264.54 286.71L243.03 278ZM243.03 278H243.01L264.54 286.71L243.03 278ZM243.03 278H243.01L264.54 286.71L243.03 278ZM296.75 294.22C296.75 294.13 296.73 294.04 296.72 293.95C296.7 293.85 296.68 293.76 296.65 293.66C296.63 293.57 296.6 293.47 296.56 293.38C296.55 293.33 296.53 293.28 296.51 293.24C296.49 293.19 296.47 293.14 296.45 293.1C296.42 293.04 296.39 292.98 296.36 292.92C296.31 292.82 296.25 292.73 296.19 292.64C296.16 292.59 296.12 292.53 296.08 292.49C296.05 292.44 296.01 292.39 295.97 292.34C295.95 292.31 295.93 292.29 295.9 292.27C295.9 292.24 295.87 292.22 295.85 292.2L295.79 292.14C295.79 292.14 295.71 292.05 295.66 292.01C295.62 291.97 295.58 291.94 295.54 291.9C295.52 291.88 295.5 291.87 295.48 291.85C295.46 291.83 295.44 291.82 295.42 291.8C295.39 291.78 295.35 291.75 295.31 291.72C295.26 291.68 295.21 291.65 295.15 291.61C295.13 291.6 295.11 291.59 295.09 291.57C294.97 291.5 294.84 291.43 294.7 291.37C294.68 291.36 294.66 291.35 294.63 291.34C294.61 291.33 294.6 291.33 294.58 291.32L294.44 291.27L294.35 291.24L294.2 291.18L293.33 290.82H293.32L292.17 291.24L292.08 291.27L291.93 291.33C291.87 291.35 291.81 291.38 291.75 291.41C291.75 291.41 291.74 291.41 291.73 291.42C291.64 291.46 291.55 291.51 291.47 291.56C291.43 291.58 291.4 291.6 291.37 291.62C291.28 291.68 291.19 291.74 291.11 291.81C291.08 291.83 291.05 291.85 291.02 291.88C290.96 291.93 290.9 291.98 290.85 292.03C290.75 292.13 290.66 292.23 290.57 292.33C290.54 292.37 290.5 292.41 290.47 292.46C290.43 292.51 290.39 292.56 290.36 292.62C290.33 292.65 290.31 292.69 290.29 292.73C290.24 292.8 290.2 292.87 290.17 292.94C290.13 293.01 290.09 293.08 290.06 293.16C290.05 293.18 290.04 293.2 290.04 293.21L290.02 293.25C290.02 293.25 290.01 293.27 290.01 293.28C290 293.3 289.99 293.32 289.99 293.34L288.63 296.45L264.55 286.71L288.63 296.46L265.97 348.53C264.29 352.4 259.74 354.26 255.83 352.68L122.33 298.91L98.0899 289.15C95.9899 288.31 94.3599 286.59 93.6099 284.46C92.8599 282.32 93.0699 279.97 94.1799 278L108.5 252.58L110.08 249.78L111.65 246.99L112.06 246.26L113.32 244.03L114.57 241.81L121.81 228.96L142.52 237.34H142.54L146.11 238.79H146.13L149.69 240.25H149.7L185.59 254.77L189.19 256.22L185.6 254.76L192.28 253.7H192.29L198.96 252.63L163.09 238.11H163.07L159.5 236.66H159.48L155.9 235.21L129.73 224.61L125.01 222.7H125L121.58 221.32C120.71 220.96 119.76 220.98 118.93 221.32C118.61 221.45 118.3 221.64 118.02 221.88C117.91 221.96 117.8 222.06 117.71 222.17C117.59 222.29 117.49 222.43 117.39 222.57C117.33 222.64 117.29 222.71 117.25 222.79C117.24 222.8 117.23 222.82 117.22 222.83L109.89 235.85L108.31 238.65L106.73 241.45L88.0799 274.55C85.9799 278.28 85.5899 282.72 86.9999 286.76C88.4099 290.8 91.4999 294.03 95.4699 295.64L117.62 304.56L124.66 307.4L253.21 359.17C255.06 359.91 256.96 360.27 258.83 360.27C259.22 360.27 259.61 360.25 260 360.22C260.62 360.17 261.23 360.09 261.83 359.95C262.92 359.73 263.99 359.38 264.99 358.91C265.23 358.8 265.47 358.69 265.7 358.56C265.87 358.47 266.03 358.38 266.19 358.29C266.41 358.16 266.63 358.03 266.84 357.89C269.21 356.35 271.17 354.11 272.39 351.31L289.73 311.46V311.44L293.25 303.37L293.53 302.74L295.33 298.58L295.88 297.32L296.48 295.95C296.68 295.5 296.77 295.04 296.77 294.56V294.54C296.77 294.43 296.76 294.32 296.75 294.21V294.22ZM243.03 278H243.01L264.54 286.71L243.03 278ZM197.08 259.42L241.21 277.27L197.08 259.41V259.42ZM243.03 278.01H243.01L264.54 286.72L243.03 278.01ZM243.03 278.01H243.01L264.54 286.72L243.03 278.01ZM243.03 278.01H243.01L264.54 286.72L243.03 278.01ZM243.03 278.01H243.01L264.54 286.72L243.03 278.01ZM192.28 253.71L156.4 239.19L152.82 237.74L149.43 238.28L147.86 238.53L146.14 238.8L149.7 240.26H149.71L185.6 254.78L189.2 256.23L185.61 254.77L192.29 253.71H192.28Z" fill="white"/>
<path d="M293.32 290.82L292.17 291.24L292.08 291.27L291.93 291.33C291.87 291.35 291.81 291.38 291.75 291.41C291.75 291.41 291.74 291.41 291.73 291.42C291.64 291.46 291.55 291.51 291.47 291.56C291.43 291.58 291.4 291.6 291.37 291.62C291.28 291.68 291.19 291.74 291.11 291.81C291.08 291.83 291.05 291.85 291.02 291.88C290.96 291.93 290.9 291.98 290.85 292.03C290.75 292.13 290.66 292.23 290.57 292.33C290.54 292.37 290.5 292.41 290.47 292.46C290.43 292.51 290.39 292.56 290.36 292.62C290.33 292.65 290.31 292.69 290.29 292.73C290.24 292.8 290.2 292.87 290.17 292.94C290.13 293.01 290.09 293.08 290.06 293.16C290.05 293.18 290.04 293.2 290.04 293.21L290.02 293.25C290.02 293.25 290.01 293.27 290.01 293.28C290 293.3 289.99 293.32 289.99 293.34L288.63 296.45L264.55 286.71H264.54L243.03 278H243.01L241.22 277.27H241.21L197.08 259.41L192.78 257.67H192.77L189.2 256.22H189.19L185.6 254.76L192.28 253.7H192.29L198.96 252.63L199.41 252.81L202.55 254.09H202.56L206.14 255.54L254.58 275.14L256.39 275.87L277.9 284.58L293.31 290.82H293.32Z" fill="white"/>
<path d="M288.63 296.46L265.97 348.53C264.29 352.4 259.74 354.26 255.83 352.68L122.33 298.91L98.0901 289.15C95.9901 288.31 94.3601 286.59 93.6101 284.46C92.8601 282.32 93.0701 279.97 94.1801 278L108.5 252.58V252.65C109.29 257.52 111.92 261.76 115.92 264.6C119.06 266.83 122.78 267.99 126.62 267.99C127.63 267.99 128.64 267.91 129.66 267.75L192.77 257.67H192.78L197.08 259.41L241.21 277.27H241.22L243.01 278L264.54 286.71H264.55L288.63 296.46Z" fill="#1A3C7D"/>
<path d="M513.07 284.291C512.31 286.561 510.59 288.331 508.35 289.171L482.52 298.731L335.01 353.281C331.29 354.661 327.11 353.031 325.3 349.491L298.19 296.501L345.5 279.321L351.69 277.071L357.85 274.831H357.88L466.09 235.531L467.53 235.001L468.98 234.481L481.83 229.811L512.25 277.561C513.53 279.571 513.83 282.031 513.07 284.291Z" fill="#06296B"/>
<path d="M509.56 292.451L486.71 300.901L483.43 302.111L336.23 356.561C330.84 358.561 324.8 356.201 322.18 351.081L296.76 301.381L295.33 298.591L294.88 297.701L293.27 294.561L296.55 293.371H296.59L298.19 296.491L345.47 279.321L351.66 277.071H351.69L345.5 279.321L298.19 296.501L325.3 349.491C327.11 353.031 331.29 354.661 335.01 353.281L482.52 298.731L508.35 289.171C510.59 288.331 512.31 286.561 513.07 284.291C513.83 282.031 513.53 279.571 512.25 277.561L481.83 229.811L484.46 228.851C484.71 228.761 484.93 228.651 485.14 228.501L515.19 275.681C519.08 281.791 516.34 289.931 509.55 292.451H509.56Z" fill="#06296B"/>
<path d="M351.66 277.071L345.47 279.321L298.19 296.491L345.5 279.321L351.69 277.071H351.66ZM518.15 273.801L486.3 223.811C486.61 224.351 486.78 224.971 486.77 225.611C486.75 226.801 486.13 227.881 485.15 228.501C484.94 228.651 484.72 228.761 484.47 228.851L481.84 229.811L512.26 277.561C513.54 279.571 513.84 282.031 513.08 284.291C512.32 286.561 510.6 288.331 508.36 289.171L482.53 298.731L335.02 353.281C331.3 354.661 327.12 353.031 325.31 349.491L298.2 296.501L345.51 279.321L351.7 277.071H351.67L345.48 279.321L298.2 296.491L296.6 293.361L296.46 293.101C296.43 293.041 296.4 292.981 296.37 292.921C296.32 292.821 296.26 292.731 296.2 292.641C296.17 292.591 296.13 292.531 296.09 292.491C296.06 292.441 296.02 292.391 295.98 292.341C295.96 292.311 295.94 292.291 295.91 292.271C295.91 292.241 295.88 292.221 295.86 292.201L295.8 292.141C295.8 292.141 295.72 292.051 295.67 292.011C295.63 291.971 295.59 291.941 295.55 291.901C295.53 291.881 295.51 291.871 295.49 291.851C295.49 291.851 295.45 291.811 295.43 291.801C295.4 291.781 295.36 291.751 295.32 291.721C295.27 291.681 295.22 291.651 295.16 291.611C295.14 291.601 295.12 291.591 295.1 291.571C294.98 291.501 294.85 291.431 294.71 291.371C294.69 291.361 294.67 291.351 294.64 291.341C294.62 291.331 294.61 291.331 294.59 291.321L294.45 291.271L294.36 291.241L294.21 291.181L293.34 290.821H293.33L292.18 291.241L292.09 291.271L291.94 291.331C291.88 291.351 291.82 291.381 291.76 291.411C291.76 291.411 291.75 291.411 291.74 291.421C291.65 291.461 291.56 291.511 291.48 291.561C291.44 291.581 291.41 291.601 291.38 291.621C291.29 291.681 291.2 291.741 291.12 291.811C291.09 291.831 291.06 291.851 291.03 291.881C290.97 291.931 290.91 291.981 290.86 292.031C290.76 292.131 290.67 292.231 290.58 292.331C290.55 292.371 290.51 292.411 290.48 292.461C290.44 292.511 290.4 292.561 290.37 292.621C290.34 292.651 290.32 292.691 290.3 292.731C290.25 292.801 290.21 292.871 290.18 292.941C290.14 293.011 290.1 293.081 290.07 293.161C290.06 293.181 290.05 293.201 290.05 293.211C290.04 293.231 290.04 293.241 290.04 293.251H290.03C290.03 293.251 290.02 293.271 290.02 293.281C290.01 293.301 290 293.321 290 293.341C289.97 293.421 289.94 293.511 289.92 293.591C289.89 293.691 289.86 293.801 289.84 293.901C289.84 293.921 289.84 293.941 289.83 293.961C289.8 294.151 289.78 294.351 289.78 294.551C289.78 295.111 289.91 295.651 290.16 296.151L290.75 297.311L291.47 298.711L293.26 302.221V302.291L293.54 302.751L296.75 309.031L319.07 352.671C319.4 353.311 319.76 353.911 320.17 354.481C320.77 355.341 321.45 356.111 322.2 356.811C324.95 359.351 328.57 360.771 332.31 360.771C334.02 360.771 335.76 360.471 337.45 359.841L479.95 307.131L483.45 305.841L486.95 304.551L510.78 295.731H510.79C515.02 294.161 518.28 290.801 519.71 286.521C521.15 282.241 520.59 277.611 518.16 273.801H518.15ZM351.66 277.071L345.47 279.321L298.19 296.491L345.5 279.321L351.69 277.071H351.66ZM351.66 277.071L345.47 279.321L298.19 296.491L345.5 279.321L351.69 277.071H351.66Z" fill="white"/>
<path d="M456.53 183.49C455.89 183.23 455.25 182.97 454.6 182.71C453.95 182.45 453.32 182.19 452.67 181.94C446.57 179.53 440.29 177.24 433.83 175.1C433.18 174.88 432.54 174.67 431.89 174.46C431.24 174.25 430.6 174.04 429.95 173.83C414.18 168.76 397.44 164.49 379.9 161.14C370.25 159.28 360.36 157.7 350.27 156.43C333.17 154.27 315.48 152.93 297.36 152.54C290.52 152.4 283.74 152.38 277.02 152.49C276.33 152.49 275.65 152.52 274.96 152.53C274.28 152.55 273.59 152.57 272.91 152.59C270.35 152.66 267.81 152.74 265.27 152.84H265.26C264.58 152.87 263.91 152.9 263.24 152.93C262.56 152.96 261.89 152.99 261.22 153.03C255.86 153.29 250.54 153.63 245.27 154.06C244.18 154.14 243.09 154.23 242 154.34C241.81 154.36 241.62 154.37 241.43 154.39C240.75 154.45 240.07 154.51 239.4 154.57C238.72 154.64 238.04 154.71 237.37 154.77C231.05 155.38 224.82 156.12 218.66 156.97C216.64 157.25 214.62 157.54 212.61 157.85C209.35 158.34 206.12 158.86 202.92 159.43C202.59 159.47 202.26 159.54 201.93 159.6C195.28 160.76 188.75 162.07 182.34 163.5C175 165.15 167.82 166.96 160.84 168.94C152.03 171.43 143.51 174.19 135.33 177.19C134.7 177.42 134.07 177.65 133.45 177.89C132.82 178.12 132.19 178.35 131.57 178.59C64.6097 204.03 20.7797 245.77 19.7397 293.81C19.0297 326.54 38.2897 357.22 71.4397 382.4C77.5997 387.07 84.2397 391.56 91.3197 395.83C97.0897 399.33 103.17 402.67 109.52 405.87C111.81 407.02 114.14 408.16 116.5 409.27C160.8 430.17 217.25 443.85 279.27 446.6C281.59 446.7 283.93 446.79 286.27 446.86C287.83 446.92 289.4 446.95 290.97 446.99C359.32 448.48 422.12 436.43 470.65 415.3C473.04 414.26 475.39 413.2 477.69 412.12C520.67 392.03 551.4 364.55 563.24 333.07C566.34 324.86 568.14 316.37 568.54 307.67C568.57 307.03 568.59 306.38 568.6 305.73C569.67 256.39 525.38 211.74 456.52 183.52L456.53 183.49Z" stroke="white" stroke-width="6.77" stroke-miterlimit="10"/>
<path d="M71.4198 400.97L69.6398 410.2C69.3898 411.36 67.7598 411.39 67.4598 410.25L65.0698 401C63.8598 396.31 61.3598 391.98 57.9498 388.58C55.2598 385.88 51.9998 383.76 48.3798 382.5L47.4698 382.18L46.1398 381.71C45.0998 381.35 45.1598 379.85 46.2298 379.57H46.2498C46.6298 379.47 47.0198 379.36 47.3898 379.24C56.1698 376.49 62.7998 368.9 64.8898 359.88L65.0698 359.19L67.1998 350.859C67.4698 349.689 69.1398 349.71 69.3798 350.89L71.0798 359.12L71.2298 359.85C73.1898 369.28 80.1098 376.4 89.2698 379.04C89.6898 379.16 90.1198 379.27 90.5498 379.38C91.1198 379.51 91.4098 379.99 91.4098 380.47C91.4098 380.91 91.1598 381.36 90.6498 381.53L89.2098 382.02L88.4998 382.26C84.6798 383.56 81.2598 385.62 78.4798 388.29C74.9698 391.65 72.4598 395.98 71.3998 400.97H71.4198Z" fill="white" stroke="#E4DEDE" stroke-width="1.27" stroke-miterlimit="10"/>
<path d="M568.27 326.56C574.897 326.56 580.27 321.187 580.27 314.56C580.27 307.932 574.897 302.56 568.27 302.56C561.642 302.56 556.27 307.932 556.27 314.56C556.27 321.187 561.642 326.56 568.27 326.56Z" fill="white" stroke="#E4DEDE" stroke-width="2" stroke-miterlimit="10"/>
<path d="M241.211 277.27L197.081 259.42V259.41L241.211 277.27Z" fill="#EE4A00"/>
<path d="M262.451 274.9L256.401 275.87H256.391L254.581 275.14L206.141 255.54L202.561 254.09H202.551L199.411 252.81V252.8L199.501 252.54L200.641 249.32L237.181 243.49L239.351 246.18L240.791 247.98L242.231 249.77L261.721 274L262.451 274.9Z" fill="#EE4A00"/>
<path d="M304.2 89.3097L323.55 210.46L109.27 244.69L89.9204 123.54C88.3204 113.55 94.3204 104.29 103.32 102.85L285.02 73.8297C294.02 72.3897 302.61 79.3297 304.2 89.3197V89.3097Z" fill="#EE4A00"/>
<path d="M107.611 246.97L87.9406 123.85C87.0906 118.53 88.1606 113.22 90.9606 108.9C93.8006 104.51 98.0806 101.66 103.001 100.87L284.701 71.85C294.781 70.23 304.411 77.93 306.171 89L325.841 212.12L107.611 246.98V246.97ZM287.381 75.63C286.701 75.63 286.021 75.68 285.331 75.79L103.631 104.81C99.8406 105.42 96.5306 107.64 94.3206 111.06C92.0606 114.55 91.2006 118.87 91.8906 123.21L110.921 242.38L321.251 208.79L302.221 89.62C300.921 81.51 294.491 75.63 287.371 75.63H287.381Z" fill="white"/>
<path d="M311.041 236.76L240.791 247.98L202.581 254.08H202.561L202.551 254.09L199.411 252.81L198.961 252.63L192.291 253.7H192.281L185.601 254.76L189.191 256.22L129.341 265.78C120.341 267.21 111.921 261.33 110.491 252.33L110.081 249.78L109.581 246.66L109.261 244.68H109.271L113.321 244.03L146.111 238.79H146.131L147.851 238.52L152.801 237.72L156.401 237.15L159.481 236.66H159.501L316.511 211.57L323.511 210.46H323.551L323.861 212.43L324.771 218.11C326.211 227.1 320.041 235.32 311.041 236.76Z" fill="#FF6D2A"/>
<path d="M326.751 217.79L325.841 212.11L325.211 208.17L323.301 208.47H323.241L323.231 208.48L321.261 208.79L314.411 209.88H314.381L307.781 210.94H307.751L155.931 235.2H155.901L149.231 236.27H149.211L142.541 237.34H142.521L114.571 241.81L110.931 242.39L110.161 242.51L108.951 242.7L106.981 243.02H106.971L107.611 247.03L108.501 252.58V252.65C109.291 257.52 111.921 261.76 115.921 264.6C119.061 266.83 122.781 267.99 126.621 267.99C127.631 267.99 128.641 267.91 129.661 267.75L192.771 257.67L189.201 256.22H189.191L185.601 254.76H185.591L129.031 263.8C125.181 264.42 121.351 263.54 118.231 261.34C115.121 259.13 113.071 255.82 112.461 252.02L111.651 246.99L111.551 246.34L112.061 246.26L149.691 240.25H149.711L149.731 240.24L156.391 239.18L163.061 238.11H163.081L321.881 212.74L322.791 218.42C324.051 226.31 318.741 233.5 310.721 234.78L239.341 246.18L199.491 252.54L198.971 252.63H198.951L199.401 252.81L202.541 254.09H202.551L206.131 255.54L242.211 249.77L311.341 238.73C321.411 237.12 328.311 227.73 326.731 217.79H326.751Z" fill="white"/>
<path d="M264.541 286.71L243.011 278H243.031L264.541 286.71Z" fill="#FF6D2A"/>
<path d="M287.031 283.12L277.931 284.57H277.911L256.401 275.87L254.591 275.14H254.611L261.731 274L284.991 270.28C286.641 270.02 288.191 271.14 288.451 272.79L289.551 279.66C289.811 281.31 288.691 282.86 287.041 283.12H287.031Z" fill="#FF6D2A"/>
<path d="M185.29 27.5798L237.34 197.14C237.85 198.79 236.92 200.53 235.27 201.04L78.72 249.1C77.07 249.61 75.33 248.68 74.82 247.03L22.84 77.6898C22.03 75.0598 23.69 72.2298 26.54 71.3598L178.98 24.5698C181.69 23.7398 184.53 25.0798 185.29 27.5898V27.5798Z" fill="#FF9460"/>
<path d="M79.1904 250.96C76.5604 251.71 73.7904 250.22 72.9904 247.59L21.0104 78.2602C20.4604 76.4702 20.6904 74.5702 21.6604 72.9102C22.6004 71.3002 24.1304 70.1002 25.9704 69.5302L178.41 22.7302C180.16 22.1802 182.06 22.3102 183.69 23.0902C185.37 23.8902 186.59 25.2902 187.13 27.0202L239.18 196.58C239.58 197.87 239.45 199.23 238.81 200.42C238.18 201.61 237.12 202.48 235.84 202.88L79.2904 250.93C79.2904 250.93 79.2204 250.95 79.1904 250.96ZM179.61 26.3802C179.61 26.3802 179.56 26.3902 179.54 26.4002L27.1004 73.2002C26.1804 73.4802 25.4304 74.0602 24.9804 74.8402C24.5604 75.5702 24.4504 76.3802 24.6804 77.1302L76.6604 246.47C76.7504 246.78 76.9604 247.03 77.2504 247.18C77.5304 247.33 77.8704 247.41 78.1704 247.27L234.72 199.21C235.03 199.12 235.28 198.91 235.43 198.63C235.58 198.35 235.61 198.02 235.52 197.71L183.45 28.1502C183.24 27.4602 182.74 26.8902 182.03 26.5602C181.29 26.2102 180.44 26.1502 179.61 26.3802Z" fill="white"/>
<path d="M38.5509 84.7902C40.5777 84.7902 42.2209 83.1471 42.2209 81.1202C42.2209 79.0933 40.5777 77.4502 38.5509 77.4502C36.524 77.4502 34.8809 79.0933 34.8809 81.1202C34.8809 83.1471 36.524 84.7902 38.5509 84.7902Z" fill="#FF6D2A"/>
<path d="M49.5704 81.4006C51.5973 81.4006 53.2404 79.7574 53.2404 77.7306C53.2404 75.7037 51.5973 74.0605 49.5704 74.0605C47.5435 74.0605 45.9004 75.7037 45.9004 77.7306C45.9004 79.7574 47.5435 81.4006 49.5704 81.4006Z" fill="#FF6D2A"/>
<path d="M60.6007 78.0207C62.6275 78.0207 64.2707 76.3775 64.2707 74.3507C64.2707 72.3238 62.6275 70.6807 60.6007 70.6807C58.5738 70.6807 56.9307 72.3238 56.9307 74.3507C56.9307 76.3775 58.5738 78.0207 60.6007 78.0207Z" fill="#FF6D2A"/>
<path d="M72.0011 74.5207C74.0279 74.5207 75.6711 72.8775 75.6711 70.8507C75.6711 68.8238 74.0279 67.1807 72.0011 67.1807C69.9742 67.1807 68.3311 68.8238 68.3311 70.8507C68.3311 72.8775 69.9742 74.5207 72.0011 74.5207Z" fill="#FF6D2A"/>
<path d="M161.42 47.0695C163.447 47.0695 165.09 45.4264 165.09 43.3995C165.09 41.3726 163.447 39.7295 161.42 39.7295C159.394 39.7295 157.75 41.3726 157.75 43.3995C157.75 45.4264 159.394 47.0695 161.42 47.0695Z" fill="#FF6D2A"/>
<path d="M172.45 43.6798C174.477 43.6798 176.12 42.0367 176.12 40.0098C176.12 37.983 174.477 36.3398 172.45 36.3398C170.423 36.3398 168.78 37.983 168.78 40.0098C168.78 42.0367 170.423 43.6798 172.45 43.6798Z" fill="#FF6D2A"/>
<path d="M143.911 35.3268L140.087 36.501L147.719 61.3556L151.543 60.1814L143.911 35.3268Z" fill="white"/>
<path d="M190.354 46.9413L28.7627 96.499L29.9355 100.323L191.527 50.7655L190.354 46.9413Z" fill="white"/>
<path d="M101.988 151.223L78.622 158.286C75.4712 159.239 73.6891 162.565 74.6416 165.716L80.2814 184.372C81.2338 187.523 84.5602 189.305 87.711 188.352L111.077 181.289C114.227 180.336 116.01 177.01 115.057 173.859L109.417 155.203C108.465 152.052 105.139 150.27 101.988 151.223Z" fill="#EE4A00"/>
<path d="M114.731 151.231C113.941 151.451 113.121 151.011 112.881 150.221C112.641 149.431 113.091 148.591 113.881 148.351L190.54 125.171H190.561C191.351 124.941 192.171 125.391 192.411 126.171C192.651 126.961 192.201 127.801 191.411 128.041L114.751 151.221H114.731V151.231Z" fill="#FF6D2A"/>
<path d="M116.59 157.391C115.8 157.611 114.98 157.171 114.74 156.381C114.5 155.591 114.95 154.751 115.74 154.511L192.4 131.331C193.16 131.111 194.03 131.541 194.27 132.331C194.51 133.121 194.06 133.961 193.27 134.201L116.61 157.381H116.59V157.391Z" fill="#FF6D2A"/>
<path d="M118.46 163.55C117.67 163.77 116.85 163.33 116.61 162.54C116.37 161.75 116.82 160.91 117.61 160.67L194.27 137.49C195.03 137.24 195.9 137.7 196.14 138.49C196.38 139.28 195.93 140.12 195.14 140.36L118.48 163.54H118.46V163.55Z" fill="#FF6D2A"/>
<path d="M120.32 169.711C119.53 169.931 118.71 169.491 118.47 168.701C118.23 167.911 118.68 167.071 119.47 166.831L196.13 143.651H196.15C196.94 143.421 197.76 143.871 198 144.651C198.24 145.441 197.79 146.281 197 146.521L120.34 169.701H120.32V169.711Z" fill="#FF6D2A"/>
<path d="M122.391 176.551C121.601 176.771 120.781 176.331 120.541 175.541C120.301 174.751 120.751 173.911 121.541 173.671L198.201 150.491C198.961 150.291 199.831 150.701 200.071 151.491C200.311 152.281 199.861 153.121 199.071 153.361L122.411 176.541H122.391V176.551Z" fill="#FF6D2A"/>
<path d="M181.983 201.087L205.349 194.023C208.499 193.071 210.282 189.745 209.329 186.594L203.689 167.938C202.737 164.787 199.411 163.005 196.26 163.957L172.894 171.021C169.743 171.973 167.961 175.299 168.914 178.45L174.553 197.106C175.506 200.257 178.832 202.039 181.983 201.087Z" fill="#EE4A00"/>
<path d="M93.3902 227.151C92.6002 227.371 91.7802 226.931 91.5402 226.141C91.3002 225.351 91.7502 224.511 92.5402 224.271L169.2 201.091C170.01 200.871 170.83 201.301 171.07 202.091C171.31 202.881 170.86 203.721 170.07 203.961L93.4102 227.141H93.3902V227.151Z" fill="#FF6D2A"/>
<path d="M91.5303 220.99C90.7403 221.21 89.9203 220.77 89.6803 219.98C89.4403 219.19 89.8903 218.35 90.6803 218.11L167.34 194.93H167.36C168.15 194.7 168.97 195.15 169.21 195.93C169.45 196.72 169 197.56 168.21 197.8L91.5503 220.98H91.5303V220.99Z" fill="#FF6D2A"/>
<path d="M89.6704 214.83C88.8804 215.05 88.0604 214.61 87.8204 213.82C87.5804 213.03 88.0304 212.19 88.8204 211.95L165.48 188.77C166.27 188.51 167.11 188.98 167.35 189.77C167.59 190.56 167.14 191.4 166.35 191.64L89.6904 214.82H89.6704V214.83Z" fill="#FF6D2A"/>
<path d="M87.8101 208.671C87.0201 208.891 86.2001 208.451 85.9601 207.661C85.7201 206.871 86.1701 206.031 86.9601 205.791L163.62 182.611C164.42 182.381 165.25 182.821 165.49 183.611C165.73 184.401 165.28 185.241 164.49 185.481L87.8301 208.661H87.8101V208.671Z" fill="#FF6D2A"/>
<path d="M85.7403 201.831C84.9503 202.051 84.1303 201.611 83.8903 200.821C83.6503 200.031 84.1003 199.191 84.8903 198.951L161.55 175.771C162.36 175.561 163.18 175.981 163.42 176.771C163.66 177.561 163.21 178.401 162.42 178.641L85.7603 201.821H85.7403V201.831Z" fill="#FF6D2A"/>
<path d="M167.341 72.1342L62.6689 103.776C59.5181 104.729 57.736 108.055 58.6885 111.206L69.123 145.723C70.0755 148.874 73.4019 150.656 76.5527 149.704L181.225 118.062C184.375 117.109 186.157 113.783 185.205 110.632L174.77 76.1146C173.818 72.9638 170.492 71.1817 167.341 72.1342Z" fill="#FF6D2A"/>
<path d="M332.1 95.6599L324.12 206.23C323.95 208.62 321.87 210.42 319.48 210.25L158.58 198.63C156.19 198.46 154.39 196.38 154.56 193.99L162.53 83.5599C162.66 81.8099 165.16 80.5699 168.13 80.7899L327.18 92.2699C330.01 92.4699 332.22 93.9899 332.1 95.6599Z" fill="#FF9460"/>
<path d="M319.79 211.8C319.65 211.8 319.5 211.8 319.36 211.78L158.46 200.16C156.89 200.05 155.47 199.33 154.44 198.14C153.41 196.95 152.91 195.44 153.02 193.87L160.99 83.4404C161.09 82.0504 162.03 80.8204 163.57 80.0504C164.87 79.4104 166.52 79.1204 168.23 79.2404L327.28 90.7204C331.02 90.9904 333.8 93.2004 333.62 95.7504L325.64 206.32C325.53 207.89 324.81 209.31 323.62 210.34C322.54 211.27 321.2 211.77 319.79 211.77V211.8ZM167.47 82.3104C166.52 82.3104 165.62 82.4904 164.94 82.8304C164.42 83.0904 164.07 83.4204 164.06 83.6904L156.09 194.12C156.04 194.87 156.28 195.59 156.77 196.16C157.26 196.73 157.94 197.07 158.69 197.12L319.59 208.74C320.34 208.8 321.06 208.55 321.63 208.06C322.2 207.57 322.54 206.89 322.59 206.14L330.57 95.5704C330.61 95.0604 329.27 93.9804 327.07 93.8204L168.02 82.3404C167.84 82.3304 167.65 82.3204 167.47 82.3204V82.3104Z" fill="white"/>
<path d="M298.84 106.471C300.867 106.471 302.51 104.828 302.51 102.801C302.51 100.774 300.867 99.1309 298.84 99.1309C296.814 99.1309 295.17 100.774 295.17 102.801C295.17 104.828 296.814 106.471 298.84 106.471Z" fill="#FF6D2A"/>
<path d="M161.283 105.074L160.995 109.063L329.576 121.236L329.864 117.247L161.283 105.074Z" fill="white"/>
<path d="M202.029 148.083L187.113 146.943C183.831 146.693 180.967 149.15 180.716 152.432L179.935 162.652C179.684 165.934 182.141 168.798 185.423 169.049L200.34 170.189C203.622 170.44 206.486 167.982 206.737 164.7L207.518 154.48C207.768 151.198 205.311 148.334 202.029 148.083Z" fill="#EE4A00"/>
<path d="M203.37 176.56C203.37 176.56 203.32 176.56 203.29 176.56L181.75 174.91C181.2 174.87 180.79 174.39 180.83 173.84C180.87 173.29 181.35 172.87 181.9 172.92L203.44 174.57C203.99 174.61 204.4 175.09 204.36 175.64C204.32 176.16 203.88 176.56 203.36 176.56H203.37Z" fill="#FF6D2A"/>
<path d="M203 181.31C203 181.31 202.95 181.31 202.92 181.31L181.38 179.66C180.83 179.62 180.42 179.14 180.46 178.59C180.5 178.04 180.96 177.63 181.53 177.67L203.07 179.32C203.62 179.36 204.03 179.84 203.99 180.39C203.95 180.91 203.51 181.31 202.99 181.31H203Z" fill="#FF6D2A"/>
<path d="M202.64 186.06C202.64 186.06 202.59 186.06 202.56 186.06L181.02 184.41C180.47 184.37 180.06 183.89 180.1 183.34C180.14 182.79 180.61 182.37 181.17 182.42L202.71 184.07C203.26 184.11 203.67 184.59 203.63 185.14C203.59 185.66 203.15 186.06 202.63 186.06H202.64Z" fill="#FF6D2A"/>
<path d="M202.28 190.81C202.28 190.81 202.23 190.81 202.2 190.81L180.66 189.16C180.11 189.12 179.7 188.64 179.74 188.09C179.78 187.54 180.24 187.12 180.81 187.17L202.35 188.82C202.9 188.86 203.31 189.34 203.27 189.89C203.23 190.41 202.79 190.81 202.27 190.81H202.28Z" fill="#FF6D2A"/>
<path d="M234.397 150.422L219.48 149.282C216.198 149.031 213.334 151.489 213.083 154.771L212.302 164.991C212.052 168.273 214.509 171.137 217.791 171.388L232.708 172.528C235.99 172.779 238.853 170.321 239.104 167.039L239.885 156.819C240.136 153.537 237.679 150.673 234.397 150.422Z" fill="#EE4A00"/>
<path d="M235.73 178.9C235.73 178.9 235.68 178.9 235.65 178.9L214.11 177.25C213.56 177.21 213.15 176.73 213.19 176.18C213.23 175.63 213.69 175.21 214.26 175.26L235.8 176.91C236.35 176.95 236.76 177.43 236.72 177.98C236.68 178.5 236.24 178.9 235.72 178.9H235.73Z" fill="#FF6D2A"/>
<path d="M235.37 183.65C235.37 183.65 235.32 183.65 235.29 183.65L213.75 182C213.2 181.96 212.79 181.48 212.83 180.93C212.87 180.38 213.34 179.97 213.9 180.01L235.44 181.66C235.99 181.7 236.4 182.18 236.36 182.73C236.32 183.25 235.88 183.65 235.36 183.65H235.37Z" fill="#FF6D2A"/>
<path d="M235 188.4C235 188.4 234.95 188.4 234.92 188.4L213.38 186.75C212.83 186.71 212.42 186.23 212.46 185.68C212.5 185.13 212.96 184.72 213.53 184.76L235.07 186.41C235.62 186.45 236.03 186.93 235.99 187.48C235.95 188 235.51 188.4 234.99 188.4H235Z" fill="#FF6D2A"/>
<path d="M234.64 193.15C234.64 193.15 234.59 193.15 234.56 193.15L213.02 191.5C212.47 191.46 212.06 190.98 212.1 190.43C212.14 189.88 212.61 189.46 213.17 189.51L234.71 191.16C235.26 191.2 235.67 191.68 235.63 192.23C235.59 192.75 235.15 193.15 234.63 193.15H234.64Z" fill="#FF6D2A"/>
<path d="M266.814 152.766L251.898 151.626C248.616 151.375 245.752 153.832 245.501 157.115L244.72 167.335C244.469 170.617 246.926 173.481 250.208 173.732L265.125 174.871C268.407 175.122 271.271 172.665 271.522 169.383L272.303 159.163C272.554 155.881 270.096 153.017 266.814 152.766Z" fill="#EE4A00"/>
<path d="M268.15 181.241C268.15 181.241 268.1 181.241 268.07 181.241L246.53 179.591C245.98 179.551 245.57 179.071 245.61 178.521C245.65 177.971 246.13 177.551 246.68 177.601L268.22 179.251C268.77 179.291 269.18 179.771 269.14 180.321C269.1 180.841 268.66 181.241 268.14 181.241H268.15Z" fill="#FF6D2A"/>
<path d="M267.78 185.99C267.78 185.99 267.73 185.99 267.7 185.99L246.16 184.34C245.61 184.3 245.2 183.82 245.24 183.27C245.28 182.72 245.74 182.31 246.31 182.35L267.85 184C268.4 184.04 268.81 184.52 268.77 185.07C268.73 185.59 268.29 185.99 267.77 185.99H267.78Z" fill="#FF6D2A"/>
<path d="M267.42 190.741C267.42 190.741 267.37 190.741 267.34 190.741L245.8 189.091C245.25 189.051 244.84 188.571 244.88 188.021C244.92 187.471 245.39 187.051 245.95 187.101L267.49 188.751C268.04 188.791 268.45 189.271 268.41 189.821C268.37 190.341 267.93 190.741 267.41 190.741H267.42Z" fill="#FF6D2A"/>
<path d="M267.06 195.491C267.06 195.491 267.01 195.491 266.98 195.491L245.44 193.841C244.89 193.801 244.48 193.321 244.52 192.771C244.56 192.221 245.02 191.801 245.59 191.851L267.13 193.501C267.68 193.541 268.09 194.021 268.05 194.571C268.01 195.091 267.57 195.491 267.05 195.491H267.06Z" fill="#FF6D2A"/>
<path d="M298.736 155.061L283.82 153.921C280.538 153.67 277.674 156.127 277.423 159.409L276.642 169.63C276.391 172.912 278.848 175.776 282.13 176.026L297.047 177.166C300.329 177.417 303.193 174.96 303.444 171.678L304.225 161.458C304.475 158.176 302.018 155.312 298.736 155.061Z" fill="#EE4A00"/>
<path d="M300.06 183.55C300.06 183.55 300.01 183.55 299.98 183.55L278.44 181.9C277.89 181.86 277.48 181.38 277.52 180.83C277.56 180.28 278.03 179.87 278.59 179.91L300.13 181.56C300.68 181.6 301.09 182.08 301.05 182.63C301.01 183.15 300.57 183.55 300.05 183.55H300.06Z" fill="#FF6D2A"/>
<path d="M299.7 188.29C299.7 188.29 299.65 188.29 299.62 188.29L278.08 186.64C277.53 186.6 277.12 186.12 277.16 185.57C277.2 185.02 277.68 184.61 278.23 184.65L299.77 186.3C300.32 186.34 300.73 186.82 300.69 187.37C300.65 187.89 300.21 188.29 299.69 188.29H299.7Z" fill="#FF6D2A"/>
<path d="M299.34 193.04C299.34 193.04 299.29 193.04 299.26 193.04L277.72 191.39C277.17 191.35 276.76 190.87 276.8 190.32C276.84 189.77 277.3 189.35 277.87 189.4L299.41 191.05C299.96 191.09 300.37 191.57 300.33 192.12C300.29 192.64 299.85 193.04 299.33 193.04H299.34Z" fill="#FF6D2A"/>
<path d="M298.97 197.79C298.97 197.79 298.92 197.79 298.89 197.79L277.35 196.14C276.8 196.1 276.39 195.62 276.43 195.07C276.47 194.52 276.94 194.11 277.5 194.15L299.04 195.8C299.59 195.84 300 196.32 299.96 196.87C299.92 197.39 299.48 197.79 298.96 197.79H298.97Z" fill="#FF6D2A"/>
<path d="M313.993 127.991L175.935 117.44C172.653 117.19 169.789 119.647 169.539 122.929L168.778 132.88C168.527 136.162 170.985 139.026 174.267 139.277L312.324 149.827C315.606 150.078 318.47 147.621 318.721 144.338L319.481 134.388C319.732 131.105 317.275 128.242 313.993 127.991Z" fill="#FF6D2A"/>
<path d="M242.05 130.14L233.4 138.87L254.01 140.36L247.84 133.23L245.08 134.37L242.05 130.14Z" fill="#EE4A00"/>
<path d="M249.41 132C250.515 132 251.41 131.105 251.41 130C251.41 128.895 250.515 128 249.41 128C248.306 128 247.41 128.895 247.41 130C247.41 131.105 248.306 132 249.41 132Z" fill="#EE4A00"/>
<path d="M226.081 94.5605C245.272 94.5605 260.831 79.0024 260.831 59.8105C260.831 40.6186 245.272 25.0605 226.081 25.0605C206.889 25.0605 191.331 40.6186 191.331 59.8105C191.331 79.0024 206.889 94.5605 226.081 94.5605Z" fill="#FF6D2A"/>
<path d="M226.13 96.5601C225.23 96.5601 224.33 96.5301 223.43 96.4601C203.22 95.0001 187.96 77.3701 189.42 57.1601C190.88 36.9501 208.51 21.7001 228.72 23.1501C248.93 24.6101 264.19 42.2401 262.73 62.4501C262.02 72.2401 257.55 81.1701 250.12 87.5901C243.38 93.4201 234.95 96.5501 226.13 96.5501V96.5601ZM226.05 27.0601C209.05 27.0601 194.65 40.2401 193.41 57.4501C192.11 75.4601 205.7 91.1701 223.72 92.4701C232.46 93.1101 240.89 90.3001 247.51 84.5701C254.13 78.8501 258.11 70.8901 258.74 62.1601C260.04 44.1501 246.45 28.4401 228.43 27.1401C227.63 27.0801 226.84 27.0501 226.05 27.0501V27.0601Z" fill="white"/>
<path d="M248.23 67.6498L244.06 65.5298C244.6 63.9998 244.94 62.3698 245.06 60.6698C245.16 59.2898 245.11 57.9498 244.92 56.6298L249.12 55.2198C250.69 54.6898 251.54 52.9898 251.01 51.4198C250.48 49.8498 248.78 48.9998 247.21 49.5298L243.14 50.8998C241.81 48.1998 239.84 45.8398 237.42 44.0398L239.28 40.3598C240.03 38.8798 239.44 37.0698 237.96 36.3198C236.48 35.5698 234.67 36.1598 233.92 37.6398L232.08 41.2598C230.62 40.7698 229.08 40.4598 227.47 40.3498C225.86 40.2298 224.29 40.3198 222.78 40.5898L221.48 36.7498C220.95 35.1798 219.24 34.3298 217.68 34.8598C216.11 35.3898 215.26 37.0898 215.79 38.6598L217.1 42.5598C214.45 43.9898 212.16 46.0398 210.45 48.5298L206.62 46.5898C205.14 45.8398 203.33 46.4298 202.58 47.9098C201.83 49.3898 202.42 51.1998 203.9 51.9498L207.86 53.9498C207.49 55.2298 207.24 56.5498 207.14 57.9298C207.02 59.6298 207.12 61.2898 207.43 62.8798L203 64.3698C201.43 64.8998 200.58 66.5998 201.11 68.1698C201.51 69.3498 202.57 70.1198 203.74 70.1998C204.13 70.2298 204.52 70.1898 204.91 70.0498L209.48 68.5198C210.86 70.9898 212.78 73.1298 215.08 74.7798L212.83 79.2198C212.08 80.6998 212.67 82.5098 214.15 83.2598C214.52 83.4498 214.9 83.5398 215.29 83.5698C216.46 83.6498 217.62 83.0498 218.19 81.9298L220.47 77.4298C221.81 77.8498 223.24 78.1198 224.7 78.2298C226.17 78.3398 227.61 78.2698 229 78.0498L230.61 82.8298C231.01 84.0098 232.07 84.7798 233.24 84.8598C233.63 84.8898 234.02 84.8498 234.41 84.7098C235.98 84.1798 236.83 82.4798 236.3 80.9098L234.72 76.1898C237.24 74.8898 239.45 73.0398 241.16 70.7998L245.46 72.9798C245.83 73.1698 246.21 73.2598 246.6 73.2898C247.77 73.3698 248.93 72.7698 249.5 71.6498C250.25 70.1698 249.66 68.3598 248.18 67.6098L248.23 67.6498ZM232.82 70.4398C231.12 71.4698 229.17 72.1098 227.1 72.2698C226.47 72.3098 225.82 72.3198 225.17 72.2698C224.52 72.2198 223.89 72.1298 223.27 71.9898C221.25 71.5298 219.41 70.6198 217.88 69.3498C216.91 68.5498 216.05 67.6098 215.35 66.5698C214.23 64.9098 213.48 62.9998 213.21 60.9498C213.11 60.0998 213.08 59.2398 213.15 58.3598C213.19 57.8098 213.26 57.2598 213.38 56.7298C213.78 54.6898 214.66 52.8298 215.89 51.2698C216.78 50.1398 217.87 49.1598 219.08 48.3698C220.75 47.2898 222.69 46.5898 224.74 46.3698C225.5 46.2798 226.27 46.2698 227.06 46.3298C227.85 46.3898 228.61 46.5098 229.35 46.7098C231.35 47.2198 233.16 48.1898 234.66 49.4998C235.74 50.4498 236.68 51.5798 237.4 52.8298C238.39 54.5598 239 56.5198 239.1 58.5998C239.14 59.1398 239.13 59.6998 239.1 60.2398C239.04 61.1198 238.88 61.9698 238.66 62.7998C238.1 64.7798 237.08 66.5798 235.73 68.0498C234.89 68.9798 233.91 69.7798 232.83 70.4398H232.82Z" fill="#E84B0F"/>
<path d="M226.08 64.8096C228.842 64.8096 231.08 62.571 231.08 59.8096C231.08 57.0481 228.842 54.8096 226.08 54.8096C223.319 54.8096 221.08 57.0481 221.08 59.8096C221.08 62.571 223.319 64.8096 226.08 64.8096Z" fill="#E84B0F"/>
<path d="M466.68 227.861L465.24 228.381L428.76 241.631L412.26 247.621L335.5 275.501L333.62 276.181C330.02 273.991 327.42 270.241 326.89 265.761L322.88 232.081L322.54 229.201L322.11 225.611L320.6 212.951L320.46 211.761L320.37 210.961L320.28 210.231L320.13 208.971L320.1 208.721L316.73 180.431L314.61 162.601L314.14 158.651L313.67 154.691L313.09 149.821L310.82 130.761V130.671L310.45 127.711L309.51 119.781L309.27 117.751L309.03 115.741L308.36 110.121C308.15 108.321 308.28 106.561 308.72 104.901C310.15 99.4211 314.82 95.0811 320.76 94.3811L326.1 93.7411H326.12L330.43 93.2311H330.44L332.55 92.9811L404.6 84.4011L407.52 84.0511L434.91 80.7911C436.34 80.6211 437.75 80.6711 439.11 80.9211C439.48 80.9911 439.85 81.0711 440.21 81.1711C440.57 81.2611 440.93 81.3811 441.28 81.5011C444.4 82.6111 447.07 84.7911 448.77 87.6511C448.98 87.9911 449.17 88.3511 449.35 88.7211C449.53 89.1011 449.7 89.4911 449.85 89.9011C449.96 90.1811 450.06 90.4711 450.14 90.7611C450.28 91.2111 450.4 91.6711 450.48 92.1411C450.55 92.4811 450.61 92.8311 450.65 93.1811L450.71 93.6711L451.77 102.591L451.91 103.801L452.06 105.021L455.24 131.691L455.59 134.681L457.07 147.101L457.45 150.311L457.57 151.281L458.18 156.411L462.03 188.781L462.25 190.581L462.46 192.391L465.11 214.611L465.58 218.561L465.61 218.871L465.83 220.671L466.04 222.481V222.511L466.68 227.861Z" fill="#FF6D2A"/>
<path d="M450.48 92.1407L451.67 90.6207C451.54 90.1907 451.4 89.7607 451.24 89.3407C451.14 89.0707 451.03 88.8007 450.92 88.5407C450.75 88.1607 450.57 87.8007 450.36 87.4307L449.35 88.7207C449.17 88.3507 448.98 87.9907 448.77 87.6507L447.77 88.9307C447.97 89.3007 448.15 89.6807 448.3 90.0707C448.48 90.4807 448.62 90.9007 448.74 91.3307C448.84 91.6307 448.91 91.9307 448.98 92.2407C449.05 92.6207 449.12 92.9907 449.16 93.3607L449.21 93.7707L449.4 95.3507L450.71 93.6807L450.65 93.1807C450.61 92.8307 450.55 92.4807 450.48 92.1407ZM333.13 274.021C330.47 271.921 328.78 268.921 328.38 265.581L324.18 230.281L323.77 226.821L322.97 220.161V220.051L322.66 217.581V217.451L322.09 212.711L321.93 211.391L321.85 210.721L321.74 209.801L321.61 208.731L321.54 208.121L316.74 167.831V167.781L316.72 167.681L316.19 163.231L315.72 159.281L315.25 155.321L314.57 149.561L311.98 127.831L311.03 119.891L309.51 119.781L310.45 127.711L310.81 130.671V130.761L313.09 149.821C312.84 149.841 312.59 149.841 312.33 149.821L311.84 149.781L311.57 149.761L312.08 154.061L312.55 158.021L313.19 158.271L313.84 162.301L314.61 162.601L316.73 180.421L321.19 208.361L321.26 208.791L320.13 208.971L320.28 210.231L320.37 210.961L318.88 211.201L318.95 211.751L319.12 213.181L320.9 228.101L321.24 231.001L321.55 233.551L325.4 265.931C325.89 270.071 327.98 273.781 331.28 276.381C331.47 276.531 331.67 276.681 331.87 276.821L333.62 276.181L335.5 275.501C334.67 275.101 333.87 274.601 333.13 274.021ZM351.66 277.071L345.47 279.321H345.5L351.69 277.071H351.66ZM467.63 223.141L467.41 221.291L467.2 219.481L467.16 219.191L466.98 217.681L466.69 215.241L463.83 191.191L463.62 189.391L463.4 187.581L459.83 157.611L459.23 152.581L458.78 148.751L458.73 148.401L457.09 134.611L456.74 131.621L453.47 104.191L453.33 102.971L453.18 101.761L452.14 93.0107C452.1 92.6807 452.05 92.3507 451.99 92.0307C451.9 91.5507 451.79 91.0807 451.67 90.6207C451.54 90.1907 451.4 89.7607 451.24 89.3407C451.14 89.0707 451.03 88.8007 450.92 88.5407C450.75 88.1607 450.57 87.8007 450.36 87.4307C450.18 87.0707 449.98 86.7207 449.75 86.3907C448.83 84.9507 447.65 83.6607 446.26 82.5607C444.88 81.4607 443.35 80.6307 441.73 80.0607C441.38 79.9407 441.02 79.8307 440.66 79.7307C440.3 79.6307 439.93 79.5407 439.56 79.4807C437.98 79.1707 436.36 79.1107 434.73 79.3007L407.55 82.5407L404.63 82.8807L330.77 91.6807L326.26 92.2107H326.22L320.58 92.8907C319.97 92.9607 319.38 93.0707 318.79 93.2107H318.77C315.36 94.0207 312.35 95.9507 310.13 98.7707C309.37 99.7307 308.74 100.761 308.23 101.841C307.57 103.261 307.12 104.741 306.91 106.281C306.73 107.611 306.71 108.951 306.87 110.301L307.5 115.631L307.74 117.641L307.99 119.671L308.93 127.591L310.79 143.211V143.231L311.57 149.761L312.08 154.061L312.55 158.021L313.02 161.981L318.58 208.651L318.65 209.211L318.76 210.201L318.88 211.191L318.95 211.751L319.12 213.181L320.9 228.101L321.24 231.001L321.55 233.551L325.4 265.931C325.89 270.071 327.98 273.781 331.28 276.381C331.47 276.531 331.67 276.681 331.87 276.821L333.62 276.181L335.5 275.501C334.67 275.101 333.87 274.601 333.13 274.021C330.47 271.921 328.78 268.921 328.38 265.581L324.18 230.281L323.77 226.821L322.97 220.161V220.051L322.66 217.581V217.451L322.09 212.711L321.93 211.391L321.85 210.721L321.74 209.801L321.61 208.731L321.54 208.121L316.74 167.831V167.781L316.72 167.681L316.19 163.231L315.72 159.281L315.25 155.321L314.57 149.561L311.98 127.831L311.03 119.891L310.8 117.931V117.861L310.55 115.851L309.85 109.941C309.03 103.011 314 96.6907 320.94 95.8707L330.01 94.7907L331.82 94.5707H331.83L333.41 94.3807L404.61 85.9107L407.52 85.5607L435.07 82.2807C435.58 82.2207 436.08 82.1907 436.58 82.1907C437.28 82.1907 437.97 82.2507 438.65 82.3607C439.02 82.4207 439.39 82.5007 439.75 82.5907C440.11 82.6907 440.46 82.8007 440.82 82.9207C442.1 83.3807 443.29 84.0507 444.4 84.9207C445.81 86.0307 446.94 87.3907 447.76 88.9307C447.96 89.3007 448.14 89.6807 448.29 90.0707C448.47 90.4807 448.61 90.9007 448.73 91.3307C448.83 91.6307 448.9 91.9307 448.97 92.2407C449.04 92.6207 449.11 92.9907 449.15 93.3607L449.2 93.7707L449.39 95.3507L450.35 103.421L450.49 104.631L450.64 105.851L453.72 131.711L454.07 134.711L455.39 145.801L455.89 149.981L460.65 189.981L460.87 191.781L461.08 193.591L463.51 213.991L463.98 217.941V217.981L463.99 217.991L464.3 220.611L464.45 221.881L464.57 222.841L465.23 228.381L466.67 227.861L468.12 227.331L467.62 223.141H467.63Z" fill="white"/>
<path d="M486.77 225.61C486.75 226.8 486.13 227.88 485.15 228.5C484.94 228.65 484.72 228.76 484.47 228.85L481.84 229.81L468.99 234.47L467.54 235L466.1 235.53L357.89 274.82H357.86L351.7 277.07H351.67L345.48 279.32L298.2 296.49L296.6 293.36L296.46 293.1C296.43 293.04 296.4 292.98 296.37 292.92C296.32 292.82 296.26 292.73 296.2 292.64C296.17 292.59 296.13 292.53 296.09 292.49C296.06 292.44 296.02 292.39 295.98 292.34C295.96 292.31 295.94 292.29 295.91 292.27C295.91 292.24 295.88 292.22 295.86 292.2L295.8 292.14C295.8 292.14 295.72 292.05 295.67 292.01C295.63 291.97 295.59 291.94 295.55 291.9C295.53 291.88 295.51 291.87 295.49 291.85C295.49 291.85 295.45 291.81 295.43 291.8C295.4 291.78 295.36 291.75 295.32 291.72C295.27 291.68 295.22 291.65 295.16 291.61C295.14 291.6 295.12 291.59 295.1 291.57C294.98 291.5 294.85 291.43 294.71 291.37C294.69 291.36 294.67 291.35 294.64 291.34C294.62 291.33 294.61 291.33 294.59 291.32L294.45 291.27L294.36 291.24L294.21 291.18L293.34 290.82H293.35L331.88 276.82L333.63 276.18L335.51 275.5L412.27 247.62L428.77 241.63L465.25 228.38L466.69 227.86L468.14 227.33L473.41 225.42L478.37 223.62L482.09 222.27C482.9 221.98 483.76 222 484.52 222.29C484.62 222.33 484.72 222.37 484.81 222.42C484.89 222.45 484.96 222.49 485.03 222.53C485.11 222.58 485.19 222.63 485.27 222.68C485.35 222.74 485.42 222.8 485.5 222.86C485.56 222.9 485.62 222.95 485.67 223.01C485.88 223.21 486.07 223.43 486.23 223.68L486.31 223.81C486.62 224.35 486.79 224.97 486.78 225.61H486.77Z" fill="white"/>
<path d="M344.041 114.49C343.041 114.49 342.181 113.74 342.061 112.73C341.931 111.63 342.711 110.64 343.811 110.51L415.561 101.97C416.651 101.85 417.651 102.62 417.781 103.72C417.911 104.82 417.131 105.81 416.031 105.94L344.281 114.48C344.201 114.48 344.121 114.49 344.041 114.49Z" fill="white"/>
<path d="M350.36 210.651C349.36 210.651 348.5 209.901 348.38 208.891C348.25 207.791 349.03 206.801 350.13 206.671L432.98 196.811C434.07 196.691 435.07 197.461 435.2 198.561C435.33 199.661 434.55 200.651 433.45 200.781L350.6 210.641C350.52 210.641 350.44 210.651 350.36 210.651Z" fill="#EE4A00"/>
<path d="M351.63 221.281C350.63 221.281 349.77 220.531 349.65 219.521C349.52 218.421 350.3 217.431 351.4 217.301L434.25 207.441C435.34 207.321 436.34 208.091 436.47 209.191C436.6 210.291 435.82 211.281 434.72 211.411L351.87 221.271C351.79 221.271 351.71 221.281 351.63 221.281Z" fill="#EE4A00"/>
<path d="M352.89 231.911C351.89 231.911 351.03 231.161 350.91 230.151C350.78 229.051 351.56 228.061 352.66 227.931L435.51 218.071C436.6 217.951 437.6 218.721 437.73 219.821C437.86 220.921 437.08 221.911 435.98 222.041L353.13 231.901C353.05 231.901 352.97 231.911 352.89 231.911Z" fill="#EE4A00"/>
<path d="M354.16 242.552C353.16 242.552 352.3 241.802 352.18 240.792C352.05 239.692 352.83 238.702 353.93 238.572L436.78 228.712C437.87 228.592 438.87 229.362 439 230.462C439.13 231.562 438.35 232.552 437.25 232.682L354.4 242.542C354.32 242.542 354.24 242.552 354.16 242.552Z" fill="#EE4A00"/>
<path d="M428.761 241.631L412.261 247.621L355.801 254.351C355.721 254.351 355.641 254.361 355.561 254.361C354.561 254.361 353.701 253.611 353.581 252.601C353.451 251.501 354.231 250.501 355.331 250.371L428.761 241.631Z" fill="#EE4A00"/>
<path d="M418.92 123.059L345.935 131.749C342.667 132.139 340.333 135.104 340.722 138.372L346.632 188.012C347.021 191.28 349.986 193.614 353.255 193.225L426.239 184.535C429.508 184.146 431.842 181.181 431.453 177.912L425.543 128.273C425.153 125.004 422.188 122.67 418.92 123.059Z" fill="#EE4A00"/>
<path d="M413.7 159.47C413.55 159.25 413.4 159.02 413.24 158.8C410.02 154.19 405.55 150.65 400.48 148.45C395.54 146.32 390.02 145.46 384.49 146.14C373.16 147.54 363.41 155.2 359.54 165.73C359.49 165.88 359.43 166.02 359.38 166.16L359.23 166.6L359.48 166.99C365.74 176.51 377.21 181.74 388.7 180.32C400.19 178.9 410.03 171.04 413.8 160.29L413.96 159.85L413.7 159.46V159.47ZM395.62 161.77L395.05 162.04L394.77 162.15C393.29 162.84 392.01 163.8 390.98 165.01C389.73 166.49 388.89 168.35 388.67 170.4L388.34 174.18C388.31 174.64 387.63 174.76 387.46 174.29L386.12 170.66C385.43 168.86 384.24 167.21 382.73 165.98C381.54 165.02 380.14 164.27 378.65 163.94L378.25 163.83L377.71 163.72C377.26 163.63 377.2 163 377.64 162.84C377.82 162.8 377.96 162.75 378.09 162.68C381.52 161.19 383.89 157.86 384.34 154.16L384.4 153.9L384.88 150.45C384.95 149.97 385.63 149.9 385.76 150.36L386.8 153.61L386.89 153.89C388.07 157.61 391.15 160.17 394.94 160.87C395.15 160.92 395.31 160.93 395.5 160.96C395.72 161 395.87 161.15 395.89 161.35C395.91 161.53 395.81 161.72 395.62 161.8V161.77Z" fill="white"/>
<path d="M360.96 168.07C360.69 168.07 360.43 167.99 360.2 167.81L349.67 159.69C349.12 159.27 349.02 158.49 349.44 157.94C349.86 157.4 350.65 157.29 351.19 157.71L361.72 165.83C362.27 166.25 362.37 167.03 361.95 167.58C361.7 167.9 361.33 168.07 360.96 168.07Z" fill="white"/>
<path d="M369.2 153.081C368.82 153.081 368.45 152.911 368.2 152.581L360.95 142.891C360.54 142.341 360.65 141.561 361.2 141.141C361.75 140.721 362.53 140.841 362.95 141.391L370.2 151.081C370.61 151.631 370.5 152.411 369.95 152.831C369.73 153.001 369.46 153.081 369.2 153.081Z" fill="white"/>
<path d="M412.59 160.871C412.32 160.871 412.05 160.781 411.82 160.601C411.28 160.171 411.19 159.391 411.61 158.851L419.85 148.421C420.28 147.881 421.06 147.791 421.6 148.211C422.14 148.641 422.23 149.421 421.81 149.961L413.57 160.391C413.32 160.701 412.96 160.861 412.59 160.861V160.871Z" fill="white"/>
<path d="M400.33 150.081C400.17 150.081 400.01 150.051 399.85 149.981C399.21 149.711 398.92 148.981 399.18 148.351L403.86 137.181C404.13 136.551 404.86 136.241 405.49 136.511C406.13 136.781 406.42 137.511 406.16 138.141L401.48 149.311C401.28 149.791 400.82 150.081 400.33 150.081Z" fill="white"/>
<path d="M384.52 147.381C383.9 147.381 383.36 146.921 383.28 146.281L381.75 133.901C381.67 133.221 382.15 132.591 382.84 132.511C383.51 132.431 384.15 132.911 384.23 133.601L385.76 145.981C385.84 146.661 385.36 147.291 384.67 147.371C384.62 147.371 384.57 147.371 384.52 147.371V147.381Z" fill="white"/>
<path d="M543.22 178.571L536 154.641L549.91 150.441C552.27 149.731 554.77 151.061 555.48 153.431L560.12 168.811C560.83 171.171 559.5 173.671 557.13 174.381L543.22 178.581V178.571Z" fill="#FF6D2A"/>
<path d="M542.6 179.941C542.22 179.771 541.911 179.441 541.781 179.011L534.561 155.081C534.451 154.701 534.491 154.291 534.671 153.941C534.861 153.591 535.181 153.331 535.561 153.211L549.47 149.011C552.62 148.061 555.96 149.851 556.91 153.001L561.551 168.381C562.501 171.531 560.711 174.871 557.561 175.821L543.651 180.021C543.291 180.131 542.92 180.091 542.6 179.951V179.941ZM537.871 155.641L544.231 176.701L556.711 172.931C558.281 172.461 559.171 170.801 558.691 169.231L554.051 153.851C553.581 152.291 551.92 151.391 550.35 151.871L537.871 155.631V155.641Z" fill="white"/>
<path d="M529.289 156.669L452.7 179.778L459.921 203.713L536.511 180.603L529.289 156.669Z" fill="#EE4A00"/>
<path d="M437.851 192.83L440.151 200.46L456.601 203.05L450.281 182.11L437.851 192.83Z" fill="white"/>
<path d="M537.95 180.161L530.73 156.231C530.61 155.841 530.35 155.521 530 155.341C529.65 155.151 529.24 155.111 528.86 155.221L452.27 178.331C451.72 178.501 450.39 179.371 450.13 179.591L436.04 191.741C435.74 192.001 435.62 192.411 435.74 192.781L438.41 201.641C438.49 201.921 438.7 202.141 438.95 202.261C439.04 202.301 439.12 202.321 439.21 202.341L457.85 205.271C458.19 205.321 460.01 205.251 460.36 205.141L536.95 182.031C537.74 181.791 538.19 180.951 537.95 180.161ZM460.93 201.831L454.57 180.771L528.29 158.531L534.64 179.591L460.93 201.831Z" fill="white"/>
<path d="M430.91 197.48L436.7 192.5L439.37 201.36L431.67 200.15C430.38 199.95 429.92 198.33 430.91 197.48Z" fill="#EE4A00"/>
<path d="M430.85 200.94C430.19 200.64 429.68 200.06 429.48 199.33C429.21 198.37 429.51 197.37 430.26 196.72L437.21 190.73L440.79 202.58L431.52 201.13C431.28 201.09 431.06 201.03 430.86 200.93L430.85 200.94ZM431.56 198.24C431.33 198.44 431.37 198.69 431.4 198.78C431.43 198.88 431.53 199.11 431.82 199.16L437.95 200.12L436.18 194.26L431.56 198.24Z" fill="#EE4A00"/>
<path d="M388.401 91.8613L386.455 94.1309L458.837 156.214L460.784 153.944L388.401 91.8613Z" fill="white"/>
<path d="M416.91 57.8908C403.22 79.8108 406.46 107.021 424.61 122.591C442.58 138.011 469.8 137.201 489.34 120.681L491.27 122.961C470.61 140.431 441.76 141.231 422.67 124.851C413.31 116.821 407.36 105.431 405.91 92.7808C404.48 80.3008 407.49 67.3408 414.38 56.3008L416.92 57.8808L416.91 57.8908Z" fill="white"/>
<path d="M486.251 70.1307L500.551 53.4607C501.261 52.6407 501.161 51.3907 500.341 50.6907L484.591 37.1807C483.771 36.4707 482.521 36.5707 481.821 37.3907L467.521 54.0607L486.251 70.1307Z" fill="#FF6D2A"/>
<path d="M485.321 36.3307L501.071 49.8407C502.361 50.9507 502.511 52.9007 501.401 54.2007L486.371 71.7307L465.931 54.2007L480.961 36.6707C482.071 35.3807 484.021 35.2307 485.321 36.3407V36.3307ZM486.131 68.5507L499.701 52.7307C500.001 52.3807 499.961 51.8407 499.611 51.5407L483.861 38.0307C483.511 37.7307 482.971 37.7707 482.671 38.1207L469.101 53.9407L486.131 68.5507Z" fill="white"/>
<path d="M444.88 76.2603L463.98 57.8203L482.71 73.8903L467.85 95.6903C466.75 97.3003 465.28 98.6203 463.55 99.5303L432.84 115.71C432.67 115.8 432.5 115.59 432.62 115.44L454.32 90.1403C456.05 90.8603 458.13 90.4203 459.42 88.9103C460.71 87.4103 460.83 85.2803 459.86 83.6803C459.62 83.2803 459.31 82.9003 458.94 82.5803C458.52 82.2203 458.05 81.9503 457.55 81.7703C455.85 81.1503 453.86 81.6003 452.61 83.0603C451.36 84.5203 451.21 86.5503 452.09 88.1403L430.38 113.45C430.25 113.6 430.01 113.45 430.08 113.27L441.96 80.7503C442.58 79.0503 443.58 77.5103 444.88 76.2603Z" fill="#EE4A00"/>
<path d="M463.93 56.3008L484.2 73.6908L468.77 96.3208C467.57 98.0808 465.95 99.5308 464.07 100.521L433.36 116.701C432.81 116.991 432.13 116.851 431.74 116.361C431.35 115.871 431.36 115.181 431.77 114.711L454 88.7908L454.75 89.1008C456.09 89.6508 457.63 89.2808 458.57 88.1808C459.52 87.0708 459.65 85.5008 458.9 84.2608C458.5 83.5808 457.86 83.0708 457.18 82.8408C455.85 82.3608 454.37 82.7408 453.46 83.8008C452.55 84.8608 452.4 86.3908 453.07 87.6108L453.45 88.2908L431.23 114.191C430.82 114.671 430.13 114.781 429.59 114.471C429.04 114.151 428.81 113.501 429.02 112.911L440.9 80.3908C441.57 78.5408 442.68 76.8408 444.1 75.4808L463.93 56.3308V56.3008ZM481.22 74.0808L464.02 59.3308L445.66 77.0608C444.49 78.1908 443.57 79.6008 443.01 81.1308L432.92 108.751L450.77 87.9408C450.06 86.0508 450.42 83.8808 451.76 82.3208C453.27 80.5608 455.75 79.9108 457.94 80.7108C459.09 81.1108 460.17 81.9808 460.83 83.0908C462.08 85.1508 461.86 87.7808 460.28 89.6308C458.88 91.2608 456.72 91.9308 454.69 91.4308L436.7 112.401L463.03 98.5308C464.59 97.7108 465.93 96.5108 466.93 95.0508L481.22 74.0908V74.0808Z" fill="white"/>
<path d="M459.81 160.321C462.704 160.321 465.05 157.975 465.05 155.081C465.05 152.187 462.704 149.841 459.81 149.841C456.916 149.841 454.57 152.187 454.57 155.081C454.57 157.975 456.916 160.321 459.81 160.321Z" fill="#EE4A00"/>
<path d="M387.43 98.231C390.324 98.231 392.67 95.8849 392.67 92.991C392.67 90.097 390.324 87.751 387.43 87.751C384.536 87.751 382.19 90.097 382.19 92.991C382.19 95.8849 384.536 98.231 387.43 98.231Z" fill="#EE4A00"/>
<path d="M416.091 124.483L424.038 131.3L430.854 123.353L422.907 116.536L416.091 124.483Z" fill="#EE4A00"/>
<path d="M480.583 122.825L488.53 129.642L495.347 121.694L487.399 114.878L480.583 122.825Z" fill="#FF9460"/>
<path d="M408.206 60.7285L416.153 67.5449L422.97 59.5977L415.023 52.7813L408.206 60.7285Z" fill="#FF9460"/>
</svg>
