<?xml version="1.0" encoding="UTF-8"?><svg id="_ícones_serviços" xmlns="http://www.w3.org/2000/svg" viewBox="0 0 600 600"><defs><style>.cls-1,.cls-2,.cls-3{fill:#fff;}.cls-4{fill:#05183c;}.cls-5{fill:#ff9460;}.cls-6{fill:none;stroke:#fff;stroke-width:6.77px;}.cls-6,.cls-2,.cls-3{stroke-miterlimit:10;}.cls-7{fill:#1a3c7d;}.cls-8{fill:#ee4a00;}.cls-9{fill:#06296b;}.cls-10{fill:#ff6d2a;}.cls-2{stroke-width:2px;}.cls-2,.cls-3{stroke:#e4dede;}.cls-3{stroke-width:1.27px;}</style></defs><g><path class="cls-4" d="M283.74,279.26s.1,.05,.15,.08c.05,.02,.09,.04,.14,.06-.09-.05-.19-.1-.29-.14Zm.55,.28s-.04-.02-.06-.03c.04,.03,.09,.06,.13,.09-.02-.03-.04-.04-.07-.06Zm-.87-.41l-.99-.4h-.01l-1.09,.4c.12-.04,.23-.07,.36-.09,.07-.02,.14-.03,.21-.03,.07-.02,.15-.03,.22-.03,.06-.01,.13-.01,.19-.01h.07c.14,0,.28,.01,.42,.03,.17,.03,.33,.06,.49,.1,.08,.02,.15,.05,.22,.07l-.09-.04Z"/><path class="cls-4" d="M249.1,348.14c.62-.05,1.23-.13,1.83-.27-.6,.13-1.21,.22-1.83,.27Zm34.64-68.88s.1,.05,.15,.08c.05,.02,.09,.04,.14,.06-.09-.05-.19-.1-.29-.14Z"/><path class="cls-4" d="M250.93,347.87c-.6,.14-1.21,.22-1.83,.27,.62-.05,1.23-.14,1.83-.27Z"/><path class="cls-4" d="M279.42,280.59c-.04,.06-.08,.12-.11,.19,.02-.05,.04-.09,.07-.13,.01-.02,.02-.04,.04-.06Z"/><path class="cls-4" d="M283.51,279.17c-.07-.02-.14-.05-.22-.07,.04,.01,.09,.02,.13,.03l.09,.04Z"/><path class="cls-4" d="M284.36,279.6s-.09-.06-.13-.09c.02,.01,.04,.02,.06,.03,.03,.02,.05,.03,.07,.06Z"/><path class="cls-4" d="M110.91,216.87l166.82,67.5h0S110.91,216.87,110.91,216.87Zm172.51,62.26l-.99-.4h-.01l-1.09,.4c.12-.04,.23-.07,.36-.09,.07-.02,.14-.03,.21-.03,.07-.02,.15-.03,.22-.03,.06-.01,.13-.01,.19-.01h.07c.14,0,.28,.01,.42,.03,.17,.03,.33,.06,.49,.1,.08,.02,.15,.05,.22,.07l-.09-.04Zm.32,.13s.1,.05,.15,.08c.05,.02,.09,.04,.14,.06-.09-.05-.19-.1-.29-.14Zm.55,.28s-.04-.02-.06-.03c.04,.03,.09,.06,.13,.09-.02-.03-.04-.04-.07-.06Zm-170.53,15.76v.02l128.55,51.77-128.55-51.79Z"/><path class="cls-4" d="M287.29,284.4h0s183.64-66.68,183.64-66.68l-183.64,66.68Zm0,0h0s183.64-66.68,183.64-66.68l-183.64,66.68Zm0,0h0s183.64-66.68,183.64-66.68l-183.64,66.68Zm0,0h0s183.64-66.68,183.64-66.68l-183.64,66.68Zm-3-4.86s-.04-.02-.06-.03c.04,.03,.09,.06,.13,.09-.02-.03-.04-.04-.07-.06Zm-.55-.28s.1,.05,.15,.08c.05,.02,.09,.04,.14,.06-.09-.05-.19-.1-.29-.14Zm-.32-.13l-.99-.4h-.01l-1.09,.4c.12-.04,.23-.07,.36-.09,.07-.02,.14-.03,.21-.03,.07-.02,.15-.03,.22-.03,.06-.01,.13-.01,.19-.01h.07c.14,0,.28,.01,.42,.03,.17,.03,.33,.06,.49,.1,.08,.02,.15,.05,.22,.07l-.09-.04Z"/><path class="cls-4" d="M283.42,279.13l-.99-.4h-.01l-1.09,.4c.12-.04,.23-.07,.36-.09,.07-.02,.14-.03,.21-.03,.07-.02,.15-.03,.22-.03,.06-.01,.13-.01,.19-.01h.07c.14,0,.28,.01,.42,.03,.17,.03,.33,.06,.49,.1,.08,.02,.15,.05,.22,.07l-.09-.04Z"/><path class="cls-1" d="M507.25,261.71l-31.85-49.99-.08-.13c-.16-.25-.35-.47-.56-.67-.05-.06-.11-.11-.17-.15-.08-.06-.15-.12-.23-.18-.08-.05-.16-.1-.24-.15-.07-.04-.14-.08-.22-.11-.09-.05-.19-.09-.29-.13l-82.18-32.51c-.05-.02-.1-.04-.15-.06l-63.13-24.98c-.06-.02-.12-.05-.18-.07l-31.07-12.29s-.07-.03-.11-.04l-.05-.02c-.09-.04-.17-.08-.26-.11-1.57-.57-3.2-.92-4.82-1.03-2.64-.2-5.35,.21-7.82,1.18l-10.31,4.05s-.1,.03-.15,.05L108.09,209.21c-.16,.06-.32,.14-.48,.23-.15,.09-.29,.19-.42,.29-.14,.11-.27,.23-.38,.36-.12,.12-.22,.26-.32,.4-.06,.07-.1,.14-.14,.22-.01,.01-.02,.03-.03,.04l-29.14,51.72c-2.1,3.73-2.49,8.18-1.08,12.21,1.41,4.04,4.5,7.27,8.47,8.88l22.15,8.92,1.55,144.95c.08,7.23,4.47,13.65,11.19,16.35l156.15,62.46c1.17,.47,2.38,.81,3.62,1.02,.83,.14,1.68,.22,2.54,.24,.17,0,.34,.01,.52,.01,.71,0,1.42-.04,2.12-.13,1.23-.15,2.45-.43,3.64-.84l176.3-60.92c7.18-2.49,12-9.26,12-16.86v-.02l-.31-146.28h0s23.83-8.82,23.83-8.82h.01c4.23-1.57,7.49-4.93,8.92-9.21,1.44-4.28,.88-8.91-1.55-12.72Zm-420.06,15.35c-2.1-.84-3.73-2.56-4.48-4.69-.75-2.14-.54-4.49,.57-6.46l27.63-49.04,166.82,67.49h0s-22.66,52.08-22.66,52.08c-1.68,3.87-6.23,5.73-10.14,4.15l-133.5-53.77-24.24-9.76Zm191.19,232.74s-.11-.04-.16-.06l-156.16-62.46c-4.08-1.64-6.74-5.53-6.79-9.93l-1.51-142.03v-.02l128.55,51.79c1.85,.74,3.75,1.1,5.62,1.1,.39,0,.78-.02,1.17-.05,.62-.05,1.23-.14,1.83-.27,1.09-.22,2.16-.57,3.16-1.04,.24-.11,.48-.22,.71-.35,.17-.09,.33-.18,.49-.27,.22-.13,.44-.26,.65-.4,2.37-1.54,4.33-3.78,5.55-6.58l17.34-39.86-.45,210.43Zm4.91-230.7c-.16-.04-.32-.07-.49-.1-.14-.02-.28-.03-.42-.03h-.07c-.06,0-.13,0-.19,.01-.07,0-.15,0-.22,.03-.07,0-.14,.01-.21,.03-.13,.02-.24,.05-.36,.09l1.09-.4h.01l.99,.4,.09,.04c-.07-.02-.14-.05-.22-.07Zm.6,.24c-.05-.03-.1-.06-.15-.08,.1,.04,.2,.09,.29,.14-.05-.02-.09-.04-.14-.06Zm.34,.17s.04,.02,.06,.03c.03,.02,.05,.03,.07,.06-.04-.03-.09-.06-.13-.09Zm-1.79-.79L118.83,212.52l156.97-61.58s.1-.03,.15-.05l10.45-4.1c1.5-.59,3.14-.84,4.76-.72,.95,.07,1.9,.27,2.83,.6,.12,.05,.25,.09,.38,.14l30.85,12.21c.06,.02,.12,.05,.18,.07l63.44,25.1c.05,.02,.1,.04,.15,.06l73.51,29.08-180.06,65.39Zm179.63,170.28l-176.3,60.92c-.13,.04-.26,.08-.39,.11l.46-213.09,22.32,43.64c.33,.64,.69,1.24,1.1,1.81,.2,.29,.41,.56,.63,.83,.21,.27,.44,.53,.68,.77,.23,.25,.47,.49,.72,.73,.27,.25,.55,.49,.84,.71,.21,.17,.43,.34,.65,.49,.35,.26,.72,.49,1.09,.7,.24,.15,.48,.28,.73,.41,.24,.12,.48,.24,.73,.35,.42,.19,.85,.36,1.29,.51,.26,.09,.52,.17,.78,.24,.36,.1,.72,.19,1.08,.26,.27,.05,.55,.1,.83,.14,.24,.04,.49,.07,.74,.08,.22,.03,.43,.04,.64,.05,.24,.01,.47,.02,.71,.02,1.71,0,3.45-.3,5.14-.93l142.5-52.71,.31,143.72c.01,4.62-2.92,8.73-7.28,10.24Zm40.1-176.8c-.76,2.27-2.48,4.04-4.72,4.88l-25.83,9.56-147.51,54.55c-3.72,1.38-7.9-.25-9.71-3.79l-27.11-52.99h0s183.64-66.69,183.64-66.69l30.42,47.75c1.28,2.01,1.58,4.47,.82,6.73Z"/><path class="cls-9" d="M502.17,272.2c-.76,2.27-2.48,4.04-4.72,4.88l-25.83,9.56-147.51,54.55c-3.72,1.38-7.9-.25-9.71-3.79l-27.11-52.99,183.64-66.69,30.42,47.75c1.28,2.01,1.58,4.47,.82,6.73Z"/><path class="cls-9" d="M469.35,438.76c.01,4.62-2.92,8.73-7.28,10.24l-176.3,60.92c-.13,.04-.26,.08-.39,.11l.46-213.09,22.32,43.64c.33,.64,.69,1.24,1.1,1.81,.2,.29,.41,.56,.63,.83,.21,.27,.44,.53,.68,.77,.23,.25,.47,.49,.72,.73,.27,.25,.55,.49,.84,.71,.21,.17,.43,.34,.65,.49,.35,.26,.72,.49,1.09,.7,.24,.15,.48,.28,.73,.41,.24,.12,.48,.24,.73,.35,.42,.19,.85,.36,1.29,.51,.26,.09,.52,.17,.78,.24,.36,.1,.72,.19,1.08,.26,.27,.05,.55,.1,.83,.14,.24,.04,.49,.07,.74,.08,.22,.03,.43,.04,.64,.05,.24,.01,.47,.02,.71,.02,1.71,0,3.45-.3,5.14-.93l142.5-52.71,.31,143.72Z"/><path class="cls-7" d="M278.83,299.37l-.45,210.43s-.11-.04-.16-.06l-156.16-62.46c-4.08-1.64-6.74-5.53-6.79-9.93l-1.51-142.03,128.55,51.77c1.85,.74,3.75,1.1,5.62,1.1,.39,0,.78-.02,1.17-.05,.62-.05,1.23-.13,1.83-.27,1.09-.22,2.16-.57,3.16-1.04,.24-.11,.48-.22,.71-.35,.17-.09,.33-.18,.49-.27,.22-.13,.44-.26,.65-.4,2.37-1.54,4.33-3.78,5.55-6.58l17.34-39.86Z"/><path class="cls-7" d="M277.73,284.37l-22.66,52.07c-1.68,3.87-6.23,5.73-10.14,4.15l-133.5-53.77-24.24-9.76c-2.1-.84-3.73-2.56-4.48-4.69-.75-2.14-.54-4.49,.57-6.46l27.63-49.04,166.82,67.5Z"/><path class="cls-4" d="M462.5,213.33l-180.06,65.39L118.83,212.52l156.97-61.58s.1-.03,.15-.05l10.45-4.1c1.5-.59,3.14-.84,4.76-.72,.95,.07,1.9,.27,2.83,.6,.12,.05,.25,.09,.38,.14l30.85,12.21c.06,.02,.12,.05,.18,.07l63.44,25.1c.05,.02,.1,.04,.15,.06l73.51,29.08Z"/></g><ellipse class="cls-6" cx="289.43" cy="303.22" rx="274.5" ry="147.25"/><path class="cls-3" d="M547.01,333.26l-8.32,4.39c-1.06,.53-2.11-.72-1.4-1.67l5.72-7.65c2.9-3.88,4.71-8.54,5.24-13.32,.42-3.79,.03-7.66-1.24-11.27l-.32-.9-.47-1.33c-.37-1.04,.84-1.93,1.72-1.27h.02c.32,.25,.64,.48,.97,.7,7.64,5.13,17.7,5.55,26.05,1.54l.65-.29,7.83-3.55c1.08-.52,2.11,.8,1.35,1.72l-5.36,6.48-.48,.58c-6.13,7.42-7.36,17.28-3.68,26.08,.17,.41,.35,.81,.54,1.21,.25,.53,.06,1.05-.31,1.35-.34,.28-.85,.36-1.3,.07l-1.28-.82-.63-.4c-3.41-2.17-7.15-3.54-10.97-4.05-4.82-.64-9.76,.11-14.32,2.41Z"/><circle class="cls-2" cx="78.43" cy="397.47" r="12"/><g><path class="cls-5" d="M403.69,95.63l-102.04-11.24c-10.48-1.16-20,6.47-21.15,16.96l-4.02,36.48-1.08,9.75-10.31,93.57c-.93,8.52,3.92,16.4,11.39,19.67,1.73,.76,3.6,1.27,5.57,1.49l41.13,4.53,36.12-13.12,30.29-11,17.9-6.5,3.91-35.54,9.25-83.89c1.15-10.49-6.48-20.01-16.96-21.16Zm15.19,20.97l-13.04,118.33-82.88,30.1-40.71-4.49c-1.76-.19-3.46-.65-5.06-1.35-6.9-3.02-11.15-10.36-10.33-17.84l15.41-139.81c.5-4.6,2.78-8.74,6.42-11.65,3.13-2.51,6.92-3.84,10.84-3.84,.64,0,1.28,.04,1.92,.11l102.05,11.24c9.52,1.05,16.43,9.66,15.38,19.2Z"/><path class="cls-5" d="M418.88,116.6l-13.04,118.33-82.88,30.1-40.71-4.49c-1.76-.19-3.46-.65-5.06-1.35-6.9-3.02-11.15-10.36-10.33-17.84l15.41-139.81c.5-4.6,2.78-8.74,6.42-11.65,3.13-2.51,6.92-3.84,10.84-3.84,.64,0,1.28,.04,1.92,.11l102.05,11.24c9.52,1.05,16.43,9.66,15.38,19.2Z"/><path class="cls-1" d="M417.95,134.22c-.07,0-.15,0-.22-.01l-138.63-15.27c-1.1-.12-1.89-1.11-1.77-2.21s1.11-1.89,2.21-1.77l138.63,15.27c1.1,.12,1.89,1.11,1.77,2.21-.11,1.02-.98,1.78-1.99,1.78Z"/><path class="cls-1" d="M403.89,93.86l-102.04-11.24c-5.55-.61-11.01,.98-15.38,4.49-4.38,3.51-7.13,8.5-7.74,14.05l-15.41,139.8c-.98,9.01,4.13,17.85,12.44,21.49,1.93,.84,3.98,1.39,6.1,1.63l41.54,4.57,85.74-31.14,13.28-120.52h0c1.26-11.5-7.06-21.87-18.53-23.13Zm14.99,22.74l-13.04,118.33-18.68,6.78-31.85,11.57-32.35,11.75-40.71-4.49c-1.76-.19-3.46-.65-5.06-1.35-6.9-3.02-11.15-10.36-10.33-17.84l15.41-139.81c.5-4.6,2.78-8.74,6.42-11.65,3.13-2.51,6.92-3.84,10.84-3.84,.64,0,1.28,.04,1.92,.11l102.05,11.24c9.52,1.05,16.43,9.66,15.38,19.2Z"/><g><circle class="cls-10" cx="304.48" cy="102.81" r="5"/><circle class="cls-10" cx="320.1" cy="104.53" r="5"/><circle class="cls-10" cx="335.72" cy="106.25" r="5"/></g><g><rect class="cls-8" x="286.55" y="161.46" width="57" height="47" rx="5.96" ry="5.96" transform="translate(22.15 -33.39) rotate(6.29)"/><path class="cls-8" d="M387.16,241.71l-31.85,11.57-64.52-7.11-5.1-.56c-3.27-.36-5.63-3.3-5.27-6.58l.33-3.06c.37-3.27,3.31-5.63,6.58-5.27l4.94,.54,94.54,10.42c.12,.01,.23,.03,.35,.05Z"/><path class="cls-10" d="M401.6,153.74s-.07,0-.11,0l-110.33-12.16c-.55-.06-.95-.55-.88-1.1s.54-.95,1.1-.88l110.33,12.16c.55,.06,.95,.55,.88,1.1-.06,.51-.49,.89-.99,.89Z"/><path class="cls-10" d="M400.61,162.69s-.07,0-.11,0l-110.33-12.15c-.55-.06-.95-.55-.88-1.1s.54-.95,1.1-.88l110.33,12.15c.55,.06,.95,.55,.88,1.1-.06,.51-.49,.89-.99,.89Z"/><path class="cls-10" d="M399.63,171.63s-.07,0-.11,0l-42.91-4.73c-.55-.06-.95-.55-.88-1.1s.54-.95,1.1-.88l42.91,4.73c.55,.06,.95,.55,.88,1.1-.06,.51-.49,.89-.99,.89Z"/><path class="cls-10" d="M398.64,180.58s-.07,0-.11,0l-42.91-4.73c-.55-.06-.95-.55-.88-1.1,.06-.55,.54-.94,1.1-.88l42.91,4.73c.55,.06,.95,.55,.88,1.1-.06,.51-.49,.89-.99,.89Z"/><path class="cls-10" d="M397.66,189.53s-.07,0-.11,0l-42.91-4.73c-.55-.06-.95-.55-.88-1.1,.06-.55,.55-.94,1.1-.88l42.91,4.73c.55,.06,.95,.55,.88,1.1-.06,.51-.49,.89-.99,.89Z"/><path class="cls-10" d="M396.67,198.47s-.07,0-.11,0l-42.91-4.73c-.55-.06-.95-.55-.88-1.1s.54-.95,1.1-.88l42.91,4.73c.55,.06,.95,.55,.88,1.1-.06,.51-.49,.89-.99,.89Z"/><path class="cls-10" d="M395.58,208.41s-.07,0-.11,0l-42.91-4.73c-.55-.06-.95-.55-.88-1.1,.06-.55,.55-.94,1.1-.88l42.91,4.73c.55,.06,.95,.55,.88,1.1-.06,.51-.49,.89-.99,.89Z"/><path class="cls-10" d="M394.59,217.36s-.07,0-.11,0l-42.91-4.73c-.55-.06-.95-.55-.88-1.1s.54-.95,1.1-.88l42.91,4.73c.55,.06,.95,.55,.88,1.1-.06,.51-.49,.89-.99,.89Z"/></g></g><g><g><path class="cls-8" d="M301.09,241.12c-2.51,6.25-7.43,11.4-13.78,14.11-1.9,.81-3.92,1.4-6.05,1.73l-45.27,7.11-69.84-28.26-6.5-41.41-4.62-29.4c-2.19-13.96,7.44-27.18,21.41-29.37l83.7-13.14c11.45-1.8,22.39,4.34,27.17,14.31,1.05,2.19,1.81,4.56,2.21,7.09l.49,3.1,6.29,40.13,2.31,14.68,3.91,24.95,.13,.85c.74,4.73,.13,9.37-1.56,13.53Z"/><path class="cls-1" d="M235.8,265.83l-71.18-28.8-11.27-71.76c-1.13-7.21,.63-14.44,4.95-20.38,4.32-5.94,10.67-9.82,17.88-10.95l83.7-13.14c11.86-1.86,23.78,4.41,28.98,15.26,1.15,2.4,1.94,4.94,2.35,7.56l.49,3.1,12.64,80.61c.76,4.87,.19,9.87-1.66,14.44-2.71,6.73-8.06,12.21-14.7,15.04-2.05,.87-4.22,1.5-6.45,1.85l-45.74,7.18Zm-68.1-31.25l68.5,27.72,44.8-7.03c1.95-.31,3.85-.85,5.64-1.62,5.8-2.47,10.49-7.27,12.86-13.17h0c1.62-4,2.12-8.37,1.45-12.62l-6.35-40.48-6.78-43.22c-.36-2.29-1.05-4.52-2.06-6.61-4.56-9.5-14.99-14.99-25.36-13.36l-83.7,13.14c-6.3,.99-11.85,4.39-15.64,9.58-3.78,5.19-5.33,11.52-4.34,17.83l10.97,69.84Z"/></g><path class="cls-5" d="M272.97,149.05c.03,.19-.07,.41-.28,.5l-.61,.33-.31,.15c-1.58,.83-2.93,1.97-4,3.34-1.3,1.72-2.12,3.81-2.26,6.07l-.16,4.19c-.02,.52-.75,.68-.96,.18l-1.67-3.93c-.86-1.97-2.26-3.71-3.99-4.98-1.37-1-2.97-1.74-4.62-2.03l-.44-.09-.61-.1c-.5-.08-.58-.76-.12-.97,.18-.06,.34-.12,.49-.21,3.69-1.82,6.11-5.62,6.42-9.73l.05-.3,.35-3.83c.05-.53,.79-.65,.96-.15l1.31,3.54,.11,.31c1.51,4.03,5.05,6.69,9.27,7.24,.2,.04,.4,.04,.6,.07,.26,.03,.42,.2,.46,.42Z"/><circle class="cls-5" cx="228.24" cy="199.53" r="32.35"/></g></svg>