<svg width="600" height="530" viewBox="0 0 600 530" fill="none" xmlns="http://www.w3.org/2000/svg">
<path d="M283.74 291.26C283.74 291.26 283.84 291.31 283.89 291.34C283.94 291.36 283.98 291.38 284.03 291.4C283.94 291.35 283.84 291.3 283.74 291.26ZM284.29 291.54C284.29 291.54 284.25 291.52 284.23 291.51C284.27 291.54 284.32 291.57 284.36 291.6C284.34 291.57 284.32 291.56 284.29 291.54ZM283.42 291.13L282.43 290.73H282.42L281.33 291.13C281.45 291.09 281.56 291.06 281.69 291.04C281.76 291.02 281.83 291.01 281.9 291.01C281.97 290.99 282.05 290.98 282.12 290.98C282.18 290.97 282.25 290.97 282.31 290.97H282.38C282.52 290.97 282.66 290.98 282.8 291C282.97 291.03 283.13 291.06 283.29 291.1C283.37 291.12 283.44 291.15 283.51 291.17L283.42 291.13Z" fill="#05183C"/>
<path d="M249.1 360.141C249.72 360.091 250.33 360.011 250.93 359.871C250.33 360.001 249.72 360.091 249.1 360.141ZM283.74 291.261C283.74 291.261 283.84 291.311 283.89 291.341C283.94 291.361 283.98 291.381 284.03 291.401C283.94 291.351 283.84 291.301 283.74 291.261Z" fill="#05183C"/>
<path d="M250.93 359.87C250.33 360.01 249.72 360.09 249.1 360.14C249.72 360.09 250.33 360 250.93 359.87Z" fill="#05183C"/>
<path d="M279.42 292.591C279.38 292.651 279.34 292.711 279.31 292.781C279.33 292.731 279.35 292.691 279.38 292.651C279.39 292.631 279.4 292.611 279.42 292.591Z" fill="#05183C"/>
<path d="M283.51 291.171C283.44 291.151 283.37 291.121 283.29 291.101C283.33 291.111 283.38 291.121 283.42 291.131L283.51 291.171Z" fill="#05183C"/>
<path d="M284.36 291.601C284.36 291.601 284.27 291.541 284.23 291.511C284.25 291.521 284.27 291.531 284.29 291.541C284.32 291.561 284.34 291.571 284.36 291.601Z" fill="#05183C"/>
<path d="M283.42 291.13L282.43 290.73H282.42L281.33 291.13C281.45 291.09 281.56 291.06 281.69 291.04C281.76 291.02 281.83 291.01 281.9 291.01C281.97 290.99 282.05 290.98 282.12 290.98C282.18 290.97 282.25 290.97 282.31 290.97H282.38C282.52 290.97 282.66 290.98 282.8 291C282.97 291.03 283.13 291.06 283.29 291.1C283.37 291.12 283.44 291.15 283.51 291.17L283.42 291.13ZM283.74 291.26C283.74 291.26 283.84 291.31 283.89 291.34C283.94 291.36 283.98 291.38 284.03 291.4C283.94 291.35 283.84 291.3 283.74 291.26ZM284.29 291.54C284.29 291.54 284.25 291.52 284.23 291.51C284.27 291.54 284.32 291.57 284.36 291.6C284.34 291.57 284.32 291.56 284.29 291.54ZM113.76 307.3V307.32L242.31 359.09L113.76 307.3Z" fill="#05183C"/>
<path d="M284.29 291.541C284.29 291.541 284.25 291.521 284.23 291.511C284.27 291.541 284.32 291.571 284.36 291.601C284.34 291.571 284.32 291.561 284.29 291.541ZM283.74 291.261C283.74 291.261 283.84 291.311 283.89 291.341C283.94 291.361 283.98 291.381 284.03 291.401C283.94 291.351 283.84 291.301 283.74 291.261ZM283.42 291.131L282.43 290.731H282.42L281.33 291.131C281.45 291.091 281.56 291.061 281.69 291.041C281.76 291.021 281.83 291.011 281.9 291.011C281.97 290.991 282.05 290.981 282.12 290.981C282.18 290.971 282.25 290.971 282.31 290.971H282.38C282.52 290.971 282.66 290.981 282.8 291.001C282.97 291.031 283.13 291.061 283.29 291.101C283.37 291.121 283.44 291.151 283.51 291.171L283.42 291.131Z" fill="#05183C"/>
<path d="M283.42 291.13L282.43 290.73H282.42L281.33 291.13C281.45 291.09 281.56 291.06 281.69 291.04C281.76 291.02 281.83 291.01 281.9 291.01C281.97 290.99 282.05 290.98 282.12 290.98C282.18 290.97 282.25 290.97 282.31 290.97H282.38C282.52 290.97 282.66 290.98 282.8 291C282.97 291.03 283.13 291.06 283.29 291.1C283.37 291.12 283.44 291.15 283.51 291.17L283.42 291.13Z" fill="#05183C"/>
<path d="M507.25 273.71L475.4 223.72L475.32 223.59C475.16 223.34 474.97 223.12 474.76 222.92C474.71 222.86 474.65 222.81 474.59 222.77C474.51 222.71 474.44 222.65 474.36 222.59C474.28 222.54 474.2 222.49 474.12 222.44C474.05 222.4 473.98 222.36 473.9 222.33C473.81 222.28 473.71 222.24 473.61 222.2L391.43 189.69C391.38 189.67 391.33 189.65 391.28 189.63L328.15 164.65C328.09 164.63 328.03 164.6 327.97 164.58L296.9 152.29C296.9 152.29 296.83 152.26 296.79 152.25L296.74 152.23C296.65 152.19 296.57 152.15 296.48 152.12C294.91 151.55 293.28 151.2 291.66 151.09C289.02 150.89 286.31 151.3 283.84 152.27L273.53 156.32C273.53 156.32 273.43 156.35 273.38 156.37L108.09 221.21C107.93 221.27 107.77 221.35 107.61 221.44C107.46 221.53 107.32 221.63 107.19 221.73C107.05 221.84 106.92 221.96 106.81 222.09C106.69 222.21 106.59 222.35 106.49 222.49C106.43 222.56 106.39 222.63 106.35 222.71C106.34 222.72 106.33 222.74 106.32 222.75L77.18 274.47C75.08 278.2 74.69 282.65 76.1 286.68C77.51 290.72 80.6 293.95 84.57 295.56L106.72 304.48L108.27 449.43C108.35 456.66 112.74 463.08 119.46 465.78L275.61 528.24C276.78 528.71 277.99 529.05 279.23 529.26C280.06 529.4 280.91 529.48 281.77 529.5C281.94 529.5 282.11 529.51 282.29 529.51C283 529.51 283.71 529.47 284.41 529.38C285.64 529.23 286.86 528.95 288.05 528.54L464.35 467.62C471.53 465.13 476.35 458.36 476.35 450.76V450.74L476.04 304.46L499.87 295.64H499.88C504.11 294.07 507.37 290.71 508.8 286.43C510.24 282.15 509.68 277.52 507.25 273.71ZM87.19 289.06C85.09 288.22 83.46 286.5 82.71 284.37C81.96 282.23 82.17 279.88 83.28 277.91L110.91 228.87L277.73 296.36L255.07 348.44C253.39 352.31 248.84 354.17 244.93 352.59L111.43 298.82L87.19 289.06ZM278.38 521.8C278.38 521.8 278.27 521.76 278.22 521.74L122.06 459.28C117.98 457.64 115.32 453.75 115.27 449.35L113.76 307.32V307.3L242.31 359.09C244.16 359.83 246.06 360.19 247.93 360.19C248.32 360.19 248.71 360.17 249.1 360.14C249.72 360.09 250.33 360 250.93 359.87C252.02 359.65 253.09 359.3 254.09 358.83C254.33 358.72 254.57 358.61 254.8 358.48C254.97 358.39 255.13 358.3 255.29 358.21C255.51 358.08 255.73 357.95 255.94 357.81C258.31 356.27 260.27 354.03 261.49 351.23L278.83 311.37L278.38 521.8ZM283.29 291.1C283.13 291.06 282.97 291.03 282.8 291C282.66 290.98 282.52 290.97 282.38 290.97H282.31C282.25 290.97 282.18 290.97 282.12 290.98C282.05 290.98 281.97 290.98 281.9 291.01C281.83 291.01 281.76 291.02 281.69 291.04C281.56 291.06 281.45 291.09 281.33 291.13L282.42 290.73H282.43L283.42 291.13L283.51 291.17C283.44 291.15 283.37 291.12 283.29 291.1ZM283.89 291.34C283.84 291.31 283.79 291.28 283.74 291.26C283.84 291.3 283.94 291.35 284.03 291.4C283.98 291.38 283.94 291.36 283.89 291.34ZM284.23 291.51C284.23 291.51 284.27 291.53 284.29 291.54C284.32 291.56 284.34 291.57 284.36 291.6C284.32 291.57 284.27 291.54 284.23 291.51ZM282.44 290.72L118.83 224.52L275.8 162.94C275.8 162.94 275.9 162.91 275.95 162.89L286.4 158.79C287.9 158.2 289.54 157.95 291.16 158.07C292.11 158.14 293.06 158.34 293.99 158.67C294.11 158.72 294.24 158.76 294.37 158.81L325.22 171.02C325.28 171.04 325.34 171.07 325.4 171.09L388.84 196.19C388.89 196.21 388.94 196.23 388.99 196.25L462.5 225.33L282.44 290.72ZM462.07 461L285.77 521.92C285.64 521.96 285.51 522 285.38 522.03L285.84 308.94L308.16 352.58C308.49 353.22 308.85 353.82 309.26 354.39C309.46 354.68 309.67 354.95 309.89 355.22C310.1 355.49 310.33 355.75 310.57 355.99C310.8 356.24 311.04 356.48 311.29 356.72C311.56 356.97 311.84 357.21 312.13 357.43C312.34 357.6 312.56 357.77 312.78 357.92C313.13 358.18 313.5 358.41 313.87 358.62C314.11 358.77 314.35 358.9 314.6 359.03C314.84 359.15 315.08 359.27 315.33 359.38C315.75 359.57 316.18 359.74 316.62 359.89C316.88 359.98 317.14 360.06 317.4 360.13C317.76 360.23 318.12 360.32 318.48 360.39C318.75 360.44 319.03 360.49 319.31 360.53C319.55 360.57 319.8 360.6 320.05 360.61C320.27 360.64 320.48 360.65 320.69 360.66C320.93 360.67 321.16 360.68 321.4 360.68C323.11 360.68 324.85 360.38 326.54 359.75L469.04 307.04L469.35 450.76C469.36 455.38 466.43 459.49 462.07 461ZM502.17 284.2C501.41 286.47 499.69 288.24 497.45 289.08L471.62 298.64L324.11 353.19C320.39 354.57 316.21 352.94 314.4 349.4L287.29 296.41L470.93 229.72L501.35 277.47C502.63 279.48 502.93 281.94 502.17 284.2Z" fill="white"/>
<path d="M502.17 284.201C501.41 286.471 499.69 288.241 497.45 289.081L471.62 298.641L324.11 353.191C320.39 354.571 316.21 352.941 314.4 349.401L287.29 296.411L470.93 229.721L501.35 277.471C502.63 279.481 502.93 281.941 502.17 284.201Z" fill="#06296B"/>
<path d="M469.35 450.76C469.36 455.38 466.43 459.49 462.07 461L285.77 521.92C285.64 521.96 285.51 522 285.38 522.03L285.84 308.94L308.16 352.58C308.49 353.22 308.85 353.82 309.26 354.39C309.46 354.68 309.67 354.95 309.89 355.22C310.1 355.49 310.33 355.75 310.57 355.99C310.8 356.24 311.04 356.48 311.29 356.72C311.56 356.97 311.84 357.21 312.13 357.43C312.34 357.6 312.56 357.77 312.78 357.92C313.13 358.18 313.5 358.41 313.87 358.62C314.11 358.77 314.35 358.9 314.6 359.03C314.84 359.15 315.08 359.27 315.33 359.38C315.75 359.57 316.18 359.74 316.62 359.89C316.88 359.98 317.14 360.06 317.4 360.13C317.76 360.23 318.12 360.32 318.48 360.39C318.75 360.44 319.03 360.49 319.31 360.53C319.55 360.57 319.8 360.6 320.05 360.61C320.27 360.64 320.48 360.65 320.69 360.66C320.93 360.67 321.16 360.68 321.4 360.68C323.11 360.68 324.85 360.38 326.54 359.75L469.04 307.04L469.35 450.76Z" fill="#06296B"/>
<path d="M278.83 311.37L278.38 521.8C278.38 521.8 278.27 521.76 278.22 521.74L122.06 459.28C117.98 457.64 115.32 453.75 115.27 449.35L113.76 307.32L242.31 359.09C244.16 359.83 246.06 360.19 247.93 360.19C248.32 360.19 248.71 360.17 249.1 360.14C249.72 360.09 250.33 360.01 250.93 359.87C252.02 359.65 253.09 359.3 254.09 358.83C254.33 358.72 254.57 358.61 254.8 358.48C254.97 358.39 255.13 358.3 255.29 358.21C255.51 358.08 255.73 357.95 255.94 357.81C258.31 356.27 260.27 354.03 261.49 351.23L278.83 311.37Z" fill="#1A3C7D"/>
<path d="M277.73 296.37L255.07 348.44C253.39 352.31 248.84 354.17 244.93 352.59L111.43 298.82L87.1902 289.06C85.0902 288.22 83.4602 286.5 82.7102 284.37C81.9602 282.23 82.1702 279.88 83.2802 277.91L110.91 228.87L277.73 296.37Z" fill="#1A3C7D"/>
<path d="M462.5 225.33L282.44 290.72L118.83 224.52L275.8 162.94C275.8 162.94 275.9 162.91 275.95 162.89L286.4 158.79C287.9 158.2 289.54 157.95 291.16 158.07C292.11 158.14 293.06 158.34 293.99 158.67C294.11 158.72 294.24 158.76 294.37 158.81L325.22 171.02C325.28 171.04 325.34 171.07 325.4 171.09L388.84 196.19C388.89 196.21 388.94 196.23 388.99 196.25L462.5 225.33Z" fill="#05183C"/>
<path d="M289.43 462.47C441.032 462.47 563.93 396.544 563.93 315.22C563.93 233.896 441.032 167.97 289.43 167.97C137.828 167.97 14.9302 233.896 14.9302 315.22C14.9302 396.544 137.828 462.47 289.43 462.47Z" stroke="white" stroke-width="6.77" stroke-miterlimit="10"/>
<path d="M547.01 345.26L538.69 349.65C537.63 350.18 536.58 348.93 537.29 347.98L543.01 340.33C545.91 336.45 547.72 331.79 548.25 327.01C548.67 323.22 548.28 319.35 547.01 315.74L546.69 314.84L546.22 313.51C545.85 312.47 547.06 311.58 547.94 312.24H547.96C548.28 312.49 548.6 312.72 548.93 312.94C556.57 318.07 566.63 318.49 574.98 314.48L575.63 314.19L583.46 310.64C584.54 310.12 585.57 311.44 584.81 312.36L579.45 318.84L578.97 319.42C572.84 326.84 571.61 336.7 575.29 345.5C575.46 345.91 575.64 346.31 575.83 346.71C576.08 347.24 575.89 347.76 575.52 348.06C575.18 348.34 574.67 348.42 574.22 348.13L572.94 347.31L572.31 346.91C568.9 344.74 565.16 343.37 561.34 342.86C556.52 342.22 551.58 342.97 547.02 345.27L547.01 345.26Z" fill="white" stroke="#E4DEDE" stroke-width="1.27" stroke-miterlimit="10"/>
<path d="M78.4302 421.47C85.0576 421.47 90.4302 416.097 90.4302 409.47C90.4302 402.842 85.0576 397.47 78.4302 397.47C71.8028 397.47 66.4302 402.842 66.4302 409.47C66.4302 416.097 71.8028 421.47 78.4302 421.47Z" fill="white" stroke="#E4DEDE" stroke-width="2" stroke-miterlimit="10"/>
<path d="M403.69 107.63L301.65 96.39C291.17 95.23 281.65 102.86 280.5 113.35L276.48 149.83L275.4 159.58L265.09 253.15C264.16 261.67 269.01 269.55 276.48 272.82C278.21 273.58 280.08 274.09 282.05 274.31L323.18 278.84L359.3 265.72L389.59 254.72L407.49 248.22L411.4 212.68L420.65 128.79C421.8 118.3 414.17 108.78 403.69 107.63ZM418.88 128.6L405.84 246.93L322.96 277.03L282.25 272.54C280.49 272.35 278.79 271.89 277.19 271.19C270.29 268.17 266.04 260.83 266.86 253.35L282.27 113.54C282.77 108.94 285.05 104.8 288.69 101.89C291.82 99.38 295.61 98.05 299.53 98.05C300.17 98.05 300.81 98.09 301.45 98.16L403.5 109.4C413.02 110.45 419.93 119.06 418.88 128.6Z" fill="#FF9460"/>
<path d="M418.88 128.6L405.84 246.93L322.96 277.03L282.25 272.54C280.49 272.35 278.79 271.89 277.19 271.19C270.29 268.17 266.04 260.83 266.86 253.35L282.27 113.54C282.77 108.94 285.05 104.8 288.69 101.89C291.82 99.3798 295.61 98.0498 299.53 98.0498C300.17 98.0498 300.81 98.0898 301.45 98.1598L403.5 109.4C413.02 110.45 419.93 119.06 418.88 128.6Z" fill="#FF9460"/>
<path d="M417.95 146.219C417.88 146.219 417.8 146.219 417.73 146.209L279.1 130.939C278 130.819 277.21 129.829 277.33 128.729C277.45 127.629 278.44 126.839 279.54 126.959L418.17 142.229C419.27 142.349 420.06 143.339 419.94 144.439C419.83 145.459 418.96 146.219 417.95 146.219Z" fill="white"/>
<path d="M403.89 105.86L301.85 94.6198C296.3 94.0098 290.84 95.5998 286.47 99.1098C282.09 102.62 279.34 107.61 278.73 113.16L263.32 252.96C262.34 261.97 267.45 270.81 275.76 274.45C277.69 275.29 279.74 275.84 281.86 276.08L323.4 280.65L409.14 249.51L422.42 128.99C423.68 117.49 415.36 107.12 403.89 105.86ZM418.88 128.6L405.84 246.93L387.16 253.71L355.31 265.28L322.96 277.03L282.25 272.54C280.49 272.35 278.79 271.89 277.19 271.19C270.29 268.17 266.04 260.83 266.86 253.35L282.27 113.54C282.77 108.94 285.05 104.8 288.69 101.89C291.82 99.3798 295.61 98.0498 299.53 98.0498C300.17 98.0498 300.81 98.0898 301.45 98.1598L403.5 109.4C413.02 110.45 419.93 119.06 418.88 128.6Z" fill="white"/>
<path d="M304.48 119.81C307.241 119.81 309.48 117.571 309.48 114.81C309.48 112.048 307.241 109.81 304.48 109.81C301.719 109.81 299.48 112.048 299.48 114.81C299.48 117.571 301.719 119.81 304.48 119.81Z" fill="#FF6D2A"/>
<path d="M320.1 121.529C322.862 121.529 325.1 119.291 325.1 116.529C325.1 113.768 322.862 111.529 320.1 111.529C317.339 111.529 315.1 113.768 315.1 116.529C315.1 119.291 317.339 121.529 320.1 121.529Z" fill="#FF6D2A"/>
<path d="M335.72 123.25C338.481 123.25 340.72 121.011 340.72 118.25C340.72 115.489 338.481 113.25 335.72 113.25C332.958 113.25 330.72 115.489 330.72 118.25C330.72 121.011 332.958 123.25 335.72 123.25Z" fill="#FF6D2A"/>
<path d="M340.018 176.084L295.209 171.145C291.937 170.785 288.993 173.144 288.632 176.416L284.789 211.285C284.428 214.557 286.788 217.502 290.06 217.862L334.869 222.801C338.14 223.162 341.085 220.802 341.446 217.53L345.289 182.661C345.65 179.389 343.29 176.445 340.018 176.084Z" fill="#EE4A00"/>
<path d="M387.16 253.709L355.31 265.279L290.79 258.169L285.69 257.609C282.42 257.249 280.06 254.309 280.42 251.029L280.75 247.969C281.12 244.699 284.06 242.339 287.33 242.699L292.27 243.239L386.81 253.659C386.93 253.669 387.04 253.689 387.16 253.709Z" fill="#EE4A00"/>
<path d="M401.6 165.74C401.6 165.74 401.53 165.74 401.49 165.74L291.16 153.58C290.61 153.52 290.21 153.03 290.28 152.48C290.35 151.93 290.82 151.53 291.38 151.6L401.71 163.76C402.26 163.82 402.66 164.31 402.59 164.86C402.53 165.37 402.1 165.75 401.6 165.75V165.74Z" fill="#FF6D2A"/>
<path d="M400.61 174.69C400.61 174.69 400.54 174.69 400.5 174.69L290.17 162.54C289.62 162.48 289.22 161.99 289.29 161.44C289.36 160.89 289.83 160.49 290.39 160.56L400.72 172.71C401.27 172.77 401.67 173.26 401.6 173.81C401.54 174.32 401.11 174.7 400.61 174.7V174.69Z" fill="#FF6D2A"/>
<path d="M399.63 183.63C399.63 183.63 399.56 183.63 399.52 183.63L356.61 178.9C356.06 178.84 355.66 178.35 355.73 177.8C355.8 177.25 356.27 176.85 356.83 176.92L399.74 181.65C400.29 181.71 400.69 182.2 400.62 182.75C400.56 183.26 400.13 183.64 399.63 183.64V183.63Z" fill="#FF6D2A"/>
<path d="M398.64 192.579C398.64 192.579 398.57 192.579 398.53 192.579L355.62 187.849C355.07 187.789 354.67 187.299 354.74 186.749C354.8 186.199 355.28 185.809 355.84 185.869L398.75 190.599C399.3 190.659 399.7 191.149 399.63 191.699C399.57 192.209 399.14 192.589 398.64 192.589V192.579Z" fill="#FF6D2A"/>
<path d="M397.66 201.53C397.66 201.53 397.59 201.53 397.55 201.53L354.64 196.8C354.09 196.74 353.69 196.25 353.76 195.7C353.82 195.15 354.31 194.76 354.86 194.82L397.77 199.55C398.32 199.61 398.72 200.1 398.65 200.65C398.59 201.16 398.16 201.54 397.66 201.54V201.53Z" fill="#FF6D2A"/>
<path d="M396.67 210.47C396.67 210.47 396.6 210.47 396.56 210.47L353.65 205.74C353.1 205.68 352.7 205.19 352.77 204.64C352.84 204.09 353.31 203.69 353.87 203.76L396.78 208.49C397.33 208.55 397.73 209.04 397.66 209.59C397.6 210.1 397.17 210.48 396.67 210.48V210.47Z" fill="#FF6D2A"/>
<path d="M395.58 220.409C395.58 220.409 395.51 220.409 395.47 220.409L352.56 215.679C352.01 215.619 351.61 215.129 351.68 214.579C351.74 214.029 352.23 213.639 352.78 213.699L395.69 218.429C396.24 218.489 396.64 218.979 396.57 219.529C396.51 220.039 396.08 220.419 395.58 220.419V220.409Z" fill="#FF6D2A"/>
<path d="M394.59 229.36C394.59 229.36 394.52 229.36 394.48 229.36L351.57 224.63C351.02 224.57 350.62 224.08 350.69 223.53C350.76 222.98 351.23 222.58 351.79 222.65L394.7 227.38C395.25 227.44 395.65 227.93 395.58 228.48C395.52 228.99 395.09 229.37 394.59 229.37V229.36Z" fill="#FF6D2A"/>
<path d="M301.09 253.12C298.58 259.37 293.66 264.52 287.31 267.23C285.41 268.04 283.39 268.63 281.26 268.96L235.99 276.07L166.15 247.81L159.65 206.4L155.03 177C152.84 163.04 162.47 149.82 176.44 147.63L260.14 134.49C271.59 132.69 282.53 138.83 287.31 148.8C288.36 150.99 289.12 153.36 289.52 155.89L290.01 158.99L296.3 199.12L298.61 213.8L302.52 238.75L302.65 239.6C303.39 244.33 302.78 248.97 301.09 253.13V253.12Z" fill="#EE4A00"/>
<path d="M235.8 277.83L164.62 249.03L153.35 177.27C152.22 170.06 153.98 162.83 158.3 156.89C162.62 150.95 168.97 147.07 176.18 145.94L259.88 132.8C271.74 130.94 283.66 137.21 288.86 148.06C290.01 150.46 290.8 153 291.21 155.62L291.7 158.72L304.34 239.33C305.1 244.2 304.53 249.2 302.68 253.77C299.97 260.5 294.62 265.98 287.98 268.81C285.93 269.68 283.76 270.31 281.53 270.66L235.79 277.84L235.8 277.83ZM167.7 246.58L236.2 274.3L281 267.27C282.95 266.96 284.85 266.42 286.64 265.65C292.44 263.18 297.13 258.38 299.5 252.48C301.12 248.48 301.62 244.11 300.95 239.86L294.6 199.38L287.82 156.16C287.46 153.87 286.77 151.64 285.76 149.55C281.2 140.05 270.77 134.56 260.4 136.19L176.7 149.33C170.4 150.32 164.85 153.72 161.06 158.91C157.28 164.1 155.73 170.43 156.72 176.74L167.69 246.58H167.7Z" fill="white"/>
<path d="M272.97 161.051C273 161.241 272.9 161.461 272.69 161.551L272.08 161.881L271.77 162.031C270.19 162.861 268.84 164.001 267.77 165.371C266.47 167.091 265.65 169.181 265.51 171.441L265.35 175.631C265.33 176.151 264.6 176.311 264.39 175.811L262.72 171.881C261.86 169.911 260.46 168.171 258.73 166.901C257.36 165.901 255.76 165.161 254.11 164.871L253.67 164.781L253.06 164.681C252.56 164.601 252.48 163.921 252.94 163.711C253.12 163.651 253.28 163.591 253.43 163.501C257.12 161.681 259.54 157.881 259.85 153.771L259.9 153.471L260.25 149.641C260.3 149.111 261.04 148.991 261.21 149.491L262.52 153.031L262.63 153.341C264.14 157.371 267.68 160.031 271.9 160.581C272.1 160.621 272.3 160.621 272.5 160.651C272.76 160.681 272.92 160.851 272.96 161.071L272.97 161.051Z" fill="#FF9460"/>
<path d="M228.24 243.881C246.107 243.881 260.59 229.397 260.59 211.531C260.59 193.664 246.107 179.181 228.24 179.181C210.374 179.181 195.89 193.664 195.89 211.531C195.89 229.397 210.374 243.881 228.24 243.881Z" fill="#FF9460"/>
</svg>
