<svg width="574" height="436" viewBox="0 0 574 436" fill="none" xmlns="http://www.w3.org/2000/svg">
<g clip-path="url(#clip0_482_142)">
<path d="M272.74 197.26C272.74 197.26 272.84 197.31 272.89 197.34C272.94 197.36 272.98 197.38 273.03 197.4C272.94 197.35 272.84 197.3 272.74 197.26ZM273.29 197.54C273.29 197.54 273.25 197.52 273.23 197.51C273.27 197.54 273.32 197.57 273.36 197.6C273.34 197.57 273.32 197.56 273.29 197.54ZM272.42 197.13L271.43 196.73H271.42L270.33 197.13C270.45 197.09 270.56 197.06 270.69 197.04C270.76 197.02 270.83 197.01 270.9 197.01C270.97 196.99 271.05 196.98 271.12 196.98C271.18 196.97 271.25 196.97 271.31 196.97H271.38C271.52 196.97 271.66 196.98 271.8 197C271.97 197.03 272.13 197.06 272.29 197.1C272.37 197.12 272.44 197.15 272.51 197.17L272.42 197.13Z" fill="#05183C"/>
<path d="M238.1 266.141C238.72 266.091 239.33 266.011 239.93 265.871C239.33 266.001 238.72 266.091 238.1 266.141ZM272.74 197.261C272.74 197.261 272.84 197.311 272.89 197.341C272.94 197.361 272.98 197.381 273.03 197.401C272.94 197.351 272.84 197.301 272.74 197.261Z" fill="#05183C"/>
<path d="M239.93 265.87C239.33 266.01 238.72 266.09 238.1 266.14C238.72 266.09 239.33 266 239.93 265.87Z" fill="#05183C"/>
<path d="M268.42 198.591C268.38 198.651 268.34 198.711 268.31 198.781C268.33 198.731 268.35 198.691 268.38 198.651C268.39 198.631 268.4 198.611 268.42 198.591Z" fill="#05183C"/>
<path d="M272.51 197.171C272.44 197.151 272.37 197.121 272.29 197.101C272.33 197.111 272.38 197.121 272.42 197.131L272.51 197.171Z" fill="#05183C"/>
<path d="M273.36 197.601C273.36 197.601 273.27 197.541 273.23 197.511C273.25 197.521 273.27 197.531 273.29 197.541C273.32 197.561 273.34 197.571 273.36 197.601Z" fill="#05183C"/>
<path d="M272.42 197.13L271.43 196.73H271.42L270.33 197.13C270.45 197.09 270.56 197.06 270.69 197.04C270.76 197.02 270.83 197.01 270.9 197.01C270.97 196.99 271.05 196.98 271.12 196.98C271.18 196.97 271.25 196.97 271.31 196.97H271.38C271.52 196.97 271.66 196.98 271.8 197C271.97 197.03 272.13 197.06 272.29 197.1C272.37 197.12 272.44 197.15 272.51 197.17L272.42 197.13ZM272.74 197.26C272.74 197.26 272.84 197.31 272.89 197.34C272.94 197.36 272.98 197.38 273.03 197.4C272.94 197.35 272.84 197.3 272.74 197.26ZM273.29 197.54C273.29 197.54 273.25 197.52 273.23 197.51C273.27 197.54 273.32 197.57 273.36 197.6C273.34 197.57 273.32 197.56 273.29 197.54ZM102.76 213.3V213.32L231.31 265.09L102.76 213.3Z" fill="#05183C"/>
<path d="M273.29 197.541C273.29 197.541 273.25 197.521 273.23 197.511C273.27 197.541 273.32 197.571 273.36 197.601C273.34 197.571 273.32 197.561 273.29 197.541ZM272.74 197.261C272.74 197.261 272.84 197.311 272.89 197.341C272.94 197.361 272.98 197.381 273.03 197.401C272.94 197.351 272.84 197.301 272.74 197.261ZM272.42 197.131L271.43 196.731H271.42L270.33 197.131C270.45 197.091 270.56 197.061 270.69 197.041C270.76 197.021 270.83 197.011 270.9 197.011C270.97 196.991 271.05 196.981 271.12 196.981C271.18 196.971 271.25 196.971 271.31 196.971H271.38C271.52 196.971 271.66 196.981 271.8 197.001C271.97 197.031 272.13 197.061 272.29 197.101C272.37 197.121 272.44 197.151 272.51 197.171L272.42 197.131Z" fill="#05183C"/>
<path d="M272.42 197.13L271.43 196.73H271.42L270.33 197.13C270.45 197.09 270.56 197.06 270.69 197.04C270.76 197.02 270.83 197.01 270.9 197.01C270.97 196.99 271.05 196.98 271.12 196.98C271.18 196.97 271.25 196.97 271.31 196.97H271.38C271.52 196.97 271.66 196.98 271.8 197C271.97 197.03 272.13 197.06 272.29 197.1C272.37 197.12 272.44 197.15 272.51 197.17L272.42 197.13Z" fill="#05183C"/>
<path d="M496.25 179.71L464.4 129.72L464.32 129.59C464.16 129.34 463.97 129.12 463.76 128.92C463.71 128.86 463.65 128.81 463.59 128.77C463.51 128.71 463.44 128.65 463.36 128.59C463.28 128.54 463.2 128.49 463.12 128.44C463.05 128.4 462.98 128.36 462.9 128.33C462.81 128.28 462.71 128.24 462.61 128.2L380.43 95.6904C380.38 95.6704 380.33 95.6504 380.28 95.6304L317.15 70.6504C317.09 70.6304 317.03 70.6004 316.97 70.5804L285.9 58.2904C285.9 58.2904 285.83 58.2604 285.79 58.2504L285.74 58.2304C285.65 58.1904 285.57 58.1504 285.48 58.1204C283.91 57.5504 282.28 57.2004 280.66 57.0904C278.02 56.8904 275.31 57.3004 272.84 58.2704L262.53 62.3204C262.53 62.3204 262.43 62.3504 262.38 62.3704L97.09 127.21C96.93 127.27 96.77 127.35 96.61 127.44C96.46 127.53 96.32 127.63 96.19 127.73C96.05 127.84 95.92 127.96 95.81 128.09C95.69 128.21 95.59 128.35 95.49 128.49C95.43 128.56 95.39 128.63 95.35 128.71C95.34 128.72 95.33 128.74 95.32 128.75L66.18 180.47C64.08 184.2 63.69 188.65 65.1 192.68C66.51 196.72 69.6 199.95 73.57 201.56L95.72 210.48L97.27 355.43C97.35 362.66 101.74 369.08 108.46 371.78L264.61 434.24C265.78 434.71 266.99 435.05 268.23 435.26C269.06 435.4 269.91 435.48 270.77 435.5C270.94 435.5 271.11 435.51 271.29 435.51C272 435.51 272.71 435.47 273.41 435.38C274.64 435.23 275.86 434.95 277.05 434.54L453.35 373.62C460.53 371.13 465.35 364.36 465.35 356.76V356.74L465.04 210.46L488.87 201.64H488.88C493.11 200.07 496.37 196.71 497.8 192.43C499.24 188.15 498.68 183.52 496.25 179.71ZM76.19 195.06C74.09 194.22 72.46 192.5 71.71 190.37C70.96 188.23 71.17 185.88 72.28 183.91L99.91 134.87L266.73 202.36L244.07 254.44C242.39 258.31 237.84 260.17 233.93 258.59L100.43 204.82L76.19 195.06ZM267.38 427.8C267.38 427.8 267.27 427.76 267.22 427.74L111.06 365.28C106.98 363.64 104.32 359.75 104.27 355.35L102.76 213.32V213.3L231.31 265.09C233.16 265.83 235.06 266.19 236.93 266.19C237.32 266.19 237.71 266.17 238.1 266.14C238.72 266.09 239.33 266 239.93 265.87C241.02 265.65 242.09 265.3 243.09 264.83C243.33 264.72 243.57 264.61 243.8 264.48C243.97 264.39 244.13 264.3 244.29 264.21C244.51 264.08 244.73 263.95 244.94 263.81C247.31 262.27 249.27 260.03 250.49 257.23L267.83 217.37L267.38 427.8ZM272.29 197.1C272.13 197.06 271.97 197.03 271.8 197C271.66 196.98 271.52 196.97 271.38 196.97H271.31C271.25 196.97 271.18 196.97 271.12 196.98C271.05 196.98 270.97 196.98 270.9 197.01C270.83 197.01 270.76 197.02 270.69 197.04C270.56 197.06 270.45 197.09 270.33 197.13L271.42 196.73H271.43L272.42 197.13L272.51 197.17C272.44 197.15 272.37 197.12 272.29 197.1ZM272.89 197.34C272.84 197.31 272.79 197.28 272.74 197.26C272.84 197.3 272.94 197.35 273.03 197.4C272.98 197.38 272.94 197.36 272.89 197.34ZM273.23 197.51C273.23 197.51 273.27 197.53 273.29 197.54C273.32 197.56 273.34 197.57 273.36 197.6C273.32 197.57 273.27 197.54 273.23 197.51ZM271.44 196.72L107.83 130.52L264.8 68.9404C264.8 68.9404 264.9 68.9104 264.95 68.8904L275.4 64.7904C276.9 64.2004 278.54 63.9504 280.16 64.0704C281.11 64.1404 282.06 64.3404 282.99 64.6704C283.11 64.7204 283.24 64.7604 283.37 64.8104L314.22 77.0204C314.28 77.0404 314.34 77.0704 314.4 77.0904L377.84 102.19C377.89 102.21 377.94 102.23 377.99 102.25L451.5 131.33L271.44 196.72ZM451.07 367L274.77 427.92C274.64 427.96 274.51 428 274.38 428.03L274.84 214.94L297.16 258.58C297.49 259.22 297.85 259.82 298.26 260.39C298.46 260.68 298.67 260.95 298.89 261.22C299.1 261.49 299.33 261.75 299.57 261.99C299.8 262.24 300.04 262.48 300.29 262.72C300.56 262.97 300.84 263.21 301.13 263.43C301.34 263.6 301.56 263.77 301.78 263.92C302.13 264.18 302.5 264.41 302.87 264.62C303.11 264.77 303.35 264.9 303.6 265.03C303.84 265.15 304.08 265.27 304.33 265.38C304.75 265.57 305.18 265.74 305.62 265.89C305.88 265.98 306.14 266.06 306.4 266.13C306.76 266.23 307.12 266.32 307.48 266.39C307.75 266.44 308.03 266.49 308.31 266.53C308.55 266.57 308.8 266.6 309.05 266.61C309.27 266.64 309.48 266.65 309.69 266.66C309.93 266.67 310.16 266.68 310.4 266.68C312.11 266.68 313.85 266.38 315.54 265.75L458.04 213.04L458.35 356.76C458.36 361.38 455.43 365.49 451.07 367ZM491.17 190.2C490.41 192.47 488.69 194.24 486.45 195.08L460.62 204.64L313.11 259.19C309.39 260.57 305.21 258.94 303.4 255.4L276.29 202.41L459.93 135.72L490.35 183.47C491.63 185.48 491.93 187.94 491.17 190.2Z" fill="white"/>
<path d="M491.17 190.201C490.41 192.471 488.69 194.241 486.45 195.081L460.62 204.641L313.11 259.191C309.39 260.571 305.21 258.941 303.4 255.401L276.29 202.411L459.93 135.721L490.35 183.471C491.63 185.481 491.93 187.941 491.17 190.201Z" fill="#06296B"/>
<path d="M458.35 356.76C458.36 361.38 455.43 365.49 451.07 367L274.77 427.92C274.64 427.96 274.51 428 274.38 428.03L274.84 214.94L297.16 258.58C297.49 259.22 297.85 259.82 298.26 260.39C298.46 260.68 298.67 260.95 298.89 261.22C299.1 261.49 299.33 261.75 299.57 261.99C299.8 262.24 300.04 262.48 300.29 262.72C300.56 262.97 300.84 263.21 301.13 263.43C301.34 263.6 301.56 263.77 301.78 263.92C302.13 264.18 302.5 264.41 302.87 264.62C303.11 264.77 303.35 264.9 303.6 265.03C303.84 265.15 304.08 265.27 304.33 265.38C304.75 265.57 305.18 265.74 305.62 265.89C305.88 265.98 306.14 266.06 306.4 266.13C306.76 266.23 307.12 266.32 307.48 266.39C307.75 266.44 308.03 266.49 308.31 266.53C308.55 266.57 308.8 266.6 309.05 266.61C309.27 266.64 309.48 266.65 309.69 266.66C309.93 266.67 310.16 266.68 310.4 266.68C312.11 266.68 313.85 266.38 315.54 265.75L458.04 213.04L458.35 356.76Z" fill="#06296B"/>
<path d="M267.83 217.37L267.38 427.8C267.38 427.8 267.27 427.76 267.22 427.74L111.06 365.28C106.98 363.64 104.32 359.75 104.27 355.35L102.76 213.32L231.31 265.09C233.16 265.83 235.06 266.19 236.93 266.19C237.32 266.19 237.71 266.17 238.1 266.14C238.72 266.09 239.33 266.01 239.93 265.87C241.02 265.65 242.09 265.3 243.09 264.83C243.33 264.72 243.57 264.61 243.8 264.48C243.97 264.39 244.13 264.3 244.29 264.21C244.51 264.08 244.73 263.95 244.94 263.81C247.31 262.27 249.27 260.03 250.49 257.23L267.83 217.37Z" fill="#1A3C7D"/>
<path d="M266.73 202.37L244.07 254.44C242.39 258.31 237.84 260.17 233.93 258.59L100.43 204.82L76.1902 195.06C74.0902 194.22 72.4602 192.5 71.7102 190.37C70.9602 188.23 71.1702 185.88 72.2802 183.91L99.9102 134.87L266.73 202.37Z" fill="#1A3C7D"/>
<path d="M451.5 131.33L271.44 196.72L107.83 130.52L264.8 68.9403C264.8 68.9403 264.9 68.9103 264.95 68.8903L275.4 64.7903C276.9 64.2003 278.54 63.9503 280.16 64.0703C281.11 64.1403 282.06 64.3403 282.99 64.6703C283.11 64.7203 283.24 64.7603 283.37 64.8103L314.22 77.0203C314.28 77.0403 314.34 77.0703 314.4 77.0903L377.84 102.19C377.89 102.21 377.94 102.23 377.99 102.25L451.5 131.33Z" fill="#05183C"/>
<path d="M278.43 368.47C430.032 368.47 552.93 302.544 552.93 221.22C552.93 139.896 430.032 73.9697 278.43 73.9697C126.828 73.9697 3.93018 139.896 3.93018 221.22C3.93018 302.544 126.828 368.47 278.43 368.47Z" stroke="white" stroke-width="6.77" stroke-miterlimit="10"/>
<path d="M536.01 251.26L527.69 255.65C526.63 256.18 525.58 254.93 526.29 253.98L532.01 246.33C534.91 242.45 536.72 237.79 537.25 233.01C537.67 229.22 537.28 225.35 536.01 221.74L535.69 220.84L535.22 219.51C534.85 218.47 536.06 217.58 536.94 218.24H536.96C537.28 218.49 537.6 218.72 537.93 218.94C545.57 224.07 555.63 224.49 563.98 220.48L564.63 220.19L572.46 216.64C573.54 216.12 574.57 217.44 573.81 218.36L568.45 224.84L567.97 225.42C561.84 232.84 560.61 242.7 564.29 251.5C564.46 251.91 564.64 252.31 564.83 252.71C565.08 253.24 564.89 253.76 564.52 254.06C564.18 254.34 563.67 254.42 563.22 254.13L561.94 253.31L561.31 252.91C557.9 250.74 554.16 249.37 550.34 248.86C545.52 248.22 540.58 248.97 536.02 251.27L536.01 251.26Z" fill="white" stroke="#E4DEDE" stroke-width="1.27" stroke-miterlimit="10"/>
<path d="M67.4302 327.47C74.0576 327.47 79.4302 322.097 79.4302 315.47C79.4302 308.842 74.0576 303.47 67.4302 303.47C60.8028 303.47 55.4302 308.842 55.4302 315.47C55.4302 322.097 60.8028 327.47 67.4302 327.47Z" fill="white" stroke="#E4DEDE" stroke-width="2" stroke-miterlimit="10"/>
<path d="M392.69 13.63L290.65 2.39001C280.17 1.23001 270.65 8.86001 269.5 19.35L265.48 55.83L264.4 65.58L254.09 159.15C253.16 167.67 258.01 175.55 265.48 178.82C267.21 179.58 269.08 180.09 271.05 180.31L312.18 184.84L348.3 171.72L378.59 160.72L396.49 154.22L400.4 118.68L409.65 34.79C410.8 24.3 403.17 14.78 392.69 13.63ZM407.88 34.6L394.84 152.93L311.96 183.03L271.25 178.54C269.49 178.35 267.79 177.89 266.19 177.19C259.29 174.17 255.04 166.83 255.86 159.35L271.27 19.54C271.77 14.94 274.05 10.8 277.69 7.89001C280.82 5.38001 284.61 4.05002 288.53 4.05002C289.17 4.05002 289.81 4.09002 290.45 4.16002L392.5 15.4C402.02 16.45 408.93 25.06 407.88 34.6Z" fill="#FF9460"/>
<path d="M407.88 34.5998L394.84 152.93L311.96 183.03L271.25 178.54C269.49 178.35 267.79 177.89 266.19 177.19C259.29 174.17 255.04 166.83 255.86 159.35L271.27 19.5398C271.77 14.9398 274.05 10.7998 277.69 7.8898C280.82 5.3798 284.61 4.0498 288.53 4.0498C289.17 4.0498 289.81 4.08981 290.45 4.15981L392.5 15.3998C402.02 16.4498 408.93 25.0598 407.88 34.5998Z" fill="#FF9460"/>
<path d="M406.95 52.2193C406.88 52.2193 406.8 52.2193 406.73 52.2093L268.1 36.9393C267 36.8193 266.21 35.8293 266.33 34.7293C266.45 33.6293 267.44 32.8393 268.54 32.9593L407.17 48.2293C408.27 48.3493 409.06 49.3393 408.94 50.4393C408.83 51.4593 407.96 52.2193 406.95 52.2193Z" fill="white"/>
<path d="M392.89 11.8598L290.85 0.619796C285.3 0.00979601 279.84 1.59979 275.47 5.10979C271.09 8.61979 268.34 13.6098 267.73 19.1598L252.32 158.96C251.34 167.97 256.45 176.81 264.76 180.45C266.69 181.29 268.74 181.84 270.86 182.08L312.4 186.65L398.14 155.51L411.42 34.9898C412.68 23.4898 404.36 13.1198 392.89 11.8598ZM407.88 34.5998L394.84 152.93L376.16 159.71L344.31 171.28L311.96 183.03L271.25 178.54C269.49 178.35 267.79 177.89 266.19 177.19C259.29 174.17 255.04 166.83 255.86 159.35L271.27 19.5398C271.77 14.9398 274.05 10.7998 277.69 7.88979C280.82 5.37979 284.61 4.0498 288.53 4.0498C289.17 4.0498 289.81 4.0898 290.45 4.1598L392.5 15.3998C402.02 16.4498 408.93 25.0598 407.88 34.5998Z" fill="white"/>
<path d="M293.48 25.8096C296.241 25.8096 298.48 23.571 298.48 20.8096C298.48 18.0481 296.241 15.8096 293.48 15.8096C290.719 15.8096 288.48 18.0481 288.48 20.8096C288.48 23.571 290.719 25.8096 293.48 25.8096Z" fill="#FF6D2A"/>
<path d="M309.1 27.5293C311.862 27.5293 314.1 25.2907 314.1 22.5293C314.1 19.7679 311.862 17.5293 309.1 17.5293C306.339 17.5293 304.1 19.7679 304.1 22.5293C304.1 25.2907 306.339 27.5293 309.1 27.5293Z" fill="#FF6D2A"/>
<path d="M324.72 29.25C327.481 29.25 329.72 27.0114 329.72 24.25C329.72 21.4886 327.481 19.25 324.72 19.25C321.958 19.25 319.72 21.4886 319.72 24.25C319.72 27.0114 321.958 29.25 324.72 29.25Z" fill="#FF6D2A"/>
<path d="M329.018 82.0842L284.209 77.1452C280.937 76.7845 277.993 79.1445 277.632 82.4163L273.789 117.285C273.428 120.557 275.788 123.502 279.06 123.862L323.869 128.801C327.14 129.162 330.085 126.802 330.446 123.53L334.289 88.6613C334.65 85.3895 332.29 82.4448 329.018 82.0842Z" fill="#EE4A00"/>
<path d="M376.16 159.709L344.31 171.279L279.79 164.169L274.69 163.609C271.42 163.249 269.06 160.309 269.42 157.029L269.75 153.969C270.12 150.699 273.06 148.339 276.33 148.699L281.27 149.239L375.81 159.659C375.93 159.669 376.04 159.689 376.16 159.709Z" fill="#EE4A00"/>
<path d="M390.6 71.7398C390.6 71.7398 390.53 71.7398 390.49 71.7398L280.16 59.5797C279.61 59.5197 279.21 59.0297 279.28 58.4797C279.35 57.9297 279.82 57.5298 280.38 57.5998L390.71 69.7597C391.26 69.8197 391.66 70.3097 391.59 70.8597C391.53 71.3697 391.1 71.7497 390.6 71.7497V71.7398Z" fill="#FF6D2A"/>
<path d="M389.61 80.6897C389.61 80.6897 389.54 80.6897 389.5 80.6897L279.17 68.5397C278.62 68.4797 278.22 67.9897 278.29 67.4397C278.36 66.8897 278.83 66.4897 279.39 66.5597L389.72 78.7097C390.27 78.7697 390.67 79.2597 390.6 79.8097C390.54 80.3197 390.11 80.6997 389.61 80.6997V80.6897Z" fill="#FF6D2A"/>
<path d="M388.63 89.6301C388.63 89.6301 388.56 89.6301 388.52 89.6301L345.61 84.9001C345.06 84.8401 344.66 84.3501 344.73 83.8001C344.8 83.2501 345.27 82.8501 345.83 82.9201L388.74 87.6501C389.29 87.7101 389.69 88.2001 389.62 88.7501C389.56 89.2601 389.13 89.6401 388.63 89.6401V89.6301Z" fill="#FF6D2A"/>
<path d="M387.64 98.5794C387.64 98.5794 387.57 98.5794 387.53 98.5794L344.62 93.8494C344.07 93.7894 343.67 93.2994 343.74 92.7494C343.8 92.1994 344.28 91.8094 344.84 91.8694L387.75 96.5994C388.3 96.6594 388.7 97.1494 388.63 97.6994C388.57 98.2094 388.14 98.5894 387.64 98.5894V98.5794Z" fill="#FF6D2A"/>
<path d="M386.66 107.53C386.66 107.53 386.59 107.53 386.55 107.53L343.64 102.8C343.09 102.74 342.69 102.25 342.76 101.7C342.82 101.15 343.31 100.76 343.86 100.82L386.77 105.55C387.32 105.61 387.72 106.1 387.65 106.65C387.59 107.16 387.16 107.54 386.66 107.54V107.53Z" fill="#FF6D2A"/>
<path d="M385.67 116.47C385.67 116.47 385.6 116.47 385.56 116.47L342.65 111.74C342.1 111.68 341.7 111.19 341.77 110.64C341.84 110.09 342.31 109.69 342.87 109.76L385.78 114.49C386.33 114.55 386.73 115.04 386.66 115.59C386.6 116.1 386.17 116.48 385.67 116.48V116.47Z" fill="#FF6D2A"/>
<path d="M384.58 126.409C384.58 126.409 384.51 126.409 384.47 126.409L341.56 121.679C341.01 121.619 340.61 121.129 340.68 120.579C340.74 120.029 341.23 119.639 341.78 119.699L384.69 124.429C385.24 124.489 385.64 124.979 385.57 125.529C385.51 126.039 385.08 126.419 384.58 126.419V126.409Z" fill="#FF6D2A"/>
<path d="M383.59 135.36C383.59 135.36 383.52 135.36 383.48 135.36L340.57 130.63C340.02 130.57 339.62 130.08 339.69 129.53C339.76 128.98 340.23 128.58 340.79 128.65L383.7 133.38C384.25 133.44 384.65 133.93 384.58 134.48C384.52 134.99 384.09 135.37 383.59 135.37V135.36Z" fill="#FF6D2A"/>
<path d="M290.09 159.12C287.58 165.37 282.66 170.52 276.31 173.23C274.41 174.04 272.39 174.63 270.26 174.96L224.99 182.07L155.15 153.81L148.65 112.4L144.03 83C141.84 69.04 151.47 55.8201 165.44 53.6301L249.14 40.49C260.59 38.69 271.53 44.8301 276.31 54.8001C277.36 56.9901 278.12 59.36 278.52 61.89L279.01 64.9901L285.3 105.12L287.61 119.8L291.52 144.75L291.65 145.6C292.39 150.33 291.78 154.97 290.09 159.13V159.12Z" fill="#EE4A00"/>
<path d="M224.8 183.83L153.62 155.03L142.35 83.2703C141.22 76.0603 142.98 68.8303 147.3 62.8903C151.62 56.9503 157.97 53.0703 165.18 51.9403L248.88 38.8003C260.74 36.9403 272.66 43.2103 277.86 54.0603C279.01 56.4603 279.8 59.0003 280.21 61.6203L280.7 64.7203L293.34 145.33C294.1 150.2 293.53 155.2 291.68 159.77C288.97 166.5 283.62 171.98 276.98 174.81C274.93 175.68 272.76 176.31 270.53 176.66L224.79 183.84L224.8 183.83ZM156.7 152.58L225.2 180.3L270 173.27C271.95 172.96 273.85 172.42 275.64 171.65C281.44 169.18 286.13 164.38 288.5 158.48C290.12 154.48 290.62 150.11 289.95 145.86L283.6 105.38L276.82 62.1603C276.46 59.8703 275.77 57.6403 274.76 55.5503C270.2 46.0503 259.77 40.5603 249.4 42.1903L165.7 55.3303C159.4 56.3203 153.85 59.7203 150.06 64.9103C146.28 70.1003 144.73 76.4303 145.72 82.7403L156.69 152.58H156.7Z" fill="white"/>
<path d="M261.97 67.0507C262 67.2407 261.9 67.4607 261.69 67.5507L261.08 67.8807L260.77 68.0307C259.19 68.8607 257.84 70.0007 256.77 71.3707C255.47 73.0907 254.65 75.1807 254.51 77.4407L254.35 81.6307C254.33 82.1507 253.6 82.3107 253.39 81.8107L251.72 77.8807C250.86 75.9107 249.46 74.1707 247.73 72.9007C246.36 71.9007 244.76 71.1607 243.11 70.8707L242.67 70.7807L242.06 70.6807C241.56 70.6007 241.48 69.9207 241.94 69.7107C242.12 69.6507 242.28 69.5907 242.43 69.5007C246.12 67.6807 248.54 63.8807 248.85 59.7707L248.9 59.4707L249.25 55.6407C249.3 55.1107 250.04 54.9907 250.21 55.4907L251.52 59.0307L251.63 59.3407C253.14 63.3707 256.68 66.0307 260.9 66.5807C261.1 66.6207 261.3 66.6207 261.5 66.6507C261.76 66.6807 261.92 66.8507 261.96 67.0707L261.97 67.0507Z" fill="#FF9460"/>
<path d="M217.24 149.881C235.107 149.881 249.59 135.397 249.59 117.531C249.59 99.6643 235.107 85.1807 217.24 85.1807C199.374 85.1807 184.89 99.6643 184.89 117.531C184.89 135.397 199.374 149.881 217.24 149.881Z" fill="#FF9460"/>
</g>
<defs>
<clipPath id="clip0_482_142">
<rect width="574" height="436" fill="white"/>
</clipPath>
</defs>
</svg>
