<svg width="600" height="510" viewBox="0 0 600 510" fill="none" xmlns="http://www.w3.org/2000/svg">
<path d="M283.74 271.26C283.74 271.26 283.84 271.31 283.89 271.34C283.94 271.36 283.98 271.38 284.03 271.4C283.94 271.35 283.84 271.3 283.74 271.26ZM284.29 271.54C284.29 271.54 284.25 271.52 284.23 271.51C284.27 271.54 284.32 271.57 284.36 271.6C284.34 271.57 284.32 271.56 284.29 271.54ZM283.42 271.13L282.43 270.73H282.42L281.33 271.13C281.45 271.09 281.56 271.06 281.69 271.04C281.76 271.02 281.83 271.01 281.9 271.01C281.97 270.99 282.05 270.98 282.12 270.98C282.18 270.97 282.25 270.97 282.31 270.97H282.38C282.52 270.97 282.66 270.98 282.8 271C282.97 271.03 283.13 271.06 283.29 271.1C283.37 271.12 283.44 271.15 283.51 271.17L283.42 271.13Z" fill="#05183C"/>
<path d="M249.1 340.141C249.72 340.091 250.33 340.011 250.93 339.871C250.33 340.001 249.72 340.091 249.1 340.141ZM283.74 271.261C283.74 271.261 283.84 271.311 283.89 271.341C283.94 271.361 283.98 271.381 284.03 271.401C283.94 271.351 283.84 271.301 283.74 271.261Z" fill="#05183C"/>
<path d="M250.93 339.87C250.33 340.01 249.72 340.09 249.1 340.14C249.72 340.09 250.33 340 250.93 339.87Z" fill="#05183C"/>
<path d="M279.42 272.591C279.38 272.651 279.34 272.711 279.31 272.781C279.33 272.731 279.35 272.691 279.38 272.651C279.39 272.631 279.4 272.611 279.42 272.591Z" fill="#05183C"/>
<path d="M283.51 271.171C283.44 271.151 283.37 271.121 283.29 271.101C283.33 271.111 283.38 271.121 283.42 271.131L283.51 271.171Z" fill="#05183C"/>
<path d="M284.36 271.601C284.36 271.601 284.27 271.541 284.23 271.511C284.25 271.521 284.27 271.531 284.29 271.541C284.32 271.561 284.34 271.571 284.36 271.601Z" fill="#05183C"/>
<path d="M283.42 271.13L282.43 270.73H282.42L281.33 271.13C281.45 271.09 281.56 271.06 281.69 271.04C281.76 271.02 281.83 271.01 281.9 271.01C281.97 270.99 282.05 270.98 282.12 270.98C282.18 270.97 282.25 270.97 282.31 270.97H282.38C282.52 270.97 282.66 270.98 282.8 271C282.97 271.03 283.13 271.06 283.29 271.1C283.37 271.12 283.44 271.15 283.51 271.17L283.42 271.13ZM283.74 271.26C283.74 271.26 283.84 271.31 283.89 271.34C283.94 271.36 283.98 271.38 284.03 271.4C283.94 271.35 283.84 271.3 283.74 271.26ZM284.29 271.54C284.29 271.54 284.25 271.52 284.23 271.51C284.27 271.54 284.32 271.57 284.36 271.6C284.34 271.57 284.32 271.56 284.29 271.54ZM113.76 287.3V287.32L242.31 339.09L113.76 287.3Z" fill="#05183C"/>
<path d="M284.29 271.541C284.29 271.541 284.25 271.521 284.23 271.511C284.27 271.541 284.32 271.571 284.36 271.601C284.34 271.571 284.32 271.561 284.29 271.541ZM283.74 271.261C283.74 271.261 283.84 271.311 283.89 271.341C283.94 271.361 283.98 271.381 284.03 271.401C283.94 271.351 283.84 271.301 283.74 271.261ZM283.42 271.131L282.43 270.731H282.42L281.33 271.131C281.45 271.091 281.56 271.061 281.69 271.041C281.76 271.021 281.83 271.011 281.9 271.011C281.97 270.991 282.05 270.981 282.12 270.981C282.18 270.971 282.25 270.971 282.31 270.971H282.38C282.52 270.971 282.66 270.981 282.8 271.001C282.97 271.031 283.13 271.061 283.29 271.101C283.37 271.121 283.44 271.151 283.51 271.171L283.42 271.131Z" fill="#05183C"/>
<path d="M283.42 271.13L282.43 270.73H282.42L281.33 271.13C281.45 271.09 281.56 271.06 281.69 271.04C281.76 271.02 281.83 271.01 281.9 271.01C281.97 270.99 282.05 270.98 282.12 270.98C282.18 270.97 282.25 270.97 282.31 270.97H282.38C282.52 270.97 282.66 270.98 282.8 271C282.97 271.03 283.13 271.06 283.29 271.1C283.37 271.12 283.44 271.15 283.51 271.17L283.42 271.13Z" fill="#05183C"/>
<path d="M507.25 253.71L475.4 203.72L475.32 203.59C475.16 203.34 474.97 203.12 474.76 202.92C474.71 202.86 474.65 202.81 474.59 202.77C474.51 202.71 474.44 202.65 474.36 202.59C474.28 202.54 474.2 202.49 474.12 202.44C474.05 202.4 473.98 202.36 473.9 202.33C473.81 202.28 473.71 202.24 473.61 202.2L391.43 169.69C391.38 169.67 391.33 169.65 391.28 169.63L328.15 144.65C328.09 144.63 328.03 144.6 327.97 144.58L296.9 132.29C296.9 132.29 296.83 132.26 296.79 132.25L296.74 132.23C296.65 132.19 296.57 132.15 296.48 132.12C294.91 131.55 293.28 131.2 291.66 131.09C289.02 130.89 286.31 131.3 283.84 132.27L273.53 136.32C273.53 136.32 273.43 136.35 273.38 136.37L108.09 201.21C107.93 201.27 107.77 201.35 107.61 201.44C107.46 201.53 107.32 201.63 107.19 201.73C107.05 201.84 106.92 201.96 106.81 202.09C106.69 202.21 106.59 202.35 106.49 202.49C106.43 202.56 106.39 202.63 106.35 202.71C106.34 202.72 106.33 202.74 106.32 202.75L77.18 254.47C75.08 258.2 74.69 262.65 76.1 266.68C77.51 270.72 80.6 273.95 84.57 275.56L106.72 284.48L108.27 429.43C108.35 436.66 112.74 443.08 119.46 445.78L275.61 508.24C276.78 508.71 277.99 509.05 279.23 509.26C280.06 509.4 280.91 509.48 281.77 509.5C281.94 509.5 282.11 509.51 282.29 509.51C283 509.51 283.71 509.47 284.41 509.38C285.64 509.23 286.86 508.95 288.05 508.54L464.35 447.62C471.53 445.13 476.35 438.36 476.35 430.76V430.74L476.04 284.46L499.87 275.64H499.88C504.11 274.07 507.37 270.71 508.8 266.43C510.24 262.15 509.68 257.52 507.25 253.71ZM87.19 269.06C85.09 268.22 83.46 266.5 82.71 264.37C81.96 262.23 82.17 259.88 83.28 257.91L110.91 208.87L277.73 276.36L255.07 328.44C253.39 332.31 248.84 334.17 244.93 332.59L111.43 278.82L87.19 269.06ZM278.38 501.8C278.38 501.8 278.27 501.76 278.22 501.74L122.06 439.28C117.98 437.64 115.32 433.75 115.27 429.35L113.76 287.32V287.3L242.31 339.09C244.16 339.83 246.06 340.19 247.93 340.19C248.32 340.19 248.71 340.17 249.1 340.14C249.72 340.09 250.33 340 250.93 339.87C252.02 339.65 253.09 339.3 254.09 338.83C254.33 338.72 254.57 338.61 254.8 338.48C254.97 338.39 255.13 338.3 255.29 338.21C255.51 338.08 255.73 337.95 255.94 337.81C258.31 336.27 260.27 334.03 261.49 331.23L278.83 291.37L278.38 501.8ZM283.29 271.1C283.13 271.06 282.97 271.03 282.8 271C282.66 270.98 282.52 270.97 282.38 270.97H282.31C282.25 270.97 282.18 270.97 282.12 270.98C282.05 270.98 281.97 270.98 281.9 271.01C281.83 271.01 281.76 271.02 281.69 271.04C281.56 271.06 281.45 271.09 281.33 271.13L282.42 270.73H282.43L283.42 271.13L283.51 271.17C283.44 271.15 283.37 271.12 283.29 271.1ZM283.89 271.34C283.84 271.31 283.79 271.28 283.74 271.26C283.84 271.3 283.94 271.35 284.03 271.4C283.98 271.38 283.94 271.36 283.89 271.34ZM284.23 271.51C284.23 271.51 284.27 271.53 284.29 271.54C284.32 271.56 284.34 271.57 284.36 271.6C284.32 271.57 284.27 271.54 284.23 271.51ZM282.44 270.72L118.83 204.52L275.8 142.94C275.8 142.94 275.9 142.91 275.95 142.89L286.4 138.79C287.9 138.2 289.54 137.95 291.16 138.07C292.11 138.14 293.06 138.34 293.99 138.67C294.11 138.72 294.24 138.76 294.37 138.81L325.22 151.02C325.28 151.04 325.34 151.07 325.4 151.09L388.84 176.19C388.89 176.21 388.94 176.23 388.99 176.25L462.5 205.33L282.44 270.72ZM462.07 441L285.77 501.92C285.64 501.96 285.51 502 285.38 502.03L285.84 288.94L308.16 332.58C308.49 333.22 308.85 333.82 309.26 334.39C309.46 334.68 309.67 334.95 309.89 335.22C310.1 335.49 310.33 335.75 310.57 335.99C310.8 336.24 311.04 336.48 311.29 336.72C311.56 336.97 311.84 337.21 312.13 337.43C312.34 337.6 312.56 337.77 312.78 337.92C313.13 338.18 313.5 338.41 313.87 338.62C314.11 338.77 314.35 338.9 314.6 339.03C314.84 339.15 315.08 339.27 315.33 339.38C315.75 339.57 316.18 339.74 316.62 339.89C316.88 339.98 317.14 340.06 317.4 340.13C317.76 340.23 318.12 340.32 318.48 340.39C318.75 340.44 319.03 340.49 319.31 340.53C319.55 340.57 319.8 340.6 320.05 340.61C320.27 340.64 320.48 340.65 320.69 340.66C320.93 340.67 321.16 340.68 321.4 340.68C323.11 340.68 324.85 340.38 326.54 339.75L469.04 287.04L469.35 430.76C469.36 435.38 466.43 439.49 462.07 441ZM502.17 264.2C501.41 266.47 499.69 268.24 497.45 269.08L471.62 278.64L324.11 333.19C320.39 334.57 316.21 332.94 314.4 329.4L287.29 276.41L470.93 209.72L501.35 257.47C502.63 259.48 502.93 261.94 502.17 264.2Z" fill="white"/>
<path d="M502.17 264.201C501.41 266.471 499.69 268.241 497.45 269.081L471.62 278.641L324.11 333.191C320.39 334.571 316.21 332.941 314.4 329.401L287.29 276.411L470.93 209.721L501.35 257.471C502.63 259.481 502.93 261.941 502.17 264.201Z" fill="#06296B"/>
<path d="M469.35 430.76C469.36 435.38 466.43 439.49 462.07 441L285.77 501.92C285.64 501.96 285.51 502 285.38 502.03L285.84 288.94L308.16 332.58C308.49 333.22 308.85 333.82 309.26 334.39C309.46 334.68 309.67 334.95 309.89 335.22C310.1 335.49 310.33 335.75 310.57 335.99C310.8 336.24 311.04 336.48 311.29 336.72C311.56 336.97 311.84 337.21 312.13 337.43C312.34 337.6 312.56 337.77 312.78 337.92C313.13 338.18 313.5 338.41 313.87 338.62C314.11 338.77 314.35 338.9 314.6 339.03C314.84 339.15 315.08 339.27 315.33 339.38C315.75 339.57 316.18 339.74 316.62 339.89C316.88 339.98 317.14 340.06 317.4 340.13C317.76 340.23 318.12 340.32 318.48 340.39C318.75 340.44 319.03 340.49 319.31 340.53C319.55 340.57 319.8 340.6 320.05 340.61C320.27 340.64 320.48 340.65 320.69 340.66C320.93 340.67 321.16 340.68 321.4 340.68C323.11 340.68 324.85 340.38 326.54 339.75L469.04 287.04L469.35 430.76Z" fill="#06296B"/>
<path d="M278.83 291.37L278.38 501.8C278.38 501.8 278.27 501.76 278.22 501.74L122.06 439.28C117.98 437.64 115.32 433.75 115.27 429.35L113.76 287.32L242.31 339.09C244.16 339.83 246.06 340.19 247.93 340.19C248.32 340.19 248.71 340.17 249.1 340.14C249.72 340.09 250.33 340.01 250.93 339.87C252.02 339.65 253.09 339.3 254.09 338.83C254.33 338.72 254.57 338.61 254.8 338.48C254.97 338.39 255.13 338.3 255.29 338.21C255.51 338.08 255.73 337.95 255.94 337.81C258.31 336.27 260.27 334.03 261.49 331.23L278.83 291.37Z" fill="#1A3C7D"/>
<path d="M277.73 276.37L255.07 328.44C253.39 332.31 248.84 334.17 244.93 332.59L111.43 278.82L87.1902 269.06C85.0902 268.22 83.4602 266.5 82.7102 264.37C81.9602 262.23 82.1702 259.88 83.2802 257.91L110.91 208.87L277.73 276.37Z" fill="#1A3C7D"/>
<path d="M462.5 205.33L282.44 270.72L118.83 204.52L275.8 142.94C275.8 142.94 275.9 142.91 275.95 142.89L286.4 138.79C287.9 138.2 289.54 137.95 291.16 138.07C292.11 138.14 293.06 138.34 293.99 138.67C294.11 138.72 294.24 138.76 294.37 138.81L325.22 151.02C325.28 151.04 325.34 151.07 325.4 151.09L388.84 176.19C388.89 176.21 388.94 176.23 388.99 176.25L462.5 205.33Z" fill="#05183C"/>
<path d="M289.43 442.47C441.032 442.47 563.93 376.544 563.93 295.22C563.93 213.896 441.032 147.97 289.43 147.97C137.828 147.97 14.9302 213.896 14.9302 295.22C14.9302 376.544 137.828 442.47 289.43 442.47Z" stroke="white" stroke-width="6.77" stroke-miterlimit="10"/>
<path d="M547.01 325.26L538.69 329.65C537.63 330.18 536.58 328.93 537.29 327.98L543.01 320.33C545.91 316.45 547.72 311.79 548.25 307.01C548.67 303.22 548.28 299.35 547.01 295.74L546.69 294.84L546.22 293.51C545.85 292.47 547.06 291.58 547.94 292.24H547.96C548.28 292.49 548.6 292.72 548.93 292.94C556.57 298.07 566.63 298.49 574.98 294.48L575.63 294.19L583.46 290.64C584.54 290.12 585.57 291.44 584.81 292.36L579.45 298.84L578.97 299.42C572.84 306.84 571.61 316.7 575.29 325.5C575.46 325.91 575.64 326.31 575.83 326.71C576.08 327.24 575.89 327.76 575.52 328.06C575.18 328.34 574.67 328.42 574.22 328.13L572.94 327.31L572.31 326.91C568.9 324.74 565.16 323.37 561.34 322.86C556.52 322.22 551.58 322.97 547.02 325.27L547.01 325.26Z" fill="white" stroke="#E4DEDE" stroke-width="1.27" stroke-miterlimit="10"/>
<path d="M78.4302 401.47C85.0576 401.47 90.4302 396.097 90.4302 389.47C90.4302 382.842 85.0576 377.47 78.4302 377.47C71.8028 377.47 66.4302 382.842 66.4302 389.47C66.4302 396.097 71.8028 401.47 78.4302 401.47Z" fill="white" stroke="#E4DEDE" stroke-width="2" stroke-miterlimit="10"/>
<path d="M403.69 87.63L301.65 76.39C291.17 75.23 281.65 82.86 280.5 93.35L276.48 129.83L275.4 139.58L265.09 233.15C264.16 241.67 269.01 249.55 276.48 252.82C278.21 253.58 280.08 254.09 282.05 254.31L323.18 258.84L359.3 245.72L389.59 234.72L407.49 228.22L411.4 192.68L420.65 108.79C421.8 98.3 414.17 88.78 403.69 87.63ZM418.88 108.6L405.84 226.93L322.96 257.03L282.25 252.54C280.49 252.35 278.79 251.89 277.19 251.19C270.29 248.17 266.04 240.83 266.86 233.35L282.27 93.54C282.77 88.94 285.05 84.8 288.69 81.89C291.82 79.38 295.61 78.05 299.53 78.05C300.17 78.05 300.81 78.09 301.45 78.16L403.5 89.4C413.02 90.45 419.93 99.06 418.88 108.6Z" fill="#FF9460"/>
<path d="M418.88 108.6L405.84 226.93L322.96 257.03L282.25 252.54C280.49 252.35 278.79 251.89 277.19 251.19C270.29 248.17 266.04 240.83 266.86 233.35L282.27 93.5398C282.77 88.9398 285.05 84.7998 288.69 81.8898C291.82 79.3798 295.61 78.0498 299.53 78.0498C300.17 78.0498 300.81 78.0898 301.45 78.1598L403.5 89.3998C413.02 90.4498 419.93 99.0598 418.88 108.6Z" fill="#FF9460"/>
<path d="M417.95 126.219C417.88 126.219 417.8 126.219 417.73 126.209L279.1 110.939C278 110.819 277.21 109.829 277.33 108.729C277.45 107.629 278.44 106.839 279.54 106.959L418.17 122.229C419.27 122.349 420.06 123.339 419.94 124.439C419.83 125.459 418.96 126.219 417.95 126.219Z" fill="white"/>
<path d="M403.89 85.8598L301.85 74.6198C296.3 74.0098 290.84 75.5998 286.47 79.1098C282.09 82.6198 279.34 87.6098 278.73 93.1598L263.32 232.96C262.34 241.97 267.45 250.81 275.76 254.45C277.69 255.29 279.74 255.84 281.86 256.08L323.4 260.65L409.14 229.51L422.42 108.99C423.68 97.4898 415.36 87.1198 403.89 85.8598ZM418.88 108.6L405.84 226.93L387.16 233.71L355.31 245.28L322.96 257.03L282.25 252.54C280.49 252.35 278.79 251.89 277.19 251.19C270.29 248.17 266.04 240.83 266.86 233.35L282.27 93.5398C282.77 88.9398 285.05 84.7998 288.69 81.8898C291.82 79.3798 295.61 78.0498 299.53 78.0498C300.17 78.0498 300.81 78.0898 301.45 78.1598L403.5 89.3998C413.02 90.4498 419.93 99.0598 418.88 108.6Z" fill="white"/>
<path d="M304.48 99.8096C307.241 99.8096 309.48 97.571 309.48 94.8096C309.48 92.0481 307.241 89.8096 304.48 89.8096C301.719 89.8096 299.48 92.0481 299.48 94.8096C299.48 97.571 301.719 99.8096 304.48 99.8096Z" fill="#FF6D2A"/>
<path d="M320.1 101.529C322.862 101.529 325.1 99.2907 325.1 96.5293C325.1 93.7679 322.862 91.5293 320.1 91.5293C317.339 91.5293 315.1 93.7679 315.1 96.5293C315.1 99.2907 317.339 101.529 320.1 101.529Z" fill="#FF6D2A"/>
<path d="M335.72 103.25C338.481 103.25 340.72 101.011 340.72 98.25C340.72 95.4886 338.481 93.25 335.72 93.25C332.958 93.25 330.72 95.4886 330.72 98.25C330.72 101.011 332.958 103.25 335.72 103.25Z" fill="#FF6D2A"/>
<path d="M340.018 156.084L295.209 151.145C291.937 150.785 288.993 153.144 288.632 156.416L284.789 191.285C284.428 194.557 286.788 197.502 290.06 197.862L334.869 202.801C338.14 203.162 341.085 200.802 341.446 197.53L345.289 162.661C345.65 159.389 343.29 156.445 340.018 156.084Z" fill="#EE4A00"/>
<path d="M387.16 233.709L355.31 245.279L290.79 238.169L285.69 237.609C282.42 237.249 280.06 234.309 280.42 231.029L280.75 227.969C281.12 224.699 284.06 222.339 287.33 222.699L292.27 223.239L386.81 233.659C386.93 233.669 387.04 233.689 387.16 233.709Z" fill="#EE4A00"/>
<path d="M401.6 145.74C401.6 145.74 401.53 145.74 401.49 145.74L291.16 133.58C290.61 133.52 290.21 133.03 290.28 132.48C290.35 131.93 290.82 131.53 291.38 131.6L401.71 143.76C402.26 143.82 402.66 144.31 402.59 144.86C402.53 145.37 402.1 145.75 401.6 145.75V145.74Z" fill="#FF6D2A"/>
<path d="M400.61 154.69C400.61 154.69 400.54 154.69 400.5 154.69L290.17 142.54C289.62 142.48 289.22 141.99 289.29 141.44C289.36 140.89 289.83 140.49 290.39 140.56L400.72 152.71C401.27 152.77 401.67 153.26 401.6 153.81C401.54 154.32 401.11 154.7 400.61 154.7V154.69Z" fill="#FF6D2A"/>
<path d="M399.63 163.63C399.63 163.63 399.56 163.63 399.52 163.63L356.61 158.9C356.06 158.84 355.66 158.35 355.73 157.8C355.8 157.25 356.27 156.85 356.83 156.92L399.74 161.65C400.29 161.71 400.69 162.2 400.62 162.75C400.56 163.26 400.13 163.64 399.63 163.64V163.63Z" fill="#FF6D2A"/>
<path d="M398.64 172.579C398.64 172.579 398.57 172.579 398.53 172.579L355.62 167.849C355.07 167.789 354.67 167.299 354.74 166.749C354.8 166.199 355.28 165.809 355.84 165.869L398.75 170.599C399.3 170.659 399.7 171.149 399.63 171.699C399.57 172.209 399.14 172.589 398.64 172.589V172.579Z" fill="#FF6D2A"/>
<path d="M397.66 181.53C397.66 181.53 397.59 181.53 397.55 181.53L354.64 176.8C354.09 176.74 353.69 176.25 353.76 175.7C353.82 175.15 354.31 174.76 354.86 174.82L397.77 179.55C398.32 179.61 398.72 180.1 398.65 180.65C398.59 181.16 398.16 181.54 397.66 181.54V181.53Z" fill="#FF6D2A"/>
<path d="M396.67 190.47C396.67 190.47 396.6 190.47 396.56 190.47L353.65 185.74C353.1 185.68 352.7 185.19 352.77 184.64C352.84 184.09 353.31 183.69 353.87 183.76L396.78 188.49C397.33 188.55 397.73 189.04 397.66 189.59C397.6 190.1 397.17 190.48 396.67 190.48V190.47Z" fill="#FF6D2A"/>
<path d="M395.58 200.409C395.58 200.409 395.51 200.409 395.47 200.409L352.56 195.679C352.01 195.619 351.61 195.129 351.68 194.579C351.74 194.029 352.23 193.639 352.78 193.699L395.69 198.429C396.24 198.489 396.64 198.979 396.57 199.529C396.51 200.039 396.08 200.419 395.58 200.419V200.409Z" fill="#FF6D2A"/>
<path d="M394.59 209.36C394.59 209.36 394.52 209.36 394.48 209.36L351.57 204.63C351.02 204.57 350.62 204.08 350.69 203.53C350.76 202.98 351.23 202.58 351.79 202.65L394.7 207.38C395.25 207.44 395.65 207.93 395.58 208.48C395.52 208.99 395.09 209.37 394.59 209.37V209.36Z" fill="#FF6D2A"/>
<path d="M301.09 233.12C298.58 239.37 293.66 244.52 287.31 247.23C285.41 248.04 283.39 248.63 281.26 248.96L235.99 256.07L166.15 227.81L159.65 186.4L155.03 157C152.84 143.04 162.47 129.82 176.44 127.63L260.14 114.49C271.59 112.69 282.53 118.83 287.31 128.8C288.36 130.99 289.12 133.36 289.52 135.89L290.01 138.99L296.3 179.12L298.61 193.8L302.52 218.75L302.65 219.6C303.39 224.33 302.78 228.97 301.09 233.13V233.12Z" fill="#EE4A00"/>
<path d="M235.8 257.83L164.62 229.03L153.35 157.27C152.22 150.06 153.98 142.83 158.3 136.89C162.62 130.95 168.97 127.07 176.18 125.94L259.88 112.8C271.74 110.94 283.66 117.21 288.86 128.06C290.01 130.46 290.8 133 291.21 135.62L291.7 138.72L304.34 219.33C305.1 224.2 304.53 229.2 302.68 233.77C299.97 240.5 294.62 245.98 287.98 248.81C285.93 249.68 283.76 250.31 281.53 250.66L235.79 257.84L235.8 257.83ZM167.7 226.58L236.2 254.3L281 247.27C282.95 246.96 284.85 246.42 286.64 245.65C292.44 243.18 297.13 238.38 299.5 232.48C301.12 228.48 301.62 224.11 300.95 219.86L294.6 179.38L287.82 136.16C287.46 133.87 286.77 131.64 285.76 129.55C281.2 120.05 270.77 114.56 260.4 116.19L176.7 129.33C170.4 130.32 164.85 133.72 161.06 138.91C157.28 144.1 155.73 150.43 156.72 156.74L167.69 226.58H167.7Z" fill="white"/>
<path d="M272.97 141.051C273 141.241 272.9 141.461 272.69 141.551L272.08 141.881L271.77 142.031C270.19 142.861 268.84 144.001 267.77 145.371C266.47 147.091 265.65 149.181 265.51 151.441L265.35 155.631C265.33 156.151 264.6 156.311 264.39 155.811L262.72 151.881C261.86 149.911 260.46 148.171 258.73 146.901C257.36 145.901 255.76 145.161 254.11 144.871L253.67 144.781L253.06 144.681C252.56 144.601 252.48 143.921 252.94 143.711C253.12 143.651 253.28 143.591 253.43 143.501C257.12 141.681 259.54 137.881 259.85 133.771L259.9 133.471L260.25 129.641C260.3 129.111 261.04 128.991 261.21 129.491L262.52 133.031L262.63 133.341C264.14 137.371 267.68 140.031 271.9 140.581C272.1 140.621 272.3 140.621 272.5 140.651C272.76 140.681 272.92 140.851 272.96 141.071L272.97 141.051Z" fill="#FF9460"/>
<path d="M228.24 223.881C246.107 223.881 260.59 209.397 260.59 191.531C260.59 173.664 246.107 159.181 228.24 159.181C210.374 159.181 195.89 173.664 195.89 191.531C195.89 209.397 210.374 223.881 228.24 223.881Z" fill="#FF9460"/>
</svg>
