<?xml version="1.0" encoding="UTF-8"?><svg id="_ícones_serviços" xmlns="http://www.w3.org/2000/svg" viewBox="0 0 600 600"><defs><style>.cls-1,.cls-2,.cls-3{fill:#fff;}.cls-4{fill:#05183c;}.cls-5{fill:#ff9460;}.cls-6{fill:none;stroke:#fff;stroke-width:6.77px;}.cls-6,.cls-2,.cls-3{stroke-miterlimit:10;}.cls-7{fill:#1a3c7d;}.cls-8{fill:#ee4a00;}.cls-9{fill:#06296b;}.cls-10{fill:#ff6d2a;}.cls-2{stroke-width:2px;}.cls-2,.cls-3{stroke:#e4dede;}.cls-3{stroke-width:1.27px;}</style></defs><g><g><path class="cls-4" d="M493.9,239.27l-190,69-28.09-11.37-50.83-20.56-14.36-5.81-32.26-13.06-47.46-19.2,45.83-17.98,42.73-16.76,26.7-10.47,60.49-23.73c3.37-1.32,7.12-1.32,10.49,.01l2.55,1.01,24.44,9.67,21.75,8.6,42.35,16.76,85.67,33.89Z"/><path class="cls-1" d="M303.9,311.77c-.45,0-.89-.08-1.31-.26l-173-70c-1.33-.54-2.2-1.83-2.19-3.26s.89-2.72,2.22-3.24l175.75-68.94c4.22-1.65,8.85-1.64,13.05,.01l176.76,69.93c1.35,.54,2.23,1.85,2.21,3.3s-.94,2.74-2.31,3.24l-190,69c-.39,.14-.79,.21-1.19,.21Zm-163.54-73.45l163.61,66.2,180.06-65.39-168.18-66.54c-2.55-1.01-5.37-1.01-7.92,0l-167.57,65.73Z"/></g><g><path class="cls-7" d="M303.9,308.27l-.5,231.53c-1.68-.04-3.36-.37-4.95-1.01l-156.16-62.46c-5.38-2.16-8.93-7.34-8.99-13.14l-1.57-147.29,133.42,53.74c5.7,2.3,12.21-.36,14.66-6.01l24.09-55.36Z"/><path class="cls-1" d="M303.4,543.3s-.06,0-.08,0c-2.14-.05-4.22-.48-6.17-1.26l-156.15-62.46c-6.73-2.7-11.12-9.12-11.19-16.35l-1.57-147.29c-.01-1.17,.56-2.27,1.53-2.93,.97-.66,2.2-.79,3.28-.36l133.42,53.74c3.92,1.58,8.46-.29,10.14-4.16l24.09-55.36c.66-1.52,2.3-2.37,3.93-2.03,1.62,.34,2.79,1.77,2.78,3.43l-.5,231.53c0,.94-.38,1.84-1.06,2.5-.65,.64-1.53,.99-2.44,.99Zm-168.11-222.2l1.51,142.05c.04,4.39,2.71,8.29,6.79,9.93l156.16,62.46c.05,.02,.11,.04,.16,.06l.46-210.43-17.34,39.86c-3.23,7.44-11.65,10.89-19.18,7.86l-128.55-51.78Z"/></g><g><path class="cls-9" d="M494.38,464.55c.01,6.11-3.86,11.56-9.64,13.56l-176.3,60.92c-1.63,.56-3.34,.82-5.04,.77l.5-231.53,28.91,56.52c2.62,5.12,8.66,7.48,14.05,5.48l147.2-54.45,.32,148.73Z"/><path class="cls-1" d="M303.81,543.31c-.17,0-.35,0-.52,0-1.9-.05-3.4-1.61-3.4-3.51l.5-231.53c0-1.62,1.11-3.02,2.68-3.4,1.57-.38,3.2,.37,3.93,1.81l28.91,56.52c1.81,3.54,5.99,5.18,9.72,3.79l147.2-54.45c1.07-.4,2.27-.25,3.21,.41,.94,.65,1.5,1.72,1.5,2.87l.32,148.73h0c.01,7.61-4.81,14.39-12,16.88l-176.3,60.92c-1.87,.64-3.81,.97-5.77,.97Zm3.55-220.57l-.46,213.11c.13-.04,.26-.08,.39-.13l176.29-60.92c4.36-1.51,7.29-5.63,7.28-10.24l-.31-143.72-142.5,52.71c-7.04,2.62-14.95-.47-18.38-7.17l-22.33-43.65Z"/></g><g><path class="cls-7" d="M303.9,308.27l-24.09,55.36c-2.45,5.65-8.96,8.31-14.66,6.01l-133.42-53.74-24.32-9.79c-6.36-2.57-9.02-10.14-5.65-16.12l29.14-51.72,47.46,19.2,32.26,13.06,14.36,5.81,50.83,20.56,28.09,11.37Z"/><path class="cls-1" d="M269.45,373.99c-1.87,0-3.77-.35-5.62-1.1l-157.74-63.53c-3.97-1.61-7.06-4.84-8.47-8.88-1.41-4.03-1.02-8.48,1.08-12.21l29.14-51.72c.86-1.53,2.73-2.19,4.36-1.53l173,70c.88,.35,1.57,1.05,1.93,1.92,.36,.87,.35,1.86-.03,2.72l-24.09,55.36c-2.43,5.61-7.83,8.96-13.56,8.96ZM132.44,242.67l-27.63,49.04c-1.11,1.97-1.32,4.32-.57,6.46,.75,2.14,2.38,3.85,4.48,4.7l157.74,63.53c3.91,1.58,8.46-.29,10.14-4.16l22.66-52.07-166.82-67.5Z"/></g><g><path class="cls-9" d="M520.19,306.16l-26.13,9.66-147.2,54.45c-5.39,2-11.43-.36-14.05-5.48l-28.91-56.52,190-69,31.93,50.12c3.89,6.11,1.15,14.25-5.64,16.77Z"/><path class="cls-1" d="M342.92,374.48c-5.43,0-10.62-3-13.23-8.1l-28.91-56.52c-.46-.89-.51-1.94-.14-2.88,.37-.93,1.12-1.67,2.06-2.01l190-69c1.54-.56,3.27,.03,4.15,1.41l31.93,50.12c2.42,3.81,2.99,8.45,1.55,12.72-1.44,4.28-4.69,7.64-8.93,9.21,0,0,0,0,0,0l-173.33,64.11c-1.69,.63-3.43,.93-5.15,.93Zm-34.1-64.27l27.1,52.99c1.81,3.54,5.99,5.18,9.72,3.79l173.33-64.11c2.24-.83,3.96-2.61,4.72-4.87,.76-2.26,.46-4.72-.82-6.73l-30.42-47.75-183.63,66.69Zm211.37-4.05h0Z"/></g></g><g><ellipse class="cls-6" cx="304.38" cy="329.95" rx="147.25" ry="274.5" transform="translate(-37.02 621.43) rotate(-87.8)"/><path class="cls-3" d="M41.87,379.44l-3.88,8.57c-.51,1.07-2.11,.72-2.13-.46l-.17-9.56c-.08-4.84-1.51-9.63-4.03-13.74-1.99-3.25-4.67-6.07-7.89-8.14l-.81-.52-1.19-.76c-.93-.6-.52-2.04,.58-2.06h.02c.4,0,.79-.02,1.19-.05,9.18-.63,17.39-6.47,21.53-14.75l.33-.63,4.01-7.61c.54-1.07,2.16-.67,2.12,.53l-.26,8.4-.02,.75c-.29,9.62,4.78,18.16,13.08,22.86,.38,.22,.77,.43,1.17,.63,.52,.26,.69,.79,.58,1.26-.1,.43-.45,.81-.98,.86l-1.52,.14-.75,.07c-4.02,.38-7.82,1.58-11.15,3.53-4.2,2.45-7.64,6.08-9.84,10.68Z"/><circle class="cls-2" cx="561.99" cy="292.29" r="12"/></g><g><g><g><g><path class="cls-5" d="M348.29,274.53c.46,10.53-7.78,19.53-18.31,19.99l-54.17,2.38-50.83-20.56-14.36-5.81-32.26-13.06-1.63-37.18-3.47-78.85c-.46-10.54,7.78-19.54,18.32-20l130.53-5.74c2.26-.1,4.45,.2,6.5,.84,7.51,2.33,13.14,9.19,13.5,17.47l2.02,46.01,4.16,94.51Z"/><path class="cls-1" d="M344.11,133.92c-.39-8.89-6.38-16.64-14.9-19.29-2.32-.72-4.74-1.03-7.19-.93l-130.53,5.74c-11.66,.51-20.74,10.42-20.23,22.09l5.06,115.11h0s.1,2.2,.1,2.2l27.56,11.15,5.19,2.1,7.66,3.1,6.7,2.71,51.93,21.02,4.82-.21,49.79-2.19c11.66-.51,20.73-10.41,20.22-22.08l-6.18-140.52Zm-14.22,158.6l-53.73,2.36-43.01-17.4-6.7-2.71-7.66-3.1-6.71-2.71-31.78-12.86-5.04-114.75c-.41-9.46,6.95-17.5,16.41-17.91l130.53-5.74c1.98-.09,3.94,.16,5.82,.75,6.92,2.15,11.78,8.44,12.09,15.65l6.18,140.52c.41,9.46-6.94,17.49-16.4,17.9Z"/></g><g><circle class="cls-10" cx="195.86" cy="139.32" r="3.67"/><circle class="cls-10" cx="207.38" cy="138.77" r="3.67"/><circle class="cls-10" cx="218.91" cy="138.21" r="3.67"/><circle class="cls-10" cx="230.82" cy="137.64" r="3.67"/><circle class="cls-10" cx="242.34" cy="137.08" r="3.67"/><circle class="cls-10" cx="253.87" cy="136.53" r="3.67"/></g><rect class="cls-1" x="174.5" y="151.36" width="167.17" height="4" transform="translate(-6.49 11.49) rotate(-2.52)"/></g><g><g><rect class="cls-8" x="200" y="220.4" width="36.33" height="29.96" rx="5.96" ry="5.96" transform="translate(-10.13 9.81) rotate(-2.52)"/><rect class="cls-8" x="243.79" y="218.29" width="36.33" height="29.96" rx="5.96" ry="5.96" transform="translate(-10 11.73) rotate(-2.52)"/><rect class="cls-8" x="287.66" y="216.18" width="36.33" height="29.96" rx="5.96" ry="5.96" transform="translate(-9.86 13.66) rotate(-2.52)"/><g><path class="cls-10" d="M204.7,259.41c-.8,0-1.46-.63-1.5-1.43-.04-.83,.61-1.53,1.43-1.57l29.17-1.28c.82-.05,1.53,.61,1.57,1.43,.04,.83-.61,1.53-1.43,1.57l-29.17,1.28s-.04,0-.07,0Z"/><path class="cls-10" d="M204.98,265.83c-.8,0-1.46-.63-1.5-1.43-.04-.83,.61-1.53,1.43-1.56l29.17-1.28c.82-.02,1.53,.6,1.56,1.43,.04,.83-.61,1.53-1.43,1.56l-29.17,1.28s-.04,0-.07,0Z"/><path class="cls-10" d="M235.93,269.41c.04,.83-.6,1.53-1.43,1.57l-15.71,.69-6.71-2.71,22.29-.98c.83-.03,1.53,.6,1.56,1.43Z"/><path class="cls-10" d="M236.22,275.84c.03,.83-.61,1.53-1.44,1.57l-1.63,.07-6.7-2.71,8.2-.36c.83-.04,1.53,.6,1.57,1.43Z"/></g><g><path class="cls-10" d="M248.49,257.3c-.8,0-1.46-.63-1.5-1.43-.04-.83,.61-1.53,1.43-1.57l29.17-1.28c.83-.04,1.53,.61,1.57,1.43,.04,.83-.61,1.53-1.43,1.57l-29.17,1.28s-.04,0-.07,0Z"/><path class="cls-10" d="M248.78,263.73c-.8,0-1.46-.63-1.5-1.43-.04-.83,.61-1.53,1.43-1.57l29.17-1.28c.83-.05,1.53,.6,1.57,1.43,.04,.83-.61,1.53-1.43,1.57l-29.17,1.28s-.04,0-.07,0Z"/><path class="cls-10" d="M249.06,270.15c-.8,0-1.46-.63-1.5-1.43-.04-.83,.61-1.53,1.43-1.56l29.17-1.28c.83-.03,1.53,.61,1.56,1.43,.04,.83-.61,1.53-1.43,1.56l-29.17,1.28s-.04,0-.07,0Z"/><path class="cls-10" d="M249.34,276.58c-.8,0-1.46-.63-1.5-1.43-.04-.83,.61-1.53,1.43-1.57l29.17-1.28c.83-.03,1.53,.61,1.57,1.43,.04,.83-.61,1.53-1.43,1.57l-29.17,1.28s-.04,0-.07,0Z"/><path class="cls-10" d="M249.66,283.73c-.8,0-1.46-.63-1.5-1.43-.04-.83,.61-1.53,1.43-1.57l29.17-1.28c.81-.04,1.53,.61,1.57,1.43,.04,.83-.61,1.53-1.43,1.57l-29.17,1.28s-.04,0-.07,0Z"/></g><g><path class="cls-10" d="M292.36,255.18c-.8,0-1.46-.63-1.5-1.43-.04-.83,.61-1.53,1.43-1.56l29.17-1.28c.79-.03,1.53,.61,1.56,1.43,.04,.83-.61,1.53-1.43,1.56l-29.17,1.28s-.04,0-.07,0Z"/><path class="cls-10" d="M292.65,261.61c-.8,0-1.46-.63-1.5-1.43-.04-.83,.61-1.53,1.43-1.57l29.17-1.28c.83-.04,1.53,.61,1.57,1.43,.04,.83-.61,1.53-1.43,1.57l-29.17,1.28s-.04,0-.07,0Z"/><path class="cls-10" d="M292.93,268.04c-.8,0-1.46-.63-1.5-1.43-.04-.83,.61-1.53,1.43-1.56l29.17-1.28c.83-.05,1.53,.6,1.56,1.43,.04,.83-.61,1.53-1.43,1.56l-29.17,1.28s-.04,0-.07,0Z"/><path class="cls-10" d="M293.21,274.47c-.8,0-1.46-.63-1.5-1.43-.04-.83,.61-1.53,1.43-1.56l29.17-1.28c.83-.03,1.53,.61,1.56,1.43,.04,.83-.61,1.53-1.43,1.56l-29.17,1.28s-.04,0-.07,0Z"/><path class="cls-10" d="M293.53,281.61c-.8,0-1.46-.63-1.5-1.43-.04-.83,.61-1.53,1.43-1.56l29.17-1.28s.04,0,.07,0c.8,0,1.46,.63,1.5,1.43,.04,.83-.61,1.53-1.43,1.56l-29.17,1.28s-.04,0-.07,0Z"/></g></g><g><rect class="cls-8" x="198.65" y="161.49" width="121.27" height="30.98" rx="5.96" ry="5.96" transform="translate(-7.53 11.56) rotate(-2.52)"/><g><path class="cls-10" d="M203.09,205.75c-.8,0-1.46-.63-1.5-1.43-.04-.83,.61-1.53,1.43-1.57l115.03-5.06s.04,0,.07,0c.8,0,1.46,.63,1.5,1.43,.04,.83-.61,1.53-1.43,1.56l-115.03,5.06s-.04,0-.07,0Z"/><path class="cls-10" d="M203.35,211.75c-.8,0-1.46-.63-1.5-1.43-.04-.83,.61-1.53,1.43-1.56l57.1-2.51c.78-.02,1.53,.61,1.56,1.43,.04,.83-.61,1.53-1.43,1.56l-57.1,2.51s-.04,0-.07,0Z"/></g></g></g></g><g><rect class="cls-1" x="421.47" y="6.78" width="3" height="164.28" transform="translate(218.17 469.53) rotate(-73.59)"/><path class="cls-1" d="M484.27,188.65l-2.97-.41c6.1-44.64-18.53-85.6-58.57-97.39-39.64-11.67-82.38,9.05-101.62,49.29l-2.71-1.29c19.89-41.57,64.12-62.96,105.18-50.87,20.12,5.92,37.3,19.44,48.38,38.07,10.94,18.39,15.32,40.62,12.31,62.6Z"/><g><path class="cls-10" d="M359.81,222.16l-10.69,36.3c-.53,1.8,.5,3.68,2.29,4.21l34.29,10.1c1.8,.53,3.68-.5,4.21-2.29l10.69-36.3-40.79-12.01Z"/><path class="cls-1" d="M386.66,274.4c-.46,0-.93-.07-1.39-.2l-34.29-10.1c-2.58-.76-4.07-3.48-3.31-6.07l11.12-37.74,43.66,12.86-11.12,37.74c-.37,1.25-1.2,2.29-2.35,2.91-.73,.4-1.53,.6-2.33,.6Zm-25.84-50.38l-10.27,34.86c-.29,1,.28,2.05,1.28,2.35l34.29,10.1c.48,.14,.99,.09,1.44-.15s.77-.64,.91-1.12l10.27-34.86-37.91-11.17Z"/></g><g><path class="cls-8" d="M420.88,181.71l-16.98,42.47-40.79-12.01,7.95-44.74c.59-3.31,1.98-6.42,4.05-9.07l36.82-47.12c.21-.26,.63-.05,.53,.27l-16.23,55.09c-3.23,.1-6.19,2.26-7.15,5.54-.96,3.28,.35,6.7,3.01,8.53,.66,.46,1.41,.83,2.22,1.07,.91,.27,1.84,.37,2.75,.29,3.12-.22,5.91-2.34,6.85-5.52s-.27-6.47-2.77-8.35l16.23-55.11c.1-.32,.57-.27,.6,.06l4.31,59.48c.23,3.11-.26,6.23-1.42,9.12Z"/><path class="cls-1" d="M404.79,226.01l-43.38-12.78,8.19-46.06c.63-3.54,2.13-6.9,4.34-9.73l36.83-47.12c.53-.68,1.48-.89,2.25-.49,.77,.4,1.15,1.29,.91,2.11l-16.53,56.13-1.09,.03c-2.68,.08-5,1.87-5.76,4.46-.76,2.59,.21,5.35,2.42,6.87,.55,.39,1.15,.68,1.8,.87,.74,.22,1.47,.3,2.19,.23,2.6-.19,4.81-1.97,5.54-4.45,.73-2.47-.17-5.18-2.23-6.73l-.83-.62,16.53-56.11c.25-.84,1.06-1.39,1.92-1.28,.87,.09,1.54,.79,1.61,1.66l4.31,59.48c.24,3.32-.29,6.7-1.52,9.79l-17.48,43.74Zm-39.96-14.9l38.19,11.25,16.47-41.2c1.07-2.67,1.52-5.59,1.31-8.46l-3.83-52.9-14.09,47.85c2.47,2.36,3.47,5.96,2.49,9.28-1.08,3.67-4.37,6.31-8.18,6.59-1.07,.09-2.18-.02-3.28-.34-.96-.28-1.85-.71-2.66-1.28-3.27-2.25-4.71-6.35-3.58-10.18,1.02-3.47,3.94-5.98,7.44-6.51l14.17-48.1-32.96,42.18c-1.91,2.45-3.21,5.35-3.75,8.41l-7.71,43.42Z"/></g><circle class="cls-5" cx="344.18" cy="65.71" r="9.02"/><circle class="cls-5" cx="501.76" cy="112.13" r="9.02"/><rect class="cls-5" x="414.26" y="79.99" width="18.04" height="18.04" transform="translate(42.4 -115.97) rotate(16.41)"/><rect class="cls-8" x="314.1" y="128.17" width="18.04" height="18.04" transform="translate(51.93 -85.71) rotate(16.41)"/><rect class="cls-8" x="471.69" y="174.59" width="18.04" height="18.04" transform="translate(71.46 -128.34) rotate(16.41)"/></g></g></svg>