<svg width="600" height="510" viewBox="0 0 600 510" fill="none" xmlns="http://www.w3.org/2000/svg">
<g clip-path="url(#clip0_482_359)">
<path d="M493.9 206.271L303.9 275.271L275.81 263.901L224.98 243.341L210.62 237.531L178.36 224.471L130.9 205.271L176.73 187.291L219.46 170.531L246.16 160.061L306.65 136.331C310.02 135.011 313.77 135.011 317.14 136.341L319.69 137.351L344.13 147.021L365.88 155.621L408.23 172.381L493.9 206.271Z" fill="#05183C"/>
<path d="M303.9 278.77C303.45 278.77 303.01 278.69 302.59 278.51L129.59 208.51C128.26 207.97 127.39 206.68 127.4 205.25C127.41 203.82 128.29 202.53 129.62 202.01L305.37 133.07C309.59 131.42 314.22 131.43 318.42 133.08L495.18 203.01C496.53 203.55 497.41 204.86 497.39 206.31C497.37 207.76 496.45 209.05 495.08 209.55L305.08 278.55C304.69 278.69 304.29 278.76 303.89 278.76L303.9 278.77ZM140.36 205.32L303.97 271.52L484.03 206.13L315.85 139.59C313.3 138.58 310.48 138.58 307.93 139.59L140.36 205.32Z" fill="white"/>
<path d="M303.9 275.271L303.4 506.801C301.72 506.761 300.04 506.43 298.45 505.79L142.29 443.331C136.91 441.171 133.36 435.991 133.3 430.191L131.73 282.901L265.15 336.641C270.85 338.941 277.36 336.281 279.81 330.631L303.9 275.271Z" fill="#1A3C7D"/>
<path d="M303.4 510.3C303.4 510.3 303.34 510.3 303.32 510.3C301.18 510.25 299.1 509.82 297.15 509.04L141 446.58C134.27 443.88 129.88 437.46 129.81 430.23L128.24 282.94C128.23 281.77 128.8 280.67 129.77 280.01C130.74 279.35 131.97 279.22 133.05 279.65L266.47 333.39C270.39 334.97 274.93 333.1 276.61 329.23L300.7 273.87C301.36 272.35 303 271.5 304.63 271.84C306.25 272.18 307.42 273.61 307.41 275.27L306.91 506.8C306.91 507.74 306.53 508.64 305.85 509.3C305.2 509.94 304.32 510.29 303.41 510.29L303.4 510.3ZM135.29 288.1L136.8 430.15C136.84 434.54 139.51 438.44 143.59 440.08L299.75 502.54C299.8 502.56 299.86 502.58 299.91 502.6L300.37 292.17L283.03 332.03C279.8 339.47 271.38 342.92 263.85 339.89L135.3 288.11L135.29 288.1Z" fill="white"/>
<path d="M494.38 431.551C494.39 437.661 490.52 443.111 484.74 445.111L308.44 506.031C306.81 506.591 305.1 506.851 303.4 506.801L303.9 275.271L332.81 331.791C335.43 336.911 341.47 339.271 346.86 337.271L494.06 282.821L494.38 431.551Z" fill="#06296B"/>
<path d="M303.81 510.311C303.64 510.311 303.46 510.311 303.29 510.311C301.39 510.261 299.89 508.7 299.89 506.8L300.39 275.27C300.39 273.65 301.5 272.251 303.07 271.871C304.64 271.491 306.27 272.241 307 273.681L335.91 330.201C337.72 333.741 341.9 335.38 345.63 333.99L492.83 279.541C493.9 279.141 495.1 279.291 496.04 279.951C496.98 280.601 497.54 281.671 497.54 282.821L497.86 431.55C497.87 439.16 493.05 445.94 485.86 448.43L309.56 509.35C307.69 509.99 305.75 510.321 303.79 510.321L303.81 510.311ZM307.36 289.74L306.9 502.85C307.03 502.81 307.16 502.77 307.29 502.72L483.58 441.8C487.94 440.29 490.87 436.171 490.86 431.561L490.55 287.841L348.05 340.55C341.01 343.17 333.1 340.081 329.67 333.381L307.34 289.731L307.36 289.74Z" fill="white"/>
<path d="M303.9 275.27L279.81 330.631C277.36 336.281 270.85 338.941 265.15 336.641L131.73 282.9L107.41 273.11C101.05 270.54 98.39 262.97 101.76 256.99L130.9 205.271L178.36 224.471L210.62 237.531L224.98 243.34L275.81 263.9L303.9 275.27Z" fill="#1A3C7D"/>
<path d="M269.45 340.991C267.58 340.991 265.68 340.641 263.83 339.891L106.09 276.361C102.12 274.751 99.03 271.521 97.62 267.481C96.21 263.451 96.6 259.001 98.7 255.271L127.84 203.551C128.7 202.021 130.57 201.361 132.2 202.021L305.2 272.021C306.08 272.371 306.77 273.071 307.13 273.941C307.49 274.811 307.48 275.801 307.1 276.661L283.01 332.021C280.58 337.631 275.18 340.981 269.45 340.981V340.991ZM132.44 209.671L104.81 258.711C103.7 260.681 103.49 263.031 104.24 265.171C104.99 267.311 106.62 269.021 108.72 269.871L266.46 333.401C270.37 334.981 274.92 333.111 276.6 329.241L299.26 277.171L132.44 209.671Z" fill="white"/>
<path d="M520.19 273.161L494.06 282.821L346.86 337.27C341.47 339.27 335.43 336.911 332.81 331.791L303.9 275.27L493.9 206.271L525.83 256.391C529.72 262.501 526.98 270.641 520.19 273.161Z" fill="#06296B"/>
<path d="M342.92 341.481C337.49 341.481 332.3 338.481 329.69 333.381L300.78 276.861C300.32 275.971 300.27 274.921 300.64 273.981C301.01 273.051 301.76 272.311 302.7 271.971L492.7 202.971C494.24 202.411 495.97 203.001 496.85 204.381L528.78 254.501C531.2 258.311 531.77 262.951 530.33 267.221C528.89 271.501 525.64 274.861 521.4 276.431L348.07 340.541C346.38 341.171 344.64 341.471 342.92 341.471V341.481ZM308.82 277.211L335.92 330.201C337.73 333.741 341.91 335.381 345.64 333.991L518.97 269.881C521.21 269.051 522.93 267.271 523.69 265.011C524.45 262.751 524.15 260.291 522.87 258.281L492.45 210.531L308.82 277.221V277.211Z" fill="white"/>
<path d="M578.669 307.478C581.791 226.214 461.514 155.619 310.024 149.799C158.533 143.98 33.1954 205.139 30.0735 286.403C26.9517 367.667 147.228 438.263 298.719 444.082C450.209 449.902 575.547 388.742 578.669 307.478Z" stroke="white" stroke-width="6.77" stroke-miterlimit="10"/>
<path d="M41.8698 346.441L37.9898 355.011C37.4798 356.081 35.8798 355.731 35.8598 354.551L35.6898 344.991C35.6098 340.151 34.1798 335.361 31.6598 331.251C29.6698 328.001 26.9898 325.181 23.7698 323.111L22.9598 322.591L21.7698 321.831C20.8398 321.231 21.2498 319.791 22.3498 319.771H22.3698C22.7698 319.771 23.1598 319.751 23.5598 319.721C32.7398 319.091 40.9498 313.251 45.0898 304.971L45.4198 304.341L49.4298 296.731C49.9698 295.661 51.5898 296.061 51.5498 297.261L51.2898 305.661L51.2698 306.411C50.9798 316.031 56.0498 324.571 64.3498 329.271C64.7298 329.491 65.1198 329.701 65.5198 329.901C66.0398 330.161 66.2098 330.691 66.0998 331.161C65.9998 331.591 65.6498 331.971 65.1198 332.021L63.5998 332.161L62.8498 332.231C58.8298 332.611 55.0298 333.811 51.6998 335.761C47.4998 338.211 44.0598 341.841 41.8598 346.441H41.8698Z" fill="white" stroke="#E4DEDE" stroke-width="1.27" stroke-miterlimit="10"/>
<path d="M561.99 271.29C568.617 271.29 573.99 265.917 573.99 259.29C573.99 252.663 568.617 247.29 561.99 247.29C555.362 247.29 549.99 252.663 549.99 259.29C549.99 265.917 555.362 271.29 561.99 271.29Z" fill="white" stroke="#E4DEDE" stroke-width="2" stroke-miterlimit="10"/>
<path d="M348.29 241.531C348.75 252.061 340.51 261.061 329.98 261.521L275.81 263.901L224.98 243.341L210.62 237.531L178.36 224.471L176.73 187.291L173.26 108.441C172.8 97.9005 181.04 88.9005 191.58 88.4405L322.11 82.7005C324.37 82.6005 326.56 82.9005 328.61 83.5405C336.12 85.8705 341.75 92.7305 342.11 101.011L344.13 147.021L348.29 241.531Z" fill="#FF9460"/>
<path d="M344.11 100.921C343.72 92.0309 337.73 84.2809 329.21 81.6309C326.89 80.9109 324.47 80.6009 322.02 80.7009L191.49 86.4409C179.83 86.9509 170.75 96.8609 171.26 108.531L176.32 223.641L176.42 225.841L203.98 236.991L209.17 239.091L216.83 242.191L223.53 244.901L275.46 265.921L280.28 265.711L330.07 263.521C341.73 263.011 350.8 253.111 350.29 241.441L344.11 100.921ZM329.89 259.521L276.16 261.881L233.15 244.481L226.45 241.771L218.79 238.671L212.08 235.961L180.3 223.101L175.26 108.351C174.85 98.8909 182.21 90.8509 191.67 90.4409L322.2 84.7009C324.18 84.6109 326.14 84.8609 328.02 85.4509C334.94 87.6009 339.8 93.8909 340.11 101.101L346.29 241.621C346.7 251.081 339.35 259.111 329.89 259.521Z" fill="white"/>
<path d="M195.86 109.991C197.887 109.991 199.53 108.348 199.53 106.321C199.53 104.294 197.887 102.651 195.86 102.651C193.834 102.651 192.19 104.294 192.19 106.321C192.19 108.348 193.834 109.991 195.86 109.991Z" fill="#FF6D2A"/>
<path d="M207.38 109.442C209.407 109.442 211.05 107.798 211.05 105.772C211.05 103.745 209.407 102.102 207.38 102.102C205.354 102.102 203.71 103.745 203.71 105.772C203.71 107.798 205.354 109.442 207.38 109.442Z" fill="#FF6D2A"/>
<path d="M218.91 108.881C220.937 108.881 222.58 107.238 222.58 105.211C222.58 103.184 220.937 101.541 218.91 101.541C216.883 101.541 215.24 103.184 215.24 105.211C215.24 107.238 216.883 108.881 218.91 108.881Z" fill="#FF6D2A"/>
<path d="M230.82 108.312C232.847 108.312 234.49 106.669 234.49 104.642C234.49 102.615 232.847 100.972 230.82 100.972C228.794 100.972 227.15 102.615 227.15 104.642C227.15 106.669 228.794 108.312 230.82 108.312Z" fill="#FF6D2A"/>
<path d="M242.34 107.751C244.367 107.751 246.01 106.108 246.01 104.081C246.01 102.054 244.367 100.411 242.34 100.411C240.314 100.411 238.67 102.054 238.67 104.081C238.67 106.108 240.314 107.751 242.34 107.751Z" fill="#FF6D2A"/>
<path d="M253.87 107.201C255.897 107.201 257.54 105.558 257.54 103.531C257.54 101.504 255.897 99.8613 253.87 99.8613C251.843 99.8613 250.2 101.504 250.2 103.531C250.2 105.558 251.843 107.201 253.87 107.201Z" fill="#FF6D2A"/>
<path d="M341.505 114.682L174.497 122.032L174.672 126.028L341.681 118.678L341.505 114.682Z" fill="white"/>
<path d="M229.708 186.869L205.321 187.942C202.033 188.087 199.485 190.87 199.629 194.158L200.422 212.181C200.567 215.469 203.35 218.018 206.639 217.873L231.025 216.8C234.314 216.655 236.862 213.872 236.717 210.584L235.924 192.561C235.779 189.273 232.996 186.724 229.708 186.869Z" fill="#EE4A00"/>
<path d="M273.492 184.756L249.106 185.829C245.818 185.973 243.269 188.757 243.414 192.045L244.207 210.068C244.352 213.356 247.135 215.905 250.423 215.76L274.81 214.687C278.098 214.542 280.647 211.759 280.502 208.47L279.709 190.448C279.564 187.159 276.781 184.611 273.492 184.756Z" fill="#EE4A00"/>
<path d="M317.367 182.649L292.981 183.722C289.693 183.867 287.144 186.65 287.289 189.939L288.082 207.961C288.227 211.25 291.01 213.798 294.298 213.653L318.685 212.58C321.973 212.435 324.522 209.652 324.377 206.364L323.584 188.341C323.439 185.053 320.656 182.504 317.367 182.649Z" fill="#EE4A00"/>
<path d="M204.7 226.411C203.9 226.411 203.24 225.781 203.2 224.981C203.16 224.151 203.81 223.451 204.63 223.411L233.8 222.131C234.62 222.081 235.33 222.741 235.37 223.561C235.41 224.391 234.76 225.091 233.94 225.131L204.77 226.411C204.77 226.411 204.73 226.411 204.7 226.411Z" fill="#FF6D2A"/>
<path d="M204.98 232.831C204.18 232.831 203.52 232.201 203.48 231.401C203.44 230.571 204.09 229.871 204.91 229.841L234.08 228.561C234.9 228.541 235.61 229.161 235.64 229.991C235.68 230.821 235.03 231.521 234.21 231.551L205.04 232.831C205.04 232.831 205 232.831 204.97 232.831H204.98Z" fill="#FF6D2A"/>
<path d="M235.93 236.411C235.97 237.241 235.33 237.941 234.5 237.981L218.79 238.671L212.08 235.961L234.37 234.981C235.2 234.951 235.9 235.581 235.93 236.411Z" fill="#FF6D2A"/>
<path d="M236.22 242.841C236.25 243.671 235.61 244.371 234.78 244.411L233.15 244.481L226.45 241.771L234.65 241.411C235.48 241.371 236.18 242.011 236.22 242.841Z" fill="#FF6D2A"/>
<path d="M248.49 224.301C247.69 224.301 247.03 223.671 246.99 222.871C246.95 222.041 247.6 221.341 248.42 221.301L277.59 220.021C278.42 219.981 279.12 220.631 279.16 221.451C279.2 222.281 278.55 222.981 277.73 223.021L248.56 224.301C248.56 224.301 248.52 224.301 248.49 224.301Z" fill="#FF6D2A"/>
<path d="M248.78 230.731C247.98 230.731 247.32 230.101 247.28 229.301C247.24 228.471 247.89 227.771 248.71 227.731L277.88 226.451C278.71 226.401 279.41 227.051 279.45 227.881C279.49 228.711 278.84 229.411 278.02 229.451L248.85 230.731C248.85 230.731 248.81 230.731 248.78 230.731Z" fill="#FF6D2A"/>
<path d="M249.06 237.151C248.26 237.151 247.6 236.521 247.56 235.721C247.52 234.891 248.17 234.191 248.99 234.161L278.16 232.881C278.99 232.851 279.69 233.491 279.72 234.311C279.76 235.141 279.11 235.841 278.29 235.871L249.12 237.151C249.12 237.151 249.08 237.151 249.05 237.151H249.06Z" fill="#FF6D2A"/>
<path d="M249.34 243.581C248.54 243.581 247.88 242.951 247.84 242.151C247.8 241.321 248.45 240.621 249.27 240.581L278.44 239.301C279.27 239.271 279.97 239.911 280.01 240.731C280.05 241.561 279.4 242.261 278.58 242.301L249.41 243.581C249.41 243.581 249.37 243.581 249.34 243.581Z" fill="#FF6D2A"/>
<path d="M249.66 250.731C248.86 250.731 248.2 250.101 248.16 249.301C248.12 248.471 248.77 247.771 249.59 247.731L278.76 246.451C279.57 246.411 280.29 247.061 280.33 247.881C280.37 248.711 279.72 249.411 278.9 249.451L249.73 250.731C249.73 250.731 249.69 250.731 249.66 250.731Z" fill="#FF6D2A"/>
<path d="M292.36 222.181C291.56 222.181 290.9 221.551 290.86 220.751C290.82 219.921 291.47 219.221 292.29 219.191L321.46 217.911C322.25 217.881 322.99 218.521 323.02 219.341C323.06 220.171 322.41 220.871 321.59 220.901L292.42 222.181C292.42 222.181 292.38 222.181 292.35 222.181H292.36Z" fill="#FF6D2A"/>
<path d="M292.65 228.611C291.85 228.611 291.19 227.981 291.15 227.181C291.11 226.351 291.76 225.651 292.58 225.611L321.75 224.331C322.58 224.291 323.28 224.941 323.32 225.761C323.36 226.591 322.71 227.291 321.89 227.331L292.72 228.611C292.72 228.611 292.68 228.611 292.65 228.611Z" fill="#FF6D2A"/>
<path d="M292.93 235.041C292.13 235.041 291.47 234.411 291.43 233.611C291.39 232.781 292.04 232.081 292.86 232.051L322.03 230.771C322.86 230.721 323.56 231.371 323.59 232.201C323.63 233.031 322.98 233.731 322.16 233.761L292.99 235.041C292.99 235.041 292.95 235.041 292.92 235.041H292.93Z" fill="#FF6D2A"/>
<path d="M293.21 241.471C292.41 241.471 291.75 240.841 291.71 240.041C291.67 239.211 292.32 238.511 293.14 238.481L322.31 237.201C323.14 237.171 323.84 237.811 323.87 238.631C323.91 239.461 323.26 240.161 322.44 240.191L293.27 241.471C293.27 241.471 293.23 241.471 293.2 241.471H293.21Z" fill="#FF6D2A"/>
<path d="M293.53 248.611C292.73 248.611 292.07 247.981 292.03 247.181C291.99 246.351 292.64 245.651 293.46 245.621L322.63 244.341C322.63 244.341 322.67 244.341 322.7 244.341C323.5 244.341 324.16 244.971 324.2 245.771C324.24 246.601 323.59 247.301 322.77 247.331L293.6 248.611C293.6 248.611 293.56 248.611 293.53 248.611Z" fill="#FF6D2A"/>
<path d="M313.227 126.09L203.983 130.898C200.694 131.043 198.146 133.826 198.29 137.114L199.128 156.156C199.273 159.444 202.056 161.993 205.345 161.848L314.589 157.04C317.877 156.896 320.426 154.112 320.281 150.824L319.443 131.782C319.298 128.494 316.515 125.945 313.227 126.09Z" fill="#EE4A00"/>
<path d="M203.09 172.75C202.29 172.75 201.63 172.12 201.59 171.32C201.55 170.49 202.2 169.79 203.02 169.75L318.05 164.69C318.05 164.69 318.09 164.69 318.12 164.69C318.92 164.69 319.58 165.32 319.62 166.12C319.66 166.95 319.01 167.65 318.19 167.68L203.16 172.74C203.16 172.74 203.12 172.74 203.09 172.74V172.75Z" fill="#FF6D2A"/>
<path d="M203.35 178.75C202.55 178.75 201.89 178.12 201.85 177.32C201.81 176.49 202.46 175.79 203.28 175.76L260.38 173.25C261.16 173.23 261.91 173.86 261.94 174.68C261.98 175.51 261.33 176.21 260.51 176.24L203.41 178.75C203.41 178.75 203.37 178.75 203.34 178.75H203.35Z" fill="#FF6D2A"/>
<path d="M344.591 31.2667L343.743 34.1445L501.331 80.5551L502.179 77.6773L344.591 31.2667Z" fill="white"/>
<path d="M484.27 155.65L481.3 155.24C487.4 110.6 462.77 69.6402 422.73 57.8502C383.09 46.1802 340.35 66.9002 321.11 107.14L318.4 105.85C338.29 64.2803 382.52 42.8902 423.58 54.9802C443.7 60.9002 460.88 74.4202 471.96 93.0502C482.9 111.44 487.28 133.67 484.27 155.65Z" fill="white"/>
<path d="M359.81 189.16L349.12 225.46C348.59 227.26 349.62 229.14 351.41 229.67L385.7 239.77C387.5 240.3 389.38 239.27 389.91 237.48L400.6 201.18L359.81 189.17V189.16Z" fill="#FF6D2A"/>
<path d="M386.66 241.4C386.2 241.4 385.73 241.33 385.27 241.2L350.98 231.1C348.4 230.34 346.91 227.62 347.67 225.03L358.79 187.29L402.45 200.15L391.33 237.89C390.96 239.14 390.13 240.18 388.98 240.8C388.25 241.2 387.45 241.4 386.65 241.4H386.66ZM360.82 191.02L350.55 225.88C350.26 226.88 350.83 227.93 351.83 228.23L386.12 238.33C386.6 238.47 387.11 238.42 387.56 238.18C388.01 237.94 388.33 237.54 388.47 237.06L398.74 202.2L360.83 191.03L360.82 191.02Z" fill="white"/>
<path d="M420.88 148.711L403.9 191.181L363.11 179.171L371.06 134.431C371.65 131.121 373.04 128.011 375.11 125.361L411.93 78.2411C412.14 77.9811 412.56 78.1911 412.46 78.5111L396.23 133.601C393 133.701 390.04 135.861 389.08 139.141C388.12 142.421 389.43 145.841 392.09 147.671C392.75 148.131 393.5 148.501 394.31 148.741C395.22 149.011 396.15 149.111 397.06 149.031C400.18 148.811 402.97 146.691 403.91 143.511C404.85 140.331 403.64 137.041 401.14 135.161L417.37 80.0511C417.47 79.7311 417.94 79.7811 417.97 80.1111L422.28 139.591C422.51 142.701 422.02 145.821 420.86 148.711H420.88Z" fill="#EE4A00"/>
<path d="M404.79 193.011L361.41 180.231L369.6 134.171C370.23 130.631 371.73 127.271 373.94 124.441L410.77 77.3209C411.3 76.6409 412.25 76.4309 413.02 76.8309C413.79 77.2309 414.17 78.1209 413.93 78.9409L397.4 135.071L396.31 135.101C393.63 135.181 391.31 136.971 390.55 139.561C389.79 142.151 390.76 144.911 392.97 146.431C393.52 146.821 394.12 147.111 394.77 147.301C395.51 147.521 396.24 147.601 396.96 147.531C399.56 147.341 401.77 145.561 402.5 143.081C403.23 140.611 402.33 137.901 400.27 136.351L399.44 135.731L415.97 79.6209C416.22 78.7809 417.03 78.2309 417.89 78.3409C418.76 78.4309 419.43 79.1309 419.5 80.0009L423.81 139.481C424.05 142.801 423.52 146.181 422.29 149.271L404.81 193.011H404.79ZM364.83 178.111L403.02 189.361L419.49 148.161C420.56 145.491 421.01 142.571 420.8 139.701L416.97 86.8009L402.88 134.651C405.35 137.011 406.35 140.611 405.37 143.931C404.29 147.601 401 150.241 397.19 150.521C396.12 150.611 395.01 150.501 393.91 150.181C392.95 149.901 392.06 149.471 391.25 148.901C387.98 146.651 386.54 142.551 387.67 138.721C388.69 135.251 391.61 132.741 395.11 132.211L409.28 84.1109L376.32 126.291C374.41 128.741 373.11 131.641 372.57 134.701L364.86 178.121L364.83 178.111Z" fill="white"/>
<path d="M344.18 41.7304C349.162 41.7304 353.2 37.692 353.2 32.7104C353.2 27.7288 349.162 23.6904 344.18 23.6904C339.199 23.6904 335.16 27.7288 335.16 32.7104C335.16 37.692 339.199 41.7304 344.18 41.7304Z" fill="#FF9460"/>
<path d="M501.76 88.1504C506.742 88.1504 510.78 84.112 510.78 79.1303C510.78 74.1487 506.742 70.1104 501.76 70.1104C496.779 70.1104 492.74 74.1487 492.74 79.1303C492.74 84.112 496.779 88.1504 501.76 88.1504Z" fill="#FF9460"/>
<path d="M434.493 49.8904L417.188 44.7939L412.091 62.0991L429.396 67.1955L434.493 49.8904Z" fill="#FF9460"/>
<path d="M334.332 98.072L317.026 92.9756L311.93 110.281L329.235 115.377L334.332 98.072Z" fill="#EE4A00"/>
<path d="M491.918 144.492L474.613 139.396L469.516 156.701L486.821 161.797L491.918 144.492Z" fill="#EE4A00"/>
</g>
<defs>
<clipPath id="clip0_482_359">
<rect width="600" height="510" fill="white"/>
</clipPath>
</defs>
</svg>
