<svg width="600" height="530" viewBox="0 0 600 530" fill="none" xmlns="http://www.w3.org/2000/svg">
<g clip-path="url(#clip0_482_359)">
<path d="M493.9 226.271L303.9 295.271L275.81 283.901L224.98 263.341L210.62 257.531L178.36 244.471L130.9 225.271L176.73 207.291L219.46 190.531L246.16 180.061L306.65 156.331C310.02 155.011 313.77 155.011 317.14 156.341L319.69 157.351L344.13 167.021L365.88 175.621L408.23 192.381L493.9 226.271Z" fill="#05183C"/>
<path d="M303.9 298.77C303.45 298.77 303.01 298.69 302.59 298.51L129.59 228.51C128.26 227.97 127.39 226.68 127.4 225.25C127.41 223.82 128.29 222.53 129.62 222.01L305.37 153.07C309.59 151.42 314.22 151.43 318.42 153.08L495.18 223.01C496.53 223.55 497.41 224.86 497.39 226.31C497.37 227.76 496.45 229.05 495.08 229.55L305.08 298.55C304.69 298.69 304.29 298.76 303.89 298.76L303.9 298.77ZM140.36 225.32L303.97 291.52L484.03 226.13L315.85 159.59C313.3 158.58 310.48 158.58 307.93 159.59L140.36 225.32Z" fill="white"/>
<path d="M303.9 295.271L303.4 526.801C301.72 526.761 300.04 526.43 298.45 525.79L142.29 463.331C136.91 461.171 133.36 455.991 133.3 450.191L131.73 302.901L265.15 356.641C270.85 358.941 277.36 356.281 279.81 350.631L303.9 295.271Z" fill="#1A3C7D"/>
<path d="M303.4 530.3C303.4 530.3 303.34 530.3 303.32 530.3C301.18 530.25 299.1 529.82 297.15 529.04L141 466.58C134.27 463.88 129.88 457.46 129.81 450.23L128.24 302.94C128.23 301.77 128.8 300.67 129.77 300.01C130.74 299.35 131.97 299.22 133.05 299.65L266.47 353.39C270.39 354.97 274.93 353.1 276.61 349.23L300.7 293.87C301.36 292.35 303 291.5 304.63 291.84C306.25 292.18 307.42 293.61 307.41 295.27L306.91 526.8C306.91 527.74 306.53 528.64 305.85 529.3C305.2 529.94 304.32 530.29 303.41 530.29L303.4 530.3ZM135.29 308.1L136.8 450.15C136.84 454.54 139.51 458.44 143.59 460.08L299.75 522.54C299.8 522.56 299.86 522.58 299.91 522.6L300.37 312.17L283.03 352.03C279.8 359.47 271.38 362.92 263.85 359.89L135.3 308.11L135.29 308.1Z" fill="white"/>
<path d="M494.38 451.551C494.39 457.661 490.52 463.111 484.74 465.111L308.44 526.031C306.81 526.591 305.1 526.851 303.4 526.801L303.9 295.271L332.81 351.791C335.43 356.911 341.47 359.271 346.86 357.271L494.06 302.821L494.38 451.551Z" fill="#06296B"/>
<path d="M303.81 530.311C303.64 530.311 303.46 530.311 303.29 530.311C301.39 530.26 299.89 528.7 299.89 526.8L300.39 295.27C300.39 293.65 301.5 292.251 303.07 291.871C304.64 291.491 306.27 292.241 307 293.681L335.91 350.201C337.72 353.741 341.9 355.38 345.63 353.99L492.83 299.541C493.9 299.141 495.1 299.291 496.04 299.951C496.98 300.601 497.54 301.671 497.54 302.821L497.86 451.55C497.87 459.16 493.05 465.94 485.86 468.43L309.56 529.35C307.69 529.99 305.75 530.321 303.79 530.321L303.81 530.311ZM307.36 309.74L306.9 522.85C307.03 522.81 307.16 522.77 307.29 522.72L483.58 461.8C487.94 460.29 490.87 456.171 490.86 451.561L490.55 307.841L348.05 360.55C341.01 363.171 333.1 360.081 329.67 353.381L307.34 309.731L307.36 309.74Z" fill="white"/>
<path d="M303.9 295.27L279.81 350.631C277.36 356.281 270.85 358.941 265.15 356.641L131.73 302.9L107.41 293.11C101.05 290.54 98.39 282.97 101.76 276.99L130.9 225.271L178.36 244.471L210.62 257.531L224.98 263.34L275.81 283.9L303.9 295.27Z" fill="#1A3C7D"/>
<path d="M269.45 360.991C267.58 360.991 265.68 360.641 263.83 359.891L106.09 296.361C102.12 294.751 99.03 291.521 97.62 287.481C96.21 283.451 96.6 279.001 98.7 275.271L127.84 223.551C128.7 222.021 130.57 221.361 132.2 222.021L305.2 292.021C306.08 292.371 306.77 293.071 307.13 293.941C307.49 294.811 307.48 295.801 307.1 296.661L283.01 352.021C280.58 357.631 275.18 360.981 269.45 360.981V360.991ZM132.44 229.671L104.81 278.711C103.7 280.681 103.49 283.031 104.24 285.171C104.99 287.311 106.62 289.021 108.72 289.871L266.46 353.401C270.37 354.981 274.92 353.111 276.6 349.241L299.26 297.171L132.44 229.671Z" fill="white"/>
<path d="M520.19 293.161L494.06 302.821L346.86 357.27C341.47 359.27 335.43 356.911 332.81 351.791L303.9 295.27L493.9 226.271L525.83 276.391C529.72 282.501 526.98 290.641 520.19 293.161Z" fill="#06296B"/>
<path d="M342.92 361.481C337.49 361.481 332.3 358.481 329.69 353.381L300.78 296.861C300.32 295.971 300.27 294.921 300.64 293.981C301.01 293.051 301.76 292.311 302.7 291.971L492.7 222.971C494.24 222.411 495.97 223.001 496.85 224.381L528.78 274.501C531.2 278.311 531.77 282.951 530.33 287.221C528.89 291.501 525.64 294.861 521.4 296.431L348.07 360.541C346.38 361.171 344.64 361.471 342.92 361.471V361.481ZM308.82 297.211L335.92 350.201C337.73 353.741 341.91 355.381 345.64 353.991L518.97 289.881C521.21 289.051 522.93 287.271 523.69 285.011C524.45 282.751 524.15 280.291 522.87 278.281L492.45 230.531L308.82 297.221V297.211Z" fill="white"/>
<path d="M578.669 327.478C581.791 246.214 461.514 175.619 310.024 169.799C158.533 163.98 33.1954 225.139 30.0735 306.403C26.9517 387.667 147.228 458.263 298.719 464.082C450.209 469.902 575.547 408.742 578.669 327.478Z" stroke="white" stroke-width="6.77" stroke-miterlimit="10"/>
<path d="M41.8698 366.441L37.9898 375.011C37.4798 376.081 35.8798 375.731 35.8598 374.551L35.6898 364.991C35.6098 360.151 34.1798 355.361 31.6598 351.251C29.6698 348.001 26.9898 345.181 23.7698 343.111L22.9598 342.591L21.7698 341.831C20.8398 341.231 21.2498 339.791 22.3498 339.771H22.3698C22.7698 339.771 23.1598 339.751 23.5598 339.721C32.7398 339.091 40.9498 333.251 45.0898 324.971L45.4198 324.341L49.4298 316.731C49.9698 315.661 51.5898 316.061 51.5498 317.261L51.2898 325.661L51.2698 326.411C50.9798 336.031 56.0498 344.571 64.3498 349.271C64.7298 349.491 65.1198 349.701 65.5198 349.901C66.0398 350.161 66.2098 350.691 66.0998 351.161C65.9998 351.591 65.6498 351.971 65.1198 352.021L63.5998 352.161L62.8498 352.231C58.8298 352.611 55.0298 353.811 51.6998 355.761C47.4998 358.211 44.0598 361.841 41.8598 366.441H41.8698Z" fill="white" stroke="#E4DEDE" stroke-width="1.27" stroke-miterlimit="10"/>
<path d="M561.99 291.29C568.617 291.29 573.99 285.917 573.99 279.29C573.99 272.663 568.617 267.29 561.99 267.29C555.362 267.29 549.99 272.663 549.99 279.29C549.99 285.917 555.362 291.29 561.99 291.29Z" fill="white" stroke="#E4DEDE" stroke-width="2" stroke-miterlimit="10"/>
<path d="M348.29 261.531C348.75 272.061 340.51 281.061 329.98 281.521L275.81 283.901L224.98 263.341L210.62 257.531L178.36 244.471L176.73 207.291L173.26 128.441C172.8 117.901 181.04 108.901 191.58 108.441L322.11 102.701C324.37 102.601 326.56 102.901 328.61 103.541C336.12 105.871 341.75 112.731 342.11 121.011L344.13 167.021L348.29 261.531Z" fill="#FF9460"/>
<path d="M344.11 120.921C343.72 112.031 337.73 104.281 329.21 101.631C326.89 100.911 324.47 100.601 322.02 100.701L191.49 106.441C179.83 106.951 170.75 116.861 171.26 128.531L176.32 243.641L176.42 245.841L203.98 256.991L209.17 259.091L216.83 262.191L223.53 264.901L275.46 285.921L280.28 285.711L330.07 283.521C341.73 283.011 350.8 273.111 350.29 261.441L344.11 120.921ZM329.89 279.521L276.16 281.881L233.15 264.481L226.45 261.771L218.79 258.671L212.08 255.961L180.3 243.101L175.26 128.351C174.85 118.891 182.21 110.851 191.67 110.441L322.2 104.701C324.18 104.611 326.14 104.861 328.02 105.451C334.94 107.601 339.8 113.891 340.11 121.101L346.29 261.621C346.7 271.081 339.35 279.111 329.89 279.521Z" fill="white"/>
<path d="M195.86 129.991C197.887 129.991 199.53 128.348 199.53 126.321C199.53 124.294 197.887 122.651 195.86 122.651C193.834 122.651 192.19 124.294 192.19 126.321C192.19 128.348 193.834 129.991 195.86 129.991Z" fill="#FF6D2A"/>
<path d="M207.38 129.442C209.407 129.442 211.05 127.798 211.05 125.772C211.05 123.745 209.407 122.102 207.38 122.102C205.354 122.102 203.71 123.745 203.71 125.772C203.71 127.798 205.354 129.442 207.38 129.442Z" fill="#FF6D2A"/>
<path d="M218.91 128.881C220.937 128.881 222.58 127.238 222.58 125.211C222.58 123.184 220.937 121.541 218.91 121.541C216.883 121.541 215.24 123.184 215.24 125.211C215.24 127.238 216.883 128.881 218.91 128.881Z" fill="#FF6D2A"/>
<path d="M230.82 128.312C232.847 128.312 234.49 126.669 234.49 124.642C234.49 122.615 232.847 120.972 230.82 120.972C228.794 120.972 227.15 122.615 227.15 124.642C227.15 126.669 228.794 128.312 230.82 128.312Z" fill="#FF6D2A"/>
<path d="M242.34 127.751C244.367 127.751 246.01 126.108 246.01 124.081C246.01 122.054 244.367 120.411 242.34 120.411C240.314 120.411 238.67 122.054 238.67 124.081C238.67 126.108 240.314 127.751 242.34 127.751Z" fill="#FF6D2A"/>
<path d="M253.87 127.201C255.897 127.201 257.54 125.558 257.54 123.531C257.54 121.504 255.897 119.861 253.87 119.861C251.843 119.861 250.2 121.504 250.2 123.531C250.2 125.558 251.843 127.201 253.87 127.201Z" fill="#FF6D2A"/>
<path d="M341.505 134.682L174.497 142.032L174.672 146.028L341.681 138.678L341.505 134.682Z" fill="white"/>
<path d="M229.708 206.869L205.321 207.942C202.033 208.087 199.485 210.87 199.629 214.158L200.422 232.181C200.567 235.469 203.35 238.018 206.639 237.873L231.025 236.8C234.314 236.655 236.862 233.872 236.717 230.584L235.924 212.561C235.779 209.273 232.996 206.724 229.708 206.869Z" fill="#EE4A00"/>
<path d="M273.492 204.756L249.106 205.829C245.818 205.973 243.269 208.757 243.414 212.045L244.207 230.068C244.352 233.356 247.135 235.905 250.423 235.76L274.81 234.687C278.098 234.542 280.647 231.759 280.502 228.47L279.709 210.448C279.564 207.159 276.781 204.611 273.492 204.756Z" fill="#EE4A00"/>
<path d="M317.367 202.649L292.981 203.722C289.693 203.867 287.144 206.65 287.289 209.939L288.082 227.961C288.227 231.25 291.01 233.798 294.298 233.653L318.685 232.58C321.973 232.435 324.522 229.652 324.377 226.364L323.584 208.341C323.439 205.053 320.656 202.504 317.367 202.649Z" fill="#EE4A00"/>
<path d="M204.7 246.411C203.9 246.411 203.24 245.781 203.2 244.981C203.16 244.151 203.81 243.451 204.63 243.411L233.8 242.131C234.62 242.081 235.33 242.741 235.37 243.561C235.41 244.391 234.76 245.091 233.94 245.131L204.77 246.411C204.77 246.411 204.73 246.411 204.7 246.411Z" fill="#FF6D2A"/>
<path d="M204.98 252.831C204.18 252.831 203.52 252.201 203.48 251.401C203.44 250.571 204.09 249.871 204.91 249.841L234.08 248.561C234.9 248.541 235.61 249.161 235.64 249.991C235.68 250.821 235.03 251.521 234.21 251.551L205.04 252.831C205.04 252.831 205 252.831 204.97 252.831H204.98Z" fill="#FF6D2A"/>
<path d="M235.93 256.411C235.97 257.241 235.33 257.941 234.5 257.981L218.79 258.671L212.08 255.961L234.37 254.981C235.2 254.951 235.9 255.581 235.93 256.411Z" fill="#FF6D2A"/>
<path d="M236.22 262.841C236.25 263.671 235.61 264.371 234.78 264.411L233.15 264.481L226.45 261.771L234.65 261.411C235.48 261.371 236.18 262.011 236.22 262.841Z" fill="#FF6D2A"/>
<path d="M248.49 244.301C247.69 244.301 247.03 243.671 246.99 242.871C246.95 242.041 247.6 241.341 248.42 241.301L277.59 240.021C278.42 239.981 279.12 240.631 279.16 241.451C279.2 242.281 278.55 242.981 277.73 243.021L248.56 244.301C248.56 244.301 248.52 244.301 248.49 244.301Z" fill="#FF6D2A"/>
<path d="M248.78 250.731C247.98 250.731 247.32 250.101 247.28 249.301C247.24 248.471 247.89 247.771 248.71 247.731L277.88 246.451C278.71 246.401 279.41 247.051 279.45 247.881C279.49 248.711 278.84 249.411 278.02 249.451L248.85 250.731C248.85 250.731 248.81 250.731 248.78 250.731Z" fill="#FF6D2A"/>
<path d="M249.06 257.151C248.26 257.151 247.6 256.521 247.56 255.721C247.52 254.891 248.17 254.191 248.99 254.161L278.16 252.881C278.99 252.851 279.69 253.491 279.72 254.311C279.76 255.141 279.11 255.841 278.29 255.871L249.12 257.151C249.12 257.151 249.08 257.151 249.05 257.151H249.06Z" fill="#FF6D2A"/>
<path d="M249.34 263.581C248.54 263.581 247.88 262.951 247.84 262.151C247.8 261.321 248.45 260.621 249.27 260.581L278.44 259.301C279.27 259.271 279.97 259.911 280.01 260.731C280.05 261.561 279.4 262.261 278.58 262.301L249.41 263.581C249.41 263.581 249.37 263.581 249.34 263.581Z" fill="#FF6D2A"/>
<path d="M249.66 270.731C248.86 270.731 248.2 270.101 248.16 269.301C248.12 268.471 248.77 267.771 249.59 267.731L278.76 266.451C279.57 266.411 280.29 267.061 280.33 267.881C280.37 268.711 279.72 269.411 278.9 269.451L249.73 270.731C249.73 270.731 249.69 270.731 249.66 270.731Z" fill="#FF6D2A"/>
<path d="M292.36 242.181C291.56 242.181 290.9 241.551 290.86 240.751C290.82 239.921 291.47 239.221 292.29 239.191L321.46 237.911C322.25 237.881 322.99 238.521 323.02 239.341C323.06 240.171 322.41 240.871 321.59 240.901L292.42 242.181C292.42 242.181 292.38 242.181 292.35 242.181H292.36Z" fill="#FF6D2A"/>
<path d="M292.65 248.611C291.85 248.611 291.19 247.981 291.15 247.181C291.11 246.351 291.76 245.651 292.58 245.611L321.75 244.331C322.58 244.291 323.28 244.941 323.32 245.761C323.36 246.591 322.71 247.291 321.89 247.331L292.72 248.611C292.72 248.611 292.68 248.611 292.65 248.611Z" fill="#FF6D2A"/>
<path d="M292.93 255.041C292.13 255.041 291.47 254.411 291.43 253.611C291.39 252.781 292.04 252.081 292.86 252.051L322.03 250.771C322.86 250.721 323.56 251.371 323.59 252.201C323.63 253.031 322.98 253.731 322.16 253.761L292.99 255.041C292.99 255.041 292.95 255.041 292.92 255.041H292.93Z" fill="#FF6D2A"/>
<path d="M293.21 261.471C292.41 261.471 291.75 260.841 291.71 260.041C291.67 259.211 292.32 258.511 293.14 258.481L322.31 257.201C323.14 257.171 323.84 257.811 323.87 258.631C323.91 259.461 323.26 260.161 322.44 260.191L293.27 261.471C293.27 261.471 293.23 261.471 293.2 261.471H293.21Z" fill="#FF6D2A"/>
<path d="M293.53 268.611C292.73 268.611 292.07 267.981 292.03 267.181C291.99 266.351 292.64 265.651 293.46 265.621L322.63 264.341C322.63 264.341 322.67 264.341 322.7 264.341C323.5 264.341 324.16 264.971 324.2 265.771C324.24 266.601 323.59 267.301 322.77 267.331L293.6 268.611C293.6 268.611 293.56 268.611 293.53 268.611Z" fill="#FF6D2A"/>
<path d="M313.227 146.09L203.983 150.898C200.694 151.043 198.146 153.826 198.29 157.114L199.128 176.156C199.273 179.444 202.056 181.993 205.345 181.848L314.589 177.04C317.877 176.896 320.426 174.112 320.281 170.824L319.443 151.782C319.298 148.494 316.515 145.945 313.227 146.09Z" fill="#EE4A00"/>
<path d="M203.09 192.75C202.29 192.75 201.63 192.12 201.59 191.32C201.55 190.49 202.2 189.79 203.02 189.75L318.05 184.69C318.05 184.69 318.09 184.69 318.12 184.69C318.92 184.69 319.58 185.32 319.62 186.12C319.66 186.95 319.01 187.65 318.19 187.68L203.16 192.74C203.16 192.74 203.12 192.74 203.09 192.74V192.75Z" fill="#FF6D2A"/>
<path d="M203.35 198.75C202.55 198.75 201.89 198.12 201.85 197.32C201.81 196.49 202.46 195.79 203.28 195.76L260.38 193.25C261.16 193.23 261.91 193.86 261.94 194.68C261.98 195.51 261.33 196.21 260.51 196.24L203.41 198.75C203.41 198.75 203.37 198.75 203.34 198.75H203.35Z" fill="#FF6D2A"/>
<path d="M344.591 51.2667L343.743 54.1445L501.331 100.555L502.179 97.6773L344.591 51.2667Z" fill="white"/>
<path d="M484.27 175.65L481.3 175.24C487.4 130.6 462.77 89.6402 422.73 77.8502C383.09 66.1802 340.35 86.9002 321.11 127.14L318.4 125.85C338.29 84.2803 382.52 62.8902 423.58 74.9802C443.7 80.9002 460.88 94.4202 471.96 113.05C482.9 131.44 487.28 153.67 484.27 175.65Z" fill="white"/>
<path d="M359.81 209.16L349.12 245.46C348.59 247.26 349.62 249.14 351.41 249.67L385.7 259.77C387.5 260.3 389.38 259.27 389.91 257.48L400.6 221.18L359.81 209.17V209.16Z" fill="#FF6D2A"/>
<path d="M386.66 261.4C386.2 261.4 385.73 261.33 385.27 261.2L350.98 251.1C348.4 250.34 346.91 247.62 347.67 245.03L358.79 207.29L402.45 220.15L391.33 257.89C390.96 259.14 390.13 260.18 388.98 260.8C388.25 261.2 387.45 261.4 386.65 261.4H386.66ZM360.82 211.02L350.55 245.88C350.26 246.88 350.83 247.93 351.83 248.23L386.12 258.33C386.6 258.47 387.11 258.42 387.56 258.18C388.01 257.94 388.33 257.54 388.47 257.06L398.74 222.2L360.83 211.03L360.82 211.02Z" fill="white"/>
<path d="M420.88 168.711L403.9 211.181L363.11 199.171L371.06 154.431C371.65 151.121 373.04 148.011 375.11 145.361L411.93 98.2411C412.14 97.9811 412.56 98.1911 412.46 98.5111L396.23 153.601C393 153.701 390.04 155.861 389.08 159.141C388.12 162.421 389.43 165.841 392.09 167.671C392.75 168.131 393.5 168.501 394.31 168.741C395.22 169.011 396.15 169.111 397.06 169.031C400.18 168.811 402.97 166.691 403.91 163.511C404.85 160.331 403.64 157.041 401.14 155.161L417.37 100.051C417.47 99.7311 417.94 99.7811 417.97 100.111L422.28 159.591C422.51 162.701 422.02 165.821 420.86 168.711H420.88Z" fill="#EE4A00"/>
<path d="M404.79 213.011L361.41 200.231L369.6 154.171C370.23 150.631 371.73 147.271 373.94 144.441L410.77 97.3209C411.3 96.6409 412.25 96.4309 413.02 96.8309C413.79 97.2309 414.17 98.1209 413.93 98.9409L397.4 155.071L396.31 155.101C393.63 155.181 391.31 156.971 390.55 159.561C389.79 162.151 390.76 164.911 392.97 166.431C393.52 166.821 394.12 167.111 394.77 167.301C395.51 167.521 396.24 167.601 396.96 167.531C399.56 167.341 401.77 165.561 402.5 163.081C403.23 160.611 402.33 157.901 400.27 156.351L399.44 155.731L415.97 99.6209C416.22 98.7809 417.03 98.2309 417.89 98.3409C418.76 98.4309 419.43 99.1309 419.5 100.001L423.81 159.481C424.05 162.801 423.52 166.181 422.29 169.271L404.81 213.011H404.79ZM364.83 198.111L403.02 209.361L419.49 168.161C420.56 165.491 421.01 162.571 420.8 159.701L416.97 106.801L402.88 154.651C405.35 157.011 406.35 160.611 405.37 163.931C404.29 167.601 401 170.241 397.19 170.521C396.12 170.611 395.01 170.501 393.91 170.181C392.95 169.901 392.06 169.471 391.25 168.901C387.98 166.651 386.54 162.551 387.67 158.721C388.69 155.251 391.61 152.741 395.11 152.211L409.28 104.111L376.32 146.291C374.41 148.741 373.11 151.641 372.57 154.701L364.86 198.121L364.83 198.111Z" fill="white"/>
<path d="M344.18 61.7304C349.162 61.7304 353.2 57.692 353.2 52.7104C353.2 47.7288 349.162 43.6904 344.18 43.6904C339.199 43.6904 335.16 47.7288 335.16 52.7104C335.16 57.692 339.199 61.7304 344.18 61.7304Z" fill="#FF9460"/>
<path d="M501.76 108.15C506.742 108.15 510.78 104.112 510.78 99.1303C510.78 94.1487 506.742 90.1104 501.76 90.1104C496.779 90.1104 492.74 94.1487 492.74 99.1303C492.74 104.112 496.779 108.15 501.76 108.15Z" fill="#FF9460"/>
<path d="M434.493 69.8904L417.188 64.7939L412.091 82.0991L429.396 87.1955L434.493 69.8904Z" fill="#FF9460"/>
<path d="M334.332 118.072L317.026 112.976L311.93 130.281L329.235 135.377L334.332 118.072Z" fill="#EE4A00"/>
<path d="M491.918 164.492L474.613 159.396L469.516 176.701L486.821 181.797L491.918 164.492Z" fill="#EE4A00"/>
</g>
<defs>
<clipPath id="clip0_482_359">
<rect width="600" height="530" fill="white"/>
</clipPath>
</defs>
</svg>
