<svg width="600" height="600" viewBox="0 0 600 600" fill="none" xmlns="http://www.w3.org/2000/svg">
<path d="M542.18 232.239C539.97 232.239 538.05 230.779 537.48 228.639L533.63 213.549C531.81 206.439 528.12 199.919 522.96 194.699C518.86 190.609 513.88 187.439 508.57 185.549L505 184.279C502.92 183.539 501.62 181.599 501.73 179.429C501.83 177.279 503.3 175.479 505.37 174.969L507.13 174.459C514.04 172.309 520.2 168.149 524.92 162.449C526.24 160.909 527.43 159.249 528.51 157.499C530.88 153.579 532.58 149.489 533.56 145.349L537.35 130.659C537.84 128.479 539.79 126.719 542.17 126.969C544.49 127.009 546.41 128.639 546.83 130.929L549.81 145.369C552.65 159.419 562.77 170.239 576.88 174.339L578.89 174.869C581.04 175.439 582.55 177.379 582.55 179.579C582.55 181.779 581.19 183.589 579.17 184.199L575.8 185.359C570.04 187.279 564.8 190.399 560.57 194.409C558.83 196.049 557.21 197.949 555.61 200.229C554.32 202.049 553.21 204.069 552.19 206.399C551.23 208.489 550.48 210.779 549.87 213.469L546.97 228.319C546.54 230.549 544.64 232.159 542.37 232.239C542.32 232.239 542.26 232.239 542.2 232.239H542.18ZM510.48 179.769L510.65 179.829C516.77 181.999 522.54 185.659 527.28 190.409C533.22 196.409 537.45 203.889 539.54 212.049L542.03 221.789L543.91 212.219C544.63 209.019 545.52 206.329 546.63 203.909C547.77 201.279 549.13 198.849 550.63 196.719C552.46 194.099 554.36 191.899 556.39 189.979C561.21 185.419 567.14 181.869 573.57 179.689C558.07 174.579 547.03 162.329 543.85 146.599L541.94 137.329L539.48 146.829C538.37 151.509 536.43 156.199 533.72 160.679C532.47 162.719 531.08 164.629 529.59 166.379C524.5 172.529 517.92 177.139 510.49 179.769H510.48ZM577.32 178.389C577.32 178.389 577.29 178.389 577.27 178.399H577.32V178.389ZM543.28 132.079V132.139C543.28 132.139 543.28 132.099 543.28 132.079ZM540.86 132.079C540.86 132.079 540.86 132.099 540.86 132.109V132.079Z" fill="#EE4A00"/>
<path opacity="0.38" d="M428.38 353.43V353.55H360.05V353.43H428.38Z" fill="#EE4A00"/>
<path d="M428.38 353.43V353.55H360.11L360.04 353.43H428.38Z" fill="#EE4A00"/>
<path opacity="0.46" d="M420.09 353.43V353.55H360.05V353.43H420.09Z" fill="#EE4A00"/>
<path d="M428.38 353.43V353.55H360.05V353.43H428.38Z" fill="#EE4A00"/>
<path d="M553.1 198.469C551.64 200.539 550.42 202.799 549.38 205.179C548.28 207.559 547.49 210.119 546.88 212.799L543.95 227.729C543.58 229.619 540.9 229.679 540.41 227.849L536.57 212.789C534.62 205.169 530.6 198.099 525.11 192.549C520.72 188.159 515.42 184.749 509.57 182.669L508.11 182.119L505.98 181.389C504.27 180.779 504.4 178.339 506.1 177.919H506.16C506.77 177.739 507.38 177.549 507.99 177.369C515.61 174.989 522.25 170.419 527.25 164.389C528.65 162.739 529.93 160.979 531.09 159.089C518.11 139.709 502.74 121.969 485.49 106.419C484.7 107.149 483.91 107.819 483.17 108.549C482.44 109.219 481.71 109.949 481.1 110.679C472.87 119.149 467.08 129.639 464.46 141.709L459.77 165.909C459.1 168.959 454.83 169.019 454.04 166.029L447.82 141.709C444.71 129.399 438.19 118.059 429.29 109.099C422.22 102.029 413.75 96.4195 404.24 93.0695L401.86 92.2795L398.39 90.9995C395.65 90.0895 395.83 86.1195 398.63 85.3895H398.69C399.66 85.1495 400.7 84.8395 401.68 84.5395C410.34 81.8595 418.2 77.4095 424.97 71.5595C426.62 70.1595 428.14 68.6895 429.6 67.1095C390.28 46.1395 345.42 34.1895 297.87 34.1895C143.28 34.1895 17.46 160.009 17.46 314.599C17.46 469.189 143.28 594.999 297.86 594.999C452.44 594.999 578.26 469.179 578.26 314.599C578.26 273.209 569.24 233.889 553.08 198.479L553.1 198.469ZM352.34 219.429H427.79C431.82 219.429 435.08 222.689 435.08 226.719V241.099C435.08 245.129 431.82 248.389 427.79 248.389H352.34C348.31 248.389 345.05 245.129 345.05 241.099V226.719C345.05 222.689 348.31 219.429 352.34 219.429ZM307.5 364.639C307.5 391.569 285.67 413.409 258.73 413.409H157.27C153.24 413.409 149.98 410.149 149.98 406.119V225.639C149.98 221.609 153.24 218.349 157.27 218.349H251.23C278.11 218.349 300 240.289 300 267.119V274.679C300 290.529 292.26 304.729 280.43 313.569C296.46 321.559 307.5 338.139 307.5 357.149V364.649V364.639ZM457.58 349.639C457.58 350.919 457.58 352.139 457.52 353.419H428.38V353.539H360.05C360.11 369.999 373.64 383.409 390.04 383.409C401.07 383.409 410.77 377.439 415.95 368.409H454.78C446.67 394.439 422.41 413.399 393.82 413.399H386.32C351.21 413.399 322.56 384.749 322.56 349.639V327.149C322.56 292.039 351.21 263.389 386.32 263.389H393.82C428.93 263.389 457.58 292.039 457.58 327.149V349.639Z" fill="#EE4A00"/>
<path d="M456.89 171.289C454.13 171.289 451.81 169.509 451.1 166.819L444.87 142.479C441.91 130.759 435.78 119.969 427.13 111.259C420.08 104.209 412.03 99.0592 403.22 95.9592L397.33 93.8692C394.91 93.0592 393.29 90.7092 393.38 88.0592C393.48 85.3792 395.27 83.1192 397.86 82.4492L398.31 82.3492C399.13 82.1392 399.97 81.8892 400.77 81.6392C408.93 79.1092 416.4 74.9492 422.97 69.2592C424.54 67.9192 425.98 66.5492 427.35 65.0492C435.87 56.2892 441.86 45.3192 444.74 33.2492L450.91 9.53921C451.56 6.82921 454.3 4.94921 456.85 5.00921C459.73 5.06921 462.03 7.00921 462.58 9.83921L467.34 33.3892C472.11 56.6792 488.95 74.6592 512.37 81.4292C513.23 81.7192 513.97 81.8992 514.73 82.0892L515.65 82.3292C518.35 83.0092 520.18 85.3492 520.18 88.1492C520.18 90.7392 518.52 93.0092 516.05 93.7992L510.47 95.7192C501.87 98.5792 494.16 102.959 487.49 108.739L486.7 109.459C486.23 109.879 485.77 110.289 485.33 110.729C484.6 111.399 483.97 112.019 483.45 112.659C475.23 121.139 469.9 131.079 467.44 142.389L462.76 166.519C462.13 169.359 459.83 171.249 457.02 171.309H456.89V171.289ZM399.43 88.3492L405.2 90.1792C414.93 93.6092 423.74 99.2392 431.45 106.949C440.88 116.439 447.56 128.199 450.78 140.969L457 165.279L461.48 141.139C464.19 128.639 470.06 117.699 478.93 108.569C479.46 107.909 480.29 107.069 481.13 106.309C481.55 105.889 482.09 105.409 482.64 104.909L483.43 104.189C490.78 97.8092 499.19 93.0392 508.5 89.9392L513.76 88.1292L513.25 87.9992C512.34 87.7692 511.46 87.5392 510.58 87.2492C485.06 79.8692 466.62 60.1592 461.37 34.5592L461 32.5492L456.61 11.0192L450.66 34.7192C447.55 47.7892 441.02 59.7492 431.79 69.2292C430.31 70.8392 428.71 72.3792 426.95 73.8792C419.75 80.1092 411.55 84.6792 402.59 87.4592C401.57 87.7792 400.47 88.0992 399.45 88.3592H399.44L399.43 88.3492Z" fill="#EE4A00"/>
<path d="M415.11 323.431H365.04C362.22 323.431 360.02 320.871 360.52 318.091C363.05 304.091 375.33 293.381 390.03 293.381C398.32 293.381 405.82 296.791 411.18 302.221C415.48 306.471 418.51 312.001 419.62 318.191C420.11 320.931 417.89 323.431 415.1 323.431H415.11Z" fill="#EE4A00"/>
<path d="M268.73 345.93C271.81 354.83 269.04 363.63 263.42 369.33C259.34 373.35 253.67 375.91 247.51 375.91H194.76C190.73 375.91 187.47 372.65 187.47 368.62V338.22C187.47 334.19 190.73 330.93 194.76 330.93H246.65C256.38 330.93 265.54 336.73 268.72 345.93H268.73Z" fill="#EE4A00"/>
<path d="M261.12 270.61C264.38 279.51 261.62 288.61 255.93 294.3C251.85 298.32 246.18 300.88 240.02 300.88H194.77C190.74 300.88 187.48 297.62 187.48 293.59V263.19C187.48 259.16 190.74 255.9 194.77 255.9H238.86C248.56 255.9 257.78 261.51 261.12 270.62V270.61Z" fill="#EE4A00"/>
</svg>
