<svg width="600" height="600" viewBox="0 0 600 600" fill="none" xmlns="http://www.w3.org/2000/svg">
<path d="M460.72 144.101L455.99 168.301C455.34 171.331 451.04 171.411 450.28 168.411L444.09 144.131C440.96 131.821 434.43 120.461 425.53 111.501C418.49 104.411 409.96 98.8205 400.48 95.4805L398.11 94.6405L394.61 93.4105C391.88 92.4505 392.05 88.5205 394.86 87.8005H394.91C395.92 87.5305 396.92 87.2505 397.91 86.9405C420.95 79.8105 438.39 59.9505 443.95 36.3205L444.42 34.5205L450.08 12.6905C450.8 9.63053 455.18 9.69053 455.81 12.7705L460.21 34.3705L460.6 36.2905C465.66 61.0205 483.75 79.7505 507.76 86.7505C508.87 87.0805 509.99 87.3705 511.12 87.6405C512.6 88.0005 513.36 89.2505 513.36 90.5005C513.36 91.6605 512.71 92.8205 511.36 93.2805L507.57 94.5505L505.7 95.1805C495.66 98.5705 486.7 103.931 479.38 110.901C470.14 119.681 463.53 131.011 460.72 144.091V144.101Z" fill="#05183C"/>
<path d="M543.12 215.161L540.19 230.151C539.79 232.031 537.13 232.081 536.65 230.221L532.81 215.181C530.87 207.561 526.83 200.521 521.32 194.981C516.96 190.591 511.68 187.131 505.81 185.061L504.34 184.541L502.18 183.781C500.49 183.181 500.59 180.751 502.33 180.311H502.36C502.99 180.141 503.61 179.971 504.22 179.781C518.49 175.361 529.29 163.071 532.73 148.431L533.02 147.321L536.53 133.801C536.98 131.911 539.69 131.941 540.08 133.851L542.8 147.221L543.04 148.411C546.17 163.721 557.37 175.321 572.24 179.661C572.93 179.861 573.62 180.041 574.32 180.211C575.24 180.431 575.71 181.211 575.71 181.981C575.71 182.701 575.31 183.421 574.47 183.701L572.13 184.491L570.97 184.881C564.76 186.981 559.2 190.301 554.67 194.611C548.95 200.051 544.86 207.071 543.11 215.161H543.12Z" fill="#05183C"/>
<path d="M300 589.56C147.06 589.56 22.6396 465.14 22.6396 312.21C22.6396 159.28 147.06 34.8496 300 34.8496C331.76 34.8496 362.9 40.1696 392.56 50.6696C395.73 51.7996 397.39 55.2796 396.27 58.4496C395.15 61.6196 391.67 63.2896 388.49 62.1596C360.15 52.1296 330.38 47.0396 300.01 47.0396C153.8 47.0396 34.8496 165.99 34.8496 312.2C34.8496 458.41 153.8 577.36 300.01 577.36C446.22 577.36 565.17 458.41 565.17 312.2C565.17 290.2 562.47 268.35 557.16 247.25C556.34 243.99 558.31 240.68 561.58 239.85C564.85 239.03 568.16 241.01 568.98 244.27C574.54 266.34 577.36 289.19 577.36 312.2C577.36 465.13 452.94 589.55 300 589.55V589.56Z" fill="#05183C"/>
<path d="M276.67 315.96C288.52 307.11 296.25 292.93 296.25 277.02V269.52C296.25 242.7 274.31 220.75 247.48 220.75H153.37C149.41 220.75 146.19 223.96 146.19 227.93V408.64C146.19 412.6 149.4 415.82 153.37 415.82H254.98C281.8 415.82 303.75 393.88 303.75 367.05V359.55C303.75 340.49 292.72 323.91 276.67 315.96ZM190.89 258.27H235.27C244.96 258.27 254.12 263.96 257.39 273.09C260.58 281.99 257.85 290.98 252.14 296.69C248.09 300.74 242.39 303.29 236.23 303.29H190.89C186.93 303.29 183.71 300.08 183.71 296.11V265.45C183.71 261.49 186.92 258.27 190.89 258.27ZM259.64 371.71C255.59 375.76 249.89 378.31 243.73 378.31H190.89C186.93 378.31 183.71 375.1 183.71 371.13V340.47C183.71 336.51 186.92 333.29 190.89 333.29H242.77C252.46 333.29 261.62 338.98 264.89 348.11C268.08 357.01 265.35 366 259.64 371.71Z" fill="#05183C"/>
<path d="M390.031 265.77H382.531C347.421 265.77 318.761 294.43 318.761 329.54V352.05C318.761 387.16 347.421 415.82 382.531 415.82H390.031C418.611 415.82 442.921 396.84 451.021 370.81H412.161C406.981 379.81 397.301 385.81 386.281 385.81C369.851 385.81 356.351 372.38 356.271 355.95V355.8H453.731C453.811 354.52 453.811 353.32 453.811 352.05V329.54C453.811 294.43 425.151 265.77 390.041 265.77H390.031ZM361.681 325.79C358.641 325.79 356.241 323.02 356.831 320.04C359.531 306.26 371.741 295.78 386.281 295.78C394.531 295.78 402.031 299.16 407.441 304.63C411.611 308.75 414.571 314.08 415.741 320.04C416.321 323.02 413.921 325.79 410.891 325.79H361.691H361.681Z" fill="#05183C"/>
<path opacity="0.46" d="M416.291 355.801V355.951H356.271V355.801H416.291Z" fill="#05183C"/>
<path d="M424.111 224H348.441C344.475 224 341.261 227.215 341.261 231.18V243.58C341.261 247.545 344.475 250.76 348.441 250.76H424.111C428.076 250.76 431.291 247.545 431.291 243.58V231.18C431.291 227.215 428.076 224 424.111 224Z" fill="#05183C"/>
</svg>
