<svg width="600" height="600" viewBox="0 0 600 600" fill="none" xmlns="http://www.w3.org/2000/svg">
<path d="M452.35 259.049C452.35 258.439 452.29 257.769 452.17 257.159C452.11 256.669 452.05 256.179 451.93 255.699C451.87 254.969 451.75 254.239 451.56 253.569C451.38 252.589 451.13 251.619 450.83 250.639C450.77 250.269 450.65 249.969 450.52 249.599C450.52 249.479 450.52 249.419 450.46 249.359C450.16 248.379 449.85 247.409 449.42 246.499C449.42 246.379 449.36 246.259 449.3 246.129C448.81 244.969 448.32 243.809 447.72 242.719C446.62 240.529 445.34 238.449 443.82 236.499C443.09 235.459 442.3 234.489 441.44 233.569C431.75 244.119 421.81 254.539 412.06 265.019C400.91 276.969 389.81 288.849 378.72 300.739C402.37 328.839 421.39 360.299 444.07 389.129C445.41 387.299 446.63 385.349 447.73 383.279C448.46 381.759 449.13 380.229 449.74 378.649C450.11 377.669 450.47 376.639 450.78 375.599C450.84 375.479 450.84 375.299 450.9 375.169C451.27 373.949 451.51 372.669 451.75 371.449C451.93 370.469 452.12 369.559 452.18 368.579C452.24 368.279 452.3 367.909 452.3 367.539C452.36 367.169 452.42 366.869 452.42 366.499C452.48 365.399 452.54 364.309 452.54 363.209V262.629C452.54 261.409 452.48 260.249 452.36 259.029L452.35 259.049ZM395.84 353.289C395.66 353.049 395.47 352.859 395.35 352.619L365.97 314.339C364.14 316.349 362.25 318.359 360.36 320.369C349.63 331.949 339.27 345.849 327.02 355.849C313.18 367.129 295.75 368.409 279.96 360.359C262.34 351.339 249.42 333.479 237.29 318.419C236.74 317.749 236.25 317.139 235.71 316.469C222.79 332.679 208.71 347.919 194.93 363.349C194.87 363.409 194.87 363.469 194.87 363.469L169.02 396.569C176.76 403.339 186.94 407.419 198.04 407.419H408.28C416.39 407.419 424.01 405.229 430.59 401.319C418.34 385.779 407.18 369.439 395.84 353.289ZM197.24 272.159C186.39 259.359 176.09 246.129 164.14 234.429C157.62 242.049 153.84 251.919 153.84 262.649V363.229C153.84 369.019 154.94 374.569 157.07 379.629C165.36 369.019 174.2 358.719 183.4 348.789C197.36 333.729 211.2 318.619 223.75 302.399C214.97 292.279 205.95 282.469 197.23 272.169L197.24 272.159ZM408.28 218.459H198.04C191.03 218.459 184.45 220.109 178.59 223.029C190.48 234.979 200.84 248.389 211.87 261.189C226.32 278.139 241.19 294.469 255.33 311.779C258.19 315.249 261.3 319.279 264.66 323.359L275.39 335.119C281.91 341.219 289.17 345.969 297.21 347.309C308.97 349.139 316.72 340.849 323.91 332.919C335.31 320.239 347.07 307.809 358.72 295.369C381.4 271.049 404.44 247.089 426.75 222.529C421.14 219.909 414.86 218.449 408.28 218.449V218.459Z" fill="white"/>
<path d="M452.53 262.65V363.23C452.53 364.33 452.47 365.42 452.41 366.52C452.41 366.89 452.35 367.19 452.29 367.56C452.29 367.93 452.23 368.29 452.17 368.6C452.11 369.58 451.93 370.49 451.74 371.47C451.5 372.69 451.25 373.97 450.89 375.19C450.83 375.31 450.83 375.49 450.77 375.62C450.46 376.66 450.1 377.69 449.73 378.67C449.12 380.25 448.45 381.78 447.72 383.3C446.62 385.37 445.4 387.32 444.06 389.15C421.38 360.32 402.37 328.86 378.71 300.76C389.8 288.87 400.9 276.99 412.05 265.04C421.8 254.56 431.74 244.13 441.43 233.59C442.28 234.5 443.08 235.48 443.81 236.52C445.33 238.47 446.61 240.54 447.71 242.74C448.32 243.84 448.81 245 449.29 246.15C449.35 246.27 449.41 246.39 449.41 246.52C449.84 247.43 450.14 248.41 450.45 249.38C450.51 249.44 450.51 249.5 450.51 249.62C450.63 249.99 450.75 250.29 450.82 250.66C451.13 251.64 451.37 252.61 451.55 253.59C451.73 254.26 451.85 254.99 451.92 255.72C452.04 256.21 452.1 256.7 452.16 257.18C452.28 257.79 452.34 258.46 452.34 259.07C452.46 260.29 452.52 261.45 452.52 262.67L452.53 262.65Z" fill="white"/>
<path d="M430.59 401.33C424.01 405.23 416.39 407.43 408.28 407.43H198.04C186.95 407.43 175.06 402.98 167.32 396.21L194.87 363.48C194.87 363.48 194.87 363.42 194.93 363.36C208.71 347.94 222.79 332.7 235.71 316.48C236.26 317.15 236.75 317.76 237.29 318.43C249.42 333.49 262.34 351.35 279.96 360.37C295.75 368.42 313.18 367.14 327.02 355.86C339.27 345.86 349.63 331.96 360.36 320.38C362.25 318.37 364.14 316.36 365.97 314.35L395.35 352.63C395.47 352.87 395.66 353.06 395.84 353.3C407.18 369.45 418.33 385.79 430.59 401.33Z" fill="white"/>
<path d="M223.76 302.4C211.2 318.61 197.36 333.73 183.41 348.79C174.21 358.73 165.37 369.03 157.08 379.63C154.95 374.57 153.85 369.02 153.85 363.23V262.65C153.85 251.92 157.63 242.05 164.15 234.43C176.1 246.13 186.4 259.36 197.25 272.16C205.97 282.46 214.99 292.28 223.77 302.39L223.76 302.4Z" fill="white"/>
<path d="M426.75 222.539C404.44 247.109 381.4 271.059 358.72 295.379C347.08 307.819 335.31 320.249 323.91 332.929C316.72 340.849 308.98 349.139 297.21 347.319C289.16 345.979 281.91 341.219 275.39 335.129L264.66 323.369C261.31 319.289 258.2 315.259 255.33 311.789C241.19 294.479 226.31 278.139 211.87 261.199C200.84 248.399 190.47 234.989 178.59 223.039C184.44 220.109 191.03 218.469 198.04 218.469H408.28C414.86 218.469 421.14 219.929 426.75 222.549V222.539Z" fill="white"/>
<path d="M460.72 144.101L455.99 168.301C455.34 171.331 451.04 171.411 450.28 168.411L444.09 144.131C440.96 131.821 434.43 120.461 425.53 111.501C418.49 104.411 409.96 98.8205 400.48 95.4805L398.11 94.6405L394.61 93.4105C391.88 92.4505 392.05 88.5205 394.86 87.8005H394.91C395.92 87.5305 396.92 87.2505 397.91 86.9405C420.95 79.8105 438.39 59.9505 443.95 36.3205L444.42 34.5205L450.08 12.6905C450.8 9.63053 455.18 9.69053 455.81 12.7705L460.21 34.3705L460.6 36.2905C465.66 61.0205 483.75 79.7505 507.76 86.7505C508.87 87.0805 509.99 87.3705 511.12 87.6405C512.6 88.0005 513.36 89.2505 513.36 90.5005C513.36 91.6605 512.71 92.8205 511.36 93.2805L507.57 94.5505L505.7 95.1805C495.66 98.5705 486.7 103.931 479.38 110.901C470.14 119.681 463.53 131.011 460.72 144.091V144.101Z" fill="white"/>
<path d="M543.12 215.161L540.19 230.151C539.79 232.031 537.13 232.081 536.65 230.221L532.81 215.181C530.87 207.561 526.83 200.521 521.32 194.981C516.96 190.591 511.68 187.131 505.81 185.061L504.34 184.541L502.18 183.781C500.49 183.181 500.59 180.751 502.33 180.311H502.36C502.99 180.141 503.61 179.971 504.22 179.781C518.49 175.361 529.29 163.071 532.73 148.431L533.02 147.321L536.53 133.801C536.98 131.911 539.69 131.941 540.08 133.851L542.8 147.221L543.04 148.411C546.17 163.721 557.37 175.321 572.24 179.661C572.93 179.861 573.62 180.041 574.32 180.211C575.24 180.431 575.71 181.211 575.71 181.981C575.71 182.701 575.31 183.421 574.47 183.701L572.13 184.491L570.97 184.881C564.76 186.981 559.2 190.301 554.67 194.611C548.95 200.051 544.86 207.071 543.11 215.161H543.12Z" fill="white"/>
<path d="M300 589.56C147.06 589.56 22.6396 465.14 22.6396 312.21C22.6396 159.28 147.06 34.8496 300 34.8496C331.76 34.8496 362.9 40.1696 392.56 50.6696C395.73 51.7996 397.39 55.2796 396.27 58.4496C395.15 61.6196 391.67 63.2896 388.49 62.1596C360.15 52.1296 330.38 47.0396 300.01 47.0396C153.8 47.0396 34.8496 165.99 34.8496 312.2C34.8496 458.41 153.8 577.36 300.01 577.36C446.22 577.36 565.17 458.41 565.17 312.2C565.17 290.2 562.47 268.35 557.16 247.25C556.34 243.99 558.31 240.68 561.58 239.85C564.85 239.03 568.16 241.01 568.98 244.27C574.54 266.34 577.36 289.19 577.36 312.2C577.36 465.13 452.94 589.55 300 589.55V589.56Z" fill="white"/>
</svg>
