<svg width="600" height="600" viewBox="0 0 600 600" fill="none" xmlns="http://www.w3.org/2000/svg">
<path d="M288.91 166.601C223.63 173.001 170.65 225.471 163.67 290.691C160.38 321.401 167.05 350.391 180.83 374.801C183.35 379.271 183.44 384.721 181.27 389.381L155.51 444.601C152.88 450.241 158.81 456.061 164.4 453.311L217.84 427.091C222.62 424.741 228.28 424.831 232.89 427.501C255.22 440.451 281.46 447.411 309.42 446.171C381.7 442.961 443.4 378.141 443.24 305.801C443.06 223.871 372.55 158.411 288.9 166.611L288.91 166.601ZM363.46 376.511C351.82 385.351 330.91 381.021 315.24 373.161C290.86 360.971 272.57 348.781 242.27 312.261C232.76 300.741 226.12 286.411 225.08 270.811C223.8 251.241 242.09 235.521 248.18 232.961C264.7 226.011 269.33 240.881 275.37 254.231C278.54 261.241 283.29 271.421 280.92 279.221C278.97 285.801 270.68 286.961 270.68 294.341C270.68 305.801 280.98 315.981 288.11 323.901C292.93 329.261 315.24 342.671 327.43 342.671C333.77 342.671 335.6 329.991 342.85 327.671C351.2 325.051 357.66 328.771 365.1 332.731C384 342.971 380.28 363.701 363.45 376.501L363.46 376.511Z" fill="white"/>
<path d="M460.72 144.101L455.99 168.301C455.34 171.331 451.04 171.411 450.28 168.411L444.09 144.131C440.96 131.821 434.43 120.461 425.53 111.501C418.49 104.411 409.96 98.8205 400.48 95.4805L398.11 94.6405L394.61 93.4105C391.88 92.4505 392.05 88.5205 394.86 87.8005H394.91C395.92 87.5305 396.92 87.2505 397.91 86.9405C420.95 79.8105 438.39 59.9505 443.95 36.3205L444.42 34.5205L450.08 12.6905C450.8 9.63053 455.18 9.69053 455.81 12.7705L460.21 34.3705L460.6 36.2905C465.66 61.0205 483.75 79.7505 507.76 86.7505C508.87 87.0805 509.99 87.3705 511.12 87.6405C512.6 88.0005 513.36 89.2505 513.36 90.5005C513.36 91.6605 512.71 92.8205 511.36 93.2805L507.57 94.5505L505.7 95.1805C495.66 98.5705 486.7 103.931 479.38 110.901C470.14 119.681 463.53 131.011 460.72 144.091V144.101Z" fill="white"/>
<path d="M543.12 215.161L540.19 230.151C539.79 232.031 537.13 232.081 536.65 230.221L532.81 215.181C530.87 207.561 526.83 200.521 521.32 194.981C516.96 190.591 511.68 187.131 505.81 185.061L504.34 184.541L502.18 183.781C500.49 183.181 500.59 180.751 502.33 180.311H502.36C502.99 180.141 503.61 179.971 504.22 179.781C518.49 175.361 529.29 163.071 532.73 148.431L533.02 147.321L536.53 133.801C536.98 131.911 539.69 131.941 540.08 133.851L542.8 147.221L543.04 148.411C546.17 163.721 557.37 175.321 572.24 179.661C572.93 179.861 573.62 180.041 574.32 180.211C575.24 180.431 575.71 181.211 575.71 181.981C575.71 182.701 575.31 183.421 574.47 183.701L572.13 184.491L570.97 184.881C564.76 186.981 559.2 190.301 554.67 194.611C548.95 200.051 544.86 207.071 543.11 215.161H543.12Z" fill="white"/>
<path d="M300 589.56C147.06 589.56 22.6396 465.14 22.6396 312.21C22.6396 159.28 147.06 34.8496 300 34.8496C331.76 34.8496 362.9 40.1696 392.56 50.6696C395.73 51.7996 397.39 55.2796 396.27 58.4496C395.15 61.6196 391.67 63.2896 388.49 62.1596C360.15 52.1296 330.38 47.0396 300.01 47.0396C153.8 47.0396 34.8496 165.99 34.8496 312.2C34.8496 458.41 153.8 577.36 300.01 577.36C446.22 577.36 565.17 458.41 565.17 312.2C565.17 290.2 562.47 268.35 557.16 247.25C556.34 243.99 558.31 240.68 561.58 239.85C564.85 239.03 568.16 241.01 568.98 244.27C574.54 266.34 577.36 289.19 577.36 312.2C577.36 465.13 452.94 589.55 300 589.55V589.56Z" fill="white"/>
</svg>
