<svg width="376" height="250" viewBox="0 0 376 250" fill="none" xmlns="http://www.w3.org/2000/svg">
<path d="M361.769 41.1009H305.317C283.15 15.6833 254.482 0.60915 224.925 0.0180329C201.28 -0.454861 181.774 8.49072 174.977 13.0226L107.589 74.4988C100.496 84.1537 90.565 109.079 107.589 131.542C124.613 154.004 151.923 149.965 163.45 145.137L200.099 115.286L254.482 172.329C255.664 185.333 247.29 190.949 242.955 192.131H232.906C232.808 189.176 229.773 183.737 218.424 185.629C207.074 187.52 203.843 201.983 203.646 208.978C197.971 221.273 182.366 220.8 175.272 219.027C172.711 213.214 165.046 201.648 154.878 201.885C142.169 202.18 141.283 212.229 136.849 216.958C133.303 220.741 124.929 218.534 121.185 216.958C106.21 202.771 75.3732 173.038 71.8265 167.6C68.2798 162.162 54.9794 157.649 48.7726 156.073H11.2366C7.39434 157.846 -0.231073 163.58 0.00537367 172.329C0.241821 181.077 7.59138 186.023 11.2366 187.402H48.7726L102.269 240.898C109.835 248.701 122.367 250.061 127.687 249.765C141.164 250.947 151.43 244.347 154.878 240.898C170.484 249.41 182.07 250.356 185.912 249.765C205.773 252.366 223.349 232.721 229.654 222.574H246.797C266.895 215.717 276.648 203.362 279.013 198.042H361.769C366.202 196.368 375.069 190.535 375.069 180.604C375.069 170.674 366.202 166.024 361.769 164.94H281.968C282.678 159.738 278.126 152.329 275.762 149.275L221.674 93.7101L226.403 86.9123C227.29 85.0404 227.999 79.6416 223.743 73.021C219.487 66.4005 209.951 67.701 205.714 69.1788C191.035 84.5478 159.666 115.877 151.627 118.242C141.578 121.197 144.533 122.084 133.893 115.286C125.381 109.848 127.785 99.8186 130.051 95.4839C202.167 23.072 196.847 34.0071 224.925 31.0519C250.204 28.3915 283.544 56.47 298.519 72.7257H361.769C374.064 72.7257 375.759 60.5093 375.069 54.4011C375.069 44.7068 366.202 41.495 361.769 41.1009Z" fill="black"/>
<path d="M121.776 32.5294L154.287 0.0178952H127.983C98.8997 2.85526 68.5754 28.7856 57.0486 41.3961H12.4192C8.6755 42.1843 1.06978 46.4206 0.59689 57.0607C0.123996 67.7008 8.28142 71.149 12.4192 71.5431H57.0486C81.58 64.7453 75.0777 63.8586 90.7423 50.2629C103.274 39.3863 116.653 33.9086 121.776 32.5294Z" fill="black"/>
</svg>
