<svg viewBox="0 0 105 67" fill="none" xmlns="http://www.w3.org/2000/svg">
    <path class="seta" d="M35.4615 56.2722L2.25349 30.6108C-0.278512 28.6537 -0.747724 25.0127 1.20732 22.478C3.16237 19.9434 6.79963 19.4737 9.33164 21.4308L35.8525 41.9219L95.1904 1.02311C97.8249 -0.793068 101.433 -0.126788 103.247 2.5105C105.061 5.14778 104.396 8.75926 101.761 10.5754L35.4615 56.2722Z" fill="#EE4A00"/>
    <path d="M51.6825 48.8179L46.7761 50.199C44.2885 50.8966 41.9842 52.3898 40.1626 54.4351C39.7979 54.8453 39.4509 55.2764 39.1267 55.7304C38.3709 57.0781 37.8072 58.5749 37.4742 60.1943L36.4472 65.6819C36.3062 66.3706 35.4218 66.3777 35.2686 65.6924L34.0442 60.1558C33.4857 57.6232 32.3529 55.2554 30.8009 53.3064C29.1501 51.7291 27.1841 50.5741 25.0559 49.9677L24.6948 49.8555L20.3098 48.4867C19.695 48.3114 19.7179 47.2931 20.3398 47.1547L24.7 46.1855L25.0876 46.0996C26.689 45.742 28.1706 45.069 29.4901 44.1401C31.8103 41.9791 33.5016 38.9891 34.2468 35.6521L34.3472 35.2455L35.561 30.2978C35.716 29.6037 36.618 29.63 36.7414 30.3311L37.6011 35.2507L37.6768 35.6889C38.1049 38.1338 39.0439 40.3281 40.3705 42.1632C42.0899 44.2015 44.2833 45.6702 46.8078 46.3309L51.6736 47.4894C52.2832 47.6489 52.2902 48.6462 51.6825 48.8197V48.8179Z" fill="white"/>
</svg>
