<svg width="258" height="258" viewBox="0 0 258 258" fill="none" xmlns="http://www.w3.org/2000/svg">
<path d="M121.391 140.426L121.396 140.43L168.265 171.675C168.266 171.676 168.268 171.677 168.27 171.679C174.57 175.913 183.085 174.183 187.305 167.854C191.534 161.51 189.812 153.043 183.479 148.82L183.478 148.82L142.719 121.679V62.5938C142.719 54.995 136.599 48.875 129 48.875C121.401 48.875 115.281 54.995 115.281 62.5938V129C115.281 133.576 117.569 137.859 121.391 140.426ZM228.562 129C228.562 155.406 218.073 180.73 199.401 199.401C180.73 218.073 155.406 228.562 129 228.562C102.594 228.562 77.2703 218.073 58.5987 199.401C39.9271 180.73 29.4375 155.406 29.4375 129C29.4375 102.594 39.9271 77.2703 58.5987 58.5987C77.2703 39.9271 102.594 29.4375 129 29.4375C155.406 29.4375 180.73 39.9271 199.401 58.5987C218.073 77.2703 228.562 102.594 228.562 129ZM2 129C2 162.682 15.3803 194.985 39.1974 218.803C63.0146 242.62 95.3175 256 129 256C162.682 256 194.985 242.62 218.803 218.803C242.62 194.985 256 162.682 256 129C256 95.3175 242.62 63.0146 218.803 39.1974C194.985 15.3803 162.682 2 129 2C95.3175 2 63.0146 15.3803 39.1974 39.1974C15.3803 63.0146 2 95.3175 2 129Z" fill="black" stroke="white" stroke-width="4"/>
</svg>
