<svg width="670" height="600" viewBox="0 0 670 600" fill="none" xmlns="http://www.w3.org/2000/svg">
<g filter="url(#filter0_b_928_560)">
<ellipse cx="335" cy="585" rx="335" ry="15" fill="url(#paint0_radial_928_560)" fill-opacity="0.7"/>
</g>
<path d="M100.986 429.299L99.5992 436.703C99.4048 437.629 98.0848 437.668 97.8436 436.75L95.8737 429.352C94.882 425.603 92.8384 422.148 90.0845 419.438C87.9001 417.294 85.2668 415.609 82.3454 414.61L81.615 414.364L80.5363 413.998C79.692 413.712 79.7389 412.513 80.5966 412.287H80.61C80.9182 412.2 81.2264 412.113 81.5279 412.014C88.5903 409.776 93.897 403.664 95.5454 396.433L95.6861 395.88L97.3679 389.202C97.5823 388.263 98.9291 388.276 99.1301 389.215L100.537 395.8L100.665 396.386C102.286 403.924 107.894 409.597 115.292 411.674C115.633 411.774 115.975 411.86 116.324 411.94C116.779 412.047 117.02 412.426 117.02 412.806C117.02 413.159 116.826 413.518 116.411 413.658L115.251 414.058L114.682 414.257C111.606 415.316 108.866 416.981 106.635 419.125C103.82 421.835 101.817 425.31 100.986 429.312V429.299Z" fill="white"/>
<path d="M312.817 425.681L286.245 476.533L395.976 474.669L366.235 424.774L312.817 425.681Z" fill="#1A3C7D"/>
<path d="M429.87 472.649L252.293 475.665C250.297 475.699 248.707 477.339 248.741 479.328L248.938 490.84C248.972 492.829 250.617 494.414 252.613 494.381L430.19 491.365C432.185 491.331 433.775 489.691 433.741 487.701L433.545 476.19C433.511 474.2 431.866 472.615 429.87 472.649Z" fill="#06296B"/>
<path d="M493.352 214.699L496.583 403.838L183.277 409.159L180.046 220.02C179.78 204.43 190.223 191.592 203.384 191.369L469.05 186.857C482.198 186.634 493.085 199.097 493.352 214.699Z" fill="#1A3C7D"/>
<path d="M180.443 412.082L177.163 220.069C176.87 202.904 188.619 188.744 203.346 188.494L469.012 183.982C483.74 183.732 495.966 197.485 496.259 214.65L497.751 301.966L497.902 310.809L499.539 406.663L180.443 412.082ZM186.123 406.222L493.65 401L490.469 214.748C490.23 200.768 480.644 189.548 469.099 189.744L203.433 194.255C191.888 194.451 182.691 205.991 182.93 219.971L186.112 406.234L186.123 406.222Z" fill="white"/>
<path d="M496.509 399.523L496.644 407.432C496.803 416.724 486.256 424.182 473.108 424.405L207.442 428.917C194.27 429.14 183.498 422.045 183.339 412.752L183.204 404.844L496.509 399.523Z" fill="#06296B"/>
<path d="M473.157 427.279L207.491 431.791C192.512 432.045 180.63 423.704 180.444 412.789L180.259 402.006L499.355 396.586L499.539 407.37C499.726 418.272 488.135 427.025 473.157 427.279ZM186.136 407.669L186.222 412.691C186.351 420.242 195.847 426.225 207.392 426.029L473.058 421.517C484.603 421.321 493.89 415.019 493.761 407.468L493.675 402.446L186.136 407.669Z" fill="white"/>
<path d="M175.35 379.685L212.16 371.128L219.877 404.116C221.187 409.721 219.301 414.945 215.674 415.786L192.022 421.292C188.39 422.139 184.383 418.283 183.074 412.678L175.357 379.69L175.35 379.685Z" fill="#FF6D2A"/>
<path d="M219.96 415.423C218.928 416.662 217.627 417.507 216.154 417.843L192.502 423.348C187.653 424.47 182.599 419.998 180.999 413.157L173.283 380.17C173.156 379.619 173.254 379.047 173.548 378.57C173.842 378.093 174.319 377.755 174.871 377.629L211.681 369.073C212.823 368.805 213.967 369.512 214.23 370.657L221.946 403.644C222.667 406.747 222.562 409.876 221.623 412.463C221.209 413.607 220.637 414.61 219.949 415.436L219.96 415.423ZM177.904 381.263L185.142 412.194C186.255 416.961 189.407 419.721 191.543 419.224L215.194 413.718C216.588 413.396 217.319 411.884 217.633 411.012C218.281 409.214 218.347 406.876 217.808 404.588L210.577 373.663L177.904 381.263Z" fill="white"/>
<path d="M127.796 177.245L164.599 168.683L165.087 170.74L214.048 377.156L177.238 385.712L128.282 179.295L127.796 177.245Z" fill="#EE4A00"/>
<path d="M131.044 137.634L144.662 134.472L163.488 166.772L164.598 168.677L127.795 177.239L127.977 175.027L131.044 137.634Z" fill="white"/>
<path d="M138.251 118.656L146.512 133.441C146.847 134.016 146.874 134.714 146.606 135.339C146.523 135.521 146.418 135.675 146.294 135.824C146 136.176 145.597 136.426 145.144 136.542L131.52 139.711C130.869 139.859 130.177 139.697 129.66 139.257C129.143 138.818 128.869 138.168 128.926 137.494L130.168 120.395C130.345 118.116 131.576 116.446 133.406 116.04C135.262 115.632 137.11 116.636 138.245 118.663L138.251 118.656Z" fill="#417CEA"/>
<path d="M222.752 306.399L260.841 297.912L267.145 326.414C268.217 331.253 266.039 335.86 262.278 336.694L237.805 342.149C234.044 342.983 230.128 339.74 229.056 334.902L222.752 306.399Z" fill="#EE4A00"/>
<path d="M233.493 343.756C233.02 343.56 232.548 343.317 232.096 343.024C229.578 341.428 227.715 338.626 226.987 335.35L220.682 306.848C220.432 305.705 221.149 304.582 222.298 304.324L260.388 295.837C260.937 295.712 261.509 295.806 261.991 296.12C262.467 296.422 262.801 296.904 262.927 297.451L269.231 325.953C270.548 331.923 267.646 337.67 262.748 338.757L238.275 344.212C236.704 344.562 235.05 344.401 233.501 343.759L233.493 343.756ZM225.287 308.003L231.131 334.446C231.61 336.598 232.818 338.472 234.367 339.457C235.047 339.891 236.116 340.353 237.328 340.083L261.801 334.628C264.373 334.054 265.862 330.506 265.056 326.864L259.214 300.441L225.279 307.999L225.287 308.003Z" fill="white"/>
<path d="M187.809 151.081L227.455 142.276L261.09 298.321L223.004 306.8L187.809 151.081Z" fill="#FF6D2A"/>
<path d="M222.195 308.764C221.576 308.507 221.091 307.972 220.935 307.269L185.739 151.549C185.614 151.002 185.712 150.423 186.015 149.948C186.318 149.473 186.793 149.136 187.351 149.014L226.989 140.206C227.538 140.081 228.123 140.19 228.6 140.492C229.076 140.794 229.411 141.276 229.533 141.832L263.168 297.877C263.41 299.017 262.693 300.14 261.555 300.393L223.466 308.88C223.022 308.982 222.583 308.934 222.192 308.772L222.195 308.764ZM190.351 152.688L224.611 304.274L258.57 296.706L225.827 144.805L190.351 152.688Z" fill="white"/>
<path d="M100.596 45.7545C99.9765 45.4977 99.4952 44.9551 99.3356 44.2599C99.0853 43.1171 99.8055 41.9857 100.943 41.7327L260.117 6.45182C261.267 6.19412 262.398 6.92029 262.652 8.05491C262.906 9.18953 262.182 10.3291 261.044 10.5821L101.87 45.863C101.426 45.9649 100.987 45.9166 100.596 45.7545Z" fill="white"/>
<path d="M113.814 117.948C113.081 117.644 112.544 116.936 112.505 116.09C110.387 72.2216 139.169 33.6734 180.933 24.4209C201.39 19.8854 222.849 23.0384 241.362 33.2828C259.653 43.4165 273.983 59.8206 281.711 79.4946C282.135 80.5857 281.596 81.8111 280.51 82.238C279.415 82.6616 278.183 82.1318 277.758 81.0407C262.314 41.7354 221.982 19.6576 181.856 28.5592C142.115 37.363 114.729 74.0973 116.754 115.897C116.812 117.065 115.912 118.055 114.732 118.109C114.409 118.128 114.1 118.067 113.814 117.948Z" fill="white"/>
<path d="M223.445 100.221L227.446 142.278L187.808 151.086L173.311 111.687C172.277 108.685 172.028 105.474 172.595 102.325L182.667 46.3205C182.721 46.009 183.19 45.9842 183.26 46.299L194.877 99.2607C192.111 100.85 190.535 104.011 191.231 107.159C191.927 110.307 194.67 112.511 197.847 112.779C198.636 112.858 199.46 112.808 200.29 112.628C201.218 112.421 202.068 112.078 202.821 111.58C205.433 109.945 206.886 106.896 206.212 103.834C205.543 100.782 202.95 98.6308 199.891 98.2403L188.273 45.259C188.203 44.9442 188.641 44.7637 188.823 45.0391L220.41 92.0431C222.062 94.5009 223.097 97.2937 223.445 100.221Z" fill="#EE4A00"/>
<path d="M186.992 153.045C186.462 152.826 186.02 152.395 185.81 151.821L171.312 112.422C170.146 109.051 169.878 105.451 170.5 101.962L180.572 45.9578C180.774 44.8309 181.764 43.9923 182.922 43.9669C184.072 43.9381 185.086 44.7395 185.33 45.8511L196.947 98.8128C197.145 99.7145 196.731 100.639 195.928 101.098C193.881 102.27 192.816 104.527 193.293 106.707C193.774 108.88 195.671 110.476 198.008 110.672C198.614 110.733 199.216 110.687 199.805 110.559C200.479 110.409 201.102 110.153 201.64 109.803C203.593 108.582 204.573 106.367 204.119 104.291C203.665 102.216 201.851 100.626 199.612 100.355C198.722 100.244 197.994 99.5803 197.803 98.7097L186.184 45.7284C185.935 44.6053 186.531 43.4509 187.6 42.9976C188.671 42.5362 189.921 42.9108 190.574 43.8677L222.16 90.8717C223.989 93.5933 225.152 96.7442 225.534 99.9812C225.527 99.9975 225.54 100.012 225.541 100.032L229.543 142.088C229.645 143.151 228.933 144.124 227.889 144.358L188.251 153.167C187.81 153.26 187.368 153.22 186.977 153.058L186.992 153.045ZM183.142 55.6876L174.68 102.713C174.182 105.49 174.4 108.364 175.314 111.011L189.151 148.621L225.145 140.619L221.324 100.448C221.017 97.8809 220.09 95.3805 218.636 93.2245L192.388 54.1711L201.666 96.4594C204.975 97.4206 207.55 100.051 208.282 103.386C209.12 107.202 207.379 111.219 203.948 113.372C203.005 113.982 201.921 114.429 200.748 114.696C199.727 114.921 198.675 114.99 197.647 114.888C193.454 114.533 190.035 111.611 189.161 107.607C188.394 104.125 189.724 100.567 192.504 98.3253L183.149 55.6714L183.142 55.6876Z" fill="white"/>
<path d="M103.537 52.0502C108.324 50.8181 111.25 46.1293 110.071 41.5774C108.893 37.0255 104.057 34.3343 99.2695 35.5664C94.4823 36.7984 91.5568 41.4873 92.7353 46.0392C93.9137 50.5911 98.7498 53.2823 103.537 52.0502Z" fill="#417CEA"/>
<path d="M262.717 16.7826C267.505 15.5505 270.43 10.8616 269.252 6.30976C268.073 1.75787 263.237 -0.933364 258.45 0.298718C253.663 1.5308 250.737 6.21963 251.916 10.7715C253.094 15.3234 257.93 18.0146 262.717 16.7826Z" fill="#417CEA"/>
<path d="M191.872 32.4712L174.396 36.345L170.745 19.7136L188.22 15.8398L191.872 32.4712Z" fill="#417CEA"/>
<path d="M127.053 118.895L109.569 122.766L105.926 106.138L123.401 102.264L127.053 118.895Z" fill="#417CEA"/>
<path d="M286.224 83.623L268.741 87.4935L265.089 70.8621L282.573 66.9916L286.224 83.623Z" fill="#417CEA"/>
<path d="M510.541 175.285L490.947 322.248C490.478 325.763 487.262 328.243 483.781 327.782L347.122 309.668C343.626 309.205 341.186 305.975 341.655 302.46L366.393 116.922C366.861 113.407 370.077 110.927 373.558 111.389L472.014 124.439L510.541 175.285Z" fill="#EE4A00"/>
<path d="M483.307 331.34L346.648 313.226C341.198 312.504 337.356 307.464 338.088 301.972L362.824 116.448C363.554 110.971 368.586 107.092 374.035 107.815L472.491 120.865C473.445 120.991 474.305 121.493 474.891 122.256L513.419 173.102C513.99 173.864 514.238 174.806 514.113 175.743L494.52 322.691C493.79 328.169 488.759 332.047 483.309 331.325L483.307 331.34ZM373.084 114.947C371.571 114.746 370.17 115.842 369.963 117.395L345.227 302.918C345.02 304.47 346.086 305.893 347.599 306.094L484.258 324.208C485.771 324.408 487.173 323.312 487.38 321.76L506.777 176.276L470.04 127.813L373.082 114.961L373.084 114.947Z" fill="white"/>
<path d="M472.014 124.439L510.541 175.285L472.337 170.221C468.842 169.757 466.402 166.528 466.871 163.013L472.014 124.439Z" fill="#EE4A00"/>
<path d="M510.067 178.844L471.863 173.78C466.414 173.058 462.572 168.018 463.304 162.526L468.445 123.965C468.638 122.516 469.694 121.329 471.102 120.964C472.511 120.6 474.013 121.112 474.904 122.273L513.432 173.12C514.308 174.279 514.399 175.841 513.663 177.1C512.927 178.359 511.52 179.051 510.066 178.859L510.067 178.844ZM474.428 133.582L470.442 163.472C470.235 165.024 471.301 166.447 472.814 166.648L502.47 170.579L474.428 133.582Z" fill="white"/>
<path d="M438.39 195.232L463.821 341.303C464.429 344.797 462.106 348.123 458.646 348.722L322.815 372.231C319.341 372.832 316.043 370.479 315.435 366.985L283.332 182.587C282.723 179.094 285.047 175.768 288.507 175.169L386.365 158.232L438.393 195.246L438.39 195.232Z" fill="#FF6D2A"/>
<path d="M459.262 352.258L323.431 375.767C318.015 376.704 312.836 373.042 311.885 367.584L279.784 183.2C278.837 177.756 282.473 172.554 287.889 171.616L385.747 154.679C386.696 154.515 387.667 154.737 388.455 155.29L440.483 192.304C441.256 192.86 441.776 193.685 441.938 194.617L467.366 340.674C468.314 346.118 464.678 351.32 459.262 352.258ZM289.121 178.69C287.617 178.951 286.608 180.415 286.877 181.958L318.981 366.356C319.249 367.899 320.694 368.938 322.197 368.678L458.028 345.169C459.532 344.909 460.54 343.445 460.271 341.902L435.096 197.3L385.492 162.026L289.123 178.705L289.121 178.69Z" fill="white"/>
<path d="M386.365 158.23L438.393 195.244L400.42 201.816C396.946 202.418 393.648 200.064 393.04 196.571L386.365 158.23Z" fill="#EE4A00"/>
<path d="M439.009 198.782L401.036 205.354C395.62 206.291 390.441 202.629 389.49 197.171L382.818 158.844C382.567 157.403 383.217 155.956 384.452 155.188C385.687 154.419 387.273 154.46 388.472 155.302L440.5 192.316C441.685 193.161 442.24 194.624 441.916 196.044C441.592 197.465 440.457 198.546 439.011 198.796L439.009 198.782ZM391.413 166.234L396.586 195.943C396.854 197.486 398.299 198.525 399.802 198.265L429.278 193.164L391.413 166.234Z" fill="white"/>
<path d="M420.344 237.402L321.23 254.556C319.274 254.894 317.406 253.583 317.067 251.633C316.727 249.682 318.042 247.82 319.999 247.481L419.112 230.327C421.069 229.989 422.936 231.3 423.276 233.25C423.615 235.201 422.3 237.063 420.344 237.402Z" fill="white"/>
<path d="M424.175 259.409L325.061 276.564C323.105 276.902 321.237 275.591 320.897 273.64C320.558 271.69 321.873 269.828 323.829 269.489L422.943 252.335C424.899 251.996 426.767 253.308 427.106 255.258C427.446 257.209 426.131 259.071 424.175 259.409Z" fill="white"/>
<path d="M428.008 281.421L328.894 298.576C326.937 298.914 325.07 297.603 324.73 295.652C324.391 293.702 325.706 291.84 327.662 291.501L426.776 274.347C428.732 274.008 430.6 275.32 430.939 277.27C431.279 279.221 429.964 281.083 428.008 281.421Z" fill="white"/>
<path d="M431.838 303.429L332.724 320.583C330.768 320.922 328.901 319.611 328.561 317.66C328.221 315.71 329.536 313.848 331.493 313.509L430.606 296.355C432.563 296.016 434.43 297.327 434.77 299.278C435.109 301.228 433.794 303.091 431.838 303.429Z" fill="white"/>
<path d="M440.285 335.111C442.436 335.075 444.538 333.99 445.717 332.049L501.585 243.02L551.894 272.93C554.863 274.682 558.712 273.848 560.618 271.023L623.543 178.284C625.509 175.384 624.7 171.482 621.728 169.567C618.756 167.653 614.755 168.445 612.789 171.344L553.293 259.031L502.739 228.978C501.269 228.102 499.507 227.836 497.833 228.249C496.158 228.647 494.721 229.691 493.852 231.124L434.653 325.602C432.826 328.589 433.816 332.443 436.876 334.223C437.947 334.841 439.119 335.131 440.285 335.111Z" fill="#417CEA"/>
<path d="M624.525 189.94L623.089 198.978C622.881 200.105 621.261 200.206 620.924 199.103L618.212 190.21C616.832 185.697 614.186 181.59 610.663 178.399C607.877 175.875 604.557 173.937 600.902 172.847L599.988 172.567L598.648 172.161C597.597 171.839 597.603 170.391 598.658 170.077L598.673 170.077C599.05 169.967 599.426 169.843 599.803 169.718C608.448 166.734 614.772 159.106 616.515 150.284L616.67 149.617L618.485 141.444C618.708 140.303 620.374 140.26 620.666 141.393L622.843 150.029C625.135 159.107 632.293 165.782 641.512 168.005C641.939 168.116 642.364 168.197 642.805 168.278C643.367 168.387 643.678 168.84 643.701 169.298C643.708 169.726 643.489 170.173 642.992 170.359L641.577 170.885L640.884 171.148C637.121 172.557 633.794 174.682 631.128 177.372C627.747 180.769 625.411 185.064 624.54 189.94L624.525 189.94Z" fill="white"/>
<path d="M622.031 200.784C622.031 200.784 622.091 200.783 622.122 200.782C623.09 200.722 623.836 200.059 624.002 199.14L625.439 190.102C626.255 185.537 628.441 181.363 631.777 178.011C634.384 175.396 637.546 173.377 641.204 172L643.326 171.21C644.154 170.901 644.672 170.138 644.642 169.282C644.611 168.351 643.946 167.594 643.004 167.418C642.594 167.336 642.168 167.255 641.757 167.144C632.675 164.949 625.944 158.473 623.751 149.822L621.573 141.185C621.345 140.258 620.532 139.651 619.562 139.668L619.547 139.668C618.563 139.685 617.786 140.333 617.605 141.282L615.635 150.107C613.891 158.855 607.726 166.052 599.503 168.896C599.142 169.02 598.78 169.13 598.418 169.239C597.529 169.506 596.951 170.254 596.951 171.141C596.951 172.027 597.524 172.786 598.392 173.037L600.646 173.708C604.057 174.729 607.3 176.58 610.039 179.06C613.486 182.178 616.008 186.125 617.324 190.462L620.052 199.37C620.324 200.237 621.107 200.8 622.031 200.784ZM619.593 141.455C619.744 141.453 619.777 141.556 619.777 141.6L621.955 150.236C624.311 159.55 631.535 166.519 641.302 168.88C641.743 168.991 642.184 169.087 642.625 169.168C642.67 169.167 642.777 169.195 642.779 169.343C642.782 169.476 642.691 169.507 642.661 169.522L640.539 170.312C636.64 171.767 633.238 173.938 630.453 176.748C626.863 180.355 624.501 184.873 623.615 189.793L622.179 198.846C622.18 198.875 622.151 198.979 622 198.982C621.849 198.999 621.817 198.896 621.801 198.852L619.073 189.959C617.661 185.314 614.968 181.089 611.275 177.753C608.335 175.085 604.832 173.105 601.162 172L598.908 171.329C598.908 171.329 598.771 171.287 598.769 171.154C598.766 171.006 598.872 170.99 598.902 170.975C599.309 170.849 599.716 170.724 600.093 170.6C608.919 167.554 615.544 159.846 617.399 150.476L619.369 141.651C619.369 141.651 619.473 141.516 619.563 141.485L619.593 141.455Z" fill="#E4DEDE"/>
<path d="M440.594 343.702C433.735 343.818 428.081 338.49 427.967 331.8C427.853 325.11 433.321 319.593 440.18 319.476C447.039 319.36 452.692 324.688 452.806 331.378C452.921 338.068 447.453 343.585 440.594 343.702Z" fill="white"/>
<path d="M499.596 246.466C492.737 246.582 487.084 241.254 486.97 234.564C486.856 227.874 492.323 222.357 499.182 222.24C506.042 222.124 511.695 227.452 511.809 234.142C511.923 240.832 506.455 246.349 499.596 246.466Z" fill="white"/>
<path d="M555.159 275.311C548.3 275.427 542.647 270.099 542.533 263.409C542.418 256.719 547.886 251.202 554.745 251.085C561.604 250.969 567.257 256.297 567.372 262.987C567.486 269.677 562.018 275.194 555.159 275.311Z" fill="white"/>
<path d="M332.194 534.893H332.601C337.23 534.964 341.834 535 346.451 535C421.054 535 492.88 525.778 550.025 508.777C552.921 507.918 555.757 507.036 558.556 506.141C576.831 500.302 593.06 493.802 607.092 486.738C610.259 490.501 615.012 492.893 620.324 492.893C629.86 492.893 637.591 485.186 637.591 475.678C637.591 473.286 637.101 471.008 636.217 468.938C648.511 459.651 657.641 449.669 663.29 439.188C667.274 431.827 669.5 424.204 669.931 416.521C669.967 415.936 669.991 415.34 669.991 414.767C670.792 373.178 619.963 335.025 530.545 310.079L527.65 309.28C527.04 309.113 526.441 308.946 525.843 308.791C518.388 306.787 510.671 304.878 502.929 303.124L502.907 303.119C502.125 302.942 501.342 302.764 500.548 302.587L498.191 302.062C498.044 302.03 497.897 301.998 497.751 301.966L497.902 310.809L498.693 310.986C499.459 311.153 500.225 311.332 501.015 311.511C508.673 313.253 516.283 315.126 523.629 317.106C524.216 317.261 524.79 317.428 525.376 317.583L528.236 318.371C612.305 341.826 662.081 377.807 661.376 414.636C661.376 415.101 661.352 415.578 661.328 416.044C660.969 422.462 659.078 428.869 655.704 435.108C650.673 444.443 642.279 453.51 630.9 462.069C627.978 459.808 624.309 458.462 620.324 458.462C610.789 458.462 603.058 466.17 603.058 475.678C603.058 476.781 603.162 477.859 603.361 478.904C589.65 485.849 573.751 492.253 555.936 497.945C553.196 498.828 550.408 499.687 547.572 500.534C487.709 518.345 411.405 527.484 332.733 526.279H332.338C330.591 526.255 328.856 526.231 327.097 526.184C324.285 526.124 321.485 526.052 318.709 525.969C246.306 523.75 178.773 513.18 123.409 495.415C120.574 494.509 117.786 493.578 115.046 492.648C107.34 489.999 100.017 487.255 93.2565 484.475C86.8489 481.856 80.6654 479.09 74.8077 476.236C78.0571 473.784 81.7457 471.823 85.7529 470.439L86.7699 470.081L88.84 469.365C89.5818 469.114 89.9288 468.47 89.9288 467.838C89.9288 467.158 89.498 466.478 88.6844 466.287C88.0622 466.144 87.4519 465.989 86.8417 465.81C73.6318 462.087 63.6168 451.923 60.7212 438.418L60.4938 437.368L57.981 425.569C57.6221 423.887 55.217 423.863 54.8341 425.545L51.8309 437.511L51.5796 438.501C49.8333 446.188 47.4998 451.471 41.8643 456.715C19.6884 440.341 8.28369 422.625 8.63687 404.674C9.33087 368.991 58.0422 335.157 138.976 314.159C139.706 313.969 140.436 313.79 141.238 313.587C141.968 313.396 142.698 313.217 143.451 313.026C147.901 311.914 152.443 310.839 157.051 309.809L155.063 301.431C150.414 302.469 145.832 303.553 141.346 304.675C140.556 304.866 139.79 305.057 139.084 305.248C138.306 305.438 137.529 305.629 136.775 305.832C50.6356 328.177 0.787546 364.147 0.00979231 404.507C-0.392768 424.864 11.6217 444.519 35.0937 462.365C32.4601 464.075 29.5955 465.449 26.5478 466.418C26.0094 466.597 25.459 466.752 24.9086 466.907H24.8847C23.3531 467.313 23.2693 469.46 24.777 469.973L26.7034 470.629L28.0076 471.071C33.2246 472.86 37.927 475.879 41.8277 479.72C46.7455 484.576 50.395 490.768 52.1659 497.484L55.6837 510.739C56.1145 512.385 58.4716 512.314 58.8186 510.655L61.2955 497.389V497.413C62.4481 491.843 64.8644 486.841 68.2414 482.61C75.0839 486.035 82.3804 489.337 89.966 492.445C96.882 495.284 104.372 498.088 112.246 500.796C115.034 501.75 117.881 502.693 120.765 503.612C176.895 521.614 245.253 532.328 318.446 534.57C321.246 534.654 324.082 534.726 326.894 534.785C328.653 534.833 330.423 534.857 332.194 534.893Z" fill="white"/>
<path fill-rule="evenodd" clip-rule="evenodd" d="M125.673 177.05L128.928 137.462C129.006 136.542 129.662 135.782 130.559 135.574L144.183 132.406C145.091 132.197 146.031 132.598 146.507 133.404L166.443 167.609C166.589 167.856 166.68 168.127 166.715 168.403L166.667 168.197C166.405 167.065 165.261 166.358 164.12 166.625L163.488 166.772L164.598 168.677L127.795 177.239L127.977 175.027L127.31 175.182C126.757 175.308 126.275 175.652 125.981 176.13C125.808 176.409 125.704 176.726 125.673 177.05ZM125.673 177.05C125.652 177.278 125.667 177.51 125.722 177.735L155.063 301.431L157.051 309.809L175.169 386.195C175.438 387.333 176.575 388.034 177.716 387.767L214.526 379.21C214.981 379.106 215.384 378.856 215.677 378.504C215.706 378.47 215.734 378.436 215.761 378.4C215.793 378.359 215.824 378.316 215.85 378.269C216.151 377.798 216.247 377.214 216.115 376.67L166.715 168.403C166.764 168.776 166.711 169.159 166.557 169.511C166.48 169.7 166.371 169.872 166.241 170.028L166.235 170.035C165.943 170.386 165.54 170.635 165.087 170.74L164.599 168.683L127.796 177.245L128.282 179.295L128.274 179.297C127.618 179.452 126.919 179.285 126.407 178.838C125.89 178.398 125.622 177.741 125.672 177.062L125.673 177.05ZM161.321 167.268L130.145 174.518L133.034 139.353L143.614 136.89L161.321 167.268ZM211.487 375.571L178.814 383.171L130.349 178.821L163.022 171.221L211.487 375.571Z" fill="white"/>
<path d="M127.796 177.245L164.599 168.683L165.087 170.74C165.54 170.635 165.943 170.386 166.235 170.035L166.241 170.028C166.371 169.872 166.48 169.7 166.557 169.511C166.711 169.159 166.764 168.776 166.715 168.403L166.667 168.197C166.405 167.065 165.261 166.358 164.12 166.625L163.488 166.772L164.598 168.677L127.795 177.239L127.977 175.027L127.31 175.182C126.757 175.308 126.275 175.652 125.981 176.13C125.808 176.409 125.704 176.726 125.673 177.05L125.672 177.062C125.622 177.741 125.89 178.398 126.407 178.838C126.919 179.285 127.618 179.452 128.274 179.297L128.282 179.295L127.796 177.245Z" fill="white"/>
<defs>
<filter id="filter0_b_928_560" x="-20" y="550" width="710" height="70" filterUnits="userSpaceOnUse" color-interpolation-filters="sRGB">
<feFlood flood-opacity="0" result="BackgroundImageFix"/>
<feGaussianBlur in="BackgroundImageFix" stdDeviation="10"/>
<feComposite in2="SourceAlpha" operator="in" result="effect1_backgroundBlur_928_560"/>
<feBlend mode="normal" in="SourceGraphic" in2="effect1_backgroundBlur_928_560" result="shape"/>
</filter>
<radialGradient id="paint0_radial_928_560" cx="0" cy="0" r="1" gradientUnits="userSpaceOnUse" gradientTransform="translate(335 585) rotate(91.3941) scale(17.6302 334.939)">
<stop/>
<stop offset="1" stop-opacity="0"/>
</radialGradient>
</defs>
</svg>
