<svg width="670" height="575" viewBox="0 0 670 575" fill="none" xmlns="http://www.w3.org/2000/svg">
<path d="M333.278 510C328.835 510 324.403 509.966 319.949 509.898H319.557C317.854 509.864 316.15 509.841 314.458 509.795C311.753 509.738 309.025 509.67 306.332 509.591C235.924 507.453 170.166 497.24 116.171 480.079C113.397 479.204 110.658 478.305 107.976 477.396C100.402 474.814 93.1965 472.142 86.5436 469.435C78.2792 466.08 70.3717 462.486 63.0511 458.756C21.2804 437.422 -0.520052 412.141 0.00941981 385.61C0.757587 347.137 48.7093 312.85 131.572 291.549C132.297 291.356 133.045 291.174 133.793 290.992C134.472 290.81 135.209 290.628 135.969 290.446C145.511 288.081 155.502 285.897 165.654 283.953C173.619 282.417 182.044 280.984 190.677 279.677C198.308 278.528 205.986 277.493 213.479 276.606C213.859 276.561 214.296 276.504 214.733 276.458C218.336 276.026 222.134 275.605 225.91 275.23C228.235 274.991 230.583 274.764 232.943 274.536C240.183 273.865 247.515 273.285 254.72 272.819C255.503 272.774 256.274 272.717 257.045 272.671L260.118 272.489C261.361 272.41 262.651 272.341 263.928 272.273C269.914 271.943 276.164 271.671 282.471 271.466C283.231 271.432 284.025 271.409 284.831 271.386L287.352 271.318C290.241 271.238 293.141 271.181 296.065 271.125L300.865 271.056C308.761 270.977 316.726 270.988 324.541 271.102C345.214 271.409 365.955 272.455 386.202 274.195C397.885 275.196 409.51 276.458 420.767 277.925C440.968 280.541 460.65 283.918 479.239 287.956L481.507 288.456C482.278 288.627 483.038 288.797 483.797 288.968C491.244 290.64 498.669 292.459 505.839 294.37C506.415 294.517 506.99 294.677 507.577 294.836L510.363 295.598C596.379 319.377 645.275 355.746 644.504 395.39C644.504 395.936 644.481 396.504 644.446 397.062C644.032 404.385 641.891 411.652 638.058 418.669C624.338 443.893 589.496 465.966 537.308 482.49C534.615 483.343 531.887 484.185 529.102 485.004C474.129 501.209 405.033 510 333.266 510H333.278ZM287.248 279.54L285.084 279.597C284.313 279.62 283.553 279.643 282.794 279.665C276.509 279.87 270.328 280.132 264.389 280.461C263.122 280.53 261.879 280.598 260.648 280.677L257.609 280.859C256.838 280.916 256.044 280.962 255.261 281.007C248.159 281.473 240.908 282.042 233.737 282.713C231.4 282.929 229.087 283.157 226.785 283.395C223.055 283.771 219.314 284.18 215.643 284.624C215.194 284.669 214.871 284.715 214.549 284.749C207.091 285.624 199.505 286.648 191.966 287.785C183.437 289.082 175.127 290.503 167.265 292.004C157.251 293.915 147.41 296.075 137.994 298.407C137.269 298.589 136.567 298.759 135.865 298.941C135.094 299.135 134.392 299.305 133.69 299.487C55.8342 319.502 8.97591 351.754 8.30832 385.769C7.84791 408.957 28.0945 431.668 66.861 451.455C73.9629 455.072 81.6517 458.574 89.7089 461.838C96.2122 464.488 103.256 467.104 110.669 469.628C113.305 470.515 115.987 471.402 118.715 472.267C171.973 489.2 236.937 499.276 306.585 501.391C309.256 501.471 311.949 501.539 314.654 501.596C316.346 501.641 318.015 501.664 319.695 501.687H320.075C395.755 502.835 469.156 494.124 526.742 477.145C529.47 476.338 532.152 475.519 534.788 474.678C584.178 459.041 618.26 437.763 630.76 414.78C634.006 408.832 635.825 402.725 636.17 396.607C636.193 396.163 636.216 395.708 636.216 395.265C636.895 360.158 589.013 325.86 508.141 303.502L505.39 302.751C504.826 302.603 504.274 302.444 503.71 302.296C496.643 300.408 489.322 298.623 481.956 296.963C481.196 296.792 480.459 296.621 479.723 296.462L477.467 295.962C459.119 291.981 439.678 288.638 419.708 286.056C408.566 284.601 397.067 283.361 385.511 282.372C365.472 280.655 344.926 279.62 324.449 279.313C316.714 279.199 308.818 279.176 300.98 279.267L296.249 279.335C293.291 279.392 290.367 279.449 287.444 279.529H287.26L287.248 279.54Z" fill="white"/>
<path d="M366.434 196.452L400.72 361.545L76.0773 428.791L41.7912 263.698C38.9652 250.091 47.7169 236.76 61.3542 233.935L336.632 176.914C350.257 174.092 363.608 182.844 366.434 196.452Z" fill="#1A3C7D"/>
<path d="M401.342 364.538L76.6996 431.785C75.0533 432.126 73.4241 431.068 73.0801 429.412L38.794 264.319C35.6291 249.08 45.4739 234.102 60.733 230.941L336.011 173.92C351.27 170.759 366.267 180.591 369.432 195.83L403.718 360.923C404.059 362.568 403.001 364.195 401.342 364.538ZM78.4441 425.191L397.115 359.181L363.449 197.07C360.967 185.119 349.218 177.416 337.252 179.895L61.974 236.916C50.0075 239.395 42.2953 251.129 44.7772 263.08L78.4441 425.191Z" fill="white"/>
<path d="M400.72 361.545L403.125 373.128C405.951 386.735 397.111 399.701 383.486 402.523L108.208 459.544C94.5584 462.371 81.3113 453.994 78.4828 440.374L76.0773 428.791L400.72 361.545Z" fill="#082459"/>
<path d="M384.106 405.504L108.828 462.525C93.3108 465.739 78.6607 456.283 75.4856 440.995L73.0801 429.412C72.7386 427.768 73.7975 426.141 75.4561 425.797L400.098 358.551C401.745 358.21 403.374 359.267 403.718 360.923L406.124 372.506C409.245 387.537 399.365 402.343 384.106 405.504ZM79.6974 431.164L81.4812 439.753C83.9606 451.692 95.4361 459.067 107.599 456.547L382.877 399.526C395.04 397.007 402.632 385.682 400.153 373.743L398.369 365.154L79.6851 431.167L79.6974 431.164Z" fill="white"/>
<path d="M101.076 142.175L265.049 108.924C278.059 106.286 290.766 114.693 293.408 127.686L343.043 371.823L131.912 414.637L82.2802 170.511C79.6387 157.519 88.0566 144.828 101.066 142.19L101.076 142.175Z" fill="#FF9460"/>
<path d="M346.637 374.218L129.529 418.243L80.3365 176.251C78.6253 167.826 80.3209 159.207 85.1026 151.997C89.8842 144.787 97.1181 139.82 105.601 138.153L259.31 106.992C276.795 103.446 293.895 114.763 297.457 132.223L346.65 374.215L346.637 374.218ZM134.301 411.047L339.433 369.452L291.456 133.441C288.58 119.281 274.704 110.099 260.514 112.975L106.805 144.136L106.694 144.159C99.9003 145.566 94.0375 149.545 90.1835 155.36C86.3002 161.219 84.93 168.197 86.31 175.026L134.286 411.037L134.301 411.047Z" fill="white"/>
<path d="M120.485 174.219C124.618 173.363 127.273 169.323 126.416 165.196C125.559 161.069 121.514 158.418 117.382 159.274C113.249 160.13 110.594 164.169 111.451 168.296C112.308 172.423 116.353 175.075 120.485 174.219Z" fill="#FF6D2A"/>
<path d="M144.001 169.347C148.134 168.491 150.789 164.452 149.932 160.325C149.074 156.198 145.03 153.547 140.898 154.403C136.765 155.258 134.11 159.298 134.967 163.425C135.824 167.552 139.869 170.203 144.001 169.347Z" fill="#FF6D2A"/>
<path d="M167.503 164.479C171.635 163.623 174.29 159.584 173.433 155.457C172.576 151.33 168.531 148.678 164.399 149.534C160.267 150.39 157.612 154.43 158.469 158.557C159.326 162.684 163.371 165.335 167.503 164.479Z" fill="#FF6D2A"/>
<path d="M261.859 144.934C265.992 144.078 268.647 140.038 267.79 135.912C266.933 131.785 262.888 129.133 258.756 129.989C254.623 130.845 251.968 134.884 252.825 139.011C253.682 143.138 257.727 145.79 261.859 144.934Z" fill="#FF6D2A"/>
<path d="M88.2668 195.86L89.4827 201.84L298.313 159.493L297.098 153.513L88.2668 195.86Z" fill="white"/>
<path d="M200.782 238.738L130.09 253.073C126.043 253.894 123.428 257.836 124.249 261.879L135.562 317.522C136.384 321.564 140.331 324.176 144.379 323.355L215.071 309.02C219.119 308.199 221.734 304.257 220.912 300.215L209.599 244.571C208.777 240.529 204.83 237.918 200.782 238.738Z" fill="#EE4A00"/>
<path d="M305.008 329.717L151.967 360.751C147.919 361.571 145.304 365.514 146.126 369.556L147.711 377.354C148.533 381.396 152.481 384.008 156.528 383.187L309.57 352.153C313.617 351.332 316.232 347.39 315.41 343.348L313.825 335.55C313.003 331.507 309.056 328.896 305.008 329.717Z" fill="#EE4A00"/>
<path d="M116.823 225.403L117.735 229.885L283.934 196.183L283.022 191.701L116.823 225.403Z" fill="#FF6D2A"/>
<path d="M119.555 238.87L120.467 243.353L286.678 209.648L285.766 205.166L119.555 238.87Z" fill="#FF6D2A"/>
<path d="M223.858 231.726L224.769 236.209L289.399 223.103L288.488 218.62L223.858 231.726Z" fill="#FF6D2A"/>
<path d="M226.604 245.192L227.516 249.674L292.146 236.568L291.235 232.086L226.604 245.192Z" fill="#FF6D2A"/>
<path d="M229.336 258.659L230.248 263.142L294.878 250.036L293.966 245.554L229.336 258.659Z" fill="#FF6D2A"/>
<path d="M232.075 272.101L232.987 276.583L297.617 263.477L296.705 258.995L232.075 272.101Z" fill="#FF6D2A"/>
<path d="M235.117 287.059L236.028 291.542L300.658 278.436L299.747 273.954L235.117 287.059Z" fill="#FF6D2A"/>
<path d="M237.863 300.525L238.774 305.007L303.405 291.902L302.493 287.419L237.863 300.525Z" fill="#FF6D2A"/>
<path d="M262.507 138.933C264.301 138.933 266.045 138.043 267.062 136.402L291.717 96.7282L316.184 112.167C318.619 113.695 321.818 113.044 323.449 110.675L376.926 32.857C378.595 30.4259 377.98 27.1052 375.546 25.426C373.112 23.7593 369.787 24.3734 368.105 26.8044L317.54 100.387L292.859 84.8236C291.654 84.0592 290.199 83.8086 288.806 84.1344C287.413 84.4477 286.209 85.3123 285.456 86.5279L257.952 130.775C256.396 133.282 257.162 136.577 259.671 138.131C260.549 138.67 261.528 138.933 262.482 138.933H262.507Z" fill="#FF6D2A"/>
<path d="M377.581 42.7565L376.263 50.4005C376.075 51.3654 374.733 51.4155 374.469 50.4756L372.336 42.8818C371.257 39.0347 369.124 35.5009 366.251 32.7566C363.979 30.5762 361.257 28.8845 358.245 27.8945L357.493 27.6439L356.388 27.2805C355.523 26.9923 355.548 25.7642 356.426 25.5136H356.439C356.752 25.4259 357.066 25.3256 357.38 25.2254C364.582 22.8069 369.94 16.441 371.52 8.95995L371.659 8.39605L373.277 1.49139C373.478 0.526489 374.858 0.513958 375.084 1.47886L376.627 8.24568L376.765 8.84717C378.534 16.5914 384.382 22.3558 391.985 24.3733C392.337 24.4735 392.688 24.5487 393.052 24.6239C393.516 24.7241 393.767 25.1126 393.78 25.5011C393.78 25.8645 393.591 26.2404 393.165 26.3908L391.985 26.8168L391.408 27.0299C388.271 28.1702 385.486 29.9246 383.227 32.1676C380.379 34.9997 378.384 38.6086 377.593 42.7439L377.581 42.7565Z" fill="white"/>
<path d="M375.359 51.9291C375.359 51.9291 375.409 51.9291 375.434 51.9291C376.237 51.8915 376.877 51.3401 377.028 50.5632L378.345 42.9067C379.085 39.0471 380.968 35.5258 383.766 32.7314C385.961 30.5384 388.621 28.8718 391.658 27.769L393.427 27.1299C394.117 26.8793 394.556 26.2402 394.544 25.5134C394.519 24.7114 393.992 24.0723 393.214 23.8969C392.862 23.8217 392.524 23.734 392.185 23.6463C384.682 21.6538 379.198 16.0524 377.504 8.68408L375.823 1.31577C375.647 0.52631 374.982 6.92809e-08 374.179 1.0649e-09L374.167 0C373.351 -6.92819e-08 372.699 0.538839 372.523 1.34083L370.767 8.79686C369.198 16.2028 363.978 22.2177 357.128 24.5109C356.826 24.6112 356.525 24.7114 356.224 24.7866C355.484 24.9871 354.994 25.6262 354.982 26.3781C354.969 27.1299 355.434 27.7816 356.149 28.0196L358.018 28.6211C360.829 29.5359 363.502 31.165 365.735 33.3078C368.546 36.002 370.578 39.3854 371.62 43.0946L373.753 50.6885C373.966 51.4404 374.606 51.9165 375.371 51.9165L375.359 51.9291ZM374.179 1.5288C374.305 1.5288 374.33 1.61652 374.33 1.65411L376.011 9.02243C377.831 16.9546 383.728 22.9821 391.783 25.125C392.147 25.2252 392.511 25.3129 392.888 25.3881C392.913 25.3881 393.013 25.4132 393.013 25.5385C393.013 25.6513 392.938 25.6763 392.913 25.6889L391.143 26.3279C387.894 27.5059 385.045 29.2978 382.687 31.6412C379.663 34.6486 377.642 38.4456 376.839 42.6184L375.522 50.275C375.522 50.3 375.497 50.3877 375.371 50.3877C375.221 50.3877 375.221 50.3126 375.208 50.2624L373.075 42.6686C371.971 38.7087 369.788 35.0747 366.789 32.1925C364.392 29.8868 361.519 28.145 358.483 27.155L356.613 26.541C356.613 26.541 356.5 26.5034 356.5 26.3906C356.5 26.2778 356.588 26.2528 356.613 26.2402C356.964 26.14 357.291 26.0397 357.604 25.9395C364.957 23.4834 370.566 17.0298 372.247 9.11014L374.004 1.65411C374.004 1.65411 374.029 1.51627 374.167 1.51627L374.179 1.5288Z" fill="#E4DEDE"/>
<path d="M262.646 146.226C256.957 146.226 252.345 141.619 252.345 135.938C252.345 130.256 256.957 125.649 262.646 125.649C268.335 125.649 272.947 130.256 272.947 135.938C272.947 141.619 268.335 146.226 262.646 146.226Z" fill="white"/>
<path d="M290.012 99.623C284.323 99.623 279.711 95.0169 279.711 89.3349C279.711 83.653 284.323 79.0469 290.012 79.0469C295.702 79.0469 300.314 83.653 300.314 89.3349C300.314 95.0169 295.702 99.623 290.012 99.623Z" fill="white"/>
<path d="M318.871 114.234C313.182 114.234 308.57 109.628 308.57 103.946C308.57 98.2643 313.182 93.6582 318.871 93.6582C324.561 93.6582 329.173 98.2643 329.173 103.946C329.173 109.628 324.561 114.234 318.871 114.234Z" fill="white"/>
<path d="M641.393 266.657L608.741 247.646C602.249 243.858 592.893 247.773 587.879 256.352L491.126 422.051C486.111 430.648 487.315 440.706 493.8 444.477L526.459 463.505C532.96 467.285 542.307 463.379 547.321 454.8L644.075 289.083C649.089 280.504 647.876 270.445 641.384 266.657L641.393 266.657ZM621.73 261.208C627.619 263.719 623.9 272.918 617.993 270.406C612.103 267.895 615.822 258.697 621.73 261.208Z" fill="white"/>
<path d="M568.621 411.719L543.312 454.852C541.378 458.167 537.488 459.496 534.642 457.827L495.177 434.691C492.322 433.031 491.586 428.984 493.539 425.67L518.839 382.527C520.782 379.213 524.663 377.883 527.509 379.552L566.983 402.688C569.838 404.349 570.565 408.395 568.622 411.71L568.621 411.719Z" fill="#1A3C7D"/>
<path d="M602.767 353.242L577.458 396.375C575.524 399.69 571.634 401.019 568.788 399.351L529.323 376.215C526.468 374.554 525.732 370.508 527.684 367.193L552.985 324.05C554.928 320.736 558.809 319.407 561.655 321.075L601.129 344.212C603.984 345.872 604.711 349.918 602.767 353.233L602.767 353.242Z" fill="#0D56DF"/>
<path d="M636.911 294.757L611.602 337.89C609.667 341.205 605.778 342.534 602.932 340.865L563.458 317.738C560.612 316.069 559.876 312.013 561.819 308.708L587.12 265.565C589.063 262.25 592.944 260.921 595.79 262.59L635.264 285.726C638.119 287.386 638.846 291.433 636.903 294.747L636.911 294.757Z" fill="#417CEA"/>
<path d="M555.385 207.674L408.106 186.779C401.503 185.843 395.39 190.429 394.451 197.024L364.735 405.948C363.797 412.543 368.389 418.649 374.992 419.585L522.272 440.48C528.875 441.417 534.988 436.83 535.926 430.235L565.643 221.311C566.581 214.716 561.989 208.611 555.385 207.674Z" fill="#FF9460"/>
<path d="M376.776 421.899C367.924 420.43 361.797 412.131 363.065 403.213L392.072 199.185C392.695 194.819 394.991 190.937 398.544 188.274C402.098 185.603 406.466 184.481 410.838 185.103L553.221 205.3C557.578 205.91 561.479 208.214 564.146 211.763C566.821 215.313 567.944 219.675 567.321 224.041L538.314 428.07C537.024 437.122 528.604 443.438 519.538 442.158L377.163 421.963C377.029 421.941 376.903 421.92 376.768 421.898L376.776 421.899ZM552.947 209.387C552.846 209.37 552.754 209.355 552.653 209.338L410.278 189.143C406.987 188.675 403.7 189.527 401.025 191.533C398.35 193.54 396.611 196.461 396.152 199.741L367.145 403.769C366.176 410.58 370.947 416.902 377.765 417.879L520.149 438.075C526.968 439.043 533.305 434.288 534.276 427.469L563.283 223.44C563.752 220.153 562.899 216.871 560.89 214.199C558.937 211.606 556.136 209.899 552.967 209.373L552.947 209.387Z" fill="white"/>
<path d="M405.278 321.117C410.538 321.99 415.512 318.439 416.386 313.185C417.26 307.931 413.704 302.964 408.443 302.091C403.183 301.218 398.21 304.769 397.335 310.023C396.461 315.277 400.017 320.244 405.278 321.117Z" fill="#FC5500"/>
<path d="M433.968 325.068C439.229 325.941 444.202 322.39 445.077 317.136C445.951 311.882 442.395 306.915 437.134 306.042C431.874 305.169 426.9 308.721 426.026 313.974C425.152 319.228 428.708 324.195 433.968 325.068Z" fill="#FF6D2A"/>
<path d="M462.659 329.01C467.92 329.883 472.893 326.332 473.767 321.078C474.641 315.824 471.085 310.857 465.825 309.984C460.564 309.111 455.591 312.662 454.717 317.916C453.843 323.17 457.398 328.137 462.659 329.01Z" fill="#EE4A00"/>
<path d="M491.35 332.96C496.61 333.833 501.584 330.282 502.458 325.028C503.332 319.774 499.776 314.807 494.516 313.934C489.255 313.061 484.282 316.613 483.407 321.866C482.533 327.12 486.089 332.087 491.35 332.96Z" fill="#EE4A00"/>
<path d="M518.842 336.738C524.103 337.611 529.076 334.06 529.951 328.806C530.825 323.552 527.269 318.585 522.008 317.712C516.748 316.839 511.774 320.39 510.9 325.644C510.026 330.898 513.582 335.865 518.842 336.738Z" fill="#FF6D2A"/>
<path d="M546.603 340.56C541.316 339.829 537.632 334.972 538.355 329.691C539.087 324.412 543.95 320.732 549.238 321.454L546.603 340.56Z" fill="#EE4A00"/>
<path d="M455.988 299.898L455.954 299.892L402.064 292.252C398.106 291.69 395.354 288.032 395.916 284.079C396.479 280.126 400.151 277.318 404.1 277.939L457.99 285.58C461.948 286.142 464.7 289.8 464.138 293.753C463.576 297.698 459.932 300.44 455.979 299.897L455.988 299.898Z" fill="#FF6D2A"/>
<path d="M531.655 310.307L531.621 310.302L477.731 302.661C473.773 302.099 471.021 298.441 471.583 294.488C472.145 290.543 475.789 287.8 479.742 288.344L479.775 288.35L533.665 295.99C537.624 296.552 540.376 300.21 539.813 304.163C539.252 308.108 535.607 310.851 531.655 310.307Z" fill="white"/>
<path d="M442.912 245.416L442.886 245.411L404.752 239.807C403.31 239.594 402.307 238.254 402.522 236.806C402.735 235.366 404.087 234.304 405.527 234.578L443.661 240.182C445.103 240.395 446.107 241.735 445.892 243.184C445.68 244.615 444.348 245.611 442.912 245.416Z" fill="#EE4A00"/>
<path d="M467.574 259.767L467.557 259.764L403.241 250.557C401.798 250.352 400.794 249.012 400.999 247.57C401.204 246.129 402.56 245.094 403.989 245.332L468.306 254.539C469.749 254.744 470.753 256.084 470.547 257.525C470.342 258.966 469.009 259.97 467.565 259.765L467.574 259.767Z" fill="#EE4A00"/>
<path d="M485.562 273.201L485.554 273.2L401.709 261.313C400.266 261.108 399.254 259.766 399.459 258.325C399.665 256.884 400.998 255.88 402.443 256.076L402.451 256.078L486.295 267.965C487.738 268.17 488.751 269.511 488.545 270.953C488.34 272.394 487.007 273.398 485.562 273.201Z" fill="#EE4A00"/>
<path d="M428.225 339.775L391.327 334.54C388.55 334.146 385.979 336.075 385.584 338.849L380.666 373.424C380.272 376.198 382.203 378.766 384.981 379.16L421.879 384.394C424.656 384.788 427.227 382.859 427.622 380.085L432.54 345.51C432.934 342.737 431.003 340.169 428.225 339.775Z" fill="#EE4A00"/>
<path d="M479.485 346.834L442.587 341.599C439.81 341.205 437.239 343.134 436.844 345.908L431.926 380.483C431.532 383.257 433.463 385.825 436.241 386.219L473.138 391.453C475.916 391.847 478.487 389.918 478.882 387.144L483.8 352.569C484.194 349.796 482.262 347.228 479.485 346.834Z" fill="#EE4A00"/>
<path d="M530.753 353.893L493.855 348.658C491.078 348.264 488.507 350.193 488.112 352.967L483.194 387.542C482.8 390.316 484.732 392.884 487.509 393.278L524.407 398.512C527.184 398.906 529.756 396.977 530.15 394.203L535.068 359.628C535.462 356.855 533.531 354.287 530.753 353.893Z" fill="#EE4A00"/>
<path d="M425.669 395.348L421.634 423.755L380.312 417.89C378.338 417.605 376.487 416.996 374.818 416.124L378.708 388.693C379.275 384.767 382.918 382.032 386.842 382.589L419.564 387.234C423.498 387.784 426.22 391.419 425.669 395.348Z" fill="#EE4A00"/>
<path d="M476.936 402.399L472.864 431.024L425.904 424.361L429.974 395.753C430.524 391.823 434.167 389.089 438.1 389.647L470.821 394.292C474.755 394.841 477.493 398.48 476.935 402.407L476.936 402.399Z" fill="#EE4A00"/>
<path d="M528.195 409.448L524.285 436.995C522.172 437.542 519.926 437.696 517.64 437.368L477.135 431.629L481.233 402.793C481.783 398.863 485.426 396.129 489.359 396.687L522.081 401.332C526.015 401.881 528.753 405.52 528.186 409.446L528.195 409.448Z" fill="#EE4A00"/>
<path d="M524.342 278.713C535.518 280.568 546.083 273.023 547.94 261.862C549.797 250.7 542.243 240.149 531.067 238.294C519.891 236.439 509.326 243.984 507.468 255.145C505.611 266.307 513.166 276.858 524.342 278.713Z" fill="#EE4A00"/>
<path d="M497.387 221.281L497.362 221.277L459.228 215.673C457.786 215.46 456.782 214.12 456.998 212.671C457.211 211.231 458.563 210.17 460.003 210.444L498.137 216.048C499.579 216.261 500.583 217.601 500.368 219.049C500.156 220.481 498.824 221.477 497.387 221.281Z" fill="white"/>
<path d="M616.778 476.115L614.663 490.289C614.357 492.069 611.889 492.265 611.367 490.547L607.17 476.712C605.04 469.696 600.979 463.34 595.622 458.463C591.375 454.596 586.302 451.66 580.757 450.044L579.371 449.645L577.326 449.052C575.725 448.592 575.725 446.308 577.321 445.802L577.339 445.777C577.932 445.602 578.5 445.409 579.064 445.195C592.186 440.27 601.733 428.19 604.339 414.315L604.569 413.254L607.269 400.428C607.604 398.632 610.14 398.523 610.58 400.276L613.95 413.739C617.499 427.879 628.426 438.109 642.469 441.327C643.121 441.478 643.771 441.609 644.43 441.727C645.301 441.886 645.765 442.58 645.799 443.303C645.835 443.971 645.475 444.673 644.717 444.974L642.567 445.834L641.513 446.26C635.802 448.564 630.772 451.983 626.719 456.26C621.609 461.66 618.088 468.437 616.799 476.111L616.778 476.115Z" fill="white"/>
<path d="M654.628 401.934L653.507 409.442C653.346 410.384 652.038 410.488 651.762 409.578L649.539 402.25C648.41 398.534 646.26 395.168 643.423 392.584C641.173 390.536 638.486 388.982 635.549 388.126L634.815 387.914L633.732 387.6C632.884 387.356 632.884 386.147 633.729 385.879L633.739 385.866C634.053 385.773 634.353 385.671 634.653 385.557C641.602 382.949 646.659 376.551 648.039 369.201L648.161 368.64L649.591 361.846C649.769 360.895 651.112 360.837 651.345 361.766L653.13 368.897C655.009 376.386 660.797 381.804 668.235 383.508C668.581 383.589 668.925 383.658 669.274 383.72C669.735 383.804 669.981 384.172 669.999 384.555C670.018 384.909 669.827 385.281 669.426 385.44L668.287 385.895L667.729 386.121C664.704 387.342 662.04 389.152 659.893 391.418C657.187 394.278 655.321 397.867 654.639 401.932L654.628 401.934Z" fill="white"/>
<path d="M477.981 502.602C483.768 502.602 488.459 497.917 488.459 492.138C488.459 486.359 483.768 481.675 477.981 481.675C472.195 481.675 467.504 486.359 467.504 492.138C467.504 497.917 472.195 502.602 477.981 502.602Z" fill="white"/>
<path d="M143.599 420.864C135.541 435.25 117.332 440.389 102.928 432.342C88.5228 424.295 83.3772 406.11 91.4344 391.724C99.4917 377.337 117.701 372.198 132.105 380.245C146.51 388.292 151.656 406.478 143.599 420.864Z" fill="#EE4A00"/>
<path d="M144.76 421.487C152.728 407.26 148.326 389.046 134.416 380.096C127.407 375.59 119.069 374.075 110.921 375.834C102.774 377.593 95.8021 382.419 91.2944 389.413C86.7831 396.413 85.2658 404.741 87.0272 412.878C88.7886 421.015 93.6205 427.977 100.624 432.479C115.084 441.787 134.432 437.607 143.752 423.166C144.11 422.616 144.443 422.052 144.763 421.481L144.76 421.487ZM92.5773 392.379C92.8685 391.859 93.1725 391.347 93.5057 390.842C97.6398 384.44 104.022 380.018 111.477 378.411C118.936 376.798 126.578 378.186 132.988 382.314C146.229 390.832 150.075 408.516 141.534 421.749C133.005 434.973 115.288 438.801 102.051 430.277C89.319 422.086 85.2875 405.41 92.5838 392.383L92.5773 392.379Z" fill="white"/>
<path d="M133.237 412.043L129.975 411.47C129.631 412.567 129.125 413.631 128.476 414.641C127.947 415.462 127.345 416.201 126.682 416.864L128.459 419.445C129.125 420.413 128.879 421.732 127.91 422.397C126.94 423.063 125.619 422.817 124.953 421.849L123.23 419.346C121.329 420.31 119.206 420.802 117.074 420.79L116.564 423.66C116.355 424.813 115.256 425.586 114.102 425.378C112.947 425.17 112.173 424.072 112.382 422.919L112.879 420.097C111.85 419.751 110.842 419.271 109.885 418.66C108.926 418.042 108.075 417.33 107.336 416.529L104.968 418.154C103.998 418.819 102.672 418.57 102.011 417.605C101.345 416.636 101.591 415.317 102.561 414.652L104.963 413.005C104.073 411.072 103.646 408.933 103.739 406.808L100.744 406.279C99.5893 406.071 98.8154 404.973 99.0236 403.82C99.2318 402.667 100.331 401.894 101.486 402.102L104.575 402.649C104.909 401.767 105.331 400.914 105.861 400.093C106.51 399.083 107.276 398.186 108.136 397.419L106.266 394.695C105.6 393.727 105.846 392.408 106.815 391.743C107.542 391.24 108.474 391.261 109.167 391.711C109.396 391.859 109.601 392.05 109.772 392.291L111.706 395.099C113.535 394.289 115.534 393.894 117.542 393.941L118.161 390.48C118.37 389.327 119.469 388.554 120.624 388.762C120.909 388.81 121.167 388.92 121.401 389.072C122.094 389.521 122.5 390.358 122.346 391.229L121.722 394.736C122.659 395.072 123.582 395.519 124.454 396.082C125.326 396.646 126.121 397.298 126.812 398.01L129.755 395.992C130.481 395.489 131.413 395.51 132.106 395.96C132.335 396.109 132.54 396.3 132.711 396.541C133.377 397.509 133.131 398.828 132.161 399.493L129.261 401.486C130.132 403.291 130.599 405.271 130.617 407.272L133.976 407.872C134.261 407.92 134.519 408.03 134.754 408.182C135.446 408.631 135.852 409.468 135.698 410.339C135.49 411.492 134.39 412.265 133.236 412.057L133.237 412.043ZM125.702 403.923C125.181 402.62 124.35 401.427 123.247 400.457C122.905 400.162 122.546 399.885 122.156 399.64C121.766 399.394 121.369 399.172 120.96 398.985C119.623 398.384 118.195 398.12 116.783 398.185C115.892 398.228 115.01 398.387 114.172 398.682C112.832 399.14 111.597 399.907 110.569 400.948C110.15 401.387 109.767 401.86 109.431 402.386C109.22 402.712 109.026 403.047 108.863 403.4C108.221 404.72 107.935 406.148 107.959 407.556C107.985 408.576 108.179 409.593 108.533 410.547C109.023 411.868 109.818 413.089 110.887 414.081C111.277 414.451 111.712 414.791 112.184 415.09C112.655 415.388 113.137 415.643 113.641 415.848C114.985 416.412 116.429 416.636 117.836 416.528C118.852 416.45 119.862 416.209 120.8 415.811C122.09 415.256 123.278 414.4 124.215 413.273C124.467 412.984 124.698 412.67 124.909 412.343C125.245 411.817 125.52 411.277 125.753 410.713C126.28 409.35 126.469 407.909 126.333 406.502C126.252 405.617 126.043 404.751 125.71 403.92L125.702 403.923Z" fill="white"/>
<path d="M120.449 408.799C119.495 410.503 117.339 411.112 115.632 410.159C113.926 409.206 113.317 407.052 114.271 405.348C115.226 403.644 117.382 403.036 119.088 403.989C120.794 404.942 121.404 407.095 120.449 408.799Z" fill="white"/>
<path d="M111.959 378.953C101.708 397.256 78.5417 403.794 60.2155 393.557C41.8893 383.319 35.3428 360.183 45.5935 341.88C55.8443 323.578 79.0105 317.04 97.3367 327.277C115.663 337.515 122.209 360.651 111.959 378.953Z" fill="#06296B"/>
<path d="M113.138 379.545C117.695 371.407 119.193 362.016 117.357 352.776C113.136 331.528 92.3901 317.673 71.115 321.888C60.8084 323.933 51.9136 329.858 46.0729 338.584C40.2322 347.311 38.1409 357.778 40.1878 368.071C42.2347 378.364 48.1674 387.247 56.9051 393.081C65.6428 398.914 76.1234 401.002 86.43 398.958C96.7366 396.914 105.631 390.989 111.472 382.262C112.07 381.375 112.62 380.469 113.138 379.545ZM46.7114 342.581C47.193 341.721 47.7104 340.872 48.2663 340.045C53.717 331.91 62.0134 326.375 71.6281 324.467C91.4793 320.534 110.831 333.459 114.769 353.284C118.707 373.11 105.765 392.437 85.914 396.37C76.2993 398.278 66.5177 396.327 58.3653 390.88C50.2194 385.436 44.6775 377.151 42.7666 367.548C41.051 358.923 42.4502 350.159 46.7021 342.567L46.7114 342.581Z" fill="white"/>
<path d="M88.4039 379.165L85.9797 375.575C84.6292 376.249 83.1694 376.748 81.618 377.053C80.3627 377.302 79.1169 377.406 77.8824 377.388L77.0667 381.412C76.7591 382.919 75.2858 383.889 73.7823 383.585C72.2733 383.278 71.3019 381.806 71.6064 380.305L72.4024 376.406C69.7588 375.493 67.3626 373.948 65.4299 371.932L62.2621 374.063C60.9868 374.922 59.2529 374.583 58.3926 373.309C57.5322 372.035 57.8725 370.304 59.1478 369.444L62.2694 367.345C61.6528 366.057 61.1887 364.676 60.8988 363.214C60.609 361.752 60.5089 360.296 60.5834 358.873L56.8982 358.122C55.3892 357.815 54.4154 356.335 54.7223 354.842C55.0299 353.335 56.5031 352.365 58.0067 352.669L61.75 353.431C62.7623 350.832 64.3887 348.49 66.4788 346.635L64.2563 343.336C63.3959 342.063 63.7363 340.331 65.0115 339.472C66.2868 338.613 68.0207 338.952 68.8811 340.226L71.1766 343.637C72.3089 343.148 73.5003 342.771 74.7557 342.522C76.3016 342.214 77.8433 342.118 79.3504 342.224L80.2183 337.979C80.5259 336.472 81.9991 335.502 83.5027 335.806C84.6353 336.032 85.4628 336.93 85.6762 337.992C85.7492 338.347 85.7518 338.713 85.6785 339.087L84.7902 343.47C87.2153 344.453 89.4114 345.973 91.1971 347.906L95.0283 345.331C96.3036 344.472 98.0375 344.812 98.8979 346.085C99.1122 346.405 99.2446 346.743 99.3176 347.099C99.531 348.161 99.1062 349.302 98.1426 349.95L94.2621 352.561C94.7996 353.748 95.2125 355.028 95.4803 356.364C95.748 357.699 95.8509 359.036 95.8071 360.34L100.392 361.272C101.525 361.498 102.352 362.396 102.566 363.458C102.639 363.813 102.641 364.179 102.568 364.553C102.261 366.06 100.787 367.03 99.2837 366.726L94.7622 365.807C93.854 368.272 92.4056 370.513 90.5399 372.35L93.0341 376.058C93.2484 376.378 93.3808 376.716 93.4538 377.071C93.6672 378.133 93.2424 379.275 92.2789 379.922C91.0036 380.782 89.2697 380.442 88.4093 379.168L88.4039 379.165ZM89.2081 364.676C89.9624 362.997 90.3286 361.13 90.239 359.208C90.2049 358.618 90.1345 358.028 90.0222 357.437C89.9099 356.846 89.7436 356.274 89.5488 355.715C88.8949 353.907 87.845 352.32 86.5061 351.058C85.6547 350.254 84.6967 349.576 83.6589 349.053C82.0072 348.209 80.156 347.746 78.2424 347.727C77.451 347.735 76.651 347.81 75.8502 347.963C75.3508 348.062 74.8532 348.184 74.3755 348.361C72.5449 348.96 70.932 349.988 69.6361 351.292C68.7031 352.243 67.9165 353.354 67.3297 354.555C66.5256 356.22 66.1013 358.076 66.1412 359.985C66.1477 360.688 66.2262 361.404 66.3691 362.119C66.5119 362.835 66.7119 363.525 66.975 364.18C67.6665 365.959 68.7765 367.515 70.1531 368.748C71.1516 369.635 72.2974 370.361 73.528 370.884C75.2335 371.594 77.1129 371.929 79.0313 371.786C79.5383 371.762 80.0448 371.688 80.5442 371.588C81.3481 371.43 82.111 371.192 82.8486 370.897C84.6105 370.152 86.1418 369.014 87.3477 367.602C88.1125 366.722 88.7314 365.732 89.2142 364.665L89.2081 364.676Z" fill="white"/>
<path d="M82.6912 361.956C81.4406 364.189 78.6143 364.987 76.3785 363.738C74.1427 362.489 73.344 359.666 74.5946 357.433C75.8452 355.2 78.6715 354.402 80.9073 355.651C83.1431 356.9 83.9418 359.723 82.6912 361.956Z" fill="white"/>
<g filter="url(#filter0_b_928_559)">
<ellipse cx="335" cy="560" rx="335" ry="15" fill="url(#paint0_radial_928_559)" fill-opacity="0.7"/>
</g>
<defs>
<filter id="filter0_b_928_559" x="-20" y="525" width="710" height="70" filterUnits="userSpaceOnUse" color-interpolation-filters="sRGB">
<feFlood flood-opacity="0" result="BackgroundImageFix"/>
<feGaussianBlur in="BackgroundImageFix" stdDeviation="10"/>
<feComposite in2="SourceAlpha" operator="in" result="effect1_backgroundBlur_928_559"/>
<feBlend mode="normal" in="SourceGraphic" in2="effect1_backgroundBlur_928_559" result="shape"/>
</filter>
<radialGradient id="paint0_radial_928_559" cx="0" cy="0" r="1" gradientUnits="userSpaceOnUse" gradientTransform="translate(335 560) rotate(91.3941) scale(17.6302 334.939)">
<stop/>
<stop offset="1" stop-opacity="0"/>
</radialGradient>
</defs>
</svg>
