<svg width="173" height="250" viewBox="0 0 173 250" fill="none" xmlns="http://www.w3.org/2000/svg">
<path d="M0.986328 31.25C0.986328 14.0137 15 0 32.2363 0H141.611C158.848 0 172.861 14.0137 172.861 31.25V218.75C172.861 235.986 158.848 250 141.611 250H32.2363C15 250 0.986328 235.986 0.986328 218.75V31.25ZM63.4863 218.75C63.4863 223.047 67.002 226.562 71.2988 226.562H102.549C106.846 226.562 110.361 223.047 110.361 218.75C110.361 214.453 106.846 210.938 102.549 210.938H71.2988C67.002 210.938 63.4863 214.453 63.4863 218.75ZM141.611 31.25H32.2363V187.5H141.611V31.25Z" fill="black"/>
</svg>
