<svg width="248" height="250" viewBox="0 0 248 250" fill="none" xmlns="http://www.w3.org/2000/svg">
<path fill-rule="evenodd" clip-rule="evenodd" d="M36.6569 62.8555H18.7388C12.9557 64.8464 1.16202 71.8999 0.251896 84.1866V124.005C-0.216209 129.247 2.23717 139.667 15.6645 139.927V226.962C15.3619 234.642 20.7861 250 44.9044 250H124.204H203.271C227.389 250 232.813 234.642 232.511 226.962V139.927C245.938 139.667 248.392 129.247 247.923 124.005V84.1866C247.013 71.8999 235.22 64.8464 229.437 62.8555H211.518C218.628 52.901 216.923 41.5245 216.923 40.6712C216.923 39.818 213.51 0 174.261 0C142.861 0 127.806 28.2518 124.204 42.3777C120.601 28.2518 105.314 0 73.9147 0C34.6655 0 31.2526 39.818 31.2526 40.6712C31.2526 41.5245 29.547 52.901 36.6569 62.8555ZM110.604 62.8555H65.9511C58.215 59.4425 54.3849 51.0049 53.4369 47.2127C52.2992 39.0595 54.8021 22.7531 73.9147 22.7531C93.0273 22.7531 106.338 49.4881 110.604 62.8555ZM110.604 85.8931H22.1513V116.894H110.604V85.8931ZM109.182 141.069H37.7941V219.852C37.7941 224.403 42.5343 226.488 44.9044 226.962H109.182V141.069ZM137.571 62.8555H182.224C189.96 59.4425 193.79 51.0049 194.738 47.2127C195.876 39.0595 193.373 22.7531 174.261 22.7531C155.148 22.7531 141.837 49.4881 137.571 62.8555ZM137.571 85.8931H226.024V116.894H137.571V85.8931ZM138.993 141.069H210.381V219.852C210.381 224.403 205.641 226.488 203.271 226.962H138.993V141.069Z" fill="black"/>
</svg>
