<svg width="268" height="250" viewBox="0 0 268 250" fill="none" xmlns="http://www.w3.org/2000/svg">
<path d="M49.9174 95.2095C54.2141 83.045 61.1891 71.6059 71.01 61.8409C105.885 26.9656 162.411 26.9656 197.286 61.8409L206.828 71.4385H178.761C168.884 71.4385 160.905 79.418 160.905 89.2947C160.905 99.1714 168.884 107.151 178.761 107.151H249.906H250.129C260.006 107.151 267.986 99.1714 267.986 89.2947V17.8701C267.986 7.99342 260.006 0.013951 250.129 0.013951C240.253 0.013951 232.273 7.99342 232.273 17.8701V46.4399L222.508 36.619C173.683 -12.2063 94.5578 -12.2063 45.7324 36.619C32.1171 50.2344 22.2962 66.2491 16.2698 83.3798C12.9775 92.6985 17.888 102.854 27.1508 106.146C36.4137 109.439 46.6252 104.528 49.9174 95.2653V95.2095ZM13.0333 143.589C10.2433 144.426 7.56488 145.932 5.38866 148.164C3.15664 150.396 1.65003 153.075 0.868825 155.976C0.701423 156.646 0.534021 157.371 0.42242 158.097C0.255019 159.045 0.199219 159.994 0.199219 160.942V232.144C0.199219 242.021 8.17868 250 18.0554 250C27.932 250 35.9115 242.021 35.9115 232.144V203.63L45.7324 213.395C94.5578 262.164 173.683 262.164 222.452 213.395C236.068 199.78 245.944 183.765 251.971 166.69C255.263 157.371 250.353 147.216 241.09 143.923C231.827 140.631 221.615 145.542 218.323 154.804C214.027 166.969 207.052 178.408 197.231 188.173C162.355 223.048 105.829 223.048 70.9542 188.173L70.8984 188.117L61.3565 178.575H89.48C99.3566 178.575 107.336 170.596 107.336 160.719C107.336 150.843 99.3566 142.863 89.48 142.863H18.2786C17.3858 142.863 16.493 142.919 15.6001 143.031C14.7073 143.142 13.8703 143.31 13.0333 143.589Z" fill="black"/>
</svg>
