<svg width="509" height="509" viewBox="0 0 509 509" fill="none" xmlns="http://www.w3.org/2000/svg">
<path d="M441 54.975L453.1 67.075C462.5 76.475 462.5 91.675 453.1 100.975L424 130.175L377.9 84.075L407 54.975C416.4 45.575 431.6 45.575 440.9 54.975H441ZM209.8 252.275L344 117.975L390.1 164.075L255.8 298.275C252.9 301.175 249.3 303.275 245.4 304.375L186.9 321.075L203.6 262.575C204.7 258.675 206.8 255.075 209.7 252.175L209.8 252.275ZM373.1 21.075L175.8 218.275C167.1 226.975 160.8 237.675 157.5 249.375L128.9 349.375C126.5 357.775 128.8 366.775 135 372.975C141.2 379.175 150.2 381.475 158.6 379.075L258.6 350.475C270.4 347.075 281.1 340.775 289.7 332.175L487 134.975C515.1 106.875 515.1 61.275 487 33.175L474.9 21.075C446.8 -7.025 401.2 -7.025 373.1 21.075ZM88 60.075C39.4 60.075 0 99.475 0 148.075V420.075C0 468.675 39.4 508.075 88 508.075H360C408.6 508.075 448 468.675 448 420.075V308.075C448 294.775 437.3 284.075 424 284.075C410.7 284.075 400 294.775 400 308.075V420.075C400 442.175 382.1 460.075 360 460.075H88C65.9 460.075 48 442.175 48 420.075V148.075C48 125.975 65.9 108.075 88 108.075H200C213.3 108.075 224 97.375 224 84.075C224 70.775 213.3 60.075 200 60.075H88Z" fill="black"/>
</svg>
