<svg width="189" height="250" viewBox="0 0 189 250" fill="none" xmlns="http://www.w3.org/2000/svg">
<path fill-rule="evenodd" clip-rule="evenodd" d="M3.00383 116.826L137.245 1.1389C140.155 -0.0252481 147.286 -1.30581 152.524 2.88513C157.763 7.07606 157.181 14.2355 156.235 17.2913L130.042 108.75H175.88C180.537 110.132 189.632 114.861 188.758 122.72C187.885 130.578 185.63 136.035 184.611 137.781L52.7712 249.757C47.3143 250.63 35.7455 249.626 33.1262 238.625L60.6292 141.055H14.136C10.7163 139.891 3.44038 136.253 1.69416 131.014C-0.0520648 125.775 1.83968 119.373 3.00383 116.826ZM35.7455 116.826L126.331 39.7741L103.412 121.41C104.701 130.653 110.436 131.923 113.112 132.515C113.154 132.524 113.194 132.533 113.234 132.542H155.58L64.7765 208.94L87.2591 127.74C88.3505 122.938 82.6753 118.063 78.9646 116.826H35.7455Z" fill="black"/>
</svg>
