<svg width="651" height="867" viewBox="0 0 651 867" fill="none" xmlns="http://www.w3.org/2000/svg">
<g clip-path="url(#clip0_388_35)">
<path d="M521.86 827.722C503.953 836.998 437.775 866.945 328.075 866.945C225.058 866.945 153.496 836.768 134.144 827.596C131.044 826.129 129.369 822.738 130.061 819.365L154.061 703.537L154.46 703.474C205.477 695.39 265.205 678.595 327.217 654.89C388.642 678.616 448.287 694.595 499.744 701.086L500.77 701.212L525.691 819.616C526.361 822.862 524.812 826.17 521.859 827.72L521.86 827.722Z" fill="white"/>
<path d="M499.347 692.566C451.43 686.408 395.994 671.812 338.904 650.369C350.611 645.741 362.109 641.007 373.103 636.254C409.816 620.423 444.833 603.25 477.105 585.178L499.346 692.566H499.347Z" fill="white"/>
<path d="M411.616 269.212L452.203 204.691C453.816 202.094 452.286 198.702 449.292 198.2L411.616 191.896V122.789L447.491 122.307C451.889 122.264 454.737 117.679 452.852 113.7C441.836 90.7061 406.317 28.4058 341.457 21.1598V12.0914C341.457 5.41091 336.013 -0.0332031 329.332 -0.0332031H326.357C319.697 -0.0332031 314.232 5.41219 314.232 12.0914V21.1598C249.372 28.4058 213.853 90.7061 202.837 113.7C200.931 117.679 203.801 122.264 208.198 122.307L244.073 122.789V190.848L206.229 198.094C203.277 198.66 201.831 202.01 203.423 204.545L244.073 269.212L181.203 574.561L182.104 575.105C213.455 593.89 247.216 611.397 282.462 627.167C297.102 633.721 312.159 640.025 327.238 645.909C341.562 640.38 355.866 634.537 369.773 628.548C406.466 612.758 441.586 595.481 474.174 577.221L475.075 576.718L411.617 269.214L411.616 269.212ZM353.584 172.504C353.584 174.954 351.615 176.923 349.186 176.923H306.504C304.074 176.923 302.085 174.954 302.085 172.504V144.024C302.085 129.868 313.667 118.287 327.845 118.287C334.923 118.287 341.353 121.177 346.022 125.846C350.693 130.517 353.583 136.945 353.583 144.023V172.503L353.584 172.504Z" fill="white"/>
<path d="M315.593 650.326C258.44 671.645 203.277 687.016 155.883 694.785L179.024 583.021C210.292 601.68 243.947 619.124 279.047 634.83C291.298 640.317 303.592 645.51 315.593 650.327V650.326Z" fill="white"/>
<path d="M641.297 666.012C630.323 690.535 597.715 703.309 547.745 703.309C533.441 703.309 517.671 702.241 500.582 700.125L499.555 693.884C499.911 693.78 500.287 693.758 500.665 693.801C573.65 702.994 622.824 691.937 635.558 663.457C648.249 635.123 624.018 591.313 569.085 543.273C567.787 542.142 567.661 540.153 568.792 538.855C569.944 537.535 571.933 537.41 573.231 538.562C631.222 589.261 655.39 634.537 641.295 666.012H641.297Z" fill="white"/>
<path d="M544.468 522.255C543.801 522.255 543.13 522.043 542.56 521.607C518.426 503.109 490.958 484.962 460.914 467.67C459.41 466.805 458.894 464.885 459.76 463.38C460.624 461.876 462.546 461.359 464.05 462.226C494.33 479.654 522.032 497.956 546.383 516.622C547.76 517.677 548.021 519.649 546.966 521.026C546.347 521.834 545.414 522.256 544.471 522.256L544.468 522.255Z" fill="white"/>
<path d="M114.951 538.285C114.291 538.285 113.627 538.078 113.062 537.652C35.0161 478.764 -1.84735 421.869 14.4527 385.455C31.9275 346.413 105.423 337.378 211.048 361.291C212.741 361.674 213.803 363.356 213.418 365.047C213.035 366.741 211.349 367.799 209.661 367.417C108.704 344.565 36.1046 352.459 20.1863 388.022C5.1664 421.575 41.2998 475.637 116.844 532.637C118.23 533.682 118.505 535.651 117.46 537.036C116.842 537.855 115.901 538.285 114.951 538.285Z" fill="white"/>
<path d="M180.931 575.628L179.34 581.764C178.984 581.701 178.648 581.575 178.335 581.388C164.344 573.011 150.815 564.34 138.082 555.629C136.658 554.645 136.302 552.698 137.265 551.253C138.249 549.829 140.218 549.473 141.642 550.436C154.061 558.959 167.297 567.44 180.931 575.628Z" fill="white"/>
<path d="M477.753 583.627C477.46 583.794 477.125 583.92 476.811 583.963L475.324 577.764C590.782 513.013 658.009 445.54 642.595 409.813C640.751 405.562 637.694 401.772 633.505 398.547C632.123 397.5 631.851 395.532 632.919 394.149C633.967 392.768 635.934 392.516 637.317 393.563C642.385 397.437 646.092 402.065 648.375 407.343C665.401 446.839 598.426 516.051 477.753 583.629V583.627Z" fill="white"/>
<path d="M456.283 401.682C454.872 401.682 453.59 400.725 453.236 399.296C452.818 397.612 453.846 395.908 455.53 395.491C467.097 392.627 491.707 386.992 501.997 384.933C503.705 384.584 505.353 385.697 505.693 387.397C506.034 389.099 504.93 390.753 503.23 391.093C493.2 393.101 468.303 398.801 457.041 401.59C456.788 401.653 456.534 401.682 456.283 401.682Z" fill="white"/>
<path d="M28.67 637.971C28.1122 637.971 27.5492 637.823 27.0389 637.512C25.557 636.61 25.0879 634.679 25.9901 633.197C48.7925 595.77 106.494 549.044 184.299 505C185.808 504.143 187.725 504.675 188.579 506.186C189.434 507.695 188.903 509.611 187.393 510.466C110.492 554 53.6175 599.924 31.3537 636.465C30.7625 637.437 29.7277 637.973 28.6687 637.973L28.67 637.971Z" fill="white"/>
<path d="M153.543 696.434L152.008 702.751C130.258 705.315 110.663 706.298 93.5914 705.712C71.523 704.955 53.6625 701.575 40.7081 695.661C39.1272 694.937 38.4293 693.069 39.1632 691.481C39.8766 689.913 41.753 689.223 43.3545 689.949C65.4319 700.052 103.16 702.291 152.432 696.375C152.825 696.326 153.194 696.359 153.543 696.434Z" fill="white"/>
<path d="M615.577 386.301L611.253 387.753C593.882 393.587 580.701 407.191 576.821 425.097L573.181 443.59C572.68 445.906 569.396 445.963 568.815 443.665L564.102 425.097C559.84 408.233 547.211 393.675 530.81 387.874L526.328 386.288C524.239 385.549 524.375 382.548 526.523 382L526.561 381.99C545.312 377.211 559.642 361.523 564.103 342.694L568.809 324.639C569.363 322.3 572.71 322.354 573.189 324.71L576.824 342.695C580.84 362.473 595.775 377.249 615.393 381.995C617.579 382.525 617.711 385.585 615.579 386.301H615.577Z" fill="white"/>
<path d="M21.9744 689.571C34.1192 689.571 43.9644 679.726 43.9644 667.582C43.9644 655.438 34.1192 645.594 21.9744 645.594C9.82964 645.594 -0.015625 655.438 -0.015625 667.582C-0.015625 679.726 9.82964 689.571 21.9744 689.571Z" fill="white"/>
</g>
<defs>
<clipPath id="clip0_388_35">
<rect width="651" height="867" fill="white"/>
</clipPath>
</defs>
</svg>
