<svg width="1773" height="879" viewBox="0 0 1773 879" fill="none" xmlns="http://www.w3.org/2000/svg">
<g clip-path="url(#clip0_388_2)">
<path d="M854.861 650.238C852.226 650.568 848.773 651.146 844.504 651.967C840.227 652.791 835.131 653.864 829.216 655.175C828.883 658.468 828.638 661.925 828.475 665.542C828.306 669.167 828.229 673.116 828.229 677.39C828.229 681.338 828.306 686.275 828.475 692.2C828.638 698.123 828.885 705.204 829.216 713.427C830.199 729.889 830.696 741.891 830.696 749.467C830.696 778.1 826.255 800.477 817.378 816.606C815.402 820.224 812.445 822.037 808.501 822.037C804.556 822.037 800.437 820.224 796.17 816.606C791.893 812.981 789.095 809.031 787.784 804.758C784.493 795.21 782.851 783.36 782.851 769.215C782.851 766.908 783.096 761.809 783.592 753.91C784.083 746.01 784.984 735.149 786.304 721.327C786.627 717.053 786.872 712.933 787.041 708.985C787.204 705.037 787.291 701.256 787.291 697.631C787.291 687.102 786.627 679.041 785.316 673.439C784.652 668.835 781.372 665.379 775.452 663.073C767.884 659.785 763.121 657.148 761.146 655.174C760.818 654.848 760.655 653.53 760.655 651.223C760.655 649.582 760.818 647.444 761.146 644.806C761.473 642.177 762.297 639.052 763.612 635.427C767.23 635.427 770.273 633.945 772.74 630.984C775.206 628.021 777.75 626.539 780.384 626.539C782.36 626.539 783.67 626.711 784.329 627.033C785.971 619.467 787.204 611.16 788.028 602.103C788.847 593.054 789.26 583.265 789.26 572.728C789.26 569.442 788.928 562.361 788.273 551.501C787.614 540.639 786.794 525.828 785.807 507.07C785.807 505.426 785.725 503.697 785.561 501.884C785.393 500.081 785.316 498.182 785.316 496.207C779.063 494.233 772.898 490.368 766.82 484.605C760.732 478.851 757.697 472.842 757.697 466.587C757.697 458.364 763.612 453.428 775.452 451.776C783.67 450.465 795.182 447.828 809.979 443.876C824.776 439.929 843.026 434.335 864.726 427.091C902.538 414.921 933.12 408.502 956.471 407.838C962.391 407.838 967.569 409.405 972.005 412.529C976.445 415.661 978.666 419.858 978.666 425.117C978.666 431.705 976.61 437.704 972.501 443.136C968.383 448.567 963.045 451.946 956.471 453.257H954.496C951.538 453.257 948.162 452.438 944.386 450.788C940.6 449.144 937.397 448.32 934.767 448.32C927.2 448.982 919.06 450.624 910.351 453.257C901.637 455.894 892.019 459.351 881.499 463.623C867.689 469.225 856.591 473.667 848.206 476.953C839.819 480.246 833.486 482.552 829.218 483.863C828.553 494.4 828.062 504.929 827.734 515.458C827.407 525.998 827.243 536.527 827.243 547.056C827.243 557.586 827.407 568.283 827.734 579.146C828.062 590.006 828.553 600.706 829.218 611.235C830.855 611.566 832.339 611.814 833.654 611.975C834.964 612.143 836.284 612.221 837.599 612.221C843.841 612.221 855.681 609.752 873.113 604.815C879.688 602.84 885.766 601.284 891.363 600.126C896.95 598.976 901.72 598.397 905.669 598.397C906.325 598.397 907.061 598.482 907.885 598.642C908.704 598.814 909.445 598.891 910.106 598.891C916.681 599.553 919.97 602.345 919.97 607.282C918 620.118 909.773 629.992 895.309 636.903L854.862 650.232L854.861 650.238Z" fill="white"/>
<path d="M941.485 768.098C941.485 754.236 945.387 737.707 953.205 718.516C963.859 692.574 969.715 673.73 970.782 662.002C970.782 659.161 968.468 655.962 963.859 652.404C958.881 648.498 956.399 645.474 956.399 643.342C956.399 641.211 957.106 639.434 958.531 638.01C959.946 635.879 963.676 634.277 969.716 633.212C975.75 631.796 979.121 629.838 979.838 627.347C986.231 609.937 996.348 576.88 1010.2 528.181C1016.24 506.855 1021.83 488.286 1026.98 472.465C1032.12 456.656 1037.01 443.058 1041.63 431.68C1043.76 426.708 1048.2 424.216 1054.94 424.216C1059.91 424.216 1064.35 425.815 1068.26 429.015C1078.2 437.546 1084.59 450.341 1087.44 467.402C1088.5 474.517 1089.57 481.796 1090.63 489.262C1091.7 496.726 1092.58 504.015 1093.3 511.119C1102.17 553.064 1111.22 591.185 1120.46 625.481C1129.69 659.787 1139.1 690.791 1148.7 718.516C1150.82 724.563 1151.89 729.535 1151.89 733.443C1151.89 740.559 1148.87 746.772 1142.83 752.104C1137.15 757.076 1133.06 759.568 1130.58 759.568C1113.18 756.368 1102.17 742.331 1097.56 717.45C1092.94 690.443 1087.08 667.868 1079.98 649.738L1043.76 652.938C1029.9 654.721 1019.07 658.985 1011.26 665.732C1009.48 671.423 1007.27 679.061 1004.6 688.66C1001.94 698.255 999.01 710.169 995.816 724.379C989.772 750.68 983.915 770.406 978.239 783.559C976.455 787.826 972.912 789.958 967.586 789.958H964.121C962.873 789.958 961.541 789.599 960.126 788.89C948.406 785.334 942.191 780.002 941.482 772.895V768.097L941.485 768.098ZM1070.92 616.683C1070.21 609.576 1069.33 602.378 1068.26 595.089C1067.19 587.811 1065.77 580.253 1064 572.431C1062.22 565.326 1060.53 558.22 1058.94 551.105C1057.34 544 1055.65 536.894 1053.88 529.779C1043.22 559.636 1033.99 589.144 1026.18 618.282C1031.86 617.217 1046.77 616.683 1070.92 616.683Z" fill="white"/>
<path d="M1189.17 707.853C1189.88 697.546 1190.85 686.26 1192.1 673.998C1193.34 661.733 1193.97 648.498 1193.97 634.277V576.164C1193.97 551.639 1194.23 529.43 1194.76 509.521C1195.3 489.619 1196.98 471.133 1199.83 454.074C1203.37 433.813 1221.66 423.683 1254.69 423.683H1262.15C1281.32 424.399 1298.01 433.997 1312.22 452.472C1325.35 468.826 1331.93 487.312 1331.93 507.921C1331.93 524.632 1325.71 541.335 1313.28 558.037C1302.27 572.965 1289.31 585.052 1274.4 594.291C1271.21 596.074 1268.71 597.756 1266.94 599.357C1265.16 600.956 1264.28 602.822 1264.28 604.954C1264.28 607.445 1265.08 609.486 1266.68 611.085C1268.27 612.686 1271.02 615.083 1274.93 618.282L1291.98 632.678L1351.11 688.125C1363.17 699.504 1373.65 710.076 1382.53 719.849C1391.4 729.627 1398.33 738.957 1403.31 747.84C1404.37 749.612 1404.9 751.214 1404.9 752.638C1404.9 760.809 1396.38 767.032 1379.34 771.299C1360.51 757.077 1337.07 734.694 1309.02 704.121C1293.04 687.06 1279.37 672.757 1268.01 661.204C1256.64 649.656 1247.05 640.503 1239.24 633.745C1238.53 638.368 1237.73 646.725 1236.85 658.804C1235.96 670.891 1234.8 686.711 1233.38 706.254C1231.6 735.762 1228.4 759.213 1223.79 776.631C1223.08 776.631 1221.31 777.43 1218.47 779.029C1215.62 780.63 1212.78 781.429 1209.95 781.429C1209.59 781.429 1209.23 781.338 1208.88 781.164C1208.52 780.979 1208.16 780.896 1207.81 780.896C1192.18 776.981 1184.37 766.144 1184.37 748.374C1184.37 745.526 1184.55 742.243 1184.91 738.512C1185.26 734.779 1185.79 730.962 1186.51 727.048L1189.17 707.856L1189.17 707.853ZM1291.98 491.394C1290.91 483.93 1287.8 477.183 1282.65 471.133C1277.5 465.093 1269.25 462.071 1257.89 462.071C1249.36 462.071 1244.04 464.737 1241.91 470.069C1241.19 475.049 1240.58 480.115 1240.04 485.264C1239.51 490.419 1239.24 495.485 1239.24 500.457C1239.24 505.08 1239.78 516.984 1240.84 536.179C1240.84 540.094 1240.93 543.642 1241.11 546.842C1241.28 550.041 1241.37 553.064 1241.37 555.906C1241.37 558.747 1241.28 561.594 1241.11 564.435C1240.92 567.285 1240.84 569.767 1240.84 571.901C1270.31 550.224 1287 529.071 1290.91 508.454C1291.26 505.973 1291.53 503.656 1291.71 501.524C1291.89 499.393 1291.98 497.442 1291.98 495.66V491.395L1291.98 491.394Z" fill="white"/>
<path d="M1568.16 581.767C1566.58 573.044 1563.66 564.159 1559.4 555.112C1555.11 546.023 1549.43 537.585 1542.34 529.795C1535.25 521.965 1526.37 516.286 1515.71 512.714C1510.03 510.929 1505.13 509.266 1501.07 507.643C1496.98 506.061 1493.33 504.56 1490.13 503.1C1485.15 500.99 1481.25 499.043 1478.42 497.257C1475.58 495.472 1473.19 494.053 1471.24 492.998C1469.26 491.943 1467.51 491.05 1465.89 490.319C1464.31 489.63 1462.24 489.265 1459.77 489.265C1449.47 489.265 1439.54 494.051 1429.94 503.667C1420.37 513.242 1411.9 524.967 1404.64 538.843C1397.35 552.718 1391.51 567.365 1387.05 582.822C1382.63 598.28 1380.4 611.871 1380.4 623.596C1380.4 638.526 1383.32 651.59 1389.2 662.788C1395.08 673.986 1402.17 683.519 1410.52 691.31C1418.83 699.14 1427.71 705.023 1437.15 708.918C1446.56 712.853 1454.99 714.801 1462.45 714.801C1473.11 714.801 1483.48 712.651 1493.62 708.391C1503.71 704.131 1513.11 698.166 1521.83 690.539C1530.54 682.871 1538.61 673.824 1546.07 663.316C1553.53 652.849 1559.93 641.408 1565.24 628.953C1568.81 621.853 1570.55 613.13 1570.55 602.825C1570.55 597.509 1569.78 590.49 1568.16 581.769L1568.16 581.767ZM1512.63 602.499L1508.45 604.487C1491.71 612.52 1480.16 627.855 1478.5 646.356L1477.12 665.425C1476.92 667.819 1473.59 668.265 1472.74 666.033L1465.69 647.939C1459.33 631.507 1444.81 618.403 1427.63 614.589L1422.93 613.575C1420.74 613.089 1420.49 610.045 1422.56 609.235H1422.6C1440.88 602.094 1453.33 584.527 1455.47 565.012L1457.99 546.268C1458.23 543.834 1461.6 543.469 1462.37 545.782L1468.28 563.43C1474.77 582.822 1491.59 595.846 1511.9 598.199C1513.2 598.321 1513.93 599.416 1513.93 600.47C1513.93 601.282 1513.52 602.094 1512.63 602.499H1512.63Z" fill="white"/>
<path d="M1613.71 743.039V731.311C1613.71 716.032 1614.15 698.523 1615.04 678.795C1615.92 659.068 1617.44 636.942 1619.57 612.416C1624.9 553.42 1627.56 510.587 1627.56 483.929C1627.56 474.69 1627.37 465.893 1627.02 457.537C1626.67 449.191 1626.13 440.926 1625.43 432.745C1630.04 428.13 1635.9 425.813 1643 425.813C1656.5 425.813 1664.31 430.795 1666.44 440.743C1666.44 444.299 1666.53 448.032 1666.71 451.94C1666.88 455.856 1666.97 460.119 1666.97 464.734C1666.97 478.597 1666.61 494.323 1665.91 511.918C1665.19 529.511 1664.13 549.505 1662.71 571.898C1660.93 596.421 1659.78 618.281 1659.25 637.475C1658.72 656.67 1658.45 673.38 1658.45 687.591V702.521C1667.68 698.971 1680.64 691.507 1697.33 680.127C1706.21 674.088 1713.76 669.022 1719.97 664.932C1726.18 660.851 1731.24 657.919 1735.15 656.136C1736.93 656.136 1740.03 655.787 1744.47 655.068C1748.91 654.361 1752.2 654.003 1754.33 654.003C1761.43 654.003 1766.58 656.851 1769.78 662.534C1771.91 666.799 1772.98 670.355 1772.98 673.197C1772.98 676.753 1771.91 679.779 1769.78 682.259L1707.46 726.513C1695.38 735.041 1684.1 742.508 1673.63 748.904C1663.15 755.302 1653.3 760.449 1644.07 764.365C1641.94 765.433 1639.81 765.967 1637.67 765.967C1632.7 765.967 1628.09 762.767 1623.83 756.369L1613.71 743.04L1613.71 743.039Z" fill="white"/>
<path d="M757.739 243.966C757.739 237.051 757.99 230.391 758.508 223.983C759.018 217.584 760.297 211.303 762.347 205.154C762.598 204.644 763.307 204.067 764.457 203.427C765.609 202.789 766.954 202.212 768.488 201.696C769.256 201.446 770.085 201.186 770.985 200.927C771.877 200.676 772.964 200.416 774.247 200.159C778.338 200.675 782.435 202.212 786.534 204.77C790.625 207.335 792.675 211.051 792.675 215.915C792.675 220.015 792.292 223.667 791.523 226.865C790.755 230.072 790.372 233.849 790.372 238.202C790.372 245.636 790.049 251.401 789.412 255.495C788.77 259.597 788.452 263.44 788.452 267.024C788.452 279.322 788.835 290.656 789.603 301.033C790.372 311.407 791.009 319.285 791.523 324.665C795.614 324.154 800.161 320.631 805.152 314.097C810.147 307.564 815.069 299.687 819.936 290.465C824.796 281.243 829.276 271.508 833.374 261.26C837.465 251.016 840.793 241.92 843.355 233.975C844.374 230.648 844.825 227.315 844.7 223.983C844.565 220.658 844.892 217.643 845.661 214.954C846.425 212.263 848.154 210.023 850.843 208.229C853.531 206.438 858.071 205.538 864.471 205.538C864.722 205.538 864.982 205.603 865.24 205.729C865.491 205.863 865.75 205.922 866.009 205.922C868.052 205.922 870.481 206.949 873.301 208.995C876.117 211.05 878.161 213.098 879.446 215.145C879.446 230.264 878.996 242.11 878.1 250.69C877.201 259.277 876.758 266.638 876.758 272.787C876.758 285.085 877.587 295.653 879.256 304.49C880.916 313.328 883.669 320.438 887.508 325.818C889.045 327.614 890.448 329.344 891.734 331.006C893.009 332.676 894.163 334.657 895.188 336.963C894.674 339.526 893.846 341.513 892.694 342.919C891.539 344.33 890.197 345.357 888.66 345.992C887.127 346.636 885.458 347.086 883.669 347.338C881.878 347.597 880.081 347.981 878.297 348.492C872.661 347.212 868.122 344.907 864.664 341.574C861.211 338.247 858.392 334.213 856.22 329.47C854.042 324.732 852.44 319.478 851.421 313.714C850.394 307.95 849.501 301.995 848.732 295.846L847.195 298.919C845.144 303.28 842.396 309.044 838.943 316.212C835.485 323.388 831.455 330.372 826.847 337.156C822.239 343.947 816.926 349.836 810.913 354.834C804.899 359.829 798.435 362.326 791.525 362.326C784.097 362.326 778.146 360.849 773.674 357.907C769.19 354.96 765.736 350.162 763.307 343.497C760.87 336.837 759.208 328.259 758.316 317.751C757.417 307.248 756.971 294.31 756.971 278.939C757.481 275.353 757.739 271.769 757.739 268.178V243.969V243.966Z" fill="white"/>
<path d="M948.552 296.996C952.133 293.412 955.012 288.801 957.19 283.164C959.361 277.53 961.471 272.151 963.522 267.023L964.291 264.717C965.828 260.622 968.13 255.56 971.201 249.538C974.271 243.52 977.856 237.756 981.95 232.245C986.045 226.738 990.526 222.061 995.388 218.217C1000.25 214.374 1005.24 212.452 1010.36 212.452C1014.71 213.738 1017.97 215.784 1020.15 218.601C1022.32 221.424 1023.99 224.559 1025.14 228.017C1026.3 231.475 1027.32 235.066 1028.22 238.776C1029.11 242.493 1030.33 246.017 1031.86 249.344C1035.19 256.778 1037.68 264.715 1039.35 273.169C1041.01 281.622 1042.42 290.209 1043.58 298.916C1044.73 307.63 1046.07 316.209 1047.61 324.663C1049.14 333.117 1051.45 340.935 1054.52 348.104C1054 352.198 1051.76 355.214 1047.8 357.134C1043.83 359.056 1040.31 360.016 1037.24 360.016C1032.63 360.016 1029.04 358.286 1026.49 354.828C1023.93 351.37 1021.94 347.143 1020.54 342.145C1019.13 337.15 1018.1 331.962 1017.46 326.582C1016.82 321.203 1015.99 316.723 1014.97 313.133C1013.68 308.78 1012.66 303.85 1011.9 298.338C1011.13 292.832 1010.23 287.259 1009.21 281.621C1008.18 275.991 1006.97 270.737 1005.56 265.868C1004.15 261.004 1002.17 257.029 999.612 253.954C995.255 260.87 991.743 267.345 989.054 273.36C986.365 279.383 983.928 285.147 981.758 290.653C979.579 296.165 977.469 301.545 975.425 306.793C973.37 312.047 970.818 317.361 967.747 322.741C963.648 330.175 959.934 335.94 956.612 340.034C953.283 344.137 950.211 347.144 947.395 349.065C944.575 350.987 941.892 352.138 939.334 352.523C936.774 352.907 934.344 353.099 932.038 353.099C929.478 353.099 926.339 351.814 922.635 349.256C918.919 346.699 917.067 343.626 917.067 340.034C917.067 323.894 917.128 308.907 917.259 295.073C917.386 281.24 917.45 266.637 917.45 251.266C917.45 246.913 917.319 242.494 917.067 238.009C916.809 233.529 916.682 229.11 916.682 224.751C916.682 221.677 917.259 218.667 918.41 215.72C919.562 212.778 921.541 210.666 924.361 209.379C925.898 209.379 927.435 209.319 928.969 209.188C930.506 209.06 931.908 208.995 933.195 208.995C936.517 208.995 939.145 209.956 941.064 211.876C942.984 213.798 944.386 216.169 945.286 218.986C946.182 221.809 946.756 224.751 947.015 227.824C947.265 230.9 947.398 233.462 947.398 235.509C947.398 238.331 947.717 241.021 948.358 243.578C948.995 246.143 949.318 248.832 949.318 251.648C949.318 261.129 949.187 269.2 948.935 275.857C948.677 282.522 948.552 288.924 948.552 295.071V296.992V296.996Z" fill="white"/>
<path d="M1120.17 342.342C1120.17 344.395 1119.65 346.442 1118.63 348.491C1117.61 350.544 1115.69 352.97 1112.87 355.791C1108.52 355.791 1104.49 355.406 1100.78 354.637C1097.06 353.869 1093.87 352.333 1091.18 350.027C1088.49 347.72 1086.38 344.394 1084.84 340.035C1083.31 335.682 1082.54 329.792 1082.54 322.357C1082.54 318.004 1082.09 313.651 1081.2 309.293C1080.3 304.94 1079.85 300.586 1079.85 296.228C1079.85 283.163 1079.09 270.739 1077.55 258.952C1076.01 247.172 1075.25 234.743 1075.25 221.678C1075.25 216.297 1077.42 212.203 1081.77 209.38C1084.33 208.611 1086.76 208.035 1089.07 207.65C1091.37 207.267 1093.93 206.823 1096.75 206.307C1100.33 207.334 1103.02 208.804 1104.81 210.726C1106.6 212.648 1108.27 214.509 1109.8 216.297C1109.54 218.862 1109.35 221.425 1109.23 223.982C1109.09 226.547 1109.03 229.236 1109.03 232.052C1109.03 241.793 1109.54 252.166 1110.57 263.179C1111.59 274.197 1112.74 284.699 1114.03 294.691C1115.3 304.681 1116.52 313.777 1117.67 321.973C1118.83 330.176 1119.65 336.451 1120.17 340.805V342.342H1120.17ZM1086.38 125.992C1087.66 124.714 1089.96 124.07 1093.29 124.07C1095.85 124.07 1098.47 124.52 1101.16 125.415C1103.85 126.316 1106.35 127.596 1108.65 129.258C1110.95 130.928 1112.8 132.784 1114.21 134.831C1115.62 136.884 1116.33 139.058 1116.33 141.362C1116.33 146.233 1115.11 149.498 1112.68 151.161C1110.24 152.83 1106.86 153.658 1102.51 153.658C1099.69 153.658 1096.81 153.213 1093.87 152.313C1090.92 151.417 1088.3 150.332 1085.99 149.047C1083.69 147.769 1081.83 146.424 1080.43 145.012C1079.02 143.608 1078.32 142.262 1078.32 140.978C1078.32 137.903 1078.64 135.214 1079.28 132.909C1079.91 130.602 1082.28 128.297 1086.38 125.99L1086.38 125.992Z" fill="white"/>
<path d="M1175.07 344.648C1172 340.036 1169.31 334.657 1167 328.508C1164.7 322.359 1162.71 316.019 1161.05 309.486C1159.38 302.955 1158.04 296.614 1157.02 290.465C1155.99 284.316 1155.35 278.936 1155.1 274.324C1154.33 265.871 1152.35 257.291 1149.15 248.578C1145.95 239.872 1144.35 231.285 1144.35 222.831C1144.35 218.478 1146.27 215.855 1150.11 214.954C1153.95 214.059 1157.53 213.609 1160.86 213.609C1161.88 213.609 1163.36 213.8 1165.28 214.185C1167.2 214.57 1169.12 215.212 1171.04 216.107C1172.96 217.007 1174.74 218.094 1176.41 219.373C1178.07 220.658 1179.16 222.195 1179.67 223.984C1179.67 229.111 1180.18 235.002 1181.21 241.661C1182.23 248.326 1183.45 254.92 1184.85 261.451C1186.26 267.985 1187.6 274.134 1188.89 279.898C1190.16 285.663 1191.06 290.34 1191.57 293.924C1195.92 288.544 1199.95 281.184 1203.67 271.827C1207.37 262.479 1211.21 253.256 1215.19 244.158C1219.15 235.07 1223.5 227.059 1228.24 220.141C1232.97 213.225 1238.67 209.382 1245.33 208.612C1250.7 208.612 1254.92 208.936 1257.99 209.573C1261.06 210.216 1263.37 211.177 1264.9 212.455C1266.44 213.74 1267.46 215.405 1267.98 217.451C1268.49 219.504 1269 221.936 1269.51 224.752C1265.16 229.621 1261.38 234.298 1258.18 238.777C1254.98 243.264 1251.98 247.808 1249.16 252.421C1246.34 257.031 1243.66 261.9 1241.1 267.023C1238.54 272.15 1235.73 277.656 1232.66 283.545C1232.14 284.83 1231.56 286.176 1230.93 287.581C1230.29 288.992 1229.59 290.338 1228.82 291.615C1225.23 296.484 1222.35 302.315 1220.18 309.101C1218 315.892 1215.57 322.491 1212.88 328.891C1210.19 335.297 1206.93 340.936 1203.09 345.8C1199.25 350.669 1193.88 353.485 1186.97 354.254L1175.07 344.647L1175.07 344.648Z" fill="white"/>
<path d="M1272.97 287.774C1272.97 278.299 1274.18 268.753 1276.61 259.146C1279.04 249.539 1282.69 240.893 1287.56 233.207C1292.42 225.522 1298.43 219.312 1305.6 214.569C1312.77 209.832 1321.08 207.459 1330.56 207.459C1337.21 207.459 1343.04 208.486 1348.03 210.533C1353.02 212.587 1357.18 215.276 1360.5 218.602C1363.83 221.934 1366.32 225.712 1367.99 229.939C1369.65 234.167 1370.49 238.585 1370.49 243.196C1370.49 249.093 1369.39 254.791 1367.22 260.297C1365.05 265.809 1361.91 270.739 1357.82 275.092C1353.72 279.451 1348.66 282.969 1342.65 285.66C1336.63 288.349 1329.79 289.828 1322.11 290.079C1318.78 290.337 1315.84 290.21 1313.28 289.694C1310.72 289.183 1307.78 288.417 1304.45 287.388C1304.2 288.673 1304.07 289.76 1304.07 290.654V292.769C1304.32 302.248 1305.86 309.677 1308.67 315.056C1311.49 320.435 1314.56 324.471 1317.89 327.159C1321.21 329.851 1324.41 331.578 1327.49 332.347C1330.56 333.117 1332.6 333.5 1333.63 333.5C1341.56 333.5 1348.15 331.712 1353.4 328.12C1358.64 324.536 1364.47 320.568 1370.87 316.207C1372.15 316.725 1373.56 317.3 1375.09 317.937C1376.63 318.579 1378.03 319.799 1379.32 321.588C1379.57 323.125 1379.83 324.342 1380.08 325.237C1380.33 326.138 1380.47 327.484 1380.47 329.273C1380.21 332.862 1379.25 335.87 1377.59 338.302C1375.92 340.741 1374.07 342.855 1372.02 344.644C1365.36 350.281 1359.16 353.927 1353.4 355.594C1347.64 357.259 1340.16 358.094 1330.94 358.094C1326.84 358.094 1321.79 357.193 1315.78 355.402C1309.76 353.607 1304.7 351.686 1300.61 349.638C1294.47 345.026 1289.67 340.416 1286.21 335.804C1282.76 331.194 1280.07 326.33 1278.15 321.202C1276.23 316.08 1274.95 310.765 1274.31 305.254C1273.67 299.747 1273.22 293.917 1272.97 287.768L1272.97 287.774ZM1306.37 267.023C1307.39 267.281 1308.99 267.473 1311.17 267.599C1313.34 267.733 1315.07 267.792 1316.35 267.792C1325.05 267.792 1331.77 265.617 1336.51 261.258C1341.24 256.905 1343.61 251.651 1343.61 245.502C1343.61 241.918 1342.59 238.587 1340.54 235.511C1338.49 232.438 1335.67 230.9 1332.09 230.9C1329.53 230.9 1327.04 231.158 1324.61 231.668C1322.17 232.187 1320.32 233.464 1319.04 235.511C1318.02 236.796 1316.86 238.076 1315.59 239.353C1314.3 240.638 1313.09 242.429 1311.94 244.734C1310.79 247.038 1309.7 249.921 1308.68 253.38C1307.65 256.838 1306.88 261.388 1306.37 267.021L1306.37 267.023Z" fill="white"/>
<path d="M1403.12 346.184C1403.63 344.904 1403.95 342.533 1404.08 339.074C1404.21 335.616 1404.27 331.329 1404.27 326.2C1404.27 321.336 1404.21 316.082 1404.08 310.444C1403.95 304.813 1403.82 299.625 1403.7 294.881C1403.56 290.143 1403.44 286.044 1403.31 282.583C1403.18 279.125 1403.12 277.143 1403.12 276.627V263.947C1403.12 258.314 1402.93 252.676 1402.54 247.037C1402.16 241.407 1401.84 235.768 1401.58 230.129V228.591C1401.58 226.285 1401.07 224.047 1400.05 221.866C1399.02 219.693 1398.51 217.321 1398.51 214.756C1399.53 211.43 1400.94 208.866 1402.74 207.071C1404.52 205.283 1407.73 204.383 1412.34 204.383C1416.69 204.383 1420.14 205.216 1422.7 206.88C1425.26 208.548 1427.18 210.596 1428.46 213.029C1429.74 215.466 1430.57 218.215 1430.96 221.29C1431.34 224.363 1431.66 227.311 1431.92 230.127L1433.07 250.495C1435.63 248.446 1438.31 245.438 1441.13 241.464C1443.95 237.496 1446.89 233.203 1449.96 228.59C1453.03 223.978 1456.23 219.499 1459.56 215.141C1462.88 210.788 1466.34 207.204 1469.93 204.381C1471.97 203.361 1474.53 202.843 1477.61 202.843C1483.75 202.843 1488.68 203.997 1492.39 206.303C1496.09 208.607 1498.98 212.325 1501.03 217.447C1500.51 219.754 1499.1 222.382 1496.8 225.324C1494.5 228.271 1491.87 231.347 1488.93 234.546C1485.99 237.753 1482.92 241.08 1479.72 244.538C1476.51 247.996 1473.77 251.396 1471.46 254.721C1467.62 258.823 1463.78 263.817 1459.94 269.709C1456.1 275.604 1452.65 281.62 1449.58 287.769C1446.5 293.918 1443.94 299.748 1441.9 305.255C1439.85 310.766 1438.83 315.184 1438.83 318.511C1438.83 320.565 1438.89 323.448 1439.02 327.157C1439.15 330.873 1439.21 333.756 1439.21 335.803C1439.21 338.879 1438.96 342.018 1438.44 345.218C1437.93 348.425 1436.91 351.367 1435.37 354.056C1433.84 356.747 1431.79 358.92 1429.23 360.589C1426.67 362.251 1423.34 363.086 1419.25 363.086C1414.38 363.086 1410.48 361.609 1407.54 358.667C1404.59 355.72 1403.12 352.068 1403.12 347.715V346.178L1403.12 346.184Z" fill="white"/>
<path d="M1566.67 276.245C1571.79 285.986 1576.52 295.783 1580.88 305.642C1585.23 315.508 1587.4 326.586 1587.4 338.884C1587.4 345.29 1586.31 351.313 1584.14 356.944C1581.96 362.577 1578.96 367.572 1575.12 371.93C1571.28 376.284 1566.67 379.744 1561.3 382.307C1555.92 384.864 1550.17 386.149 1544.02 386.149C1538.65 386.149 1533.71 384.037 1529.24 379.808C1524.76 375.581 1522.26 370.778 1521.75 365.398C1522.77 363.344 1523.73 361.872 1524.63 360.979C1525.52 360.079 1527.51 359.249 1530.58 358.48C1533.65 361.556 1536.73 363.092 1539.8 363.092C1544.15 363.092 1547.99 361.17 1551.32 357.327C1554.64 353.485 1556.31 348.621 1556.31 342.725C1556.31 340.676 1556.18 339.399 1555.92 338.883C1553.1 327.354 1549.52 316.919 1545.17 307.563C1540.82 298.214 1536.53 289.442 1532.31 281.242C1528.09 273.046 1524.44 265.293 1521.37 257.991C1518.29 250.691 1516.76 243.329 1516.76 235.895C1516.76 229.746 1517.27 223.406 1518.29 216.874C1519.31 210.34 1521.11 204.257 1523.67 198.621C1526.23 192.988 1529.62 188.376 1533.85 184.787C1538.07 181.202 1543.51 179.407 1550.16 179.407C1550.93 179.407 1551.63 179.473 1552.27 179.599C1552.91 179.73 1553.62 179.791 1554.38 179.791C1556.94 179.791 1559.12 181.136 1560.91 183.826C1562.7 186.515 1563.98 188.887 1564.75 190.936C1564.75 192.989 1564.04 194.586 1562.64 195.739C1561.23 196.892 1559.89 198.112 1558.61 199.389C1555.54 203.491 1553.29 208.035 1551.89 213.033C1550.48 218.028 1549.78 223.09 1549.78 228.211V237.433C1549.78 239.229 1550.41 241.794 1551.7 245.118C1552.98 248.45 1554.45 251.976 1556.11 255.686C1557.77 259.402 1559.44 262.861 1561.1 266.062C1562.76 269.269 1564.11 271.635 1565.13 273.172L1566.67 276.245H1566.67Z" fill="white"/>
<path d="M1654.98 353.871C1650.62 353.871 1646.72 352.651 1643.27 350.22C1639.81 347.789 1636.16 345.416 1632.32 343.11C1623.88 338.246 1617.35 331.841 1612.74 323.896C1608.14 315.959 1605.83 306.221 1605.83 294.692C1605.83 289.059 1606.79 282.335 1608.71 274.518C1610.63 266.704 1612.36 259.469 1613.9 252.804C1614.66 249.99 1616.45 246.079 1619.27 241.085C1622.08 236.09 1625.6 231.226 1629.83 226.483C1634.05 221.745 1638.85 217.584 1644.23 213.995C1649.6 210.41 1655.1 208.614 1660.73 208.614C1663.04 208.614 1665.34 209.383 1667.64 210.92C1671.22 213.227 1674.94 215.147 1678.78 216.685C1682.62 218.222 1686.52 219.76 1690.49 221.296C1694.45 222.834 1698.36 224.503 1702.2 226.292C1706.04 228.087 1709.62 230.394 1712.95 233.21C1715.76 235.514 1717.94 238.336 1719.47 241.663C1721.01 244.995 1722.54 248.196 1724.08 251.27C1725.36 253.835 1726.13 256.458 1726.38 259.149C1726.64 261.837 1726.77 264.594 1726.77 267.41V274.71C1726.51 282.655 1724.91 290.021 1721.97 296.807C1719.02 303.598 1715.5 310.197 1711.41 316.597C1709.36 319.929 1706.67 323.773 1703.35 328.126C1700.02 332.484 1696.31 336.58 1692.22 340.424C1688.12 344.266 1683.83 347.534 1679.35 350.222C1674.87 352.914 1670.33 354.258 1665.72 354.258C1664.44 354.258 1663.09 354.19 1661.69 354.065C1660.28 353.934 1658.81 353.873 1657.28 353.873H1654.97L1654.98 353.871ZM1692.6 262.029C1692.6 254.6 1689.91 249.222 1684.54 245.889C1679.16 242.562 1673.27 240.894 1666.88 240.894C1661.75 240.894 1657.4 242.881 1653.82 246.85C1650.24 250.823 1647.16 255.687 1644.61 261.452C1642.05 267.216 1640.19 273.365 1639.04 279.899C1637.89 286.43 1637.31 292.135 1637.31 296.997C1637.31 298.025 1637.51 300.073 1637.89 303.146C1638.27 306.222 1638.98 309.427 1640 312.753C1641.02 316.085 1642.5 319.034 1644.41 321.592C1646.33 324.155 1648.83 325.435 1651.9 325.435C1654.71 325.435 1657.27 324.99 1659.58 324.089C1661.88 323.194 1664.44 322.108 1667.26 320.823C1671.35 318.266 1674.94 314.808 1678.01 310.447C1681.08 306.094 1683.58 301.358 1685.5 296.229C1687.42 291.107 1688.95 285.727 1690.1 280.089C1691.26 274.458 1692.08 269.076 1692.6 263.951V262.029H1692.6Z" fill="white"/>
<path d="M528.589 839.21C510.453 848.617 443.422 878.977 332.312 878.977C227.969 878.977 155.486 848.382 135.886 839.083C132.746 837.597 131.05 834.157 131.75 830.739L156.06 713.309L156.463 713.246C208.137 705.05 268.633 688.023 331.443 663.989C393.658 688.045 454.071 704.243 506.189 710.826L507.229 710.953L532.471 830.995C533.15 834.286 531.581 837.641 528.59 839.212L528.589 839.21Z" fill="white"/>
<path d="M505.786 702.184C457.253 695.942 401.104 681.143 343.279 659.403C355.137 654.71 366.783 649.912 377.919 645.093C415.104 629.043 450.572 611.632 483.26 593.31L505.787 702.184H505.786Z" fill="white"/>
<path d="M416.929 272.971L458.038 207.557C459.672 204.924 458.123 201.486 455.09 200.976L416.929 194.585V124.521L453.266 124.033C457.721 123.99 460.605 119.34 458.696 115.307C447.538 91.9946 411.562 28.8322 345.868 21.4855V12.2929C345.868 5.51996 340.353 0 333.586 0H330.575C323.829 0 318.293 5.51996 318.293 12.2929V21.4855C252.599 28.8322 216.622 91.9946 205.465 115.307C203.534 119.341 206.44 123.99 210.895 124.033L247.232 124.521V193.523L208.9 200.869C205.91 201.443 204.447 204.839 206.059 207.408L247.232 272.971L183.553 582.546L184.465 583.097C216.22 602.141 250.414 619.891 286.114 635.879C300.941 642.524 316.193 648.915 331.466 654.88C345.975 649.275 360.462 643.351 374.548 637.28C411.713 621.272 447.286 603.756 480.292 585.242L481.203 584.732L416.931 272.972L416.929 272.971ZM358.15 174.925C358.15 177.409 356.155 179.405 353.695 179.405H310.465C308.003 179.405 305.988 177.409 305.988 174.925V146.051C305.988 131.698 317.719 119.957 332.08 119.957C339.249 119.957 345.761 122.888 350.491 127.622C355.222 132.356 358.15 138.874 358.15 146.051V174.925Z" fill="white"/>
<path d="M319.67 659.359C261.781 680.972 205.908 696.557 157.904 704.434L181.343 591.122C213.013 610.039 247.102 627.725 282.653 643.649C295.062 649.211 307.514 654.476 319.668 659.359H319.67Z" fill="white"/>
<path d="M649.561 675.262C638.446 700.124 605.418 713.075 554.806 713.075C540.317 713.075 524.346 711.991 507.036 709.847L505.996 703.521C506.357 703.414 506.739 703.393 507.121 703.436C581.046 712.756 630.852 701.546 643.749 672.671C656.604 643.946 632.061 599.529 576.421 550.824C575.106 549.678 574.979 547.661 576.124 546.345C577.291 545.007 579.307 544.88 580.621 546.048C639.359 597.449 663.837 643.352 649.561 675.262Z" fill="white"/>
<path d="M551.486 529.516C550.811 529.516 550.13 529.302 549.552 528.859C525.107 510.106 497.286 491.708 466.856 474.175C465.333 473.298 464.81 471.352 465.687 469.826C466.562 468.301 468.509 467.778 470.032 468.655C500.702 486.325 528.759 504.88 553.424 523.803C554.819 524.874 555.082 526.871 554.014 528.268C553.387 529.087 552.442 529.515 551.487 529.515L551.486 529.516Z" fill="white"/>
<path d="M116.445 545.767C115.776 545.767 115.104 545.557 114.531 545.124C35.4803 485.422 -1.85616 427.738 14.6541 390.821C32.3546 351.238 106.795 342.079 213.779 366.321C215.493 366.709 216.568 368.416 216.18 370.13C215.792 371.848 214.084 372.921 212.374 372.533C110.119 349.364 36.5843 357.368 20.4622 393.422C5.24869 427.44 41.8474 482.25 118.362 540.04C119.766 541.1 120.045 543.096 118.985 544.5C118.36 545.331 117.407 545.767 116.443 545.767H116.445Z" fill="white"/>
<path d="M183.274 583.627L181.662 589.848C181.301 589.784 180.962 589.657 180.644 589.466C166.474 580.973 152.771 572.183 139.875 563.352C138.433 562.354 138.072 560.379 139.047 558.916C140.044 557.472 142.038 557.111 143.48 558.087C156.059 566.728 169.465 575.327 183.274 583.629V583.627Z" fill="white"/>
<path d="M483.914 591.738C483.617 591.908 483.278 592.036 482.959 592.078L481.453 585.794C598.397 520.146 666.488 451.739 650.876 415.519C649.01 411.21 645.912 407.366 641.67 404.097C640.27 403.036 639.994 401.039 641.076 399.638C642.136 398.238 644.131 397.983 645.531 399.044C650.664 402.972 654.418 407.664 656.73 413.014C673.976 453.056 606.139 523.226 483.914 591.74V591.738Z" fill="white"/>
<path d="M462.168 407.274C460.738 407.274 459.44 406.304 459.08 404.854C458.658 403.147 459.699 401.42 461.404 400.997C473.121 398.093 498.047 392.38 508.469 390.292C510.2 389.937 511.868 391.066 512.213 392.789C512.557 394.514 511.44 396.192 509.718 396.537C499.559 398.572 474.342 404.35 462.935 407.178C462.678 407.241 462.42 407.272 462.168 407.272V407.274Z" fill="white"/>
<path d="M29.0557 646.834C28.4914 646.834 27.9208 646.685 27.4041 646.368C25.9029 645.453 25.4274 643.494 26.3425 641.992C49.4384 604.047 107.883 556.675 186.689 512.02C188.217 511.152 190.159 511.691 191.024 513.223C191.89 514.752 191.352 516.696 189.822 517.562C111.931 561.697 54.3262 608.258 31.7752 645.304C31.1763 646.29 30.1288 646.832 29.0557 646.832V646.834Z" fill="white"/>
<path d="M155.534 706.106L153.98 712.511C131.951 715.111 112.103 716.107 94.8124 715.512C72.4607 714.744 54.3708 711.319 41.2497 705.323C39.6483 704.588 38.9414 702.695 39.6843 701.084C40.4066 699.494 42.3075 698.794 43.9294 699.53C66.2902 709.774 104.504 712.042 154.409 706.046C154.808 705.996 155.182 706.03 155.534 706.106Z" fill="white"/>
<path d="M623.512 391.68L619.133 393.152C601.539 399.067 588.188 412.858 584.259 431.013L580.572 449.763C580.064 452.111 576.738 452.167 576.149 449.839L571.375 431.013C567.058 413.915 554.265 399.156 537.655 393.274L533.115 391.666C530.999 390.916 531.136 387.875 533.312 387.32L533.351 387.309C552.343 382.463 566.857 366.558 571.375 347.469L576.14 329.164C576.702 326.793 580.093 326.847 580.577 329.236L584.258 347.469C588.327 367.52 603.453 382.501 623.323 387.314C625.538 387.851 625.673 390.954 623.512 391.679V391.68Z" fill="white"/>
<path d="M22.2734 699.148C34.5746 699.148 44.5467 689.167 44.5467 676.854C44.5467 664.542 34.5746 654.561 22.2734 654.561C9.97212 654.561 0 664.542 0 676.854C0 689.167 9.97212 699.148 22.2734 699.148Z" fill="white"/>
</g>
<defs>
<clipPath id="clip0_388_2">
<rect width="1773" height="879" fill="white"/>
</clipPath>
</defs>
</svg>
