<svg width="600" height="600" viewBox="0 0 600 600" fill="none" xmlns="http://www.w3.org/2000/svg">
<mask id="mask0_512_1546" style="mask-type:luminance" maskUnits="userSpaceOnUse" x="0" y="90" width="600" height="510">
<path d="M600 90H0V600H600V90Z" fill="white"/>
</mask>
<g mask="url(#mask0_512_1546)">
<path d="M277.622 363.961C277.622 363.961 277.612 363.991 277.612 364.001H277.602L277.622 363.961Z" fill="#05183C"/>
<path d="M279.5 362.091C279.44 362.111 279.39 362.131 279.33 362.161C279.35 362.161 279.38 362.131 279.41 362.121C279.44 362.111 279.47 362.091 279.5 362.091Z" fill="#05183C"/>
<path d="M283.06 362.591C283.06 362.591 283.02 362.571 283 362.551C283.02 362.561 283.04 362.581 283.06 362.591Z" fill="#05183C"/>
<path d="M284.142 364.121H284.132C284.132 364.121 284.112 364.031 284.092 363.991C284.112 364.031 284.132 364.081 284.142 364.121Z" fill="#05183C"/>
<path d="M280.921 361.561L280.911 361.571L266.621 355.791V355.781L280.921 361.561Z" fill="#05183C"/>
<path d="M357.681 333.68L355.641 334.42L355.201 333.44L357.681 333.68Z" fill="#05183C"/>
<path d="M418.621 311.551L418.631 311.491L418.751 311.501L418.621 311.551Z" fill="#05183C"/>
<path d="M421.63 280.601L418.63 311.481L336.02 303.451L299.52 299.891L284.42 298.431L285 300.491L285.59 302.561L372 310.961L410.05 314.661L366.41 330.511H366.4L353.31 329.241L354.26 331.341L355.2 333.441L310.61 329.101L293.41 354.561L270 352.281C268.34 352.121 266.86 353.331 266.7 355.001L266.62 355.781L242.18 345.901H242.17L240.67 345.291L240.27 345.121L239.17 344.671H239.15L236.13 343.451L205.02 330.851H205.01L200.48 329.021L187.03 323.571H187.02L182.5 321.741L170.85 317.021H170.84L168.09 315.911L136.9 303.281H136.89L134.54 302.331L132.2 301.381L117.32 295.361L129.18 290.711L131.05 289.971L132.93 289.241L159.42 278.851L230.09 251.121H230.1L232.18 250.311L234.27 249.481L237.88 248.071L254.64 241.491H254.65L256.73 240.681L258.82 239.851H258.83L263.23 238.131L265.09 237.391L266.97 236.661L281.43 230.991L284.89 229.631C287.45 228.631 290.26 228.631 292.81 229.631L317.1 239.241L326.44 242.931H326.45L336.67 246.981H336.68L369.57 260.011H369.58L400.71 272.321L421.64 280.601H421.63Z" fill="#05183C"/>
<path d="M460.982 296.171L447.262 301.151L448.242 291.131L460.982 296.171Z" fill="#05183C"/>
<path d="M277.601 364C277.601 364 277.591 364.02 277.591 364.03C277.591 364.03 277.601 364.01 277.611 364C277.611 363.99 277.611 363.98 277.621 363.96L277.601 364ZM279.411 362.12C279.411 362.12 279.351 362.15 279.331 362.16C279.391 362.13 279.441 362.11 279.501 362.09C279.471 362.09 279.441 362.11 279.411 362.12ZM200.501 329.01L187.041 323.57L200.491 329.02L205.021 330.85L200.511 329.01H200.501ZM242.191 345.89L240.271 345.12L240.671 345.29L242.171 345.9H242.181L266.621 355.78L242.191 345.89ZM239.161 344.67L240.271 345.12L239.171 344.67H239.161ZM205.021 330.85L236.131 343.45L239.151 344.67H239.161L236.151 343.44L205.021 330.85ZM266.621 355.78L280.911 361.57H280.921L266.621 355.78ZM283.001 362.55C283.001 362.55 283.041 362.58 283.061 362.6C283.061 362.6 283.021 362.56 283.001 362.55ZM284.091 363.99C284.091 363.99 284.121 364.08 284.131 364.12H284.141C284.141 364.12 284.111 364.03 284.091 363.99Z" fill="white"/>
<path d="M277.31 382.221L276.86 592.641C276.81 592.621 276.75 592.601 276.7 592.581L120.54 530.121C116.46 528.481 113.8 524.591 113.75 520.191L112.24 378.161L240.79 429.931C242.64 430.671 244.54 431.031 246.41 431.031C246.8 431.031 247.19 431.011 247.58 430.981C248.2 430.931 248.81 430.851 249.41 430.711C250.5 430.491 251.57 430.141 252.57 429.671C252.81 429.561 253.05 429.451 253.28 429.321C253.45 429.231 253.61 429.141 253.77 429.051C253.99 428.921 254.21 428.791 254.42 428.651C256.79 427.111 258.75 424.871 259.97 422.071L277.31 382.221Z" fill="#1A3C7D"/>
<path d="M283.002 362.551C283.002 362.551 283.042 362.581 283.062 362.601C283.062 362.601 283.022 362.561 283.002 362.551ZM279.412 362.121C279.412 362.121 279.352 362.151 279.332 362.161C279.392 362.131 279.442 362.111 279.502 362.091C279.472 362.091 279.442 362.111 279.412 362.121ZM277.602 364.001C277.602 364.001 277.592 364.021 277.592 364.031C277.592 364.031 277.602 364.011 277.612 364.001C277.612 363.991 277.612 363.981 277.622 363.961L277.602 364.001Z" fill="white"/>
<path d="M467.831 521.601C467.841 526.221 464.911 530.331 460.551 531.841L284.251 592.761C284.121 592.801 283.991 592.851 283.861 592.891L284.321 379.781L306.641 423.421C306.971 424.061 307.331 424.661 307.741 425.231C308.341 426.091 309.021 426.861 309.771 427.561C312.521 430.101 316.141 431.521 319.881 431.521C321.591 431.521 323.331 431.221 325.021 430.591L467.521 377.881L467.831 521.601Z" fill="#06296B"/>
<path d="M284.09 363.991C284.09 363.991 284.12 364.081 284.13 364.121H284.14C284.14 364.121 284.11 364.031 284.09 363.991ZM283 362.551C283 362.551 283.04 362.581 283.06 362.601C283.06 362.601 283.02 362.561 283 362.551ZM279.41 362.121C279.41 362.121 279.35 362.151 279.33 362.161C279.39 362.131 279.44 362.111 279.5 362.091C279.47 362.091 279.44 362.111 279.41 362.121Z" fill="white"/>
<path d="M418.762 311.5H418.752L418.622 311.55L414.412 313.08L418.432 313.47L420.422 313.66L420.612 311.68L418.762 311.5ZM168.082 315.91C168.092 316.01 168.102 316.12 168.132 316.23C168.322 316.89 168.922 317.32 169.582 317.32C169.712 317.32 169.852 317.3 169.992 317.26L170.832 317.02L168.082 315.91ZM362.052 332.1L357.692 333.68L373.852 335.26H373.892L373.912 335.24H373.922L378.222 333.67L362.052 332.1ZM422.612 311.87L422.792 310.04L420.702 310.8L418.762 311.5H418.752L418.622 311.55L414.412 313.08L418.432 313.47L420.422 313.66L422.412 313.86L430.592 314.65H430.612L432.342 314.02L434.952 313.07L422.612 311.87ZM447.002 283.11L445.072 282.35L426.212 274.89L424.272 274.12L422.342 273.36L399.602 264.36L394.172 262.21L372.842 253.77L362.282 249.59H362.252L352.052 245.54H352.022L337.832 239.92L327.592 235.87L317.832 232.01L295.372 223.12C291.172 221.47 286.542 221.46 282.322 223.11L282.212 223.15L265.052 229.89L263.172 230.62L261.302 231.35L259.582 232.03L257.482 232.85L255.402 233.67H255.392L235.952 241.3L235.022 241.66L232.932 242.48L230.852 243.3L213.262 250.2L205.522 253.24L183.282 261.96L156.042 272.64L131.002 282.47L129.132 283.2L127.262 283.93L129.172 290.71L131.042 289.97L132.922 289.24L159.412 278.85L230.082 251.12H230.092L232.172 250.31L234.262 249.48L234.852 249.25L237.872 248.07L254.632 241.49H254.642L256.722 240.68L258.812 239.85H258.822L263.222 238.13L265.082 237.39L266.962 236.66L281.422 230.99L284.882 229.63C287.442 228.63 290.252 228.63 292.802 229.63L317.092 239.24L326.432 242.93H326.442L336.662 246.98H336.672L343.142 249.55L369.562 260.01H369.572L400.702 272.32L421.632 280.6L423.562 281.37L425.502 282.13L444.372 289.6L446.302 290.36L448.242 291.13L448.942 283.88L447.002 283.11ZM414.412 313.08L418.432 313.47L418.622 311.55L414.412 313.08Z" fill="white"/>
<path d="M284.142 364.121H284.132C284.132 364.121 284.112 364.031 284.092 363.991C284.112 364.031 284.132 364.081 284.142 364.121ZM283.062 362.591C283.062 362.591 283.022 362.571 283.002 362.551C283.022 362.561 283.042 362.581 283.062 362.591ZM279.412 362.121C279.412 362.121 279.472 362.091 279.502 362.091C279.442 362.111 279.392 362.131 279.332 362.161C279.352 362.161 279.382 362.131 279.412 362.121ZM277.602 364.001L277.622 363.961C277.622 363.961 277.612 363.991 277.612 364.001C277.602 364.011 277.592 364.021 277.592 364.031C277.592 364.031 277.602 364.011 277.602 364.001ZM276.862 592.641C276.812 592.621 276.752 592.601 276.702 592.581L120.542 530.121C116.462 528.481 113.802 524.591 113.752 520.191L113.602 506.231L112.242 378.161L240.792 429.931C242.642 430.671 244.542 431.031 246.412 431.031C246.802 431.031 247.192 431.011 247.582 430.981C248.202 430.931 248.812 430.851 249.412 430.711C250.502 430.491 251.572 430.141 252.572 429.671C252.812 429.561 253.052 429.451 253.282 429.321C253.452 429.231 253.612 429.141 253.772 429.051C253.992 428.921 254.212 428.791 254.422 428.651C256.792 427.111 258.752 424.871 259.972 422.071L277.312 382.221L276.972 540.851L276.862 592.641ZM467.832 521.601C467.842 526.221 464.912 530.331 460.552 531.841L284.252 592.761C284.122 592.801 283.992 592.851 283.862 592.891L283.972 540.991L284.322 379.781L306.642 423.421C306.972 424.061 307.332 424.661 307.742 425.231C308.342 426.091 309.022 426.861 309.772 427.561C312.522 430.101 316.142 431.521 319.882 431.521C321.592 431.521 323.332 431.221 325.022 430.591L467.522 377.881L467.802 506.371L467.832 521.601ZM505.732 344.551L473.882 294.561L473.802 294.431C473.642 294.181 473.452 293.961 473.242 293.761C473.192 293.701 473.132 293.651 473.072 293.611C472.922 293.481 472.762 293.371 472.602 293.281C472.532 293.241 472.462 293.201 472.382 293.171C472.292 293.121 472.192 293.081 472.092 293.041L448.942 283.881L448.242 291.131L460.982 296.171L447.262 301.151L445.182 301.911H445.172L443.102 302.661L422.792 310.041L422.612 311.871L434.952 313.071L442.342 310.391L443.092 310.111L443.442 309.981L444.412 309.631L446.502 308.881L469.402 300.561L499.822 348.311C501.102 350.321 501.402 352.781 500.642 355.041C499.882 357.311 498.152 359.091 495.912 359.921L469.822 369.571L322.582 424.031C318.862 425.411 314.682 423.781 312.872 420.241L285.762 367.251L314.932 356.651L373.842 335.261L357.682 333.681H357.672L355.632 334.421L298.752 355.081L280.912 361.561H280.902L266.612 355.791L242.172 345.901H242.162L240.662 345.291L240.262 345.121L239.162 344.671H239.142L236.122 343.451L205.012 330.851H205.002L200.472 329.021L187.022 323.571H187.012L182.492 321.741L170.842 317.021H170.832L169.992 317.261C169.852 317.301 169.712 317.321 169.582 317.321C168.922 317.321 168.322 316.891 168.132 316.231C168.102 316.121 168.092 316.011 168.082 315.911L136.892 303.281H136.882L134.532 302.331L132.192 301.381L117.312 295.361L129.172 290.711L127.262 283.931L106.572 292.051L106.512 292.081C106.332 292.161 106.152 292.251 105.972 292.361C105.862 292.431 105.762 292.501 105.672 292.581C105.532 292.691 105.402 292.801 105.292 292.931C105.172 293.061 105.072 293.191 104.972 293.331C104.912 293.401 104.872 293.471 104.832 293.551C104.822 293.561 104.812 293.581 104.802 293.591L75.6619 345.311C73.5619 349.041 73.1719 353.491 74.5819 357.521C75.9919 361.561 79.0819 364.791 83.0519 366.401L105.202 375.321L106.562 502.951L106.752 520.271C106.822 527.501 111.222 533.921 117.942 536.621L274.092 599.081C276.032 599.851 278.092 600.281 280.222 600.341H280.352C280.492 600.341 280.632 600.351 280.772 600.351C282.732 600.351 284.662 600.021 286.532 599.381L462.832 538.461C470.012 535.971 474.832 529.201 474.832 521.601V521.581L474.792 503.071L474.522 375.301L498.352 366.481H498.362C502.592 364.911 505.852 361.551 507.282 357.271C508.722 352.991 508.162 348.361 505.732 344.551ZM276.212 367.211L253.552 419.281C251.872 423.151 247.332 425.011 243.412 423.431L109.912 369.661L85.6719 359.901C83.5719 359.061 81.9419 357.341 81.1919 355.211C80.4419 353.071 80.6519 350.721 81.7619 348.751L109.392 299.711L134.602 309.911L134.792 309.991L135.092 310.111L136.942 310.861H136.952L137.242 310.981L138.352 311.431L138.882 311.641L138.922 311.661L139.032 311.701L139.262 311.801H139.302L171.632 324.891L176.042 326.671L178.592 327.711L180.382 328.431L181.882 329.041H181.902L183.022 329.501L189.492 332.121L194.012 333.951H194.022L212.772 341.541L224.582 346.321L225.142 346.551H225.152L228.172 347.771H228.182L231.202 348.991L266.152 363.131L276.202 367.201L276.212 367.211Z" fill="white"/>
<path d="M276.211 367.211L253.551 419.281C251.871 423.151 247.331 425.011 243.411 423.431L109.911 369.661L85.6711 359.901C83.5711 359.061 81.9411 357.341 81.1911 355.211C80.4411 353.071 80.6511 350.721 81.7611 348.751L109.391 299.711L134.601 309.911L134.791 309.991L135.091 310.111L136.941 310.861H136.951L137.241 310.981L138.351 311.431L138.881 311.641L138.921 311.661L139.031 311.701L139.261 311.801H139.301L171.631 324.891L176.031 326.681L178.591 327.711L180.381 328.431L181.881 329.041H181.901L183.021 329.501L189.491 332.121L194.011 333.951H194.021L212.771 341.541L224.581 346.321L225.141 346.551H225.151L228.171 347.771H228.181L231.191 349.001L266.151 363.141L276.201 367.211H276.211Z" fill="#1A3C7D"/>
<path d="M178.591 327.711L176.031 326.681L171.631 324.891L176.041 326.671L178.591 327.711Z" fill="#1A3C7D"/>
<path d="M266.161 363.132V363.141L231.201 349.001L228.191 347.771L231.211 348.991L266.161 363.132Z" fill="#1A3C7D"/>
<path d="M276.21 367.201V367.211L266.16 363.141L276.21 367.201Z" fill="#1A3C7D"/>
<path d="M277.612 364.001C277.612 364.001 277.592 364.021 277.592 364.031C277.592 364.031 277.602 364.011 277.602 364.001H277.612Z" fill="#1A3C7D"/>
<path d="M277.601 364.001C277.601 364.001 277.591 364.021 277.591 364.031C277.591 364.031 277.601 364.011 277.611 364.001C277.611 363.991 277.611 363.981 277.621 363.961L277.601 364.001ZM279.411 362.121C279.411 362.121 279.351 362.151 279.331 362.161C279.391 362.131 279.441 362.111 279.501 362.091C279.471 362.091 279.441 362.111 279.411 362.121ZM284.091 363.991C284.091 363.991 284.121 364.081 284.131 364.121H284.141C284.141 364.121 284.111 364.031 284.091 363.991ZM176.041 326.671L171.631 324.891L176.031 326.681L178.591 327.711L176.041 326.671ZM231.211 348.991L228.191 347.771L231.201 349.001L266.161 363.141L231.211 348.991Z" fill="white"/>
<path d="M500.651 355.041C499.891 357.311 498.162 359.091 495.922 359.921L469.831 369.571L322.591 424.031C318.871 425.411 314.692 423.781 312.882 420.241L285.771 367.251L314.941 356.651L373.852 335.261H373.892L373.901 335.251H373.911L378.221 333.671L382.581 332.091H382.591L426.232 316.241L430.581 314.661H430.611L432.341 314.021L434.952 313.071L442.341 310.391L443.091 310.111L443.441 309.981L444.411 309.641L446.501 308.881L469.401 300.561L499.822 348.311C501.102 350.321 501.402 352.781 500.642 355.041H500.651Z" fill="#06296B"/>
<path d="M314.941 356.65L285.771 367.25V367.24L314.941 356.65Z" fill="#06296B"/>
<path d="M373.921 335.23H373.931L373.901 335.25L373.861 335.26L373.921 335.23Z" fill="#06296B"/>
<path d="M432.342 314.021L430.612 314.651L430.592 314.661V314.651L432.342 314.021Z" fill="#06296B"/>
<path d="M284.092 363.99C284.092 363.99 284.122 364.08 284.132 364.12H284.142C284.142 364.12 284.112 364.03 284.092 363.99ZM283.002 362.55C283.002 362.55 283.042 362.58 283.062 362.6C283.062 362.6 283.022 362.56 283.002 362.55ZM277.602 364C277.602 364 277.592 364.02 277.592 364.03C277.592 364.03 277.602 364.01 277.612 364H277.602Z" fill="white"/>
<path d="M449.821 274.86C449.181 274.61 448.531 274.36 447.881 274.11C447.231 273.86 446.591 273.61 445.941 273.37C439.801 271.06 433.481 268.88 426.991 266.84C426.341 266.63 425.691 266.43 425.041 266.23C424.391 266.03 423.741 265.83 423.091 265.63C407.241 260.82 390.431 256.83 372.841 253.77C363.161 252.07 353.251 250.66 343.141 249.55C326.011 247.67 308.301 246.63 290.171 246.54C283.331 246.51 276.551 246.61 269.831 246.83C269.141 246.85 268.461 246.88 267.771 246.9C267.091 246.93 266.401 246.96 265.721 246.99C263.161 247.1 260.621 247.22 258.091 247.37H258.081C257.401 247.41 256.731 247.45 256.061 247.49C255.381 247.53 254.711 247.57 254.041 247.62C248.681 247.97 243.371 248.4 238.111 248.92C237.021 249.02 235.931 249.13 234.851 249.25C234.661 249.27 234.471 249.29 234.281 249.31C233.601 249.38 232.921 249.45 232.251 249.52C231.571 249.6 230.891 249.68 230.221 249.75C223.911 250.47 217.691 251.31 211.551 252.26C209.531 252.57 207.521 252.9 205.521 253.24C202.271 253.78 199.051 254.36 195.861 254.98C195.531 255.03 195.201 255.1 194.871 255.17C188.241 256.44 181.731 257.86 175.351 259.4C168.041 261.17 160.891 263.1 153.941 265.2C145.171 267.84 136.701 270.74 128.571 273.87C127.941 274.11 127.321 274.35 126.701 274.6C126.071 274.84 125.451 275.08 124.831 275.33C58.3008 301.88 15.1708 344.34 14.9308 392.39C14.7608 425.13 34.5308 455.48 68.1008 480.11C74.3408 484.68 81.0508 489.06 88.2008 493.21C94.0308 496.61 100.161 499.85 106.561 502.95C108.871 504.06 111.221 505.16 113.601 506.23C158.241 526.39 214.911 539.13 276.971 540.85C279.291 540.91 281.631 540.96 283.971 540.99C285.531 541.02 287.101 541.03 288.671 541.04C357.041 541.39 419.631 528.3 467.801 506.37C470.171 505.29 472.501 504.19 474.791 503.07C517.431 482.27 547.701 454.28 559.011 422.61C561.971 414.35 563.631 405.83 563.891 397.13C563.911 396.49 563.921 395.84 563.921 395.19C564.171 345.84 519.141 301.93 449.821 274.86Z" stroke="white" stroke-width="6.77" stroke-miterlimit="10"/>
<path d="M546.84 425.15L538.5 429.5C537.44 430.03 536.4 428.77 537.11 427.82L542.87 420.2C545.79 416.34 547.63 411.69 548.18 406.91C548.62 403.12 548.25 399.25 546.99 395.63L546.67 394.72L546.2 393.39C545.84 392.35 547.05 391.46 547.93 392.13H547.95C548.27 392.38 548.59 392.61 548.92 392.84C556.53 398.01 566.6 398.48 574.96 394.52L575.61 394.23L583.46 390.72C584.54 390.21 585.57 391.53 584.8 392.45L579.41 398.9L578.93 399.47C572.76 406.86 571.49 416.71 575.11 425.53C575.28 425.94 575.46 426.34 575.64 426.74C575.89 427.27 575.69 427.79 575.32 428.09C574.97 428.37 574.47 428.45 574.02 428.16L572.74 427.33L572.11 426.92C568.71 424.73 564.98 423.34 561.16 422.82C556.34 422.16 551.4 422.88 546.83 425.16L546.84 425.15Z" fill="white" stroke="#E4DEDE" stroke-width="1.27" stroke-miterlimit="10"/>
<path d="M77.9414 498.971C84.5689 498.971 89.9414 493.598 89.9414 486.971C89.9414 480.343 84.5689 474.971 77.9414 474.971C71.314 474.971 65.9414 480.343 65.9414 486.971C65.9414 493.598 71.314 498.971 77.9414 498.971Z" fill="white" stroke="#E4DEDE" stroke-width="2" stroke-miterlimit="10"/>
<path d="M355.64 334.42L298.76 355.08L293.41 354.56L310.61 329.1L355.2 333.44L355.64 334.42Z" fill="#EE4A00"/>
<path d="M355.201 333.44L310.611 329.1L311.891 327.22L313.161 325.33L315.071 322.51L351.901 326.09L353.311 329.24L354.261 331.34L355.201 333.44Z" fill="#EE4A00"/>
<path d="M418.62 311.55L418.63 311.49L418.75 311.5H418.76L420.7 310.8L420.61 311.68L420.42 313.66V313.67L418.43 313.48L414.41 313.08L418.62 311.55Z" fill="#FF9460"/>
<path d="M432.721 187.27L424.271 274.12L423.561 281.37L421.631 280.6L418.631 311.48V311.49L336.021 303.45L299.521 299.89L284.421 298.43L285.001 300.49L282.861 300.28L281.891 300.19L280.731 300.07H280.721L275.301 299.54L253.211 297.39L251.221 297.2L251.411 295.21L256.721 240.68L257.481 232.85L258.571 221.69V221.68L259.101 216.23V216.22L259.111 216.08L259.631 210.74L263.521 170.8L265.521 170.99L288.821 173.26L311.391 175.46L317.561 176.06L321.441 176.44L327.311 177.01L331.961 177.46L338.131 178.06L348.841 179.1L354.311 179.64L359.261 180.12L366.661 180.84L370.351 181.2L376.121 181.76L384.391 182.57L387.661 182.88L409.511 185.01L430.731 187.08H430.741L432.721 187.27Z" fill="#FF9460"/>
<path d="M420.7 310.8L418.76 311.5H418.63L418.62 311.55L414.41 313.08H414.38L410.05 314.66L372 310.96L410.05 314.67L418.24 315.46L422.22 315.85L422.41 313.86L422.61 311.87L422.79 310.04L420.7 310.8ZM432.91 185.28L430.93 185.08L409.71 183.02L387.28 180.84L382.57 180.38C382.57 180.38 382.57 180.37 382.56 180.38L377.95 179.93L371.94 179.34L365.55 178.72L357.86 177.97H357.85L355.23 177.72L350.37 177.24H350.36L339.69 176.2H339.68L330.83 175.34L326.62 174.93L319.47 174.24L317.78 174.07L310.27 173.34L289.04 171.28L265.73 169.01L263.74 168.81L261.75 168.62L261.56 170.61L261.36 172.6L258.17 205.45V205.47L257.63 210.92L257.1 216.39L255.42 233.67L254.66 241.49L253.56 252.84L249.79 291.63L249.48 294.8L249.46 295.02L249.26 297.01L249.07 299L253.05 299.39L281.34 302.14L283.47 302.35L285.62 302.56L285.03 300.49L284.45 298.43L282.31 298.22L280.21 298.01H280.17L253.44 295.41L254.88 280.63L256.77 261.22L258.84 239.85H258.85L259.61 232.03L260.1 226.98L260.63 221.53L261.16 216.05L265.35 172.98L288.64 175.25L311.23 177.45L317.4 178.05L321.4 178.43L327.07 178.99H327.08L331.8 179.45L337.97 180.05L347.97 181.02L354.1 181.62L360.02 182.19L367.19 182.89L369.41 183.11L375.38 183.69L409.34 186.99L430.57 189.06L422.37 273.36L421.66 280.6L423.59 281.37L425.53 282.13L426.24 274.89L434.55 189.45L434.75 187.46L434.94 185.47L432.94 185.28H432.91Z" fill="white"/>
<path d="M263.52 170.8L251.22 297.2L227.83 294.92L238.53 184.94C239.41 175.87 247.47 169.23 256.55 170.12L263.52 170.8Z" fill="#EE4A00"/>
<path d="M253.02 299.39L225.65 296.73L236.55 184.76C237.54 174.61 246.61 167.16 256.75 168.14L265.71 169.01L253.02 299.39ZM230.02 293.13L249.43 295.02L261.34 172.6L256.36 172.12C248.39 171.34 241.3 177.19 240.52 185.15L230.01 293.14L230.02 293.13Z" fill="white"/>
<path d="M444.371 289.6L443.101 302.66L422.791 310.04L425.501 282.13L444.371 289.6Z" fill="#EE4A00"/>
<path d="M454.511 205.961L447.001 283.111L446.301 290.361L444.371 289.601L425.501 282.131L423.561 281.37L424.271 274.12L432.721 187.271L434.711 187.461H434.721L439.691 187.941C448.761 188.831 455.401 196.901 454.511 205.961Z" fill="#EE4A00"/>
<path d="M422.61 311.87L422.79 310.04L420.7 310.8L418.76 311.5H418.75L418.62 311.55L418.43 313.47L420.42 313.66L422.41 313.86L430.59 314.65H430.61L432.34 314.02L434.95 313.07L422.61 311.87ZM422.61 311.87L422.79 310.04L420.7 310.8L418.76 311.5H418.63L418.62 311.55L418.43 313.47L418.24 315.46L422.22 315.85L426.23 316.24L430.58 314.66H430.61L432.34 314.02L434.95 313.07L422.61 311.87ZM422.61 311.87L422.79 310.04L420.7 310.8L418.76 311.5H418.75L418.62 311.55L418.43 313.47L420.42 313.66L422.41 313.86L430.59 314.65H430.61L432.34 314.02L434.95 313.07L422.61 311.87ZM439.88 185.95L434.91 185.47L432.91 185.27L430.93 185.08L430.74 187.08H430.73L430.54 189.06L422.34 273.36L421.63 280.6L423.56 281.37L425.5 282.13L426.21 274.89L434.52 189.45L439.5 189.93C447.45 190.71 453.3 197.81 452.52 205.77L445.07 282.35L444.37 289.6L446.3 290.36L448.24 291.13L448.94 283.88L456.5 206.16C457.49 196 450.04 186.94 439.88 185.95Z" fill="white"/>
<path d="M448.242 291.13L447.262 301.15L445.182 301.91H445.172L443.102 302.66L444.372 289.6L446.302 290.36L448.242 291.13Z" fill="white"/>
<path d="M430.591 314.65V314.66H430.581L426.231 316.24L382.591 332.09H382.581L378.241 333.67H378.221L362.051 332.1L366.401 330.51H366.411L410.051 314.67V314.66L414.381 313.08H414.411L418.431 313.47L420.421 313.66V313.67L422.411 313.86L430.591 314.65Z" fill="white"/>
<path d="M410.05 314.671L366.41 330.511H366.4L353.31 329.241L354.26 331.341L311.89 327.221L289.17 325.011L287.12 324.811L285.07 324.611L241.95 320.411H241.93C239.93 320.221 238.06 319.691 236.35 318.881H236.34C233.1 317.351 230.49 314.841 228.85 311.751C228.38 310.861 227.99 309.931 227.7 308.951C227.1 306.971 226.87 304.841 227.08 302.641L227.23 301.081L227.54 297.871L227.64 296.911L227.83 294.931L235.37 295.661L243.58 296.461H243.59L249.23 297.011L251.22 297.201L253.21 297.401L275.3 299.541L280.72 300.071L281.88 300.191L282.85 300.281L284.99 300.491L285.58 302.561L371.99 310.961L410.04 314.661L410.05 314.671Z" fill="#FF6D2A"/>
<path d="M414.411 313.08H414.381L410.051 314.66L418.241 315.46L418.431 313.48L418.621 311.55L414.411 313.08ZM422.411 313.86L420.421 313.67L420.611 311.68L418.761 311.5H418.751L418.621 311.55L414.411 313.08H414.381L410.051 314.66L418.241 315.46L422.221 315.85L426.231 316.24L430.581 314.66H430.591L422.411 313.86ZM285.001 300.49L282.861 300.28L281.891 300.19L280.731 300.07L275.311 299.54L253.221 297.39L253.031 299.39L281.321 302.14L283.451 302.35L285.601 302.56L285.011 300.49H285.001ZM247.241 318.92H247.231L241.951 320.41L285.071 324.61C285.141 324.45 285.201 324.29 285.251 324.13C285.311 323.98 285.361 323.83 285.411 323.67C285.511 323.34 285.591 323 285.671 322.66L247.241 318.92ZM354.261 331.34L353.311 329.24L313.161 325.33L289.671 323.04L287.661 322.85L285.671 322.66L247.241 318.92H247.231L242.121 318.42C241.251 318.34 240.401 318.18 239.591 317.96C235.751 316.93 232.641 314.46 230.811 311.2C230.311 310.32 229.911 309.39 229.621 308.41C229.081 306.66 228.881 304.78 229.071 302.84L229.301 300.5L229.611 297.29L229.631 297.11L230.091 297.15H230.101L238.301 297.95H238.321L249.041 299L253.021 299.39L281.311 302.14L283.441 302.35L285.591 302.56L285.001 300.49L284.421 298.43L299.521 299.89L284.421 298.42L282.271 298.21L280.181 298.01H280.141L253.411 295.4L251.411 295.21L249.431 295.02H249.421L248.881 294.97H248.871L240.661 294.17H240.651L230.021 293.13L228.021 292.93L226.041 292.74L225.651 296.72L225.481 298.46L225.171 301.67L225.091 302.45C224.851 304.91 225.101 307.3 225.761 309.5C226.041 310.48 226.411 311.41 226.861 312.31C228.341 315.32 230.651 317.87 233.551 319.67H233.561C234.851 320.47 236.261 321.12 237.771 321.59C239.031 321.99 240.361 322.27 241.741 322.4L284.121 326.52L286.291 326.73L288.431 326.94L310.611 329.1L355.201 333.44L354.261 331.34ZM422.411 313.86L420.421 313.67L418.431 313.47L418.621 311.55L414.411 313.08H414.381L410.051 314.66L418.241 315.46L422.221 315.85L426.231 316.24L430.581 314.66H430.591L422.411 313.86ZM366.401 330.51L362.051 332.1L357.691 333.68L373.851 335.26H373.891L373.911 335.24L378.221 333.67L382.581 332.09L366.411 330.51H366.401ZM285.671 322.66L247.241 318.92H247.231L241.951 320.41L285.071 324.61L287.121 324.81C287.211 324.58 287.291 324.34 287.351 324.09C287.481 323.69 287.581 323.27 287.661 322.85L285.671 322.66ZM285.001 300.49L282.861 300.28L281.891 300.19L280.731 300.07L275.311 299.54L253.221 297.39L253.031 299.39L281.321 302.14L283.451 302.35L285.601 302.56L285.011 300.49H285.001Z" fill="white"/>
<path d="M366.401 330.51L362.051 332.1L357.691 333.68H357.681L355.201 333.44L354.261 331.34L353.311 329.24L366.401 330.51Z" fill="white"/>
<path d="M418.62 311.55L418.63 311.49L418.75 311.5H418.76L420.7 310.8L420.61 311.68L420.42 313.66V313.67L418.43 313.48L414.41 313.08L418.62 311.55Z" fill="#FF9460"/>
<path d="M439.39 118.73L432.91 185.27L432.72 187.27L424.27 274.12L423.56 281.37L421.63 280.6L418.63 311.48L336.02 303.45L299.52 299.89L284.42 298.43L285 300.49L282.86 300.28L281.89 300.19L280.73 300.07L275.31 299.54L253.22 297.39L251.23 297.2L251.42 295.21L256.73 240.68L257.49 232.85L258.58 221.69L259.11 216.23L259.12 216.08L259.65 210.74L263.53 170.8L263.73 168.81L270.18 102.509C270.46 99.5495 273.1 97.3795 276.06 97.6695L394.44 109.189L396.43 109.38L434.77 113.11C437.6 113.39 439.68 115.9 439.4 118.73H439.39Z" fill="#FF9460"/>
<path d="M258.811 239.85L256.741 261.22L258.821 239.85H258.811ZM420.701 310.8L418.761 311.5H418.631L418.621 311.55L414.411 313.08H414.381L410.051 314.66L372.001 310.96L410.051 314.67L418.241 315.46L422.221 315.85L422.411 313.86L422.611 311.87L422.791 310.04L420.701 310.8ZM439.781 113.69C438.571 112.22 436.851 111.31 434.961 111.12L276.251 95.6799C274.281 95.4899 272.361 96.0699 270.841 97.3299C269.311 98.5799 268.371 100.35 268.181 102.32L261.731 168.61L261.531 170.61L261.341 172.6L258.141 205.45V205.47L257.611 210.94L257.081 216.4L255.401 233.67H255.391L254.631 241.49L253.531 252.84L249.751 291.64L249.451 294.8L249.441 294.81L249.421 295.02L249.041 299L253.021 299.39L281.311 302.14L283.441 302.35L285.591 302.56L285.001 300.49L284.421 298.43L282.281 298.22L280.181 298.01H280.141L253.411 295.41L254.851 280.63L256.741 261.22L258.821 239.85L259.581 232.03L260.071 226.98L260.601 221.53L261.131 216.05L265.321 172.98L265.521 170.99L265.711 169.01L269.901 125.91L270.101 123.92L270.291 121.92L272.161 102.71C272.241 101.8 272.681 100.99 273.381 100.42C274.071 99.8399 274.961 99.5699 275.861 99.6599L394.241 111.18L398.221 111.56L434.571 115.1C435.411 115.19 436.161 115.59 436.701 116.24C437.231 116.89 437.481 117.7 437.401 118.54L435.511 138L435.311 139.99L435.121 141.99L430.931 185.08L430.731 187.08L430.541 189.06L422.341 273.36L421.631 280.6L423.561 281.37L425.501 282.13L426.211 274.89L434.521 189.45L434.711 187.46L434.911 185.47L441.381 118.92C441.571 117.02 441.001 115.17 439.781 113.69Z" fill="white"/>
<path d="M425.501 282.13L422.791 310.04L420.701 310.8L418.761 311.5H418.751L418.631 311.49V311.48L421.631 280.6L423.561 281.37L425.501 282.13Z" fill="white"/>
<path d="M418.632 311.49L418.622 311.55L414.412 313.08H414.382L410.052 314.66L372.002 310.96L285.592 302.56L285.002 300.49L284.422 298.43L299.522 299.89L336.022 303.45L418.632 311.49Z" fill="#EE4A00"/>
<path d="M283.541 114.98C285.568 114.98 287.211 113.337 287.211 111.31C287.211 109.283 285.568 107.64 283.541 107.64C281.514 107.64 279.871 109.283 279.871 111.31C279.871 113.337 281.514 114.98 283.541 114.98Z" fill="#FF6D2A"/>
<path d="M295.029 116.1C297.056 116.1 298.699 114.457 298.699 112.43C298.699 110.403 297.056 108.76 295.029 108.76C293.003 108.76 291.359 110.403 291.359 112.43C291.359 114.457 293.003 116.1 295.029 116.1Z" fill="#FF6D2A"/>
<path d="M306.512 117.22C308.539 117.22 310.182 115.577 310.182 113.55C310.182 111.523 308.539 109.88 306.512 109.88C304.485 109.88 302.842 111.523 302.842 113.55C302.842 115.577 304.485 117.22 306.512 117.22Z" fill="#FF6D2A"/>
<path d="M318.381 118.369C320.408 118.369 322.051 116.726 322.051 114.699C322.051 112.672 320.408 111.029 318.381 111.029C316.355 111.029 314.711 112.672 314.711 114.699C314.711 116.726 316.355 118.369 318.381 118.369Z" fill="#FF6D2A"/>
<path d="M411.481 127.43C413.508 127.43 415.151 125.787 415.151 123.76C415.151 121.733 413.508 120.09 411.481 120.09C409.454 120.09 407.811 121.733 407.811 123.76C407.811 125.787 409.454 127.43 411.481 127.43Z" fill="#FF6D2A"/>
<path d="M422.961 128.55C424.988 128.55 426.631 126.907 426.631 124.88C426.631 122.853 424.988 121.21 422.961 121.21C420.934 121.21 419.291 122.853 419.291 124.88C419.291 126.907 420.934 128.55 422.961 128.55Z" fill="#FF6D2A"/>
<path d="M394.416 109.188L391.896 135.066L395.878 135.454L398.397 109.576L394.416 109.188Z" fill="white"/>
<path d="M268.612 121.772L268.225 125.754L436.449 142.13L436.837 138.148L268.612 121.772Z" fill="white"/>
<path d="M313.628 214.345L289.343 211.879C286.068 211.546 283.144 213.931 282.811 217.206L280.842 236.596C280.509 239.871 282.894 242.795 286.169 243.128L310.454 245.595C313.729 245.927 316.653 243.542 316.986 240.267L318.955 220.877C319.288 217.602 316.903 214.678 313.628 214.345Z" fill="#EE4A00"/>
<path d="M405.242 227.35C405.192 227.35 405.142 227.35 405.092 227.35L325.412 219.26C324.592 219.18 323.992 218.44 324.072 217.62C324.152 216.8 324.892 216.2 325.712 216.28L405.392 224.37C406.212 224.45 406.812 225.19 406.732 226.01C406.652 226.78 406.002 227.36 405.242 227.36V227.35Z" fill="#FF6D2A"/>
<path d="M404.591 233.759C404.541 233.759 404.491 233.759 404.441 233.759L324.761 225.669C323.941 225.589 323.341 224.849 323.421 224.029C323.501 223.209 324.241 222.599 325.061 222.689L404.741 230.779C405.561 230.859 406.161 231.599 406.081 232.419C406.001 233.189 405.351 233.769 404.591 233.769V233.759Z" fill="#FF6D2A"/>
<path d="M403.941 240.159C403.891 240.159 403.841 240.159 403.791 240.159L324.111 232.069C323.291 231.989 322.691 231.249 322.771 230.429C322.851 229.609 323.601 229.009 324.411 229.089L404.091 237.179C404.911 237.259 405.511 237.999 405.431 238.819C405.351 239.589 404.701 240.169 403.941 240.169V240.159Z" fill="#FF6D2A"/>
<path d="M403.29 246.559C403.24 246.559 403.19 246.559 403.14 246.559L323.46 238.469C322.64 238.389 322.04 237.649 322.12 236.829C322.2 236.009 322.94 235.399 323.76 235.489L403.44 243.579C404.26 243.659 404.86 244.399 404.78 245.219C404.7 245.989 404.05 246.569 403.29 246.569V246.559Z" fill="#FF6D2A"/>
<path d="M402.572 253.67C402.522 253.67 402.472 253.67 402.422 253.67L322.742 245.58C321.922 245.5 321.322 244.76 321.402 243.94C321.482 243.12 322.232 242.51 323.042 242.6L402.722 250.69C403.542 250.77 404.142 251.51 404.062 252.33C403.982 253.1 403.332 253.68 402.572 253.68V253.67Z" fill="#FF6D2A"/>
<path d="M368.27 291.145L392.555 293.612C395.83 293.944 398.754 291.559 399.087 288.284L401.056 268.894C401.389 265.619 399.004 262.695 395.729 262.362L371.444 259.896C368.169 259.563 365.245 261.948 364.912 265.223L362.943 284.613C362.61 287.888 364.995 290.812 368.27 291.145Z" fill="#EE4A00"/>
<path d="M356.341 289.23C356.291 289.23 356.241 289.23 356.191 289.23L276.511 281.14C275.691 281.06 275.091 280.32 275.171 279.5C275.251 278.68 275.991 278.08 276.811 278.16L356.491 286.25C357.311 286.33 357.911 287.07 357.831 287.89C357.751 288.66 357.101 289.24 356.341 289.24V289.23Z" fill="#FF6D2A"/>
<path d="M356.992 282.82C356.942 282.82 356.892 282.82 356.842 282.82L277.162 274.73C276.342 274.65 275.742 273.91 275.822 273.09C275.902 272.27 276.652 271.66 277.462 271.75L357.142 279.84C357.962 279.92 358.562 280.66 358.482 281.48C358.402 282.25 357.752 282.83 356.992 282.83V282.82Z" fill="#FF6D2A"/>
<path d="M357.64 276.42C357.59 276.42 357.54 276.42 357.49 276.42L277.81 268.33C276.99 268.25 276.39 267.51 276.47 266.69C276.55 265.87 277.28 265.27 278.11 265.35L357.79 273.44C358.61 273.52 359.21 274.26 359.13 275.08C359.05 275.85 358.4 276.43 357.64 276.43V276.42Z" fill="#FF6D2A"/>
<path d="M358.29 270.02C358.24 270.02 358.19 270.02 358.14 270.02L278.46 261.93C277.64 261.85 277.04 261.11 277.12 260.29C277.2 259.47 277.94 258.86 278.76 258.95L358.44 267.04C359.26 267.12 359.86 267.86 359.78 268.68C359.7 269.45 359.05 270.03 358.29 270.03V270.02Z" fill="#FF6D2A"/>
<path d="M359.011 262.91C358.961 262.91 358.911 262.91 358.861 262.91L279.181 254.82C278.361 254.74 277.761 254 277.841 253.18C277.921 252.36 278.651 251.76 279.481 251.84L359.161 259.93C359.981 260.01 360.581 260.75 360.501 261.57C360.421 262.34 359.771 262.92 359.011 262.92V262.91Z" fill="#FF6D2A"/>
<path d="M405.498 165.459L296.707 154.409C293.433 154.076 290.508 156.461 290.176 159.736L286.531 195.612C286.199 198.886 288.584 201.811 291.859 202.143L400.649 213.194C403.924 213.526 406.848 211.141 407.181 207.867L410.825 171.991C411.157 168.716 408.772 165.792 405.498 165.459Z" fill="#EE4A00"/>
<path d="M327.521 186.61C327.391 187.95 326.721 188.97 325.521 189.68C324.321 190.39 322.521 190.63 320.141 190.4L309.571 189.37C309.051 189.32 308.671 189.16 308.451 188.89C308.231 188.62 308.131 188.28 308.171 187.86C308.231 187.2 308.571 186.75 309.191 186.5L309.641 186.32C309.851 186.23 310.031 186.12 310.181 185.98C310.321 185.84 310.411 185.59 310.451 185.25L311.451 174.99C311.481 174.64 311.451 174.39 311.331 174.22C311.221 174.05 311.061 173.91 310.871 173.78L310.471 173.51C309.921 173.14 309.671 172.63 309.731 171.98C309.771 171.56 309.931 171.25 310.201 171.03C310.471 170.81 310.871 170.73 311.391 170.78L319.631 171.58C321.311 171.74 322.751 172.11 323.931 172.69C325.111 173.27 326.001 174 326.591 174.9C327.181 175.8 327.421 176.81 327.311 177.95C327.221 178.83 326.891 179.58 326.301 180.22C325.711 180.86 324.901 181.32 323.851 181.62C322.801 181.92 321.551 181.99 320.081 181.85L320.621 181.25C322.091 181.39 323.361 181.71 324.421 182.21C325.491 182.71 326.291 183.34 326.841 184.1C327.391 184.86 327.621 185.71 327.531 186.64L327.521 186.61ZM318.731 182.86L314.701 182.47L314.911 180.34L318.051 180.65C318.741 180.72 319.331 180.65 319.811 180.47C320.291 180.28 320.681 179.96 320.961 179.5C321.241 179.04 321.421 178.45 321.491 177.73C321.561 177.01 321.491 176.39 321.261 175.86C321.031 175.33 320.671 174.9 320.161 174.59C319.651 174.27 318.991 174.07 318.181 174L317.751 173.96L316.641 185.38C316.571 186.1 316.701 186.65 317.031 187.05C317.361 187.45 317.861 187.67 318.531 187.74L319.001 187.79C319.471 187.84 319.881 187.79 320.231 187.65C320.581 187.51 320.871 187.29 321.081 186.98C321.291 186.67 321.421 186.27 321.471 185.8C321.551 184.99 321.341 184.33 320.841 183.81C320.341 183.29 319.641 182.98 318.721 182.89L318.731 182.86Z" fill="white"/>
<path d="M339.431 176.33L338.981 176.52C338.781 176.61 338.601 176.72 338.451 176.86C338.301 177 338.211 177.25 338.181 177.59L337.171 188.01C337.131 188.46 337.201 188.79 337.381 188.99C337.571 189.19 337.851 189.31 338.221 189.35L339.341 189.46C339.791 189.5 340.201 189.49 340.551 189.41C340.911 189.33 341.231 189.17 341.531 188.93C341.831 188.69 342.111 188.34 342.371 187.91L343.071 186.74C343.331 186.32 343.611 186.05 343.911 185.94C344.211 185.83 344.551 185.83 344.931 185.96C345.321 186.09 345.591 186.33 345.751 186.68C345.911 187.03 345.901 187.44 345.721 187.92L344.411 191.28C344.151 191.94 343.861 192.42 343.551 192.71C343.241 193 342.791 193.11 342.201 193.05C341.901 193.02 341.611 192.95 341.351 192.85C341.081 192.74 340.791 192.63 340.471 192.52C340.151 192.41 339.751 192.33 339.271 192.28L330.141 191.39C329.621 191.34 329.241 191.18 329.021 190.91C328.801 190.64 328.701 190.3 328.741 189.88C328.801 189.22 329.141 188.77 329.761 188.52L330.211 188.34C330.421 188.25 330.601 188.14 330.751 188C330.891 187.86 330.981 187.61 331.021 187.27L332.021 177.01C332.051 176.66 332.021 176.41 331.901 176.24C331.791 176.07 331.631 175.93 331.441 175.8L331.041 175.53C330.491 175.16 330.241 174.65 330.301 174C330.341 173.58 330.501 173.27 330.771 173.05C331.041 172.83 331.441 172.75 331.961 172.8L339.061 173.49C339.581 173.54 339.961 173.7 340.181 173.97C340.401 174.24 340.501 174.58 340.461 175C340.401 175.66 340.061 176.11 339.441 176.36L339.431 176.33Z" fill="white"/>
<path d="M358.242 174.79C359.762 174.94 361.102 175.31 362.272 175.91C363.442 176.51 364.422 177.29 365.192 178.24C365.962 179.19 366.532 180.28 366.872 181.5C367.222 182.72 367.322 184.03 367.192 185.42C367.062 186.81 366.692 188.19 366.122 189.36C365.542 190.53 364.782 191.53 363.842 192.34C362.892 193.15 361.792 193.74 360.522 194.12C359.252 194.49 357.862 194.61 356.332 194.46C354.802 194.31 353.422 193.94 352.242 193.34C351.062 192.74 350.092 191.96 349.322 190.99C348.552 190.02 348.002 188.91 347.672 187.64C347.342 186.38 347.252 185.01 347.392 183.53C347.522 182.2 347.862 180.97 348.422 179.85C348.982 178.72 349.722 177.76 350.662 176.95C351.602 176.14 352.702 175.54 353.982 175.15C355.262 174.76 356.672 174.64 358.232 174.79H358.242ZM360.502 188.43C360.602 187.37 360.612 186.31 360.522 185.26C360.432 184.21 360.262 183.22 360.022 182.29C359.782 181.36 359.472 180.52 359.112 179.79C358.752 179.06 358.352 178.48 357.912 178.04C357.472 177.6 357.012 177.36 356.552 177.31C356.092 177.26 355.682 177.37 355.352 177.62C355.022 177.87 354.752 178.26 354.552 178.8C354.352 179.34 354.212 180.02 354.132 180.83C354.022 181.92 354.022 182.99 354.122 184.05C354.222 185.11 354.402 186.1 354.662 187.03C354.922 187.96 355.232 188.78 355.592 189.5C355.952 190.22 356.352 190.79 356.782 191.21C357.212 191.63 357.642 191.87 358.072 191.91C358.502 191.95 358.892 191.87 359.222 191.65C359.552 191.43 359.832 191.07 360.052 190.54C360.272 190.02 360.422 189.31 360.502 188.42V188.43Z" fill="white"/>
<path d="M385.821 195.88C385.771 196.37 385.621 196.72 385.381 196.93C385.131 197.14 384.771 197.23 384.301 197.18C384.021 197.15 383.771 197.06 383.571 196.91C383.371 196.76 383.191 196.59 383.041 196.4C382.891 196.21 382.731 196.05 382.571 195.9C382.411 195.75 382.231 195.67 382.031 195.65C381.831 195.63 381.561 195.67 381.271 195.77C380.981 195.87 380.631 195.99 380.231 196.13C379.831 196.27 379.371 196.37 378.861 196.45C378.351 196.53 377.761 196.54 377.101 196.47C375.641 196.33 374.361 195.97 373.251 195.4C372.151 194.83 371.241 194.07 370.521 193.14C369.811 192.2 369.301 191.11 369.001 189.87C368.701 188.62 368.621 187.25 368.771 185.76C368.911 184.37 369.281 183.1 369.901 181.96C370.521 180.82 371.321 179.84 372.301 179.03C373.281 178.22 374.391 177.63 375.631 177.25C376.871 176.87 378.171 176.75 379.541 176.88C380.441 176.97 381.171 177.11 381.731 177.29C382.281 177.48 382.741 177.66 383.091 177.82C383.441 177.99 383.761 178.09 384.041 178.11C384.291 178.13 384.511 178.09 384.701 177.99C384.891 177.88 385.081 177.78 385.271 177.67C385.461 177.56 385.651 177.52 385.871 177.54C386.241 177.58 386.491 177.7 386.621 177.92C386.751 178.14 386.851 178.49 386.941 178.97L387.751 183.32C387.831 183.73 387.741 184.06 387.491 184.31C387.241 184.56 386.901 184.7 386.491 184.74C386.151 184.76 385.841 184.69 385.551 184.53C385.271 184.37 385.041 184.06 384.871 183.62C384.501 182.64 384.071 181.87 383.571 181.29C383.071 180.71 382.541 180.29 381.961 180.03C381.381 179.77 380.791 179.6 380.181 179.54C379.261 179.45 378.441 179.63 377.711 180.08C376.981 180.53 376.391 181.22 375.931 182.15C375.471 183.08 375.171 184.23 375.041 185.59C374.891 187.14 374.991 188.49 375.351 189.62C375.711 190.75 376.231 191.66 376.931 192.32C377.631 192.98 378.411 193.35 379.291 193.44C379.531 193.46 379.731 193.46 379.901 193.44C380.071 193.41 380.211 193.36 380.311 193.28C380.421 193.21 380.501 193.1 380.551 192.98C380.611 192.85 380.641 192.7 380.661 192.53L380.871 190.42C380.891 190.16 380.861 189.98 380.751 189.86C380.651 189.74 380.481 189.62 380.261 189.49L379.851 189.25C379.531 189.06 379.271 188.85 379.081 188.63C378.891 188.41 378.811 188.13 378.841 187.78C378.881 187.38 379.031 187.08 379.301 186.87C379.571 186.66 379.971 186.59 380.491 186.64L386.941 187.27C387.471 187.32 387.851 187.48 388.071 187.73C388.291 187.98 388.381 188.31 388.341 188.7C388.311 189.02 388.211 189.27 388.041 189.46C387.871 189.65 387.641 189.8 387.341 189.92L387.091 190.02C386.901 190.09 386.721 190.19 386.571 190.31C386.421 190.43 386.331 190.65 386.301 190.96L385.821 195.92V195.88Z" fill="white"/>
<path d="M298.761 355.08L280.921 361.56L266.621 355.78L266.701 355C266.861 353.33 268.341 352.12 270.001 352.28L293.411 354.56L298.761 355.08Z" fill="#FF6D2A"/>
<path d="M178.591 327.71L176.031 326.68L171.631 324.89L176.041 326.67L178.591 327.71Z" fill="#FF6D2A"/>
<path d="M287.661 322.849C287.581 323.269 287.481 323.689 287.351 324.089C287.281 324.339 287.211 324.579 287.121 324.809C286.891 325.469 286.611 326.119 286.291 326.729C284.541 330.059 281.491 332.699 277.611 333.799L239.171 344.669H239.151L236.131 343.449L205.021 330.849H205.011L200.481 329.019L187.031 323.569H187.021L182.501 321.739L170.851 317.019H170.841L170.001 317.259C169.861 317.299 169.721 317.319 169.591 317.319C168.931 317.319 168.331 316.889 168.141 316.229C168.111 316.119 168.101 316.009 168.091 315.909L136.901 303.279H136.891L134.541 302.329L131.051 289.969L129.141 283.199L111.971 222.459L106.881 204.459C105.201 198.519 107.611 192.339 112.421 188.979H112.431C113.691 188.089 115.111 187.409 116.661 186.969L227.291 155.709C234.781 153.589 242.651 157.989 244.771 165.489L246.131 170.299L246.691 172.269L247.251 174.259L257.611 210.919L257.621 210.939L259.111 216.219L260.611 221.519L263.181 230.619L265.091 237.389L276.611 278.139L277.481 281.229L282.281 298.209H282.291L282.871 300.279L283.451 302.349L287.401 316.309C288.021 318.509 288.081 320.739 287.671 322.849H287.661Z" fill="#FF6D2A"/>
<path d="M228.19 347.77L231.2 349L228.18 347.77H228.19ZM289.32 315.77L285.59 302.56L285 300.49L284.42 298.43L279.62 281.45L278.74 278.34L277.73 274.78L276.89 271.79L269.83 246.83L266.96 236.66L265.05 229.89L261.13 216.05L259.64 210.74H259.63L258.14 205.48V205.45L249.05 173.29L248.5 171.36L247.96 169.43L246.69 164.94C245.52 160.8 242.79 157.36 239.01 155.24C235.23 153.13 230.87 152.61 226.73 153.78L116.11 185.05C114.18 185.6 112.43 186.47 110.91 187.6C105.65 191.48 103.07 198.35 104.95 205L109.16 219.89L124.83 275.33L127.26 283.93L129.17 290.71L132.19 301.38L134.53 302.33L136.88 303.28L132.92 289.24L131 282.47L128.57 273.87L114.77 225.03L108.8 203.92C107.92 200.8 108.31 197.52 109.9 194.67C110.89 192.9 112.28 191.43 113.93 190.37C114.94 189.73 116.03 189.23 117.2 188.9L227.82 157.63C228.92 157.32 230.03 157.17 231.12 157.17C236.43 157.17 241.33 160.68 242.84 166.03L244.36 171.4L244.93 173.44L245.53 175.53L257.07 216.39H257.08V216.41L258.57 221.68L260.07 226.97L261.3 231.35L263.22 238.13L265.72 246.99L280.14 298L280.72 300.07L281.3 302.14L285.46 316.86C286.01 318.82 286.05 320.8 285.66 322.66C285.58 323 285.5 323.34 285.4 323.67C285.35 323.83 285.3 323.98 285.24 324.13C285.19 324.29 285.13 324.45 285.06 324.61C284.81 325.27 284.49 325.91 284.11 326.52C282.57 329.04 280.12 331.01 277.06 331.88L236.14 343.44H236.12L239.14 344.67H239.16L240.26 345.12L240.66 345.29L242.16 345.9H242.18L278.14 335.73C282.86 334.39 286.5 331.08 288.42 326.94C288.71 326.32 288.96 325.67 289.16 325.01C289.37 324.37 289.53 323.71 289.66 323.04C290.09 320.7 290 318.22 289.31 315.77H289.32Z" fill="white"/>
<path d="M142.47 203.22C141.6 203.22 140.8 202.64 140.55 201.76C140.25 200.7 140.87 199.59 141.93 199.29L211.47 179.64C212.53 179.34 213.64 179.96 213.94 181.02C214.24 182.08 213.62 183.19 212.56 183.49L143.02 203.14C142.84 203.19 142.65 203.22 142.48 203.22H142.47Z" fill="white"/>
<path d="M163.75 296.709C163.1 296.709 162.49 296.279 162.31 295.619C162.08 294.819 162.55 293.989 163.35 293.769L243.64 271.079C244.44 270.859 245.27 271.319 245.49 272.119C245.72 272.919 245.25 273.749 244.45 273.969L164.16 296.659C164.02 296.699 163.89 296.719 163.75 296.719V296.709Z" fill="#EE4A00"/>
<path d="M166.661 307.019C166.011 307.019 165.401 306.589 165.221 305.929C164.991 305.129 165.461 304.299 166.261 304.079L246.551 281.389C247.351 281.169 248.181 281.629 248.401 282.429C248.631 283.229 248.161 284.059 247.361 284.279L167.071 306.969C166.931 307.009 166.801 307.029 166.661 307.029V307.019Z" fill="#EE4A00"/>
<path d="M250.281 294.569L249.451 294.799L249.441 294.809L248.881 294.969H248.871L243.591 296.459H243.581L238.321 297.949H238.301L229.301 300.499L227.231 301.079L225.171 301.669L170.841 317.019H170.831L169.991 317.259C169.851 317.299 169.711 317.319 169.581 317.319C168.921 317.319 168.321 316.889 168.131 316.229C168.101 316.119 168.091 316.009 168.081 315.909C168.041 315.209 168.481 314.569 169.171 314.369L225.481 298.459L227.541 297.869L229.611 297.289L230.091 297.149H230.101L235.371 295.659L240.651 294.169H240.661L249.461 291.679C249.561 291.649 249.661 291.639 249.751 291.639C249.761 291.629 249.761 291.639 249.761 291.639C250.461 291.579 251.121 292.019 251.311 292.719C251.541 293.509 251.071 294.339 250.281 294.569Z" fill="#EE4A00"/>
<path d="M176.041 326.67L176.031 326.68L171.631 324.89L176.041 326.67Z" fill="#EE4A00"/>
<path d="M253.19 304.87L230.81 311.2L228.85 311.75L226.86 312.31L187.03 323.57H187.02L182.5 321.74L225.76 309.5L227.7 308.95L229.62 308.41L252.37 301.98C253.18 301.76 254 302.22 254.23 303.02C254.45 303.82 253.99 304.65 253.19 304.87Z" fill="#EE4A00"/>
<path d="M256.43 316.319L247.24 318.919H247.23L241.95 320.409L237.77 321.589L205.02 330.849H205.01L200.48 329.019H200.49V329.009L233.54 319.669H233.55L236.33 318.879H236.34L239.58 317.959L255.6 313.429C256.4 313.209 257.23 313.669 257.45 314.469C257.68 315.269 257.21 316.099 256.42 316.319H256.43Z" fill="#EE4A00"/>
<path d="M218.069 199.969L147.339 219.957C144.171 220.852 142.329 224.146 143.224 227.314L156.819 275.42C157.714 278.587 161.007 280.429 164.175 279.534L234.905 259.546C238.073 258.651 239.915 255.358 239.02 252.19L225.425 204.084C224.53 200.916 221.237 199.074 218.069 199.969Z" fill="#EE4A00"/>
<path d="M218.621 236.739C218.441 236.539 218.261 236.339 218.071 236.149C214.171 232.099 209.211 229.299 203.851 227.929C198.641 226.599 193.051 226.609 187.691 228.149C176.711 231.299 168.291 240.389 166.111 251.399C166.081 251.549 166.051 251.699 166.021 251.849L165.941 252.309L166.251 252.659C173.921 261.079 186.071 264.459 197.201 261.259C208.331 258.059 216.821 248.759 218.861 237.549L218.951 237.089L218.631 236.739H218.621ZM201.121 241.839L200.601 242.189L200.341 242.339C198.991 243.249 197.881 244.399 197.051 245.759C196.051 247.419 195.511 249.389 195.611 251.439L195.871 255.229C195.911 255.689 195.261 255.909 195.021 255.469L193.131 252.089C192.161 250.419 190.741 248.969 189.051 247.999C187.731 247.239 186.221 246.709 184.701 246.629L184.291 246.579L183.741 246.549C183.281 246.529 183.131 245.919 183.531 245.689C183.701 245.619 183.831 245.549 183.951 245.459C187.101 243.449 188.921 239.799 188.791 236.069L188.811 235.799L188.751 232.309C188.751 231.829 189.401 231.649 189.601 232.079L191.131 235.129L191.261 235.389C193.011 238.879 196.451 240.929 200.301 241.019C200.511 241.029 200.681 241.019 200.861 241.019C201.091 241.019 201.251 241.149 201.311 241.339C201.361 241.509 201.291 241.719 201.111 241.829L201.121 241.839Z" fill="white"/>
<path d="M167.671 253.499C167.471 253.499 167.261 253.449 167.071 253.349L155.401 246.979C154.801 246.649 154.571 245.889 154.901 245.289C155.231 244.679 155.991 244.459 156.591 244.789L168.261 251.159C168.861 251.489 169.091 252.249 168.761 252.849C168.531 253.269 168.111 253.499 167.661 253.499H167.671Z" fill="white"/>
<path d="M173.48 237.399C173.17 237.399 172.85 237.279 172.61 237.049L163.93 228.609C163.44 228.129 163.43 227.339 163.91 226.849C164.39 226.359 165.18 226.349 165.67 226.829L174.35 235.269C174.84 235.749 174.85 236.539 174.37 237.029C174.12 237.279 173.8 237.409 173.48 237.409V237.399Z" fill="white"/>
<path d="M217.541 238.309C217.331 238.309 217.121 238.259 216.931 238.149C216.331 237.809 216.121 237.049 216.451 236.449L222.961 224.859C223.301 224.259 224.061 224.049 224.661 224.379C225.261 224.719 225.471 225.479 225.141 226.079L218.631 237.669C218.401 238.079 217.981 238.309 217.541 238.309Z" fill="white"/>
<path d="M203.751 229.569C203.651 229.569 203.551 229.559 203.451 229.529C202.781 229.369 202.371 228.689 202.531 228.019L205.411 216.259C205.571 215.589 206.251 215.179 206.921 215.339C207.591 215.499 208.001 216.179 207.841 216.849L204.961 228.609C204.821 229.179 204.311 229.559 203.751 229.559V229.569Z" fill="white"/>
<path d="M187.71 229.379C187.17 229.379 186.67 229.019 186.51 228.479L183.07 216.489C182.88 215.829 183.26 215.139 183.92 214.949C184.58 214.759 185.27 215.139 185.46 215.799L188.9 227.789C189.09 228.449 188.71 229.139 188.05 229.329C187.93 229.359 187.82 229.379 187.7 229.379H187.71Z" fill="white"/>
<path d="M80.2507 159.52L63.3607 177.96L52.6407 168.14C50.8207 166.47 50.7007 163.65 52.3607 161.83L63.2107 149.98C64.8807 148.16 67.7007 148.04 69.5207 149.7L80.2407 159.52H80.2507Z" fill="#FF6D2A"/>
<path d="M63.3709 179.46C63.0109 179.46 62.6409 179.33 62.3609 179.07L51.6409 169.25C50.4609 168.17 49.7809 166.7 49.7109 165.11C49.6409 163.52 50.2009 161.99 51.2709 160.82L62.1209 148.97C63.2009 147.79 64.6709 147.11 66.2609 147.04C67.8609 146.97 69.3809 147.53 70.5509 148.6L81.2709 158.42C81.5609 158.69 81.7409 159.06 81.7609 159.46C81.7809 159.86 81.6409 160.25 81.3709 160.54L64.4809 178.98C64.1809 179.3 63.7809 179.47 63.3709 179.47V179.46ZM66.5209 150.04C66.5209 150.04 66.4309 150.04 66.3909 150.04C65.6009 150.07 64.8709 150.42 64.3309 151L53.4809 162.85C52.9409 163.43 52.6709 164.19 52.7009 164.98C52.7409 165.77 53.0809 166.5 53.6609 167.04L63.2709 175.84L78.1309 159.62L68.5209 150.82C67.9709 150.32 67.2609 150.04 66.5209 150.04Z" fill="white"/>
<path d="M85.4198 164.265L68.5332 182.7L127.525 236.736L144.411 218.301L85.4198 164.265Z" fill="#EE4A00"/>
<path d="M127.531 238.22C127.161 238.22 126.791 238.08 126.521 237.83L67.5212 183.8C67.2312 183.53 67.0512 183.16 67.0312 182.76C67.0112 182.36 67.1512 181.97 67.4212 181.68L84.3112 163.24C84.8712 162.63 85.8212 162.59 86.4312 163.15L145.421 217.18C146.031 217.74 146.071 218.69 145.511 219.3L128.631 237.74C128.361 238.03 127.991 238.21 127.591 238.23C127.571 238.23 127.551 238.23 127.521 238.23L127.531 238.22ZM70.6512 182.59L127.431 234.6L142.291 218.38L85.5112 166.37L70.6512 182.59Z" fill="white"/>
<path d="M152.89 237.161L146.64 243.981L129 238.071L145.89 219.641L152.89 237.161Z" fill="white"/>
<path d="M146.64 244.98C146.53 244.98 146.43 244.96 146.32 244.93L128.68 239.02C128.36 238.91 128.11 238.65 128.03 238.32C127.95 237.99 128.03 237.64 128.26 237.39L145.15 218.95C145.38 218.7 145.73 218.58 146.07 218.64C146.41 218.7 146.69 218.93 146.82 219.25L153.82 236.77C153.96 237.13 153.89 237.53 153.63 237.82L147.38 244.64C147.19 244.85 146.92 244.96 146.64 244.96V244.98ZM130.77 237.61L146.34 242.82L151.72 236.94L145.54 221.48L130.77 237.61Z" fill="white"/>
<path d="M153.89 246.409L146.65 243.979L152.9 237.159L155.8 244.399C156.28 245.609 155.13 246.829 153.9 246.419L153.89 246.409Z" fill="#FF9460"/>
<path d="M154.381 247.49C154.111 247.49 153.831 247.45 153.561 247.36L146.321 244.93C146.001 244.82 145.751 244.56 145.671 244.23C145.591 243.9 145.671 243.55 145.901 243.3L152.151 236.48C152.381 236.23 152.731 236.11 153.071 236.17C153.411 236.23 153.691 236.46 153.821 236.78L156.721 244.02C157.091 244.95 156.891 245.97 156.211 246.69C155.721 247.21 155.061 247.48 154.381 247.48V247.49ZM154.201 245.46C154.491 245.56 154.681 245.4 154.751 245.32C154.821 245.25 154.971 245.04 154.861 244.76L152.551 239L148.421 243.51L154.201 245.45V245.46Z" fill="#FF9460"/>
</g>
</svg>
