<svg width="600" height="600" viewBox="0 0 600 600" fill="none" xmlns="http://www.w3.org/2000/svg">
<path d="M478.359 293.621L473.399 295.421L468.129 297.331L466.679 297.861L465.239 298.381L428.759 311.631L412.259 317.621L335.499 345.501L333.619 346.181L331.869 346.821L293.339 360.811H293.329L294.199 361.181L294.349 361.241L294.439 361.271L294.579 361.321C294.579 361.321 294.609 361.331 294.629 361.341C294.659 361.351 294.679 361.361 294.699 361.371C294.839 361.431 294.969 361.501 295.089 361.571C295.109 361.591 295.129 361.601 295.149 361.611C295.209 361.651 295.259 361.681 295.309 361.721C295.349 361.751 295.389 361.781 295.419 361.801C295.439 361.811 295.459 361.831 295.479 361.841C295.479 361.841 295.519 361.881 295.539 361.901C295.579 361.941 295.619 361.971 295.659 362.011C295.709 362.051 295.749 362.091 295.789 362.141L295.849 362.201C295.849 362.201 295.889 362.241 295.899 362.271C295.929 362.291 295.949 362.311 295.969 362.341C296.009 362.391 296.049 362.441 296.079 362.491C296.119 362.531 296.159 362.591 296.189 362.641C296.249 362.731 296.309 362.821 296.359 362.921C296.389 362.981 296.419 363.041 296.449 363.101L296.589 363.361H296.559L296.549 363.371L293.269 364.561L290.029 363.251H290.019L290.039 363.211C290.039 363.211 290.049 363.181 290.059 363.161C290.089 363.081 290.129 363.011 290.169 362.941C290.199 362.871 290.239 362.801 290.289 362.731C290.309 362.691 290.329 362.651 290.359 362.621C290.389 362.561 290.429 362.511 290.469 362.461C290.499 362.411 290.539 362.371 290.569 362.331C290.659 362.231 290.749 362.131 290.849 362.031C290.899 361.981 290.959 361.931 291.019 361.881C291.049 361.851 291.079 361.831 291.109 361.811C291.189 361.741 291.279 361.681 291.369 361.621C291.399 361.601 291.429 361.581 291.469 361.561C291.549 361.511 291.639 361.461 291.729 361.421C291.739 361.411 291.749 361.411 291.749 361.411C291.809 361.381 291.869 361.351 291.929 361.331L292.079 361.271L292.169 361.241L293.319 360.821L277.909 354.581L256.399 345.871L254.589 345.141L206.149 325.541L202.569 324.091H202.559L199.419 322.811L198.969 322.631L192.299 323.701H192.289L156.409 309.181L152.829 307.731H152.819L149.249 306.271H149.229L120.289 294.561L125.019 292.701H125.029L143.039 285.641H143.059L148.139 283.611H148.199L153.349 281.591L178.739 271.631L182.039 270.331H182.049L185.339 269.031H185.359L189.689 267.311H189.749L193.889 265.691L216.139 256.961L217.449 256.441L219.359 255.701L220.419 255.281L221.249 254.951L221.829 254.721L226.299 252.961H226.319L230.599 251.281L249.949 243.691L271.849 235.101L277.129 233.031L296.019 225.621C296.669 225.361 297.339 225.161 298.019 225.011H298.059C300.859 224.351 303.799 224.561 306.509 225.631L312.549 228.021L313.189 228.271L314.139 228.651L315.349 229.131L315.719 229.281L317.519 229.981L325.679 233.211L327.169 233.801L328.669 234.401L344.559 240.691L390.369 258.811L415.749 268.851L423.549 271.951H423.569L443.239 279.721L444.169 280.091L445.099 280.461L454.779 284.291H454.789L456.829 285.101L457.839 285.501L458.859 285.911H458.869L460.889 286.711L463.919 287.911H463.929L463.979 287.941L465.569 288.561L465.839 288.671L467.149 289.191L467.399 289.291L468.969 289.911L478.349 293.621H478.359Z" fill="#05183C"/>
<path d="M155.929 305.2H155.899L159.479 306.66L155.929 305.2ZM198.979 322.63L163.089 308.11H163.069L159.499 306.66H159.479L156.399 307.15L152.799 307.72H152.809L156.389 309.18L192.269 323.7H192.279L198.949 322.63L199.399 322.81L198.969 322.63H198.979ZM254.599 345.13L206.149 325.53L202.579 324.08H202.569L199.409 322.81L202.549 324.09H202.559L206.139 325.54L254.579 345.14L256.389 345.87L254.599 345.13ZM226.319 252.96H226.299L221.829 254.72L221.249 254.95L220.419 255.28L219.359 255.7L217.449 256.44V257.06L217.519 259.83V260.18L218.259 259.89L219.429 259.43L221.339 258.68L224.169 257.57L228.449 255.89L234.349 253.58L226.329 252.96H226.319ZM254.599 345.13L206.149 325.53L202.579 324.08H202.569L199.409 322.81L202.549 324.09H202.559L206.139 325.54L254.579 345.14L256.389 345.87L254.599 345.13ZM254.599 345.13L206.149 325.53L202.579 324.08H202.569L199.409 322.81L202.549 324.09H202.559L206.139 325.54L254.579 345.14L256.389 345.87L254.599 345.13ZM277.929 354.57L256.399 345.87L277.909 354.58L293.319 360.82H293.339L277.929 354.57ZM471.939 287.32L470.369 286.7L468.809 286.08L466.689 285.24L465.109 284.61L463.519 283.99L458.899 282.16L455.849 280.95L453.819 280.15L452.799 279.74L451.789 279.34H451.779L449.739 278.53L446.569 277.28L444.709 276.54L430.909 271.07H430.889L423.069 267.98L397.689 257.94L344.089 236.73L328.929 230.73L327.439 230.14L325.939 229.55L316.869 225.96L315.249 225.32L314.709 225.1L313.669 224.69L312.549 224.25L312.079 224.06L307.799 222.37C303.589 220.72 298.959 220.71 294.739 222.36L289.629 224.36H289.589L277.439 229.15L272.139 231.22L245.989 241.48L232.769 246.67L228.479 248.35L222.569 250.67L221.179 251.21L219.269 251.96L218.289 252.35L217.369 252.71L201.929 258.78H201.899L197.609 260.46L195.749 261.19L179.819 267.47H179.749L177.239 268.45L173.929 269.75L170.629 271.05L143.249 281.79L138.089 283.81H138.019L132.929 285.83H132.909L118.999 291.3C118.979 291.31 118.959 291.32 118.939 291.33C118.619 291.46 118.309 291.65 118.029 291.89C117.919 291.97 117.809 292.07 117.719 292.18C117.599 292.3 117.499 292.44 117.399 292.58C117.339 292.65 117.299 292.72 117.259 292.8C116.959 293.31 116.779 293.91 116.779 294.54C116.769 295.82 117.469 296.99 118.569 297.6C118.699 297.68 118.829 297.74 118.969 297.8L121.819 298.96L142.529 307.34H142.549L146.119 308.79H146.139L149.719 310.24H149.739L185.609 324.76L192.289 323.7H192.299L198.969 322.63L199.419 322.81L198.989 322.63L163.099 308.11H163.079L159.509 306.66H159.489L155.939 305.2H155.909L129.739 294.61L153.129 285.44H153.189L158.209 283.42H158.279L163.439 281.39L186.829 272.22H186.849L193.449 269.62L213.969 261.57L217.529 260.18L218.259 259.89L219.429 259.43L221.339 258.68L224.169 257.57L228.449 255.89L234.349 253.58L236.359 252.79L245.749 249.1L249.079 247.78H249.119L257.959 244.31H257.969L271.559 238.98L276.849 236.91L297.309 228.88C299.339 228.08 301.539 227.92 303.639 228.4C304.179 228.52 304.709 228.68 305.229 228.89L313.029 231.98L313.849 232.3L314.619 232.6L315.999 233.15H316.009L316.199 233.23L318.169 234.01L325.419 236.88L326.919 237.47L328.409 238.06L345.039 244.64L383.059 259.68L408.449 269.72L416.249 272.82H416.269L429.389 278.01L436.049 280.64L441.779 282.91L442.709 283.28L443.639 283.64L459.829 290.05H459.839L461.879 290.86L462.889 291.26L463.909 291.66L464.469 291.88L466.029 292.5H466.059L467.639 293.14L473.409 295.42L478.369 293.62L482.089 292.27C482.899 291.98 483.759 292 484.519 292.29L471.949 287.32H471.939ZM296.589 363.36L296.449 363.1C296.419 363.04 296.389 362.98 296.359 362.92C296.309 362.82 296.249 362.73 296.189 362.64C296.159 362.59 296.119 362.53 296.079 362.49C296.049 362.44 296.009 362.39 295.969 362.34C295.949 362.31 295.929 362.29 295.899 362.27C295.899 362.24 295.869 362.22 295.849 362.2L295.789 362.14C295.789 362.14 295.709 362.05 295.659 362.01C295.619 361.97 295.579 361.94 295.539 361.9C295.519 361.88 295.499 361.87 295.479 361.85C295.479 361.85 295.439 361.81 295.419 361.8C295.389 361.78 295.349 361.75 295.309 361.72C295.259 361.68 295.209 361.65 295.149 361.61C295.129 361.6 295.109 361.59 295.089 361.57C294.969 361.5 294.839 361.43 294.699 361.37C294.679 361.36 294.659 361.35 294.629 361.34C294.609 361.33 294.599 361.33 294.579 361.32L294.439 361.27L294.349 361.24L294.199 361.18L293.329 360.82H293.339L277.929 354.57L256.399 345.87L277.909 354.58L293.319 360.82L292.169 361.24L292.079 361.27L291.929 361.33C291.869 361.35 291.809 361.38 291.749 361.41C291.749 361.41 291.739 361.41 291.729 361.42C291.639 361.46 291.549 361.51 291.469 361.56C291.429 361.58 291.399 361.6 291.369 361.62C291.279 361.68 291.189 361.74 291.109 361.81C291.079 361.83 291.049 361.85 291.019 361.88C290.959 361.93 290.899 361.98 290.849 362.03C290.749 362.13 290.659 362.23 290.569 362.33C290.539 362.37 290.499 362.41 290.469 362.46C290.429 362.51 290.389 362.56 290.359 362.62C290.329 362.65 290.309 362.69 290.289 362.73C290.239 362.8 290.199 362.87 290.169 362.94C290.129 363.01 290.089 363.08 290.059 363.16C290.049 363.18 290.039 363.2 290.039 363.21L290.019 363.25C290.019 363.25 290.009 363.27 290.009 363.28C289.999 363.3 289.989 363.32 289.989 363.34L288.629 366.45L289.759 366.91L290.739 367.31L291.869 367.77L291.949 367.8C292.369 367.98 292.799 368.06 293.249 368.06H293.259C293.659 368.06 294.069 367.99 294.449 367.85L294.869 367.7L295.869 367.33L296.749 367.01L298.179 366.5L296.579 363.36H296.589ZM254.599 345.13L206.149 325.53L202.579 324.08H202.569L199.409 322.81L202.549 324.09H202.559L206.139 325.54L254.579 345.14L256.389 345.87L254.599 345.13ZM226.319 252.96H226.299L221.829 254.72L221.249 254.95L220.419 255.28L219.359 255.7L217.449 256.44V257.06L217.519 259.83V260.18L218.259 259.89L219.429 259.43L221.339 258.68L224.169 257.57L228.449 255.89L234.349 253.58L226.329 252.96H226.319ZM155.929 305.2H155.899L159.479 306.66L155.929 305.2ZM198.979 322.63L163.089 308.11H163.069L159.499 306.66H159.479L156.399 307.15L152.799 307.72H152.809L156.389 309.18L192.269 323.7H192.279L198.949 322.63L199.399 322.81L198.969 322.63H198.979ZM254.599 345.13L206.149 325.53L202.579 324.08H202.569L199.409 322.81L202.549 324.09H202.559L206.139 325.54L254.579 345.14L256.389 345.87L254.599 345.13Z" fill="white"/>
<path d="M293.27 364.561L292.77 596.091C291.09 596.051 289.41 595.721 287.82 595.081L131.66 532.621C126.28 530.461 122.73 525.281 122.67 519.481L121.1 372.191L254.52 425.931C260.22 428.231 266.73 425.571 269.18 419.921L293.27 364.561Z" fill="#1A3C7D"/>
<path d="M296.75 364.22C296.75 364.13 296.73 364.04 296.72 363.95C296.7 363.85 296.68 363.76 296.65 363.66C296.63 363.57 296.6 363.47 296.56 363.38L296.55 363.37C296.54 363.33 296.53 363.28 296.51 363.24C296.49 363.19 296.47 363.14 296.45 363.1C296.42 363.04 296.39 362.98 296.36 362.92C296.31 362.82 296.25 362.73 296.19 362.64C296.16 362.59 296.12 362.53 296.08 362.49C296.05 362.44 296.01 362.39 295.97 362.34C295.95 362.31 295.93 362.29 295.9 362.27C295.9 362.24 295.87 362.22 295.85 362.2L295.79 362.14C295.79 362.14 295.71 362.05 295.66 362.01C295.62 361.97 295.58 361.94 295.54 361.9C295.52 361.88 295.5 361.87 295.48 361.85C295.48 361.85 295.44 361.81 295.42 361.8C295.39 361.78 295.35 361.75 295.31 361.72C295.26 361.68 295.21 361.65 295.15 361.61C295.13 361.6 295.11 361.59 295.09 361.57C294.97 361.5 294.84 361.43 294.7 361.37C294.68 361.36 294.66 361.35 294.63 361.34C294.61 361.33 294.6 361.33 294.58 361.32L294.44 361.27L294.35 361.24L294.2 361.18C294.13 361.16 294.06 361.14 293.99 361.13C293.94 361.12 293.9 361.11 293.85 361.11C293.57 361.06 293.28 361.05 292.99 361.07C292.91 361.08 292.84 361.09 292.77 361.1C292.75 361.1 292.72 361.1 292.7 361.11C292.62 361.12 292.53 361.14 292.45 361.16C292.36 361.18 292.26 361.21 292.17 361.24L292.08 361.27L291.93 361.33C291.87 361.35 291.81 361.38 291.75 361.41C291.75 361.41 291.74 361.41 291.73 361.42C291.64 361.46 291.55 361.51 291.47 361.56C291.43 361.58 291.4 361.6 291.37 361.62C291.28 361.68 291.19 361.74 291.11 361.81C291.08 361.83 291.05 361.85 291.02 361.88C290.96 361.93 290.9 361.98 290.85 362.03C290.75 362.13 290.66 362.23 290.57 362.33C290.54 362.37 290.5 362.41 290.47 362.46C290.43 362.51 290.39 362.56 290.36 362.62C290.33 362.65 290.31 362.69 290.29 362.73C290.24 362.8 290.2 362.87 290.17 362.94C290.13 363.01 290.09 363.08 290.06 363.16C290.05 363.18 290.04 363.2 290.04 363.21L290.02 363.25C290.02 363.25 290.01 363.27 290.01 363.28C290 363.3 289.99 363.32 289.99 363.34L288.63 366.45L265.97 418.53C264.29 422.4 259.74 424.26 255.83 422.68L122.33 368.91C121.26 368.52 120.07 368.66 119.13 369.3C118.55 369.69 118.11 370.25 117.86 370.88C117.68 371.31 117.6 371.76 117.6 372.23L117.62 374.57L119.17 519.52C119.24 526.75 123.64 533.17 130.36 535.87L286.51 598.33C288.45 599.1 290.51 599.53 292.64 599.59H292.77C293.68 599.59 294.56 599.23 295.21 598.6C295.89 597.94 296.27 597.04 296.27 596.1V592.14L296.74 379.03L296.76 371.38V364.57C296.76 364.57 296.77 364.56 296.77 364.55C296.77 364.44 296.76 364.33 296.75 364.22ZM124.66 377.41V377.39L253.21 429.18C255.06 429.92 256.96 430.28 258.83 430.28C259.22 430.28 259.61 430.26 260 430.23C260.62 430.18 261.23 430.1 261.83 429.96C262.92 429.74 263.99 429.39 264.99 428.92C265.23 428.81 265.47 428.7 265.7 428.57C265.87 428.48 266.03 428.39 266.19 428.3C266.41 428.17 266.63 428.04 266.84 427.9C269.21 426.36 271.17 424.12 272.39 421.32L289.73 381.47L289.28 591.89C289.23 591.87 289.17 591.85 289.12 591.83L132.96 529.37C128.88 527.73 126.22 523.84 126.17 519.44L124.66 377.41Z" fill="white"/>
<path d="M483.75 520.841C483.76 526.951 479.89 532.401 474.11 534.401L297.81 595.321C296.18 595.881 294.47 596.141 292.77 596.091L293.27 364.561L322.18 421.081C324.8 426.201 330.84 428.561 336.23 426.561L483.43 372.111L483.75 520.841Z" fill="#06296B"/>
<path d="M486.94 374.55V372.1C486.93 371.68 486.86 371.28 486.71 370.9C486.47 370.23 486.03 369.65 485.43 369.24C484.58 368.64 483.51 368.46 482.52 368.73L335.01 423.28C331.29 424.66 327.11 423.03 325.3 419.49L298.19 366.5L296.59 363.36L296.45 363.1C296.42 363.04 296.39 362.98 296.36 362.92C296.31 362.82 296.25 362.73 296.19 362.64C296.16 362.59 296.12 362.53 296.08 362.49C296.05 362.44 296.01 362.39 295.97 362.34C295.95 362.31 295.93 362.29 295.9 362.27C295.9 362.24 295.87 362.22 295.85 362.2L295.79 362.14C295.79 362.14 295.71 362.05 295.66 362.01C295.62 361.97 295.58 361.94 295.54 361.9C295.52 361.88 295.5 361.87 295.48 361.85C295.48 361.85 295.44 361.81 295.42 361.8C295.39 361.78 295.35 361.75 295.31 361.72C295.26 361.68 295.21 361.65 295.15 361.61C295.13 361.6 295.11 361.59 295.09 361.57C294.97 361.5 294.84 361.43 294.7 361.37C294.68 361.36 294.66 361.35 294.63 361.34C294.61 361.33 294.6 361.33 294.58 361.32L294.44 361.27L294.35 361.24L294.2 361.18C294.09 361.15 293.97 361.13 293.85 361.11C293.57 361.06 293.28 361.05 292.99 361.07C292.91 361.08 292.84 361.09 292.77 361.1C292.75 361.1 292.72 361.1 292.7 361.11C292.62 361.12 292.53 361.14 292.45 361.16C292.36 361.18 292.26 361.21 292.17 361.24L292.08 361.27L291.93 361.33C291.87 361.35 291.81 361.38 291.75 361.41C291.75 361.41 291.74 361.41 291.73 361.42C291.64 361.46 291.55 361.51 291.47 361.56C291.43 361.58 291.4 361.6 291.37 361.62C291.28 361.68 291.19 361.74 291.11 361.81C291.08 361.83 291.05 361.85 291.02 361.88C290.96 361.93 290.9 361.98 290.85 362.03C290.75 362.13 290.66 362.23 290.57 362.33C290.54 362.37 290.5 362.41 290.47 362.46C290.43 362.51 290.39 362.56 290.36 362.62C290.33 362.65 290.31 362.69 290.29 362.73C290.24 362.8 290.2 362.87 290.17 362.94C290.13 363.01 290.09 363.08 290.06 363.16C290.05 363.18 290.04 363.2 290.04 363.21C290.03 363.23 290.03 363.24 290.03 363.25H290.02C290.02 363.25 290.01 363.27 290.01 363.28C290 363.3 289.99 363.32 289.99 363.34C289.96 363.42 289.93 363.51 289.91 363.59C289.88 363.69 289.85 363.8 289.83 363.9C289.83 363.92 289.83 363.94 289.82 363.96C289.79 364.15 289.77 364.35 289.77 364.55L289.76 366.91V372.63L289.75 372.65L289.73 381.45V381.47L289.28 591.89V595.57L289.27 596.08C289.27 597.97 290.75 599.51 292.64 599.59H292.77C292.91 599.59 293.04 599.6 293.19 599.6C295.15 599.6 297.08 599.27 298.95 598.63L475.25 537.71C482.43 535.22 487.25 528.45 487.25 520.85V520.83L486.94 374.55ZM296.28 592.14L296.74 379.03L319.06 422.67C319.39 423.31 319.75 423.91 320.16 424.48C320.76 425.34 321.44 426.11 322.19 426.81C324.94 429.35 328.56 430.77 332.3 430.77C334.01 430.77 335.75 430.47 337.44 429.84L479.94 377.13L480.25 520.85C480.26 525.47 477.33 529.58 472.97 531.09L296.67 592.01C296.54 592.06 296.41 592.1 296.28 592.14Z" fill="white"/>
<path d="M243.03 348.001H243.01L264.54 356.711L243.03 348.001ZM290.03 363.251H290.02C290.02 363.251 290.01 363.271 290.01 363.281C290 363.301 289.99 363.321 289.99 363.341L288.63 366.451L264.55 356.711L288.63 366.461L265.97 418.531C264.29 422.401 259.74 424.261 255.83 422.681L122.33 368.911L98.0899 359.151C95.9899 358.311 94.3599 356.591 93.6099 354.461C92.8599 352.321 93.0699 349.971 94.1799 348.001L108.5 322.581V322.651C109.29 327.521 111.92 331.761 115.92 334.601C119.06 336.831 122.78 337.991 126.62 337.991C127.63 337.991 128.64 337.911 129.66 337.751L192.77 327.671L189.2 326.221H189.19L185.6 324.761L192.28 323.701L156.4 309.181L152.82 307.731H152.81L149.24 306.271H149.22L120.28 294.561L118.57 297.601L110.78 311.411L110.17 312.511L109.21 314.221L107.66 316.961L107.62 317.031L91.1399 346.281C87.7699 352.261 90.4299 359.831 96.7899 362.401L117.87 370.881L121.11 372.191L254.53 425.931C260.23 428.231 266.74 425.571 269.19 419.921L289.76 372.651V372.631L291.47 368.711L291.63 368.361L291.89 367.771L293.28 364.561L290.04 363.251H290.03ZM243.03 348.001H243.01L264.54 356.711L243.03 348.001Z" fill="#1A3C7D"/>
<path d="M192.28 323.7L156.4 309.18L152.82 307.73L149.43 308.27L147.86 308.52L146.14 308.79L149.7 310.25H149.71L185.6 324.77L189.2 326.22L185.61 324.76L192.29 323.7H192.28ZM243.03 348H243.01L264.54 356.71L243.03 348ZM243.03 348H243.01L264.54 356.71L243.03 348ZM243.03 348H243.01L264.54 356.71L243.03 348ZM296.75 364.22C296.75 364.13 296.73 364.04 296.72 363.95C296.7 363.85 296.68 363.76 296.65 363.66C296.63 363.57 296.6 363.47 296.56 363.38C296.55 363.33 296.53 363.28 296.51 363.24C296.49 363.19 296.47 363.14 296.45 363.1C296.42 363.04 296.39 362.98 296.36 362.92C296.31 362.82 296.25 362.73 296.19 362.64C296.16 362.59 296.12 362.53 296.08 362.49C296.05 362.44 296.01 362.39 295.97 362.34C295.95 362.31 295.93 362.29 295.9 362.27C295.9 362.24 295.87 362.22 295.85 362.2L295.79 362.14C295.79 362.14 295.71 362.05 295.66 362.01C295.62 361.97 295.58 361.94 295.54 361.9C295.52 361.88 295.5 361.87 295.48 361.85C295.46 361.83 295.44 361.82 295.42 361.8C295.39 361.78 295.35 361.75 295.31 361.72C295.26 361.68 295.21 361.65 295.15 361.61C295.13 361.6 295.11 361.59 295.09 361.57C294.97 361.5 294.84 361.43 294.7 361.37C294.68 361.36 294.66 361.35 294.63 361.34C294.61 361.33 294.6 361.33 294.58 361.32L294.44 361.27L294.35 361.24L294.2 361.18L293.33 360.82H293.32L292.17 361.24L292.08 361.27L291.93 361.33C291.87 361.35 291.81 361.38 291.75 361.41C291.75 361.41 291.74 361.41 291.73 361.42C291.64 361.46 291.55 361.51 291.47 361.56C291.43 361.58 291.4 361.6 291.37 361.62C291.28 361.68 291.19 361.74 291.11 361.81C291.08 361.83 291.05 361.85 291.02 361.88C290.96 361.93 290.9 361.98 290.85 362.03C290.75 362.13 290.66 362.23 290.57 362.33C290.54 362.37 290.5 362.41 290.47 362.46C290.43 362.51 290.39 362.56 290.36 362.62C290.33 362.65 290.31 362.69 290.29 362.73C290.24 362.8 290.2 362.87 290.17 362.94C290.13 363.01 290.09 363.08 290.06 363.16C290.05 363.18 290.04 363.2 290.04 363.21L290.02 363.25C290.02 363.25 290.01 363.27 290.01 363.28C290 363.3 289.99 363.32 289.99 363.34L288.63 366.45L264.55 356.71L288.63 366.46L265.97 418.53C264.29 422.4 259.74 424.26 255.83 422.68L122.33 368.91L98.0899 359.15C95.9899 358.31 94.3599 356.59 93.6099 354.46C92.8599 352.32 93.0699 349.97 94.1799 348L108.5 322.58L110.08 319.78L111.65 316.99L112.06 316.26L113.32 314.03L114.57 311.81L121.81 298.96L142.52 307.34H142.54L146.11 308.79H146.13L149.69 310.25H149.7L185.59 324.77L189.19 326.22L185.6 324.76L192.28 323.7H192.29L198.96 322.63L163.09 308.11H163.07L159.5 306.66H159.48L155.9 305.21L129.73 294.61L125.01 292.7H125L121.58 291.32C120.71 290.96 119.76 290.98 118.93 291.32C118.61 291.45 118.3 291.64 118.02 291.88C117.91 291.96 117.8 292.06 117.71 292.17C117.59 292.29 117.49 292.43 117.39 292.57C117.33 292.64 117.29 292.71 117.25 292.79C117.24 292.8 117.23 292.82 117.22 292.83L109.89 305.85L108.31 308.65L106.73 311.45L88.0799 344.55C85.9799 348.28 85.5899 352.72 86.9999 356.76C88.4099 360.8 91.4999 364.03 95.4699 365.64L117.62 374.56L124.66 377.4L253.21 429.17C255.06 429.91 256.96 430.27 258.83 430.27C259.22 430.27 259.61 430.25 260 430.22C260.62 430.17 261.23 430.09 261.83 429.95C262.92 429.73 263.99 429.38 264.99 428.91C265.23 428.8 265.47 428.69 265.7 428.56C265.87 428.47 266.03 428.38 266.19 428.29C266.41 428.16 266.63 428.03 266.84 427.89C269.21 426.35 271.17 424.11 272.39 421.31L289.73 381.46V381.44L293.25 373.37L293.53 372.74L295.33 368.58L295.88 367.32L296.48 365.95C296.68 365.5 296.77 365.04 296.77 364.56V364.54C296.77 364.43 296.76 364.32 296.75 364.21V364.22ZM243.03 348H243.01L264.54 356.71L243.03 348ZM197.08 329.42L241.21 347.27L197.08 329.41V329.42ZM243.03 348.01H243.01L264.54 356.72L243.03 348.01ZM243.03 348.01H243.01L264.54 356.72L243.03 348.01ZM243.03 348.01H243.01L264.54 356.72L243.03 348.01ZM243.03 348.01H243.01L264.54 356.72L243.03 348.01ZM192.28 323.71L156.4 309.19L152.82 307.74L149.43 308.28L147.86 308.53L146.14 308.8L149.7 310.26H149.71L185.6 324.78L189.2 326.23L185.61 324.77L192.29 323.71H192.28Z" fill="white"/>
<path d="M293.32 360.82L292.17 361.24L292.08 361.27L291.93 361.33C291.87 361.35 291.81 361.38 291.75 361.41C291.75 361.41 291.74 361.41 291.73 361.42C291.64 361.46 291.55 361.51 291.47 361.56C291.43 361.58 291.4 361.6 291.37 361.62C291.28 361.68 291.19 361.74 291.11 361.81C291.08 361.83 291.05 361.85 291.02 361.88C290.96 361.93 290.9 361.98 290.85 362.03C290.75 362.13 290.66 362.23 290.57 362.33C290.54 362.37 290.5 362.41 290.47 362.46C290.43 362.51 290.39 362.56 290.36 362.62C290.33 362.65 290.31 362.69 290.29 362.73C290.24 362.8 290.2 362.87 290.17 362.94C290.13 363.01 290.09 363.08 290.06 363.16C290.05 363.18 290.04 363.2 290.04 363.21L290.02 363.25C290.02 363.25 290.01 363.27 290.01 363.28C290 363.3 289.99 363.32 289.99 363.34L288.63 366.45L264.55 356.71H264.54L243.03 348H243.01L241.22 347.27H241.21L197.08 329.41L192.78 327.67H192.77L189.2 326.22H189.19L185.6 324.76L192.28 323.7H192.29L198.96 322.63L199.41 322.81L202.55 324.09H202.56L206.14 325.54L254.58 345.14L256.39 345.87L277.9 354.58L293.31 360.82H293.32Z" fill="white"/>
<path d="M288.631 366.46L265.971 418.53C264.291 422.4 259.741 424.26 255.831 422.68L122.331 368.91L98.0911 359.15C95.9911 358.31 94.3611 356.59 93.6111 354.46C92.8611 352.32 93.0711 349.97 94.1811 348L108.501 322.58V322.65C109.291 327.52 111.921 331.76 115.921 334.6C119.061 336.83 122.781 337.99 126.621 337.99C127.631 337.99 128.641 337.91 129.661 337.75L192.771 327.67H192.781L197.081 329.41L241.211 347.27H241.221L243.011 348L264.541 356.71H264.551L288.631 366.46Z" fill="#1A3C7D"/>
<path d="M513.069 354.291C512.309 356.561 510.589 358.331 508.349 359.171L482.519 368.731L335.009 423.281C331.289 424.661 327.109 423.031 325.299 419.491L298.189 366.501L345.499 349.321L351.689 347.071L357.849 344.831H357.879L466.089 305.531L467.529 305.001L468.979 304.481L481.829 299.811L512.249 347.561C513.529 349.571 513.829 352.031 513.069 354.291Z" fill="#06296B"/>
<path d="M509.56 362.451L486.71 370.901L483.43 372.111L336.23 426.561C330.84 428.561 324.8 426.201 322.18 421.081L296.76 371.381L295.33 368.591L294.88 367.701L293.27 364.561L296.55 363.371H296.59L298.19 366.491L345.47 349.321L351.66 347.071H351.69L345.5 349.321L298.19 366.501L325.3 419.491C327.11 423.031 331.29 424.661 335.01 423.281L482.52 368.731L508.35 359.171C510.59 358.331 512.31 356.561 513.07 354.291C513.83 352.031 513.53 349.571 512.25 347.561L481.83 299.811L484.46 298.851C484.71 298.761 484.93 298.651 485.14 298.501L515.19 345.681C519.08 351.791 516.34 359.931 509.55 362.451H509.56Z" fill="#06296B"/>
<path d="M351.659 347.071L345.469 349.321L298.189 366.491L345.499 349.321L351.689 347.071H351.659ZM518.149 343.801L486.299 293.811C486.609 294.351 486.779 294.971 486.769 295.611C486.749 296.801 486.129 297.881 485.149 298.501C484.939 298.651 484.719 298.761 484.469 298.851L481.839 299.811L512.259 347.561C513.539 349.571 513.839 352.031 513.079 354.291C512.319 356.561 510.599 358.331 508.359 359.171L482.529 368.731L335.019 423.281C331.299 424.661 327.119 423.031 325.309 419.491L298.199 366.501L345.509 349.321L351.699 347.071H351.669L345.479 349.321L298.199 366.491L296.599 363.361L296.459 363.101C296.429 363.041 296.399 362.981 296.369 362.921C296.319 362.821 296.259 362.731 296.199 362.641C296.169 362.591 296.129 362.531 296.089 362.491C296.059 362.441 296.019 362.391 295.979 362.341C295.959 362.311 295.939 362.291 295.909 362.271C295.909 362.241 295.879 362.221 295.859 362.201L295.799 362.141C295.799 362.141 295.719 362.051 295.669 362.011C295.629 361.971 295.589 361.941 295.549 361.901C295.529 361.881 295.509 361.871 295.489 361.851C295.489 361.851 295.449 361.811 295.429 361.801C295.399 361.781 295.359 361.751 295.319 361.721C295.269 361.681 295.219 361.651 295.159 361.611C295.139 361.601 295.119 361.591 295.099 361.571C294.979 361.501 294.849 361.431 294.709 361.371C294.689 361.361 294.669 361.351 294.639 361.341C294.619 361.331 294.609 361.331 294.589 361.321L294.449 361.271L294.359 361.241L294.209 361.181L293.339 360.821H293.329L292.179 361.241L292.089 361.271L291.939 361.331C291.879 361.351 291.819 361.381 291.759 361.411C291.759 361.411 291.749 361.411 291.739 361.421C291.649 361.461 291.559 361.511 291.479 361.561C291.439 361.581 291.409 361.601 291.379 361.621C291.289 361.681 291.199 361.741 291.119 361.811C291.089 361.831 291.059 361.851 291.029 361.881C290.969 361.931 290.909 361.981 290.859 362.031C290.759 362.131 290.669 362.231 290.579 362.331C290.549 362.371 290.509 362.411 290.479 362.461C290.439 362.511 290.399 362.561 290.369 362.621C290.339 362.651 290.319 362.691 290.299 362.731C290.249 362.801 290.209 362.871 290.179 362.941C290.139 363.011 290.099 363.081 290.069 363.161C290.059 363.181 290.049 363.201 290.049 363.211C290.039 363.231 290.039 363.241 290.039 363.251H290.029C290.029 363.251 290.019 363.271 290.019 363.281C290.009 363.301 289.999 363.321 289.999 363.341C289.969 363.421 289.939 363.511 289.919 363.591C289.889 363.691 289.859 363.801 289.839 363.901C289.839 363.921 289.839 363.941 289.829 363.961C289.799 364.151 289.779 364.351 289.779 364.551C289.779 365.111 289.909 365.651 290.159 366.151L290.749 367.311L291.469 368.711L293.259 372.221V372.291L293.539 372.751L296.749 379.031L319.069 422.671C319.399 423.311 319.759 423.911 320.169 424.481C320.769 425.341 321.449 426.111 322.199 426.811C324.949 429.351 328.569 430.771 332.309 430.771C334.019 430.771 335.759 430.471 337.449 429.841L479.949 377.131L483.449 375.841L486.949 374.551L510.779 365.731H510.789C515.019 364.161 518.279 360.801 519.709 356.521C521.149 352.241 520.589 347.611 518.159 343.801H518.149ZM351.659 347.071L345.469 349.321L298.189 366.491L345.499 349.321L351.689 347.071H351.659ZM351.659 347.071L345.469 349.321L298.189 366.491L345.499 349.321L351.689 347.071H351.659Z" fill="white"/>
<path d="M456.53 253.49C455.89 253.23 455.25 252.97 454.6 252.71C453.95 252.45 453.32 252.19 452.67 251.94C446.57 249.53 440.29 247.24 433.83 245.1C433.18 244.88 432.54 244.67 431.89 244.46C431.24 244.25 430.6 244.04 429.95 243.83C414.18 238.76 397.44 234.49 379.9 231.14C370.25 229.28 360.36 227.7 350.27 226.43C333.17 224.27 315.48 222.93 297.36 222.54C290.52 222.4 283.74 222.38 277.02 222.49C276.33 222.49 275.65 222.52 274.96 222.53C274.28 222.55 273.59 222.57 272.91 222.59C270.35 222.66 267.81 222.74 265.27 222.84H265.26C264.58 222.87 263.91 222.9 263.24 222.93C262.56 222.96 261.89 222.99 261.22 223.03C255.86 223.29 250.54 223.63 245.27 224.06C244.18 224.14 243.09 224.23 242 224.34C241.81 224.36 241.62 224.37 241.43 224.39C240.75 224.45 240.07 224.51 239.4 224.57C238.72 224.64 238.04 224.71 237.37 224.77C231.05 225.38 224.82 226.12 218.66 226.97C216.64 227.25 214.62 227.54 212.61 227.85C209.35 228.34 206.12 228.86 202.92 229.43C202.59 229.47 202.26 229.54 201.93 229.6C195.28 230.76 188.75 232.07 182.34 233.5C175 235.15 167.82 236.96 160.84 238.94C152.03 241.43 143.51 244.19 135.33 247.19C134.7 247.42 134.07 247.65 133.45 247.89C132.82 248.12 132.19 248.35 131.57 248.59C64.6097 274.03 20.7797 315.77 19.7397 363.81C19.0297 396.54 38.2897 427.22 71.4397 452.4C77.5997 457.07 84.2397 461.56 91.3197 465.83C97.0897 469.33 103.17 472.67 109.52 475.87C111.81 477.02 114.14 478.16 116.5 479.27C160.8 500.17 217.25 513.85 279.27 516.6C281.59 516.7 283.93 516.79 286.27 516.86C287.83 516.92 289.4 516.95 290.97 516.99C359.32 518.48 422.12 506.43 470.65 485.3C473.04 484.26 475.39 483.2 477.69 482.12C520.67 462.03 551.4 434.55 563.24 403.07C566.34 394.86 568.14 386.37 568.54 377.67C568.57 377.03 568.59 376.38 568.6 375.73C569.67 326.39 525.38 281.74 456.52 253.52L456.53 253.49Z" stroke="white" stroke-width="6.77" stroke-miterlimit="10"/>
<path d="M71.4198 470.97L69.6398 480.2C69.3898 481.36 67.7598 481.39 67.4598 480.25L65.0698 471C63.8598 466.31 61.3598 461.98 57.9498 458.58C55.2598 455.88 51.9998 453.76 48.3798 452.5L47.4698 452.18L46.1398 451.71C45.0998 451.35 45.1598 449.85 46.2298 449.57H46.2498C46.6298 449.47 47.0198 449.36 47.3898 449.24C56.1698 446.49 62.7998 438.9 64.8898 429.88L65.0698 429.19L67.1998 420.859C67.4698 419.689 69.1398 419.71 69.3798 420.89L71.0798 429.12L71.2298 429.85C73.1898 439.28 80.1098 446.4 89.2698 449.04C89.6898 449.16 90.1198 449.27 90.5498 449.38C91.1198 449.51 91.4098 449.99 91.4098 450.47C91.4098 450.91 91.1598 451.36 90.6498 451.53L89.2098 452.02L88.4998 452.26C84.6798 453.56 81.2598 455.62 78.4798 458.29C74.9698 461.65 72.4598 465.98 71.3998 470.97H71.4198Z" fill="white" stroke="#E4DEDE" stroke-width="1.27" stroke-miterlimit="10"/>
<path d="M568.27 396.56C574.897 396.56 580.27 391.187 580.27 384.56C580.27 377.932 574.897 372.56 568.27 372.56C561.642 372.56 556.27 377.932 556.27 384.56C556.27 391.187 561.642 396.56 568.27 396.56Z" fill="white" stroke="#E4DEDE" stroke-width="2" stroke-miterlimit="10"/>
<path d="M241.21 347.27L197.08 329.42V329.41L241.21 347.27Z" fill="#EE4A00"/>
<path d="M262.45 344.9L256.4 345.87H256.39L254.58 345.14L206.14 325.54L202.56 324.09H202.55L199.41 322.81V322.8L199.5 322.54L200.64 319.32L237.18 313.49L239.35 316.18L240.79 317.98L242.23 319.77L261.72 344L262.45 344.9Z" fill="#EE4A00"/>
<path d="M304.2 159.31L323.55 280.46L109.27 314.69L89.9204 193.54C88.3204 183.55 94.3204 174.29 103.32 172.85L285.02 143.83C294.02 142.39 302.61 149.33 304.2 159.32V159.31Z" fill="#EE4A00"/>
<path d="M107.611 316.97L87.9406 193.85C87.0906 188.53 88.1606 183.22 90.9606 178.9C93.8006 174.51 98.0806 171.66 103.001 170.87L284.701 141.85C294.781 140.23 304.411 147.93 306.171 159L325.841 282.12L107.611 316.98V316.97ZM287.381 145.63C286.701 145.63 286.021 145.68 285.331 145.79L103.631 174.81C99.8406 175.42 96.5306 177.64 94.3206 181.06C92.0606 184.55 91.2006 188.87 91.8906 193.21L110.921 312.38L321.251 278.79L302.221 159.62C300.921 151.51 294.491 145.63 287.371 145.63H287.381Z" fill="white"/>
<path d="M311.042 306.76L240.792 317.98L202.582 324.08H202.562L202.552 324.09L199.412 322.81L198.962 322.63L192.292 323.7H192.282L185.602 324.76L189.192 326.22L129.342 335.78C120.342 337.21 111.922 331.33 110.492 322.33L110.082 319.78L109.582 316.66L109.262 314.68H109.272L113.322 314.03L146.112 308.79H146.132L147.852 308.52L152.802 307.72L156.402 307.15L159.482 306.66H159.502L316.512 281.57L323.512 280.46H323.552L323.862 282.43L324.772 288.11C326.212 297.1 320.042 305.32 311.042 306.76Z" fill="#FF6D2A"/>
<path d="M326.751 287.79L325.841 282.11L325.211 278.17L323.301 278.47H323.241L323.231 278.48L321.261 278.79L314.411 279.88H314.381L307.781 280.94H307.751L155.931 305.2H155.901L149.231 306.27H149.211L142.541 307.34H142.521L114.571 311.81L110.931 312.39L110.161 312.51L108.951 312.7L106.981 313.02H106.971L107.611 317.03L108.501 322.58V322.65C109.291 327.52 111.921 331.76 115.921 334.6C119.061 336.83 122.781 337.99 126.621 337.99C127.631 337.99 128.641 337.91 129.661 337.75L192.771 327.67L189.201 326.22H189.191L185.601 324.76H185.591L129.031 333.8C125.181 334.42 121.351 333.54 118.231 331.34C115.121 329.13 113.071 325.82 112.461 322.02L111.651 316.99L111.551 316.34L112.061 316.26L149.691 310.25H149.711L149.731 310.24L156.391 309.18L163.061 308.11H163.081L321.881 282.74L322.791 288.42C324.051 296.31 318.741 303.5 310.721 304.78L239.341 316.18L199.491 322.54L198.971 322.63H198.951L199.401 322.81L202.541 324.09H202.551L206.131 325.54L242.211 319.77L311.341 308.73C321.411 307.12 328.311 297.73 326.731 287.79H326.751Z" fill="white"/>
<path d="M264.542 356.71L243.012 348H243.032L264.542 356.71Z" fill="#FF6D2A"/>
<path d="M287.032 353.12L277.932 354.57H277.912L256.402 345.87L254.592 345.14H254.612L261.732 344L284.992 340.28C286.642 340.02 288.192 341.14 288.452 342.79L289.552 349.66C289.812 351.31 288.692 352.86 287.042 353.12H287.032Z" fill="#FF6D2A"/>
<path d="M185.29 97.5798L237.34 267.14C237.85 268.79 236.92 270.53 235.27 271.04L78.72 319.1C77.07 319.61 75.33 318.68 74.82 317.03L22.84 147.69C22.03 145.06 23.69 142.23 26.54 141.36L178.98 94.5698C181.69 93.7398 184.53 95.0798 185.29 97.5898V97.5798Z" fill="#FF9460"/>
<path d="M79.1894 320.96C76.5594 321.71 73.7894 320.22 72.9894 317.59L21.0094 148.26C20.4594 146.47 20.6894 144.57 21.6594 142.91C22.5994 141.3 24.1294 140.1 25.9694 139.53L178.409 92.7302C180.159 92.1802 182.059 92.3102 183.689 93.0902C185.369 93.8902 186.589 95.2902 187.129 97.0202L239.179 266.58C239.579 267.87 239.449 269.23 238.809 270.42C238.179 271.61 237.119 272.48 235.839 272.88L79.2894 320.93C79.2894 320.93 79.2194 320.95 79.1894 320.96ZM179.609 96.3802C179.609 96.3802 179.559 96.3902 179.539 96.4002L27.0994 143.2C26.1794 143.48 25.4294 144.06 24.9794 144.84C24.5594 145.57 24.4494 146.38 24.6794 147.13L76.6594 316.47C76.7494 316.78 76.9594 317.03 77.2494 317.18C77.5294 317.33 77.8694 317.41 78.1694 317.27L234.719 269.21C235.029 269.12 235.279 268.91 235.429 268.63C235.579 268.35 235.609 268.02 235.519 267.71L183.449 98.1502C183.239 97.4602 182.739 96.8902 182.029 96.5602C181.289 96.2102 180.439 96.1502 179.609 96.3802Z" fill="white"/>
<path d="M38.5509 154.79C40.5777 154.79 42.2209 153.147 42.2209 151.12C42.2209 149.093 40.5777 147.45 38.5509 147.45C36.524 147.45 34.8809 149.093 34.8809 151.12C34.8809 153.147 36.524 154.79 38.5509 154.79Z" fill="#FF6D2A"/>
<path d="M49.5704 151.401C51.5973 151.401 53.2404 149.757 53.2404 147.731C53.2404 145.704 51.5973 144.061 49.5704 144.061C47.5435 144.061 45.9004 145.704 45.9004 147.731C45.9004 149.757 47.5435 151.401 49.5704 151.401Z" fill="#FF6D2A"/>
<path d="M60.6016 148.021C62.6284 148.021 64.2716 146.377 64.2716 144.351C64.2716 142.324 62.6284 140.681 60.6016 140.681C58.5747 140.681 56.9316 142.324 56.9316 144.351C56.9316 146.377 58.5747 148.021 60.6016 148.021Z" fill="#FF6D2A"/>
<path d="M72.002 144.521C74.0288 144.521 75.672 142.877 75.672 140.851C75.672 138.824 74.0288 137.181 72.002 137.181C69.9751 137.181 68.332 138.824 68.332 140.851C68.332 142.877 69.9751 144.521 72.002 144.521Z" fill="#FF6D2A"/>
<path d="M161.42 117.069C163.447 117.069 165.09 115.426 165.09 113.399C165.09 111.373 163.447 109.729 161.42 109.729C159.394 109.729 157.75 111.373 157.75 113.399C157.75 115.426 159.394 117.069 161.42 117.069Z" fill="#FF6D2A"/>
<path d="M172.449 113.68C174.476 113.68 176.119 112.037 176.119 110.01C176.119 107.983 174.476 106.34 172.449 106.34C170.422 106.34 168.779 107.983 168.779 110.01C168.779 112.037 170.422 113.68 172.449 113.68Z" fill="#FF6D2A"/>
<path d="M143.912 105.327L140.088 106.501L147.72 131.356L151.544 130.182L143.912 105.327Z" fill="white"/>
<path d="M190.355 116.941L28.7637 166.499L29.9365 170.323L191.528 120.766L190.355 116.941Z" fill="white"/>
<path d="M101.988 221.223L78.6217 228.286C75.4709 229.239 73.6888 232.565 74.6413 235.716L80.2811 254.372C81.2335 257.523 84.5599 259.305 87.7107 258.352L111.077 251.289C114.227 250.336 116.01 247.01 115.057 243.859L109.417 225.203C108.465 222.052 105.139 220.27 101.988 221.223Z" fill="#EE4A00"/>
<path d="M114.731 221.231C113.941 221.451 113.121 221.011 112.881 220.221C112.641 219.431 113.091 218.591 113.881 218.351L190.54 195.171H190.561C191.351 194.941 192.171 195.391 192.411 196.171C192.651 196.961 192.201 197.801 191.411 198.041L114.751 221.221H114.731V221.231Z" fill="#FF6D2A"/>
<path d="M116.59 227.391C115.8 227.611 114.98 227.171 114.74 226.381C114.5 225.591 114.95 224.751 115.74 224.511L192.4 201.331C193.16 201.111 194.03 201.541 194.27 202.331C194.51 203.121 194.06 203.961 193.27 204.201L116.61 227.381H116.59V227.391Z" fill="#FF6D2A"/>
<path d="M118.46 233.55C117.67 233.77 116.85 233.33 116.61 232.54C116.37 231.75 116.82 230.91 117.61 230.67L194.27 207.49C195.03 207.24 195.9 207.7 196.14 208.49C196.38 209.28 195.93 210.12 195.14 210.36L118.48 233.54H118.46V233.55Z" fill="#FF6D2A"/>
<path d="M120.321 239.711C119.531 239.931 118.711 239.491 118.471 238.701C118.231 237.911 118.681 237.071 119.471 236.831L196.131 213.651H196.151C196.941 213.421 197.761 213.871 198.001 214.651C198.241 215.441 197.791 216.281 197.001 216.521L120.341 239.701H120.321V239.711Z" fill="#FF6D2A"/>
<path d="M122.391 246.551C121.601 246.771 120.781 246.331 120.541 245.541C120.301 244.751 120.751 243.911 121.541 243.671L198.201 220.491C198.961 220.291 199.831 220.701 200.071 221.491C200.311 222.281 199.861 223.121 199.071 223.361L122.411 246.541H122.391V246.551Z" fill="#FF6D2A"/>
<path d="M181.982 271.087L205.348 264.023C208.498 263.071 210.281 259.745 209.328 256.594L203.688 237.938C202.736 234.787 199.41 233.005 196.259 233.957L172.893 241.021C169.742 241.973 167.96 245.299 168.913 248.45L174.552 267.106C175.505 270.257 178.831 272.039 181.982 271.087Z" fill="#EE4A00"/>
<path d="M93.3911 297.151C92.6011 297.371 91.7811 296.931 91.5411 296.141C91.3011 295.351 91.7511 294.511 92.5411 294.271L169.201 271.091C170.011 270.871 170.831 271.301 171.071 272.091C171.311 272.881 170.861 273.721 170.071 273.961L93.4111 297.141H93.3911V297.151Z" fill="#FF6D2A"/>
<path d="M91.5298 290.99C90.7398 291.21 89.9198 290.77 89.6798 289.98C89.4398 289.19 89.8898 288.35 90.6798 288.11L167.34 264.93H167.36C168.15 264.7 168.97 265.15 169.21 265.93C169.45 266.72 169 267.56 168.21 267.8L91.5498 290.98H91.5298V290.99Z" fill="#FF6D2A"/>
<path d="M89.6704 284.83C88.8804 285.05 88.0604 284.61 87.8204 283.82C87.5804 283.03 88.0304 282.19 88.8204 281.95L165.48 258.77C166.27 258.51 167.11 258.98 167.35 259.77C167.59 260.56 167.14 261.4 166.35 261.64L89.6904 284.82H89.6704V284.83Z" fill="#FF6D2A"/>
<path d="M87.8111 278.671C87.0211 278.891 86.2011 278.451 85.9611 277.661C85.7211 276.871 86.1711 276.031 86.9611 275.791L163.621 252.611C164.421 252.381 165.251 252.821 165.491 253.611C165.731 254.401 165.281 255.241 164.491 255.481L87.8311 278.661H87.8111V278.671Z" fill="#FF6D2A"/>
<path d="M85.7408 271.831C84.9508 272.051 84.1308 271.611 83.8908 270.821C83.6508 270.031 84.1008 269.191 84.8908 268.951L161.55 245.771C162.36 245.561 163.18 245.981 163.42 246.771C163.66 247.561 163.21 248.401 162.42 248.641L85.7608 271.821H85.7408V271.831Z" fill="#FF6D2A"/>
<path d="M167.341 142.134L62.6686 173.777C59.5178 174.729 57.7357 178.055 58.6882 181.206L69.1227 215.723C70.0752 218.874 73.4016 220.656 76.5524 219.704L181.225 188.062C184.375 187.109 186.157 183.783 185.205 180.632L174.77 146.115C173.818 142.964 170.492 141.182 167.341 142.134Z" fill="#FF6D2A"/>
<path d="M332.1 165.66L324.12 276.23C323.95 278.62 321.87 280.42 319.48 280.25L158.58 268.63C156.19 268.46 154.39 266.38 154.56 263.99L162.53 153.56C162.66 151.81 165.16 150.57 168.13 150.79L327.18 162.27C330.01 162.47 332.22 163.99 332.1 165.66Z" fill="#FF9460"/>
<path d="M319.791 281.8C319.651 281.8 319.501 281.8 319.361 281.78L158.461 270.16C156.891 270.05 155.471 269.33 154.441 268.14C153.411 266.95 152.911 265.44 153.021 263.87L160.991 153.44C161.091 152.05 162.031 150.82 163.571 150.05C164.871 149.41 166.521 149.12 168.231 149.24L327.281 160.72C331.021 160.99 333.801 163.2 333.621 165.75L325.641 276.32C325.531 277.89 324.811 279.31 323.621 280.34C322.541 281.27 321.201 281.77 319.791 281.77V281.8ZM167.471 152.31C166.521 152.31 165.621 152.49 164.941 152.83C164.421 153.09 164.071 153.42 164.061 153.69L156.091 264.12C156.041 264.87 156.281 265.59 156.771 266.16C157.261 266.73 157.941 267.07 158.691 267.12L319.591 278.74C320.341 278.8 321.061 278.55 321.631 278.06C322.201 277.57 322.541 276.89 322.591 276.14L330.571 165.57C330.611 165.06 329.271 163.98 327.071 163.82L168.021 152.34C167.841 152.33 167.651 152.32 167.471 152.32V152.31Z" fill="white"/>
<path d="M298.84 176.471C300.867 176.471 302.51 174.828 302.51 172.801C302.51 170.774 300.867 169.131 298.84 169.131C296.814 169.131 295.17 170.774 295.17 172.801C295.17 174.828 296.814 176.471 298.84 176.471Z" fill="#FF6D2A"/>
<path d="M161.282 175.074L160.994 179.064L329.575 191.236L329.863 187.247L161.282 175.074Z" fill="white"/>
<path d="M202.03 218.083L187.114 216.943C183.832 216.693 180.968 219.15 180.717 222.432L179.936 232.652C179.685 235.934 182.142 238.798 185.424 239.049L200.341 240.189C203.623 240.44 206.487 237.982 206.738 234.7L207.519 224.48C207.769 221.198 205.312 218.334 202.03 218.083Z" fill="#EE4A00"/>
<path d="M203.371 246.56C203.371 246.56 203.321 246.56 203.291 246.56L181.751 244.91C181.201 244.87 180.791 244.39 180.831 243.84C180.871 243.29 181.351 242.87 181.901 242.92L203.441 244.57C203.991 244.61 204.401 245.09 204.361 245.64C204.321 246.16 203.881 246.56 203.361 246.56H203.371Z" fill="#FF6D2A"/>
<path d="M203 251.31C203 251.31 202.95 251.31 202.92 251.31L181.38 249.66C180.83 249.62 180.42 249.14 180.46 248.59C180.5 248.04 180.96 247.63 181.53 247.67L203.07 249.32C203.62 249.36 204.03 249.84 203.99 250.39C203.95 250.91 203.51 251.31 202.99 251.31H203Z" fill="#FF6D2A"/>
<path d="M202.64 256.06C202.64 256.06 202.59 256.06 202.56 256.06L181.02 254.41C180.47 254.37 180.06 253.89 180.1 253.34C180.14 252.79 180.61 252.37 181.17 252.42L202.71 254.07C203.26 254.11 203.67 254.59 203.63 255.14C203.59 255.66 203.15 256.06 202.63 256.06H202.64Z" fill="#FF6D2A"/>
<path d="M202.281 260.81C202.281 260.81 202.231 260.81 202.201 260.81L180.661 259.16C180.111 259.12 179.701 258.64 179.741 258.09C179.781 257.54 180.241 257.12 180.811 257.17L202.351 258.82C202.901 258.86 203.311 259.34 203.271 259.89C203.231 260.41 202.791 260.81 202.271 260.81H202.281Z" fill="#FF6D2A"/>
<path d="M234.398 220.422L219.481 219.282C216.199 219.031 213.335 221.489 213.084 224.771L212.303 234.991C212.053 238.273 214.51 241.137 217.792 241.388L232.709 242.528C235.991 242.779 238.854 240.321 239.105 237.039L239.886 226.819C240.137 223.537 237.68 220.673 234.398 220.422Z" fill="#EE4A00"/>
<path d="M235.73 248.9C235.73 248.9 235.68 248.9 235.65 248.9L214.11 247.25C213.56 247.21 213.15 246.73 213.19 246.18C213.23 245.63 213.69 245.21 214.26 245.26L235.8 246.91C236.35 246.95 236.76 247.43 236.72 247.98C236.68 248.5 236.24 248.9 235.72 248.9H235.73Z" fill="#FF6D2A"/>
<path d="M235.371 253.65C235.371 253.65 235.321 253.65 235.291 253.65L213.751 252C213.201 251.96 212.791 251.48 212.831 250.93C212.871 250.38 213.341 249.97 213.901 250.01L235.441 251.66C235.991 251.7 236.401 252.18 236.361 252.73C236.321 253.25 235.881 253.65 235.361 253.65H235.371Z" fill="#FF6D2A"/>
<path d="M235 258.4C235 258.4 234.95 258.4 234.92 258.4L213.38 256.75C212.83 256.71 212.42 256.23 212.46 255.68C212.5 255.13 212.96 254.72 213.53 254.76L235.07 256.41C235.62 256.45 236.03 256.93 235.99 257.48C235.95 258 235.51 258.4 234.99 258.4H235Z" fill="#FF6D2A"/>
<path d="M234.64 263.15C234.64 263.15 234.59 263.15 234.56 263.15L213.02 261.5C212.47 261.46 212.06 260.98 212.1 260.43C212.14 259.88 212.61 259.46 213.17 259.51L234.71 261.16C235.26 261.2 235.67 261.68 235.63 262.23C235.59 262.75 235.15 263.15 234.63 263.15H234.64Z" fill="#FF6D2A"/>
<path d="M266.815 222.766L251.899 221.626C248.617 221.375 245.753 223.832 245.502 227.115L244.721 237.335C244.47 240.617 246.927 243.481 250.209 243.732L265.126 244.871C268.408 245.122 271.272 242.665 271.523 239.383L272.304 229.163C272.555 225.881 270.097 223.017 266.815 222.766Z" fill="#EE4A00"/>
<path d="M268.15 251.241C268.15 251.241 268.1 251.241 268.07 251.241L246.53 249.591C245.98 249.551 245.57 249.071 245.61 248.521C245.65 247.971 246.13 247.551 246.68 247.601L268.22 249.251C268.77 249.291 269.18 249.771 269.14 250.321C269.1 250.841 268.66 251.241 268.14 251.241H268.15Z" fill="#FF6D2A"/>
<path d="M267.781 255.99C267.781 255.99 267.731 255.99 267.701 255.99L246.161 254.34C245.611 254.3 245.201 253.82 245.241 253.27C245.281 252.72 245.741 252.31 246.311 252.35L267.851 254C268.401 254.04 268.811 254.52 268.771 255.07C268.731 255.59 268.291 255.99 267.771 255.99H267.781Z" fill="#FF6D2A"/>
<path d="M267.42 260.741C267.42 260.741 267.37 260.741 267.34 260.741L245.8 259.091C245.25 259.051 244.84 258.571 244.88 258.021C244.92 257.471 245.39 257.051 245.95 257.101L267.49 258.751C268.04 258.791 268.45 259.271 268.41 259.821C268.37 260.341 267.93 260.741 267.41 260.741H267.42Z" fill="#FF6D2A"/>
<path d="M267.06 265.491C267.06 265.491 267.01 265.491 266.98 265.491L245.44 263.841C244.89 263.801 244.48 263.321 244.52 262.771C244.56 262.221 245.02 261.801 245.59 261.851L267.13 263.501C267.68 263.541 268.09 264.021 268.05 264.571C268.01 265.091 267.57 265.491 267.05 265.491H267.06Z" fill="#FF6D2A"/>
<path d="M298.737 225.061L283.821 223.921C280.539 223.67 277.675 226.127 277.424 229.409L276.643 239.63C276.392 242.912 278.849 245.776 282.131 246.026L297.048 247.166C300.33 247.417 303.194 244.96 303.445 241.678L304.226 231.458C304.476 228.176 302.019 225.312 298.737 225.061Z" fill="#EE4A00"/>
<path d="M300.06 253.55C300.06 253.55 300.01 253.55 299.98 253.55L278.44 251.9C277.89 251.86 277.48 251.38 277.52 250.83C277.56 250.28 278.03 249.87 278.59 249.91L300.13 251.56C300.68 251.6 301.09 252.08 301.05 252.63C301.01 253.15 300.57 253.55 300.05 253.55H300.06Z" fill="#FF6D2A"/>
<path d="M299.701 258.29C299.701 258.29 299.651 258.29 299.621 258.29L278.081 256.64C277.531 256.6 277.121 256.12 277.161 255.57C277.201 255.02 277.681 254.61 278.231 254.65L299.771 256.3C300.321 256.34 300.731 256.82 300.691 257.37C300.651 257.89 300.211 258.29 299.691 258.29H299.701Z" fill="#FF6D2A"/>
<path d="M299.34 263.04C299.34 263.04 299.29 263.04 299.26 263.04L277.72 261.39C277.17 261.35 276.76 260.87 276.8 260.32C276.84 259.77 277.3 259.35 277.87 259.4L299.41 261.05C299.96 261.09 300.37 261.57 300.33 262.12C300.29 262.64 299.85 263.04 299.33 263.04H299.34Z" fill="#FF6D2A"/>
<path d="M298.97 267.79C298.97 267.79 298.92 267.79 298.89 267.79L277.35 266.14C276.8 266.1 276.39 265.62 276.43 265.07C276.47 264.52 276.94 264.11 277.5 264.15L299.04 265.8C299.59 265.84 300 266.32 299.96 266.87C299.92 267.39 299.48 267.79 298.96 267.79H298.97Z" fill="#FF6D2A"/>
<path d="M313.992 197.991L175.934 187.44C172.652 187.19 169.788 189.647 169.538 192.929L168.777 202.88C168.526 206.162 170.984 209.026 174.266 209.277L312.323 219.827C315.605 220.078 318.469 217.621 318.72 214.338L319.48 204.388C319.731 201.105 317.274 198.242 313.992 197.991Z" fill="#FF6D2A"/>
<path d="M242.05 200.14L233.4 208.87L254.01 210.36L247.84 203.23L245.08 204.37L242.05 200.14Z" fill="#EE4A00"/>
<path d="M249.41 202C250.515 202 251.41 201.105 251.41 200C251.41 198.895 250.515 198 249.41 198C248.306 198 247.41 198.895 247.41 200C247.41 201.105 248.306 202 249.41 202Z" fill="#EE4A00"/>
<path d="M226.08 164.561C245.271 164.561 260.83 149.002 260.83 129.81C260.83 110.619 245.271 95.0605 226.08 95.0605C206.888 95.0605 191.33 110.619 191.33 129.81C191.33 149.002 206.888 164.561 226.08 164.561Z" fill="#FF6D2A"/>
<path d="M226.131 166.56C225.231 166.56 224.331 166.53 223.431 166.46C203.221 165 187.961 147.37 189.421 127.16C190.881 106.95 208.511 91.7001 228.721 93.1501C248.931 94.6101 264.191 112.24 262.731 132.45C262.021 142.24 257.551 151.17 250.121 157.59C243.381 163.42 234.951 166.55 226.131 166.55V166.56ZM226.051 97.0601C209.051 97.0601 194.651 110.24 193.411 127.45C192.111 145.46 205.701 161.17 223.721 162.47C232.461 163.11 240.891 160.3 247.511 154.57C254.131 148.85 258.111 140.89 258.741 132.16C260.041 114.15 246.451 98.4401 228.431 97.1401C227.631 97.0801 226.841 97.0501 226.051 97.0501V97.0601Z" fill="white"/>
<path d="M248.231 137.65L244.061 135.53C244.601 134 244.941 132.37 245.061 130.67C245.161 129.29 245.111 127.95 244.921 126.63L249.121 125.22C250.691 124.69 251.541 122.99 251.011 121.42C250.481 119.85 248.781 119 247.211 119.53L243.141 120.9C241.811 118.2 239.841 115.84 237.421 114.04L239.281 110.36C240.031 108.88 239.441 107.07 237.961 106.32C236.481 105.57 234.671 106.16 233.921 107.64L232.081 111.26C230.621 110.77 229.081 110.46 227.471 110.35C225.861 110.23 224.291 110.32 222.781 110.59L221.481 106.75C220.951 105.18 219.241 104.33 217.681 104.86C216.111 105.39 215.261 107.09 215.791 108.66L217.101 112.56C214.451 113.99 212.161 116.04 210.451 118.53L206.621 116.59C205.141 115.84 203.331 116.43 202.581 117.91C201.831 119.39 202.421 121.2 203.901 121.95L207.861 123.95C207.491 125.23 207.241 126.55 207.141 127.93C207.021 129.63 207.121 131.29 207.431 132.88L203.001 134.37C201.431 134.9 200.581 136.6 201.111 138.17C201.511 139.35 202.571 140.12 203.741 140.2C204.131 140.23 204.521 140.19 204.911 140.05L209.481 138.52C210.861 140.99 212.781 143.13 215.081 144.78L212.831 149.22C212.081 150.7 212.671 152.51 214.151 153.26C214.521 153.45 214.901 153.54 215.291 153.57C216.461 153.65 217.621 153.05 218.191 151.93L220.471 147.43C221.811 147.85 223.241 148.12 224.701 148.23C226.171 148.34 227.611 148.27 229.001 148.05L230.611 152.83C231.011 154.01 232.071 154.78 233.241 154.86C233.631 154.89 234.021 154.85 234.411 154.71C235.981 154.18 236.831 152.48 236.301 150.91L234.721 146.19C237.241 144.89 239.451 143.04 241.161 140.8L245.461 142.98C245.831 143.17 246.211 143.26 246.601 143.29C247.771 143.37 248.931 142.77 249.501 141.65C250.251 140.17 249.661 138.36 248.181 137.61L248.231 137.65ZM232.821 140.44C231.121 141.47 229.171 142.11 227.101 142.27C226.471 142.31 225.821 142.32 225.171 142.27C224.521 142.22 223.891 142.13 223.271 141.99C221.251 141.53 219.411 140.62 217.881 139.35C216.911 138.55 216.051 137.61 215.351 136.57C214.231 134.91 213.481 133 213.211 130.95C213.111 130.1 213.081 129.24 213.151 128.36C213.191 127.81 213.261 127.26 213.381 126.73C213.781 124.69 214.661 122.83 215.891 121.27C216.781 120.14 217.871 119.16 219.081 118.37C220.751 117.29 222.691 116.59 224.741 116.37C225.501 116.28 226.271 116.27 227.061 116.33C227.851 116.39 228.611 116.51 229.351 116.71C231.351 117.22 233.161 118.19 234.661 119.5C235.741 120.45 236.681 121.58 237.401 122.83C238.391 124.56 239.001 126.52 239.101 128.6C239.141 129.14 239.131 129.7 239.101 130.24C239.041 131.12 238.881 131.97 238.661 132.8C238.101 134.78 237.081 136.58 235.731 138.05C234.891 138.98 233.911 139.78 232.831 140.44H232.821Z" fill="#E84B0F"/>
<path d="M226.08 134.81C228.842 134.81 231.08 132.571 231.08 129.81C231.08 127.048 228.842 124.81 226.08 124.81C223.319 124.81 221.08 127.048 221.08 129.81C221.08 132.571 223.319 134.81 226.08 134.81Z" fill="#E84B0F"/>
<path d="M466.68 297.861L465.24 298.381L428.76 311.631L412.26 317.621L335.5 345.501L333.62 346.181C330.02 343.991 327.42 340.241 326.89 335.761L322.88 302.081L322.54 299.201L322.11 295.611L320.6 282.951L320.46 281.761L320.37 280.961L320.28 280.231L320.13 278.971L320.1 278.721L316.73 250.431L314.61 232.601L314.14 228.651L313.67 224.691L313.09 219.821L310.82 200.761V200.671L310.45 197.711L309.51 189.781L309.27 187.751L309.03 185.741L308.36 180.121C308.15 178.321 308.28 176.561 308.72 174.901C310.15 169.421 314.82 165.081 320.76 164.381L326.1 163.741H326.12L330.43 163.231H330.44L332.55 162.981L404.6 154.401L407.52 154.051L434.91 150.791C436.34 150.621 437.75 150.671 439.11 150.921C439.48 150.991 439.85 151.071 440.21 151.171C440.57 151.261 440.93 151.381 441.28 151.501C444.4 152.611 447.07 154.791 448.77 157.651C448.98 157.991 449.17 158.351 449.35 158.721C449.53 159.101 449.7 159.491 449.85 159.901C449.96 160.181 450.06 160.471 450.14 160.761C450.28 161.211 450.4 161.671 450.48 162.141C450.55 162.481 450.61 162.831 450.65 163.181L450.71 163.671L451.77 172.591L451.91 173.801L452.06 175.021L455.24 201.691L455.59 204.681L457.07 217.101L457.45 220.311L457.57 221.281L458.18 226.411L462.03 258.781L462.25 260.581L462.46 262.391L465.11 284.611L465.58 288.561L465.61 288.871L465.83 290.671L466.04 292.481V292.511L466.68 297.861Z" fill="#FF6D2A"/>
<path d="M450.48 162.141L451.67 160.621C451.54 160.191 451.4 159.761 451.24 159.341C451.14 159.071 451.03 158.801 450.92 158.541C450.75 158.161 450.57 157.801 450.36 157.431L449.35 158.721C449.17 158.351 448.98 157.991 448.77 157.651L447.77 158.931C447.97 159.301 448.15 159.681 448.3 160.071C448.48 160.481 448.62 160.901 448.74 161.331C448.84 161.631 448.91 161.931 448.98 162.241C449.05 162.621 449.12 162.991 449.16 163.361L449.21 163.771L449.4 165.351L450.71 163.681L450.65 163.181C450.61 162.831 450.55 162.481 450.48 162.141ZM333.13 344.021C330.47 341.921 328.78 338.921 328.38 335.581L324.18 300.281L323.77 296.821L322.97 290.161V290.051L322.66 287.581V287.451L322.09 282.711L321.93 281.391L321.85 280.721L321.74 279.801L321.61 278.731L321.54 278.121L316.74 237.831V237.781L316.72 237.681L316.19 233.231L315.72 229.281L315.25 225.321L314.57 219.561L311.98 197.831L311.03 189.891L309.51 189.781L310.45 197.711L310.81 200.671V200.761L313.09 219.821C312.84 219.841 312.59 219.841 312.33 219.821L311.84 219.781L311.57 219.761L312.08 224.061L312.55 228.021L313.19 228.271L313.84 232.301L314.61 232.601L316.73 250.421L321.19 278.361L321.26 278.791L320.13 278.971L320.28 280.231L320.37 280.961L318.88 281.201L318.95 281.751L319.12 283.181L320.9 298.101L321.24 301.001L321.55 303.551L325.4 335.931C325.89 340.071 327.98 343.781 331.28 346.381C331.47 346.531 331.67 346.681 331.87 346.821L333.62 346.181L335.5 345.501C334.67 345.101 333.87 344.601 333.13 344.021ZM351.66 347.071L345.47 349.321H345.5L351.69 347.071H351.66ZM467.63 293.141L467.41 291.291L467.2 289.481L467.16 289.191L466.98 287.681L466.69 285.241L463.83 261.191L463.62 259.391L463.4 257.581L459.83 227.611L459.23 222.581L458.78 218.751L458.73 218.401L457.09 204.611L456.74 201.621L453.47 174.191L453.33 172.971L453.18 171.761L452.14 163.011C452.1 162.681 452.05 162.351 451.99 162.031C451.9 161.551 451.79 161.081 451.67 160.621C451.54 160.191 451.4 159.761 451.24 159.341C451.14 159.071 451.03 158.801 450.92 158.541C450.75 158.161 450.57 157.801 450.36 157.431C450.18 157.071 449.98 156.721 449.75 156.391C448.83 154.951 447.65 153.661 446.26 152.561C444.88 151.461 443.35 150.631 441.73 150.061C441.38 149.941 441.02 149.831 440.66 149.731C440.3 149.631 439.93 149.541 439.56 149.481C437.98 149.171 436.36 149.111 434.73 149.301L407.55 152.541L404.63 152.881L330.77 161.681L326.26 162.211H326.22L320.58 162.891C319.97 162.961 319.38 163.071 318.79 163.211H318.77C315.36 164.021 312.35 165.951 310.13 168.771C309.37 169.731 308.74 170.761 308.23 171.841C307.57 173.261 307.12 174.741 306.91 176.281C306.73 177.611 306.71 178.951 306.87 180.301L307.5 185.631L307.74 187.641L307.99 189.671L308.93 197.591L310.79 213.211V213.231L311.57 219.761L312.08 224.061L312.55 228.021L313.02 231.981L318.58 278.651L318.65 279.211L318.76 280.201L318.88 281.191L318.95 281.751L319.12 283.181L320.9 298.101L321.24 301.001L321.55 303.551L325.4 335.931C325.89 340.071 327.98 343.781 331.28 346.381C331.47 346.531 331.67 346.681 331.87 346.821L333.62 346.181L335.5 345.501C334.67 345.101 333.87 344.601 333.13 344.021C330.47 341.921 328.78 338.921 328.38 335.581L324.18 300.281L323.77 296.821L322.97 290.161V290.051L322.66 287.581V287.451L322.09 282.711L321.93 281.391L321.85 280.721L321.74 279.801L321.61 278.731L321.54 278.121L316.74 237.831V237.781L316.72 237.681L316.19 233.231L315.72 229.281L315.25 225.321L314.57 219.561L311.98 197.831L311.03 189.891L310.8 187.931V187.861L310.55 185.851L309.85 179.941C309.03 173.011 314 166.691 320.94 165.871L330.01 164.791L331.82 164.571H331.83L333.41 164.381L404.61 155.911L407.52 155.561L435.07 152.281C435.58 152.221 436.08 152.191 436.58 152.191C437.28 152.191 437.97 152.251 438.65 152.361C439.02 152.421 439.39 152.501 439.75 152.591C440.11 152.691 440.46 152.801 440.82 152.921C442.1 153.381 443.29 154.051 444.4 154.921C445.81 156.031 446.94 157.391 447.76 158.931C447.96 159.301 448.14 159.681 448.29 160.071C448.47 160.481 448.61 160.901 448.73 161.331C448.83 161.631 448.9 161.931 448.97 162.241C449.04 162.621 449.11 162.991 449.15 163.361L449.2 163.771L449.39 165.351L450.35 173.421L450.49 174.631L450.64 175.851L453.72 201.711L454.07 204.711L455.39 215.801L455.89 219.981L460.65 259.981L460.87 261.781L461.08 263.591L463.51 283.991L463.98 287.941V287.981L463.99 287.991L464.3 290.611L464.45 291.881L464.57 292.841L465.23 298.381L466.67 297.861L468.12 297.331L467.62 293.141H467.63Z" fill="white"/>
<path d="M486.77 295.61C486.75 296.8 486.13 297.88 485.15 298.5C484.94 298.65 484.72 298.76 484.47 298.85L481.84 299.81L468.99 304.47L467.54 305L466.1 305.53L357.89 344.82H357.86L351.7 347.07H351.67L345.48 349.32L298.2 366.49L296.6 363.36L296.46 363.1C296.43 363.04 296.4 362.98 296.37 362.92C296.32 362.82 296.26 362.73 296.2 362.64C296.17 362.59 296.13 362.53 296.09 362.49C296.06 362.44 296.02 362.39 295.98 362.34C295.96 362.31 295.94 362.29 295.91 362.27C295.91 362.24 295.88 362.22 295.86 362.2L295.8 362.14C295.8 362.14 295.72 362.05 295.67 362.01C295.63 361.97 295.59 361.94 295.55 361.9C295.53 361.88 295.51 361.87 295.49 361.85C295.49 361.85 295.45 361.81 295.43 361.8C295.4 361.78 295.36 361.75 295.32 361.72C295.27 361.68 295.22 361.65 295.16 361.61C295.14 361.6 295.12 361.59 295.1 361.57C294.98 361.5 294.85 361.43 294.71 361.37C294.69 361.36 294.67 361.35 294.64 361.34C294.62 361.33 294.61 361.33 294.59 361.32L294.45 361.27L294.36 361.24L294.21 361.18L293.34 360.82H293.35L331.88 346.82L333.63 346.18L335.51 345.5L412.27 317.62L428.77 311.63L465.25 298.38L466.69 297.86L468.14 297.33L473.41 295.42L478.37 293.62L482.09 292.27C482.9 291.98 483.76 292 484.52 292.29C484.62 292.33 484.72 292.37 484.81 292.42C484.89 292.45 484.96 292.49 485.03 292.53C485.11 292.58 485.19 292.63 485.27 292.68C485.35 292.74 485.42 292.8 485.5 292.86C485.56 292.9 485.62 292.95 485.67 293.01C485.88 293.21 486.07 293.43 486.23 293.68L486.31 293.81C486.62 294.35 486.79 294.97 486.78 295.61H486.77Z" fill="white"/>
<path d="M344.041 184.49C343.041 184.49 342.181 183.74 342.061 182.73C341.931 181.63 342.711 180.64 343.811 180.51L415.561 171.97C416.651 171.85 417.651 172.62 417.781 173.72C417.911 174.82 417.131 175.81 416.031 175.94L344.281 184.48C344.201 184.48 344.121 184.49 344.041 184.49Z" fill="white"/>
<path d="M350.359 280.651C349.359 280.651 348.499 279.901 348.379 278.891C348.249 277.791 349.029 276.801 350.129 276.671L432.979 266.811C434.069 266.691 435.069 267.461 435.199 268.561C435.329 269.661 434.549 270.651 433.449 270.781L350.599 280.641C350.519 280.641 350.439 280.651 350.359 280.651Z" fill="#EE4A00"/>
<path d="M351.631 291.281C350.631 291.281 349.771 290.531 349.651 289.521C349.521 288.421 350.301 287.431 351.401 287.301L434.251 277.441C435.341 277.321 436.341 278.091 436.471 279.191C436.601 280.291 435.821 281.281 434.721 281.411L351.871 291.271C351.791 291.271 351.711 291.281 351.631 291.281Z" fill="#EE4A00"/>
<path d="M352.891 301.911C351.891 301.911 351.031 301.161 350.911 300.151C350.781 299.051 351.561 298.061 352.661 297.931L435.511 288.071C436.601 287.951 437.601 288.721 437.731 289.821C437.861 290.921 437.081 291.911 435.981 292.041L353.131 301.901C353.051 301.901 352.971 301.911 352.891 301.911Z" fill="#EE4A00"/>
<path d="M354.16 312.552C353.16 312.552 352.3 311.802 352.18 310.792C352.05 309.692 352.83 308.702 353.93 308.572L436.78 298.712C437.87 298.592 438.87 299.362 439 300.462C439.13 301.562 438.35 302.552 437.25 302.682L354.4 312.542C354.32 312.542 354.24 312.552 354.16 312.552Z" fill="#EE4A00"/>
<path d="M428.761 311.631L412.261 317.621L355.801 324.351C355.721 324.351 355.641 324.361 355.561 324.361C354.561 324.361 353.701 323.611 353.581 322.601C353.451 321.501 354.231 320.501 355.331 320.371L428.761 311.631Z" fill="#EE4A00"/>
<path d="M418.92 193.059L345.935 201.749C342.667 202.139 340.333 205.104 340.722 208.372L346.632 258.012C347.021 261.28 349.986 263.614 353.255 263.225L426.239 254.535C429.508 254.146 431.842 251.181 431.453 247.912L425.543 198.273C425.153 195.004 422.188 192.67 418.92 193.059Z" fill="#EE4A00"/>
<path d="M413.7 229.47C413.55 229.25 413.4 229.02 413.24 228.8C410.02 224.19 405.55 220.65 400.48 218.45C395.54 216.32 390.02 215.46 384.49 216.14C373.16 217.54 363.41 225.2 359.54 235.73C359.49 235.88 359.43 236.02 359.38 236.16L359.23 236.6L359.48 236.99C365.74 246.51 377.21 251.74 388.7 250.32C400.19 248.9 410.03 241.04 413.8 230.29L413.96 229.85L413.7 229.46V229.47ZM395.62 231.77L395.05 232.04L394.77 232.15C393.29 232.84 392.01 233.8 390.98 235.01C389.73 236.49 388.89 238.35 388.67 240.4L388.34 244.18C388.31 244.64 387.63 244.76 387.46 244.29L386.12 240.66C385.43 238.86 384.24 237.21 382.73 235.98C381.54 235.02 380.14 234.27 378.65 233.94L378.25 233.83L377.71 233.72C377.26 233.63 377.2 233 377.64 232.84C377.82 232.8 377.96 232.75 378.09 232.68C381.52 231.19 383.89 227.86 384.34 224.16L384.4 223.9L384.88 220.45C384.95 219.97 385.63 219.9 385.76 220.36L386.8 223.61L386.89 223.89C388.07 227.61 391.15 230.17 394.94 230.87C395.15 230.92 395.31 230.93 395.5 230.96C395.72 231 395.87 231.15 395.89 231.35C395.91 231.53 395.81 231.72 395.62 231.8V231.77Z" fill="white"/>
<path d="M360.961 238.07C360.691 238.07 360.431 237.99 360.201 237.81L349.671 229.69C349.121 229.27 349.021 228.49 349.441 227.94C349.861 227.4 350.651 227.29 351.191 227.71L361.721 235.83C362.271 236.25 362.371 237.03 361.951 237.58C361.701 237.9 361.331 238.07 360.961 238.07Z" fill="white"/>
<path d="M369.201 223.081C368.821 223.081 368.451 222.911 368.201 222.581L360.951 212.891C360.541 212.341 360.651 211.561 361.201 211.141C361.751 210.721 362.531 210.841 362.951 211.391L370.201 221.081C370.611 221.631 370.501 222.411 369.951 222.831C369.731 223.001 369.461 223.081 369.201 223.081Z" fill="white"/>
<path d="M412.589 230.871C412.319 230.871 412.049 230.781 411.819 230.601C411.279 230.171 411.189 229.391 411.609 228.851L419.849 218.421C420.279 217.881 421.059 217.791 421.599 218.211C422.139 218.641 422.229 219.421 421.809 219.961L413.569 230.391C413.319 230.701 412.959 230.861 412.589 230.861V230.871Z" fill="white"/>
<path d="M400.331 220.081C400.171 220.081 400.011 220.051 399.851 219.981C399.211 219.711 398.921 218.981 399.181 218.351L403.861 207.181C404.131 206.551 404.861 206.241 405.491 206.511C406.131 206.781 406.421 207.511 406.161 208.141L401.481 219.311C401.281 219.791 400.821 220.081 400.331 220.081Z" fill="white"/>
<path d="M384.521 217.381C383.901 217.381 383.361 216.921 383.281 216.281L381.751 203.901C381.671 203.221 382.151 202.591 382.841 202.511C383.511 202.431 384.151 202.911 384.231 203.601L385.761 215.981C385.841 216.661 385.361 217.291 384.671 217.371C384.621 217.371 384.571 217.371 384.521 217.371V217.381Z" fill="white"/>
<path d="M543.22 248.571L536 224.641L549.91 220.441C552.27 219.731 554.77 221.061 555.48 223.431L560.12 238.811C560.83 241.171 559.5 243.671 557.13 244.381L543.22 248.581V248.571Z" fill="#FF6D2A"/>
<path d="M542.6 249.941C542.22 249.771 541.911 249.441 541.781 249.011L534.561 225.081C534.451 224.701 534.491 224.291 534.671 223.941C534.861 223.591 535.181 223.331 535.561 223.211L549.47 219.011C552.62 218.061 555.96 219.851 556.91 223.001L561.551 238.381C562.501 241.531 560.711 244.871 557.561 245.821L543.651 250.021C543.291 250.131 542.92 250.091 542.6 249.951V249.941ZM537.871 225.641L544.231 246.701L556.711 242.931C558.281 242.461 559.171 240.801 558.691 239.231L554.051 223.851C553.581 222.291 551.92 221.391 550.35 221.871L537.871 225.631V225.641Z" fill="white"/>
<path d="M529.288 226.669L452.699 249.778L459.92 273.713L536.51 250.603L529.288 226.669Z" fill="#EE4A00"/>
<path d="M437.852 262.83L440.152 270.46L456.602 273.05L450.282 252.11L437.852 262.83Z" fill="white"/>
<path d="M537.949 250.161L530.729 226.231C530.609 225.841 530.349 225.521 529.999 225.341C529.649 225.151 529.239 225.111 528.859 225.221L452.269 248.331C451.719 248.501 450.389 249.371 450.129 249.591L436.039 261.741C435.739 262.001 435.619 262.411 435.739 262.781L438.409 271.641C438.489 271.921 438.699 272.141 438.949 272.261C439.039 272.301 439.119 272.321 439.209 272.341L457.849 275.271C458.189 275.321 460.009 275.251 460.359 275.141L536.949 252.031C537.739 251.791 538.189 250.951 537.949 250.161ZM460.929 271.831L454.569 250.771L528.289 228.531L534.639 249.591L460.929 271.831Z" fill="white"/>
<path d="M430.91 267.48L436.7 262.5L439.37 271.36L431.67 270.15C430.38 269.95 429.92 268.33 430.91 267.48Z" fill="#EE4A00"/>
<path d="M430.85 270.94C430.19 270.64 429.68 270.06 429.48 269.33C429.21 268.37 429.51 267.37 430.26 266.72L437.21 260.73L440.79 272.58L431.52 271.13C431.28 271.09 431.06 271.03 430.86 270.93L430.85 270.94ZM431.56 268.24C431.33 268.44 431.37 268.69 431.4 268.78C431.43 268.88 431.53 269.11 431.82 269.16L437.95 270.12L436.18 264.26L431.56 268.24Z" fill="#EE4A00"/>
<path d="M388.401 161.861L386.455 164.131L458.837 226.214L460.784 223.944L388.401 161.861Z" fill="white"/>
<path d="M416.91 127.891C403.22 149.811 406.46 177.021 424.61 192.591C442.58 208.011 469.8 207.201 489.34 190.681L491.27 192.961C470.61 210.431 441.76 211.231 422.67 194.851C413.31 186.821 407.36 175.431 405.91 162.781C404.48 150.301 407.49 137.341 414.38 126.301L416.92 127.881L416.91 127.891Z" fill="white"/>
<path d="M486.251 140.131L500.551 123.461C501.261 122.641 501.161 121.391 500.341 120.691L484.591 107.181C483.771 106.471 482.522 106.571 481.822 107.391L467.521 124.061L486.251 140.131Z" fill="#FF6D2A"/>
<path d="M485.322 106.331L501.072 119.841C502.362 120.951 502.512 122.901 501.402 124.201L486.372 141.731L465.932 124.201L480.962 106.671C482.072 105.381 484.022 105.231 485.322 106.341V106.331ZM486.132 138.551L499.702 122.731C500.002 122.381 499.962 121.841 499.612 121.541L483.862 108.031C483.512 107.731 482.972 107.771 482.672 108.121L469.102 123.941L486.132 138.551Z" fill="white"/>
<path d="M444.881 146.26L463.981 127.82L482.711 143.89L467.851 165.69C466.751 167.3 465.281 168.62 463.551 169.53L432.841 185.71C432.671 185.8 432.501 185.59 432.621 185.44L454.321 160.14C456.051 160.86 458.131 160.42 459.421 158.91C460.711 157.41 460.831 155.28 459.861 153.68C459.621 153.28 459.311 152.9 458.941 152.58C458.521 152.22 458.051 151.95 457.551 151.77C455.851 151.15 453.861 151.6 452.611 153.06C451.361 154.52 451.211 156.55 452.091 158.14L430.381 183.45C430.251 183.6 430.011 183.45 430.081 183.27L441.961 150.75C442.581 149.05 443.581 147.51 444.881 146.26Z" fill="#EE4A00"/>
<path d="M463.93 126.301L484.2 143.691L468.77 166.321C467.57 168.081 465.95 169.531 464.07 170.521L433.36 186.701C432.81 186.991 432.13 186.851 431.74 186.361C431.35 185.871 431.36 185.181 431.77 184.711L454 158.791L454.75 159.101C456.09 159.651 457.63 159.281 458.57 158.181C459.52 157.071 459.65 155.501 458.9 154.261C458.5 153.581 457.86 153.071 457.18 152.841C455.85 152.361 454.37 152.741 453.46 153.801C452.55 154.861 452.4 156.391 453.07 157.611L453.45 158.291L431.23 184.191C430.82 184.671 430.13 184.781 429.59 184.471C429.04 184.151 428.81 183.501 429.02 182.911L440.9 150.391C441.57 148.541 442.68 146.841 444.1 145.481L463.93 126.331V126.301ZM481.22 144.081L464.02 129.331L445.66 147.061C444.49 148.191 443.57 149.601 443.01 151.131L432.92 178.751L450.77 157.941C450.06 156.051 450.42 153.881 451.76 152.321C453.27 150.561 455.75 149.911 457.94 150.711C459.09 151.111 460.17 151.981 460.83 153.091C462.08 155.151 461.86 157.781 460.28 159.631C458.88 161.261 456.72 161.931 454.69 161.431L436.7 182.401L463.03 168.531C464.59 167.711 465.93 166.511 466.93 165.051L481.22 144.091V144.081Z" fill="white"/>
<path d="M459.81 230.321C462.704 230.321 465.05 227.975 465.05 225.081C465.05 222.187 462.704 219.841 459.81 219.841C456.916 219.841 454.57 222.187 454.57 225.081C454.57 227.975 456.916 230.321 459.81 230.321Z" fill="#EE4A00"/>
<path d="M387.429 168.231C390.323 168.231 392.669 165.885 392.669 162.991C392.669 160.097 390.323 157.751 387.429 157.751C384.535 157.751 382.189 160.097 382.189 162.991C382.189 165.885 384.535 168.231 387.429 168.231Z" fill="#EE4A00"/>
<path d="M416.092 194.483L424.039 201.3L430.855 193.353L422.908 186.536L416.092 194.483Z" fill="#EE4A00"/>
<path d="M480.582 192.825L488.529 199.642L495.346 191.694L487.398 184.878L480.582 192.825Z" fill="#FF9460"/>
<path d="M408.205 130.728L416.152 137.545L422.969 129.598L415.022 122.781L408.205 130.728Z" fill="#FF9460"/>
</svg>
