<svg width="600" height="600" viewBox="0 0 600 600" fill="none" xmlns="http://www.w3.org/2000/svg">
<g clip-path="url(#clip0_512_1652)">
<path d="M283.81 361.768C283.81 361.768 283.91 361.818 283.96 361.848C284.01 361.868 284.05 361.888 284.1 361.908C284.01 361.858 283.91 361.808 283.81 361.768ZM284.36 362.048C284.36 362.048 284.32 362.028 284.3 362.018C284.34 362.048 284.39 362.078 284.43 362.108C284.41 362.078 284.39 362.068 284.36 362.048ZM283.49 361.638L282.5 361.238H282.49L281.4 361.638C281.52 361.598 281.63 361.568 281.76 361.548C281.83 361.528 281.9 361.518 281.97 361.518C282.04 361.498 282.12 361.488 282.19 361.488C282.25 361.478 282.32 361.478 282.38 361.478H282.45C282.59 361.478 282.73 361.488 282.87 361.508C283.04 361.538 283.2 361.568 283.36 361.608C283.44 361.628 283.51 361.658 283.58 361.678L283.49 361.638Z" fill="#05183C"/>
<path d="M249.17 430.649C249.79 430.599 250.4 430.519 251 430.379C250.4 430.509 249.79 430.599 249.17 430.649ZM283.81 361.769C283.81 361.769 283.91 361.819 283.96 361.849C284.01 361.869 284.05 361.889 284.1 361.909C284.01 361.859 283.91 361.809 283.81 361.769Z" fill="#05183C"/>
<path d="M251 430.378C250.4 430.518 249.79 430.598 249.17 430.648C249.79 430.598 250.4 430.508 251 430.378Z" fill="#05183C"/>
<path d="M279.491 363.099C279.451 363.159 279.411 363.219 279.381 363.289C279.401 363.239 279.421 363.199 279.451 363.159C279.461 363.139 279.471 363.119 279.491 363.099Z" fill="#05183C"/>
<path d="M283.579 361.678C283.509 361.658 283.439 361.628 283.359 361.608C283.399 361.618 283.449 361.628 283.489 361.638L283.579 361.678Z" fill="#05183C"/>
<path d="M284.431 362.109C284.431 362.109 284.341 362.049 284.301 362.019C284.321 362.029 284.341 362.039 284.361 362.049C284.391 362.069 284.411 362.079 284.431 362.109Z" fill="#05183C"/>
<path d="M283.49 361.638L282.5 361.238H282.49L281.4 361.638C281.52 361.598 281.63 361.568 281.76 361.548C281.83 361.528 281.9 361.518 281.97 361.518C282.04 361.498 282.12 361.488 282.19 361.488C282.25 361.478 282.32 361.478 282.38 361.478H282.45C282.59 361.478 282.73 361.488 282.87 361.508C283.04 361.538 283.2 361.568 283.36 361.608C283.44 361.628 283.51 361.658 283.58 361.678L283.49 361.638ZM283.81 361.768C283.81 361.768 283.91 361.818 283.96 361.848C284.01 361.868 284.05 361.888 284.1 361.908C284.01 361.858 283.91 361.808 283.81 361.768ZM284.36 362.048C284.36 362.048 284.32 362.028 284.3 362.018C284.34 362.048 284.39 362.078 284.43 362.108C284.41 362.078 284.39 362.068 284.36 362.048ZM113.83 377.808V377.828L242.38 429.598L113.83 377.808Z" fill="#05183C"/>
<path d="M284.36 362.049C284.36 362.049 284.32 362.029 284.3 362.019C284.34 362.049 284.39 362.079 284.43 362.109C284.41 362.079 284.39 362.069 284.36 362.049ZM283.81 361.769C283.81 361.769 283.91 361.819 283.96 361.849C284.01 361.869 284.05 361.889 284.1 361.909C284.01 361.859 283.91 361.809 283.81 361.769ZM283.49 361.639L282.5 361.239H282.49L281.4 361.639C281.52 361.599 281.63 361.569 281.76 361.549C281.83 361.529 281.9 361.519 281.97 361.519C282.04 361.499 282.12 361.489 282.19 361.489C282.25 361.479 282.32 361.479 282.38 361.479H282.45C282.59 361.479 282.73 361.489 282.87 361.509C283.04 361.539 283.2 361.569 283.36 361.609C283.44 361.629 283.51 361.659 283.58 361.679L283.49 361.639Z" fill="#05183C"/>
<path d="M283.49 361.638L282.5 361.238H282.49L281.4 361.638C281.52 361.598 281.63 361.568 281.76 361.548C281.83 361.528 281.9 361.518 281.97 361.518C282.04 361.498 282.12 361.488 282.19 361.488C282.25 361.478 282.32 361.478 282.38 361.478H282.45C282.59 361.478 282.73 361.488 282.87 361.508C283.04 361.538 283.2 361.568 283.36 361.608C283.44 361.628 283.51 361.658 283.58 361.678L283.49 361.638Z" fill="#05183C"/>
<path d="M507.32 344.218L475.47 294.228L475.39 294.098C475.23 293.848 475.04 293.628 474.83 293.428C474.78 293.368 474.72 293.318 474.66 293.278C474.58 293.218 474.51 293.158 474.43 293.098C474.35 293.048 474.27 292.998 474.19 292.948C474.12 292.908 474.05 292.868 473.97 292.838C473.88 292.788 473.78 292.748 473.68 292.708L391.5 260.198C391.45 260.178 391.4 260.158 391.35 260.138L328.22 235.158C328.16 235.138 328.1 235.108 328.04 235.088L296.97 222.798C296.97 222.798 296.9 222.768 296.86 222.758L296.81 222.738C296.72 222.698 296.64 222.658 296.55 222.628C294.98 222.058 293.35 221.708 291.73 221.598C289.09 221.398 286.38 221.808 283.91 222.778L273.6 226.828C273.6 226.828 273.5 226.858 273.45 226.878L108.16 291.718C108 291.778 107.84 291.858 107.68 291.948C107.53 292.038 107.39 292.138 107.26 292.238C107.12 292.348 106.99 292.468 106.88 292.598C106.76 292.718 106.66 292.858 106.56 292.998C106.5 293.068 106.46 293.138 106.42 293.218C106.41 293.228 106.4 293.248 106.39 293.258L77.2498 344.978C75.1498 348.708 74.7598 353.158 76.1698 357.188C77.5798 361.228 80.6698 364.458 84.6398 366.068L106.79 374.988L108.34 519.938C108.42 527.168 112.81 533.588 119.53 536.288L275.68 598.748C276.85 599.218 278.06 599.558 279.3 599.768C280.13 599.908 280.98 599.988 281.84 600.008C282.01 600.008 282.18 600.018 282.36 600.018C283.07 600.018 283.78 599.978 284.48 599.888C285.71 599.738 286.93 599.458 288.12 599.048L464.42 538.128C471.6 535.638 476.42 528.868 476.42 521.268V521.248L476.11 374.968L499.94 366.148H499.95C504.18 364.578 507.44 361.218 508.87 356.938C510.31 352.658 509.75 348.028 507.32 344.218ZM87.2598 359.568C85.1598 358.728 83.5298 357.008 82.7798 354.878C82.0298 352.738 82.2398 350.388 83.3498 348.418L110.98 299.378L277.8 366.868L255.14 418.948C253.46 422.818 248.91 424.678 245 423.098L111.5 369.328L87.2598 359.568ZM278.45 592.308C278.45 592.308 278.34 592.268 278.29 592.248L122.13 529.788C118.05 528.148 115.39 524.258 115.34 519.858L113.83 377.828V377.808L242.38 429.598C244.23 430.338 246.13 430.698 248 430.698C248.39 430.698 248.78 430.678 249.17 430.648C249.79 430.598 250.4 430.508 251 430.378C252.09 430.158 253.16 429.808 254.16 429.338C254.4 429.228 254.64 429.118 254.87 428.988C255.04 428.898 255.2 428.808 255.36 428.718C255.58 428.588 255.8 428.458 256.01 428.318C258.38 426.778 260.34 424.538 261.56 421.738L278.9 381.878L278.45 592.308ZM283.36 361.608C283.2 361.568 283.04 361.538 282.87 361.508C282.73 361.488 282.59 361.478 282.45 361.478H282.38C282.32 361.478 282.25 361.478 282.19 361.488C282.12 361.488 282.04 361.488 281.97 361.518C281.9 361.518 281.83 361.528 281.76 361.548C281.63 361.568 281.52 361.598 281.4 361.638L282.49 361.238H282.5L283.49 361.638L283.58 361.678C283.51 361.658 283.44 361.628 283.36 361.608ZM283.96 361.848C283.91 361.818 283.86 361.788 283.81 361.768C283.91 361.808 284.01 361.858 284.1 361.908C284.05 361.888 284.01 361.868 283.96 361.848ZM284.3 362.018C284.3 362.018 284.34 362.038 284.36 362.048C284.39 362.068 284.41 362.078 284.43 362.108C284.39 362.078 284.34 362.048 284.3 362.018ZM282.51 361.228L118.9 295.028L275.87 233.448C275.87 233.448 275.97 233.418 276.02 233.398L286.47 229.298C287.97 228.708 289.61 228.458 291.23 228.578C292.18 228.648 293.13 228.848 294.06 229.178C294.18 229.228 294.31 229.268 294.44 229.318L325.29 241.528C325.35 241.548 325.41 241.578 325.47 241.598L388.91 266.698C388.96 266.718 389.01 266.738 389.06 266.758L462.57 295.838L282.51 361.228ZM462.14 531.508L285.84 592.428C285.71 592.468 285.58 592.508 285.45 592.538L285.91 379.448L308.23 423.088C308.56 423.728 308.92 424.328 309.33 424.898C309.53 425.188 309.74 425.458 309.96 425.728C310.17 425.998 310.4 426.258 310.64 426.498C310.87 426.748 311.11 426.988 311.36 427.228C311.63 427.478 311.91 427.718 312.2 427.938C312.41 428.108 312.63 428.278 312.85 428.428C313.2 428.688 313.57 428.918 313.94 429.128C314.18 429.278 314.42 429.408 314.67 429.538C314.91 429.658 315.15 429.778 315.4 429.888C315.82 430.078 316.25 430.248 316.69 430.398C316.95 430.488 317.21 430.568 317.47 430.638C317.83 430.738 318.19 430.828 318.55 430.898C318.82 430.948 319.1 430.998 319.38 431.038C319.62 431.078 319.87 431.108 320.12 431.118C320.34 431.148 320.55 431.158 320.76 431.168C321 431.178 321.23 431.188 321.47 431.188C323.18 431.188 324.92 430.888 326.61 430.258L469.11 377.548L469.42 521.268C469.43 525.888 466.5 529.998 462.14 531.508ZM502.24 354.708C501.48 356.978 499.76 358.748 497.52 359.588L471.69 369.148L324.18 423.698C320.46 425.078 316.28 423.448 314.47 419.908L287.36 366.918L471 300.228L501.42 347.978C502.7 349.988 503 352.448 502.24 354.708Z" fill="white"/>
<path d="M502.239 354.709C501.479 356.979 499.759 358.749 497.519 359.589L471.689 369.149L324.179 423.699C320.459 425.079 316.279 423.449 314.469 419.909L287.359 366.919L470.999 300.229L501.419 347.979C502.699 349.989 502.999 352.449 502.239 354.709Z" fill="#06296B"/>
<path d="M469.421 521.268C469.431 525.888 466.501 529.998 462.141 531.508L285.841 592.428C285.711 592.468 285.581 592.508 285.451 592.538L285.911 379.448L308.231 423.088C308.561 423.728 308.921 424.328 309.331 424.898C309.531 425.188 309.741 425.458 309.961 425.728C310.171 425.998 310.401 426.258 310.641 426.498C310.871 426.748 311.111 426.988 311.361 427.228C311.631 427.478 311.911 427.718 312.201 427.938C312.411 428.108 312.631 428.278 312.851 428.428C313.201 428.688 313.571 428.918 313.941 429.128C314.181 429.278 314.421 429.408 314.671 429.538C314.911 429.658 315.151 429.778 315.401 429.888C315.821 430.078 316.251 430.248 316.691 430.398C316.951 430.488 317.211 430.568 317.471 430.638C317.831 430.738 318.191 430.828 318.551 430.898C318.821 430.948 319.101 430.998 319.381 431.038C319.621 431.078 319.871 431.108 320.121 431.118C320.341 431.148 320.551 431.158 320.761 431.168C321.001 431.178 321.231 431.188 321.471 431.188C323.181 431.188 324.921 430.888 326.611 430.258L469.111 377.548L469.421 521.268Z" fill="#06296B"/>
<path d="M278.9 381.878L278.45 592.308C278.45 592.308 278.34 592.268 278.29 592.248L122.13 529.788C118.05 528.148 115.39 524.258 115.34 519.858L113.83 377.828L242.38 429.598C244.23 430.338 246.13 430.698 248 430.698C248.39 430.698 248.78 430.678 249.17 430.648C249.79 430.598 250.4 430.518 251 430.378C252.09 430.158 253.16 429.808 254.16 429.338C254.4 429.228 254.64 429.118 254.87 428.988C255.04 428.898 255.2 428.808 255.36 428.718C255.58 428.588 255.8 428.458 256.01 428.318C258.38 426.778 260.34 424.538 261.56 421.738L278.9 381.878Z" fill="#1A3C7D"/>
<path d="M277.801 366.878L255.141 418.948C253.461 422.818 248.911 424.678 245.001 423.098L111.501 369.328L87.261 359.568C85.161 358.728 83.531 357.008 82.781 354.878C82.031 352.738 82.241 350.388 83.351 348.418L110.981 299.378L277.801 366.878Z" fill="#1A3C7D"/>
<path d="M462.57 295.838L282.51 361.228L118.9 295.028L275.87 233.448C275.87 233.448 275.97 233.418 276.02 233.398L286.47 229.298C287.97 228.708 289.61 228.458 291.23 228.578C292.18 228.648 293.13 228.848 294.06 229.178C294.18 229.228 294.31 229.268 294.44 229.318L325.29 241.528C325.35 241.548 325.41 241.578 325.47 241.598L388.91 266.698C388.96 266.718 389.01 266.738 389.06 266.758L462.57 295.838Z" fill="#05183C"/>
<path d="M289.5 532.978C441.102 532.978 564 467.052 564 385.728C564 304.404 441.102 238.478 289.5 238.478C137.898 238.478 15 304.404 15 385.728C15 467.052 137.898 532.978 289.5 532.978Z" stroke="white" stroke-width="6.77" stroke-miterlimit="10"/>
<path d="M547.081 415.768L538.761 420.158C537.701 420.688 536.651 419.438 537.361 418.488L543.081 410.838C545.981 406.958 547.791 402.298 548.321 397.518C548.741 393.728 548.351 389.858 547.081 386.248L546.761 385.348L546.291 384.018C545.921 382.978 547.131 382.088 548.011 382.748H548.031C548.351 382.998 548.671 383.228 549.001 383.448C556.641 388.578 566.701 388.998 575.051 384.988L575.701 384.698L583.531 381.148C584.611 380.628 585.641 381.948 584.881 382.868L579.521 389.348L579.041 389.928C572.911 397.348 571.681 407.208 575.361 416.008C575.531 416.418 575.711 416.818 575.901 417.218C576.151 417.748 575.961 418.268 575.591 418.568C575.251 418.848 574.741 418.928 574.291 418.638L573.011 417.818L572.381 417.418C568.971 415.248 565.231 413.878 561.411 413.368C556.591 412.728 551.651 413.478 547.091 415.778L547.081 415.768Z" fill="white" stroke="#E4DEDE" stroke-width="1.27" stroke-miterlimit="10"/>
<path d="M78.5 491.978C85.1274 491.978 90.5 486.605 90.5 479.978C90.5 473.35 85.1274 467.978 78.5 467.978C71.8726 467.978 66.5 473.35 66.5 479.978C66.5 486.605 71.8726 491.978 78.5 491.978Z" fill="white" stroke="#E4DEDE" stroke-width="2" stroke-miterlimit="10"/>
<path d="M403.761 178.138L301.721 166.898C291.241 165.738 281.721 173.368 280.571 183.858L276.551 220.338L275.471 230.088L265.161 323.658C264.231 332.178 269.081 340.058 276.551 343.328C278.281 344.088 280.151 344.598 282.121 344.818L323.251 349.348L359.371 336.228L389.661 325.228L407.561 318.728L411.471 283.188L420.721 199.298C421.871 188.808 414.241 179.288 403.761 178.138ZM418.951 199.108L405.911 317.438L323.031 347.538L282.321 343.048C280.561 342.858 278.861 342.398 277.261 341.698C270.361 338.678 266.111 331.338 266.931 323.858L282.341 184.048C282.841 179.448 285.121 175.308 288.761 172.398C291.891 169.888 295.681 168.558 299.601 168.558C300.241 168.558 300.881 168.598 301.521 168.668L403.571 179.908C413.091 180.958 420.001 189.568 418.951 199.108Z" fill="#FF9460"/>
<path d="M418.951 199.108L405.911 317.438L323.031 347.538L282.321 343.048C280.561 342.858 278.861 342.398 277.261 341.698C270.361 338.678 266.111 331.338 266.931 323.858L282.341 184.048C282.841 179.448 285.121 175.308 288.761 172.398C291.891 169.888 295.681 168.558 299.601 168.558C300.241 168.558 300.881 168.598 301.521 168.668L403.571 179.908C413.091 180.958 420.001 189.568 418.951 199.108Z" fill="#FF9460"/>
<path d="M418.021 216.727C417.951 216.727 417.871 216.727 417.801 216.717L279.171 201.447C278.071 201.327 277.281 200.337 277.401 199.237C277.521 198.137 278.511 197.347 279.611 197.467L418.241 212.737C419.341 212.857 420.131 213.847 420.011 214.947C419.901 215.967 419.031 216.727 418.021 216.727Z" fill="white"/>
<path d="M403.959 176.368L301.919 165.128C296.369 164.518 290.909 166.108 286.539 169.618C282.159 173.128 279.409 178.118 278.799 183.668L263.389 323.468C262.409 332.478 267.519 341.318 275.829 344.958C277.759 345.798 279.809 346.348 281.929 346.588L323.469 351.158L409.209 320.018L422.489 199.498C423.749 187.998 415.429 177.628 403.959 176.368ZM418.949 199.108L405.909 317.438L387.229 324.218L355.379 335.788L323.029 347.538L282.319 343.048C280.559 342.858 278.859 342.398 277.259 341.698C270.359 338.678 266.109 331.338 266.929 323.858L282.339 184.048C282.839 179.448 285.119 175.308 288.759 172.398C291.889 169.888 295.679 168.558 299.599 168.558C300.239 168.558 300.879 168.598 301.519 168.668L403.569 179.908C413.089 180.958 419.999 189.568 418.949 199.108Z" fill="white"/>
<path d="M304.551 190.317C307.312 190.317 309.551 188.079 309.551 185.317C309.551 182.556 307.312 180.317 304.551 180.317C301.79 180.317 299.551 182.556 299.551 185.317C299.551 188.079 301.79 190.317 304.551 190.317Z" fill="#FF6D2A"/>
<path d="M320.17 192.037C322.932 192.037 325.17 189.799 325.17 187.037C325.17 184.276 322.932 182.037 320.17 182.037C317.409 182.037 315.17 184.276 315.17 187.037C315.17 189.799 317.409 192.037 320.17 192.037Z" fill="#FF6D2A"/>
<path d="M335.791 193.758C338.552 193.758 340.791 191.519 340.791 188.758C340.791 185.996 338.552 183.758 335.791 183.758C333.029 183.758 330.791 185.996 330.791 188.758C330.791 191.519 333.029 193.758 335.791 193.758Z" fill="#FF6D2A"/>
<path d="M340.088 246.591L295.279 241.653C292.007 241.293 289.063 243.651 288.702 246.923L284.859 281.792C284.498 285.064 286.858 288.009 290.13 288.369L334.939 293.308C338.21 293.669 341.155 291.309 341.516 288.037L345.359 253.168C345.72 249.896 343.36 246.952 340.088 246.591Z" fill="#EE4A00"/>
<path d="M387.229 324.217L355.379 335.787L290.859 328.677L285.759 328.117C282.489 327.757 280.129 324.817 280.489 321.537L280.819 318.477C281.189 315.207 284.129 312.847 287.399 313.207L292.339 313.747L386.879 324.167C386.999 324.177 387.109 324.197 387.229 324.217Z" fill="#EE4A00"/>
<path d="M401.67 236.248C401.67 236.248 401.6 236.248 401.56 236.248L291.23 224.088C290.68 224.028 290.28 223.538 290.35 222.988C290.42 222.438 290.89 222.038 291.45 222.108L401.78 234.268C402.33 234.328 402.73 234.818 402.66 235.368C402.6 235.878 402.17 236.258 401.67 236.258V236.248Z" fill="#FF6D2A"/>
<path d="M400.679 245.198C400.679 245.198 400.61 245.198 400.57 245.198L290.24 233.048C289.69 232.988 289.29 232.498 289.36 231.948C289.43 231.398 289.9 230.998 290.46 231.068L400.79 243.218C401.34 243.278 401.74 243.768 401.67 244.318C401.61 244.828 401.179 245.208 400.679 245.208V245.198Z" fill="#FF6D2A"/>
<path d="M399.701 254.138C399.701 254.138 399.631 254.138 399.591 254.138L356.681 249.408C356.131 249.348 355.731 248.858 355.801 248.308C355.871 247.758 356.341 247.358 356.901 247.428L399.811 252.158C400.361 252.218 400.761 252.708 400.691 253.258C400.631 253.768 400.201 254.148 399.701 254.148V254.138Z" fill="#FF6D2A"/>
<path d="M398.711 263.087C398.711 263.087 398.641 263.087 398.601 263.087L355.691 258.357C355.141 258.297 354.741 257.807 354.811 257.257C354.871 256.707 355.351 256.317 355.911 256.377L398.821 261.107C399.371 261.167 399.771 261.657 399.701 262.207C399.641 262.717 399.211 263.097 398.711 263.097V263.087Z" fill="#FF6D2A"/>
<path d="M397.73 272.037C397.73 272.037 397.66 272.037 397.62 272.037L354.71 267.307C354.16 267.247 353.76 266.757 353.83 266.207C353.89 265.657 354.38 265.267 354.93 265.327L397.84 270.057C398.39 270.117 398.79 270.607 398.72 271.157C398.66 271.667 398.23 272.047 397.73 272.047V272.037Z" fill="#FF6D2A"/>
<path d="M396.74 280.978C396.74 280.978 396.67 280.978 396.63 280.978L353.72 276.248C353.17 276.188 352.77 275.698 352.84 275.148C352.91 274.598 353.38 274.198 353.94 274.268L396.85 278.998C397.4 279.058 397.8 279.548 397.73 280.098C397.67 280.608 397.24 280.988 396.74 280.988V280.978Z" fill="#FF6D2A"/>
<path d="M395.65 290.917C395.65 290.917 395.58 290.917 395.54 290.917L352.63 286.187C352.08 286.127 351.68 285.637 351.75 285.087C351.81 284.537 352.3 284.147 352.85 284.207L395.76 288.937C396.31 288.997 396.71 289.487 396.64 290.037C396.58 290.547 396.15 290.927 395.65 290.927V290.917Z" fill="#FF6D2A"/>
<path d="M394.66 299.867C394.66 299.867 394.59 299.867 394.55 299.867L351.64 295.137C351.09 295.077 350.69 294.587 350.76 294.037C350.83 293.487 351.3 293.087 351.86 293.157L394.77 297.887C395.32 297.947 395.72 298.437 395.65 298.987C395.59 299.497 395.16 299.877 394.66 299.877V299.867Z" fill="#FF6D2A"/>
<path d="M301.16 323.628C298.65 329.878 293.73 335.028 287.38 337.738C285.48 338.548 283.46 339.138 281.33 339.468L236.06 346.578L166.22 318.318L159.72 276.908L155.1 247.508C152.91 233.548 162.54 220.328 176.51 218.138L260.21 204.998C271.66 203.198 282.6 209.338 287.38 219.308C288.43 221.498 289.19 223.868 289.59 226.398L290.08 229.498L296.37 269.628L298.68 284.308L302.59 309.258L302.72 310.108C303.46 314.838 302.85 319.478 301.16 323.638V323.628Z" fill="#EE4A00"/>
<path d="M235.87 348.338L164.69 319.538L153.42 247.778C152.29 240.568 154.05 233.338 158.37 227.398C162.69 221.458 169.04 217.578 176.25 216.448L259.95 203.308C271.81 201.448 283.73 207.718 288.93 218.568C290.08 220.968 290.87 223.508 291.28 226.128L291.77 229.228L304.41 309.838C305.17 314.708 304.6 319.708 302.75 324.278C300.04 331.008 294.69 336.488 288.05 339.318C286 340.188 283.83 340.818 281.6 341.168L235.86 348.348L235.87 348.338ZM167.77 317.088L236.27 344.808L281.07 337.778C283.02 337.468 284.92 336.928 286.71 336.158C292.51 333.688 297.2 328.888 299.57 322.988C301.19 318.988 301.69 314.618 301.02 310.368L294.67 269.888L287.89 226.668C287.53 224.378 286.84 222.148 285.83 220.058C281.27 210.558 270.84 205.068 260.47 206.698L176.77 219.838C170.47 220.828 164.92 224.228 161.13 229.418C157.35 234.608 155.8 240.938 156.79 247.248L167.76 317.088H167.77Z" fill="white"/>
<path d="M273.041 231.558C273.071 231.748 272.971 231.968 272.761 232.058L272.151 232.388L271.841 232.538C270.261 233.368 268.911 234.508 267.841 235.878C266.541 237.598 265.721 239.688 265.581 241.948L265.421 246.138C265.401 246.658 264.671 246.818 264.461 246.318L262.791 242.388C261.931 240.418 260.531 238.678 258.801 237.408C257.431 236.408 255.831 235.668 254.181 235.378L253.741 235.288L253.131 235.188C252.631 235.108 252.551 234.428 253.011 234.218C253.191 234.158 253.351 234.098 253.501 234.008C257.191 232.188 259.611 228.388 259.921 224.278L259.971 223.978L260.321 220.148C260.371 219.618 261.111 219.498 261.281 219.998L262.591 223.538L262.701 223.848C264.211 227.878 267.751 230.538 271.971 231.088C272.171 231.128 272.371 231.128 272.571 231.158C272.831 231.188 272.991 231.358 273.031 231.578L273.041 231.558Z" fill="#FF9460"/>
<path d="M228.311 314.388C246.178 314.388 260.661 299.904 260.661 282.038C260.661 264.171 246.178 249.688 228.311 249.688C210.445 249.688 195.961 264.171 195.961 282.038C195.961 299.904 210.445 314.388 228.311 314.388Z" fill="#FF9460"/>
</g>
<defs>
<clipPath id="clip0_512_1652">
<rect width="600" height="600" fill="white"/>
</clipPath>
</defs>
</svg>
