<svg width="600" height="600" viewBox="0 0 600 600" fill="none" xmlns="http://www.w3.org/2000/svg">
<mask id="mask0_512_1692" style="mask-type:luminance" maskUnits="userSpaceOnUse" x="0" y="90" width="600" height="510">
<path d="M600 90H0V600H600V90Z" fill="white"/>
</mask>
<g mask="url(#mask0_512_1692)">
<path d="M493.9 296.271L303.9 365.271L275.81 353.901L224.98 333.341L210.62 327.531L178.36 314.471L130.9 295.271L176.73 277.291L219.46 260.531L246.16 250.061L306.65 226.331C310.02 225.011 313.77 225.011 317.14 226.341L319.69 227.351L344.13 237.021L365.88 245.621L408.23 262.381L493.9 296.271Z" fill="#05183C"/>
<path d="M303.9 368.77C303.45 368.77 303.01 368.69 302.59 368.51L129.59 298.51C128.26 297.97 127.39 296.68 127.4 295.25C127.41 293.82 128.29 292.53 129.62 292.01L305.37 223.07C309.59 221.42 314.22 221.43 318.42 223.08L495.18 293.01C496.53 293.55 497.411 294.86 497.391 296.31C497.371 297.76 496.45 299.05 495.08 299.55L305.08 368.55C304.69 368.69 304.29 368.76 303.89 368.76L303.9 368.77ZM140.36 295.32L303.97 361.52L484.03 296.13L315.85 229.59C313.3 228.58 310.48 228.58 307.93 229.59L140.36 295.32Z" fill="white"/>
<path d="M303.9 365.271L303.4 596.801C301.72 596.761 300.04 596.43 298.45 595.79L142.29 533.331C136.91 531.171 133.36 525.991 133.3 520.191L131.73 372.901L265.15 426.641C270.85 428.941 277.36 426.282 279.81 420.632L303.9 365.271Z" fill="#1A3C7D"/>
<path d="M303.4 600.3C303.4 600.3 303.34 600.3 303.32 600.3C301.18 600.25 299.1 599.82 297.15 599.04L141 536.58C134.27 533.88 129.88 527.46 129.81 520.23L128.24 372.94C128.23 371.77 128.8 370.67 129.77 370.01C130.74 369.35 131.97 369.22 133.05 369.65L266.47 423.39C270.39 424.97 274.93 423.1 276.61 419.23L300.7 363.87C301.36 362.35 303 361.5 304.63 361.84C306.25 362.18 307.42 363.61 307.41 365.27L306.91 596.8C306.91 597.74 306.53 598.64 305.85 599.3C305.2 599.94 304.32 600.29 303.41 600.29L303.4 600.3ZM135.29 378.1L136.8 520.15C136.84 524.54 139.51 528.44 143.59 530.08L299.75 592.54C299.8 592.56 299.86 592.58 299.91 592.6L300.37 382.17L283.03 422.03C279.8 429.47 271.38 432.92 263.85 429.89L135.3 378.11L135.29 378.1Z" fill="white"/>
<path d="M494.38 521.551C494.39 527.661 490.52 533.111 484.74 535.111L308.44 596.031C306.81 596.591 305.1 596.851 303.4 596.801L303.9 365.271L332.81 421.791C335.43 426.911 341.47 429.271 346.86 427.271L494.06 372.822L494.38 521.551Z" fill="#06296B"/>
<path d="M303.809 600.311C303.639 600.311 303.459 600.311 303.289 600.311C301.389 600.261 299.889 598.7 299.889 596.8L300.389 365.27C300.389 363.65 301.499 362.251 303.069 361.871C304.639 361.491 306.269 362.241 306.999 363.681L335.909 420.201C337.719 423.741 341.899 425.38 345.629 423.99L492.829 369.541C493.899 369.141 495.099 369.291 496.039 369.951C496.979 370.601 497.539 371.671 497.539 372.821L497.859 521.55C497.869 529.16 493.049 535.94 485.859 538.43L309.559 599.35C307.689 599.99 305.749 600.321 303.789 600.321L303.809 600.311ZM307.359 379.74L306.899 592.85C307.029 592.81 307.159 592.77 307.289 592.72L483.579 531.8C487.939 530.29 490.869 526.171 490.859 521.561L490.549 377.841L348.049 430.55C341.009 433.17 333.099 430.081 329.669 423.381L307.339 379.731L307.359 379.74Z" fill="white"/>
<path d="M303.899 365.27L279.809 420.632C277.359 426.282 270.849 428.941 265.149 426.641L131.729 372.9L107.409 363.11C101.049 360.54 98.389 352.97 101.759 346.99L130.899 295.271L178.359 314.471L210.619 327.531L224.979 333.34L275.809 353.9L303.899 365.27Z" fill="#1A3C7D"/>
<path d="M269.449 430.991C267.579 430.991 265.679 430.641 263.829 429.891L106.089 366.361C102.119 364.751 99.029 361.521 97.619 357.481C96.209 353.451 96.599 349.001 98.699 345.271L127.839 293.551C128.699 292.021 130.569 291.361 132.199 292.021L305.199 362.021C306.079 362.371 306.769 363.071 307.129 363.941C307.489 364.811 307.479 365.801 307.099 366.661L283.009 422.021C280.579 427.631 275.179 430.981 269.449 430.981V430.991ZM132.439 299.671L104.809 348.711C103.699 350.681 103.489 353.031 104.239 355.171C104.989 357.311 106.619 359.021 108.719 359.871L266.459 423.401C270.369 424.981 274.919 423.111 276.599 419.241L299.259 367.171L132.439 299.671Z" fill="white"/>
<path d="M520.19 363.161L494.06 372.822L346.86 427.27C341.47 429.27 335.43 426.911 332.81 421.791L303.9 365.27L493.9 296.271L525.83 346.391C529.72 352.501 526.98 360.641 520.19 363.161Z" fill="#06296B"/>
<path d="M342.92 431.481C337.49 431.481 332.3 428.481 329.69 423.381L300.78 366.861C300.32 365.971 300.27 364.921 300.64 363.981C301.01 363.051 301.76 362.311 302.7 361.971L492.7 292.971C494.24 292.411 495.97 293.001 496.85 294.381L528.78 344.501C531.2 348.311 531.77 352.951 530.33 357.221C528.89 361.501 525.64 364.861 521.4 366.431L348.07 430.541C346.38 431.171 344.64 431.471 342.92 431.471V431.481ZM308.82 367.211L335.92 420.201C337.73 423.741 341.91 425.381 345.64 423.991L518.97 359.881C521.21 359.051 522.93 357.271 523.69 355.011C524.45 352.751 524.15 350.291 522.87 348.281L492.45 300.531L308.82 367.221V367.211Z" fill="white"/>
<path d="M578.669 397.478C581.791 316.214 461.514 245.619 310.024 239.799C158.533 233.98 33.195 295.139 30.0731 376.403C26.9513 457.667 147.228 528.263 298.719 534.082C450.209 539.902 575.547 478.742 578.669 397.478Z" stroke="white" stroke-width="6.77" stroke-miterlimit="10"/>
<path d="M41.8693 436.441L37.9893 445.011C37.4793 446.081 35.8793 445.731 35.8593 444.551L35.6893 434.991C35.6093 430.151 34.1793 425.361 31.6593 421.251C29.6693 418.001 26.9893 415.181 23.7693 413.111L22.9593 412.591L21.7693 411.831C20.8393 411.231 21.2493 409.791 22.3493 409.771H22.3693C22.7693 409.771 23.1593 409.751 23.5593 409.721C32.7393 409.091 40.9493 403.251 45.0893 394.971L45.4193 394.341L49.4293 386.731C49.9693 385.661 51.5893 386.061 51.5493 387.261L51.2893 395.661L51.2693 396.411C50.9793 406.031 56.0493 414.571 64.3493 419.271C64.7293 419.491 65.1193 419.701 65.5193 419.901C66.0393 420.161 66.2093 420.691 66.0993 421.161C65.9993 421.591 65.6493 421.971 65.1193 422.021L63.5993 422.161L62.8493 422.231C58.8293 422.611 55.0293 423.811 51.6993 425.761C47.4993 428.211 44.0593 431.841 41.8593 436.441H41.8693Z" fill="white" stroke="#E4DEDE" stroke-width="1.27" stroke-miterlimit="10"/>
<path d="M561.99 361.29C568.617 361.29 573.99 355.917 573.99 349.29C573.99 342.663 568.617 337.29 561.99 337.29C555.362 337.29 549.99 342.663 549.99 349.29C549.99 355.917 555.362 361.29 561.99 361.29Z" fill="white" stroke="#E4DEDE" stroke-width="2" stroke-miterlimit="10"/>
<path d="M348.289 331.531C348.749 342.061 340.509 351.061 329.979 351.521L275.809 353.901L224.979 333.341L210.619 327.531L178.359 314.471L176.729 277.291L173.259 198.441C172.799 187.901 181.039 178.901 191.579 178.441L322.109 172.701C324.369 172.601 326.559 172.901 328.609 173.541C336.119 175.871 341.749 182.731 342.109 191.011L344.129 237.021L348.289 331.531Z" fill="#FF9460"/>
<path d="M344.109 190.921C343.719 182.031 337.729 174.281 329.209 171.631C326.889 170.911 324.469 170.601 322.019 170.701L191.489 176.441C179.829 176.951 170.749 186.861 171.259 198.531L176.319 313.641L176.419 315.841L203.979 326.991L209.169 329.091L216.829 332.191L223.529 334.901L275.459 355.921L280.279 355.711L330.069 353.521C341.729 353.011 350.799 343.111 350.289 331.441L344.109 190.921ZM329.889 349.521L276.159 351.881L233.149 334.481L226.449 331.771L218.789 328.671L212.079 325.961L180.299 313.101L175.259 198.351C174.849 188.891 182.209 180.851 191.669 180.441L322.199 174.701C324.179 174.611 326.139 174.861 328.019 175.451C334.939 177.601 339.799 183.891 340.109 191.101L346.289 331.621C346.699 341.081 339.349 349.111 329.889 349.521Z" fill="white"/>
<path d="M195.859 199.991C197.886 199.991 199.529 198.348 199.529 196.321C199.529 194.294 197.886 192.651 195.859 192.651C193.833 192.651 192.189 194.294 192.189 196.321C192.189 198.348 193.833 199.991 195.859 199.991Z" fill="#FF6D2A"/>
<path d="M207.379 199.442C209.406 199.442 211.049 197.798 211.049 195.772C211.049 193.745 209.406 192.102 207.379 192.102C205.353 192.102 203.709 193.745 203.709 195.772C203.709 197.798 205.353 199.442 207.379 199.442Z" fill="#FF6D2A"/>
<path d="M218.91 198.881C220.937 198.881 222.58 197.238 222.58 195.211C222.58 193.184 220.937 191.541 218.91 191.541C216.883 191.541 215.24 193.184 215.24 195.211C215.24 197.238 216.883 198.881 218.91 198.881Z" fill="#FF6D2A"/>
<path d="M230.82 198.312C232.847 198.312 234.49 196.669 234.49 194.642C234.49 192.615 232.847 190.972 230.82 190.972C228.794 190.972 227.15 192.615 227.15 194.642C227.15 196.669 228.794 198.312 230.82 198.312Z" fill="#FF6D2A"/>
<path d="M242.34 197.751C244.367 197.751 246.01 196.108 246.01 194.081C246.01 192.054 244.367 190.411 242.34 190.411C240.314 190.411 238.67 192.054 238.67 194.081C238.67 196.108 240.314 197.751 242.34 197.751Z" fill="#FF6D2A"/>
<path d="M253.869 197.201C255.896 197.201 257.539 195.558 257.539 193.531C257.539 191.504 255.896 189.861 253.869 189.861C251.842 189.861 250.199 191.504 250.199 193.531C250.199 195.558 251.842 197.201 253.869 197.201Z" fill="#FF6D2A"/>
<path d="M341.504 204.682L174.496 212.032L174.671 216.028L341.68 208.678L341.504 204.682Z" fill="white"/>
<path d="M229.708 276.869L205.321 277.942C202.033 278.087 199.485 280.87 199.629 284.158L200.422 302.181C200.567 305.469 203.35 308.018 206.639 307.873L231.025 306.8C234.314 306.655 236.862 303.872 236.717 300.584L235.924 282.561C235.779 279.273 232.996 276.724 229.708 276.869Z" fill="#EE4A00"/>
<path d="M273.492 274.756L249.106 275.829C245.818 275.973 243.269 278.757 243.414 282.045L244.207 300.068C244.352 303.356 247.135 305.905 250.423 305.76L274.81 304.687C278.098 304.542 280.647 301.759 280.502 298.47L279.709 280.448C279.564 277.159 276.781 274.611 273.492 274.756Z" fill="#EE4A00"/>
<path d="M317.367 272.649L292.981 273.722C289.693 273.867 287.144 276.65 287.289 279.939L288.082 297.961C288.227 301.25 291.01 303.798 294.298 303.653L318.685 302.58C321.973 302.435 324.522 299.652 324.377 296.364L323.584 278.341C323.439 275.053 320.656 272.504 317.367 272.649Z" fill="#EE4A00"/>
<path d="M204.699 316.411C203.899 316.411 203.239 315.781 203.199 314.981C203.159 314.151 203.809 313.451 204.629 313.411L233.799 312.131C234.619 312.081 235.329 312.741 235.369 313.561C235.409 314.391 234.759 315.091 233.939 315.131L204.769 316.411C204.769 316.411 204.729 316.411 204.699 316.411Z" fill="#FF6D2A"/>
<path d="M204.98 322.831C204.18 322.831 203.52 322.201 203.48 321.401C203.44 320.571 204.09 319.871 204.91 319.841L234.08 318.561C234.9 318.541 235.61 319.161 235.64 319.991C235.68 320.821 235.03 321.521 234.21 321.551L205.04 322.831C205.04 322.831 205 322.831 204.97 322.831H204.98Z" fill="#FF6D2A"/>
<path d="M235.93 326.411C235.97 327.241 235.33 327.941 234.5 327.981L218.79 328.671L212.08 325.961L234.37 324.981C235.2 324.951 235.9 325.581 235.93 326.411Z" fill="#FF6D2A"/>
<path d="M236.219 332.841C236.249 333.671 235.609 334.371 234.779 334.411L233.149 334.481L226.449 331.771L234.649 331.411C235.479 331.371 236.179 332.011 236.219 332.841Z" fill="#FF6D2A"/>
<path d="M248.49 314.301C247.69 314.301 247.03 313.671 246.99 312.871C246.95 312.041 247.6 311.341 248.42 311.301L277.59 310.021C278.42 309.981 279.12 310.631 279.16 311.451C279.2 312.281 278.55 312.981 277.73 313.021L248.56 314.301C248.56 314.301 248.52 314.301 248.49 314.301Z" fill="#FF6D2A"/>
<path d="M248.779 320.731C247.979 320.731 247.319 320.101 247.279 319.301C247.239 318.471 247.889 317.771 248.709 317.731L277.879 316.451C278.709 316.401 279.409 317.051 279.449 317.881C279.489 318.711 278.839 319.411 278.019 319.451L248.849 320.731C248.849 320.731 248.809 320.731 248.779 320.731Z" fill="#FF6D2A"/>
<path d="M249.06 327.151C248.26 327.151 247.6 326.521 247.56 325.721C247.52 324.891 248.17 324.191 248.99 324.161L278.16 322.881C278.99 322.851 279.69 323.491 279.72 324.311C279.76 325.141 279.11 325.841 278.29 325.871L249.12 327.151C249.12 327.151 249.08 327.151 249.05 327.151H249.06Z" fill="#FF6D2A"/>
<path d="M249.34 333.581C248.54 333.581 247.88 332.951 247.84 332.151C247.8 331.321 248.45 330.621 249.27 330.581L278.44 329.301C279.27 329.271 279.97 329.911 280.01 330.731C280.05 331.561 279.4 332.261 278.58 332.301L249.41 333.581C249.41 333.581 249.37 333.581 249.34 333.581Z" fill="#FF6D2A"/>
<path d="M249.66 340.731C248.86 340.731 248.2 340.101 248.16 339.301C248.12 338.471 248.77 337.771 249.59 337.731L278.76 336.451C279.57 336.411 280.29 337.061 280.33 337.881C280.37 338.711 279.72 339.411 278.9 339.451L249.73 340.731C249.73 340.731 249.69 340.731 249.66 340.731Z" fill="#FF6D2A"/>
<path d="M292.359 312.181C291.559 312.181 290.899 311.551 290.859 310.751C290.819 309.921 291.469 309.221 292.289 309.191L321.459 307.911C322.249 307.881 322.989 308.521 323.019 309.341C323.059 310.171 322.409 310.871 321.589 310.901L292.419 312.181C292.419 312.181 292.379 312.181 292.349 312.181H292.359Z" fill="#FF6D2A"/>
<path d="M292.65 318.611C291.85 318.611 291.19 317.981 291.15 317.181C291.11 316.351 291.76 315.651 292.58 315.611L321.75 314.331C322.58 314.291 323.28 314.941 323.32 315.761C323.36 316.591 322.71 317.291 321.89 317.331L292.72 318.611C292.72 318.611 292.68 318.611 292.65 318.611Z" fill="#FF6D2A"/>
<path d="M292.929 325.041C292.129 325.041 291.469 324.411 291.429 323.611C291.389 322.781 292.039 322.081 292.859 322.051L322.029 320.771C322.859 320.721 323.559 321.371 323.589 322.201C323.629 323.031 322.979 323.731 322.159 323.761L292.989 325.041C292.989 325.041 292.95 325.041 292.92 325.041H292.929Z" fill="#FF6D2A"/>
<path d="M293.209 331.471C292.409 331.471 291.749 330.841 291.709 330.041C291.669 329.211 292.319 328.511 293.139 328.481L322.309 327.201C323.139 327.171 323.839 327.811 323.869 328.631C323.909 329.461 323.259 330.161 322.439 330.191L293.269 331.471C293.269 331.471 293.229 331.471 293.199 331.471H293.209Z" fill="#FF6D2A"/>
<path d="M293.529 338.611C292.729 338.611 292.069 337.981 292.029 337.181C291.989 336.351 292.639 335.651 293.459 335.621L322.629 334.341C322.629 334.341 322.669 334.341 322.699 334.341C323.499 334.341 324.159 334.971 324.199 335.771C324.239 336.601 323.589 337.301 322.769 337.331L293.599 338.611C293.599 338.611 293.559 338.611 293.529 338.611Z" fill="#FF6D2A"/>
<path d="M313.226 216.09L203.982 220.898C200.693 221.043 198.145 223.826 198.289 227.114L199.127 246.156C199.272 249.444 202.055 251.993 205.344 251.848L314.588 247.04C317.876 246.896 320.425 244.112 320.28 240.824L319.442 221.782C319.297 218.494 316.514 215.945 313.226 216.09Z" fill="#EE4A00"/>
<path d="M203.09 262.75C202.29 262.75 201.63 262.12 201.59 261.32C201.55 260.49 202.2 259.79 203.02 259.75L318.05 254.69C318.05 254.69 318.09 254.69 318.12 254.69C318.92 254.69 319.58 255.32 319.62 256.12C319.66 256.95 319.01 257.65 318.19 257.68L203.16 262.74C203.16 262.74 203.12 262.74 203.09 262.74V262.75Z" fill="#FF6D2A"/>
<path d="M203.349 268.75C202.549 268.75 201.889 268.12 201.849 267.32C201.809 266.49 202.459 265.79 203.279 265.76L260.379 263.25C261.159 263.23 261.909 263.86 261.939 264.68C261.979 265.51 261.329 266.21 260.509 266.24L203.409 268.75C203.409 268.75 203.369 268.75 203.339 268.75H203.349Z" fill="#FF6D2A"/>
<path d="M344.59 121.267L343.742 124.144L501.33 170.555L502.178 167.677L344.59 121.267Z" fill="white"/>
<path d="M484.27 245.65L481.3 245.24C487.4 200.6 462.77 159.64 422.73 147.85C383.09 136.18 340.35 156.9 321.11 197.14L318.4 195.85C338.29 154.28 382.52 132.89 423.58 144.98C443.7 150.9 460.88 164.42 471.96 183.05C482.9 201.44 487.28 223.67 484.27 245.65Z" fill="white"/>
<path d="M359.81 279.16L349.12 315.46C348.59 317.26 349.62 319.14 351.41 319.67L385.7 329.77C387.5 330.3 389.38 329.27 389.91 327.48L400.6 291.18L359.81 279.17V279.16Z" fill="#FF6D2A"/>
<path d="M386.659 331.4C386.199 331.4 385.729 331.33 385.269 331.2L350.979 321.1C348.399 320.34 346.909 317.62 347.669 315.03L358.789 277.29L402.449 290.15L391.329 327.89C390.959 329.14 390.129 330.18 388.979 330.8C388.249 331.2 387.449 331.4 386.649 331.4H386.659ZM360.819 281.02L350.549 315.88C350.259 316.88 350.829 317.93 351.829 318.23L386.119 328.33C386.599 328.47 387.109 328.42 387.559 328.18C388.009 327.94 388.329 327.54 388.469 327.06L398.739 292.2L360.829 281.03L360.819 281.02Z" fill="white"/>
<path d="M420.879 238.711L403.899 281.181L363.109 269.171L371.059 224.431C371.649 221.121 373.039 218.011 375.109 215.361L411.929 168.241C412.139 167.981 412.559 168.191 412.459 168.511L396.229 223.601C392.999 223.701 390.039 225.861 389.079 229.141C388.119 232.421 389.429 235.841 392.089 237.671C392.749 238.131 393.499 238.501 394.309 238.741C395.219 239.011 396.149 239.111 397.059 239.031C400.179 238.811 402.969 236.691 403.909 233.511C404.849 230.331 403.639 227.041 401.139 225.161L417.369 170.051C417.469 169.731 417.939 169.781 417.969 170.111L422.279 229.591C422.509 232.701 422.019 235.821 420.859 238.711H420.879Z" fill="#EE4A00"/>
<path d="M404.79 283.011L361.41 270.231L369.6 224.171C370.23 220.631 371.73 217.271 373.94 214.441L410.77 167.321C411.3 166.641 412.25 166.431 413.02 166.831C413.79 167.231 414.17 168.121 413.93 168.941L397.4 225.071L396.31 225.101C393.63 225.181 391.31 226.971 390.55 229.561C389.79 232.151 390.76 234.911 392.97 236.431C393.52 236.821 394.12 237.111 394.77 237.301C395.51 237.521 396.24 237.601 396.96 237.531C399.56 237.341 401.77 235.561 402.5 233.081C403.23 230.611 402.33 227.901 400.27 226.351L399.44 225.731L415.97 169.621C416.22 168.781 417.03 168.231 417.89 168.341C418.76 168.431 419.43 169.131 419.5 170.001L423.81 229.481C424.05 232.801 423.52 236.181 422.29 239.271L404.81 283.011H404.79ZM364.83 268.111L403.02 279.361L419.49 238.161C420.56 235.491 421.01 232.571 420.8 229.701L416.97 176.801L402.88 224.651C405.35 227.011 406.35 230.611 405.37 233.931C404.29 237.601 401 240.241 397.19 240.521C396.12 240.611 395.01 240.501 393.91 240.181C392.95 239.901 392.06 239.471 391.25 238.901C387.98 236.651 386.54 232.551 387.67 228.721C388.69 225.251 391.61 222.741 395.11 222.211L409.28 174.111L376.32 216.291C374.41 218.741 373.11 221.641 372.57 224.701L364.86 268.121L364.83 268.111Z" fill="white"/>
<path d="M344.18 131.73C349.162 131.73 353.2 127.692 353.2 122.71C353.2 117.729 349.162 113.69 344.18 113.69C339.199 113.69 335.16 117.729 335.16 122.71C335.16 127.692 339.199 131.73 344.18 131.73Z" fill="#FF9460"/>
<path d="M501.76 178.15C506.742 178.15 510.78 174.112 510.78 169.13C510.78 164.149 506.742 160.11 501.76 160.11C496.779 160.11 492.74 164.149 492.74 169.13C492.74 174.112 496.779 178.15 501.76 178.15Z" fill="#FF9460"/>
<path d="M434.492 139.89L417.187 134.794L412.09 152.099L429.395 157.196L434.492 139.89Z" fill="#FF9460"/>
<path d="M334.332 188.072L317.026 182.976L311.93 200.281L329.235 205.377L334.332 188.072Z" fill="#EE4A00"/>
<path d="M491.918 234.492L474.613 229.396L469.516 246.701L486.821 251.797L491.918 234.492Z" fill="#EE4A00"/>
</g>
</svg>
