<svg width="600" height="600" viewBox="0 0 600 600" fill="none" xmlns="http://www.w3.org/2000/svg">
<g clip-path="url(#clip0_512_1750)">
<path d="M415.745 445.01L415.435 597.82C416.485 598.24 414.325 597.79 415.435 597.82L309.315 555.69C305.775 554.27 303.435 550.86 303.395 547.04L302.195 398.83L415.745 445.01Z" fill="#1A3C7D"/>
<path d="M415.435 597.82L415.745 445.01L302.195 398.83L303.395 547.04C303.435 550.86 305.775 554.27 309.315 555.69L415.435 597.82ZM415.435 597.82C414.325 597.79 416.485 598.24 415.435 597.82Z" stroke="white" stroke-width="3.95" stroke-linecap="round" stroke-linejoin="round"/>
<path d="M541.195 549.251C541.195 553.271 538.655 556.861 534.845 558.181L415.435 597.821C416.555 597.851 414.365 598.191 415.435 597.821L415.745 446.331L540.925 400.721L541.185 549.251H541.195Z" fill="#072759"/>
<path d="M415.435 597.821L534.845 558.181C538.655 556.861 541.195 553.271 541.195 549.251H541.185L540.925 400.721L415.745 446.331L415.435 597.821ZM415.435 597.821C414.365 598.191 416.555 597.851 415.435 597.821Z" stroke="white" stroke-width="3.95" stroke-linecap="round" stroke-linejoin="round"/>
<path d="M540.935 400.72L415.755 446.33L302.205 398.83L417.575 358.12C419.795 357.25 422.265 357.25 424.485 358.12L540.945 400.72H540.935Z" fill="#284E8C" stroke="white" stroke-width="3.95" stroke-linecap="round" stroke-linejoin="round"/>
<path d="M491.266 379.98L369.476 425.45L339.666 413.12L460.496 368.88L491.266 379.98Z" fill="#FF9460"/>
<path d="M369.476 425.45V505.8L339.666 493.33V413.12L369.476 425.45Z" fill="#EE4A00"/>
<path d="M178.005 443.039L177.695 595.849C178.745 596.269 176.585 595.819 177.695 595.849L71.5751 553.719C68.0351 552.299 65.6951 548.889 65.6551 545.069L64.4551 396.859L178.005 443.039Z" fill="#1A3C7D"/>
<path d="M177.695 595.849L178.005 443.039L64.4551 396.859L65.6551 545.069C65.6951 548.889 68.0351 552.299 71.5751 553.719L177.695 595.849ZM177.695 595.849C176.585 595.819 178.745 596.269 177.695 595.849Z" stroke="white" stroke-width="3.95" stroke-linecap="round" stroke-linejoin="round"/>
<path d="M303.445 547.28C303.445 551.3 300.905 554.89 297.095 556.21L177.685 595.85C178.805 595.88 176.615 596.22 177.685 595.85L177.995 444.36L303.175 398.75L303.435 547.28H303.445Z" fill="#072759"/>
<path d="M177.685 595.85L297.095 556.21C300.905 554.89 303.445 551.3 303.445 547.28H303.435L303.175 398.75L177.995 444.36L177.685 595.85ZM177.685 595.85C176.615 596.22 178.805 595.88 177.685 595.85Z" stroke="white" stroke-width="3.95" stroke-linecap="round" stroke-linejoin="round"/>
<path d="M303.185 398.75L178.005 444.36L64.4551 396.86L179.825 356.15C182.045 355.28 184.515 355.28 186.735 356.15L303.195 398.75H303.185Z" fill="#284E8C" stroke="white" stroke-width="3.95" stroke-linecap="round" stroke-linejoin="round"/>
<path d="M253.516 378.009L131.726 423.479L101.916 411.139L222.746 366.899L253.516 378.009Z" fill="#FF9460"/>
<path d="M131.726 423.48V503.83L101.916 491.36V411.14L131.726 423.48Z" fill="#EE4A00"/>
<path d="M462.885 355.63C462.255 355.44 461.625 355.26 460.985 355.07C460.345 354.88 459.725 354.7 459.085 354.52C453.065 352.79 446.865 351.15 440.485 349.6C439.845 349.44 439.205 349.29 438.575 349.14C437.935 348.99 437.295 348.84 436.665 348.68C421.105 345.01 404.575 341.88 387.265 339.36C377.735 337.96 367.985 336.76 358.015 335.76C341.135 334.06 323.675 332.92 305.775 332.41C299.025 332.22 292.325 332.13 285.695 332.11C285.015 332.11 284.345 332.11 283.665 332.11C282.995 332.11 282.315 332.11 281.645 332.12C279.115 332.13 276.605 332.15 274.105 332.19C273.435 332.2 272.775 332.21 272.105 332.22C271.435 332.23 270.775 332.24 270.105 332.26C264.805 332.37 259.555 332.53 254.355 332.76C253.275 332.8 252.195 332.85 251.135 332.91C250.945 332.91 250.755 332.93 250.575 332.94C249.905 332.97 249.235 333 248.565 333.03C247.895 333.07 247.215 333.11 246.555 333.14C240.315 333.48 234.165 333.9 228.085 334.4C226.085 334.56 224.095 334.74 222.115 334.92C218.895 335.21 215.705 335.53 212.555 335.87C212.225 335.9 211.905 335.94 211.575 335.98C205.005 336.68 198.555 337.49 192.235 338.39C184.985 339.42 177.895 340.56 171.005 341.82C162.305 343.41 153.895 345.18 145.815 347.11C145.185 347.26 144.575 347.41 143.955 347.56C143.325 347.71 142.715 347.86 142.095 348.01C75.9652 364.5 32.6752 392.41 31.6252 425.17C30.9052 447.5 49.9052 468.68 82.6252 486.3C88.7052 489.57 95.2552 492.72 102.245 495.73C107.945 498.19 113.935 500.55 120.205 502.82C122.465 503.63 124.765 504.44 127.095 505.23C170.815 520.07 226.545 530.14 287.775 532.83C290.065 532.93 292.375 533.02 294.685 533.1C296.225 533.16 297.775 533.2 299.325 533.25C366.805 535.16 428.815 527.76 476.725 513.98C479.085 513.3 481.405 512.61 483.685 511.9C526.125 498.75 556.475 480.4 568.175 459.08C571.235 453.52 573.015 447.75 573.425 441.82C573.455 441.38 573.475 440.94 573.485 440.5C574.565 406.85 530.855 375.8 462.885 355.64V355.63Z" stroke="white" stroke-width="4.61" stroke-linecap="round" stroke-linejoin="round"/>
<path d="M540.806 507.26L538.756 516.32C538.476 517.45 536.856 517.44 536.606 516.3L534.536 507.09C533.496 502.42 531.156 498.07 527.906 494.61C525.336 491.86 522.186 489.67 518.656 488.31L517.776 487.97L516.476 487.47C515.456 487.08 515.566 485.6 516.626 485.36H516.646C517.026 485.27 517.406 485.17 517.786 485.07C526.536 482.64 533.316 475.35 535.666 466.52L535.866 465.85L538.236 457.7C538.536 456.56 540.186 456.63 540.386 457.79L541.806 465.97L541.936 466.7C543.566 476.06 550.176 483.31 559.136 486.21C559.546 486.34 559.966 486.47 560.386 486.58C560.936 486.73 561.216 487.21 561.196 487.68C561.186 488.12 560.926 488.55 560.416 488.7L558.976 489.14L558.266 489.36C554.456 490.52 551.016 492.45 548.186 494.99C544.616 498.2 542.006 502.39 540.796 507.28L540.806 507.26Z" fill="white" stroke="#E4DEDE" stroke-width="1.97" stroke-linecap="round" stroke-linejoin="round"/>
<path d="M44.906 470.66L43.446 477.14C43.246 477.95 42.086 477.94 41.906 477.12L40.426 470.54C39.676 467.2 38.006 464.09 35.686 461.61C33.846 459.65 31.596 458.08 29.066 457.1L28.436 456.86L27.506 456.5C26.776 456.22 26.856 455.16 27.616 454.99H27.626C27.896 454.93 28.176 454.86 28.436 454.78C34.696 453.04 39.546 447.83 41.226 441.52L41.366 441.04L43.056 435.21C43.276 434.39 44.456 434.44 44.596 435.28L45.606 441.13L45.696 441.65C46.866 448.34 51.586 453.53 57.996 455.6C58.296 455.7 58.596 455.78 58.896 455.87C59.296 455.98 59.486 456.32 59.476 456.66C59.476 456.97 59.286 457.28 58.916 457.39L57.886 457.7L57.376 457.86C54.646 458.69 52.196 460.07 50.166 461.88C47.616 464.17 45.746 467.17 44.886 470.67L44.906 470.66Z" fill="white" stroke="#E4DEDE" stroke-width="1.97" stroke-linecap="round" stroke-linejoin="round"/>
<path d="M252.205 544.86C258.75 544.86 264.055 539.555 264.055 533.01C264.055 526.466 258.75 521.16 252.205 521.16C245.661 521.16 240.355 526.466 240.355 533.01C240.355 539.555 245.661 544.86 252.205 544.86Z" fill="white" stroke="#E4DEDE" stroke-width="1.97" stroke-linecap="round" stroke-linejoin="round"/>
<path d="M116.606 365.3C122.466 365.3 127.216 360.55 127.216 354.69C127.216 348.83 122.466 344.08 116.606 344.08C110.746 344.08 105.996 348.83 105.996 354.69C105.996 360.55 110.746 365.3 116.606 365.3Z" fill="white" stroke="#E4DEDE" stroke-width="1.97" stroke-linecap="round" stroke-linejoin="round"/>
<path d="M425.447 201.84L300.317 247.28L186.387 201.18L302.137 155.78C304.357 154.91 306.827 154.91 309.047 155.78L425.457 201.83L425.447 201.84Z" fill="#FF9460" stroke="white" stroke-width="4.61" stroke-linecap="round" stroke-linejoin="round"/>
<path d="M300.316 247.28L299.986 399.76C298.876 399.73 297.776 399.52 296.726 399.09L193.886 357.96C190.346 356.54 188.006 353.13 187.966 349.31L186.936 252.31L274.806 287.7C278.556 289.21 282.846 287.46 284.456 283.74L300.326 247.28H300.316Z" fill="#1A3C7D" stroke="white" stroke-width="3.95" stroke-linecap="round" stroke-linejoin="round"/>
<path d="M425.766 350.21C425.766 354.23 423.226 357.82 419.416 359.14L303.306 399.26C302.236 399.63 301.106 399.8 299.986 399.77L300.316 247.29L319.356 284.51C321.086 287.88 325.056 289.44 328.606 288.12L425.546 252.26L425.756 350.21H425.766Z" fill="#072759" stroke="white" stroke-width="3.95" stroke-linecap="round" stroke-linejoin="round"/>
<path d="M300.316 247.281L284.446 283.741C282.836 287.461 278.546 289.211 274.796 287.701L186.926 252.311L170.906 245.861C166.716 244.171 164.966 239.181 167.186 235.241L186.376 201.181L300.306 247.281H300.316Z" fill="#1A3C7D" stroke="white" stroke-width="3.95" stroke-linecap="round" stroke-linejoin="round"/>
<path d="M442.766 245.891L425.556 252.251L328.616 288.111C325.066 289.431 321.086 287.871 319.366 284.501L300.326 247.281L425.456 201.841L446.486 234.851C449.046 238.871 447.246 244.231 442.776 245.891H442.766Z" fill="#072759" stroke="white" stroke-width="3.95" stroke-linecap="round" stroke-linejoin="round"/>
<path opacity="0.8" d="M415.575 202.5L300.315 245.31L191.655 202.5L114.275 -1H479.125L415.575 202.5Z" fill="url(#paint0_linear_512_1750)"/>
<path d="M176.045 168.81L174.225 176.85C173.975 177.86 172.545 177.84 172.315 176.83L170.485 168.66C169.555 164.52 167.485 160.66 164.605 157.58C162.325 155.14 159.525 153.2 156.395 151.99L155.615 151.69L154.455 151.25C153.555 150.9 153.645 149.59 154.595 149.38H154.615C154.955 149.3 155.295 149.22 155.625 149.12C163.395 146.96 169.405 140.5 171.495 132.66L171.665 132.06L173.765 124.82C174.035 123.8 175.495 123.87 175.675 124.9L176.935 132.16L177.045 132.81C178.495 141.12 184.355 147.55 192.305 150.12C192.675 150.24 193.045 150.35 193.415 150.45C193.905 150.58 194.145 151.01 194.135 151.43C194.125 151.82 193.895 152.2 193.445 152.34L192.165 152.73L191.535 152.92C188.145 153.95 185.105 155.66 182.595 157.92C179.425 160.76 177.105 164.48 176.035 168.82L176.045 168.81Z" fill="white" stroke="#E4DEDE" stroke-width="1.32" stroke-linecap="round" stroke-linejoin="round"/>
<path d="M179.596 66.0499L178.616 70.3699C178.486 70.9099 177.716 70.8999 177.586 70.3599L176.596 65.9699C176.096 63.7399 174.986 61.6699 173.436 60.0199C172.206 58.7099 170.706 57.6599 169.026 57.0099L168.606 56.8499L167.986 56.6099C167.496 56.4199 167.556 55.7199 168.056 55.5999C168.236 55.5599 168.416 55.5099 168.596 55.4599C172.766 54.2999 176.006 50.8299 177.126 46.6099L177.216 46.2899L178.346 42.3999C178.496 41.8499 179.276 41.8899 179.376 42.4399L180.056 46.3399L180.116 46.6899C180.896 51.1599 184.046 54.6099 188.316 55.9899C188.516 56.0499 188.716 56.1099 188.916 56.1699C189.176 56.2399 189.306 56.4699 189.306 56.6999C189.306 56.9099 189.176 57.1099 188.936 57.1899L188.246 57.3999L187.906 57.4999C186.086 58.0599 184.446 58.9699 183.096 60.1799C181.396 61.7099 180.146 63.7099 179.576 66.0399L179.596 66.0499Z" fill="white" stroke="#E4DEDE" stroke-width="1.32" stroke-linecap="round" stroke-linejoin="round"/>
<path d="M411.305 143.71L410.325 148.03C410.195 148.57 409.425 148.56 409.295 148.02L408.305 143.63C407.805 141.4 406.695 139.33 405.145 137.68C403.915 136.37 402.415 135.32 400.735 134.67L400.315 134.51L399.695 134.27C399.205 134.08 399.265 133.38 399.765 133.26C399.945 133.22 400.125 133.17 400.305 133.12C404.475 131.96 407.715 128.49 408.835 124.27L408.925 123.95L410.055 120.06C410.205 119.51 410.985 119.55 411.085 120.1L411.765 124L411.825 124.35C412.605 128.82 415.755 132.27 420.025 133.65C420.225 133.71 420.425 133.77 420.625 133.83C420.885 133.9 421.015 134.13 421.015 134.36C421.015 134.57 420.885 134.77 420.645 134.85L419.955 135.06L419.615 135.16C417.795 135.72 416.155 136.63 414.805 137.84C413.105 139.37 411.855 141.37 411.285 143.7L411.305 143.71Z" fill="white" stroke="#E4DEDE" stroke-width="1.32" stroke-linecap="round" stroke-linejoin="round"/>
<path d="M425.445 180.76C429.808 180.76 433.345 177.223 433.345 172.86C433.345 168.497 429.808 164.96 425.445 164.96C421.082 164.96 417.545 168.497 417.545 172.86C417.545 177.223 421.082 180.76 425.445 180.76Z" fill="white" stroke="#E4DEDE" stroke-width="1.32" stroke-linecap="round" stroke-linejoin="round"/>
<path d="M151.805 101.76C155.715 101.76 158.885 98.5898 158.885 94.6796C158.885 90.7694 155.715 87.5996 151.805 87.5996C147.894 87.5996 144.725 90.7694 144.725 94.6796C144.725 98.5898 147.894 101.76 151.805 101.76Z" fill="white" stroke="#E4DEDE" stroke-width="1.32" stroke-linecap="round" stroke-linejoin="round"/>
<path d="M465.956 138.62C467.955 138.62 469.576 136.999 469.576 135C469.576 133.001 467.955 131.38 465.956 131.38C463.957 131.38 462.336 133.001 462.336 135C462.336 136.999 463.957 138.62 465.956 138.62Z" fill="white" stroke="#E4DEDE" stroke-width="1.32" stroke-linecap="round" stroke-linejoin="round"/>
<path d="M205.815 106.35C207.815 106.35 209.435 104.73 209.435 102.73C209.435 100.731 207.815 99.1104 205.815 99.1104C203.816 99.1104 202.195 100.731 202.195 102.73C202.195 104.73 203.816 106.35 205.815 106.35Z" fill="white" stroke="#E4DEDE" stroke-width="1.32" stroke-linecap="round" stroke-linejoin="round"/>
<path d="M374.405 191.3C376.404 191.3 378.025 189.679 378.025 187.68C378.025 185.68 376.404 184.06 374.405 184.06C372.406 184.06 370.785 185.68 370.785 187.68C370.785 189.679 372.406 191.3 374.405 191.3Z" fill="white" stroke="#E4DEDE" stroke-width="1.32" stroke-linecap="round" stroke-linejoin="round"/>
<path d="M350.706 135.32C352.705 135.32 354.326 133.699 354.326 131.7C354.326 129.701 352.705 128.08 350.706 128.08C348.707 128.08 347.086 129.701 347.086 131.7C347.086 133.699 348.707 135.32 350.706 135.32Z" fill="white" stroke="#E4DEDE" stroke-width="1.32" stroke-linecap="round" stroke-linejoin="round"/>
<path d="M343.456 215.67C346.184 215.67 348.396 213.458 348.396 210.73C348.396 208.002 346.184 205.79 343.456 205.79C340.727 205.79 338.516 208.002 338.516 210.73C338.516 213.458 340.727 215.67 343.456 215.67Z" fill="white" stroke="#E4DEDE" stroke-width="1.32" stroke-linecap="round" stroke-linejoin="round"/>
<path d="M390.215 95.1495C392.944 95.1495 395.155 92.9378 395.155 90.2095C395.155 87.4812 392.944 85.2695 390.215 85.2695C387.487 85.2695 385.275 87.4812 385.275 90.2095C385.275 92.9378 387.487 95.1495 390.215 95.1495Z" fill="white" stroke="#E4DEDE" stroke-width="1.32" stroke-linecap="round" stroke-linejoin="round"/>
<path d="M217.004 180.77C219.733 180.77 221.944 178.558 221.944 175.83C221.944 173.101 219.733 170.89 217.004 170.89C214.276 170.89 212.064 173.101 212.064 175.83C212.064 178.558 214.276 180.77 217.004 180.77Z" fill="white" stroke="#E4DEDE" stroke-width="1.32" stroke-linecap="round" stroke-linejoin="round"/>
<path d="M456.875 101.19L454.325 112.46C453.975 113.87 451.965 113.85 451.645 112.43L449.075 100.97C447.775 95.1596 444.875 89.7496 440.825 85.4296C437.625 82.0096 433.705 79.2796 429.305 77.5796L428.205 77.1596L426.585 76.5396C425.315 76.0496 425.455 74.2096 426.775 73.9196H426.795C427.275 73.8096 427.745 73.6896 428.215 73.5596C439.105 70.5296 447.545 61.4696 450.475 50.4696L450.715 49.6296L453.665 39.4796C454.045 38.0596 456.095 38.1496 456.345 39.5996L458.115 49.7796L458.275 50.6896C460.305 62.3396 468.525 71.3696 479.685 74.9696C480.205 75.1396 480.725 75.2896 481.245 75.4296C481.935 75.6196 482.275 76.2096 482.255 76.7996C482.235 77.3396 481.915 77.8796 481.285 78.0696L479.495 78.6096L478.615 78.8796C473.865 80.3296 469.595 82.7196 466.075 85.8896C461.625 89.8796 458.375 95.0996 456.885 101.18L456.875 101.19Z" fill="white" stroke="#E4DEDE" stroke-width="1.32" stroke-linecap="round" stroke-linejoin="round"/>
</g>
<defs>
<linearGradient id="paint0_linear_512_1750" x1="296.695" y1="245.31" x2="296.695" y2="-1" gradientUnits="userSpaceOnUse">
<stop offset="0.29" stop-color="#FF6D2A"/>
<stop offset="0.5" stop-color="#F69265" stop-opacity="0.67"/>
<stop offset="0.75" stop-color="#ECBAA5" stop-opacity="0.31"/>
<stop offset="0.92" stop-color="#E6D4CE" stop-opacity="0.09"/>
<stop offset="1" stop-color="#E4DEDE" stop-opacity="0"/>
</linearGradient>
<clipPath id="clip0_512_1750">
<rect width="600" height="600" fill="white"/>
</clipPath>
</defs>
</svg>
