<svg width="505" height="418" viewBox="0 0 505 418" fill="none" xmlns="http://www.w3.org/2000/svg">
<path d="M310.026 73.6161C311.155 77.4485 311.41 80.0583 311.512 82.4526M311.512 82.4526C311.638 85.4235 311.528 88.0625 312.555 92.2939M311.512 82.4526C309.055 82.5527 306.218 82.8722 302.921 84.1123M311.512 82.4526C314.487 82.3313 316.905 82.5318 318.906 81.8088M155.552 66.1789C156.117 68.1864 156.245 69.5534 156.295 70.8076M156.295 70.8076C156.359 72.3638 156.303 73.7461 156.817 75.9626M156.295 70.8076C155.067 70.86 153.648 71.0274 152 71.677M156.295 70.8076C157.783 70.7441 158.992 70.8491 159.993 70.4704M44 361.634H18.5414L108.236 251.343L3 259.351L72.7992 208.877L26.6197 139.5H89.3125M446.5 390.067L469.678 397.21L418.5 274L502.5 246.337L396.364 217.993L446.5 98.3658L375.399 120.085M275.192 103.466L237.035 2.98438L198.954 75.0956M122.001 137C97.5 161.5 100.602 192.827 119.262 225.197C137.922 257.568 178.611 273.199 225.067 246.337C244.637 235.021 254.893 207.483 255.846 195.147C256.799 182.811 256.7 156.384 247.378 143.971C229.461 120.115 230.841 118.021 207.186 110.738M375.399 174.411C375.399 174.411 379.502 186.775 375.399 201.5C362.618 247.365 335.872 263.032 302.894 260.494C284.454 259.075 270.482 251.343 264 246.337M268.764 133.354C273.475 128.502 283.783 119.002 308 123.5M152.639 174.411C145.535 158.846 144.202 126.382 137.986 103.258M189.05 185.529C189.05 160.625 179.577 123.714 175.729 98.3658M127 195.147C145.2 251.343 207.186 237.5 224.572 178.858M111.788 310.048C143.652 347.45 189.11 352.991 212.902 340.524C236.693 328.056 243.066 322.053 249.438 310.971M386.56 411.435C385.592 376.25 365.318 337.39 348.636 320.695C331.954 304.001 326.434 300.161 318.906 297.525M331.596 187.755C326.979 175.909 328.894 143.028 326.267 126.385M356.527 195.358C360.229 178.909 356.476 152.442 356.49 134.852M297.838 178.858C296 221.5 336.034 225.11 336.034 225.11M342 411.435C376.007 407.455 411.674 414.034 423.476 412.653C435.278 411.272 415.692 349.751 396.364 325.822C376.707 301.486 361.123 299.032 334.801 297.915C310.261 296.873 297.838 300.999 282.5 310.048M191.815 390.993C195.617 389.594 198.157 383.94 198.954 381.28C200.754 375.272 197.66 370.727 191.661 368.924C185.662 367.121 178.254 368.51 176.454 374.518C174.653 380.526 176.016 385.408 180.252 390.067C183.432 393.566 190.649 394.886 192.589 382.765M82.8293 72.3936L72.7992 79.0874C72.1167 79.5429 72.4279 80.6207 73.2476 80.6406L85.295 80.9325C85.5798 80.9394 85.8425 81.0926 85.992 81.339L92.5665 92.1774C93.0126 92.9128 94.129 92.5891 94.1142 91.7286L93.897 79.0468C93.892 78.7585 94.0325 78.4884 94.2696 78.3301L104.3 71.6363C104.982 71.1809 104.671 70.1031 103.851 70.0832L91.8039 69.7912C91.519 69.7843 91.2564 69.6311 91.1069 69.3848L84.5324 58.5464C84.0863 57.8109 82.9699 58.1346 82.9847 58.9952L83.2019 71.677C83.2069 71.9653 83.0664 72.2354 82.8293 72.3936ZM365.142 58.7837L358.86 59.3699C358.432 59.4098 358.308 59.9838 358.681 60.197L364.158 63.331C364.288 63.4051 364.371 63.5411 364.378 63.6918L364.716 70.3214C364.739 70.7713 365.334 70.9001 365.541 70.5L368.589 64.6041C368.658 64.4701 368.79 64.3806 368.938 64.3668L375.22 63.7806C375.647 63.7407 375.772 63.1667 375.399 62.9535L369.922 59.8194C369.792 59.7453 369.709 59.6094 369.702 59.4587L369.364 52.8291C369.341 52.3793 368.746 52.2504 368.539 52.6505L365.491 58.5464C365.422 58.6804 365.29 58.7699 365.142 58.7837ZM64.3816 406.194C73.9867 420.491 139.654 413.986 186.207 410.095C232.76 406.204 291.44 411.446 307.596 410.095C323.752 408.745 296.94 348.58 270.482 325.18C243.573 301.38 222.239 298.98 186.207 297.888C152.612 296.869 135.446 292.271 108.483 312.181C75.9889 336.176 54.7766 391.898 64.3816 406.194Z" stroke="#ECECEC" stroke-width="5" stroke-linecap="round" stroke-linejoin="round"/>
</svg>
