<svg width="450" height="378" viewBox="0 0 450 378" fill="none" xmlns="http://www.w3.org/2000/svg">
<path d="M311.882 135.991C394.634 126.502 442.043 177.532 442.043 250.448C442.043 285.936 440.108 312.005 418.792 333.078C415.784 336.052 416.975 339.353 418.792 341.691C430.72 357.039 451.438 365.332 446.154 369.557C437.033 378.17 405.619 376.287 388.947 365.85C383.119 362.202 374.892 357.708 370.712 360.027C350.942 370.995 325.187 371.055 295.162 369.557C278.592 368.729 237.906 347.671 222.199 333.078C206.492 318.484 197 296.5 197 279M315.925 308.239C321.031 311.61 320.303 315.821 316.785 318.484C313.267 321.147 308.982 320.292 306.866 316.628C304.751 312.964 305.733 307.804 309.397 305.689C311.205 304.645 313.831 304.093 315.705 304.575M343.413 93.2659C359.052 89.7338 370.104 93.951 377.947 92.2796M329.063 58.3814C333.901 48.8319 352.13 43.0727 356.587 36.1461M292.229 37.1597C291.015 27.2701 300.279 13.7701 299.085 3M124.915 126.872C124.51 123.224 115.288 90.8996 110.728 75.1935L147.209 117.245L177.611 72.6603L173.05 123.325L220.679 135.991L181.664 154.231L206.492 201.856L162.917 177.03L135.049 218.069L130.489 177.03L80.8336 188.683L119.848 154.231L80.8336 123.325L124.915 126.872ZM15.9785 138.772C15.9785 69.8247 70.0444 23.1547 148.223 32.1273C226.402 41.0999 283.508 62.0206 283.508 138.772C283.508 166.892 268.446 204.732 245.495 223.907C222.543 243.083 208.629 253.073 154.405 255.782C126.039 257.199 102.044 252.759 83.3671 242.388C79.4181 240.195 70.5963 253.053 53.9793 259.232C34.7176 266.394 7.41953 267.056 3.81715 264.174C-1.17544 260.179 17.8832 251.834 29.1517 237.321C38.9429 224.711 41.1146 205.681 38.2726 202.869C18.135 182.944 15.9785 172.329 15.9785 138.772ZM315.647 285.453C313.294 285.453 311.882 196.672 311.882 191.478C311.883 186.284 322.388 191.567 330.71 191.478C338.301 191.397 350.197 190.06 348.125 200.449C346.713 207.53 337.77 221.699 330.71 242.005C324.218 260.676 317.999 285.453 315.647 285.453Z" stroke="#ECECEC" stroke-width="5" stroke-linecap="round" stroke-linejoin="round"/>
</svg>
