<svg width="396" height="792" viewBox="0 0 396 792" fill="none" xmlns="http://www.w3.org/2000/svg">
<path d="M377.098 611.464C347.239 655.446 296.287 693.871 236.359 703.059L227.053 543.695L325.75 528.594C333.815 527.67 339.913 520.78 339.913 512.596C339.913 503.699 332.759 496.479 323.954 496.479H225.1L224.096 472.111C223.938 472.098 223.793 472.085 223.634 472.072C223.793 472.019 223.938 471.953 224.083 471.887C244.266 463.69 259.314 445.368 263.05 423.153C263.644 419.628 263.947 416.025 263.947 412.329C263.947 380.517 241.085 354.156 210.989 349.035C207.57 348.454 204.046 348.15 200.468 348.137C195.386 348.124 190.436 348.718 185.698 349.84C157.595 356.506 136.686 381.955 136.686 412.329C136.686 416.064 137.003 419.721 137.61 423.285C141.412 445.54 156.552 463.875 176.827 472.006C176.906 472.006 176.972 471.993 177.038 471.979V472.085L175.956 496.479H78.936C74.5272 496.479 70.5408 498.287 67.65 501.191C64.7592 504.108 62.9772 508.134 62.9772 512.583C62.9772 520.78 69.0756 527.67 77.154 528.581L173.884 543.669L163.984 702.927C100.98 693.04 47.982 658.086 19.14 610.368C13.662 601.313 -0.171608 605.775 0.541192 616.361C0.857992 621.021 1.24079 624.796 1.67639 626.961C16.5264 699.561 81.0744 745.483 163.007 758.908C166.993 775.698 181.949 788.317 199.954 788.397H200.125C218.209 788.397 233.284 775.725 237.257 758.829C314.107 746.077 375.58 686.73 394.957 620.374C395.01 620.189 395.063 620.004 395.116 619.833C398.152 608.837 383.513 602.026 377.124 611.451L377.098 611.464ZM204.455 440.537L201.986 453.183C201.643 454.767 199.399 454.806 199.003 453.235L195.769 440.55C194.132 434.122 190.727 428.182 186.08 423.509C182.398 419.8 177.949 416.896 172.999 415.14L171.758 414.705L169.937 414.058C168.511 413.556 168.604 411.51 170.069 411.127H170.095C170.623 410.982 171.151 410.837 171.666 410.679C179.837 408.144 186.661 402.547 191.11 395.353C193.208 391.948 194.792 388.186 195.716 384.226L195.967 383.289L198.924 371.884C199.307 370.287 201.59 370.313 201.92 371.923L204.217 383.209L204.415 384.213C205.154 387.829 206.435 391.209 208.164 394.271C212.599 402.138 220.031 407.946 229.046 410.573C229.627 410.745 230.208 410.89 230.802 411.035C231.581 411.22 231.977 411.88 231.977 412.527C231.977 413.134 231.634 413.741 230.934 413.979L228.954 414.639L227.977 414.969C222.737 416.737 218.051 419.536 214.236 423.179C209.405 427.773 205.96 433.686 204.481 440.524L204.455 440.537Z" fill="#05183C"/>
<path d="M230.301 205.749C222.275 197.71 211.201 192.72 199.017 192.707C174.65 192.694 154.691 212.613 154.678 236.993L154.639 286.559C154.625 310.926 174.544 330.885 198.925 330.898C223.292 330.911 243.25 310.992 243.264 286.612L243.303 237.046C243.303 224.862 238.34 213.774 230.314 205.749H230.301ZM221.523 278.797C221.523 291.205 211.359 301.356 198.938 301.356C186.517 301.356 176.379 291.179 176.379 278.771L176.406 244.834C176.406 232.426 186.569 222.275 198.991 222.275C205.195 222.275 210.844 224.823 214.923 228.915C219.015 233.007 221.549 238.656 221.536 244.86L221.51 278.797H221.523Z" fill="#05183C"/>
<path d="M230.407 58.4244C222.381 50.3856 211.306 45.396 199.123 45.3828C174.755 45.3696 154.797 65.2884 154.784 89.6688L154.744 139.235C154.731 163.602 174.65 183.56 199.03 183.574C223.397 183.587 243.356 163.668 243.369 139.288L243.409 89.7216C243.409 77.538 238.445 66.45 230.42 58.4244H230.407ZM221.629 131.473C221.629 143.881 211.465 154.032 199.043 154.032C186.622 154.032 176.485 143.855 176.485 131.447L176.511 97.5096C176.511 85.1016 186.675 74.9508 199.096 74.9508C205.3 74.9508 210.95 77.4984 215.029 81.5904C219.121 85.6824 221.655 91.332 221.642 97.536L221.615 131.473H221.629Z" fill="#05183C"/>
<path d="M205.986 141.49H192.073C188.931 141.49 186.384 144.037 186.384 147.179V227.977C186.384 231.119 188.931 233.666 192.073 233.666H205.986C209.128 233.666 211.675 231.119 211.675 227.977V147.179C211.675 144.037 209.128 141.49 205.986 141.49Z" fill="#05183C"/>
<path d="M205.18 3.5918H193.062C189.425 3.5918 186.476 6.54081 186.476 10.1786V80.165C186.476 83.8028 189.425 86.7518 193.062 86.7518H205.18C208.818 86.7518 211.767 83.8028 211.767 80.165V10.1786C211.767 6.54081 208.818 3.5918 205.18 3.5918Z" fill="#05183C"/>
<path d="M210.989 295.746V388.832C210.989 391.089 209.854 393.082 208.125 394.284C206.395 391.221 205.128 387.842 204.376 384.225L204.178 383.222L201.881 371.936C201.551 370.326 199.267 370.299 198.885 371.896L195.928 383.301L195.677 384.238C194.74 388.198 193.169 391.96 191.07 395.366C188.008 394.772 185.685 392.066 185.685 388.845V295.759C185.685 292.102 188.681 289.119 192.337 289.119H204.336C207.993 289.119 210.976 292.116 210.976 295.759L210.989 295.746Z" fill="#05183C"/>
</svg>
