<svg width="448" height="448" viewBox="0 0 448 448" fill="none" xmlns="http://www.w3.org/2000/svg">
<path d="M91.331 225.58C83.6645 190.467 86.9512 152.536 96.8109 142.185C102.285 136.439 134.045 127.921 174.573 136.705C196.451 141.447 212.705 142.185 223.858 166.326C233.517 187.232 205.239 222.288 205.239 222.288C205.239 222.288 236.248 254.666 228.239 276.056C215.093 311.168 191.558 302.256 162.522 311.168C133.486 320.08 104.474 314.848 96.8109 307.877C91.3347 302.896 98.0188 256.212 91.331 225.58Z" stroke="#ECECEC" stroke-width="5" stroke-linejoin="round"/>
<path d="M262.192 166.326C252.582 165.451 253.426 142.185 267.668 142.185C298.642 142.185 298.331 131.211 331.192 142.185C340.56 145.314 340.512 169.594 331.192 166.326C309.284 158.644 298.331 169.617 262.192 166.326Z" stroke="#ECECEC" stroke-width="5" stroke-linejoin="round"/>
<path d="M313.664 258.498C296.141 262.888 280.807 258.498 276.426 258.498C276.426 258.498 280.952 277.616 290.665 282.638C302.833 288.931 328.998 273.86 328.998 273.86H357.474C357.474 273.86 335.569 314.461 282.998 307.877C251.631 303.949 247.95 267.276 244.665 246.427C240.769 221.713 247.677 211.563 259.998 198.146C274.642 182.2 294.339 176.185 315.855 178.395C338.582 180.73 343.009 197.359 353.093 217.898C360.703 233.398 360.76 258.498 360.76 258.498C360.76 258.498 331.188 254.107 313.664 258.498Z" stroke="#ECECEC" stroke-width="5" stroke-linejoin="round"/>
<path d="M54.7884 438.581C-0.224976 443.997 19.6947 384.57 10.9627 328.025C-7.96017 205.489 13.9323 64.5976 5.38727 29.5965C-3.15775 -5.40462 91.4333 6.96629 165.464 6.96628C248.037 6.96628 425.109 -4.4907 436.487 11.5396C447.866 27.5699 421.71 104.532 436.496 191.204C455.636 303.397 436.485 433.163 436.485 433.163C436.486 459.319 109.802 433.164 54.7884 438.581Z" stroke="#ECECEC" stroke-width="5" stroke-linejoin="round"/>
</svg>
