<svg width="422" height="450" viewBox="0 0 422 450" fill="none" xmlns="http://www.w3.org/2000/svg">
<path d="M42.7816 94.2602C29.6275 94.2602 1.94242 105.869 5.6797 147.273C9.41699 188.676 -1.90674 270.583 5.6797 333.083C11.1461 378.117 -0.0460777 439.051 42.7816 439.051C85.6092 439.051 279.221 456.937 307.42 439.051M332.302 285.444C332.302 252.638 336 125.31 322 109.5C308 93.6901 283.476 94.2563 271.333 97.7907M59.6326 231.97C76.9503 241.305 76.441 253.088 85.6092 256.132C94.7774 259.177 100.889 227.577 135.525 189.686M277.19 256.253C277.19 256.253 249.1 255.111 225.782 254.512C180.044 253.337 125.406 256.253 125.406 256.253M277.19 222.934C269.601 218.887 233.42 222.515 216.476 221.916C183.24 220.741 181.566 220.403 166.894 222.934M124.394 337.123C124.394 337.123 153.629 333.083 180.107 334.814C225.58 337.787 277.19 333.083 277.19 333.083M124.394 369.437C134.908 373.644 185.029 369.873 208.502 370.496C254.545 371.717 256.864 372.069 277.19 369.437M82.0109 357.725C76.3644 357.387 73.6754 353.712 75.261 349.961C76.8467 346.211 81.4863 343.969 84.8741 345.921C88.262 347.873 90.8788 352.637 88.9228 356.018C87.9578 357.686 84.3688 360.058 82.0109 360.058M351.459 214.304C335.167 289.731 318.073 317.194 302.359 396.255L308.5 399M351.459 214.304C359.281 217.655 364.075 220.219 373.425 222.168M351.459 214.304L346.815 212.194C346.815 212.194 362.485 140.276 377.755 94.2602C392.198 97.0291 395.288 100.968 411.36 102.916C411.36 102.916 394.411 151.112 388.873 183.193C386.153 198.951 383.939 223.842 383.939 223.842C379.815 223.342 376.391 222.786 373.425 222.168M332.449 404.484C332.449 404.484 348.268 337.148 358.622 285.444C363.665 260.265 372.871 224.328 373.425 222.168M373.425 222.168C373.443 222.1 373.452 222.065 373.452 222.065M308.5 399C304.858 404.56 305.533 407.523 305.11 411.007C312.217 415.433 317.5 415.844 320.592 415.844C321.901 413.457 322.711 410.983 323.5 404.484L308.5 399ZM409.64 112.892L419 115.554C419 115.554 416.944 136.692 408.616 159.106C400.289 181.521 400.212 194.752 395.37 209.441M100.604 66.4849C89.5848 74.7537 77.2125 70.786 68.7297 81.6325C57.0591 96.555 64.1759 124.551 68.7297 130.105C71.9463 134.027 91.4969 140.709 146.645 136.165C201.794 131.62 254.412 140.204 265.543 130.105C267.63 128.212 277.054 96.6781 265.543 81.6325C255.747 68.827 239.973 76.1962 227.091 66.4849C207.613 51.8006 217.79 24.2805 196.734 11.9536C175.772 -0.31873 155.846 0.354413 134.503 11.9536C112.449 23.9389 120.676 51.4241 100.604 66.4849ZM157.901 73.4723L137.266 80.5374C135.861 81.0181 135.921 83.0125 137.351 83.4114L158.369 89.2735C158.866 89.4121 159.258 89.7928 159.409 90.2836L166.051 111.872C166.501 113.337 168.608 113.276 168.971 111.788L174.324 89.8528C174.445 89.3542 174.814 88.9515 175.302 88.7845L195.937 81.7194C197.341 81.2386 197.282 79.2442 195.852 78.8453L174.834 72.9833C174.337 72.8447 173.945 72.464 173.794 71.9733L167.152 50.3845C166.702 48.9196 164.595 48.9804 164.232 50.4688L158.879 72.404C158.758 72.9027 158.389 73.3053 157.901 73.4723Z" stroke="#ECECEC" stroke-width="5" stroke-linecap="round" stroke-linejoin="round"/>
</svg>
