<svg width="418" height="458" viewBox="0 0 418 458" fill="none" xmlns="http://www.w3.org/2000/svg">
<path d="M414.901 391.169L365.901 404V385L291.863 404L293.401 383.5L239.401 399.5M414.901 391.169L368.526 370.248M414.901 391.169C414.901 391.169 408.712 378.434 406.035 367.975C402.777 355.242 397.17 344.782 397.17 344.782M306.415 341.194C278.687 313.779 241.849 266.109 210.346 243.039M306.415 341.194C306.415 341.194 321.834 347.058 334.147 355.698C346.459 364.339 368.526 370.248 368.526 370.248M306.415 341.194C306.415 341.194 331.989 325.423 344.381 314.313C358.172 301.948 372.162 280.662 372.162 280.662M127 157.5C119.791 143.904 59.304 85.6844 52.5795 78.502C46.5405 72.0517 35.5018 67.4601 32.8376 58.3147C28.5944 43.7491 46.5999 23.1037 59.8074 11.4451C82.2989 -8.4085 97.9897 11.8964 105.606 20.031C141.843 58.7352 151.76 64.8852 188 103.593M127 157.5C134.014 140.5 142.357 126.781 166 109.5C176.577 101.769 191.411 102.85 198.026 105.579C207.119 109.33 213.484 115.129 213.484 115.129M127 157.5C119.5 175.677 110.73 217.903 127.098 259.744L11.9014 353.747M372.162 280.662L336.901 246.099M372.162 280.662C372.162 280.662 381.56 296.229 385.524 311.591C388.457 322.96 397.17 344.782 397.17 344.782M397.17 344.782C397.17 344.782 389.95 354.339 384.357 359.312C378.764 364.284 368.526 370.248 368.526 370.248M99.8386 16.8134C90.1528 26.5702 46.2486 65.046 49.1652 74.6053M122.616 38.5299C104.274 56.5008 86.8208 75.7069 68.9141 93.9942M148.752 124L105.606 78.502M269.219 246.553L245.311 224.477M192.206 172.266C201.205 184.805 240.372 223.761 183.476 281.572M192.206 172.266C185.073 164.993 179.866 156.302 179.384 147.869M192.206 172.266C199.949 180.163 209.947 186.366 218.201 188.152C229.569 190.612 241.338 189.544 245.311 177.618C246.832 173.965 247.463 170.239 247.405 166.517M192.206 172.266L234.118 214.265M330.906 303.146L291.863 268.296M247.405 166.517C247.001 140.728 213.484 115.129 213.484 115.129M247.405 166.517C285.776 133.774 304.948 120.732 274.842 92.8359C265.771 84.4297 245.311 86.9334 223.032 105.581C219.572 108.477 213.484 115.129 213.484 115.129M269.219 336C261.219 348.5 251.901 357.518 219.85 357.518C210.401 357.518 199.39 354.789 199.39 354.789L130.401 452.208M284.549 131.501C300.325 127.408 308.417 136.028 316.771 144.278C327.917 155.286 327.16 168.013 322.755 177.618M322.755 177.618C321.441 180.483 319.802 183.071 318.057 185.251C312.601 192.073 305.155 194.948 285.923 212.903M322.755 177.618C332.607 169.701 347.08 184.655 352.157 189.71C367.65 209.307 345.658 236.729 334.425 248.829C323.193 260.93 295.045 280.661 275.04 258.832C259.392 241.758 278.761 220.544 285.923 212.903M285.923 212.903C255.944 243.039 216.388 218.813 238.212 186.712M85.2074 292.812C48.2312 274.079 23.3499 277.366 9.76585 294.708C-8.34016 317.823 10.4012 373 59.9012 416.5C109.401 460 174.1 463.615 192.206 440.5C204.901 424.292 198.088 400.384 184.026 377.05" stroke="#ECECEC" stroke-width="5" stroke-linecap="round" stroke-linejoin="round"/>
</svg>
