<svg width="437" height="319" viewBox="0 0 437 319" fill="none" xmlns="http://www.w3.org/2000/svg">
<path d="M427.543 307.126C400.101 274.858 359.094 266.71 327.617 231.215C296.139 195.721 261.921 177.251 261.921 177.251M261.921 177.251C237.689 205.944 217.213 231.215 207.2 231.215C198.046 231.215 180.557 206.77 160.292 177.251M261.921 177.251C284.724 150.25 310.855 120.22 334.724 105.37C383.958 74.7397 421.893 11.067 421.893 11.067M17.5281 19.134C17.5281 19.134 47.9908 51.0402 89.3606 86.0093C111.249 104.511 137.522 144.084 160.292 177.251M160.292 177.251C160.292 177.251 117.767 211.048 86.6926 245.357C55.6186 279.666 11.8783 307.126 11.8783 307.126M117.064 8.63872C61.9258 14.8223 3.97782 0.716259 9.25961 39.6737C14.5414 78.6312 -10.9622 309.971 14.5421 309.97C14.5421 309.97 141.079 323.532 250.48 309.978C334.995 299.507 410.042 318.029 425.673 309.972C441.304 301.914 430.132 176.522 430.132 118.048C430.132 65.6236 442.196 -1.36055 408.065 4.69055C373.935 10.7417 236.55 -4.76139 117.064 8.63872Z" stroke="#ECECEC" stroke-width="5" stroke-linecap="round" stroke-linejoin="round"/>
</svg>
