<svg width="200" height="350" viewBox="0 0 200 350" fill="none" xmlns="http://www.w3.org/2000/svg">
<path d="M160.033 60.7459C163.305 60.224 170.579 59.982 177.545 59.9449C184.018 59.9104 190.874 60.0512 194.914 60.4154C194.93 59.2706 194.944 57.9484 194.956 56.4725C195 50.9941 195.012 43.4767 194.987 35.2503C194.987 35.2498 194.987 35.2493 194.987 35.2488L194.857 9.2139C188.249 7.82504 174.879 5.87042 168.952 5.41266C160.999 4.827 138.272 4.88776 132.831 5.44913C106.058 8.26562 87.0134 16.869 73.4998 31.4683L73.4911 31.4777C64.027 41.6499 56.9719 56.0384 53.4171 73.0588C51.2221 83.7134 50.8695 87.7095 50.6698 113.251L50.6697 113.262L50.4196 138.203L50.3699 143.152H45.4198H22.7099H5V171.207V199.261H22.7599H45.5199H50.5199V204.261V277.13V345H85.0371H119.554V277.13V204.261V199.261H124.554H154.317H179.985C181.013 193.792 183.295 181.313 185.551 168.857C186.976 160.987 188.379 153.194 189.425 147.32C189.766 145.402 190.069 143.692 190.322 142.251C185.605 142.151 176.805 142.151 160.32 142.151H124.554H119.554V137.151V123.428C119.554 107.938 120.047 101.164 121.952 93.4779L121.955 93.4672L121.958 93.4564C124.301 84.1802 128.441 76.6958 134.96 71.1376C141.434 65.6184 149.825 62.3658 160.033 60.7459ZM160.033 60.7459L160.819 65.6746L160.037 60.7453C160.035 60.7455 160.034 60.7457 160.033 60.7459ZM194.799 64.8825L194.799 64.8847C194.799 64.8868 194.799 64.8861 194.799 64.8825Z" stroke="#ECECEC" stroke-width="10"/>
</svg>
