<svg width="514" height="467" viewBox="0 0 514 467" fill="none" xmlns="http://www.w3.org/2000/svg">
<path d="M51.6388 457.123C18.8975 457.123 12.8814 451.754 12.8814 446.604C12.8814 441.454 18.8975 434 51.6388 434C51.6388 434 202.131 430.355 328.108 431.824C392.331 432.573 469.701 434 469.701 434C502.442 434 506.908 440.288 506.908 445.438C506.908 450.589 502.442 457.123 469.701 457.123C469.701 457.123 243.862 456.775 180.83 456.643M52.698 58.1721C19.9891 58.1721 1.02207 49.3865 7.22277 94.3478C13.4235 139.309 -18.6402 387.133 33.0362 392.385C84.7126 397.638 140.498 402.31 269.5 392.385C378.495 384 482.873 405.299 501.224 396C519.575 386.701 506.459 258.673 506.459 191.188C506.459 130.685 516.261 54.9014 481.096 54.9014C445.93 54.9014 265.579 48.8697 216.487 58.1721M69.9169 460.9C71.4672 462.967 75.3826 463.484 77.1516 463.484C81.1472 463.484 83.3528 460.761 83.3528 456.766C83.3528 452.77 81.1472 448.497 77.1516 448.497C73.156 448.497 70.4276 450.223 68.3616 453.665C66.8103 456.249 67.3281 460.9 75.0785 459.866M116.084 461.613C110.317 461.267 107.57 457.505 109.19 453.666C110.809 449.827 115.548 447.533 119.008 449.531C122.469 451.529 125.141 456.405 123.144 459.865C122.158 461.572 118.492 464 116.084 464M155.699 452.11C160.867 449.526 163.967 452.11 164.484 456.245C165.001 460.379 162.279 463.48 158.283 463.48C154.287 463.48 150.531 460.24 150.531 456.245C150.531 454.273 151.32 451.865 152.598 450.56M96.7954 240.446C122.102 301.229 190.39 340.942 259.08 337.5C335.803 333.656 402.485 315.752 431.808 226.803C405.311 172.901 355.085 138.213 273.5 132.5C191.915 126.787 98.4022 197.423 96.7954 240.446ZM96.7954 240.446C86.8169 241.741 68.7287 241.627 63.7293 242.215M120.137 278.278C116.223 283.017 95.3147 291.814 92.1514 295.849M153.257 307.735C151.53 314.208 147.353 327.878 145.187 333.058M190.243 241.245C186.627 283.107 221.978 320.388 262.95 313.435C300.71 307.028 328.028 285.624 328.028 245.519C328.028 245.519 314.973 248.082 298.705 245.519C285.592 243.453 260.142 245.519 260.142 245.519M190.243 241.245C192.252 185.285 245.681 160.085 260.142 172.901C260.142 172.901 257.651 179.308 260.142 192.55C262.632 205.792 260.142 245.519 260.142 245.519M190.243 241.245C190.243 241.245 201.294 248.936 217.562 245.519C233.831 242.101 260.142 245.519 260.142 245.519M260.142 245.519C260.142 245.519 244.47 263.884 232.419 289.941C225.98 303.865 220.773 304.549 220.773 304.549M121.192 43.8703L86.3647 54.9014C83.9949 55.652 83.994 59.062 86.3634 59.8154L121.185 70.8868C122.008 71.1486 122.644 71.8186 122.872 72.6646L132.89 109.879C133.57 112.404 137.092 112.406 137.773 109.881L147.81 72.6791C148.039 71.8333 148.675 71.1641 149.498 70.9033L184.326 59.8722C186.695 59.1216 186.696 55.7115 184.327 54.9582L149.505 43.8867C148.682 43.6249 148.046 42.955 147.818 42.109L137.8 4.89506C137.121 2.36981 133.599 2.36776 132.918 4.89222L122.88 42.0945C122.652 42.9402 122.016 43.6095 121.192 43.8703ZM279.505 158.5C321 178.105 338.554 165.29 344.981 224.665C344.981 224.665 322.486 223.387 302 226.803C281.514 230.218 281.5 222 281.5 222C281.5 222 277.497 196.046 279.505 178.105C281.081 164.025 279.505 158.5 279.505 158.5Z" stroke="#ECECEC" stroke-width="5" stroke-linecap="round" stroke-linejoin="round"/>
</svg>
