<svg width="330" height="438" viewBox="0 0 330 438" fill="none" xmlns="http://www.w3.org/2000/svg">
<path d="M219.579 326.88C219.579 326.88 228.801 266.99 249.5 242.745C270.199 218.5 285.37 181.845 285.37 153.265C285.37 89.0225 242.119 50.9431 175.719 41.8241C109.319 32.705 58.1484 83.1928 58.1484 153.265C58.1484 187.37 75.3965 222.494 92.5 242.745C109.604 262.996 126.985 326.88 126.985 326.88C118.91 326.88 112.365 335.206 112.365 343.279C112.365 351.351 118.91 356.113 126.985 356.113M219.579 326.88C227.654 326.88 234.199 331.552 234.199 339.625C234.199 347.697 227.654 356.113 219.579 356.113M219.579 326.88C219.579 326.88 180.158 323.952 150.308 326.88M140.387 414.578C145.26 430.368 158.053 433.575 171.455 434.793C194.603 436.897 199.477 422.451 205.789 414.578C227.498 415.914 234.199 406.772 234.199 398.699C234.199 390.627 227.654 385.345 219.579 385.345M126.985 356.113C118.91 356.113 112.365 360.785 112.365 368.857C112.365 376.93 118.91 385.345 126.985 385.345M126.985 356.113C126.985 356.113 156.225 353.811 187.293 356.113C203.132 357.286 219.579 356.113 219.579 356.113M219.579 356.113C227.654 356.113 234.199 358.958 234.199 367.03C234.199 375.103 227.654 385.345 219.579 385.345M126.985 385.345C118.91 385.345 112.365 395.499 112.365 403.571C112.365 411.644 118.91 414.578 126.985 414.578C126.985 414.578 155.007 415.841 173.282 414.578M126.985 385.345C126.985 385.345 141.605 387.217 159.88 385.345C178.155 383.474 219.579 385.345 219.579 385.345M297.318 74.2701C310.294 68.8604 320.477 70.8353 327 68.2086M279.659 46.3072C282.396 37.3301 297.273 29.6062 300.078 22.9516M244.638 33.536C242.097 25.178 248.063 12.1213 245.405 3M33.0175 237.989C18.9828 238.807 10.0248 233.578 3 233.902M40.4401 270.215C34.8887 277.784 18.294 280.157 13.4464 285.511M69.27 293.841C68.9048 302.569 58.9583 312.921 58.4508 322.407M223.366 176.006C224.005 178.258 224.15 179.792 224.207 181.2M224.207 181.2C224.279 182.946 224.216 184.497 224.798 186.985M224.207 181.2C222.816 181.259 221.21 181.446 219.343 182.175M224.207 181.2C225.892 181.129 227.261 181.246 228.394 180.821M212.304 110.133C213.582 114.433 213.872 117.362 213.987 120.049M213.987 120.049C214.13 123.382 214.005 126.344 215.169 131.092M213.987 120.049C211.205 120.161 207.992 120.519 204.259 121.911M213.987 120.049C217.356 119.913 220.094 120.137 222.36 119.326M142.52 155.617C140.607 157.644 120.186 173.032 110.214 180.473L151.882 171.636L150.308 212.554L170.59 179.751L205.738 193.822L189.99 164.945L227.01 147.406L188.82 142.559L190.339 104.949L168.821 127.75L143.508 98.0066L151.866 136.714L113.717 137.636L142.52 155.617ZM177.908 222.453L164.641 225.633C163.738 225.849 163.65 227.105 164.514 227.443L177.212 232.404C177.512 232.521 177.732 232.784 177.795 233.101L180.575 247.063C180.763 248.01 182.076 248.1 182.395 247.187L187.092 233.739C187.199 233.434 187.453 233.203 187.767 233.128L201.034 229.948C201.937 229.732 202.024 228.476 201.16 228.138L188.463 223.177C188.163 223.06 187.943 222.797 187.88 222.48L185.1 208.519C184.911 207.571 183.599 207.481 183.28 208.394L178.583 221.842C178.476 222.148 178.222 222.378 177.908 222.453Z" stroke="#ECECEC" stroke-width="5" stroke-linecap="round" stroke-linejoin="round"/>
</svg>
