<svg width="409" height="411" viewBox="0 0 409 411" fill="none" xmlns="http://www.w3.org/2000/svg">
<path d="M3.35814 74.0692C3.35815 16.5031 79.5809 2.99999 153.667 3C267.57 3.00001 312.024 16.5032 350.991 16.5032C389.957 16.5032 399.349 71.9565 399.349 139.806C399.349 215.484 423.938 332.76 378.56 371.138C333.182 409.516 300.251 385.305 220.629 398.857C117.561 416.399 49.4626 409.508 24.0158 371.138C-1.4309 332.768 3.35814 131.635 3.35814 74.0692Z" stroke="#ECECEC" stroke-width="5" stroke-linejoin="round"/>
<path d="M293.844 206.451C293.844 255.806 241.844 300 192.5 300C143.156 300 113.5 269.856 113.5 220.5C113.5 171.144 143.156 117.085 192.5 117.085C241.844 117.085 293.844 139.806 293.844 206.451Z" stroke="#ECECEC" stroke-width="5" stroke-linejoin="round"/>
<path d="M335.665 96.169C335.665 107.72 331.048 117.085 319.5 117.085C307.952 117.085 293.844 107.72 293.844 96.169C293.844 84.6177 298.452 74.0692 310 74.0692C321.548 74.0692 335.665 84.6177 335.665 96.169Z" stroke="#ECECEC" stroke-width="5" stroke-linejoin="round"/>
</svg>
