<svg width="448" height="448" viewBox="0 0 448 448" fill="none" xmlns="http://www.w3.org/2000/svg">
<path d="M96.0227 200.661C96.3147 184.422 99.401 159.778 123.535 159.778C147.669 159.778 145.121 190.414 143.6 199.646C140.021 221.376 140.281 244.969 141.099 266.888C141.796 285.561 142.973 304.215 143.659 322.913C144.211 337.957 146.958 356.364 142.766 371.063C139.602 382.159 132.07 389.666 120.258 387.59C113.423 386.388 106.746 383.115 102.394 377.566C90.307 362.152 92.9354 335.571 94.2958 317.424C97.2096 278.558 95.3223 239.609 96.0227 200.661Z" stroke="#ECECEC" stroke-width="5" stroke-linejoin="round"/>
<path d="M219.343 165.144C232.483 168.273 240.431 184.258 244.429 197.398C247.051 193.483 252.129 169.787 271.666 161.501C293.947 152.052 325.662 161.559 350.151 176.495C396.15 204.55 387.005 338.366 379.24 368.231C370.699 401.083 331.635 389.781 328.051 373.607C320.651 340.206 348.623 235.484 307.743 217.712C266.863 199.941 245.135 209.948 240.431 241.234C233.71 285.945 230.616 334.03 229.698 356.511C229.406 363.652 226.684 380.092 212.772 382.566C198.906 385.033 187.808 382.774 181.713 368.231C171.789 344.547 181.713 205.761 181.713 195.607C181.713 185.453 182.917 174.666 188.881 168.728C193.941 163.689 212.785 163.583 219.343 165.144Z" stroke="#ECECEC" stroke-width="5" stroke-linejoin="round"/>
<path d="M9.41939 54.7884C4.00281 -0.224987 63.4297 19.6947 119.975 10.9627C242.511 -7.96017 383.402 13.9323 418.404 5.38727C453.405 -3.15774 441.034 91.4333 441.034 165.464C441.034 248.037 452.491 425.109 436.46 436.487C420.43 447.866 343.468 421.71 256.796 436.496C144.603 455.636 14.8367 436.485 14.8367 436.485C-11.3185 436.486 14.836 109.802 9.41939 54.7884Z" stroke="#ECECEC" stroke-width="5" stroke-linejoin="round"/>
</svg>
