<svg width="367" height="379" viewBox="0 0 367 379" fill="none" xmlns="http://www.w3.org/2000/svg">
<path d="M96.5177 34.793C96.5177 34.793 121.982 44.4444 140.657 62.6119C154.848 76.4169 196.683 87.5921 196.683 87.5921C194.243 138.988 188.971 167.852 188.759 219.306C188.508 280.513 189.252 314.862 192.154 376M96.5177 34.793C96.5177 34.793 65.3923 57.5023 48.9812 62.6119C27.7892 69.21 4.84099 87.0244 4.84099 87.0244C4.84099 87.0244 8.15847 120.071 6.66523 173.32M96.5177 34.793C104 88.8809 104.263 135.81 101.611 190.352C98.9588 244.893 95.951 326.607 95.951 326.607M6.66523 173.32C0.0402052 242.583 4.84099 368.619 4.84099 368.619C4.84099 368.619 30.0668 359.235 52.3766 345.342C68.7877 335.123 95.951 326.607 95.951 326.607M6.66523 173.32C6.66523 173.32 13.7129 186.052 21.2529 191.487C28.521 196.726 34.0087 197.542 42.7571 199.435C55.9347 202.288 75.8899 185.983 77.2771 199.435C78.0094 206.537 74.4621 210.928 69.3544 215.9C64.4581 220.666 58.283 218.39 53.5092 223.28C47.4943 229.441 52.7203 238.112 46.7184 244.286C40.8125 250.361 33.5425 247.207 26.346 251.667C13.4478 259.66 3 282.324 3 282.324M95.951 326.607C95.951 326.607 119.543 342.962 140.657 349.317C163.293 356.129 192.154 376 192.154 376M192.154 376C192.154 376 244.457 374.721 278.737 368.619C300.383 364.767 325.152 368.05 342.684 371.458M363 364.078C363 364.078 361.093 246.654 356 182.5M363 364.078C363 364.078 347.889 357.452 342.684 349.317C337.441 341.119 342.121 333.519 337.591 324.904C331.597 313.503 318.246 314.953 312.692 303.33C309.188 295.998 305.352 290.283 308.73 282.892C313.501 272.455 327.337 282.883 337.591 277.782C346.646 273.278 348.91 260.75 359.835 259.047M363 364.078V374.297L342.684 371.458M3.70247 336.259C3.70247 336.259 9.84954 324.719 16.1598 319.227C26.7305 310.026 38.552 314.854 49.5479 306.169C64.3902 294.446 57.9068 275.311 72.7498 263.589C81.3733 256.779 88.0794 251.862 99.0522 251.667C108.416 251.5 113.275 254.091 120.851 259.615C128.111 264.907 127.86 272.327 134.999 277.782C145.238 285.607 155.245 280.957 166.689 286.866C176.239 291.797 178.007 300.157 189.404 303.33C202.685 307.029 209.497 295.753 223.279 295.95C236.198 296.135 244.017 297.458 255.536 303.33C268.777 310.081 271.811 319.959 283.265 329.446C295.231 339.357 302.82 343.78 315.521 352.723C326.058 360.142 342.684 371.458 342.684 371.458M29.7412 70.988C29.7412 70.988 45.8086 71.3232 53.5092 77.9406C63.382 86.4247 59.4132 97.42 63.6954 109.734C68.6034 123.847 65.1198 136.86 77.2771 145.501C89.9003 154.472 103.827 137.188 116.89 145.501C126.415 151.562 124.302 162.523 133.301 169.346C152.543 183.932 172.409 159.511 191.337 160.262M28.6096 131.307L37.664 144.365M37.664 144.365L46.7184 157.423M37.664 144.365L46.7184 131.307M37.664 144.365L28.6096 157.423M278.896 207.794C267.922 209.689 262.484 214.13 262.484 219.305C262.484 226.203 276.166 231.795 293.043 231.795C309.92 231.795 323.602 226.203 323.602 219.305C323.602 213.953 317.631 209.388 306.059 207.61M222 87.5921C226.833 125.63 239.362 139.256 250.035 160.262C262.981 185.743 285.989 220.441 291.648 220.441C297.308 220.441 314.82 195.854 328.129 171.049C343.971 141.523 360.951 120.154 363.518 94.4049C369.403 35.3607 341.448 3 294.478 3C244.113 3 216.907 37.0639 222 87.5921ZM323.602 80.7793C323.602 97.711 309.92 111.437 293.043 111.437C276.166 111.437 262.484 97.711 262.484 80.7793C262.484 63.8476 276.166 50.1218 293.043 50.1218C309.92 50.1218 323.602 63.8476 323.602 80.7793Z" stroke="#ECECEC" stroke-width="5" stroke-linecap="round" stroke-linejoin="round"/>
</svg>
