<svg width="448" height="464" viewBox="0 0 448 464" fill="none" xmlns="http://www.w3.org/2000/svg">
<path d="M201.418 184.629L255.55 158.86L199.708 151.738L201.93 96.4795L170.465 129.979L133.453 86.2801L145.674 143.151L131.728 143.489L117.783 143.828L89.892 144.505L132.008 170.924C129.211 173.902 99.3511 196.51 84.7706 207.443L145.697 194.459L143.396 254.577L173.052 206.382L224.445 227.056L211 204.994M192.356 247.501C193.291 250.811 193.502 253.065 193.586 255.133M193.586 255.133C193.691 257.699 193.599 259.978 194.45 263.632M193.586 255.133C191.552 255.219 189.203 255.495 186.474 256.566M193.586 255.133C196.049 255.028 198.051 255.201 199.708 254.577M234.046 104.096C235.916 110.415 236.339 114.717 236.507 118.665M236.507 118.665C236.716 123.563 236.533 127.914 238.235 134.891M236.507 118.665C232.439 118.83 227.741 119.357 222.283 121.401M236.507 118.665C241.434 118.465 245.437 118.796 248.751 117.604M25.9799 188.651C25.9799 78.674 95.4137 22.43 171.943 22.4317C248.472 22.4335 330.07 67.8924 330.07 173.856C330.07 207.146 321.916 261.15 284.748 295.694C247.581 330.237 245.285 325.644 184.613 333.038C153.045 336.886 106.086 310.012 85.1896 295.694C64.2931 281.375 25.9799 234.981 25.9799 188.651ZM18.3871 252.841C-20.8018 149.327 16.2073 33.1605 114.111 11.5105C212.016 -10.1395 298.609 3.98478 342.233 119.215C350.866 142.018 359.336 210.129 334.124 262.617C327.717 275.955 323.481 289.473 313.851 297.075C313.851 297.075 328.907 314.142 341.85 330C345.376 334.321 348.746 338.552 351.612 342.324C364.993 359.937 424.599 422.736 436.578 435.271C448.558 447.805 445.15 454.952 442.076 457.73C438.648 460.829 431.535 463.193 425.738 457.732C419.942 452.271 399.819 429.069 376.737 405.443C338.712 366.521 295.606 315.822 295.606 315.822C282.546 325.287 267.731 334.571 234.788 349.773C202.019 364.894 153.342 352.652 125.276 345.471C97.2106 338.29 37.4606 303.222 18.3871 252.841ZM253.631 200.322L234.232 204.994C232.912 205.312 232.783 207.157 234.046 207.653L252.613 214.942C253.052 215.115 253.373 215.501 253.466 215.967L257.53 236.479C257.806 237.871 259.726 238.003 260.192 236.663L267.06 216.904C267.216 216.455 267.588 216.117 268.046 216.006L287.446 211.334C288.766 211.017 288.894 209.171 287.631 208.675L269.064 201.386C268.625 201.214 268.304 200.828 268.212 200.361L264.147 179.849C263.872 178.457 261.952 178.325 261.486 179.666L254.618 199.424C254.461 199.873 254.09 200.212 253.631 200.322Z" stroke="#ECECEC" stroke-width="5" stroke-linecap="round" stroke-linejoin="round"/>
</svg>
