<svg width="497" height="391" viewBox="0 0 497 391" fill="none" xmlns="http://www.w3.org/2000/svg">
<path d="M433.527 38.549C432.089 36.6226 428.455 36.141 426.813 36.141C423.104 36.141 421.057 38.6781 421.057 42.4017C421.057 46.1254 423.104 50.1073 426.813 50.1073C430.521 50.1073 433.053 48.4983 434.971 45.2913C436.411 42.8833 435.93 38.549 428.737 39.5122M390.679 37.8846C396.031 38.2072 398.58 41.7125 397.077 45.2899C395.574 48.8673 391.176 51.0052 387.964 49.1434C384.753 47.2815 382.272 42.738 384.126 39.5132C385.041 37.9222 388.443 35.66 390.679 35.66M353.911 46.7399C349.115 49.1479 346.237 46.7399 345.757 42.8871C345.278 39.0344 347.804 36.1448 351.513 36.1448C355.221 36.1448 358.707 39.1635 358.707 42.8871C358.707 44.7242 357.976 46.9686 356.789 48.1847M454.069 42.912C486.555 42.912 492.524 38.0277 492.524 33.3424C492.524 28.6572 502.119 5.81985 472.382 5.82007C472.382 5.82007 307.051 -0.524935 182.21 5.81984C106.43 9.6712 35.9255 7.74745 17.6999 9.67194C-0.525697 11.5964 3.34375 18.8221 3.34375 24.6012C3.34375 37.1226 -0.526657 49.6254 39.2678 48.1801C79.0623 46.7348 263.346 42.5954 325.886 42.475M309 316.387C300.5 323 290.5 329.5 249.39 332.318C228.575 333.745 200.75 317.897 187.039 308.575C173.328 299.254 148.19 269.052 148.19 238.892C148.19 176.924 191.998 123.431 249.39 131.495C306.782 139.56 347.712 160.279 347.712 229.26C347.712 250.931 343.617 259.905 343.617 259.905M244.593 131.496C244.593 219.628 256.584 247.56 248.91 331.357M148.669 234.557C236.44 234.557 264.258 222.517 347.712 230.223M334.444 383.121C397.274 376.861 487.342 402.194 481.324 362.75C475.305 323.306 510.386 74.0306 481.324 74.0315C481.324 74.0315 337.133 60.3 212.468 74.0233C116.162 84.6249 30.645 65.8715 12.8328 74.0295C-4.97937 82.1876 7.75119 209.146 7.75119 268.349C7.75118 321.428 -5.99484 389.248 32.897 383.121C71.7888 376.995 198.286 396.689 334.444 383.121ZM202 232.982C202 170.956 222.113 124.259 248.92 132.331C275.727 140.403 295.047 163.935 295.047 232.982C295.047 258.279 289.309 285.837 281.44 303.087C273.57 320.338 268.799 329.326 250.206 331.763C240.48 333.038 225.753 318.076 219.349 308.746C212.945 299.416 202 263.171 202 232.982ZM248.471 277.901C186.996 277.901 141.496 257.13 149.497 230.213C157.497 203.296 180.037 184.472 248.471 184.472C273.544 184.472 301.639 189.657 318.736 197.56C335.833 205.462 344.741 210.252 347.157 228.921C348.42 238.688 333.592 253.475 324.345 259.905C315.097 266.336 278.391 277.901 248.471 277.901ZM362.111 280.5C362.111 280.5 351.061 283.449 337.388 283.518C329.534 283.558 321 281.196 321 281.196C321 281.196 320.763 288.146 323.363 296.32C327.73 310.047 331.099 329.004 331.099 329.004C331.099 329.004 336.739 326.834 340.272 319.682C343.805 312.531 344.961 314.155 344.961 314.155C344.961 314.155 349.313 314.608 353.863 318.589C358.206 322.39 367.741 333.955 367.741 333.955C371.668 327.459 376.711 326.366 380.502 318.164C380.502 318.164 368.962 306.388 362.574 303.468C357.605 301.197 356.702 298.446 356.702 298.446C356.702 298.446 356.322 293.67 360.385 288.879C363.823 284.826 362.111 280.5 362.111 280.5Z" stroke="#ECECEC" stroke-width="5" stroke-linecap="round" stroke-linejoin="round"/>
</svg>
