<svg width="449" height="437" viewBox="0 0 449 437" fill="none" xmlns="http://www.w3.org/2000/svg">
<path d="M208.473 433.353L208.316 435.848L208.317 435.848L208.473 433.353ZM339.437 395.583L341.051 397.492C341.115 397.438 341.177 397.38 341.236 397.32L339.437 395.583ZM443.006 225.36L440.569 224.802L440.569 224.802L443.006 225.36ZM253.297 9.21205L252.511 11.5854L252.511 11.5854L253.297 9.21205ZM7.54903 249.002L9.9616 248.347L9.9616 248.347L7.54903 249.002ZM73.0766 380.514L71.2862 382.259L71.2862 382.259L73.0766 380.514ZM208.418 433.35L208.575 430.855L208.575 430.855L208.418 433.35ZM332.234 175.561L334.697 175.992L334.734 175.778V175.561H332.234ZM329.595 190.615L327.133 190.183L327.095 190.397V190.615H329.595ZM323.978 199.66L324.315 197.183L324.305 197.182L324.295 197.181L323.978 199.66ZM319.073 199.007L317.512 200.96L318.051 201.391L318.735 201.484L319.073 199.007ZM264.518 164.049L266.382 162.383L263.056 158.662L262.068 163.554L264.518 164.049ZM243.412 323.443L241.623 321.697L241.623 321.697L243.412 323.443ZM126.449 308.389L128.577 307.078L128.577 307.078L126.449 308.389ZM129.967 222.493L131.816 224.176L131.817 224.175L129.967 222.493ZM173.167 195.458L173.467 197.94L173.472 197.939L173.167 195.458ZM160.747 292.45L158.803 294.022L158.803 294.022L160.747 292.45ZM199.441 313.702L198.35 311.452L198.183 311.533L198.03 311.638L199.441 313.702ZM230.221 116.23L232.699 116.558L232.721 116.395V116.23H230.221ZM235.497 92.5626V95.0626H235.545L235.592 95.0608L235.497 92.5626ZM256.787 92.5604L256.986 90.0683L256.979 90.0678L256.787 92.5604ZM262.966 97.5009L265.353 96.7581L265.351 96.75L265.348 96.7419L262.966 97.5009ZM267.51 113.574L269.793 112.554L269.771 112.505L269.747 112.457L267.51 113.574ZM326.721 165.021L325.202 167.006L325.6 167.311L326.085 167.438L326.721 165.021ZM208.317 435.848C253.622 438.694 298.674 433.318 341.051 397.492L337.823 393.674C296.818 428.339 253.264 433.661 208.63 430.858L208.317 435.848ZM339.437 395.583C341.236 397.32 341.236 397.319 341.237 397.318C341.238 397.317 341.239 397.316 341.241 397.315C341.244 397.311 341.248 397.307 341.253 397.301C341.265 397.29 341.281 397.273 341.302 397.251C341.344 397.207 341.407 397.141 341.489 397.055C341.653 396.883 341.895 396.629 342.211 396.294C342.843 395.624 343.769 394.634 344.953 393.346C347.32 390.771 350.717 387.005 354.852 382.229C363.119 372.679 374.338 359.084 386.152 342.897C409.736 310.584 435.875 267.694 445.443 225.918L440.569 224.802C431.234 265.563 405.589 307.785 382.114 339.949C370.399 356.001 359.27 369.486 351.071 378.956C346.973 383.691 343.608 387.42 341.271 389.963C340.103 391.234 339.192 392.208 338.574 392.863C338.265 393.191 338.03 393.438 337.872 393.603C337.793 393.685 337.734 393.747 337.695 393.788C337.676 393.808 337.661 393.823 337.652 393.833C337.647 393.838 337.643 393.842 337.641 393.844C337.64 393.845 337.64 393.846 337.639 393.846C337.639 393.847 337.639 393.847 339.437 395.583ZM445.443 225.918C456.95 175.676 434.927 129.412 397.346 91.6099C359.766 53.8088 306.347 24.1411 254.083 6.83872L252.511 11.5854C304.217 28.7027 356.897 58.0144 393.8 95.1351C430.703 132.255 451.55 176.855 440.569 224.802L445.443 225.918ZM254.083 6.83872C193.505 -13.2158 122.7 16.3838 71.5504 66.0473C20.388 115.723 -12.0528 186.378 5.13645 249.658L9.9616 248.347C-6.56009 187.525 24.5538 118.648 75.0334 69.6345C125.526 20.6091 194.451 -7.63582 252.511 11.5854L254.083 6.83872ZM5.13645 249.658C13.8497 281.734 18.7892 303.085 27.3302 322.23C35.9309 341.51 48.1479 358.515 71.2862 382.259L74.8671 378.769C51.9643 355.267 40.172 338.744 31.8964 320.193C23.561 301.509 18.7573 280.727 9.9616 248.347L5.13645 249.658ZM71.2862 382.259C118.01 430.205 163.234 433.017 208.261 435.845L208.575 430.855C163.701 428.036 120.187 425.275 74.8671 378.769L71.2862 382.259ZM208.261 435.845L208.316 435.848L208.63 430.858L208.575 430.855L208.261 435.845ZM329.772 175.129L327.133 190.183L332.058 191.046L334.697 175.992L329.772 175.129ZM327.095 190.615C327.095 192.726 326.793 194.693 326.178 195.965C325.883 196.574 325.586 196.88 325.357 197.026C325.171 197.145 324.88 197.26 324.315 197.183L323.64 202.138C325.264 202.359 326.769 202.057 328.048 201.24C329.282 200.452 330.116 199.306 330.679 198.143C331.778 195.871 332.095 193.017 332.095 190.615H327.095ZM324.295 197.181C322.754 196.983 321.071 196.757 319.412 196.53L318.735 201.484C320.4 201.712 322.098 201.94 323.66 202.14L324.295 197.181ZM320.635 197.055C308.4 187.267 300.32 185.042 292.703 182.033C285.361 179.133 277.991 175.371 266.382 162.383L262.654 165.715C274.789 179.292 282.809 183.501 290.866 186.683C298.645 189.757 305.972 191.728 317.512 200.96L320.635 197.055ZM264.518 164.049C262.068 163.554 262.068 163.554 262.067 163.555C262.067 163.555 262.067 163.556 262.067 163.557C262.067 163.559 262.066 163.562 262.065 163.565C262.064 163.572 262.062 163.582 262.059 163.594C262.054 163.62 262.047 163.657 262.038 163.705C262.019 163.801 261.991 163.943 261.955 164.128C261.884 164.499 261.782 165.043 261.655 165.745C261.4 167.149 261.047 169.187 260.65 171.733C259.856 176.825 258.884 183.959 258.171 192.14C256.75 208.437 256.33 229.139 260.54 246.118L265.393 244.915C261.387 228.759 261.744 208.727 263.152 192.574C263.854 184.53 264.81 177.51 265.591 172.504C265.981 170.001 266.327 168.004 266.575 166.636C266.698 165.952 266.798 165.425 266.866 165.071C266.9 164.894 266.926 164.761 266.943 164.672C266.952 164.628 266.958 164.595 266.963 164.573C266.965 164.563 266.966 164.555 266.967 164.55C266.968 164.547 266.968 164.546 266.968 164.545C266.969 164.544 266.969 164.544 266.969 164.544C266.969 164.544 266.969 164.544 264.518 164.049ZM260.54 246.118C268.544 278.404 260.06 302.803 241.623 321.697L245.201 325.189C264.834 305.07 273.818 278.899 265.393 244.915L260.54 246.118ZM241.623 321.697C207.814 356.343 155.275 350.417 128.577 307.078L124.32 309.701C152.649 355.688 209.021 362.265 245.201 325.189L241.623 321.697ZM128.577 307.078C119.251 291.945 114.308 277.593 114.52 263.925C114.73 250.321 120.052 237.1 131.816 224.176L128.118 220.81C115.666 234.49 109.753 248.842 109.52 263.848C109.289 278.79 114.695 294.083 124.32 309.701L128.577 307.078ZM131.817 224.175C145.036 209.64 156.567 199.984 173.467 197.94L172.867 192.976C154.08 195.248 141.497 206.1 128.118 220.811L131.817 224.175ZM173.472 197.939C177.618 197.429 181.445 200.861 181.445 205.424H186.445C186.445 198.119 180.242 192.068 172.861 192.977L173.472 197.939ZM181.445 205.424V228.48H186.445V205.424H181.445ZM181.445 228.48C181.445 228.695 181.363 229.147 180.472 230.001C179.564 230.872 178.164 231.831 176.185 233.072C172.337 235.484 166.784 238.664 160.899 243.601L164.113 247.432C169.662 242.776 174.829 239.823 178.841 237.308C180.793 236.084 182.608 234.881 183.934 233.609C185.276 232.321 186.445 230.65 186.445 228.48H181.445ZM160.899 243.601C154.401 249.053 151.44 258.648 151.211 268.032C150.982 277.457 153.48 287.439 158.803 294.022L162.691 290.878C158.338 285.494 155.999 276.806 156.21 268.154C156.421 259.461 159.178 251.572 164.113 247.432L160.899 243.601ZM158.803 294.022C162.177 298.195 165.07 302.224 168.039 306.054C170.935 309.79 173.839 313.25 176.962 315.807C180.117 318.39 183.644 320.177 187.762 320.322C191.864 320.467 196.163 318.971 200.852 315.766L198.03 311.638C193.893 314.466 190.634 315.421 187.939 315.326C185.26 315.231 182.752 314.086 180.13 311.938C177.475 309.765 174.861 306.694 171.991 302.991C169.195 299.384 166.077 295.067 162.691 290.878L158.803 294.022ZM200.531 315.952C225.783 303.709 237.778 269.584 230.933 224.773L225.99 225.528C232.721 269.588 220.588 300.671 198.35 311.452L200.531 315.952ZM230.933 224.773C227.58 202.822 228.006 175.805 229.291 154.175C229.933 143.381 230.786 133.968 231.478 127.256C231.824 123.901 232.13 121.221 232.349 119.383C232.459 118.464 232.546 117.755 232.607 117.278C232.637 117.039 232.66 116.858 232.676 116.737C232.683 116.677 232.689 116.631 232.693 116.601C232.695 116.586 232.697 116.575 232.698 116.568C232.698 116.565 232.699 116.562 232.699 116.56C232.699 116.559 232.699 116.559 232.699 116.559C232.699 116.558 232.699 116.558 230.221 116.23C227.742 115.901 227.742 115.902 227.742 115.903C227.742 115.903 227.742 115.904 227.742 115.905C227.742 115.908 227.741 115.911 227.741 115.915C227.739 115.923 227.738 115.936 227.736 115.952C227.731 115.985 227.725 116.032 227.717 116.095C227.701 116.221 227.677 116.408 227.646 116.652C227.584 117.141 227.495 117.861 227.384 118.792C227.162 120.654 226.854 123.359 226.505 126.743C225.807 133.511 224.947 142.997 224.3 153.878C223.009 175.599 222.556 203.042 225.99 225.528L230.933 224.773ZM232.721 116.23C232.721 112.553 232.562 106.85 233.119 102.009C233.399 99.5725 233.838 97.6039 234.438 96.3123C235.05 94.9958 235.465 95.0626 235.497 95.0626V90.0626C232.564 90.0626 230.838 92.197 229.904 94.2046C228.959 96.237 228.45 98.8489 228.152 101.438C227.553 106.649 227.721 112.78 227.721 116.23H232.721ZM235.497 92.5626C235.592 95.0608 235.592 95.0608 235.592 95.0608C235.592 95.0608 235.592 95.0608 235.592 95.0608C235.593 95.0608 235.593 95.0608 235.594 95.0607C235.596 95.0607 235.598 95.0606 235.601 95.0605C235.608 95.0602 235.618 95.0598 235.631 95.0594C235.657 95.0584 235.697 95.0569 235.749 95.055C235.854 95.0513 236.009 95.0458 236.21 95.0389C236.61 95.0253 237.191 95.0064 237.911 94.9853C239.351 94.9432 241.343 94.8927 243.552 94.8589C248.002 94.7909 253.219 94.7932 256.596 95.0531L256.979 90.0678C253.346 89.7882 247.917 89.7916 243.475 89.8595C241.238 89.8937 239.222 89.9449 237.765 89.9875C237.036 90.0088 236.447 90.028 236.039 90.0418C235.836 90.0488 235.677 90.0544 235.569 90.0583C235.515 90.0602 235.474 90.0617 235.446 90.0628C235.432 90.0633 235.421 90.0637 235.414 90.064C235.41 90.0641 235.408 90.0642 235.406 90.0643C235.405 90.0643 235.404 90.0643 235.403 90.0644C235.403 90.0644 235.403 90.0644 235.403 90.0644C235.403 90.0644 235.402 90.0644 235.497 92.5626ZM256.589 95.0526C258.421 95.1984 260.003 96.4362 260.584 98.2599L265.348 96.7419C264.156 93.0004 260.861 90.3768 256.986 90.0683L256.589 95.0526ZM260.579 98.2436C261.159 100.108 261.805 103.057 262.593 106.253C263.337 109.271 264.226 112.594 265.274 114.691L269.747 112.457C268.993 110.948 268.22 108.193 267.447 105.056C266.718 102.097 265.992 98.8123 265.353 96.7581L260.579 98.2436ZM265.228 114.594C274.864 136.158 283.001 144.201 292.576 149.429C297.118 151.909 302.187 153.837 307.312 156.223C312.568 158.67 318.404 161.808 325.202 167.006L328.239 163.035C321.085 157.564 314.918 154.249 309.423 151.691C303.798 149.072 299.37 147.441 294.972 145.04C286.666 140.505 279.15 133.495 269.793 112.554L265.228 114.594ZM326.085 167.438C328.204 167.995 329.734 169.964 329.734 172.261H334.734C334.734 167.743 331.721 163.749 327.356 162.603L326.085 167.438ZM329.734 172.261V175.561H334.734V172.261H329.734Z" fill="#ECECEC"/>
</svg>
