<svg width="189" height="31" viewBox="0 0 189 31" fill="none" xmlns="http://www.w3.org/2000/svg">
<path d="M4 4C54.556 4 105.112 4 155.668 4C165.426 4 175.185 4 184.943 4C185.635 4 179.806 5.11316 178.432 5.4359C151.371 11.7946 123.111 10.026 95.6191 12.2564C79.0909 13.5974 62.5432 15.1244 46.0624 16.9231C39.15 17.6775 31.1033 18.0653 24.4223 20.1987C18.2849 22.1585 37.3447 20.9615 43.814 20.9615C55.4269 20.9615 67.0517 20.8195 78.663 21.0064C99.7437 21.3458 121.458 20.3064 142.459 21.9487C148.531 22.4236 156.041 22.8456 161.664 25" stroke="#FF6D2A" stroke-width="8" stroke-linecap="square"/>
</svg>
