<svg width="389" height="394" viewBox="0 0 389 394" fill="none" xmlns="http://www.w3.org/2000/svg">
<path d="M3 199.854C3 199.854 13.332 246.34 46.2606 283.691C79.1893 321.043 106.344 377.376 106.344 377.376M3 199.854L66.5699 208.134M3 199.854C3 199.854 18.5123 176.56 28 155C37.4877 133.44 59.1165 118.468 59.1165 118.468M106.344 377.376L135.567 323.609M106.344 377.376C106.344 377.376 130.205 371.033 154.076 373.394C177.947 375.754 201.807 369.411 201.807 369.411M256.38 286.274C256.38 286.274 237.615 223.704 210.167 190.94C186.13 162.247 157.085 111.172 157.085 111.172M256.38 286.274L202.788 283.337M256.38 286.274C256.38 286.274 243.357 312.244 229.094 327.843C214.83 343.442 201.807 369.411 201.807 369.411M157.085 111.172L135.625 171.029M157.085 111.172L59.1165 118.468M135.567 323.609L173.913 325.82M135.567 323.609C135.567 323.609 113.915 271.779 93.0886 249.35C72.262 226.922 66.5699 208.134 66.5699 208.134M173.913 325.82L202.788 283.337M173.913 325.82L201.807 369.411M202.788 283.337C202.788 283.337 165.951 224.306 154.684 197.537C143.416 170.768 135.625 171.029 135.625 171.029M135.625 171.029L90.4336 164.312M90.4336 164.312L59.1165 118.468M90.4336 164.312L66.5699 208.134M204.297 35.4377L253.456 77.3474M204.297 35.4377C204.297 35.4377 195.272 62.6681 195.622 83.834C195.973 105 187.5 123.5 187.5 123.5M204.297 35.4377C204.297 35.4377 226.524 32.6741 246.794 24.7029C267.064 16.7316 306.719 6.57646 306.719 6.57646M253.456 77.3474L306.719 6.57646M253.456 77.3474C253.456 77.3474 240.201 140.149 235.181 158.824C230.161 177.5 229 183 229 183M253.456 77.3474C253.456 77.3474 273.456 85.3667 290.101 87.1355C306.746 88.9044 326.746 96.9237 326.746 96.9237M386 81.295C386 81.295 362.625 170.758 323.4 239.255C278.192 318.201 263.543 374.523 263.543 374.523M386 81.295L326.746 96.9237M386 81.295C386 81.295 380.252 67.7126 361.426 55.3222C342.601 42.9318 306.719 6.57646 306.719 6.57646M263.543 374.523C263.543 374.523 247.851 354.14 246 350.5C244.149 346.86 239 337.5 239 337.5M263.543 374.523C263.543 374.523 261.993 377.79 250.253 379.004C238.513 380.219 217.488 391 217.488 391L210.167 383.5M326.746 96.9237C326.746 96.9237 311.367 117.68 297.892 156.813C285.651 192.362 262 257.5 262 257.5M326.746 96.9237C326.746 96.9237 317.431 61.6411 314.368 38.0676C311.305 14.4941 306.719 6.57646 306.719 6.57646M309.472 346.677C315.596 354.058 319.634 359.877 319.634 367.032M326.04 330.882C332.457 330.882 340.887 335.408 346.424 335.408M326.849 305.658C331.808 302.341 341.536 303.634 346.971 300.089M99.8026 45.7429L82.0302 51.5151C80.8209 51.9079 80.8422 53.6207 82.061 53.9834L99.9719 59.3132C100.395 59.4392 100.725 59.7715 100.847 60.1949L106.218 78.8206C106.583 80.0845 108.387 80.0621 108.72 78.7896L113.624 60.0365C113.736 59.6102 114.057 59.2698 114.477 59.1334L132.25 53.3612C133.459 52.9684 133.438 51.2556 132.219 50.893L114.308 45.5631C113.885 45.4371 113.555 45.1048 113.433 44.6814L108.062 26.0557C107.697 24.7918 105.893 24.8142 105.56 26.0867L100.656 44.8398C100.544 45.2661 100.223 45.6065 99.8026 45.7429ZM164.586 10.9896L158.134 12.5028C156.896 12.7931 156.773 14.5017 157.957 14.9649L164.127 17.3791C164.539 17.5401 164.84 17.8988 164.926 18.3309L166.23 24.8806C166.487 26.1705 168.287 26.299 168.726 25.0587L170.953 18.7611C171.1 18.3456 171.449 18.0333 171.879 17.9324L178.332 16.4192C179.57 16.1288 179.692 14.4203 178.509 13.957L172.338 11.5428C171.927 11.3819 171.626 11.0232 171.54 10.5911L170.235 4.04134C169.978 2.75144 168.178 2.62298 167.74 3.86323L165.513 10.1609C165.366 10.5764 165.017 10.8887 164.586 10.9896Z" stroke="#ECECEC" stroke-width="5" stroke-linecap="round" stroke-linejoin="round"/>
</svg>
