<svg width="364" height="421" viewBox="0 0 364 421" fill="none" xmlns="http://www.w3.org/2000/svg">
<path d="M154.248 134.525C124.109 128.271 115.227 155.557 115.227 155.557C115.227 155.557 148.846 166.772 129.538 188.227C113.907 205.595 90.2695 194.337 90.2695 194.337C90.2695 194.337 65.9023 238.355 93.4455 296.291C124.046 360.658 152.275 339.1 152.275 339.1M347.203 139.582C315.306 131.113 310.383 161.789 310.383 161.789C310.383 161.789 336.193 185.988 326.57 199.326C319.47 209.167 291.225 210 291.225 210C291.225 210 273.16 249.996 296.756 303.318C322.97 362.558 348.432 334.443 348.432 334.443M3 83.5336C4.54085 14.8505 143.839 -10.4166 156.496 64.8133M221.353 39.3587C236.011 -17.1688 351.293 1.17796 357.95 34.0091M95.7043 383.807C94.7541 397.619 86.8948 410.032 86.3467 418M17.4607 391.762C32.0099 383.936 38.9758 372.57 56.1736 363.272C64.0783 374.101 74.2945 382.775 87.4525 383.409C139.579 385.921 150.238 350.191 158.559 321.811C170.327 281.672 160.52 256.47 165.941 214.503C171.361 172.535 160.343 147.754 158.197 141.921C155.202 133.782 138.83 94.3402 103.633 92.6443C54.1227 90.2588 39.5085 131.728 36.6501 140.584C33.3505 150.807 24.2254 173.806 30.3639 231.955C36.5024 290.103 29.6957 292.861 39.564 329.657C40.7694 334.151 43 339.1 43 339.1M135.593 368.673C149.498 379.47 155.64 392.024 164.088 398.827M285.323 66.3098C285.072 74.2886 291.661 87.2091 291.225 101.039C333.859 103.093 348.493 141.062 351.61 149.151L351.661 149.281C353.817 154.874 364.873 178.637 359.581 218.835C354.288 259.033 364.138 283.197 352.509 321.631C344.287 348.806 333.753 383.018 281.757 380.512C253.55 379.153 236.912 339.792 233.849 328.922C223.906 293.65 230.688 291.021 224.408 235.298C218.128 179.576 227.166 157.557 230.43 147.769C232.791 140.686 243.347 114.5 264.5 109M248.347 118.272C232.141 107.801 227.767 96.4443 214.053 87.6248M331.792 118.028C346.729 108.244 351.772 97.053 360.872 90.8664" stroke="#ECECEC" stroke-width="5" stroke-linecap="round" stroke-linejoin="round"/>
</svg>
