<svg width="409" height="418" viewBox="0 0 409 418" fill="none" xmlns="http://www.w3.org/2000/svg">
<path fill-rule="evenodd" clip-rule="evenodd" d="M3.49602 406.201C11.1777 414.908 54.4962 426.364 108.287 389.525C108.287 389.525 218.269 426.298 296.605 407.82C389.795 385.837 416.308 255.905 402.629 150.511C387.019 30.2492 188.012 -44.5136 95.9749 37.5345C48.1721 80.1489 32.0702 90.2736 10.7908 150.511C-10.4886 210.749 31.4421 320.738 31.4421 320.738C31.4411 379.088 -1.3908 400.662 3.49602 406.201ZM146.706 120.631C157.185 122.947 178.764 167.186 177.444 174.131C174.772 188.181 157.185 190.404 157.185 204.703C157.185 216.517 224.946 270.333 237.522 264.456C250.097 258.58 251.584 247.458 263.369 240.138C268.958 236.667 312.204 258.9 314.366 264.456C323.172 287.09 314.366 303.368 286.423 313.096C242.511 328.381 206.83 297.034 169.06 270.017C127.155 240.043 99.9024 216.518 104.094 160.933C105.997 135.686 118.993 114.506 146.706 120.631Z" stroke="#ECECEC" stroke-width="5" stroke-linecap="round" stroke-linejoin="round"/>
</svg>
