<svg width="476" height="326" viewBox="0 0 476 326" fill="none" xmlns="http://www.w3.org/2000/svg">
<path d="M472.582 266.847C472.582 312.331 383.687 323 297.285 323C164.445 323 112.599 312.331 67.1545 312.331C21.7097 312.331 10.7568 268.516 10.7568 214.906C10.7569 155.111 -17.9197 62.4486 35.0025 32.1253C87.9247 1.802 126.331 20.9317 219.19 10.2242C339.392 -3.63628 418.813 1.80816 448.49 32.1253C478.168 62.4425 472.582 221.362 472.582 266.847Z" stroke="#ECECEC" stroke-width="5" stroke-linecap="round" stroke-linejoin="round"/>
<path d="M181.386 167.281C182.161 143.966 181.386 96.8235 188.862 89.4139C196.406 81.9385 225.764 114.072 254.022 126.738C285 140.623 313.952 163.01 313.84 167.281C313.616 175.81 278.591 188.6 254.022 206.747C229.095 225.158 188.862 242.962 181.385 238.747C173.908 234.533 180.219 202.374 181.386 167.281Z" stroke="#ECECEC" stroke-width="5" stroke-linecap="round" stroke-linejoin="round"/>
</svg>
